<svg xmlns="http://www.w3.org/2000/svg" xmlns:xlink="http://www.w3.org/1999/xlink" width="576.6" height="342.979" viewBox="0 0 576.6 342.979"><defs><linearGradient id="a" y1="0.5" x2="1" y2="0.5" gradientUnits="objectBoundingBox"><stop offset="0" stop-color="#fff"/><stop offset="1"/></linearGradient><linearGradient id="d" x1="0.108" y1="0.359" x2="0.911" y2="0.689" xlink:href="#a"/></defs><g transform="translate(-399 -304)"><path d="M178.626,421.488H509.69l141.117-.608c3.579-21.927,7.17-44.082,5.725-66.253s-8.4-44.683-23.467-61.006c-14.205-15.382-36.242-27.081-38.292-47.917-1.859-18.89,14.574-36.5,11.132-55.164-2.159-11.711-12.115-20.881-23.327-24.9s-23.517-3.63-35.321-2.057c-29.572,3.938-57.672,14.9-86.357,23.089s-59.291,13.635-88.217,6.338c-24.582-6.2-45.911-21.061-67.106-34.971s-43.741-27.466-68.916-30.465-53.668,7.407-64.266,30.438c-15.743,34.212,13.244,77.784-4.748,110.869-10,18.392-31.965,27.69-42.461,45.8-11.218,19.364-6.4,44.794,6,63.421C143.133,396.056,160.965,409.056,178.626,421.488Z" transform="translate(312.3 225.488)" fill="#cee8f0"/><path d="M149.639,276.458c5.935-5.536,10-13.763,8.446-21.729s-10.153-14.516-17.879-12.03c-5.923,1.907-9.342,7.872-12.944,12.946A69.418,69.418,0,0,1,107.7,274.156c-3.972,2.5-8.594,5.093-9.739,9.645-1.648,6.553,5.726,12.518,12.476,12.185C121.07,295.46,142.008,283.576,149.639,276.458Z" transform="translate(312.3 225.488)" fill="#cee8f0"/><path d="M187.772,178.345H298.216a13.449,13.449,0,0,0-12.605-11.328c-3.581-.07-7.012,1.33-10.546,1.915s-7.691.091-9.8-2.8c-2.228-3.052-1.367-7.655-3.774-10.567-2.025-2.45-5.719-2.811-8.8-2.025s-5.845,2.482-8.846,3.527-6.572,1.345-9.152-.511c-3.548-2.553-3.6-7.721-5.458-11.675a12.826,12.826,0,0,0-24.173,2.9c-.844,4.151.1,9.232-3.113,11.985-3.194,2.731-8.253,1.091-12.113,2.753-4.376,1.885-5.906,7.792-4.184,12.235A13.576,13.576,0,0,0,187.772,178.345Z" transform="translate(312.3 225.488)" fill="#fff"/><path d="M518.88,208.79a4.43,4.43,0,0,0,4.463-3.982,40.933,40.933,0,0,1,.7-4.178c.508-2.729.417-6.076-1.9-7.613-3.227-2.145-7.52,1.094-11.337.429-2.826-.492-4.829-3.038-6.08-5.619s-2.068-5.427-3.887-7.645c-3.9-4.753-11.815-4.953-16.562-1.049-2.995,2.464-4.764,6.066-6.986,9.245s-5.369,6.191-9.243,6.362c-6.489.286-11.327-7.362-17.812-7-4.89.275-8.214,4.922-10.708,9.137s-5.584,8.939-10.442,9.556c-4.65.589-9.3-2.946-13.8-1.664a6.923,6.923,0,0,0-4.448,4.052Z" transform="translate(312.3 225.488)" fill="#fff"/><path d="M527.748,151.536h0a8.834,8.834,0,0,0-8.833-8.833h0a8.834,8.834,0,0,0,8.834-8.833h0a8.833,8.833,0,0,0,8.833,8.833h0a8.833,8.833,0,0,0-8.833,8.833Z" transform="translate(312.3 225.488)" fill="#36c2d9"/><path d="M538.664,155.334h0a5.964,5.964,0,0,0-5.965-5.964h0a5.965,5.965,0,0,0,5.965-5.965h0a5.965,5.965,0,0,0,5.965,5.965h0A5.965,5.965,0,0,0,538.664,155.334Z" transform="translate(312.3 225.488)" fill="#36c2d9"/><path d="M591.914,251.751h0a4.13,4.13,0,0,0-4.131-4.131h0a4.131,4.131,0,0,0,4.131-4.132h0a4.132,4.132,0,0,0,4.132,4.132h0A4.131,4.131,0,0,0,591.914,251.751Z" transform="translate(312.3 225.488)" fill="#36c2d9"/><path d="M251.164,125.834h0a5.964,5.964,0,0,0-5.965-5.964h0a5.965,5.965,0,0,0,5.965-5.965h0a5.965,5.965,0,0,0,5.965,5.965h0A5.965,5.965,0,0,0,251.164,125.834Z" transform="translate(312.3 225.488)" fill="#36c2d9"/><path d="M116.741,176.988h0a8.041,8.041,0,0,0-8.042-8.041h0a8.042,8.042,0,0,0,8.042-8.042h0a8.043,8.043,0,0,0,8.041,8.042h0A8.042,8.042,0,0,0,116.741,176.988Z" transform="translate(312.3 225.488)" fill="#36c2d9"/><path d="M104.241,179h0a5.55,5.55,0,0,0-5.55-5.55h0a5.55,5.55,0,0,0,5.55-5.551h0a5.551,5.551,0,0,0,5.551,5.551h0A5.55,5.55,0,0,0,104.241,179Z" transform="translate(312.3 225.488)" fill="#36c2d9"/><path d="M245.664,114h0a4.626,4.626,0,0,0-4.628-4.627h0a4.627,4.627,0,0,0,4.627-4.628h0a4.628,4.628,0,0,0,4.628,4.628h0A4.627,4.627,0,0,0,245.664,114Z" transform="translate(312.3 225.488)" fill="#36c2d9"/><path d="M296.454,279.4l3.349-7.62c-6.641-18.074-18.307-32.114-29.2-42.132l-6.331,7.256,2.648-10.524a124.769,124.769,0,0,0-22.24-15.435c-4.273,26.812-.912,48.087,5.906,64.748l9.746,5.013-7.011,1.055A98.857,98.857,0,0,0,276.1,311.726l8.634-.134-5.628,2.733c12.16,10.11,22.687,14.2,22.687,14.2,5.259-20,4.108-37.446-.512-52.343Z" transform="translate(312.3 225.488)" fill="#36c2d9"/><line x2="54.25" y2="112" transform="translate(558.55 439.488)" stroke-width="0.5" stroke="#0e293a" stroke-linecap="round" stroke-linejoin="round" fill="none"/><line x2="18" y2="7.917" transform="translate(557.8 467.488)" stroke-width="0.5" stroke="#0e293a" stroke-linecap="round" stroke-linejoin="round" fill="none"/><line x1="6.167" y2="28.75" transform="translate(585.8 466.821)" stroke-width="0.5" stroke="#0e293a" stroke-linecap="round" stroke-linejoin="round" fill="none"/><line x2="26.083" y2="9.083" transform="translate(573.3 515.238)" stroke-width="0.5" stroke="#0e293a" stroke-linecap="round" stroke-linejoin="round" fill="none"/><path d="M302.449,379.765l10.823-7.574a114.875,114.875,0,0,0-17.714-48.311,128,128,0,0,0-12.114-15.708l-6.425,8.5,3.291-11.886c-16.441-17.015-37.173-29.266-60.018-37.22a1.406,1.406,0,0,0-1.6,2.159,91.553,91.553,0,0,1,13.4,26.548l9.528,3.411-7.989,1.564a231.954,231.954,0,0,1,5.482,24.37c2.025,11.393,3.752,22.984,6.456,34.234l11.172,5.751-9.517.617a111.139,111.139,0,0,0,8.45,21.78c8.9,16.913,25.258,31.366,43.834,33.436a9.341,9.341,0,0,0,9.845-6.377,96.327,96.327,0,0,0,4.546-35.928Z" transform="translate(312.3 225.488)" fill="#7eccd9"/><path d="M227,273.5s61.5,48.25,73.25,144" transform="translate(312.3 225.488)" fill="none" stroke="#0e293a" stroke-linecap="round" stroke-linejoin="round" stroke-width="0.5"/><line x2="31.417" y2="20" transform="translate(552.3 534.488)" stroke-width="0.5" stroke="#0e293a" stroke-linecap="round" stroke-linejoin="round" fill="none"/><line x2="4.917" y2="41.25" transform="translate(586.633 528.405)" stroke-width="0.5" stroke="#0e293a" stroke-linecap="round" stroke-linejoin="round" fill="none"/><line x2="40.667" y2="20.5" transform="translate(559.8 570.821)" stroke-width="0.5" stroke="#0e293a" stroke-linecap="round" stroke-linejoin="round" fill="none"/><path d="M264.417,387.583c.166.25,35,23.584,35,23.584" transform="translate(312.3 225.488)" fill="none" stroke="#0e293a" stroke-linecap="round" stroke-linejoin="round" stroke-width="0.5"/><path d="M302.167,341.917S293,382.167,293.25,382.25" transform="translate(312.3 225.488)" fill="none" stroke="#0e293a" stroke-linecap="round" stroke-linejoin="round" stroke-width="0.5"/><path d="M438.031,314.265l-10.823-7.574a114.862,114.862,0,0,1,17.714-48.311,127.909,127.909,0,0,1,12.114-15.708l6.424,8.5-3.29-11.886c16.441-17.015,37.173-29.266,60.017-37.22a1.407,1.407,0,0,1,1.6,2.159,91.554,91.554,0,0,0-13.4,26.548l-9.529,3.411,7.99,1.564a231.931,231.931,0,0,0-5.483,24.37c-2.024,11.393-3.752,22.984-6.456,34.234L483.734,300.1l9.518.617a111.2,111.2,0,0,1-8.446,21.78c-8.9,16.913-25.258,31.366-43.834,33.436a9.34,9.34,0,0,1-9.845-6.377,96.307,96.307,0,0,1-4.546-35.928Z" transform="translate(312.3 225.488)" fill="#36c2d9"/><path d="M512,210.5s-58.25,32.25-70.25,139" transform="translate(312.3 225.488)" fill="none" stroke="#0e293a" stroke-linecap="round" stroke-linejoin="round" stroke-width="0.5"/><line x1="8.25" y2="23.5" transform="translate(790.05 446.738)" stroke-width="0.5" stroke="#0e293a" stroke-linecap="round" stroke-linejoin="round" fill="none"/><line x1="36.5" y2="26.25" transform="translate(775.05 470.488)" stroke-width="0.5" stroke="#0e293a" stroke-linecap="round" stroke-linejoin="round" fill="none"/><line x2="2.5" y2="48" transform="translate(759.8 483.488)" stroke-width="0.5" stroke="#0e293a" stroke-linecap="round" stroke-linejoin="round" fill="none"/><line x1="39.5" y2="22.75" transform="translate(756.8 533.238)" stroke-width="0.5" stroke="#0e293a" stroke-linecap="round" stroke-linejoin="round" fill="none"/><path d="M480,380.4l10.824.2c18.356-17.034,29.351-38.073,35.906-56.172l-11.881-3.957,13.955-2.1a162.216,162.216,0,0,0,7.367-34.427c-34.315,8.32-58.158,23.024-74.729,39.561l-1.127,14.209-4.782-7.884a128.591,128.591,0,0,0-24.525,42.37l4.492,10.292-6.1-5.381c-6.032,19.661-5.657,34.342-5.657,34.342,26.638-3.722,46.991-13.851,62.549-26.866Z" transform="translate(312.3 225.488)" fill="#7eccd9"/><line y1="119.25" x2="105.75" transform="translate(740.55 512.238)" stroke-width="0.5" stroke="#0e293a" stroke-linecap="round" stroke-linejoin="round" fill="none"/><line x1="8.063" y2="30.344" transform="translate(806.988 526.238)" stroke-width="0.5" stroke="#0e293a" stroke-linecap="round" stroke-linejoin="round" fill="none"/><line x1="38.938" y2="12.594" transform="translate(789.363 563.988)" stroke-width="0.5" stroke="#0e293a" stroke-linecap="round" stroke-linejoin="round" fill="none"/><line x2="1.125" y2="39.5" transform="translate(767.3 560.613)" stroke-width="0.5" stroke="#0e293a" stroke-linecap="round" stroke-linejoin="round" fill="none"/><line x1="31" y2="2.125" transform="translate(750.925 617.613)" stroke-width="0.5" stroke="#0e293a" stroke-linecap="round" stroke-linejoin="round" fill="none"/><rect width="169.709" height="337.306" rx="26.765" transform="translate(597.941 309.671)" fill="#0e293a"/><path d="M449.374,112.432v280.8A17.758,17.758,0,0,1,431.614,411H309.374a17.773,17.773,0,0,1-17.76-17.77V112.43a17.765,17.765,0,0,1,17.76-17.76h35.8a5.6,5.6,0,0,0-.12,1.09,5.049,5.049,0,0,0,5.051,5.05h40.789a5.047,5.047,0,0,0,5.04-5.05,4.922,4.922,0,0,0-.12-1.09h35.8a17.758,17.758,0,0,1,17.76,17.764Z" transform="translate(312.3 225.488)" fill="#fff"/><path d="M370.49,254.688a7.75,7.75,0,0,1-5.4-2.162,10.256,10.256,0,0,1,10.82,0,7.8,7.8,0,0,1-5.42,2.162Z" transform="translate(312.3 225.488)" fill="#b7c0dc"/><rect width="99.717" height="1.188" transform="translate(633.21 543.014)" fill="#cee8f0"/><circle cx="11.135" cy="11.135" r="11.135" transform="translate(619.805 551.872) rotate(-76.653)" fill="#cee8f0"/><circle cx="11.135" cy="11.135" r="11.135" transform="translate(670.016 552.808) rotate(-80.75)" fill="#cee8f0"/><circle cx="11.135" cy="11.135" r="11.135" transform="translate(716.635 543.608) rotate(-45)" fill="#36c2d9"/><path d="M6.14,0h124.3a6.141,6.141,0,0,1,6.141,6.141V77.592a6.14,6.14,0,0,1-6.14,6.14H6.14A6.14,6.14,0,0,1,0,77.592V6.14A6.14,6.14,0,0,1,6.14,0Z" transform="translate(614.503 416.079)" fill="#3bdbaa"/><path d="M328.1,261.952h10.13v-7.028h-9.573l-2.312,3.6Z" transform="translate(312.3 225.488)" fill="#fbac4d"/><path d="M317.671,253.737l2.672,4.157h4.993l2.672-4.157H338.23v-1a1.373,1.373,0,0,0-1.373-1.373H314.464a1.374,1.374,0,0,0-1.374,1.373v1Z" transform="translate(312.3 225.488)" fill="#fbac4d"/><path d="M327.376,263.14l-2.079-4.058h-4.915L318.3,263.14h-5.21v1.1a1.374,1.374,0,0,0,1.374,1.373h22.393a1.373,1.373,0,0,0,1.373-1.373v-1.1Z" transform="translate(312.3 225.488)" fill="#fbac4d"/><path d="M317.022,254.925H313.09v2.969h5.841Z" transform="translate(312.3 225.488)" fill="#fbac4d"/><path d="M319.047,259.082H313.09v2.871h4.487Z" transform="translate(312.3 225.488)" fill="#fbac4d"/><path d="M313.355,217.562a.947.947,0,0,1-.152-.23,2.76,2.76,0,0,1-.113-.27l2.551-1.306h.051v6h1.459c.007.055.014.1.021.148a1.111,1.111,0,0,1,.01.148,1.334,1.334,0,0,1-.01.158l-.021.159h-3.724a1.321,1.321,0,0,1-.021-.286c0-.068,0-.134.006-.2a.576.576,0,0,1,.015-.128H315v-5Z" transform="translate(312.3 225.488)" fill="#fff"/><path d="M318.722,222.368l-.051-.133,1.99-2.122q.306-.327.576-.633a5.213,5.213,0,0,0,.47-.612,3.3,3.3,0,0,0,.316-.607,1.721,1.721,0,0,0,.118-.628,1.169,1.169,0,0,0-.378-.954,1.682,1.682,0,0,0-1.092-.311,2.838,2.838,0,0,0-.913.133,6.779,6.779,0,0,0-.7.275c-.034-.088-.066-.185-.1-.291s-.059-.209-.086-.311a7.182,7.182,0,0,1,.734-.291,3.23,3.23,0,0,1,1.051-.158,3.47,3.47,0,0,1,.913.112,1.911,1.911,0,0,1,.7.347,1.564,1.564,0,0,1,.449.587,2.008,2.008,0,0,1,.158.831,2.3,2.3,0,0,1-.091.643,2.944,2.944,0,0,1-.281.643,5.256,5.256,0,0,1-.475.679q-.285.351-.663.75l-1.316,1.4h3.112c.007.054.012.112.015.173s.005.123.005.184a1.483,1.483,0,0,1-.005.153c-.005.053-.008.1-.015.143Z" transform="translate(312.3 225.488)" fill="#fff"/><path d="M326.518,222.51a3.759,3.759,0,0,0,.821-.086,1.745,1.745,0,0,0,.663-.3,1.392,1.392,0,0,0,.439-.556,2.057,2.057,0,0,0,.158-.857,1.207,1.207,0,0,0-.423-.99,1.882,1.882,0,0,0-1.219-.347q-.225,0-.444.015a3.3,3.3,0,0,0-.454.067l-.072-.123,1.949-2.857h-2.9a.655.655,0,0,1-.02-.153V216a.731.731,0,0,1,.02-.169h4.031l.041.082-2.011,2.9a.587.587,0,0,1,.118-.01h.117a2.086,2.086,0,0,1,.918.183,1.877,1.877,0,0,1,.618.465,1.761,1.761,0,0,1,.347.617,2.126,2.126,0,0,1,.107.643,2.52,2.52,0,0,1-.23,1.127,2.119,2.119,0,0,1-.617.76,2.58,2.58,0,0,1-.893.434,4.023,4.023,0,0,1-1.066.138c-.143,0-.293-.007-.449-.021s-.315-.036-.475-.066a4.4,4.4,0,0,1-.459-.112,2.463,2.463,0,0,1-.382-.148,2.738,2.738,0,0,1,.285-.613,2.966,2.966,0,0,0,.648.215,3.927,3.927,0,0,0,.834.083Z" transform="translate(312.3 225.488)" fill="#fff"/><path d="M333.415,221.592l-.071-.1,3.061-5.867a1.376,1.376,0,0,1,.275.082,2.669,2.669,0,0,1,.316.153l-2.581,5.091h2.51v-2.173a2.152,2.152,0,0,1,.347-.03,1.98,1.98,0,0,1,.337.03v2.173H338.7a1.84,1.84,0,0,1,.031.327,1.563,1.563,0,0,1-.031.316h-1.091v1.388a.868.868,0,0,1-.179.02h-.336a.718.718,0,0,1-.169-.02v-1.388Z" transform="translate(312.3 225.488)" fill="#fff"/><path d="M344.1,220.715a2.521,2.521,0,0,1-.229,1.127,2.142,2.142,0,0,1-.613.76,2.509,2.509,0,0,1-.887.434,3.992,3.992,0,0,1-1.056.138,4.715,4.715,0,0,1-.888-.077,3.183,3.183,0,0,1-.694-.209,2.435,2.435,0,0,1,.082-.3,1.537,1.537,0,0,1,.153-.311,3.23,3.23,0,0,0,.581.173,4.123,4.123,0,0,0,.786.061,3.5,3.5,0,0,0,.8-.086,1.7,1.7,0,0,0,.638-.291,1.406,1.406,0,0,0,.428-.546,2.035,2.035,0,0,0,.159-.852,2.166,2.166,0,0,0-.082-.592,1.28,1.28,0,0,0-.286-.51,1.455,1.455,0,0,0-.551-.362,2.359,2.359,0,0,0-.867-.138,4.123,4.123,0,0,0-.648.051l-.515.082-.072-.072.133-3.357H343.8a.618.618,0,0,1,.02.153v.322a.666.666,0,0,1-.02.168h-2.7l-.071,2.092a2.969,2.969,0,0,1,.449-.051c.163-.007.272-.01.327-.01a2.725,2.725,0,0,1,.933.153,2.1,2.1,0,0,1,.725.433,1.942,1.942,0,0,1,.469.689,2.423,2.423,0,0,1,.168.928Z" transform="translate(312.3 225.488)" fill="#fff"/><path d="M345.853,219.562a6.357,6.357,0,0,1,.214-1.663,4.264,4.264,0,0,1,.674-1.424,3.836,3.836,0,0,1,1.173-1.046,4.305,4.305,0,0,1,1.714-.53,1.06,1.06,0,0,1,.046.2,1.5,1.5,0,0,1,.016.194,1.331,1.331,0,0,1-.011.214,3.583,3.583,0,0,0-1.163.316,3.222,3.222,0,0,0-.893.628,3.272,3.272,0,0,0-.627.882,4.55,4.55,0,0,0-.367,1.082c-.014.075-.028.146-.041.214a2,2,0,0,0-.031.214,2.094,2.094,0,0,1,.755-.806,2.174,2.174,0,0,1,1.184-.316,2.371,2.371,0,0,1,.775.133,1.949,1.949,0,0,1,.694.413,2.052,2.052,0,0,1,.495.725,2.71,2.71,0,0,1,.189,1.066,2.516,2.516,0,0,1-.2,1.046,2.288,2.288,0,0,1-.54.76,2.345,2.345,0,0,1-.765.464,2.5,2.5,0,0,1-.868.158,3.049,3.049,0,0,1-.989-.153,1.81,1.81,0,0,1-.766-.5,2.348,2.348,0,0,1-.489-.9,4.652,4.652,0,0,1-.179-1.371Zm2.479-1.184a1.635,1.635,0,0,0-.642.128,1.688,1.688,0,0,0-.541.357,1.664,1.664,0,0,0-.373.561,1.924,1.924,0,0,0-.137.74,1.7,1.7,0,0,0,.418,1.265,1.61,1.61,0,0,0,1.173.408,1.953,1.953,0,0,0,.669-.112,1.486,1.486,0,0,0,.541-.337,1.549,1.549,0,0,0,.357-.551,2.059,2.059,0,0,0,.127-.745,2.187,2.187,0,0,0-.127-.786,1.459,1.459,0,0,0-.342-.53,1.337,1.337,0,0,0-.5-.3,1.932,1.932,0,0,0-.623-.1Z" transform="translate(312.3 225.488)" fill="#fff"/><path d="M353.526,223.133a2.1,2.1,0,0,1-.363-.117,1.08,1.08,0,0,1-.28-.189l2.816-6.347h-3.745a1.249,1.249,0,0,1-.015-.143c0-.054,0-.1,0-.142a2.1,2.1,0,0,1,.03-.358h4.715l.03.031Z" transform="translate(312.3 225.488)" fill="#fff"/><path d="M362.965,222.49a3.861,3.861,0,0,1-.9-.107,2.482,2.482,0,0,1-.791-.337,1.711,1.711,0,0,1-.775-1.505,1.85,1.85,0,0,1,.158-.8,1.973,1.973,0,0,1,.408-.581,2.376,2.376,0,0,1,.556-.408,5.614,5.614,0,0,1,.592-.276,3.129,3.129,0,0,1-.536-.271,1.971,1.971,0,0,1-.438-.372,1.645,1.645,0,0,1-.3-.489,1.751,1.751,0,0,1-.107-.633,1.46,1.46,0,0,1,.164-.689,1.693,1.693,0,0,1,.444-.536,1.988,1.988,0,0,1,.673-.342,3.161,3.161,0,0,1,1.7,0,1.987,1.987,0,0,1,.673.342,1.667,1.667,0,0,1,.444.536,1.459,1.459,0,0,1,.164.689,1.749,1.749,0,0,1-.107.633,1.621,1.621,0,0,1-.3.489,1.994,1.994,0,0,1-.438.372,3.165,3.165,0,0,1-.536.271,5.712,5.712,0,0,1,.592.276,2.377,2.377,0,0,1,.556.408,1.974,1.974,0,0,1,.408.581,1.85,1.85,0,0,1,.158.8,1.711,1.711,0,0,1-.775,1.505,2.481,2.481,0,0,1-.791.337,3.849,3.849,0,0,1-.9.107Zm0-.633a1.843,1.843,0,0,0,1.259-.377,1.3,1.3,0,0,0,.424-1.021,1.263,1.263,0,0,0-.133-.586,1.556,1.556,0,0,0-.357-.46,2.271,2.271,0,0,0-.536-.346,5.251,5.251,0,0,0-.657-.26,4.7,4.7,0,0,0-.664.26,2.209,2.209,0,0,0-.531.352,1.625,1.625,0,0,0-.357.464,1.409,1.409,0,0,0,.291,1.6,1.86,1.86,0,0,0,1.261.374Zm0-6.224a1.558,1.558,0,0,0-1.062.317,1.086,1.086,0,0,0-.357.857.992.992,0,0,0,.122.5,1.347,1.347,0,0,0,.322.378,1.937,1.937,0,0,0,.454.276,3.625,3.625,0,0,0,.521.184,3.692,3.692,0,0,0,.519-.184,1.944,1.944,0,0,0,.455-.276,1.344,1.344,0,0,0,.321-.378.992.992,0,0,0,.122-.5,1.086,1.086,0,0,0-.357-.857,1.554,1.554,0,0,0-1.06-.317Z" transform="translate(312.3 225.488)" fill="#fff"/><path d="M371.423,218.694a6.373,6.373,0,0,1-.215,1.664,4.256,4.256,0,0,1-.673,1.423,3.847,3.847,0,0,1-1.173,1.046,4.305,4.305,0,0,1-1.714.53,1.386,1.386,0,0,1-.062-.439v-.091a.377.377,0,0,1,.01-.082,3.589,3.589,0,0,0,1.164-.316,3.239,3.239,0,0,0,.892-.628,3.273,3.273,0,0,0,.628-.882,4.537,4.537,0,0,0,.367-1.082c.014-.075.027-.146.042-.214a2,2,0,0,0,.029-.214,2.074,2.074,0,0,1-.754.8,2.169,2.169,0,0,1-1.184.317A2.361,2.361,0,0,1,368,220.4a1.942,1.942,0,0,1-.694-.413,2.066,2.066,0,0,1-.5-.724,2.718,2.718,0,0,1-.189-1.067,2.517,2.517,0,0,1,.2-1.046,2.277,2.277,0,0,1,.54-.76,2.326,2.326,0,0,1,.76-.464,2.487,2.487,0,0,1,.873-.158,3.049,3.049,0,0,1,.989.153,1.816,1.816,0,0,1,.766.5,2.361,2.361,0,0,1,.489.908A4.663,4.663,0,0,1,371.423,218.694Zm-2.48,1.184a1.663,1.663,0,0,0,.644-.128,1.7,1.7,0,0,0,.54-.357,1.663,1.663,0,0,0,.372-.561,1.909,1.909,0,0,0,.138-.74,1.7,1.7,0,0,0-.418-1.265,1.612,1.612,0,0,0-1.174-.408,1.879,1.879,0,0,0-.668.117,1.576,1.576,0,0,0-.541.337,1.49,1.49,0,0,0-.357.546,2.058,2.058,0,0,0-.128.745,2.175,2.175,0,0,0,.128.785,1.442,1.442,0,0,0,.342.531,1.339,1.339,0,0,0,.5.3,1.931,1.931,0,0,0,.622.1Z" transform="translate(312.3 225.488)" fill="#fff"/><path d="M372.7,219.113a5.331,5.331,0,0,1,.163-1.357,3.3,3.3,0,0,1,.48-1.072,2.244,2.244,0,0,1,.785-.7,2.464,2.464,0,0,1,2.163,0,2.247,2.247,0,0,1,.786.7,3.3,3.3,0,0,1,.48,1.072,5.764,5.764,0,0,1,0,2.714,3.288,3.288,0,0,1-.48,1.071,2.238,2.238,0,0,1-.786.7,2.464,2.464,0,0,1-2.163,0,2.234,2.234,0,0,1-.785-.7,3.289,3.289,0,0,1-.48-1.071A5.338,5.338,0,0,1,372.7,219.113Zm2.509-2.735a1.5,1.5,0,0,0-1.311.684,4.786,4.786,0,0,0-.005,4.1,1.6,1.6,0,0,0,2.622,0,4.8,4.8,0,0,0,0-4.1,1.479,1.479,0,0,0-1.308-.684Z" transform="translate(312.3 225.488)" fill="#fff"/><path d="M382.228,217.562a1.015,1.015,0,0,1-.154-.23c-.04-.085-.078-.175-.112-.27l2.551-1.306h.052v6h1.459c.006.055.013.1.019.148a.849.849,0,0,1,.011.148,1.014,1.014,0,0,1-.011.158c-.006.051-.013.1-.019.159H382.3a1.335,1.335,0,0,1-.02-.286c0-.068,0-.134.005-.2a.638.638,0,0,1,.015-.128h1.571v-5Z" transform="translate(312.3 225.488)" fill="#fff"/><path d="M387.6,222.368l-.051-.133,1.989-2.122q.308-.327.577-.633a5.32,5.32,0,0,0,.47-.612,3.425,3.425,0,0,0,.316-.607,1.72,1.72,0,0,0,.117-.628,1.166,1.166,0,0,0-.378-.954,1.678,1.678,0,0,0-1.092-.311,2.831,2.831,0,0,0-.912.133,6.669,6.669,0,0,0-.7.275c-.034-.088-.067-.185-.1-.291s-.06-.209-.087-.311a7.377,7.377,0,0,1,.734-.291,3.238,3.238,0,0,1,1.051-.158,3.484,3.484,0,0,1,.914.112,1.9,1.9,0,0,1,.7.347,1.573,1.573,0,0,1,.448.587,2.007,2.007,0,0,1,.159.831,2.3,2.3,0,0,1-.092.643,2.9,2.9,0,0,1-.281.643,5.239,5.239,0,0,1-.474.679c-.19.234-.412.484-.663.75l-1.317,1.4h3.113c.006.054.011.112.015.173s.005.123.005.184a1.483,1.483,0,0,1-.005.153c-.005.053-.009.1-.015.143Z" transform="translate(312.3 225.488)" fill="#fff"/><path d="M395.39,222.51a3.76,3.76,0,0,0,.821-.086,1.757,1.757,0,0,0,.664-.3,1.407,1.407,0,0,0,.438-.556,2.056,2.056,0,0,0,.158-.857,1.2,1.2,0,0,0-.424-.99,1.88,1.88,0,0,0-1.219-.347,4.313,4.313,0,0,0-.443.015,3.281,3.281,0,0,0-.454.067l-.072-.123,1.949-2.857h-2.9a.606.606,0,0,1-.02-.153V216a.678.678,0,0,1,.02-.169h4.031l.041.082-2.011,2.9a.587.587,0,0,1,.117-.01h.118a2.1,2.1,0,0,1,.919.183,1.894,1.894,0,0,1,.617.465,1.777,1.777,0,0,1,.347.617,2.127,2.127,0,0,1,.107.643,2.521,2.521,0,0,1-.23,1.127,2.12,2.12,0,0,1-.617.76,2.58,2.58,0,0,1-.893.434,4.03,4.03,0,0,1-1.066.138c-.143,0-.293-.007-.449-.021s-.315-.036-.474-.066a4.687,4.687,0,0,1-.46-.112,2.384,2.384,0,0,1-.382-.148,2.737,2.737,0,0,1,.285-.613,2.965,2.965,0,0,0,.648.215A3.927,3.927,0,0,0,395.39,222.51Z" transform="translate(312.3 225.488)" fill="#fff"/><rect width="51.071" height="3.365" transform="translate(626.38 453.888)" fill="#31c295"/><rect width="80.763" height="3.365" transform="translate(626.38 460.222)" fill="#31c295"/><rect width="18.013" height="3.365" transform="translate(626.38 466.556)" fill="#31c295"/><path d="M438.788,196.732v71.451a6.133,6.133,0,0,1-6.14,6.141h-80.17a15.831,15.831,0,0,1-1.365-4.9,17.883,17.883,0,0,1,4.37-13.516c3.718-4.252,9.2-6.628,14.751-7.708s11.248-1,16.9-1.1c7.293-.131,15.322-.938,20.369-6.2,5.725-5.986,5.357-15.867,1.58-23.243s-10.262-12.922-16.26-18.623a92.608,92.608,0,0,1-8.159-8.433h47.983a6.133,6.133,0,0,1,6.141,6.136Z" transform="translate(312.3 225.488)" fill="#3bdbaa" opacity="0.5" style="mix-blend-mode:screen;isolation:isolate"/><path d="M430.573,155.554H418.894a8.215,8.215,0,0,1-8.215-8.215h0a8.215,8.215,0,0,1,8.215-8.215h11.679a8.215,8.215,0,0,1,8.215,8.215h0a8.215,8.215,0,0,1-8.215,8.215Z" transform="translate(312.3 225.488)" fill="#cee8f0"/><rect width="15.836" height="16.43" rx="7.918" transform="translate(735.252 364.612)" fill="#3bdbaa"/><circle cx="14.401" cy="14.401" r="14.401" transform="translate(614.503 365.201)" fill="#0e293a"/><path d="M316.6,146.182a5.22,5.22,0,0,0-5.217,5.225,4.7,4.7,0,0,0,.032.591,5.224,5.224,0,0,0,10.378,0,4.71,4.71,0,0,0,.032-.591A5.227,5.227,0,0,0,316.6,146.182Z" transform="translate(312.3 225.488)" fill="#fff"/><path d="M323.4,160.958v1.088H309.807v-1.088a6.777,6.777,0,0,1,2.569-5.319,5.208,5.208,0,0,0,8.456,0A6.777,6.777,0,0,1,323.4,160.958Z" transform="translate(312.3 225.488)" fill="#fff"/><rect width="27.27" height="3.365" transform="translate(647.297 374.579)" fill="#cee8f0"/><rect width="50.876" height="3.365" transform="translate(647.297 381.259)" fill="#cee8f0"/><path d="M449.374,222.452v51.86l-157.76-157.76v-4.12a17.765,17.765,0,0,1,17.76-17.76h12.22Z" transform="translate(312.3 225.488)" opacity="0.08" fill="url(#a)"/><path d="M449.374,326.452v51.86l-157.76-157.76v-51.86Z" transform="translate(312.3 225.488)" opacity="0.08" fill="url(#a)"/><path d="M442.024,407.632a17.708,17.708,0,0,1-10.41,3.37h-26.89l-113.11-113.11v-40.67Z" transform="translate(313.3 225.488)" opacity="0.08" fill="url(#a)"/><path d="M305.434,78.512l16.16,16.16h-12.22a17.765,17.765,0,0,0-17.76,17.76v4.12l-12.11-12.11Z" transform="translate(312.3 225.488)" opacity="0.08" fill="url(#d)"/><path d="M449.374,140.982v40.67l-80.84-80.84h22.36a5.047,5.047,0,0,0,5.04-5.05,4.922,4.922,0,0,0-.12-1.09h7.25Z" transform="translate(312.3 225.488)" opacity="0.08" fill="url(#a)"/><circle cx="18.875" cy="18.875" r="18.875" transform="translate(768.458 331.906)" fill="#3bdbaa"/><path d="M472.752,135.934a1.512,1.512,0,0,1-.871-.275l-7.6-5.32a1.52,1.52,0,1,1,1.744-2.491l6.326,4.429,11.3-16.948a1.52,1.52,0,1,1,2.529,1.687l-12.161,18.241a1.519,1.519,0,0,1-.983.651,1.5,1.5,0,0,1-.284.026Z" transform="translate(312.3 225.488)" fill="#fff"/><path d="M130.194,419.211c-5.227-4.144-7.987-13.091-7.987-13.091l-.591-.912.013.013.54.53,5.372-5.377c-3.177-3.611-6.166-7.4-9.186-11.045-2.867,4.057-4.758,6.75-5.206,7.392l-.021.03a10.3,10.3,0,0,0-3.676,3.3,1.93,1.93,0,0,0,.5,2.333l18.806,18.276a1.164,1.164,0,0,0,.764.348c.916.009,1.132-.49,1.15-.913a1.142,1.142,0,0,0-.478-.884Z" transform="translate(312.3 225.488)" fill="#d48f65"/><path d="M108.456,401.961a1.506,1.506,0,0,1-.227-1.265,3.369,3.369,0,0,1,.6-1.179,9.278,9.278,0,0,1,3.777-3.059c1.468.883,2.064,2.71,3.333,3.861a9.919,9.919,0,0,0,2.981,1.616,7.418,7.418,0,0,1,2.87,1.779,2.762,2.762,0,0,1,.479,3.147,43.258,43.258,0,0,0,6.722,8.585,7,7,0,0,1,2.084,2.7,3.316,3.316,0,0,1-.575,3.013.849.849,0,0,1-1.245.111Z" transform="translate(312.3 225.488)" fill="#f16b5f"/><path d="M162.589,297.221s8,52,7,56.75-46,52-46,52-10-10.75-10.25-11.75,31.25-43.5,31.25-43.5l-20.25-51Z" transform="translate(312.3 225.488)" fill="#0e293a"/><path d="M162.561,353.984h-.148a.25.25,0,0,1,.018-.5,3.927,3.927,0,0,0,3.135-1.415.25.25,0,0,1,.387.316,4.463,4.463,0,0,1-3.392,1.6Z" transform="translate(312.3 225.488)" fill="#fff"/><path d="M127.849,418.721h29.067a1.292,1.292,0,0,0-.751-.138c-6.637.671-14.851-3.821-14.851-3.821l-1.062-.243h.775l.094-6.873q-6.956.228-13.884.24c.571,3.624.944,5.955,1.031,6.5A10.344,10.344,0,0,0,127.849,418.721Z" transform="translate(312.3 225.488)" fill="#d48f65"/><path d="M128.844,420.625a1.5,1.5,0,0,1-1.022-.78,3.38,3.38,0,0,1-.356-1.271,9.277,9.277,0,0,1,.721-4.808c1.679-.34,3.352.607,5.065.6a9.917,9.917,0,0,0,3.29-.821,7.4,7.4,0,0,1,3.319-.625,2.762,2.762,0,0,1,2.478,2,43.2,43.2,0,0,0,10.754,1.8,7,7,0,0,1,3.358.582,3.314,3.314,0,0,1,1.61,2.61.848.848,0,0,1-.843.923Z" transform="translate(312.3 225.488)" fill="#f16b5f"/><path d="M117.589,282.471s-5,15.75-4.25,30.25,14,100.5,14,100.5,11.5,1,15.5,0l1.5-102.75s16-7.25,18-10-1.75-18.5-1.75-18.5Z" transform="translate(312.3 225.488)" fill="#0e293a"/><path d="M143.26,384.22c-.048-5.393-.08-10.787-.054-16.179s.014-10.785.093-16.176v-.141l.085-.116.843-1.15-.054.428-.818-2.026-.033-.083v-.093l.1-9.555.156-9.555c.13-6.369.2-12.739.394-19.108l.007-.232.205-.09c3.318-1.469,6.6-3.028,9.855-4.644,1.624-.813,3.237-1.649,4.808-2.556.783-.457,1.556-.934,2.289-1.463a3.3,3.3,0,0,0,1.609-2.079,3.37,3.37,0,0,1-1.525,2.188,26.268,26.268,0,0,1-2.246,1.563c-1.544.97-3.13,1.869-4.727,2.746-3.207,1.73-6.471,3.34-9.767,4.9l.212-.322c0,6.371-.109,12.741-.166,19.111l-.124,9.555-.176,9.555-.032-.175.8,2.033.092.232-.146.2-.856,1.149.086-.256c-.081,5.391-.252,10.781-.386,16.172S143.468,378.831,143.26,384.22Z" transform="translate(312.3 225.488)" fill="#fff"/><path d="M130.588,412.971a.25.25,0,0,1-.247-.218c-.112-.9-11.257-89.877-11.752-100.02-.5-10.18,4.463-24.944,4.513-25.092a.246.246,0,0,1,.317-.156.249.249,0,0,1,.157.316c-.05.148-4.979,14.823-4.488,24.909.5,10.123,11.637,99.082,11.749,99.98a.25.25,0,0,1-.217.279Z" transform="translate(312.3 225.488)" fill="#fff"/><path d="M132.6,356.506a.25.25,0,0,1-.092-.482,6.981,6.981,0,0,0,3.113-2.454.25.25,0,1,1,.409.287,7.492,7.492,0,0,1-3.338,2.632A.246.246,0,0,1,132.6,356.506Z" transform="translate(312.3 225.488)" fill="#fff"/><path d="M179.429,287.508c-.252-.5-3.4-1.273-4.086-1.83s4.223-1.806,2.722-2.654c-1.3-.735-5.53.686-6.63,1.076a28.263,28.263,0,0,1-4.138-2.069c-.656,2.008-1.293,4.022-1.893,6.045-.128.432-.249.865-.376,1.3,1.167.078,3.1.326,4.4.369.522.7,2.724,3.525,3.985,3.6a2.65,2.65,0,0,0,2.139-.742,2.159,2.159,0,0,0,1.732-1.768,1.352,1.352,0,0,0,.785-2.013S179.682,288.012,179.429,287.508Z" transform="translate(312.3 225.488)" fill="#d48f65"/><path d="M169.922,283.055s-1.666,7-2.166,7.666-29.667-6.833-34.334-12.666,13.5-43.667,18.834-43,7.166,6.5,7.166,11-8.5,24.5-8.5,24.5Z" transform="translate(312.3 225.488)" fill="#fff"/><path d="M133.025,232.972c2.227-5.638.276-17.42.028-18.874-.011-.051-.017-.1-.028-.146l15.108,8.5a4,4,0,0,0-.457,1.663v.006a18.448,18.448,0,0,0,.327,4.622,43.192,43.192,0,0,0,.975,4.234Z" transform="translate(312.3 225.488)" fill="#d48f65"/><path d="M148,228.738c-8.213,1.037-12.374-8.771-12.526-9.138a9.689,9.689,0,0,0,5.863,4.206,16.1,16.1,0,0,0,6.285.321c.017-.006.034-.006.051-.011a18.448,18.448,0,0,0,.327,4.622Z" transform="translate(312.3 225.488)" fill="#0e293a"/><path d="M131.089,230.721s2.375-1.062,2.687-2.687l8.438,3.875,6.062-2.938a6.592,6.592,0,0,0,1.438,2.188s-4.25,21.75-5.125,22.062S131.589,233.159,131.089,230.721Z" transform="translate(312.3 225.488)" fill="#fff"/><path d="M133.5,228.163a.767.767,0,0,1,.97-.255c1.933.957,7.639,3.793,7.743,4,.125.25.312,4-.375,4.812s-9.75-6.812-9.75-6.812S132.978,228.909,133.5,228.163Z" transform="translate(312.3 225.488)" fill="#fff"/><path d="M142.214,231.909s.937,4.5,1.625,4.687,5.312-6.437,5.312-6.437l-.65-1.023a.459.459,0,0,0-.6-.161Z" transform="translate(312.3 225.488)" fill="#fff"/><line x2="1.375" y2="13.375" transform="translate(454.889 461.709)" stroke-width="0.5" stroke="#0e293a" stroke-linecap="round" stroke-linejoin="round" fill="none"/><path d="M131.839,230.221s10.875,17,12.375,21l5-20.75s3.5,2.776,6.712,4.772a10.342,10.342,0,0,1,4.823,7.8,41.582,41.582,0,0,1,.09,6.307c-.5,9.125.75,34.375.75,34.375s-17.125,3.625-44.375,0c0,0-1.5-28.375-2-33.875s-.875-13.375,3.125-15.375S131.089,230.471,131.839,230.221Z" transform="translate(312.3 225.488)" fill="#f16b5f"/><path d="M142.557,266.953a46.932,46.932,0,0,0,10.3-14.225" transform="translate(312.3 225.488)" fill="none" stroke="#0e293a" stroke-linecap="round" stroke-linejoin="round" stroke-width="0.5"/><path d="M152.959,256.7a39.664,39.664,0,0,1-7.875,17.768" transform="translate(312.3 225.488)" fill="none" stroke="#0e293a" stroke-linecap="round" stroke-linejoin="round" stroke-width="0.5"/><path d="M130.589,231.471s12.125,20.25,13.75,21.125,6-20.625,6-20.625" transform="translate(312.3 225.488)" fill="none" stroke="#0e293a" stroke-linecap="round" stroke-linejoin="round" stroke-width="0.5"/><path d="M242.535,413.874a6.431,6.431,0,1,1-6.43-6.43,6.431,6.431,0,0,1,6.43,6.43Z" transform="translate(312.3 225.488)" fill="#0e293a"/><path d="M226.938,402.518s5.929,9.3,8.848,8.939,9.759-8.939,9.759-8.939Z" transform="translate(312.3 225.488)" fill="#0e293a"/><path d="M273.547,413.874a6.43,6.43,0,1,1-6.43-6.43A6.43,6.43,0,0,1,273.547,413.874Z" transform="translate(312.3 225.488)" fill="#0e293a"/><path d="M257.95,402.518s5.929,9.3,8.847,8.939,9.76-8.939,9.76-8.939Z" transform="translate(312.3 225.488)" fill="#0e293a"/><path d="M230.039,413.874a6.43,6.43,0,1,1-6.43-6.43,6.43,6.43,0,0,1,6.43,6.43Z" transform="translate(312.3 225.488)" fill="#0e293a"/><path d="M214.442,402.518s5.929,9.3,8.848,8.939,9.759-8.939,9.759-8.939Z" transform="translate(312.3 225.488)" fill="#0e293a"/><path d="M286.909,413.874a6.43,6.43,0,1,1-6.43-6.43A6.43,6.43,0,0,1,286.909,413.874Z" transform="translate(312.3 225.488)" fill="#0e293a"/><path d="M271.312,402.518s5.929,9.3,8.848,8.939,9.759-8.939,9.759-8.939Z" transform="translate(312.3 225.488)" fill="#0e293a"/><path d="M207.366,373.239A3.568,3.568,0,0,1,204.055,371l-24.1-60.054a3.572,3.572,0,0,1,3.579-4.892l108.806,8.085a3.587,3.587,0,0,1,3.307,3.562V358.45a3.582,3.582,0,0,1-3.1,3.539h0l-84.711,11.219a3.586,3.586,0,0,1-.47.031Zm-24.1-65.058a1.433,1.433,0,0,0-1.323,1.966l24.1,60.055a1.437,1.437,0,0,0,1.517.886l84.711-11.218a1.438,1.438,0,0,0,1.244-1.42V317.7a1.438,1.438,0,0,0-1.326-1.429l-108.807-8.085c-.041,0-.082-.005-.116-.005Zm109.142,52.748Z" transform="translate(312.3 225.488)" fill="#0e293a"/><path d="M283.215,403.406H214.681a9.529,9.529,0,0,1-9.189-12.051l5.41-19.946a1.069,1.069,0,1,1,2.064.56l-5.411,19.949a7.39,7.39,0,0,0,7.126,9.349h68.534a1.07,1.07,0,1,1,0,2.139Z" transform="translate(312.3 225.488)" fill="#0e293a"/><path d="M290.33,403.406H221.8a9.529,9.529,0,0,1-9.19-12.051l5.548-20.223a1.069,1.069,0,1,1,2.062.567l-5.547,20.222a7.389,7.389,0,0,0,7.127,9.346h68.53a1.07,1.07,0,0,1,0,2.139Z" transform="translate(312.3 225.488)" fill="#0e293a"/><path d="M191.206,308.455a1.07,1.07,0,0,1-1.016-.736l-4.918-14.973a5.7,5.7,0,0,0-4.322-3.815l-13.618-2.66a1.07,1.07,0,1,1,.41-2.1l13.618,2.661a7.846,7.846,0,0,1,5.944,5.246l4.918,14.973a1.069,1.069,0,0,1-.682,1.35A1.057,1.057,0,0,1,191.206,308.455Z" transform="translate(312.3 225.488)" fill="#0e293a"/><path d="M181.424,312.559a1.071,1.071,0,0,1-1.015-.731l-6.355-19.079a5.7,5.7,0,0,0-4.323-3.818l-13.618-2.66a1.07,1.07,0,1,1,.41-2.1l13.618,2.661a7.846,7.846,0,0,1,5.944,5.246l6.354,19.074a1.07,1.07,0,0,1-1.015,1.407Z" transform="translate(312.3 225.488)" fill="#0e293a"/><path d="M294.434,329.525H188.812a1.07,1.07,0,0,1,0-2.139H294.434a1.07,1.07,0,1,1,0,2.139Z" transform="translate(312.3 225.488)" fill="#0e293a"/><path d="M199.665,357.618a1.07,1.07,0,0,1-.1-2.134l94.768-9.213a1.07,1.07,0,0,1,.207,2.129l-94.768,9.213C199.734,357.616,199.7,357.618,199.665,357.618Z" transform="translate(312.3 225.488)" fill="#0e293a"/><path d="M215.217,372.075a1.07,1.07,0,0,1-1-.693l-23.942-63.62a1.069,1.069,0,1,1,2-.754l23.943,63.62a1.071,1.071,0,0,1-1,1.447Z" transform="translate(312.3 225.488)" fill="#0e293a"/><path d="M225.273,370.707a1.071,1.071,0,0,1-1.032-.793l-16.167-60.382a1.069,1.069,0,1,1,2.065-.553l16.167,60.382a1.071,1.071,0,0,1-1.033,1.346Z" transform="translate(312.3 225.488)" fill="#0e293a"/><path d="M234.1,369.338a1.069,1.069,0,0,1-1.062-.957l-6.112-57.645a1.069,1.069,0,1,1,2.127-.225l6.112,57.646a1.07,1.07,0,0,1-.951,1.176C234.172,369.336,234.134,369.338,234.1,369.338Z" transform="translate(312.3 225.488)" fill="#0e293a"/><path d="M246,367.97a1.069,1.069,0,0,1-1.067-1.027L242.744,311.8a1.069,1.069,0,1,1,2.136-.084l2.189,55.138a1.068,1.068,0,0,1-1.025,1.11Z" transform="translate(312.3 225.488)" fill="#0e293a"/><path d="M257.358,366.465H257.3a1.069,1.069,0,0,1-1.011-1.124l2.782-52.218a1.069,1.069,0,0,1,2.136.113l-2.782,52.219a1.069,1.069,0,0,1-1.067,1.01Z" transform="translate(312.3 225.488)" fill="#0e293a"/><path d="M269.877,364.823a.974.974,0,0,1-.12-.007,1.069,1.069,0,0,1-.944-1.181l5.5-49.527a1.07,1.07,0,0,1,2.126.236l-5.495,49.528A1.07,1.07,0,0,1,269.877,364.823Z" transform="translate(312.3 225.488)" fill="#0e293a"/><path d="M283.489,363.034h-.047a1.061,1.061,0,0,1-1.022-1.058c0-.4,3.353-25.618,6.166-46.7a1.069,1.069,0,0,1,2.12.283c-2.092,15.677-6.068,45.57-6.151,46.495a1.079,1.079,0,0,1-1.066.985Z" transform="translate(312.3 225.488)" fill="#0e293a"/><path d="M171.433,286.565c-.313-.469-3.532-.844-4.282-1.312s3.969-2.313,2.375-2.969-6.7,2.014-6.7,2.014l-.058-.023-.772-.3-.062-.124-.005.1-1.4-.553q-.552,3.406-1.031,6.818c.726-.1,1.454-.187,2.176-.307.233.246,3.129,3.284,4.509,3.194a2.648,2.648,0,0,0,2.031-1,2.157,2.157,0,0,0,1.5-1.968,1.351,1.351,0,0,0,.531-2.094S171.745,287.034,171.433,286.565Z" transform="translate(312.3 225.488)" fill="#d48f65"/><path d="M132.158,242.248l1.1,29.473,28.666,11.834s.167,5.833-.666,7-35.167-1-42.834-6.834-5.448-43.855-1.64-46.761c3.278-2.5,10.036-5.321,13.766.116a9.76,9.76,0,0,1,1.608,5.172Z" transform="translate(312.3 225.488)" fill="#fff"/><path d="M119.569,280l1.248,1" transform="translate(312.3 225.488)" fill="none" stroke="#0e293a" stroke-linecap="round" stroke-linejoin="round" stroke-width="0.5"/><line x2="31.833" y2="13.083" transform="translate(442.389 495.959)" stroke-width="0.5" stroke="#0e293a" stroke-linecap="round" stroke-linejoin="round" fill="none"/><line x2="2.167" y2="3.875" transform="translate(443.389 493.334)" stroke-width="0.5" stroke="#0e293a" stroke-linecap="round" stroke-linejoin="round" fill="none"/><path d="M153.488,197.361c-1.973-5.074-11.274-7.047-17.757-1.409-3.013,2.619-3.646,7.367-3.467,11.7a2.278,2.278,0,0,0-.39-.159,2.7,2.7,0,0,0-3.04,1.906,3.576,3.576,0,0,0,.462,2.976,4.5,4.5,0,0,0,2.044,1.707,5.754,5.754,0,0,0,1.759.173,13.1,13.1,0,0,0,4.32,7.352,11.846,11.846,0,0,0,10.07,2.549c2.807-.583,6.961-2.382,7.992-5.295a7.392,7.392,0,0,0,.3-2.382C155.859,210.341,155.744,203.161,153.488,197.361Z" transform="translate(312.3 225.488)" fill="#d48f65"/><path d="M151.066,207.542c0,.942.373,1.7.833,1.7s.832-.763.832-1.7-.372-1.7-.832-1.7S151.066,206.6,151.066,207.542Z" transform="translate(312.3 225.488)" fill="#0e293a"/><ellipse cx="0.832" cy="1.704" rx="0.832" ry="1.704" transform="translate(456.157 431.326)" fill="#0e293a"/><path d="M151.419,212.7a4.083,4.083,0,0,1-1.255,1.427,3.18,3.18,0,0,1-1.863.618,3.23,3.23,0,0,1-1.855-.64,6.171,6.171,0,0,1-.718-.639c-.2-.252-.387-.505-.559-.766.257.188.492.389.727.583.262.159.5.355.762.488a3.431,3.431,0,0,0,1.645.468,3.36,3.36,0,0,0,1.653-.446,7.2,7.2,0,0,0,1.463-1.093Z" transform="translate(312.3 225.488)" fill="#0e293a"/><path d="M149.171,215.719a1.371,1.371,0,0,1-.877.3,1.428,1.428,0,0,1-.876-.3,4.507,4.507,0,0,0,.877.1A3.767,3.767,0,0,0,149.171,215.719Z" transform="translate(312.3 225.488)" fill="#0e293a"/><path d="M146.214,201.632a1.975,1.975,0,0,0-1.29-.478,3.992,3.992,0,0,0-1.374.2,3.349,3.349,0,0,0-1.209.692,3.519,3.519,0,0,0-.826,1.059.4.4,0,0,0,.618.487l.034-.031a4.9,4.9,0,0,1,.822-.653,2.91,2.91,0,0,1,.907-.373,3.538,3.538,0,0,1,.984-.1,3.789,3.789,0,0,0,1.051-.061l.1-.026a.417.417,0,0,0,.178-.717Z" transform="translate(312.3 225.488)" fill="#0e293a"/><path d="M150.374,201.632a1.977,1.977,0,0,1,1.29-.478,3.992,3.992,0,0,1,1.374.2,3.349,3.349,0,0,1,1.209.692,3.519,3.519,0,0,1,.826,1.059.4.4,0,0,1-.618.487l-.033-.031a4.911,4.911,0,0,0-.823-.653,2.9,2.9,0,0,0-.907-.373,3.532,3.532,0,0,0-.983-.1,3.788,3.788,0,0,1-1.051-.061l-.106-.026a.417.417,0,0,1-.178-.717Z" transform="translate(312.3 225.488)" fill="#0e293a"/><path d="M149.974,204.78c.148.642.256,1.28.375,1.911a18.291,18.291,0,0,0,.418,1.856c.042.15.088.3.141.44a1.55,1.55,0,0,1,.145.55,1.107,1.107,0,0,1-.6,1.01,1.343,1.343,0,0,1-1.087.058,2.65,2.65,0,0,1-.86-.514c.6.224,1.3.4,1.716.082a.659.659,0,0,0,.295-.608,1.2,1.2,0,0,0-.125-.378c-.064-.16-.121-.32-.168-.482a9.005,9.005,0,0,1-.313-1.96,10.5,10.5,0,0,1,.063-1.965Z" transform="translate(312.3 225.488)" fill="#0e293a"/><path d="M129.807,210.164a1.42,1.42,0,0,1,.444-1.128,1.319,1.319,0,0,1,1.286-.124,2.427,2.427,0,0,1,1.038.757,3.89,3.89,0,0,1,.645,1.088.284.284,0,0,1-.466.306l-.019-.019a2.511,2.511,0,0,0-.954-.675.443.443,0,0,0-.4.044,1.07,1.07,0,0,0-.286.443c-.145.373-.233.81.086.983a2.135,2.135,0,0,0,1.261.087,1.989,1.989,0,0,1-1.386.186.783.783,0,0,1-.489-.654,2.023,2.023,0,0,1,.081-.754,1.421,1.421,0,0,1,.4-.7.958.958,0,0,1,.872-.18,2.75,2.75,0,0,1,1.242.836l-.484.287a3.043,3.043,0,0,0-1.309-1.637,1.069,1.069,0,0,0-.969-.059A1.422,1.422,0,0,0,129.807,210.164Z" transform="translate(312.3 225.488)" fill="#0e293a"/><path d="M144.4,212.784s4.188-5,9.75,0C154.151,212.784,148.839,215.6,144.4,212.784Z" transform="translate(312.3 225.488)" fill="#0e293a"/><path d="M138.006,203.013a4.575,4.575,0,0,0-4.347-4.282c-1.84-.28-3.58.08-4.49,1.66-1.62,2.82-.95,7.2-.44,9.43a3.2,3.2,0,0,1,.1-.42,2.714,2.714,0,0,1,3.05-1.91,4.105,4.105,0,0,1,.38.16v-.01a8.335,8.335,0,0,1,3.08,2.455A9.312,9.312,0,0,0,138.006,203.013Z" transform="translate(312.3 225.488)" fill="#0e293a"/><path d="M155.739,210.451a43.529,43.529,0,0,0-1.75-11.65c1.13.27,3.06.96,3.53,2.68C158.079,203.531,156.359,208.621,155.739,210.451Z" transform="translate(312.3 225.488)" fill="#0e293a"/><path d="M503.359,410.381l-5.3-58.89,4.819-12.035q-6.648-1.05-13.3-2.078c-2.413-.368-4.925-.624-7.449-.916-.82,2.991-1.644,6.045-2.464,9.122a21.783,21.783,0,0,0-.251,10.175c2.009,9.368,4.121,18.8,6.032,27.2,3.393,14.86,6.177,26.5,6.757,28.919-.874.7-8.276,6.435-14.521,6.266a1.018,1.018,0,0,0-.922.475,1.42,1.42,0,0,0,.322,1.836.993.993,0,0,0,.812.281l26.089-2.659a1.978,1.978,0,0,0,1.778-1.882c.048-1.134-1.362-3.532-2.478-5.8Z" transform="translate(312.3 225.488)" fill="#ecb67c"/><path d="M480.835,352.227l1.387,2.47" transform="translate(312.3 225.488)" fill="none" stroke="#0e293a" stroke-linecap="round" stroke-linejoin="round" stroke-width="0.5"/><path d="M504.734,412.914s2.293,4.379.375,7.075c-1.665,2.342-22.284,1.319-27.676,1.009a2.217,2.217,0,0,1-1.975-1.455c-.425-1.2-.5-2.807,1.865-3.188a23.164,23.164,0,0,1,8.061-.11s-3.8,1.449-2.853,2.16c1.653,1.246,15.535-1.292,19.179-4.66S504.734,412.914,504.734,412.914Z" transform="translate(312.3 225.488)" fill="#0e293a"/><path d="M536.028,344.787c-6.752-1.034-13.487-2.2-20.232-3.3l.249,71.232c-.21.144-8.289,5.651-14.8,4.809a1.018,1.018,0,0,0-.966.379,1.42,1.42,0,0,0,.134,1.859.991.991,0,0,0,.779.362h26.224a1.977,1.977,0,0,0,1.96-1.692,16.494,16.494,0,0,0-.423-6.2C529.247,409.631,533.152,374.692,536.028,344.787Z" transform="translate(312.3 225.488)" fill="#ecb67c"/><path d="M517.254,358.011a1.514,1.514,0,0,0,.346,1.157" transform="translate(312.3 225.488)" fill="none" stroke="#0e293a" stroke-linecap="round" stroke-linejoin="round" stroke-width="0.5"/><path d="M529.231,412.916s2.239,4.407.289,7.08c-1.694,2.322-22.3,1.046-27.686.671a2.217,2.217,0,0,1-1.957-1.48c-.411-1.206-.47-2.813,1.9-3.164a23.162,23.162,0,0,1,8.062-.012s-3.814,1.4-2.879,2.125c1.638,1.266,15.55-1.1,19.234-4.425S529.231,412.916,529.231,412.916Z" transform="translate(312.3 225.488)" fill="#0e293a"/><path d="M502.915,261.452a104.139,104.139,0,0,0-10.073-12.223c-1.086,2.385-2.434,5.234-3.963,8.392-5.46-9.27-10.17-17.38-12.18-20.83-.65-1.13-1.01-1.76-1.01-1.76l-5.28,1.5c.02.27.05.54.08.81,1.3,12.67,5.71,24.85,10.89,35.42l.078.16a9.1,9.1,0,0,0,16.27.072l.132-.262c2.013-3.985,3.729-7.746,5.177-11.1C503,261.568,502.955,261.51,502.915,261.452Z" transform="translate(312.3 225.488)" fill="#ecb67c"/><path d="M475.248,231.2a1.149,1.149,0,0,1-.509.7c-.758.312-2.935-7.134-4.055-7.019-.45.047.956,5.387.956,5.387s-2.591-5.453-3.133-4.891,1.116,5.65,1.116,5.65-3.239-5.142-3.544-4.344,1.63,5.118,1.63,5.118c-1.383-1.749-2.2-2.271-2.623-2.41a.232.232,0,0,0-.3.3c1.051,3.141,7.442,9.41,7.442,9.41l3.87-.464a16.178,16.178,0,0,0,1.031-4.006,14.685,14.685,0,0,1-1.881-3.431Z" transform="translate(312.3 225.488)" fill="#ecb67c"/><path d="M476.7,236.791s16.39,26.595,17.015,30.845" transform="translate(312.3 225.488)" fill="none" stroke="#0e293a" stroke-linecap="round" stroke-linejoin="round" stroke-width="0.5"/><line x2="3.46" y2="3.89" transform="translate(801.398 483.328)" stroke-width="0.5" stroke="#0e293a" stroke-linecap="round" stroke-linejoin="round" fill="none"/><rect width="13.788" height="8.453" rx="0.62" transform="translate(777.894 457.161) rotate(-88.141)" fill="#fbac4d"/><path d="M473.156,220.739l-.033,1.022-.709-.023.031-.966.371-.221Z" transform="translate(312.3 225.488)" fill="#0e293a"/><path d="M472.361,219.66l.411.283-.016.5-.428.256-.034,1.031h-.1a.138.138,0,0,1-.134-.143l.073-2.26a.14.14,0,0,1,.143-.134h.1Z" transform="translate(312.3 225.488)" fill="#0e293a"/><path d="M473.278,220.67l-.4-.223.016-.5.416-.2.017-.526h.111a.139.139,0,0,1,.134.143l-.073,2.26a.14.14,0,0,1-.143.134h-.111Z" transform="translate(312.3 225.488)" fill="#0e293a"/><path d="M472.483,219.6l.013-.4.3.01-.019.589Z" transform="translate(312.3 225.488)" fill="#0e293a"/><path d="M472.9,219.816l.02-.6.29.009-.015.453Z" transform="translate(312.3 225.488)" fill="#0e293a"/><rect width="5.156" height="0.34" transform="translate(782.456 444.714) rotate(91.835)" fill="#fbe3c6"/><rect width="8.153" height="0.34" transform="translate(783.095 444.734) rotate(91.859)" fill="#fbe3c6"/><rect width="1.818" height="0.34" transform="translate(783.734 444.755) rotate(91.835)" fill="#fbe3c6"/><rect width="8.453" height="13.788" rx="0.62" transform="translate(773.75 447.303) rotate(-20.326)" fill="#f16b5f"/><rect width="5.156" height="0.34" transform="translate(778.064 446.983) rotate(69.675)" fill="#f1afa9"/><rect width="8.153" height="0.34" transform="translate(778.664 446.761) rotate(69.674)" fill="#f1afa9"/><rect width="1.818" height="0.34" transform="translate(779.263 446.539) rotate(69.699)" fill="#f1afa9"/><rect width="1.464" height="13.788" transform="translate(779.486 445.178) rotate(-20.325)" fill="#0e293a"/><path d="M473.672,235.8s1.875.75,3.042-.125.167-5.417-.333-6.042-3.334-1.917-3.875-1.542.791,2.667,1.75,2.875C474.256,230.969,472.339,234.261,473.672,235.8Z" transform="translate(312.3 225.488)" fill="#ecb67c"/><path d="M563.289,272.061a125.4,125.4,0,0,0-1.1-13.619,11.452,11.452,0,0,0-4.213-7.42,174.757,174.757,0,0,0-14.415-10.281c-3.293-2.117-6.335-3.932-8.994-5.466a106.3,106.3,0,0,1-7.208,12.393c5.842,3.773,13.626,9.031,21.422,14.373,3.76,15.73,7.03,30.09,7.22,30.93v.01a.078.078,0,0,1,.01.03h.048l-.033.491s-4.811,3.634-4.9,5.435,3.763-1.836,3.87-.917-.979,4.13-.675,4.636,1.92-.466,1.92-.466a1.413,1.413,0,0,0,2.218.435,2.256,2.256,0,0,0,2.533-.537,2.771,2.771,0,0,0,1.855-1.472c.59-1.062-.543-6.97-1.005-9.225a93.053,93.053,0,0,0,1.447-19.33Z" transform="translate(312.3 225.488)" fill="#ecb67c"/><line x2="7.41" y2="33.127" transform="translate(860.889 485.332)" stroke-width="0.5" stroke="#0e293a" stroke-linecap="round" stroke-linejoin="round" fill="none"/><path d="M533.416,234.817a7.751,7.751,0,0,0-5.056-2.009,11,11,0,0,1-4.267-.955c-1.868-5.838-.047-16.844.192-18.247.012-.051.017-.1.029-.147l-15.108,8.5a4.015,4.015,0,0,1,.456,1.663v.006a18.353,18.353,0,0,1-.327,4.622c-.307,1.754-.715,3.3-.889,3.93-1.581,1.916-3.808,2.63-7.045,4.575-4.93,2.962-5.439,11.467-3.535,19.878s5.964,21.091,5.964,21.091l25.4-.331c-.822-7.629,4.506-18.656,6.649-31.175C536.95,239.955,535.317,236.6,533.416,234.817Z" transform="translate(312.3 225.488)" fill="#ecb67c"/><path d="M509.335,228.246c8.214,1.037,12.374-8.771,12.526-9.138A9.69,9.69,0,0,1,516,223.314a16.1,16.1,0,0,1-6.286.321c-.017-.006-.034-.006-.051-.011a18.353,18.353,0,0,1-.328,4.622Z" transform="translate(312.3 225.488)" fill="#0e293a"/><path d="M531.464,277.261c-1.377-2.191.914-11.782,3.372-20.952a37.244,37.244,0,0,0,4.5,3.869c1,.333,9.5-16.167,8.833-16.834s-17.833-11.666-24.583-13.416c0,0-6.625,15.333-13.25,13.958s-3.5-10.625-3.5-10.625a25.947,25.947,0,0,0-4.591,2.57l-.034-.2s-.246.262-.64.69a16.219,16.219,0,0,0-4.425,5.066,36.431,36.431,0,0,0-4.935,7.119c-1.75,4.125-2.875,6.125-2.875,6.125s9.125,18.375,10.125,18.375c.221,0,.644-.876,1.169-2.238,1.1,4.279,1.956,7.613,1.956,7.613-7.875,9.625-27.625,64.75-23.5,66.75s56.875,10.125,56.875,10.125,4.75-52.125,3.75-59.125S534.214,281.636,531.464,277.261Z" transform="translate(312.3 225.488)" fill="#fbac4d"/><path d="M534.922,256.178l-6.167-5.667,4.875,10.208Z" transform="translate(312.3 225.488)" fill="#0e293a"/><path d="M538.047,259.261a.255.255,0,0,1-.132-.037.251.251,0,0,1-.081-.344c.073-.118,7.3-11.82,8.81-16.324a.253.253,0,0,1,.317-.157.25.25,0,0,1,.157.317c-1.534,4.558-8.56,15.944-8.858,16.426A.25.25,0,0,1,538.047,259.261Z" transform="translate(312.3 225.488)" fill="#0e293a"/><path d="M499.776,271.824a.251.251,0,0,1-.221-.134l-9.438-17.938a.25.25,0,0,1,.444-.232L500,271.457a.251.251,0,0,1-.1.338.244.244,0,0,1-.124.029Z" transform="translate(312.3 225.488)" fill="#0e293a"/><path d="M500.708,270.785a.249.249,0,0,1-.231-.155,58.174,58.174,0,0,1-2.577-7.15,19.222,19.222,0,0,1-.625-7.6,29.107,29.107,0,0,1,1.55-5.593c.152-.432.3-.864.449-1.3a16.511,16.511,0,0,0,1.141-6.883.25.25,0,0,1,.224-.274.241.241,0,0,1,.274.223,16.946,16.946,0,0,1-1.165,7.094c-.147.435-.3.868-.451,1.3a28.717,28.717,0,0,0-1.526,5.5,18.687,18.687,0,0,0,.614,7.4,57.371,57.371,0,0,0,2.555,7.089.25.25,0,0,1-.137.326A.246.246,0,0,1,500.708,270.785Z" transform="translate(312.3 225.488)" fill="#0e293a"/><path d="M496.286,324.463a.249.249,0,0,1-.184-.418,86.756,86.756,0,0,0,19.84-37.008.25.25,0,1,1,.485.122,87.236,87.236,0,0,1-19.956,37.222.245.245,0,0,1-.185.082Z" transform="translate(312.3 225.488)" fill="#0e293a"/><path d="M511.541,314.994a.238.238,0,0,1-.086-.016.248.248,0,0,1-.148-.32,120.289,120.289,0,0,0,6.151-24.415.245.245,0,0,1,.282-.212.248.248,0,0,1,.212.282,120.593,120.593,0,0,1-6.177,24.516.249.249,0,0,1-.234.165Z" transform="translate(312.3 225.488)" fill="#0e293a"/><path d="M531.839,352.761h-.023a.25.25,0,0,1-.226-.271c.027-.3,2.768-30.392,4.251-42.259,1.152-9.218-2.311-17.416-5.092-24-.811-1.921-1.578-3.735-2.146-5.385-2.5-7.247,3.013-23.714,3.249-24.411a.25.25,0,0,1,.474.16c-.057.17-5.694,17-3.251,24.089.564,1.632,1.326,3.44,2.134,5.353,2.806,6.641,6.3,14.908,5.128,24.259-1.482,11.859-4.222,41.939-4.249,42.241a.251.251,0,0,1-.249.224Z" transform="translate(312.3 225.488)" fill="#0e293a"/><path d="M535.089,350.761h-.04l-56-9a.25.25,0,0,1,.08-.494l56,9a.251.251,0,0,1-.04.5Z" transform="translate(312.3 225.488)" fill="#0e293a"/><path d="M507.924,264.355a5.176,5.176,0,0,1,4.821,2.163" transform="translate(312.3 225.488)" fill="none" stroke="#0e293a" stroke-linecap="round" stroke-linejoin="round" stroke-width="0.5"/><path d="M510.511,245.335a6.051,6.051,0,0,1-2-.338c-5.52-1.925-3.806-10.2-3.787-10.289a.25.25,0,0,1,.488.106c-.017.079-1.64,7.931,3.463,9.711,4.9,1.708,11.549-4.017,15.814-13.616a.25.25,0,0,1,.457.2C521.613,238.6,515.845,245.335,510.511,245.335Z" transform="translate(312.3 225.488)" fill="#0e293a"/><path d="M528.505,208.909A2.7,2.7,0,0,0,525.464,207a2.3,2.3,0,0,0-.391.16c.18-4.337-.451-9.084-3.464-11.7-6.48-5.64-15.79-3.67-17.76,1.41a40.792,40.792,0,0,0-2.25,12.98c-.06,1.9-.07,3.78-.04,5.57v.57a7.342,7.342,0,0,0,.3,2.38c1.03,2.91,5.18,4.71,7.99,5.29a11.846,11.846,0,0,0,10.07-2.54,13.106,13.106,0,0,0,4.318-7.356,5.764,5.764,0,0,0,1.761-.173,4.493,4.493,0,0,0,2.044-1.707A3.573,3.573,0,0,0,528.505,208.909Z" transform="translate(312.3 225.488)" fill="#ecb67c"/><path d="M505.169,212.641a2.881,2.881,0,0,1-2.88,2.88,2.525,2.525,0,0,1-.73-.1c-.03-1.79-.02-3.67.04-5.57a2.61,2.61,0,0,1,.69-.09,2.881,2.881,0,0,1,2.88,2.88Z" transform="translate(312.3 225.488)" fill="#e69f63"/><circle cx="2.882" cy="2.882" r="2.882" transform="translate(826.05 435.249)" fill="#e69f63"/><path d="M506.687,207.051c0,.941-.372,1.7-.832,1.7s-.832-.763-.832-1.7.372-1.705.832-1.705S506.687,206.109,506.687,207.051Z" transform="translate(312.3 225.488)" fill="#0e293a"/><path d="M504.156,204.807a2.428,2.428,0,0,0,.563.727,1.969,1.969,0,0,0,.871.451h.014a.308.308,0,0,0,.138-.6.323.323,0,0,0-.081-.008,1.8,1.8,0,0,1-1.335-.676l-.006-.007a.1.1,0,0,0-.164.113Z" transform="translate(312.3 225.488)" fill="#0e293a"/><ellipse cx="0.832" cy="1.704" rx="0.832" ry="1.704" transform="translate(824.532 430.834)" fill="#0e293a"/><path d="M514.593,204.7a1.794,1.794,0,0,1-1.335.676.308.308,0,1,0-.024.616.355.355,0,0,0,.08-.007h.015a1.969,1.969,0,0,0,.871-.451,2.413,2.413,0,0,0,.563-.727.1.1,0,0,0-.164-.11Z" transform="translate(312.3 225.488)" fill="#0e293a"/><path d="M506.334,212.206a4.083,4.083,0,0,0,1.255,1.427,3.185,3.185,0,0,0,1.864.618,3.225,3.225,0,0,0,1.854-.64,6.1,6.1,0,0,0,.719-.639c.2-.252.387-.505.559-.766-.257.188-.492.389-.727.583-.263.159-.5.355-.762.488a3.432,3.432,0,0,1-1.646.468,3.357,3.357,0,0,1-1.652-.446,7.2,7.2,0,0,1-1.464-1.093Z" transform="translate(312.3 225.488)" fill="#0e293a"/><path d="M508.583,215.227a1.368,1.368,0,0,0,.876.3,1.429,1.429,0,0,0,.877-.3,4.507,4.507,0,0,1-.877.1,3.763,3.763,0,0,1-.876-.1Z" transform="translate(312.3 225.488)" fill="#0e293a"/><path d="M511.54,201.14a1.969,1.969,0,0,1,1.29-.477,3.961,3.961,0,0,1,1.373.2,3.345,3.345,0,0,1,1.21.692,3.536,3.536,0,0,1,.826,1.059.4.4,0,0,1-.618.487l-.034-.031a4.9,4.9,0,0,0-.822-.653,2.9,2.9,0,0,0-.908-.373,3.529,3.529,0,0,0-.983-.1,3.787,3.787,0,0,1-1.051-.061l-.1-.026a.416.416,0,0,1-.306-.5A.408.408,0,0,1,511.54,201.14Z" transform="translate(312.3 225.488)" fill="#0e293a"/><path d="M507.379,201.14a1.968,1.968,0,0,0-1.289-.477,3.964,3.964,0,0,0-1.374.2,3.353,3.353,0,0,0-1.21.692,3.516,3.516,0,0,0-.825,1.059.4.4,0,0,0,.617.487l.034-.031a4.9,4.9,0,0,1,.822-.653,2.916,2.916,0,0,1,.908-.373,3.529,3.529,0,0,1,.983-.1,3.788,3.788,0,0,0,1.051-.061l.106-.026a.417.417,0,0,0,.306-.5A.41.41,0,0,0,507.379,201.14Z" transform="translate(312.3 225.488)" fill="#0e293a"/><path d="M509.267,204.447c-.148.642-.256,1.28-.375,1.911a18.291,18.291,0,0,1-.418,1.856c-.041.15-.088.3-.141.44a1.571,1.571,0,0,0-.145.549,1.108,1.108,0,0,0,.6,1.011,1.341,1.341,0,0,0,1.086.058,2.635,2.635,0,0,0,.86-.515c-.6.225-1.3.4-1.716.083a.659.659,0,0,1-.3-.608,1.229,1.229,0,0,1,.125-.378c.064-.16.121-.32.169-.482a9.069,9.069,0,0,0,.312-1.96,10.5,10.5,0,0,0-.062-1.965Z" transform="translate(312.3 225.488)" fill="#0e293a"/><path d="M527.461,209.831a1.42,1.42,0,0,0-.444-1.128,1.319,1.319,0,0,0-1.286-.124,2.427,2.427,0,0,0-1.038.757,3.892,3.892,0,0,0-.645,1.088.284.284,0,0,0,.466.306l.019-.019a2.511,2.511,0,0,1,.954-.675.443.443,0,0,1,.4.044,1.07,1.07,0,0,1,.286.443c.145.373.233.81-.086.983a2.127,2.127,0,0,1-1.261.086,1.984,1.984,0,0,0,1.386.187.781.781,0,0,0,.489-.654,2.022,2.022,0,0,0-.081-.754,1.422,1.422,0,0,0-.4-.7.958.958,0,0,0-.872-.18,2.749,2.749,0,0,0-1.242.836l.485.287a3.037,3.037,0,0,1,1.308-1.637,1.07,1.07,0,0,1,.969-.059,1.423,1.423,0,0,1,.593.913Z" transform="translate(312.3 225.488)" fill="#0e293a"/><path d="M530.3,201.421c-4.2-13.45-18.45-14.62-26.38-8.82-7.07,5.17-5.86,32.45-5.52,38.28a1.058,1.058,0,0,0,1.16.99l9.19-.87c.19-.75.41-1.71.59-2.75a21.926,21.926,0,0,0,.37-3.64c0-.34-.02-.68-.05-.99-2.8-.62-6.79-2.4-7.8-5.25a7.341,7.341,0,0,1-.3-2.38v-.57c-.03-1.79-.02-3.67.04-5.57a57.609,57.609,0,0,1,.548-6.2c3.288.789,14.7,1.67,16.192,1.029,1.75-.75,1.75-4.5,1.75-4.5a15.2,15.2,0,0,1,.141,10.57,24.87,24.87,0,0,0,4.859-3.6,1.731,1.731,0,0,1,.38-.151,2.7,2.7,0,0,1,3.04,1.91,3.561,3.561,0,0,1-.47,2.97,4.473,4.473,0,0,1-2.04,1.71,5.483,5.483,0,0,1-1.74.17c-.27,1.65-1.59,9.98-.68,15.83l9.65-.92a1.064,1.064,0,0,0,.96-1.06,95.569,95.569,0,0,0-3.89-26.188Z" transform="translate(312.3 225.488)" fill="#0e293a"/><path d="M582.642,380.421,572.859,413l4.272,2.8,4.679-.147s8.137-17.341,14.836-32.562a97.451,97.451,0,0,1-14-2.67Z" transform="translate(312.3 225.488)" fill="#ecb67c"/><path d="M593.269,390.668c-.26.59-.52,1.16-.78,1.74a100.464,100.464,0,0,1-11.83-5.39l.57-1.9a101.4,101.4,0,0,0,12.04,5.55Z" transform="translate(312.3 225.488)" fill="#0e293a"/><path d="M579.564,421.48c-.514.228-14.489-4.523-14.489-4.523a1.479,1.479,0,0,1-.915-1.966,2.708,2.708,0,0,1,1.868-1.48,21.843,21.843,0,0,1,2.442-.368,8.845,8.845,0,0,0,2.54-.86l.073-2.216a1.72,1.72,0,0,1,.138-.751,1.384,1.384,0,0,1,.861-.61,3.34,3.34,0,0,1,2.988.556,4.24,4.24,0,0,1,1.381,2.2,9.547,9.547,0,0,1,.287,2.612c0,.5.494.721,1,.728a5.093,5.093,0,0,0,1.466-.308,2.634,2.634,0,0,1,1.48-.1A2.147,2.147,0,0,1,582,416.1a4.732,4.732,0,0,1-.492,2.935,4.875,4.875,0,0,1-1.944,2.445Z" transform="translate(312.3 225.488)" fill="#f16b5f"/><line x2="14.25" y2="5.063" transform="translate(877.326 640.894)" stroke-width="0.5" stroke="#0e293a" stroke-linecap="round" stroke-linejoin="round" fill="none"/><path d="M623.374,384.9q-.009-1.158-.019-2.315a72.815,72.815,0,0,1-10.854,1.141c-.95.035-1.9.053-2.852.062l.622,4.588a7.575,7.575,0,0,0,3.143,5.172l9.981,7.029,12.881,9.579,5.375-3.438.625-2.687S633.024,393.818,623.374,384.9Z" transform="translate(312.3 225.488)" fill="#ecb67c"/><path d="M625.469,386.848c-.08.55-.2.88-.38.95-1.59.67-10.41,2.16-14.24,2.59a7.264,7.264,0,0,1-.58-2.01l-.07-.52a136.973,136.973,0,0,0,13.82-2.36C624.509,385.948,624.989,386.4,625.469,386.848Z" transform="translate(312.3 225.488)" fill="#0e293a"/><path d="M646.4,407.531c0,.562-9.994,11.423-9.994,11.423a1.479,1.479,0,0,1-2.168.042,2.707,2.707,0,0,1-.6-2.306,22.232,22.232,0,0,1,.65-2.383,8.818,8.818,0,0,0,.241-2.67l-2-.963a1.73,1.73,0,0,1-.631-.429,1.386,1.386,0,0,1-.21-1.035A3.336,3.336,0,0,1,633.4,406.7a4.231,4.231,0,0,1,2.566-.376,9.552,9.552,0,0,1,2.505.793c.459.2.86-.16,1.069-.616a5.068,5.068,0,0,0,.31-1.466,2.633,2.633,0,0,1,.507-1.394,2.145,2.145,0,0,1,2.1-.518,4.729,4.729,0,0,1,2.486,1.636A4.872,4.872,0,0,1,646.4,407.531Z" transform="translate(312.3 225.488)" fill="#f16b5f"/><line y1="11.375" x2="10.25" transform="translate(947.451 632.019)" stroke-width="0.5" stroke="#0e293a" stroke-linecap="round" stroke-linejoin="round" fill="none"/><path d="M592.256,343.718s-13.167,39.5-12.667,40.333,14,7.334,15.333,7,11-29.166,11-29.166,2.5,25.666,3,26,14-1.834,16-2.667-2.333-35.833-8.5-41.667Z" transform="translate(312.3 225.488)" fill="#36c2d9"/><path d="M605.922,361.885l-5.833-5.542,3.5,12.417Z" transform="translate(312.3 225.488)" fill="#0e293a"/><path d="M604.089,361.968c-.25.333-10.667,27.917-10.667,27.917" transform="translate(312.3 225.488)" fill="none" stroke="#0e293a" stroke-linecap="round" stroke-linejoin="round" stroke-width="0.5"/><path d="M613.173,310.888c-1.826-4.625-.226-14.292-.023-15.485.01-.041.014-.078.023-.12l-12.394,6.97a3.285,3.285,0,0,1,.374,1.364v.005a15.1,15.1,0,0,1-.268,3.792,35.4,35.4,0,0,1-.8,3.474Z" transform="translate(312.3 225.488)" fill="#ecb67c"/><path d="M600.885,307.414c6.739.851,10.152-7.2,10.277-7.5a7.944,7.944,0,0,1-4.81,3.45,13.2,13.2,0,0,1-5.157.264c-.014-.005-.028-.005-.042-.009A15.1,15.1,0,0,1,600.885,307.414Z" transform="translate(312.3 225.488)" fill="#0e293a"/><path d="M564.682,312.877q2.675-2.9,5.435-5.715l-5.432-4.968-.119-.11-3.614,3.478.054.14a51.234,51.234,0,0,0,3.676,7.175Z" transform="translate(312.3 225.488)" fill="#ecb67c"/><path d="M562.749,306.513s-5.519-2.428-6.929-4.156a.157.157,0,0,1,.121-.263,4.636,4.636,0,0,1,2.227.894s-2.248-2.261-2.246-2.836,3.267,1.893,3.267,1.893-2.256-2.811-2.048-3.294,3.138,2.335,3.138,2.335-2.157-3.029-1.885-3.166c.678-.339,3.822,3.834,4.226,3.457.357-.334.038-1.583-.236-2.193a.218.218,0,0,1,.14-.307.852.852,0,0,1,1.037.545,11.787,11.787,0,0,1,1.516,5.877Z" transform="translate(312.3 225.488)" fill="#ecb67c"/><path d="M620.089,313.888c-1.25-3.84-7.08-4.59-7.08-4.59-7.84,3-12.5-1.16-12.5-1.16s-3.09,1.33-4.98,2.24l-15.44,5.34-12.67-11.83c0,.25-5.83,4.5-6.08,5.5s11.58,19.5,15.17,20.08c1.87.3,7.46-1.46,12.36-3.22.52-.19,1.04-.38,1.54-.57a.8.8,0,0,0,.01.16v.05c.33,8.04,1.25,19,1.25,19,2.92.5,25.67-.5,25.67-.5C616.419,341.468,621.339,317.718,620.089,313.888Z" transform="translate(312.3 225.488)" fill="#f16b5f"/><line x2="15.583" y2="14.917" transform="translate(879.722 529.373)" stroke-width="0.5" stroke="#0e293a" stroke-linecap="round" stroke-linejoin="round" fill="none"/><line x1="2.833" y1="0.333" transform="translate(892.389 541.206)" stroke-width="0.5" stroke="#0e293a" stroke-linecap="round" stroke-linejoin="round" fill="none"/><path d="M590.419,325.678v.16a.8.8,0,0,1-.01-.16c-.5.19-1.02.38-1.54.57a18.866,18.866,0,0,1,2.33-10.36v-.01a9.84,9.84,0,0,1,.69-1.11C590.339,317.658,590.389,324.408,590.419,325.678Z" transform="translate(312.3 225.488)" fill="#0e293a"/><path d="M596.678,327.937a18.981,18.981,0,0,0,5.085,5.1" transform="translate(312.3 225.488)" fill="none" stroke="#0e293a" stroke-linecap="round" stroke-linejoin="round" stroke-width="0.5"/><path d="M596.4,331.415q1.752,1.581,3.506,3.16" transform="translate(312.3 225.488)" fill="none" stroke="#0e293a" stroke-linecap="round" stroke-linejoin="round" stroke-width="0.5"/><path d="M630.431,329.365l2.5,2.563,2.4-3.087v28.137l1.587,4.194-8.223.175Z" transform="translate(312.3 225.488)" fill="#fbac4d"/><path d="M629.276,361.346H606.339l1.154-4.369V329.365h22.938v27.612Z" transform="translate(312.3 225.488)" fill="#fbac4d"/><path d="M627.289,351.846c.225-.33.914-1.377,1.873-3.14q-3.132-1.027-6.258-2.071l-.588,4.155h0a13.286,13.286,0,0,0-1.652,2.491.851.851,0,0,0,.136,1.163.217.217,0,0,0,.332-.058c.349-.57,1.2-1.539,1.677-1.432.539.12-1.129,5.071-.466,5.439.266.148,1.548-3.344,1.548-3.344s-.671,4.011-.154,3.909,1.561-3.55,1.561-3.55-.193,4.088.283,3.765,1.072-3.456,1.072-3.456a4.629,4.629,0,0,0,.52,2.343.157.157,0,0,0,.285-.049c.4-1.356.1-4.231-.177-6.156Z" transform="translate(312.3 225.488)" fill="#ecb67c"/><path d="M615.422,309.968l2.584,15.5,8.5,5.083-4.084,19.167s6.417,2.5,7,2.583,9.5-23.75,7.084-27.666S622.922,311.718,615.422,309.968Z" transform="translate(312.3 225.488)" fill="#f16b5f"/><path d="M619.276,326.281l-6.906-3.5,6.563,6.313Z" transform="translate(312.3 225.488)" fill="#0e293a"/><line y1="21.156" x2="4.51" transform="translate(934.722 554.05)" stroke-width="0.5" stroke="#0e293a" stroke-linecap="round" stroke-linejoin="round" fill="none"/><line x2="1.448" y2="3.552" transform="translate(937.358 552.487)" stroke-width="0.5" stroke="#0e293a" stroke-linecap="round" stroke-linejoin="round" fill="none"/><path d="M634.816,324.148a2.514,2.514,0,0,1,.578,1.944" transform="translate(312.3 225.488)" fill="none" stroke="#0e293a" stroke-linecap="round" stroke-linejoin="round" stroke-width="0.5"/><path d="M616.612,291.55a2.214,2.214,0,0,0-2.495-1.564,1.954,1.954,0,0,0-.319.13c.147-3.556-.373-7.451-2.844-9.6-5.319-4.625-12.95-3.007-14.569,1.156-1.851,4.759-1.945,10.649-1.883,15.686a6.055,6.055,0,0,0,.248,1.954c.846,2.39,4.254,3.866,6.557,4.344a9.716,9.716,0,0,0,8.262-2.091,10.741,10.741,0,0,0,3.543-6.031,4.71,4.71,0,0,0,1.443-.142,3.689,3.689,0,0,0,1.678-1.4,2.933,2.933,0,0,0,.379-2.442Z" transform="translate(312.3 225.488)" fill="#ecb67c"/><path d="M598.713,290.025c0,.772-.306,1.4-.683,1.4s-.683-.626-.683-1.4.306-1.4.683-1.4S598.713,289.253,598.713,290.025Z" transform="translate(312.3 225.488)" fill="#0e293a"/><path d="M603.261,290.025c0,.772.306,1.4.683,1.4s.683-.626.683-1.4-.3-1.4-.683-1.4S603.261,289.253,603.261,290.025Z" transform="translate(312.3 225.488)" fill="#0e293a"/><path d="M598.423,294.255a3.335,3.335,0,0,0,1.03,1.17,2.6,2.6,0,0,0,1.528.507,2.643,2.643,0,0,0,1.522-.525,4.992,4.992,0,0,0,.589-.524c.161-.207.318-.414.459-.628-.211.154-.4.318-.6.478-.215.13-.407.291-.624.4a2.811,2.811,0,0,1-1.351.384,2.747,2.747,0,0,1-1.355-.366,5.913,5.913,0,0,1-1.2-.9Z" transform="translate(312.3 225.488)" fill="#0e293a"/><path d="M600.268,296.733a1.124,1.124,0,0,0,.719.244,1.169,1.169,0,0,0,.719-.244,3.718,3.718,0,0,1-.72.081,3.1,3.1,0,0,1-.718-.081Z" transform="translate(312.3 225.488)" fill="#0e293a"/><path d="M602.694,285.176a1.618,1.618,0,0,1,1.058-.392,3.3,3.3,0,0,1,1.127.16,2.751,2.751,0,0,1,.992.569,2.891,2.891,0,0,1,.678.868.327.327,0,0,1-.507.4l-.028-.026a4.07,4.07,0,0,0-.674-.536,2.364,2.364,0,0,0-.745-.3,2.888,2.888,0,0,0-.807-.079,3.035,3.035,0,0,1-.862-.05l-.086-.021a.341.341,0,0,1-.251-.413.335.335,0,0,1,.105-.18Z" transform="translate(312.3 225.488)" fill="#0e293a"/><path d="M599.28,285.176a1.618,1.618,0,0,0-1.058-.392,3.3,3.3,0,0,0-1.127.16,2.759,2.759,0,0,0-.992.569,2.872,2.872,0,0,0-.677.868.327.327,0,0,0,.506.4l.028-.026a4.039,4.039,0,0,1,.675-.536,2.359,2.359,0,0,1,.744-.3,2.888,2.888,0,0,1,.807-.079,3.031,3.031,0,0,0,.862-.05l.087-.021a.342.342,0,0,0,.251-.413A.336.336,0,0,0,599.28,285.176Z" transform="translate(312.3 225.488)" fill="#0e293a"/><path d="M600.829,287.889c-.121.527-.21,1.05-.307,1.568a15.547,15.547,0,0,1-.344,1.522c-.034.123-.072.244-.115.361a1.273,1.273,0,0,0-.119.451.908.908,0,0,0,.49.829,1.1,1.1,0,0,0,.891.048,2.184,2.184,0,0,0,.706-.422c-.49.184-1.063.328-1.408.067a.541.541,0,0,1-.242-.5,1.01,1.01,0,0,1,.1-.311c.052-.131.1-.262.138-.4a7.359,7.359,0,0,0,.256-1.608,8.514,8.514,0,0,0-.046-1.61Z" transform="translate(312.3 225.488)" fill="#0e293a"/><path d="M615.756,292.306a1.166,1.166,0,0,0-.365-.926,1.083,1.083,0,0,0-1.054-.1,1.982,1.982,0,0,0-.852.621,3.182,3.182,0,0,0-.529.893.233.233,0,0,0,.382.251l.015-.016a2.048,2.048,0,0,1,.783-.553.361.361,0,0,1,.329.036.873.873,0,0,1,.235.362c.119.307.191.666-.071.808a1.746,1.746,0,0,1-1.034.07,1.622,1.622,0,0,0,1.137.153.641.641,0,0,0,.4-.536,1.646,1.646,0,0,0-.067-.619,1.164,1.164,0,0,0-.33-.572.787.787,0,0,0-.716-.147,2.251,2.251,0,0,0-1.019.686l.4.235a2.5,2.5,0,0,1,1.073-1.343.874.874,0,0,1,.8-.048,1.167,1.167,0,0,1,.483.745Z" transform="translate(312.3 225.488)" fill="#0e293a"/><path d="M618.589,289.968c-.42-8.5-5.83-9.83-5.83-9.83-2.67-5.75-13.34-6.34-17.25-1.17-3.07,4.05-1.74,12.49-1.02,15.96a58.3,58.3,0,0,1,.423-7.107l1.273.046,1.071-2.066-.317,2.09c1.332.042,2.99.084,4.5.093l.154-3.683,1,3.683a12.928,12.928,0,0,0,2.746-.183c1.083-.416,2.167-2.916,2.167-2.916s-.084,6.916,2,7.083c1.346.108,3.143-1.036,4.54-1.95.021-.008.055-.025.073-.03a2.2,2.2,0,0,1,2.49,1.56,2.9,2.9,0,0,1-.38,2.44,3.617,3.617,0,0,1-1.67,1.4,4.564,4.564,0,0,1-1.43.15,58.668,58.668,0,0,0-.81,9.67,13.371,13.371,0,0,0,3.35-.74C616.839,303.8,619.009,298.468,618.589,289.968Z" transform="translate(312.3 225.488)" fill="#0e293a"/><path d="M662.3,421.488H87.7a1,1,0,0,1,0-2H662.3a1,1,0,0,1,0,2Z" transform="translate(312.3 225.488)" fill="#048fa6"/><g transform="translate(-3 -86)"><rect width="85.877" height="24.397" rx="5.19" transform="translate(642 664)" fill="#6c5da9"/><path d="M10.4-76.122h1.246a2.5,2.5,0,0,0,1.807-.579,2.076,2.076,0,0,0,.6-1.562,1.967,1.967,0,0,0-.6-1.518,2.5,2.5,0,0,0-1.755-.553H10.4ZM8.19-82.14h3.7a4.59,4.59,0,0,1,3.2,1.088,3.593,3.593,0,0,1,1.2,2.79,3.586,3.586,0,0,1-1.237,2.869,4.613,4.613,0,0,1-3.114,1.062H10.4v4.018H8.19Zm14.563,8H21.665A2.018,2.018,0,0,0,20.4-73.8a1.057,1.057,0,0,0-.439.869q0,1.123,1.3,1.123a1.446,1.446,0,0,0,1.1-.412,1.5,1.5,0,0,0,.395-1.079Zm-4.316-2.667v-1.948a5.539,5.539,0,0,1,2.878-.614q3.615,0,3.615,3.369v5.685H22.841v-1.07a2.388,2.388,0,0,1-2.316,1.141,2.733,2.733,0,0,1-2.009-.737,2.506,2.506,0,0,1-.746-1.86,2.352,2.352,0,0,1,.947-1.983,4.463,4.463,0,0,1,2.737-.719h1.3v-.544a1.521,1.521,0,0,0-.386-1.123,1.824,1.824,0,0,0-1.316-.386A4.641,4.641,0,0,0,18.437-76.806ZM29.93-70.489,26.42-79.21h2.334l1.035,2.842q.474,1.263.763,2.123t.36,1.088l.053.246q.175-.614,1.123-3.457l.93-2.842h2.211l-3.211,8.65Q30.684-67,27.947-67a3.83,3.83,0,0,1-.877-.088v-1.737a2.453,2.453,0,0,0,.6.07A2.331,2.331,0,0,0,29.93-70.489ZM41.194-72a1.9,1.9,0,0,0,1.544-.728,3.142,3.142,0,0,0,.6-2.044,3.142,3.142,0,0,0-.6-2.044,1.869,1.869,0,0,0-1.509-.728,2.132,2.132,0,0,0-1.579.684,2.807,2.807,0,0,0-.667,2.035,3.058,3.058,0,0,0,.649,2.088A2.011,2.011,0,0,0,41.194-72ZM38.984-79.21v1.369a3.036,3.036,0,0,1,2.72-1.491,3.4,3.4,0,0,1,2.764,1.246,5,5,0,0,1,1.026,3.281A5.193,5.193,0,0,1,44.467-71.5a3.349,3.349,0,0,1-2.781,1.307,2.986,2.986,0,0,1-2.7-1.456v4.685H36.878V-79.21Zm8.756,8.9V-82.719h2.106v12.405ZM57.916-75.49v-.263a2.236,2.236,0,0,0-.465-1.377,1.538,1.538,0,0,0-1.255-.518,1.787,1.787,0,0,0-1.307.553,2.787,2.787,0,0,0-.711,1.605Zm1.439,2.86v1.825a5.113,5.113,0,0,1-2.685.579,4.458,4.458,0,0,1-3.351-1.263,4.485,4.485,0,0,1-1.228-3.264,4.624,4.624,0,0,1,1.158-3.334,3.841,3.841,0,0,1,2.9-1.211A3.653,3.653,0,0,1,58.9-78.245a4.247,4.247,0,0,1,1.018,3.071,8.373,8.373,0,0,1-.123,1.263h-5.58a2.392,2.392,0,0,0,.956,1.474,3.094,3.094,0,0,0,1.816.509A3.919,3.919,0,0,0,59.355-72.63Z" transform="translate(650.81 750.719)" fill="#fff"/></g></g></svg>