<svg xmlns="http://www.w3.org/2000/svg" width="63" height="62" viewBox="0 0 63 62">
  <g id="그룹_3384" data-name="그룹 3384" transform="translate(-865 -947)">
    <g id="그룹_3381" data-name="그룹 3381" transform="translate(-6 -3)">
      <circle id="타원_1" data-name="타원 1" cx="29" cy="29" r="29" transform="translate(875 952)" fill="#e6edb7"/>
      <circle id="타원_2" data-name="타원 2" cx="4" cy="4" r="4" transform="translate(871 987)" fill="#f2bc2c"/>
      <circle id="타원_3" data-name="타원 3" cx="3" cy="3" r="3" transform="translate(926 950)" fill="#f2bc2c"/>
      <circle id="타원_9" data-name="타원 9" cx="1.5" cy="1.5" r="1.5" transform="translate(931 959)" fill="#88ae45"/>
      <circle id="타원_4" data-name="타원 4" cx="1" cy="1" r="1" transform="translate(923 950)" fill="#f2bc2c"/>
      <circle id="타원_5" data-name="타원 5" cx="2" cy="2" r="2" transform="translate(881 1008)" fill="#88ae45"/>
      <circle id="타원_6" data-name="타원 6" cx="2" cy="2" r="2" transform="translate(876 980)" fill="#fff"/>
      <circle id="타원_8" data-name="타원 8" cx="1" cy="1" r="1" transform="translate(926 967)" fill="#fff"/>
      <circle id="타원_7" data-name="타원 7" cx="1.5" cy="1.5" r="1.5" transform="translate(926 1000)" fill="#f2bc2c"/>
    </g>
    <g id="discount" transform="translate(879.156 957.163)">
      <g id="그룹_3382" data-name="그룹 3382" transform="translate(0.782 0.775)">
        <path id="패스_4403" data-name="패스 4403" d="M134.107,33.418l9.373-9.443a.926.926,0,0,0-.655-1.577H141.2V11.55a1.554,1.554,0,0,0-1.55-1.55h-12.4a1.554,1.554,0,0,0-1.55,1.55V22.4h-1.619a.926.926,0,0,0-.606,1.626l9.321,9.39A.923.923,0,0,0,134.107,33.418Z" transform="translate(-114.392 -10)" fill="#89df8f" fill-rule="evenodd"/>
        <path id="패스_4404" data-name="패스 4404" d="M28.138,340.32c-4.845.6-15.262-3.9-18.091,9.6a1.346,1.346,0,0,0,1.136,1.735h7.8a1.4,1.4,0,0,0,1.552-1.143l.728-1.417,5.3.059a15.437,15.437,0,0,0,7.751-1.466c4.541-1.821,11.126-4.8,12.594-5.353,2.134-.827,1.334-3.878-1.311-3.214l-8.664,2.335a1.329,1.329,0,0,0,.085-.681,1.67,1.67,0,0,0-1.86-1.442c-.871.108-6.152.874-7.024.982Z" transform="translate(-10.009 -313.535)" fill="#ffdcd5" fill-rule="evenodd"/>
      </g>
      <g id="그룹_3383" data-name="그룹 3383" transform="translate(0.007 0)">
        <path id="패스_4405" data-name="패스 4405" d="M39.568,330.737a2.643,2.643,0,0,0-3.383-1.591l-.013,0-7.651,2.062a2.444,2.444,0,0,0-2.681-1.871c-.442.055-1.937.267-3.521.492-1.511.215-3.074.437-3.5.49a19.486,19.486,0,0,1-3.537-.087c-.47-.037-.957-.076-1.454-.107a.775.775,0,1,0-.1,1.547c.485.031.966.069,1.43.105a20.4,20.4,0,0,0,3.851.08c.443-.055,1.942-.268,3.53-.494,1.507-.214,3.065-.435,3.494-.489a.892.892,0,0,1,1,.769c.019.153.07.561-1,1.052a42.09,42.09,0,0,1-6.444,2.373.775.775,0,0,0,.394,1.5,43.677,43.677,0,0,0,6.7-2.463,3.583,3.583,0,0,0,1.559-1.213l8.339-2.248c.918-.228,1.389.139,1.523.559a.956.956,0,0,1-.684,1.181c-.649.245-2.2.92-4.167,1.775-2.607,1.134-5.851,2.545-8.438,3.583a14.743,14.743,0,0,1-7.454,1.41l-5.3-.059h-.009a.775.775,0,0,0-.689.421l-.728,1.417a.781.781,0,0,0-.059.154c-.108.4-.243.569-.8.569h-7.8a.342.342,0,0,1-.25-.144.768.768,0,0,1-.127-.657c.933-4.455,2.772-7.214,5.622-8.436a.775.775,0,1,0-.611-1.424c-3.348,1.436-5.484,4.557-6.528,9.543A2.32,2.32,0,0,0,.5,342.489a1.878,1.878,0,0,0,1.453.717h7.8a2.17,2.17,0,0,0,2.276-1.633l.474-.922,4.826.053a16.228,16.228,0,0,0,8.048-1.521c2.608-1.046,5.864-2.462,8.479-3.6,1.872-.815,3.489-1.518,4.1-1.747l.007,0a2.491,2.491,0,0,0,1.6-3.1Z" transform="translate(-0.007 -303.532)"/>
        <path id="패스_4406" data-name="패스 4406" d="M188.334,67.489a2.325,2.325,0,1,0-2.325-2.325A2.327,2.327,0,0,0,188.334,67.489Zm0-3.1a.775.775,0,1,1-.775.775A.776.776,0,0,1,188.334,64.39Z" transform="translate(-171.596 -57.971)"/>
        <path id="패스_4407" data-name="패스 4407" d="M266.009,145.166a2.325,2.325,0,1,0,2.325-2.325A2.327,2.327,0,0,0,266.009,145.166Zm3.1,0a.775.775,0,1,1-.775-.775A.776.776,0,0,1,269.109,145.166Z" transform="translate(-245.397 -131.772)"/>
        <path id="패스_4408" data-name="패스 4408" d="M211.754,73.584a.774.774,0,0,0,1.058-.284l5.369-9.3a.775.775,0,0,0-1.342-.775l-5.368,9.3A.775.775,0,0,0,211.754,73.584Z" transform="translate(-194.989 -57.97)"/>
        <path id="패스_4409" data-name="패스 4409" d="M113.722,15.363l9.3,9.373a1.688,1.688,0,0,0,1.2.5h0a1.69,1.69,0,0,0,1.2-.5L134.8,15.3a1.7,1.7,0,0,0-1.2-2.9h-.847V2.325A2.327,2.327,0,0,0,130.428,0h-12.4a2.327,2.327,0,0,0-2.325,2.325V12.4h-.844a1.7,1.7,0,0,0-1.139,2.965Zm1.139-1.415h1.619a.775.775,0,0,0,.775-.775V2.325a.776.776,0,0,1,.775-.775h12.4a.776.776,0,0,1,.775.775V13.173a.775.775,0,0,0,.775.775H133.6a.151.151,0,0,1,.105.256h0l-9.37,9.439a.145.145,0,0,1-.1.043h0a.145.145,0,0,1-.1-.043l-9.321-9.39-.043-.04a.15.15,0,0,1-.053-.115.152.152,0,0,1,.151-.151Z" transform="translate(-104.392 0)"/>
        <path id="패스_4410" data-name="패스 4410" d="M123.46,343.2a.775.775,0,1,0,.775.775.775.775,0,0,0-.775-.775Z" transform="translate(-113.179 -316.602)"/>
      </g>
    </g>
  </g>
</svg>
