<svg xmlns="http://www.w3.org/2000/svg" xmlns:xlink="http://www.w3.org/1999/xlink" width="269.9" height="533.6" viewBox="0 0 269.9 533.6"><defs><linearGradient id="a" x1="0.5" x2="0.5" y2="1" gradientUnits="objectBoundingBox"><stop offset="0" stop-opacity="0.251"/><stop offset="1" stop-color="#545454" stop-opacity="0.251"/></linearGradient></defs><g transform="translate(-186.1 -2862)"><g transform="translate(190 2862)" fill="#0e0e11"><path d="M 222.0002899169922 532.60009765625 L 39.9996223449707 532.60009765625 C 34.7340202331543 532.60009765625 29.62668800354004 531.5690307617188 24.81948661804199 529.53564453125 C 20.1755542755127 527.5714111328125 16.0046215057373 524.7591552734375 12.42262077331543 521.1770629882812 C 8.84068775177002 517.5949096679688 6.028554439544678 513.4240112304688 4.064354419708252 508.7799682617188 C 2.031020879745483 503.9724426269531 1.000020861625671 498.8650512695312 1.000020861625671 493.5996398925781 L 1.000020861625671 39.99958038330078 C 1.000020861625671 34.73424911499023 2.031020879745483 29.6268482208252 4.064354419708252 24.81938171386719 C 6.028487682342529 20.17551612854004 8.840620994567871 16.00458145141602 12.42262077331543 12.42258262634277 C 16.0046215057373 8.840581893920898 20.1755542755127 6.028449058532715 24.81942176818848 4.064315319061279 C 29.62688827514648 2.030982255935669 34.73428726196289 0.9999821782112122 39.9996223449707 0.9999821782112122 L 222.0002899169922 0.9999821782112122 C 227.265625 0.9999821782112122 232.3730163574219 2.030982255935669 237.1804809570312 4.064315319061279 C 241.8243560791016 6.028449058532715 245.9952850341797 8.840581893920898 249.5772857666016 12.42258262634277 C 253.1592864990234 16.00458145141602 255.9714202880859 20.17551612854004 257.935546875 24.81938171386719 C 259.9689025878906 29.6268482208252 260.9998779296875 34.73424911499023 260.9998779296875 39.99958038330078 L 260.9998779296875 493.5996398925781 C 260.9998779296875 498.8650512695312 259.9689025878906 503.9724426269531 257.935546875 508.7799682617188 C 255.9713592529297 513.4240112304688 253.1592254638672 517.5949096679688 249.5772857666016 521.1771240234375 C 245.9952850341797 524.7591552734375 241.8243560791016 527.5714111328125 237.1804809570312 529.53564453125 C 232.3732147216797 531.5690307617188 227.2658843994141 532.60009765625 222.0002899169922 532.60009765625 Z M 39.9996223449707 13.00038242340088 C 36.35522079467773 13.00038242340088 32.81928634643555 13.71438217163086 29.49015426635742 15.12258243560791 C 26.27508735656738 16.48244857788086 23.38775444030762 18.42911529541016 20.90842056274414 20.90838241577148 C 18.42915344238281 23.38771629333496 16.48248672485352 26.27504920959473 15.12262058258057 29.49018287658691 C 13.71442127227783 32.81924819946289 13.00042057037354 36.35518264770508 13.00042057037354 39.99958038330078 L 13.00042057037354 493.6437072753906 C 13.00042057037354 497.2883911132812 13.71442127227783 500.824462890625 15.12262058258057 504.1536560058594 C 16.48255348205566 507.3689880371094 18.42922019958496 510.2563781738281 20.90842056274414 512.7356567382812 C 23.38775444030762 515.2149658203125 26.27508735656738 517.16162109375 29.49022102355957 518.5216064453125 C 32.81928634643555 519.9298095703125 36.35522079467773 520.643798828125 39.9996223449707 520.643798828125 L 222.0002899169922 520.643798828125 C 225.6448822021484 520.643798828125 229.1809539794922 519.9298095703125 232.5102844238281 518.5216064453125 C 235.7254180908203 517.1618041992188 238.6127471923828 515.215087890625 241.09228515625 512.7356567382812 C 243.5716247558594 510.2562561035156 245.5182800292969 507.3688354492188 246.8782196044922 504.1536560058594 C 248.2864227294922 500.824462890625 249.0004272460938 497.2883911132812 249.0004272460938 493.6437072753906 L 249.0004272460938 39.99958038330078 C 249.0004272460938 36.35518264770508 248.2864227294922 32.81924819946289 246.8782196044922 29.49011611938477 C 245.5182800292969 26.27504920959473 243.5716247558594 23.38771629333496 241.0922241210938 20.90838241577148 C 238.6128234863281 18.42898178100586 235.7254180908203 16.48238182067871 232.5102844238281 15.12258243560791 C 229.1809539794922 13.71438217163086 225.6448822021484 13.00038242340088 222.0002899169922 13.00038242340088 L 39.9996223449707 13.00038242340088 Z" stroke="none"/><path d="M 222.0002899169922 531.60009765625 C 227.13134765625 531.60009765625 232.1076202392578 530.5956420898438 236.7908935546875 528.6146240234375 C 241.3156280517578 526.7008666992188 245.3796844482422 523.9605712890625 248.8701477050781 520.469970703125 C 252.3606262207031 516.9793701171875 255.1007537841797 512.9152221679688 257.0145568847656 508.3904418945312 C 258.9954833984375 503.706787109375 259.9998779296875 498.7304382324219 259.9998779296875 493.5996398925781 L 259.9998779296875 39.99958038330078 C 259.9998779296875 34.86878204345703 258.9954833984375 29.89251518249512 257.0145568847656 25.20891571044922 C 255.1008148193359 20.68424797058105 252.3606872558594 16.62018203735352 248.8702239990234 13.12964916229248 C 245.3796844482422 9.639182090759277 241.3156280517578 6.899048805236816 236.7909545898438 4.985315322875977 C 232.1073608398438 3.004382133483887 227.1310882568359 1.999982118606567 222.0002899169922 1.999982118606567 L 39.9996223449707 1.999982118606567 C 34.86882019042969 1.999982118606567 29.89255332946777 3.004382133483887 25.20895385742188 4.985315322875977 C 20.68428802490234 6.899048805236816 16.62022018432617 9.639182090759277 13.12968730926514 13.12964916229248 C 9.63922119140625 16.62018203735352 6.899087429046631 20.68424797058105 4.985354423522949 25.20891571044922 C 3.00442099571228 29.89251518249512 2.000020980834961 34.86878204345703 2.000020980834961 39.99958038330078 L 2.000020980834961 493.5996398925781 C 2.000020980834961 498.7304382324219 3.00442099571228 503.706787109375 4.985354423522949 508.3904418945312 C 6.899154186248779 512.9152221679688 9.639287948608398 516.9793701171875 13.12968730926514 520.469970703125 C 16.62022018432617 523.9605712890625 20.68428802490234 526.7008666992188 25.20902061462402 528.6146240234375 C 29.89228820800781 530.5956420898438 34.86855316162109 531.60009765625 39.9996223449707 531.60009765625 L 222.0002899169922 531.60009765625 M 39.9996223449707 12.00038242340088 L 222.0002899169922 12.00038242340088 C 225.7794799804688 12.00038242340088 229.4466247558594 12.74098205566406 232.8998260498047 14.20158195495605 C 236.2341613769531 15.61178207397461 239.2283477783203 17.6303825378418 241.7993469238281 20.20131492614746 C 244.3702239990234 22.77211570739746 246.3888854980469 25.76624870300293 247.7992248535156 29.10058212280273 C 249.2598266601562 32.55364990234375 250.0004272460938 36.2205810546875 250.0004272460938 39.99958038330078 L 250.0004272460938 493.6437072753906 C 250.0004272460938 497.4229125976562 249.2598266601562 501.0900573730469 247.7992248535156 504.5432434082031 C 246.3888854980469 507.8776550292969 244.3702239990234 510.8718566894531 241.7993469238281 513.4426879882812 C 239.2283477783203 516.0137329101562 236.2341613769531 518.0324096679688 232.8998870849609 519.4425659179688 C 229.4466247558594 520.9031982421875 225.7794799804688 521.643798828125 222.0002899169922 521.643798828125 L 39.9996223449707 521.643798828125 C 36.22061920166016 521.643798828125 32.55368804931641 520.9031982421875 29.10062026977539 519.4425659179688 C 25.76628684997559 518.0322265625 22.77215385437012 516.0136108398438 20.20135498046875 513.4426879882812 C 17.63055419921875 510.8719787597656 15.61195468902588 507.8777160644531 14.20162105560303 504.5432434082031 C 12.74102115631104 501.0900573730469 12.00042057037354 497.4229125976562 12.00042057037354 493.6437072753906 L 12.00042057037354 39.99958038330078 C 12.00042057037354 36.2205810546875 12.74102115631104 32.55364990234375 14.20162105560303 29.10058212280273 C 15.61188793182373 25.76631546020508 17.6304874420166 22.77211570739746 20.20135498046875 20.20131492614746 C 22.77215385437012 17.63044929504395 25.76635360717773 15.61184883117676 29.10062026977539 14.20158195495605 C 32.55368804931641 12.74098205566406 36.22061920166016 12.00038242340088 39.9996223449707 12.00038242340088 M 222.0002899169922 533.60009765625 L 39.9996223449707 533.60009765625 C 34.5996208190918 533.60009765625 29.36122131347656 532.5426025390625 24.42988777160645 530.4566650390625 C 19.6667537689209 528.4419555664062 15.3890209197998 525.5578002929688 11.71548748016357 521.8841552734375 C 8.042020797729492 518.2105102539062 5.157954216003418 513.9327392578125 3.143354177474976 509.1695251464844 C 1.057620882987976 504.2381286621094 2.089030022034422e-05 498.9997253417969 2.089030022034422e-05 493.5996398925781 L 2.089030022034422e-05 39.99958038330078 C 2.089030022034422e-05 34.59958267211914 1.057620882987976 29.36118125915527 3.143354177474976 24.42984962463379 C 5.15788745880127 19.66678237915039 8.041954040527344 15.38904857635498 11.71548748016357 11.7154483795166 C 15.38908767700195 8.041915893554688 19.66682052612305 5.157848834991455 24.42988777160645 3.143315553665161 C 29.36122131347656 1.057582139968872 34.5996208190918 -1.783854168024845e-05 39.9996223449707 -1.783854168024845e-05 L 222.0002899169922 -1.783854168024845e-05 C 227.4002838134766 -1.783854168024845e-05 232.6386871337891 1.057582139968872 237.5700225830078 3.143315553665161 C 242.3330841064453 5.157848834991455 246.6108245849609 8.041915893554688 250.284423828125 11.7154483795166 C 253.9579467773438 15.38904857635498 256.8420104980469 19.66678237915039 258.8565673828125 24.42984962463379 C 260.9422912597656 29.36118125915527 261.9998779296875 34.59958267211914 261.9998779296875 39.99958038330078 L 261.9998779296875 493.5996398925781 C 261.9998779296875 498.9997253417969 260.9422912597656 504.2381286621094 258.8565673828125 509.1695251464844 C 256.8419494628906 513.9327392578125 253.9578857421875 518.2105102539062 250.284423828125 521.8841552734375 C 246.6108856201172 525.5578002929688 242.3331604003906 528.4419555664062 237.5700225830078 530.4566650390625 C 232.6386871337891 532.5426025390625 227.4002838134766 533.60009765625 222.0002899169922 533.60009765625 Z M 39.9996223449707 14.00038242340088 C 36.48988723754883 14.00038242340088 33.08502197265625 14.68778228759766 29.8797550201416 16.04358291625977 C 26.78382110595703 17.35304832458496 24.00335502624512 19.22771644592285 21.61555480957031 21.61551475524902 C 19.22775459289551 24.00331497192383 17.35308837890625 26.78378295898438 16.04362106323242 29.87971496582031 C 14.68782043457031 33.08498382568359 14.00042057037354 36.48984909057617 14.00042057037354 39.99958038330078 L 14.00042057037354 493.6437072753906 C 14.00042057037354 497.1537170410156 14.68782043457031 500.5587158203125 16.04362106323242 503.7641296386719 C 17.3531551361084 506.8602600097656 19.22782135009766 509.6407775878906 21.61555480957031 512.0285034179688 C 24.00335502624512 514.4163818359375 26.78388786315918 516.2911376953125 29.8797550201416 517.6005859375 C 33.08502197265625 518.9563598632812 36.48988723754883 519.643798828125 39.9996223449707 519.643798828125 L 222.0002899169922 519.643798828125 C 225.5102233886719 519.643798828125 228.915283203125 518.9563598632812 232.1207580566406 517.6005859375 C 235.2168273925781 516.2911376953125 237.9973602294922 514.4163208007812 240.3851470947266 512.0285034179688 C 242.77294921875 509.6407165527344 244.6476898193359 506.8601684570312 245.9572143554688 503.7641296386719 C 247.3130187988281 500.5587158203125 248.0004272460938 497.1537170410156 248.0004272460938 493.6437072753906 L 248.0004272460938 39.99958038330078 C 248.0004272460938 36.48984909057617 247.3130187988281 33.08498382568359 245.9572143554688 29.87971496582031 C 244.6477508544922 26.78384971618652 242.7730255126953 24.00331497192383 240.3851470947266 21.61551475524902 C 237.9972229003906 19.2276496887207 235.2166900634766 17.35298156738281 232.1207580566406 16.04358291625977 C 228.915283203125 14.68778228759766 225.5102233886719 14.00038242340088 222.0002899169922 14.00038242340088 L 39.9996223449707 14.00038242340088 Z" stroke="none" fill="#3b3b45"/></g><path d="M0,0H0A4,4,0,0,1,4,4V56a4,4,0,0,1-4,4H0a0,0,0,0,1,0,0V0A0,0,0,0,1,0,0Z" transform="translate(452 2985)" fill="#0e0e11"/><path d="M0,0H0A4,4,0,0,1,4,4V35a4,4,0,0,1-4,4H0a0,0,0,0,1,0,0V0A0,0,0,0,1,0,0Z" transform="translate(190.1 3058) rotate(180)" fill="#0e0e11"/><path d="M0,0H0A4,4,0,0,1,4,4V35a4,4,0,0,1-4,4H0a0,0,0,0,1,0,0V0A0,0,0,0,1,0,0Z" transform="translate(190.1 3010) rotate(180)" fill="#0e0e11"/><path d="M0,0H0A4,4,0,0,1,4,4V17a4,4,0,0,1-4,4H0a0,0,0,0,1,0,0V0A0,0,0,0,1,0,0Z" transform="translate(190.1 2954) rotate(180)" fill="#0e0e11"/><path d="M21,21A16,16,0,0,1,5,5V3.875H5a3.976,3.976,0,0,0-1.211-2.74A3.977,3.977,0,0,0,1,0H133V5a16,16,0,0,1-16,16ZM133,4.006V0h4.02A4.14,4.14,0,0,0,133,4.006Z" transform="translate(252.001 2875.9)" fill="#0e0e11"/><g transform="translate(-6173 -5293)"><rect width="32" height="4.674" rx="2.337" transform="translate(6469.468 8172.475)" fill="#fff" opacity="0.054"/><circle cx="4.674" cy="4.674" r="4.674" transform="translate(6508.877 8170.138)" fill="url(#a)"/><circle cx="2.003" cy="2.003" r="2.003" transform="translate(6511.548 8172.809)" fill="#035a81" opacity="0.257"/></g><rect width="87" height="4" rx="2" transform="translate(278 3366)" fill="#0e0e11"/></g></svg>