<svg xmlns="http://www.w3.org/2000/svg" xmlns:xlink="http://www.w3.org/1999/xlink" width="270.9" height="534.6" viewBox="0 0 270.9 534.6"><defs><linearGradient id="a" x1="0.5" x2="0.5" y2="1" gradientUnits="objectBoundingBox"><stop offset="0" stop-opacity="0.251"/><stop offset="1" stop-color="#fff" stop-opacity="0"/></linearGradient></defs><g transform="translate(-2076.5 -320.5)"><g transform="translate(1519.9 -1899)"><path d="M-1297.9,2432.6h-182a39.969,39.969,0,0,1-28.293-11.706A39.966,39.966,0,0,1-1519.9,2392.6V1939a39.966,39.966,0,0,1,11.706-28.294A39.968,39.968,0,0,1-1479.9,1899h182a39.966,39.966,0,0,1,28.294,11.705A39.966,39.966,0,0,1-1257.9,1939v453.6a39.968,39.968,0,0,1-11.706,28.294,39.969,39.969,0,0,1-28.26,11.705Zm0-12.956a25.975,25.975,0,0,0,18.391-7.609,25.973,25.973,0,0,0,7.609-18.391V1940a25.973,25.973,0,0,0-7.609-18.392A25.974,25.974,0,0,0-1297.9,1914h-26.466a4.128,4.128,0,0,0-.534,1.906v.994a16,16,0,0,1-16,16h-96a16,16,0,0,1-16-16v-1.125a3.973,3.973,0,0,0-.478-1.775H-1479.9a25.975,25.975,0,0,0-18.391,7.608A25.98,25.98,0,0,0-1505.9,1940v453.644a25.979,25.979,0,0,0,7.609,18.391,25.976,25.976,0,0,0,18.391,7.609Z" transform="translate(2080.9 321)" fill="#fff" stroke="#707070" stroke-width="1"/><path d="M0,121V90a4,4,0,0,1,4-4v39A4,4,0,0,1,0,121ZM265.9,52a4,4,0,0,1,4,4v52a4,4,0,0,1-4,4ZM0,73V42a4,4,0,0,1,4-4V77A4,4,0,0,1,0,73ZM0,17V4A4,4,0,0,1,4,0V21A4,4,0,0,1,0,17Z" transform="translate(557.1 2291)" fill="#fff" stroke="#707070" stroke-width="1"/><rect width="87" height="4" rx="2" transform="translate(649 2724)" fill="#fff" stroke="#707070" stroke-width="1"/><g transform="translate(-5802 -5935)"><rect width="32" height="4.674" rx="2.337" transform="translate(6469.468 8172.475)" opacity="0.054"/><circle cx="4.674" cy="4.674" r="4.674" transform="translate(6508.877 8170.138)" fill="url(#a)"/><circle cx="2.003" cy="2.003" r="2.003" transform="translate(6511.548 8172.809)" fill="#035a81" opacity="0.257"/></g></g></g></svg>