<svg xmlns="http://www.w3.org/2000/svg" width="506.227" height="428.244" viewBox="0 0 506.227 428.244"><g transform="translate(-112.397 -30.371)"><path d="M388.28,423.543l-.03.181H132.961c1.992-6.7,7.559-12.116,13.9-15.33,7.137-3.606,15.209-4.828,23.13-6.005a63.329,63.329,0,0,1-13.821-26.222c-1.886-7.394-1.735-16.627,4.542-20.943,4.164-2.866,9.732-2.565,14.65-1.433a53.7,53.7,0,0,1,24.02,12.523,108.342,108.342,0,0,1,1.917-39.968c1.9-7.906,5.793-16.687,13.669-18.724,7.122-1.856,14.349,2.776,19.419,8.117a59.348,59.348,0,0,1,14.876,28.3c7.967-14.152,16.25-28.682,29.015-38.716,6.744-5.3,16.144-9.218,23.748-5.235,5.386,2.821,8.329,9.007,8.872,15.073.528,6.05-.951,12.085-2.429,17.97q-2.965,11.859-5.93,23.7a87.245,87.245,0,0,1,31.64-12.055c4.541-.77,9.49-1.1,13.5,1.161,5.553,3.139,7.529,10.5,6.292,16.748-1.222,6.261-4.964,11.678-8.615,16.9q-5.16,7.377-10.32,14.74a42.948,42.948,0,0,1,53.245,29.211Z" fill="#38b2ac"/><path d="M221.012,347.807v75.27a.755.755,0,0,0,1.509-.008V347.8A.755.755,0,0,0,221.012,347.807Z" fill="#bbfff5"/><path d="M294.715,387.17q-6.932,8.7-13.2,17.907V381.97a.768.768,0,0,0,.084-.4q5.184-8.361,11.047-16.27c.578-.779-.734-1.526-1.307-.754q-5.18,6.982-9.824,14.339V343.73a.755.755,0,0,0-1.509.008v36.683c-5.357-2.577-11.145-4.171-16.373-7.032-.851-.466-1.608.839-.755,1.307,5.475,3,11.565,4.6,17.128,7.4v22.837q-7.185-4.071-14.131-8.544c-.816-.528-1.568.78-.755,1.307q7.3,4.728,14.886,8.982V422.06a.755.755,0,0,0,1.509-.008V407.685a.709.709,0,0,0,.1-.1q6.686-9.951,14.155-19.339C296.373,387.493,295.319,386.411,294.715,387.17Z" fill="#bbfff5"/><path d="M234.676,356.634a199.252,199.252,0,0,0-13.537,18.678c-.524.819.784,1.572,1.307.755a195.5,195.5,0,0,1,13.29-18.358C236.344,356.963,235.29,355.882,234.676,356.634Z" fill="#bbfff5"/><path d="M236.135,392.471a209.7,209.7,0,0,0-14.852,18.2c-.571.784.74,1.533,1.307.754A206.019,206.019,0,0,1,237.2,393.546C237.849,392.831,236.791,391.754,236.135,392.471Z" fill="#bbfff5"/><path d="M221.89,393.561c-1.551-2.468-3.813-4.523-5.79-6.647l-6.314-6.785c-.663-.712-1.736.35-1.075,1.06l6.137,6.594,3.024,3.249a22.573,22.573,0,0,1,2.707,3.277C221.1,395.13,222.408,394.385,221.89,393.561Z" fill="#bbfff5"/><path d="M222.244,360.956q-5.487-6.193-11.538-11.85c-.708-.662-1.785.4-1.075,1.059q6.045,5.65,11.538,11.85C221.815,362.744,222.886,361.68,222.244,360.956Z" fill="#bbfff5"/><path d="M562.939,423.582l-.031.181H307.62c1.991-6.7,7.559-12.116,13.9-15.329,7.136-3.606,15.208-4.828,23.13-6.005a63.316,63.316,0,0,1-13.821-26.223c-1.886-7.393-1.735-16.627,4.542-20.942,4.164-2.867,9.731-2.565,14.65-1.434a53.709,53.709,0,0,1,24.02,12.523,108.32,108.32,0,0,1,1.916-39.968c1.9-7.906,5.794-16.687,13.67-18.724,7.121-1.856,14.349,2.776,19.418,8.117a59.35,59.35,0,0,1,14.877,28.3c7.966-14.152,16.25-28.682,29.014-38.715,6.744-5.3,16.144-9.219,23.749-5.236,5.386,2.822,8.328,9.008,8.871,15.073.528,6.05-.95,12.086-2.429,17.97q-2.964,11.859-5.929,23.7a87.247,87.247,0,0,1,31.639-12.055c4.542-.77,9.49-1.1,13.5,1.162,5.552,3.138,7.529,10.5,6.292,16.747-1.223,6.262-4.964,11.678-8.616,16.9q-5.16,7.377-10.32,14.741a42.949,42.949,0,0,1,53.246,29.21Z" fill="#38b2ac"/><path d="M395.671,347.846v75.271a.755.755,0,0,0,1.509-.009v-75.27A.755.755,0,0,0,395.671,347.846Z" fill="#bbfff5"/><path d="M469.374,387.209q-6.932,8.7-13.2,17.907V382.009a.767.767,0,0,0,.085-.4q5.184-8.361,11.047-16.27c.577-.778-.734-1.526-1.307-.754q-5.181,6.982-9.825,14.34V343.769a.755.755,0,0,0-1.509.008v36.684c-5.357-2.578-11.145-4.171-16.373-7.033-.85-.465-1.608.84-.754,1.307,5.475,3,11.564,4.6,17.127,7.4v22.838q-7.185-4.072-14.131-8.544c-.815-.529-1.567.779-.754,1.306q7.3,4.728,14.885,8.982V422.1a.755.755,0,0,0,1.509-.008V407.725a.717.717,0,0,0,.1-.1q6.685-9.949,14.155-19.338C471.032,387.532,469.978,386.451,469.374,387.209Z" fill="#bbfff5"/><path d="M409.335,356.673A199.141,199.141,0,0,0,395.8,375.352c-.524.818.784,1.571,1.306.754a195.809,195.809,0,0,1,13.29-18.358C411,357,409.948,355.922,409.335,356.673Z" fill="#bbfff5"/><path d="M410.794,392.511a209.693,209.693,0,0,0-14.853,18.2c-.57.785.741,1.533,1.307.755a206.072,206.072,0,0,1,14.605-17.878C412.507,392.87,411.45,391.793,410.794,392.511Z" fill="#bbfff5"/><path d="M396.549,393.6c-1.552-2.468-3.814-4.523-5.79-6.646l-6.315-6.786c-.663-.712-1.735.35-1.075,1.06l6.137,6.594,3.024,3.249a22.518,22.518,0,0,1,2.708,3.277C395.754,395.169,397.066,394.424,396.549,393.6Z" fill="#bbfff5"/><path d="M396.9,360.995q-5.487-6.193-11.538-11.85c-.709-.662-1.785.4-1.075,1.06q6.045,5.649,11.538,11.849C396.473,362.783,397.545,361.719,396.9,360.995Z" fill="#bbfff5"/><path d="M175.784,424.056l366-1.188s-41.759,35.747-190.787,35.747S175.784,424.056,175.784,424.056Z" fill="#e8e8e8"/><path d="M140.624,332.174l-6.711-6.712-6.669,6.658-5.435-5.437,6.667-6.658-6.667-6.668,5.435-5.436,6.669,6.668,6.657-6.669,5.437,5.437-6.658,6.668,6.711,6.712Zm-6.711-8.522,6.711,6.712,3.626-3.627-6.711-6.71,6.658-6.669-3.627-3.626-6.657,6.668-6.669-6.669-3.625,3.626,6.668,6.67-6.668,6.657,3.625,3.626Z" fill="#ff5331"/><path d="M165.85,276.035l-18.186-14.868,14.869-18.188,18.186,14.868Zm-16.386-15.049,16.206,13.248,13.249-16.206L162.713,244.78Zm15.759,8.8-11.308-9.245,9.245-11.309,11.308,9.245Zm-9.508-9.426,9.328,7.625,7.625-9.327-9.328-7.625Z" fill="#ff5331"/><path d="M174.462,301.062A12.64,12.64,0,1,1,161.827,313.7,12.652,12.652,0,0,1,174.462,301.062Zm7.923,12.635a7.917,7.917,0,1,0-7.923,7.923A7.922,7.922,0,0,0,182.385,313.7Z" fill="#cbf4f4"/><path d="M202.686,263.7a7.427,7.427,0,1,1-7.423,7.423A7.434,7.434,0,0,1,202.686,263.7Zm4.655,7.423a4.652,4.652,0,1,0-4.655,4.656A4.654,4.654,0,0,0,207.341,271.121Z" fill="#ffe566"/><rect width="10.347" height="10.347" transform="matrix(0.823, 0.568, -0.568, 0.823, 214.602, 229.703)" fill="#cbf4f4"/><circle cx="6.31" cy="6.31" r="6.31" transform="translate(319.23 251.13)" fill="#cbf4f4"/><path d="M594.373,251.026l6.711-6.712-6.657-6.669,5.436-5.436,6.657,6.669,6.669-6.668,5.435,5.436-6.667,6.668,6.667,6.658-5.435,5.437-6.669-6.658-6.711,6.711Zm18.816,3.573,3.625-3.626-6.667-6.658,6.667-6.669-3.625-3.626-6.669,6.669-6.657-6.669-3.626,3.627,6.657,6.668-6.711,6.711,3.626,3.626,6.711-6.711Z" fill="#ffbe55"/><path d="M512.234,263.013l18.186-14.868,14.869,18.188L527.1,281.2Zm18.006-13.067-16.206,13.248L527.282,279.4l16.207-13.248Zm-11.755,13.695,11.307-9.245,9.245,11.309L527.73,274.95Zm11.127-7.443-9.327,7.625,7.625,9.326,9.327-7.625Z" fill="#fffefd"/><path d="M606.5,285.582a12.641,12.641,0,1,1-12.635-12.635A12.659,12.659,0,0,1,606.5,285.582Zm-12.635,7.923a7.917,7.917,0,1,0-7.924-7.923A7.929,7.929,0,0,0,593.864,293.505Z" fill="#cbf4f4"/><path d="M576.059,239.68a7.427,7.427,0,1,1-7.424-7.423A7.439,7.439,0,0,1,576.059,239.68Zm-7.424,4.656a4.652,4.652,0,1,0-4.655-4.656A4.659,4.659,0,0,0,568.635,244.336Z" fill="#ff5331"/><rect width="10.347" height="10.347" transform="matrix(-0.823, 0.568, -0.568, -0.823, 550.132, 246.667)" fill="#ffbe55"/><circle cx="3.326" cy="3.326" r="3.326" transform="translate(525.435 278.936)" fill="#ff5331"/><circle cx="4.697" cy="4.697" r="4.697" transform="translate(593.858 320.663)" fill="#ff5331"/><circle cx="4.313" cy="4.313" r="4.313" transform="translate(112.397 364.217)" fill="#ff5331"/><circle cx="4.118" cy="4.118" r="4.118" transform="translate(223.565 202.3)" fill="#ffbe55"/><rect width="71.157" height="8.87" transform="translate(234.433 414.972)" fill="#ffbe55"/><rect width="71.157" height="7.047" transform="translate(234.433 407.925)" fill="#f4af40"/><rect width="71.157" height="7.047" transform="translate(234.433 400.878)" fill="#ffbe55"/><rect width="71.157" height="7.047" transform="translate(234.433 393.831)" fill="#f4af40"/><rect width="71.157" height="7.047" transform="translate(234.433 386.784)" fill="#ffbe55"/><rect width="71.157" height="7.047" transform="translate(234.433 379.738)" fill="#f4af40"/><rect width="71.157" height="7.047" transform="translate(234.433 372.691)" fill="#ffbe55"/><rect width="71.157" height="7.047" transform="translate(234.433 365.644)" fill="#f4af40"/><rect width="71.157" height="7.047" transform="translate(234.433 358.597)" fill="#ffbe55"/><rect width="71.157" height="7.047" transform="translate(234.433 351.551)" fill="#f4af40"/><rect width="71.157" height="7.047" transform="translate(234.433 344.504)" fill="#ffbe55"/><rect width="71.157" height="7.047" transform="translate(234.433 337.457)" fill="#f4af40"/><rect width="71.157" height="7.047" transform="translate(234.433 330.41)" fill="#ffbe55"/><rect width="71.157" height="7.047" transform="translate(234.433 323.363)" fill="#f4af40"/><rect width="71.157" height="7.047" transform="translate(234.433 316.317)" fill="#ffbe55"/><rect width="71.157" height="7.047" transform="translate(234.433 309.27)" fill="#f4af40"/><rect width="71.157" height="7.047" transform="translate(234.433 302.223)" fill="#ffbe55"/><path d="M305.59,287.646v14.577H234.433V287.646S247.379,297.8,272.885,297.8,305.59,287.646,305.59,287.646Z" fill="#f4af40"/><path d="M234.433,287.646H305.59s-7.2,10.156-32.7,10.156S234.433,287.646,234.433,287.646Z" fill="#ffbe55"/><rect width="71.157" height="7.047" transform="translate(298.818 360.507)" fill="#f9be48"/><rect width="71.157" height="7.047" transform="translate(298.818 353.46)" fill="#ffe566"/><rect width="71.157" height="7.047" transform="translate(298.818 346.414)" fill="#f9be48"/><rect width="71.157" height="7.047" transform="translate(298.818 339.367)" fill="#ffe566"/><rect width="71.157" height="7.047" transform="translate(298.818 332.32)" fill="#f9be48"/><path d="M298.818,318.053V332.32h71.157V318.053s-12.444,7.867-35.579,7.867S298.818,318.053,298.818,318.053Z" fill="#ffe566"/><path d="M369.975,318.053H298.818s12.444,7.867,35.578,7.867S369.975,318.053,369.975,318.053Z" fill="#e8a52e"/><rect width="71.157" height="7.047" transform="translate(298.818 388.608)" fill="#f9be48"/><rect width="71.157" height="7.047" transform="translate(298.818 381.561)" fill="#ffe566"/><rect width="71.157" height="7.047" transform="translate(298.818 374.514)" fill="#f9be48"/><rect width="71.157" height="7.047" transform="translate(298.818 367.467)" fill="#ffe566"/><rect width="71.157" height="7.047" transform="translate(298.818 416.795)" fill="#f9be48"/><rect width="71.157" height="7.047" transform="translate(298.818 409.748)" fill="#ffe566"/><rect width="71.157" height="7.047" transform="translate(298.818 402.701)" fill="#f9be48"/><rect width="71.157" height="7.047" transform="translate(298.818 395.654)" fill="#ffe566"/><rect width="71.157" height="7.047" transform="translate(492.332 394.66)" fill="#f9be48"/><rect width="71.157" height="7.047" transform="translate(492.332 387.613)" fill="#ffe566"/><rect width="71.157" height="7.047" transform="translate(492.332 380.567)" fill="#f9be48"/><rect width="71.157" height="7.047" transform="translate(492.332 373.52)" fill="#ffe566"/><rect width="71.157" height="7.047" transform="translate(492.332 366.473)" fill="#f9be48"/><path d="M492.332,352.206v14.267h71.157V352.206s-12.444,7.868-35.578,7.868S492.332,352.206,492.332,352.206Z" fill="#ffe566"/><path d="M563.489,352.206H492.332s12.444,7.868,35.579,7.868S563.489,352.206,563.489,352.206Z" fill="#e8a52e"/><rect width="71.157" height="7.047" transform="translate(492.332 415.714)" fill="#ffe566"/><rect width="71.157" height="7.047" transform="translate(492.332 408.667)" fill="#f9be48"/><rect width="71.157" height="7.047" transform="translate(492.332 401.62)" fill="#ffe566"/><rect width="71.157" height="7.047" transform="translate(479.406 346.075)" fill="#ffbe55"/><rect width="71.157" height="7.047" transform="translate(479.406 339.028)" fill="#f4af40"/><rect width="71.157" height="7.047" transform="translate(479.406 331.981)" fill="#ffbe55"/><path d="M550.563,317.4v14.577H479.406V317.4s12.945,10.156,38.451,10.156S550.563,317.4,550.563,317.4Z" fill="#f4af40"/><path d="M479.406,317.4h71.157s-7.2,10.156-32.706,10.156S479.406,317.4,479.406,317.4Z" fill="#ffbe55"/><path d="M384.2,84.677s21.663-5.744,51.357,43.065L495,130.566l-.829,14.973-61.837-.2a8.431,8.431,0,0,1-4.466-1.293c-4.859-3.057-16.82-11.346-23.167-22.419C396.607,107.517,384.2,84.677,384.2,84.677Z" fill="#f7b05c"/><path d="M313.49,289.72s38.083-.36,65.139,17.078S453.24,318.42,453.24,318.42s-50.341-51.353-82.88-51.173S313.49,289.72,313.49,289.72Z" fill="#272742"/><path d="M315.04,420.6c.71-1.91,1.23-3.64,1.92-5.54.37-.92.74-1.84,1.13-2.76a35.034,35.034,0,0,1-3.05,17.28,51.546,51.546,0,0,1-10.36,14.9c-1.72,1.78-3.67,3.54-6.09,4.1a5.309,5.309,0,0,1-3.7-.37c-1.85-1-2.64-3.21-3.14-5.25-1.05-4.27-1.46-8.81-.24-13.04a27.774,27.774,0,0,1,4.47-8.38c3.4-4.66,7.69-8.65,10.83-13.49-.02.05-.04.11-.06.16-.39.98-.79,1.95-1.2,2.92a.369.369,0,0,1-.05.11c-2.27,4.95-5.86,11.13-6.7,15.51-.37,1.93-.32,4.2,1.13,5.51a4.772,4.772,0,0,0,3.41,1.05c3.06-.1,5.83-2.04,7.69-4.48A31.573,31.573,0,0,0,315.04,420.6Z" fill="#272742"/><path d="M316.96,415.06c-.69,1.9-1.21,3.63-1.92,5.54a31.573,31.573,0,0,1-4.01,8.23c-1.86,2.44-4.63,4.38-7.69,4.48a4.772,4.772,0,0,1-3.41-1.05c-1.45-1.31-1.5-3.58-1.13-5.51.84-4.38,4.43-10.56,6.7-15.51a.369.369,0,0,0,.05-.11c.47-1.04.89-2.03,1.2-2.92.02-.05.04-.11.06-.16,10.83-27.31,13.53-57.82,27.41-83.77,2.21-4.13,4.69-8.11,6.52-12.41,4.37-10.22,4.9-21.57,5.18-32.7,11.06.32,21.89,3.99,31.43,9.61q2.19,1.29,4.3,2.71-18.525,37.815-39.33,74.46c-8.61,15.17-17.55,30.28-24.23,46.35C317.7,413.22,317.33,414.14,316.96,415.06Z" fill="#f7b05c"/><path d="M305.55,411.13c.41-.97.81-1.94,1.2-2.92C306.44,409.1,306.02,410.09,305.55,411.13Z" fill="#272742"/><path d="M396.54,439.66c-.19-3.15-.06-6.13-.26-9.28a18.942,18.942,0,0,0,4.21,7.22,9.92,9.92,0,0,0,7.55,3.12,4.628,4.628,0,0,0,4.69-4.97,17.94,17.94,0,0,0-.51-3.63c-.33-1.62-.62-3.24-.85-4.87,2.57,4.9,7.31,8.67,8.79,14.02.36,1.31.46,2.87-.46,3.87a4.06,4.06,0,0,1-1.71.98c-2.82.95-5.88.79-8.85.62a51.479,51.479,0,0,1-7.34-.79,6.707,6.707,0,0,1-4.24-2.25A7.669,7.669,0,0,1,396.54,439.66Z" fill="#272742"/><path d="M411.21,426.93a3.186,3.186,0,0,0,.16.32c.23,1.63.52,3.25.85,4.87a17.94,17.94,0,0,1,.51,3.63,4.628,4.628,0,0,1-4.69,4.97,9.92,9.92,0,0,1-7.55-3.12,18.942,18.942,0,0,1-4.21-7.22h-.07q-.315-34.83-.6-69.69c-.07-7.7-.13-15.5,1.73-22.98,1.3-5.27,3.53-10.29,4.43-15.64a43.181,43.181,0,0,0-.84-16.51c5.82,4.12,11.85,7.8,18.6,10.09a57.089,57.089,0,0,0,11.52,2.57q-11.745,53.79-19.78,108.3C411.25,426.66,411.23,426.79,411.21,426.93Z" fill="#f7b05c"/><path d="M369.67,87.11l.21-.07c2.71-.51,5.41-1.02,8.12-1.52a24.455,24.455,0,0,1-35.67,12.89l-.17-.16a10.908,10.908,0,0,0,3.06-5.36l.05.01a21.148,21.148,0,0,0-3.92-16.5c.13.01.25.01.38.01a73.913,73.913,0,0,0,13.47,5.22,29.714,29.714,0,0,0,6.52,1.2,8.421,8.421,0,0,0,4.33-.75,7.091,7.091,0,0,0,2.5-2.34A23.987,23.987,0,0,0,369.67,87.11Z" fill="#db9345"/><path d="M337.7,101.75c-2.5,1.64-5.1,3.16-7.11,5.36-3.56,3.88-4.75,9.31-5.92,14.45-.56,2.45-1.13,4.89-1.73,7.32a21.535,21.535,0,0,1-24.38.86c-8.33-5.55-11.9-17-8.85-26.53,1.82-5.71,5.61-10.55,8.6-15.74,4-6.97,6.59-14.66,8.8-22.39,2.35-8.22,4.44-16.82,9.73-23.54a28.965,28.965,0,0,1,42.84-3.16h0a16.869,16.869,0,0,0-9.87-4.5A44.257,44.257,0,0,1,337.47,66.8l-.14-.13c-1.43-.56-3.05-1.11-4.45-.5a3.806,3.806,0,0,0-1.71,4.66,7.423,7.423,0,0,0,3.68,3.85,14.514,14.514,0,0,0,6.5,1.72,21.148,21.148,0,0,1,3.92,16.5l-.05-.01a10.908,10.908,0,0,1-3.06,5.36,22.013,22.013,0,0,1-3.21,2.66C338.54,101.2,338.12,101.47,337.7,101.75Z" fill="#272742"/><path d="M322.94,128.88c.6-2.43,1.17-4.87,1.73-7.32,1.17-5.14,2.36-10.57,5.92-14.45,2.01-2.2,4.61-3.72,7.11-5.36,2.15,13.2-.54,26.69-.59,40.08-.01,3.85.3,7.99,2.65,11.04a10.438,10.438,0,0,0,1.99,1.94q-8.4,12.795-16.81,25.59a90.467,90.467,0,0,1-6.33,8.84c-1.47,1.74-3.28,3.48-5.55,3.67-3.12.27-5.64-2.4-7.53-4.9-10.52-13.84-18.35-29.51-27.37-44.36a.01.01,0,0,0-.01-.01,7.046,7.046,0,0,0-4.5-1.19c-1.81.01-3.67.24-5.37-.37a7.483,7.483,0,0,1-4.13-4.22,18.449,18.449,0,0,1-1.17-5.94c-.2-2.69-.14-5.7,1.71-7.67,2.63-2.8,7.43-2.02,10.55-4.26h.31c-.05-3.39-.09-6.79-.15-10.18-.02-1.67.03-3.53,1.19-4.72a26.254,26.254,0,0,1,3.12,8.37,101.629,101.629,0,0,1,1.83,10.41,24.4,24.4,0,0,0,1.32,6.48,20.219,20.219,0,0,0,2.34,3.92c8.23,11.65,17.68,22.38,27.13,33.07C316.06,154.57,319.77,141.79,322.94,128.88Z" fill="#f7b05c"/><path d="M378,85.52" fill="#272742"/><path d="M437.37,244.82c-.74,12.65-.62,25.41,1.59,37.89s7.02,25.33,14.28,35.71a120.892,120.892,0,0,1-22.19-.2,57.089,57.089,0,0,1-11.52-2.57c-6.75-2.29-12.78-5.97-18.6-10.09-6.46-4.57-12.66-9.69-19.28-14.07q-2.115-1.425-4.3-2.71c-9.54-5.62-20.37-9.29-31.43-9.61-.11,0-.23-.01-.34-.01-11.19-.26-23.38,3.53-32.09,10.56,6.6-17.84,11.94-36.13,19.07-53.76,6.94-17.15,15.7-33.83,28.18-47.46q-5.37-15.345-10.75-30.72a17.338,17.338,0,0,1-8.24-2.97,10.438,10.438,0,0,1-1.99-1.94c-2.35-3.05-2.66-7.19-2.65-11.04.05-13.39,2.74-26.88.59-40.08.42-.28.84-.55,1.25-.84a22.013,22.013,0,0,0,3.21-2.66l.17.16A24.455,24.455,0,0,0,378,85.52l2.59-.48c1.8-.34,3.75-.66,5.41.12a9,9,0,0,1,3.27,3.38q7.65,11.475,15.3,22.94c2.4,3.59,4.8,7.19,6.96,10.92a15.114,15.114,0,0,1,2.3,5.87,10.962,10.962,0,0,1-2.11,7.11,32.129,32.129,0,0,1-5.05,5.38l.42.46q2.475,18.72,6.32,37.24l-.02.04c7.75,3.48,15.39,8.14,19.84,15.38,3.09,5.03,4.41,10.96,5,16.84C439.38,222.05,438.03,233.46,437.37,244.82Z" fill="#f73"/><path d="M378,85.52,360.74,188.5q-5.37-15.345-10.75-30.72a17.338,17.338,0,0,1-8.24-2.97,10.438,10.438,0,0,1-1.99-1.94c-2.35-3.05-2.66-7.19-2.65-11.04.05-13.39,2.74-26.88.59-40.08.42-.28.84-.55,1.25-.84a22.013,22.013,0,0,0,3.21-2.66l.17.16A24.455,24.455,0,0,0,378,85.52Z" fill="#ff5331"/><path d="M337.47,66.8a44.257,44.257,0,0,0,12.34-32.92,16.869,16.869,0,0,1,9.87,4.5,22.534,22.534,0,0,1,2.55,2.71c3.04,3.8,4.91,8.39,6.5,12.99l.02-.01c1.6.02,3.37.11,4.49,1.25a5.346,5.346,0,0,1,1.14,3.64,33.431,33.431,0,0,1-1.24,9.05,46.493,46.493,0,0,1-3.44,9.75,15.012,15.012,0,0,1-1.15,1.98,7.091,7.091,0,0,1-2.5,2.34,8.421,8.421,0,0,1-4.33.75,29.714,29.714,0,0,1-6.52-1.2,73.913,73.913,0,0,1-13.47-5.22c-.13,0-.25,0-.38-.01a14.514,14.514,0,0,1-6.5-1.72,7.423,7.423,0,0,1-3.68-3.85,3.806,3.806,0,0,1,1.71-4.66c1.4-.61,3.02-.06,4.45.5Z" fill="#f7b05c"/><path d="M366.632,57.592a10.429,10.429,0,0,0-1.626-.567c-.528-.175-1.055-.35-1.576-.546a9.62,9.62,0,0,1-2.949-1.641c-.484-.42-1.2.28-.712.7a15.674,15.674,0,0,0,5.533,2.635,4.222,4.222,0,0,0,.657.238c-.034.116-.069.231-.107.345a9.428,9.428,0,0,1-.6,1.416,9.985,9.985,0,0,1-1.872,2.515.5.5,0,0,0,.7.713,10.91,10.91,0,0,0,2.065-2.785,11.219,11.219,0,0,0,.653-1.546C366.971,58.567,367.23,57.913,366.632,57.592Z" fill="#bc722e"/><path d="M354.3,56.77a2.05,2.05,0,0,1-1.04,1.52,2.649,2.649,0,0,1-3.25-.81,5.2,5.2,0,0,1-.93-4.08.508.508,0,0,1,.11-.22,1.226,1.226,0,0,1,.03-.17,1.511,1.511,0,0,1,1.77-1.06,4.439,4.439,0,0,1,2.9,2.72A3.571,3.571,0,0,1,354.3,56.77Z" fill="#272742"/><path d="M365.21,51.228a2.05,2.05,0,0,1-1.04,1.52,2.649,2.649,0,0,1-3.25-.81,5.2,5.2,0,0,1-.93-4.08.508.508,0,0,1,.11-.22,1.217,1.217,0,0,1,.03-.17,1.511,1.511,0,0,1,1.77-1.06,4.439,4.439,0,0,1,2.9,2.72A3.571,3.571,0,0,1,365.21,51.228Z" fill="#272742"/><path d="M366.54,71.72a5.14,5.14,0,0,1-2.18,3.17,4.789,4.789,0,0,1-3.46.5c-2.64-.63-3.76-3.34-4.41-5.7a.445.445,0,0,1,.21-.53.392.392,0,0,1,.28-.16,29.124,29.124,0,0,0,8.86-2.78.451.451,0,0,1,.11-.03.464.464,0,0,1,.8.22A12.056,12.056,0,0,1,366.54,71.72Z" fill="#fffefd"/><rect width="143.189" height="84.665" rx="4.584" transform="translate(356.549 84.19) rotate(5.431)" fill="#38b2ac"/><rect width="143.189" height="13.152" transform="translate(355.258 97.771) rotate(5.431)" fill="#272742"/><rect width="130.568" height="12.754" transform="translate(357.805 118.431) rotate(5.431)" fill="#fffefd"/><rect width="35.272" height="5.136" transform="translate(418.245 127.421) rotate(5.431)" fill="#38b2ac"/><rect width="20.446" height="5.136" transform="translate(456.811 131.088) rotate(5.431)" fill="#38b2ac"/><rect width="77.639" height="3.243" transform="translate(408.608 143.299) rotate(5.431)" fill="#bbfff5"/><rect width="77.639" height="3.243" transform="translate(407.858 151.188) rotate(5.431)" fill="#bbfff5"/><rect width="77.639" height="3.243" transform="translate(407.024 159.959) rotate(5.431)" fill="#bbfff5"/><circle cx="11.757" cy="11.757" r="11.757" transform="translate(357.692 137.047)" fill="#f4af40"/><circle cx="11.757" cy="11.757" r="11.757" transform="translate(375.333 138.724)" fill="#f73"/><path d="M495,130.566a14.6,14.6,0,0,0,.822-3.866c.282-1.85,1.344-4.012,3.218-4.018,1.539-.01,2.65,1.5,3.114,2.963a16.6,16.6,0,0,1,.5,6.029c-.213,3.623-.713,7.223-1.213,10.822a51.016,51.016,0,0,1-1.89,9.241c-.621,1.826-1.632,3.746-3.449,4.4a4.739,4.739,0,0,1-4.134-.665,10.194,10.194,0,0,1-2.892-3.212,24.182,24.182,0,0,1-2.906-6.858c-.734-2.91-.87-6.131.549-8.767C488.365,133.556,491.728,131.886,495,130.566Z" fill="#f7b05c"/><path d="M244.936,213.128,244.9,226.08h.292l6.25.018.036-12.953a11.817,11.817,0,0,1,11.838-11.771l11.65.032a11.819,11.819,0,0,1,11.772,11.838L286.7,226.2l6.327.018h.214l.037-12.953a18.369,18.369,0,0,0-18.3-18.4l-11.65-.032A18.368,18.368,0,0,0,244.936,213.128Z" fill="#208c84"/><path d="M236.587,232.8l-.137,49.075a6.739,6.739,0,0,0,6.719,6.756l5.709.016a6.74,6.74,0,0,1-6.719-6.757l.137-49.074a6.74,6.74,0,0,1,6.757-6.719l-5.709-.016A6.744,6.744,0,0,0,236.587,232.8Z" fill="#208c84"/><path d="M249.053,226.1l41.51.11,6.327.018a6.737,6.737,0,0,1,6.684,6.756l-.137,49.081a6.737,6.737,0,0,1-6.757,6.719l-47.8-.134a6.74,6.74,0,0,1-6.719-6.757l.137-49.074A6.74,6.74,0,0,1,249.053,226.1Zm26.75,51.118,4,.011a2.6,2.6,0,0,0,2.755-2.894l-3.847-21.3a.089.089,0,0,1,.06-.1,8.2,8.2,0,0,0,5.718-7.513v-.1c.013-4.508-4.092-8.213-9.123-8.227a10.041,10.041,0,0,0-2.005.2,9.422,9.422,0,0,0-4.455,2.194,7.778,7.778,0,0,0-2.7,5.785v.1a8.02,8.02,0,0,0,4.542,7.048v.006l-6.1,22a2.3,2.3,0,0,0,2.407,2.767Z" fill="#38b2ac"/><path d="M248.8,213.139l-.036,12.952h.291l6.25.018.036-12.953a11.819,11.819,0,0,1,11.838-11.772l11.65.033A11.819,11.819,0,0,1,290.6,213.256l-.036,12.952,6.327.018h.215l.036-12.952a18.369,18.369,0,0,0-18.295-18.4l-11.651-.032A18.367,18.367,0,0,0,248.8,213.139Z" fill="#38b2ac"/><path d="M264.648,274.425a2.3,2.3,0,0,0,2.407,2.767l8.748.024a2.6,2.6,0,0,0,2.755-2.894l-3.853-21.3a.093.093,0,0,1,.065-.1,8.2,8.2,0,0,0,5.718-7.513v-.1c.011-3.9-3.049-7.186-7.126-8.018a9.422,9.422,0,0,0-4.455,2.194,7.778,7.778,0,0,0-2.7,5.785v.1a8.02,8.02,0,0,0,4.542,7.048v.006Z" fill="#272742"/><path d="M274.77,252.926a.093.093,0,0,0-.065.1l3.853,21.3a2.6,2.6,0,0,1-2.755,2.894l4,.011a2.6,2.6,0,0,0,2.755-2.894l-3.847-21.3a.089.089,0,0,1,.06-.1,8.2,8.2,0,0,0,5.718-7.513v-.1c.013-4.508-4.092-8.213-9.123-8.227a10.041,10.041,0,0,0-2.005.2c4.077.832,7.137,4.123,7.126,8.018v.1A8.2,8.2,0,0,1,274.77,252.926Z" fill="#208c84"/><path d="M461.605,252.992s-.622-.832-1.869-2.5a23.038,23.038,0,0,1-2.938-5.121,15.391,15.391,0,0,1-1.188-5.045l7.082-2.1a16.452,16.452,0,0,0,1.812,6.209,15.691,15.691,0,0,0,4.052,4.9q3.172,2.571,5.8,2.677a5.4,5.4,0,0,0,4.542-2.26l.019-.024a4.856,4.856,0,0,0,1.253-3.1,5.858,5.858,0,0,0-.873-2.969,26.078,26.078,0,0,0-2.48-3.35.337.337,0,0,0-.091-.114.552.552,0,0,1-.116-.133,2.213,2.213,0,0,0-.179-.206,1.964,1.964,0,0,1-.18-.206,42.38,42.38,0,0,1-4.344-5.8,10.07,10.07,0,0,1-1.32-5.711q.144-3.245,3.177-6.987l.02-.024a14.845,14.845,0,0,1,6.1-4.737,11.149,11.149,0,0,1,6.939-.317,20.252,20.252,0,0,1,7.542,4.093,20.851,20.851,0,0,1,3.167,3.206,22.581,22.581,0,0,1,2.527,3.969,26.924,26.924,0,0,1,1.782,4.565l-6.865,2.437a19.814,19.814,0,0,0-2.072-4.96,13.617,13.617,0,0,0-3.079-3.616,9.427,9.427,0,0,0-5.4-2.458,5.113,5.113,0,0,0-4.277,2.135l-.019.023a4.959,4.959,0,0,0-1.293,3.355,6.447,6.447,0,0,0,1.02,3.166,41.253,41.253,0,0,0,2.812,3.82.449.449,0,0,1,.115.133.471.471,0,0,0,.116.134l.206.248c.07.082.138.165.207.247a32.358,32.358,0,0,1,3.745,5.636,10.294,10.294,0,0,1,.972,5.689,12.778,12.778,0,0,1-3.139,6.637l-.039.048a13.819,13.819,0,0,1-6.055,4.555,11.345,11.345,0,0,1-7.028.125,22.148,22.148,0,0,1-7.747-4.318Zm32.288-39.685,5.853,4.744-4.463,5.505-5.852-4.744Zm-30.667,37.837,5.852,4.744-4.716,5.819-5.853-4.744Z" fill="#f73"/><path d="M466.657,209.647l-1.682.466a12.938,12.938,0,0,1-3.269.488,8.643,8.643,0,0,1-2.872-.409l.348-4.12a9.221,9.221,0,0,0,3.606.321,8.792,8.792,0,0,0,3.383-1.113,5.737,5.737,0,0,0,2.577-2.476,3.023,3.023,0,0,0-.252-2.828l-.009-.015a2.72,2.72,0,0,0-1.363-1.286,3.289,3.289,0,0,0-1.726-.15,14.553,14.553,0,0,0-2.252.61.2.2,0,0,0-.078.024.291.291,0,0,1-.093.033,1.324,1.324,0,0,0-.144.052,1.142,1.142,0,0,1-.144.052,23.756,23.756,0,0,1-3.909,1.082,5.63,5.63,0,0,1-3.246-.476,6.888,6.888,0,0,1-3-3.08l-.009-.015a8.307,8.307,0,0,1-1.226-4.146,6.234,6.234,0,0,1,1.249-3.682,11.334,11.334,0,0,1,3.671-3.1,11.608,11.608,0,0,1,2.317-1,12.635,12.635,0,0,1,2.584-.509,15.051,15.051,0,0,1,2.743,0l-.129,4.075a11.094,11.094,0,0,0-3.008.069,7.622,7.622,0,0,0-2.512.868,5.274,5.274,0,0,0-2.383,2.316,2.863,2.863,0,0,0,.241,2.665l.009.015a2.771,2.771,0,0,0,1.485,1.357,3.612,3.612,0,0,0,1.858.114,23.2,23.2,0,0,0,2.564-.688.263.263,0,0,1,.094-.032.27.27,0,0,0,.093-.034l.171-.057.171-.057a18.171,18.171,0,0,1,3.7-.8,5.766,5.766,0,0,1,3.164.653,7.159,7.159,0,0,1,2.821,2.989l.017.031a7.729,7.729,0,0,1,1.14,4.084,6.353,6.353,0,0,1-1.367,3.69,12.4,12.4,0,0,1-3.83,3.158Zm-14.108-24.92,3.666-2.084,1.96,3.448-3.665,2.084Zm13.475,23.7,3.665-2.084,2.073,3.644-3.666,2.085Z" fill="#ff5331"/><path d="M236.12,172.293a22.151,22.151,0,0,1-7.747,4.319,11.359,11.359,0,0,1-7.028-.125,13.845,13.845,0,0,1-6.055-4.555l-.039-.048a12.784,12.784,0,0,1-3.139-6.638,10.3,10.3,0,0,1,.972-5.689,32.374,32.374,0,0,1,3.745-5.635l.207-.248.206-.248a.481.481,0,0,0,.116-.133.467.467,0,0,1,.115-.134,41.254,41.254,0,0,0,2.812-3.82,6.444,6.444,0,0,0,1.02-3.166,4.955,4.955,0,0,0-1.293-3.354l-.019-.024a5.113,5.113,0,0,0-4.277-2.135,9.423,9.423,0,0,0-5.4,2.459,13.6,13.6,0,0,0-3.079,3.616,19.793,19.793,0,0,0-2.072,4.959l-6.864-2.437a26.827,26.827,0,0,1,1.781-4.564,22.553,22.553,0,0,1,2.527-3.97,20.9,20.9,0,0,1,3.167-3.206,20.234,20.234,0,0,1,7.542-4.092,11.152,11.152,0,0,1,6.94.316,14.858,14.858,0,0,1,6.1,4.737l.02.025q3.033,3.742,3.177,6.987a10.067,10.067,0,0,1-1.32,5.71,42.381,42.381,0,0,1-4.344,5.8,2.065,2.065,0,0,1-.179.205,2.087,2.087,0,0,0-.18.206.578.578,0,0,1-.115.134.326.326,0,0,0-.092.113,26.009,26.009,0,0,0-2.48,3.351,5.856,5.856,0,0,0-.873,2.969,4.859,4.859,0,0,0,1.253,3.105l.019.024a5.4,5.4,0,0,0,4.542,2.26q2.625-.106,5.8-2.678a15.687,15.687,0,0,0,4.052-4.9,16.461,16.461,0,0,0,1.812-6.21l7.082,2.1a15.379,15.379,0,0,1-1.188,5.044,23.023,23.023,0,0,1-2.938,5.122l-1.869,2.495ZM210.7,136.161l-5.852,4.743L200.39,135.4l5.852-4.744Zm30.922,38.151-5.852,4.743-4.717-5.819,5.853-4.744Z" fill="#f73"/><path d="M231.969,126.137a12.39,12.39,0,0,1-3.83-3.158,6.35,6.35,0,0,1-1.367-3.689,7.751,7.751,0,0,1,1.14-4.085l.018-.03a7.155,7.155,0,0,1,2.82-2.99,5.765,5.765,0,0,1,3.164-.652,18.081,18.081,0,0,1,3.7.8l.171.058.171.057a.267.267,0,0,0,.093.033.247.247,0,0,1,.094.033,22.932,22.932,0,0,0,2.564.687,3.6,3.6,0,0,0,1.858-.114,2.773,2.773,0,0,0,1.486-1.357l.008-.015a2.861,2.861,0,0,0,.241-2.664,5.274,5.274,0,0,0-2.383-2.316,7.622,7.622,0,0,0-2.512-.868,11.052,11.052,0,0,0-3.008-.07l-.128-4.075a15.039,15.039,0,0,1,2.742,0,12.622,12.622,0,0,1,2.584.509,11.665,11.665,0,0,1,2.317,1,11.346,11.346,0,0,1,3.671,3.1,6.239,6.239,0,0,1,1.249,3.682,8.3,8.3,0,0,1-1.226,4.146l-.009.015a6.891,6.891,0,0,1-3,3.081,5.635,5.635,0,0,1-3.245.475,23.634,23.634,0,0,1-3.91-1.082,1,1,0,0,1-.144-.052,1.132,1.132,0,0,0-.144-.051.348.348,0,0,1-.093-.033.183.183,0,0,0-.078-.025,14.667,14.667,0,0,0-2.252-.61,3.289,3.289,0,0,0-1.726.15,2.72,2.72,0,0,0-1.363,1.286l-.008.015a3.021,3.021,0,0,0-.253,2.828,5.737,5.737,0,0,0,2.577,2.476,8.775,8.775,0,0,0,3.383,1.113,9.2,9.2,0,0,0,3.606-.321l.348,4.12a8.592,8.592,0,0,1-2.872.409,12.892,12.892,0,0,1-3.269-.488L233.478,127Zm13.656-20.613-3.665-2.085,1.96-3.448,3.666,2.084Zm-13.586,23.9-3.666-2.084,2.073-3.645,3.665,2.084Z" fill="#ff5331"/></g></svg>