<svg xmlns="http://www.w3.org/2000/svg" width="457.772" height="395.524" viewBox="0 0 457.772 395.524"><g transform="translate(-286 -371)"><g transform="translate(265.092 315.524)"><path d="M317.093,100.864a5.174,5.174,0,0,1-5.146,5.153H201.8a5.152,5.152,0,0,1,0-10.3h5.206a13.426,13.426,0,0,1,21.851-4.16,18.651,18.651,0,0,1,21.489-8.4,21.318,21.318,0,0,1,39.377,4.3,13.427,13.427,0,0,1,18.9,8.254h3.316a5.165,5.165,0,0,1,5.154,5.158Z" fill="#cae6fe"/><path d="M163.654,81.354a3.805,3.805,0,0,1-3.785,3.789h-81a3.783,3.783,0,0,1-2.67-6.464,3.742,3.742,0,0,1,2.67-1.114H82.7a9.875,9.875,0,0,1,16.07-3.06,13.715,13.715,0,0,1,15.8-6.175,15.677,15.677,0,0,1,28.958,3.164,9.876,9.876,0,0,1,13.9,6.071h2.438A3.8,3.8,0,0,1,163.654,81.354Z" fill="#cae6fe"/><path d="M437.9,76.831a3.8,3.8,0,0,1-3.784,3.789h-81a3.783,3.783,0,0,1-2.671-6.464,3.743,3.743,0,0,1,2.671-1.115h3.828a9.875,9.875,0,0,1,16.07-3.059,13.715,13.715,0,0,1,15.8-6.175,15.677,15.677,0,0,1,28.958,3.164,9.874,9.874,0,0,1,13.9,6.07h2.439a3.8,3.8,0,0,1,3.789,3.79Z" fill="#cae6fe"/><path d="M453.855,244.95a15.392,15.392,0,0,0-3.955,1.373l-4.2-4.666-5.113,4.608,4.026,4.466a15.325,15.325,0,0,0-2.183,3.959l-7.024-.365-.358,6.873,6.48.336a15.392,15.392,0,0,0,1.61,5.591l-4.666,4.206,4.607,5.113,4.467-4.026a15.341,15.341,0,0,0,4.758,2.448l-.3,5.828,6.873.357.292-5.63a15.394,15.394,0,0,0,5.808-2.1L469,277.787l5.113-4.607-4.206-4.666a15.347,15.347,0,0,0,1.776-3.791l6.638.346.358-6.874-6.441-.334a15.4,15.4,0,0,0-2.1-5.807l4.466-4.025L470,242.917l-4.666,4.2a15.444,15.444,0,0,0-4.591-2.015l.335-6.44L454.2,238.3Zm7.749,10.936a6.308,6.308,0,1,1-8.909-.464,6.308,6.308,0,0,1,8.909.464Z" fill="#cae6fe"/><path d="M69.684,159.433a15.392,15.392,0,0,0-3.955,1.373l-4.2-4.666-5.113,4.608,4.026,4.466a15.323,15.323,0,0,0-2.183,3.959l-7.023-.364-.359,6.873,6.48.336a15.4,15.4,0,0,0,1.61,5.591l-4.667,4.2,4.607,5.113L63.37,186.9a15.339,15.339,0,0,0,4.758,2.447l-.3,5.828,6.873.357.292-5.629a15.407,15.407,0,0,0,5.808-2.1l4.024,4.466,5.113-4.607L85.729,183a15.331,15.331,0,0,0,1.771-3.79l6.638.346.358-6.873-6.441-.335a15.407,15.407,0,0,0-2.1-5.807l4.466-4.024-4.6-5.117-4.666,4.2a15.469,15.469,0,0,0-4.591-2.015l.335-6.439-6.873-.359Zm7.749,10.936a6.308,6.308,0,1,1-8.909-.464A6.308,6.308,0,0,1,77.433,170.369Z" fill="#cae6fe"/><path d="M446.452,215.118a8.378,8.378,0,0,0-2.161.75l-2.3-2.55-2.794,2.518,2.2,2.441a8.333,8.333,0,0,0-1.193,2.164l-3.839-.2-.2,3.756,3.542.184a8.4,8.4,0,0,0,.88,3.055l-2.55,2.3,2.517,2.794,2.441-2.2a8.376,8.376,0,0,0,2.6,1.338l-.166,3.185,3.756.2.16-3.077a8.411,8.411,0,0,0,3.174-1.145l2.2,2.44,2.794-2.517-2.3-2.55a8.429,8.429,0,0,0,.971-2.072l3.627.189.2-3.757-3.52-.182A8.43,8.43,0,0,0,455.349,219l2.441-2.2-2.518-2.795-2.55,2.3a8.427,8.427,0,0,0-2.509-1.1l.184-3.519-3.757-.2Zm4.235,5.976a3.447,3.447,0,1,1-4.868-.253,3.447,3.447,0,0,1,4.868.253Z" fill="#cae6fe"/><path d="M44.312,204.68a8.378,8.378,0,0,0-2.161.75l-2.3-2.55-2.792,2.52,2.2,2.44A8.365,8.365,0,0,0,38.066,210l-3.839-.2-.2,3.756,3.541.184a8.424,8.424,0,0,0,.881,3.055l-2.55,2.3,2.517,2.794,2.441-2.2a8.418,8.418,0,0,0,2.6,1.338l-.166,3.185,3.756.2.16-3.077a8.445,8.445,0,0,0,3.174-1.145l2.2,2.44,2.794-2.518-2.3-2.55a8.355,8.355,0,0,0,.97-2.072l3.628.189.2-3.756-3.52-.183a8.431,8.431,0,0,0-1.146-3.173l2.441-2.2-2.518-2.795-2.55,2.3a8.427,8.427,0,0,0-2.509-1.1l.183-3.519-3.756-.2Zm4.235,5.976a3.447,3.447,0,1,1-4.869-.254,3.447,3.447,0,0,1,4.869.254Z" fill="#cae6fe"/><ellipse cx="219.382" cy="16.262" rx="219.382" ry="16.262" transform="translate(20.908 418.476)" fill="#cae6fe"/><path d="M386.874,214.619a5.919,5.919,0,1,1-5.92-5.92A5.919,5.919,0,0,1,386.874,214.619Zm-1.857,0a4.063,4.063,0,1,0-4.063,4.063,4.063,4.063,0,0,0,4.063-4.063Z" fill="#007ce6"/><path d="M412.952,197.333a5.92,5.92,0,1,1-5.92-5.92A5.92,5.92,0,0,1,412.952,197.333Zm-1.857,0a5.169,5.169,0,1,0,.005,0Z" fill="#61b3ff"/><path d="M409.646,174.994a.928.928,0,0,0-.928.929v4.1a.929.929,0,0,0,1.857,0v-4.1a.929.929,0,0,0-.929-.929Z" fill="#007ce6"/><path d="M409.646,167.828a.928.928,0,0,0-.928.929v4.1a.929.929,0,0,0,1.857,0v-4.1A.929.929,0,0,0,409.646,167.828Z" fill="#007ce6"/><path d="M415.394,173.459h-3.679a.928.928,0,1,0,0,1.857h3.679a.928.928,0,1,0,0-1.857Z" fill="#007ce6"/><path d="M407.577,173.459H403.9a.928.928,0,1,0,0,1.857h3.679a.928.928,0,1,0,0-1.857Z" fill="#007ce6"/><path d="M377.579,190.452a.929.929,0,0,0-.929.929v4.1a.929.929,0,1,0,1.858,0v-4.1a.929.929,0,0,0-.929-.929Z" fill="#61c2ff"/><path d="M377.579,183.286a.929.929,0,0,0-.929.929v4.1a.929.929,0,1,0,1.858,0v-4.1a.929.929,0,0,0-.929-.929Z" fill="#61c2ff"/><path d="M383.327,188.917h-3.679a.928.928,0,0,0,0,1.857h3.679a.928.928,0,1,0,0-1.857Z" fill="#61c2ff"/><path d="M375.51,188.917h-3.679a.928.928,0,0,0,0,1.857h3.679a.928.928,0,1,0,0-1.857Z" fill="#61c2ff"/><path d="M120.418,111.941a5.92,5.92,0,1,1,5.919-5.92,5.92,5.92,0,0,1-5.919,5.92Zm0-1.857a4.063,4.063,0,1,0-4.063-4.063,4.063,4.063,0,0,0,4.063,4.063Z" fill="#007ce6"/><path d="M137.344,131.495a5.919,5.919,0,1,1,5.919-5.919A5.919,5.919,0,0,1,137.344,131.495Zm0-1.857a4.063,4.063,0,1,0-4.063-4.063,4.063,4.063,0,0,0,4.063,4.063Z" fill="#61b3ff"/><path d="M152.412,101.72a.928.928,0,0,0-.928-.929h-4.1a.929.929,0,1,0,0,1.858h4.1a.928.928,0,0,0,.928-.929Z" fill="#007ce6"/><path d="M159.579,101.72a.929.929,0,0,0-.929-.929h-4.1a.929.929,0,1,0,0,1.858h4.1A.929.929,0,0,0,159.579,101.72Z" fill="#007ce6"/><path d="M153.948,107.468v-3.679a.928.928,0,1,0-1.857,0v3.679a.928.928,0,0,0,1.857,0Z" fill="#007ce6"/><path d="M153.948,99.65V95.972a.928.928,0,1,0-1.857,0V99.65a.928.928,0,1,0,1.857,0Z" fill="#007ce6"/><path d="M105.909,136.314a.929.929,0,0,0-.929-.928h-4.094a.928.928,0,1,0,0,1.857h4.094a.929.929,0,0,0,.929-.929Z" fill="#61c2ff"/><path d="M113.075,136.314a.928.928,0,0,0-.928-.928h-4.1a.928.928,0,1,0,0,1.857h4.1a.928.928,0,0,0,.928-.929Z" fill="#61c2ff"/><path d="M107.445,142.062v-3.678a.929.929,0,1,0-1.857,0v3.678a.929.929,0,1,0,1.857,0Z" fill="#61c2ff"/><path d="M107.445,134.245v-3.679a.929.929,0,0,0-1.857,0v3.679a.929.929,0,1,0,1.857,0Z" fill="#61c2ff"/><path d="M327.071,157.907l2.364,1.4,1.255.743,3.553,2.1s67.193-33.617,58.613-64.321c-2.641-9.452-16.363-11.916-30.211,14.7C349.808,137.211,327.071,157.907,327.071,157.907Z" fill="#abd3f2"/><path d="M329.435,159.308l1.255.743c14.112-9.549,26.091-21.866,33.919-30.887a204.634,204.634,0,0,0,14.968-19.306.659.659,0,0,0-1.1-.725A203.4,203.4,0,0,1,363.6,128.316C355.731,137.381,343.648,149.795,329.435,159.308Z" fill="#90c3ef"/><path d="M314.769,165.88l2.236,3.069,1.186,1.627,3.361,4.61s103.63-5.989,109.5-49.641c1.807-13.439-14.262-24.056-46.368,2.169C354.923,152.023,314.769,165.88,314.769,165.88Z" fill="#cae6fe"/><path d="M317.005,168.949l1.186,1.627c23.124-4.415,45.051-13.51,59.91-20.687a282.463,282.463,0,0,0,29.536-16.333.91.91,0,0,0-1-1.52,281.036,281.036,0,0,1-29.355,16.226C362.348,155.472,340.236,164.632,317.005,168.949Z" fill="#abd3f2"/><path d="M189.307,384.381l-2.373,1.387-1.259.735-3.565,2.083s-66.988-34.024-58.222-64.676c2.7-9.436,16.434-11.817,30.121,14.886C166.7,363.548,189.307,384.381,189.307,384.381Z" fill="#abd3f2"/><path d="M186.934,385.768l-1.259.735c-14.054-9.634-25.957-22.024-33.73-31.092a204.536,204.536,0,0,1-14.851-19.4.658.658,0,0,1,1.1-.718A203.664,203.664,0,0,0,152.96,354.57C160.772,363.682,172.78,376.168,186.934,385.768Z" fill="#90c3ef"/><path d="M201.561,392.429l-2.255,3.055-1.2,1.62-3.389,4.589s-103.592-6.617-109.2-50.3c-1.726-13.449,14.407-23.969,46.354,2.45C161.491,378.329,201.561,392.429,201.561,392.429Z" fill="#cae6fe"/><path d="M199.306,395.484l-1.2,1.62c-23.1-4.556-44.968-13.783-59.783-21.05a282.737,282.737,0,0,1-29.437-16.512.91.91,0,1,1,1.011-1.514,281.092,281.092,0,0,0,29.256,16.4C154.046,381.733,176.1,391.026,199.306,395.484Z" fill="#abd3f2"/><path d="M328.25,341.8c13.1-16.856,25.782-35.237,32.751-48.4,9.1-17.2,12.752-30.977,10.844-40.966a1.222,1.222,0,1,0-2.4.458c3.335,17.461-11.868,48.048-43.98,88.525Z" fill="#abd3f2"/><path d="M367.838,277.394s8.467,5.693,17.9-9.585C385.734,267.809,370.3,262.77,367.838,277.394Z" fill="#cae6fe"/><path d="M363.385,285.522s6.156-8.137-8.573-18.4C354.812,267.121,348.921,282.248,363.385,285.522Z" fill="#cae6fe"/><path d="M370.991,260.3s8.516-5.619-1.949-20.206C369.042,240.093,358.445,252.392,370.991,260.3Z" fill="#cae6fe"/><path d="M354.93,302.149s6.042,8.222,20.083-2.966C375.013,299.183,362.2,289.221,354.93,302.149Z" fill="#cae6fe"/><path d="M349.14,309.743s7.47-6.95-5.263-19.607C343.877,290.136,335.46,304.018,349.14,309.743Z" fill="#cae6fe"/><path d="M342.244,320.927s5.886,8.335,20.135-2.585C362.379,318.342,349.753,308.139,342.244,320.927Z" fill="#cae6fe"/><path d="M182.761,236.782c-17.329-12.464-34.7-26.507-45.1-37.16-13.6-13.918-20.993-26.106-21.988-36.226a1.221,1.221,0,1,1,2.43-.239c1.74,17.691,24.972,42.729,67.221,72.472Z" fill="#abd3f2"/><path d="M126.575,186.205s-6.511,7.856-19.875-4.132C106.7,182.073,120.077,172.875,126.575,186.205Z" fill="#cae6fe"/><path d="M133.145,192.742s-8.205-6.064,3.02-20.075C136.165,172.667,146.093,185.512,133.145,192.742Z" fill="#cae6fe"/><path d="M118.717,170.7s-9.758-2.981-3.846-19.932C114.871,150.768,128.513,159.567,118.717,170.7Z" fill="#cae6fe"/><path d="M145.958,206.3s-3.471,9.6-20.1,2.834C125.856,209.134,135.333,195.954,145.958,206.3Z" fill="#cae6fe"/><path d="M153.659,211.945s-9.131-4.553-.5-20.294C153.162,191.651,165.161,202.585,153.659,211.945Z" fill="#cae6fe"/><path d="M163.436,220.723s-3.287,9.659-20.044,3.215C143.392,223.938,152.618,210.58,163.436,220.723Z" fill="#cae6fe"/><path d="M348.209,132.227V417.56a16.191,16.191,0,0,1-16.2,16.193H189.926a16.188,16.188,0,0,1-16.193-16.193V132.227a16.191,16.191,0,0,1,16.2-16.193H332.016a16.184,16.184,0,0,1,16.193,16.193Z" fill="#3b3e7d"/><path d="M342.177,132.227V417.56a16.191,16.191,0,0,1-16.2,16.193H183.894A16.188,16.188,0,0,1,167.7,417.56V132.227a16.191,16.191,0,0,1,16.2-16.193H325.983a16.184,16.184,0,0,1,16.193,16.193Z" fill="#18285d"/><path d="M3.784,0H6.025V25.769H3.784A3.784,3.784,0,0,1,0,21.985V3.784A3.784,3.784,0,0,1,3.784,0Z" transform="translate(351.272 186.21) rotate(180)" fill="#18285d"/><path d="M2.965,0H4.721V25.769H2.965A2.965,2.965,0,0,1,0,22.8V2.965A2.965,2.965,0,0,1,2.965,0Z" transform="translate(162.98 160.441)" fill="#18285d"/><path d="M2.965,0H4.721V25.769H2.965A2.965,2.965,0,0,1,0,22.8V2.965A2.965,2.965,0,0,1,2.965,0Z" transform="translate(162.98 194.247)" fill="#18285d"/><path d="M334.1,131.245V418.536a7.13,7.13,0,0,1-7.134,7.134H182.914a7.123,7.123,0,0,1-7.134-7.134V131.245a7.136,7.136,0,0,1,7.134-7.134H326.963a7.136,7.136,0,0,1,1.367.13,7.02,7.02,0,0,1,1.436.438A7.174,7.174,0,0,1,334,130.073a6.86,6.86,0,0,1,.1,1.172Z" fill="#fff"/><path d="M298.388,372.825V398.6a3.3,3.3,0,0,1-3.421,3.163H218.679a3.3,3.3,0,0,1-3.421-3.163V372.825a3.3,3.3,0,0,1,3.421-3.162h76.288A3.3,3.3,0,0,1,298.388,372.825Z" transform="translate(-0.35 -0.185)" fill="#007ce6"/><path d="M7.092-12.6H1.026V0H5.274V-3.1H7.092c3.51,0,5.742-1.836,5.742-4.752S10.6-12.6,7.092-12.6Zm-.27,6.228H5.274V-9.324H6.822c1.17,0,1.728.558,1.728,1.476S7.992-6.372,6.822-6.372ZM23.022,0h4.392L21.906-12.6H17.73L12.222,0h4.32l.846-2.2h4.788ZM18.558-5.256l1.224-3.168,1.224,3.168ZM39.528-12.6h-4.1L32.832-8.244,30.258-12.6H25.776l4.752,7.974V0h4.248V-4.572Zm6.606,0H40.068V0h4.248V-3.1h1.818c3.51,0,5.742-1.836,5.742-4.752S49.644-12.6,46.134-12.6Zm-.27,6.228H44.316V-9.324h1.548c1.17,0,1.728.558,1.728,1.476S47.034-6.372,45.864-6.372ZM53.262,0H63.2V-3.294H57.51V-12.6H53.262ZM68.544-3.2V-4.86h5.328V-7.92H68.544V-9.4H74.61v-3.2H64.368V0H74.844V-3.2Z" transform="translate(218.908 391.476)" fill="#005ec9"/><rect width="72.074" height="127.529" transform="translate(176.234 212.73)" fill="#e9e2e8"/><path d="M270.774,202.8V335.317a13.945,13.945,0,0,1-9.52,13.187,13.786,13.786,0,0,1-4.379.712,13.938,13.938,0,0,1-13.9-13.9V202.8a13.938,13.938,0,0,1,13.9-13.9,13.786,13.786,0,0,1,4.379.712,13.958,13.958,0,0,1,9.52,13.187Z" fill="#18285d"/><path d="M270.774,202.8V335.317a13.945,13.945,0,0,1-9.52,13.187,13.947,13.947,0,0,1-9.52-13.187V202.8a13.947,13.947,0,0,1,9.52-13.187,13.958,13.958,0,0,1,9.52,13.187Z" fill="#3b3e7d"/><path d="M334.1,131.245V160.79H175.78V131.245a7.136,7.136,0,0,1,7.134-7.134H326.963a7.136,7.136,0,0,1,1.367.13,7.02,7.02,0,0,1,1.436.438A7.174,7.174,0,0,1,334,130.073a6.86,6.86,0,0,1,.1,1.172Z" fill="#e9e2e8"/><path d="M171.734,161.776l-.049.052.01,9.878a14.847,14.847,0,0,1-29.6,1.659,14.2,14.2,0,0,1-.094-1.659v-9.683l36.249-36.249a5.675,5.675,0,0,1,4.014-1.663h26.522Z" fill="#007ce6"/><path d="M171.685,161.828l.01,9.878a14.847,14.847,0,0,1-29.6,1.659L142,162.023l29.735-.247Z" fill="#005ec9"/><path d="M268.175,124.111l-37.09,37.09v10.5a14.85,14.85,0,0,1-29.7,0l-.009-10.174,37.09-37.421Z" fill="#007ce6"/><path d="M231.085,161.288v10.418a14.85,14.85,0,0,1-29.7,0l-.009-10.174Z" fill="#005ec9"/><path d="M291.361,160.79l.01,10.916a14.852,14.852,0,0,1-14.848,14.848c-8.2,0-15.751-6.649-15.751-14.848l.063-10.5.159-.16,36.868-36.93h30.6Z" fill="#007ce6"/><path d="M291.371,171.706a14.852,14.852,0,0,1-14.848,14.848c-8.2,0-15.751-6.649-15.751-14.848l.063-10.5.159-.16,30.367-.251Z" fill="#005ec9"/><path d="M321.054,160.544h0V171.7a14.85,14.85,0,1,1-29.7,0V160.79l36.969-36.549a7.02,7.02,0,0,1,1.436.438A7.174,7.174,0,0,1,334,130.073a6.86,6.86,0,0,1,.1,1.172v16.488Z" fill="#fff"/><path d="M321.057,171.706a14.85,14.85,0,1,1-29.7,0V160.79l29.694-.244Z" fill="#e9e2e8"/><path d="M238.471,124.111l-37.09,37.421v10.174a14.85,14.85,0,0,1-29.7,0v-9.878l.049-.052,37.05-37.665Z" fill="#fff"/><path d="M201.381,161.532v10.174a14.85,14.85,0,0,1-29.7,0v-9.878l.049-.052Z" fill="#e9e2e8"/><path d="M297.862,124.111l-37.09,37.09v10.5a14.85,14.85,0,0,1-29.7,0V161.2l37.1-37.09Z" fill="#fff"/><path d="M260.931,161.041l-.159.16v10.5a14.85,14.85,0,0,1-29.7,0V161.288Z" fill="#e9e2e8"/><path d="M264.957,214.318V323.992a8.935,8.935,0,0,1-8.934,8.93H69.771a8.93,8.93,0,0,1-8.93-8.93V214.318a8.931,8.931,0,0,1,8.929-8.93H256.023a8.935,8.935,0,0,1,8.934,8.929Z" fill="#007ce6"/><rect width="204.114" height="24.308" transform="translate(60.841 227.939)" fill="#3b3e7d"/><rect width="48.011" height="16.819" rx="4.242" transform="translate(202.199 299.625)" fill="#009ef3"/><rect width="15.596" height="9.174" rx="1.07" transform="translate(72.687 271.907)" fill="#009ef3"/><rect width="15.596" height="9.174" rx="1.07" transform="translate(100.158 271.907)" fill="#009ef3"/><rect width="15.596" height="9.174" rx="1.07" transform="translate(127.629 271.907)" fill="#009ef3"/><rect width="15.596" height="9.174" rx="1.07" transform="translate(155.101 271.907)" fill="#009ef3"/><rect width="15.596" height="9.174" rx="1.07" transform="translate(182.572 271.907)" fill="#009ef3"/><rect width="15.596" height="9.174" rx="1.07" transform="translate(210.043 271.907)" fill="#009ef3"/><rect width="15.596" height="9.174" rx="1.07" transform="translate(237.514 271.907)" fill="#009ef3"/><rect width="204.114" height="4.66" transform="translate(60.841 215.059)" fill="#009ef3"/><rect width="27.471" height="27.471" rx="6.929" transform="translate(72.687 291.368)" fill="#009ef3"/><rect width="88.933" height="7.568" rx="2.377" transform="translate(106.712 304.251)" fill="#009ef3"/><path d="M189.33,205.388,63.952,330.766a8.914,8.914,0,0,1-3.111-6.774V285.516l80.128-80.128Z" fill="#fff" opacity="0.2"/><path d="M255.642,205.388,128.109,332.922H104.446L231.98,205.388Z" fill="#fff" opacity="0.2"/><path d="M417.1,436.419H399c-2.462,0-4.643-2.789-5.4-6.909l-7.675-41.571c-.314-1.7.36-3.468,1.373-3.606a151.533,151.533,0,0,1,41.514-.006c1.012.141,1.684,1.907,1.371,3.606L422.5,429.51C421.739,433.63,419.557,436.419,417.1,436.419Z" fill="#61b3ff"/><ellipse cx="19.853" cy="2.22" rx="19.853" ry="2.22" transform="translate(388.309 384.198)" fill="#18285d"/><path d="M442.444,331.168c-10.872-2.864-27.482,19.7-32.527,41.7V340.815c2.535-4.5,7.37-11.262,16.148-18.412,13.651-11.118,26.218-25.386,15.327-28.255-10.207-2.688-25.471,17.037-31.475,37.666V290.65a43.565,43.565,0,0,1,9.246-10.065c8.6-7.007,16.523-16,9.659-17.807-5.957-1.569-14.648,8.976-18.9,20.868V270.3a63.329,63.329,0,0,1,4.429-16.048c6.328-13.963,9.746-28.349,1.4-27.279s-13.764,25.94-9.2,45.031v6.866c-3.085-13.971-13.668-28.441-20.576-26.622-6.863,1.808,1.056,10.8,9.66,17.807,6.548,5.334,9.613,10.327,10.916,13.012V315.5c-4.948-22.111-21.677-44.933-32.606-42.054-10.891,2.869,1.676,17.137,15.327,28.255,10.315,8.4,15.186,16.274,17.279,20.556v38.886c-5.288-21.707-21.589-43.613-32.31-40.789-10.891,2.869-1.551,13.3,13.79,25.907a72.442,72.442,0,0,1,18.52,22.534v18.316a5.67,5.67,0,0,0,3.366,0V379.82c2.134-4.316,7.01-12.1,17.2-20.4C440.769,348.3,453.335,334.037,442.444,331.168Z" fill="#007ce6"/><path d="M120.258,429.459v.111a5.4,5.4,0,0,1-2.073,3.907,12.185,12.185,0,0,1-1.093.882,22.231,22.231,0,0,1-4.14,2.275c-.352.153-.718.3-1.092.45-1.263.5-2.648.963-4.14,1.393q-.537.154-1.093.3-1.96.525-4.141.968-.54.111-1.092.214-2,.378-4.14.682c-.361.052-.725.1-1.093.15q-2.016.261-4.139.457-.544.049-1.093.094-2.029.166-4.14.265-.543.025-1.093.047-2.039.077-4.139.089H80.464q-2.1-.006-4.141-.077-.549-.02-1.093-.044-1.553-.067-3.066-.173-.54-.037-1.073-.079c-.367-.029-.73-.059-1.093-.092q-2.121-.186-4.139-.442-.552-.07-1.093-.146-1.285-.177-2.519-.381-.822-.137-1.621-.283-.552-.1-1.093-.21-2.172-.43-4.141-.945c-.258-.067-.514-.136-.768-.2l-.324-.091c-.592-.165-1.169-.338-1.727-.515q-1.268-.4-2.413-.839-.562-.216-1.093-.437a25.172,25.172,0,0,1-3.672-1.868c-.16-.1-.317-.2-.467-.307-.19-.128-.373-.257-.547-.387-.191-.142-.372-.286-.546-.431-1.579-1.316-2.442-2.742-2.442-4.227,0-.105.005-.209.015-.313v-8.417h3.516l4.139-.006h6.329l4.141-.006h1.093l4.14-.006h1.093L70,420.8h1.093l4.139-.005h6.327l4.139-.006h1.093l4.14-.007h1.093l4.139-.007h1.093l4.14-.006h1.092l4.141-.006h1.363l3.87-.006h1.092l4.14-.007h3.151l.015,8.736Z" fill="#009ef3"/><path d="M44.93,420.834v13.781c-.19-.128-.373-.257-.547-.387-.191-.142-.372-.286-.546-.431V420.836Z" fill="#007ce6"/><path d="M50.162,420.826v16.4q-.562-.216-1.093-.437V420.828Z" fill="#007ce6"/><path d="M55.394,420.818v18.059c-.258-.067-.514-.136-.768-.2l-.324-.091V420.82Z" fill="#007ce6"/><path d="M60.628,420.811v19.221q-.552-.1-1.093-.21v-19.01Z" fill="#007ce6"/><path d="M65.861,420.8v20.039q-.552-.07-1.093-.146V420.8Z" fill="#007ce6"/><path d="M71.093,420.8v20.581c-.367-.029-.73-.059-1.093-.092V420.8Z" fill="#007ce6"/><path d="M76.325,420.787v20.885q-.549-.02-1.093-.044V420.79Z" fill="#007ce6"/><path d="M81.559,420.78v20.967H80.466V420.782Z" fill="#007ce6"/><path d="M86.791,420.773v20.838q-.543.025-1.093.047V420.774Z" fill="#007ce6"/><path d="M92.024,420.765v20.487q-.544.049-1.093.094v-20.58Z" fill="#007ce6"/><path d="M97.256,420.757v19.888c-.361.052-.725.1-1.093.15V420.758Z" fill="#007ce6"/><path d="M102.488,420.749v19q-.54.111-1.092.214V420.751Z" fill="#007ce6"/><path d="M107.722,420.741v17.736q-.537.154-1.093.3V420.743Z" fill="#007ce6"/><path d="M112.954,420.734v15.9c-.352.153-.718.3-1.092.45V420.735Z" fill="#007ce6"/><path d="M118.187,420.726v12.751a12.2,12.2,0,0,1-1.093.882V420.727Z" fill="#007ce6"/><path d="M120.251,420.829c0,6.183-17.647,11.2-39.421,11.2-2.975,0-5.873-.094-8.659-.271-3.5-.223-6.832-.579-9.914-1.047-2.752-.418-5.308-.927-7.621-1.511-.706-.179-1.391-.364-2.05-.557a32.947,32.947,0,0,1-7.176-2.891c-.361-.209-.7-.421-1.014-.637-1.925-1.319-2.987-2.766-2.987-4.282a2.636,2.636,0,0,1,.032-.415c.764-5.99,18.108-10.78,39.389-10.78a130.189,130.189,0,0,1,14.806.817q1.324.152,2.6.331a79.862,79.862,0,0,1,10.034,2.01q.972.267,1.878.553a32.712,32.712,0,0,1,5.523,2.243,11.738,11.738,0,0,1,3.545,2.684,4.238,4.238,0,0,1,1,2.142,2.638,2.638,0,0,1,.035.411Z" fill="#61c2ff"/><path d="M119.216,418.272,72.171,431.754c-3.5-.223-6.832-.579-9.914-1.047l53.414-15.119a11.738,11.738,0,0,1,3.545,2.684Z" fill="#fff" opacity="0.3"/><path d="M98.236,410.782,45.41,425.748c-.361-.209-.7-.421-1.014-.637l51.24-14.66Q96.96,410.6,98.236,410.782Z" fill="#fff" opacity="0.3"/><path d="M110.148,413.345,54.636,429.2c-.706-.179-1.391-.364-2.05-.557L108.27,412.8Q109.242,413.059,110.148,413.345Z" fill="#fff" opacity="0.3"/><path d="M112.338,420.83a3.158,3.158,0,0,1-.031.411c-.76,4.744-14.586,8.537-31.477,8.537s-30.716-3.793-31.476-8.537a3.16,3.16,0,0,1-.031-.411c0-4.934,14.134-8.948,31.507-8.948S112.338,415.9,112.338,420.83Z" fill="#007ce6"/><path d="M112.307,421.241c-.76,4.744-14.586,8.537-31.477,8.537-.378,0-.751,0-1.125-.006a102.984,102.984,0,0,1-10.691-.647A70.724,70.724,0,0,1,60,427.538c-.673-.169-1.319-.345-1.943-.53a22.275,22.275,0,0,1-6.59-2.935,7.583,7.583,0,0,1-.958-.809,3.763,3.763,0,0,1-1.156-2.023c.76-4.745,14.586-8.539,31.476-8.539,2.137,0,4.225.061,6.247.177,1.029.059,2.045.132,3.038.22a76.774,76.774,0,0,1,10.947,1.7q1.029.245,1.987.517a27.1,27.1,0,0,1,6.1,2.414,6.727,6.727,0,0,1,2.964,2.842,2.725,2.725,0,0,1,.195.669Z" fill="#009ef3"/><path d="M112.11,420.569l-32.4,9.2a102.976,102.976,0,0,1-10.691-.647l40.132-11.4a6.727,6.727,0,0,1,2.959,2.847Z" fill="#fff" opacity="0.2"/><path d="M90.115,413.1,51.468,424.073a7.58,7.58,0,0,1-.958-.809l36.567-10.385C88.106,412.938,89.122,413.011,90.115,413.1Z" fill="#fff" opacity="0.2"/><path d="M103.049,415.313,60,427.538c-.673-.169-1.319-.345-1.943-.53l43-12.212Q102.091,415.041,103.049,415.313Z" fill="#fff" opacity="0.2"/><path d="M85.212,425.906v1.487h-6.65v-1.42a87.061,87.061,0,0,1-12.12-.937l3.584-2.3a70.978,70.978,0,0,0,10.894.857c3.16,0,4.292-.187,4.292-.509,0-1.178-18.251-.227-18.251-3.723,0-1.513,3.867-2.786,11.6-3.094V414.8h6.65v1.433a77.089,77.089,0,0,1,9.573.777l-3.348,2.29a64.7,64.7,0,0,0-9.2-.7c-3.254,0-4.292.268-4.292.589,0,1.125,18.251.188,18.251,3.643C96.2,424.286,92.522,425.545,85.212,425.906Z" fill="#007ce6"/><path d="M85.018,425.412V426.9H78.369v-1.419a87.014,87.014,0,0,1-12.12-.938l3.584-2.3a70.825,70.825,0,0,0,10.894.858c3.159,0,4.291-.188,4.291-.509,0-1.179-18.251-.228-18.251-3.724,0-1.513,3.867-2.785,11.6-3.093v-1.46h6.649v1.433a76.736,76.736,0,0,1,9.574.777l-3.349,2.29a64.572,64.572,0,0,0-9.2-.7c-3.254,0-4.291.268-4.291.59,0,1.125,18.251.187,18.251,3.643C96.007,423.791,92.328,425.05,85.018,425.412Z" fill="#61c2ff"/><path d="M122.736,415.648v.112a5.4,5.4,0,0,1-2.073,3.906,11.887,11.887,0,0,1-1.093.883,22.25,22.25,0,0,1-4.139,2.275q-.529.229-1.093.45c-1.263.5-2.647.963-4.14,1.393-.357.1-.721.2-1.092.3q-1.962.527-4.141.969-.54.111-1.093.214-1.994.378-4.139.682c-.362.052-.726.1-1.093.15q-2.016.261-4.14.457c-.363.032-.726.064-1.093.094q-2.028.166-4.139.265-.544.025-1.093.047-2.04.076-4.14.089H82.943q-2.1,0-4.141-.077c-.367-.012-.73-.027-1.093-.043q-1.552-.067-3.067-.173c-.36-.025-.717-.051-1.073-.08s-.73-.059-1.093-.091q-2.119-.186-4.139-.443-.552-.069-1.093-.145-1.284-.177-2.519-.381-.82-.137-1.62-.283-.552-.1-1.093-.21c-1.448-.287-2.832-.6-4.141-.945-.259-.067-.515-.136-.768-.2l-.325-.091c-.592-.166-1.169-.338-1.726-.515q-1.268-.4-2.414-.839-.561-.216-1.092-.437a25.01,25.01,0,0,1-3.672-1.869c-.16-.1-.317-.2-.468-.306q-.285-.192-.546-.388c-.192-.142-.373-.286-.547-.431-1.579-1.315-2.441-2.741-2.441-4.226a2.334,2.334,0,0,1,.014-.313V407.03H47.4l4.14-.006h1.092l3.231-.005h2L62.013,407h1.093l4.139-.007h1.093l4.139-.007H78.8l4.141-.005h1.092l4.14-.005h1.093l4.139-.006H94.5l4.14-.007h1.093l4.139-.006h1.093l4.141-.006h1.362l3.87-.006h1.093l4.139-.007h3.152l.014,8.735Z" fill="#009ef3"/><path d="M47.407,407.024V420.8q-.285-.192-.546-.388c-.192-.142-.373-.286-.547-.431v-12.96Z" fill="#007ce6"/><path d="M52.639,407.016v16.4q-.561-.216-1.092-.437V407.018Z" fill="#007ce6"/><path d="M57.872,407.008v18.059c-.259-.067-.515-.136-.768-.2l-.325-.091V407.01Z" fill="#007ce6"/><path d="M63.106,407v19.221q-.552-.1-1.093-.21V407Z" fill="#007ce6"/><path d="M68.338,406.993v20.038q-.552-.069-1.093-.145V406.994Z" fill="#007ce6"/><path d="M73.57,406.985v20.58q-.549-.042-1.093-.091V406.986Z" fill="#007ce6"/><path d="M78.8,406.977v20.884c-.367-.012-.73-.027-1.093-.043V406.98Z" fill="#007ce6"/><path d="M84.036,406.969v20.968H82.944V406.972Z" fill="#007ce6"/><path d="M89.269,406.962V427.8q-.544.025-1.093.047V406.964Z" fill="#007ce6"/><path d="M94.5,406.955v20.487c-.363.032-.726.064-1.093.094v-20.58Z" fill="#007ce6"/><path d="M99.734,406.947v19.888c-.362.052-.726.1-1.093.15V406.948Z" fill="#007ce6"/><path d="M104.966,406.939v19q-.54.111-1.093.214V406.941Z" fill="#007ce6"/><path d="M110.2,406.931v17.736c-.357.1-.721.2-1.092.3V406.933Z" fill="#007ce6"/><path d="M115.432,406.924v15.9q-.529.229-1.093.45V406.925Z" fill="#007ce6"/><path d="M120.664,406.916v12.75a11.882,11.882,0,0,1-1.093.883V406.917Z" fill="#007ce6"/><path d="M122.728,407.019c0,6.183-17.646,11.2-39.421,11.2-2.974,0-5.872-.094-8.659-.272-3.5-.222-6.831-.578-9.914-1.047-2.752-.418-5.308-.926-7.62-1.511-.707-.178-1.392-.364-2.05-.557a32.949,32.949,0,0,1-7.176-2.89c-.361-.209-.7-.422-1.014-.638-1.926-1.318-2.987-2.765-2.987-4.281a2.761,2.761,0,0,1,.031-.415c.765-5.991,18.108-10.78,39.389-10.78a130.429,130.429,0,0,1,14.806.816q1.325.153,2.6.332a79.648,79.648,0,0,1,10.034,2.01q.972.267,1.878.553a32.674,32.674,0,0,1,5.524,2.243,11.733,11.733,0,0,1,3.544,2.684,4.23,4.23,0,0,1,1,2.142,2.635,2.635,0,0,1,.035.411Z" fill="#61c2ff"/><path d="M121.693,404.462,74.648,417.943c-3.5-.222-6.831-.578-9.914-1.047l53.415-15.118a11.734,11.734,0,0,1,3.544,2.684Z" fill="#fff" opacity="0.3"/><path d="M100.713,396.972,47.888,411.938c-.361-.209-.7-.422-1.014-.638l51.239-14.66Q99.438,396.793,100.713,396.972Z" fill="#fff" opacity="0.3"/><path d="M112.625,399.535l-55.511,15.85c-.707-.178-1.392-.364-2.05-.557l55.683-15.846Q111.719,399.249,112.625,399.535Z" fill="#fff" opacity="0.3"/><path d="M114.815,407.02a3.315,3.315,0,0,1-.03.41c-.761,4.744-14.587,8.538-31.477,8.538s-30.716-3.794-31.477-8.538a3.31,3.31,0,0,1-.03-.41c0-4.935,14.133-8.948,31.507-8.948S114.815,402.085,114.815,407.02Z" fill="#007ce6"/><path d="M114.785,407.43c-.761,4.744-14.587,8.538-31.477,8.538-.378,0-.752,0-1.126-.007a102.722,102.722,0,0,1-10.691-.646,70.849,70.849,0,0,1-9.012-1.587c-.673-.169-1.319-.345-1.943-.53a22.287,22.287,0,0,1-6.59-2.935,7.663,7.663,0,0,1-.959-.809,3.768,3.768,0,0,1-1.156-2.024c.761-4.744,14.587-8.538,31.477-8.538,2.137,0,4.225.061,6.247.177,1.029.059,2.044.132,3.038.22a76.756,76.756,0,0,1,10.946,1.7c.686.163,1.35.335,1.987.516a27.153,27.153,0,0,1,6.1,2.415,6.733,6.733,0,0,1,2.963,2.841,2.711,2.711,0,0,1,.2.669Z" fill="#009ef3"/><path d="M114.587,406.758l-32.4,9.2a102.73,102.73,0,0,1-10.691-.646l40.133-11.4a6.733,6.733,0,0,1,2.958,2.846Z" fill="#fff" opacity="0.2"/><path d="M92.593,399.289,53.946,410.263a7.663,7.663,0,0,1-.959-.809l36.568-10.385C90.584,399.128,91.6,399.2,92.593,399.289Z" fill="#fff" opacity="0.2"/><path d="M105.526,401.5,62.479,413.728c-.673-.169-1.319-.345-1.943-.53l43-12.212Q104.569,401.23,105.526,401.5Z" fill="#fff" opacity="0.2"/><path d="M87.689,412.1v1.487H81.04v-1.42a87.042,87.042,0,0,1-12.12-.937l3.584-2.3a70.958,70.958,0,0,0,10.894.857c3.159,0,4.291-.187,4.291-.509,0-1.178-18.251-.228-18.251-3.723,0-1.514,3.867-2.786,11.6-3.094V401h6.649v1.433a76.911,76.911,0,0,1,9.574.777l-3.348,2.29a64.576,64.576,0,0,0-9.2-.7c-3.254,0-4.291.268-4.291.589,0,1.125,18.251.188,18.251,3.643C98.678,410.475,95,411.735,87.689,412.1Z" fill="#007ce6"/><path d="M87.5,411.6v1.487H80.85v-1.42a87.061,87.061,0,0,1-12.12-.937l3.584-2.3a70.858,70.858,0,0,0,10.894.857c3.16,0,4.292-.187,4.292-.509,0-1.178-18.251-.227-18.251-3.723,0-1.513,3.867-2.786,11.6-3.094V400.5H87.5v1.433a77.089,77.089,0,0,1,9.573.777L93.721,405a64.563,64.563,0,0,0-9.2-.7c-3.254,0-4.292.268-4.292.589,0,1.125,18.251.188,18.251,3.643C98.484,409.981,94.806,411.24,87.5,411.6Z" fill="#61c2ff"/><path d="M122.374,401.838v.111a5.4,5.4,0,0,1-2.073,3.907,12.015,12.015,0,0,1-1.093.882,22.172,22.172,0,0,1-4.14,2.276c-.352.153-.717.3-1.092.45-1.263.5-2.648.962-4.14,1.392-.358.1-.721.206-1.093.3q-1.96.526-4.141.969c-.36.073-.723.145-1.092.214q-2,.378-4.14.682-.542.078-1.093.149-2.016.262-4.139.457l-1.093.1q-2.029.166-4.14.265c-.362.017-.726.033-1.092.046q-2.04.077-4.14.09H82.58q-2.1,0-4.141-.077c-.366-.012-.73-.027-1.092-.043q-1.554-.069-3.067-.173c-.36-.026-.718-.052-1.073-.08s-.73-.059-1.093-.092q-2.121-.184-4.139-.442c-.368-.047-.732-.094-1.093-.145q-1.286-.177-2.519-.381-.822-.137-1.621-.284-.551-.1-1.093-.21-2.172-.43-4.141-.945c-.258-.066-.514-.135-.768-.2-.109-.029-.217-.06-.324-.09-.592-.166-1.169-.338-1.726-.515q-1.269-.4-2.414-.839-.562-.217-1.093-.437a25.063,25.063,0,0,1-3.672-1.869c-.16-.1-.317-.2-.467-.306-.19-.128-.373-.258-.547-.388-.191-.142-.372-.286-.546-.431-1.579-1.316-2.442-2.741-2.442-4.227a2.222,2.222,0,0,1,.015-.313v-8.417H47.04l4.139-.005h1.093l3.231-.005h2l4.141-.006h1.093l4.14-.007h1.093l4.139-.007H73.2l4.14-.006h1.092l4.141-.006h1.093l4.14-.006H88.9l4.14-.006h1.093l4.139-.006H104.6l4.141-.005H110.1l3.87-.005h1.092l4.14-.007h3.154l.015,8.735Z" fill="#009ef3"/><path d="M47.046,393.213V407c-.19-.128-.373-.258-.547-.388-.191-.142-.372-.286-.546-.431v-12.96Z" fill="#007ce6"/><path d="M52.278,393.206v16.4q-.562-.217-1.093-.437V393.208Z" fill="#007ce6"/><path d="M57.51,393.2v18.058c-.258-.066-.514-.135-.768-.2-.109-.029-.217-.06-.324-.09V393.2Z" fill="#007ce6"/><path d="M62.744,393.191v19.22q-.551-.1-1.093-.21V393.192Z" fill="#007ce6"/><path d="M67.977,393.183v20.038c-.368-.047-.732-.094-1.093-.145V393.184Z" fill="#007ce6"/><path d="M73.209,393.175v20.58q-.549-.042-1.093-.092V393.176Z" fill="#007ce6"/><path d="M78.441,393.167v20.884c-.366-.012-.73-.027-1.092-.043V393.169Z" fill="#007ce6"/><path d="M83.675,393.159v20.968H82.582V393.161Z" fill="#007ce6"/><path d="M88.907,393.152v20.839c-.362.017-.726.033-1.092.046V393.153Z" fill="#007ce6"/><path d="M94.14,393.144v20.487l-1.093.1v-20.58Z" fill="#007ce6"/><path d="M99.372,393.136v19.889q-.542.078-1.093.149V393.138Z" fill="#007ce6"/><path d="M104.6,393.128v19c-.36.073-.723.145-1.092.214V393.131Z" fill="#007ce6"/><path d="M109.838,393.12v17.736c-.358.1-.721.206-1.093.3V393.123Z" fill="#007ce6"/><path d="M115.07,393.114v15.9c-.352.153-.717.3-1.092.45V393.115Z" fill="#007ce6"/><path d="M120.3,393.106v12.75a12.008,12.008,0,0,1-1.093.882V393.107Z" fill="#007ce6"/><path d="M122.367,393.209c0,6.183-17.646,11.2-39.421,11.2-2.975,0-5.873-.093-8.659-.271-3.5-.223-6.832-.578-9.914-1.047-2.752-.418-5.308-.927-7.621-1.511-.706-.178-1.391-.364-2.05-.557a32.949,32.949,0,0,1-7.176-2.89c-.361-.209-.7-.422-1.014-.638-1.925-1.319-2.987-2.765-2.987-4.281a2.65,2.65,0,0,1,.032-.416c.764-5.99,18.108-10.779,39.389-10.779a130.414,130.414,0,0,1,14.806.816q1.325.153,2.6.331a80.038,80.038,0,0,1,10.034,2.01q.972.269,1.878.554a32.714,32.714,0,0,1,5.523,2.242,11.739,11.739,0,0,1,3.545,2.685,4.231,4.231,0,0,1,1,2.141,2.648,2.648,0,0,1,.035.416Z" fill="#61c2ff"/><path d="M121.332,390.652,74.287,404.133c-3.5-.223-6.832-.578-9.914-1.047l53.414-15.119A11.74,11.74,0,0,1,121.332,390.652Z" fill="#fff" opacity="0.3"/><path d="M100.352,383.161,47.526,398.128c-.361-.209-.7-.422-1.014-.638l51.24-14.66Q99.077,382.983,100.352,383.161Z" fill="#fff" opacity="0.3"/><path d="M112.264,385.725l-55.512,15.85c-.706-.178-1.391-.364-2.05-.557l55.684-15.847Q111.358,385.44,112.264,385.725Z" fill="#fff" opacity="0.3"/><path d="M114.454,393.209a3.145,3.145,0,0,1-.031.411c-.76,4.744-14.586,8.537-31.477,8.537S52.23,398.364,51.47,393.62a3.145,3.145,0,0,1-.031-.411c0-4.934,14.134-8.948,31.507-8.948S114.454,388.275,114.454,393.209Z" fill="#007ce6"/><path d="M114.423,393.62c-.76,4.744-14.586,8.537-31.477,8.537-.377,0-.751,0-1.125-.006A102.447,102.447,0,0,1,71.13,401.5a70.543,70.543,0,0,1-9.013-1.587c-.672-.168-1.318-.344-1.943-.529a22.3,22.3,0,0,1-6.59-2.935,7.752,7.752,0,0,1-.958-.809,3.762,3.762,0,0,1-1.156-2.024c.76-4.744,14.586-8.539,31.476-8.539,2.137,0,4.225.062,6.247.178,1.029.058,2.045.132,3.038.219a76.779,76.779,0,0,1,10.947,1.7c.686.164,1.35.336,1.987.517a27.045,27.045,0,0,1,6.1,2.415,6.726,6.726,0,0,1,2.964,2.841,2.738,2.738,0,0,1,.194.673Z" fill="#009ef3"/><path d="M114.226,392.948l-32.4,9.2a102.432,102.432,0,0,1-10.7-.648l40.132-11.4a6.726,6.726,0,0,1,2.964,2.848Z" fill="#fff" opacity="0.2"/><path d="M92.231,385.478,53.584,396.453a7.75,7.75,0,0,1-.958-.809l36.567-10.385C90.222,385.317,91.238,385.391,92.231,385.478Z" fill="#fff" opacity="0.2"/><path d="M105.165,387.692,62.117,399.917c-.672-.168-1.318-.344-1.943-.529l43-12.213Q104.209,387.421,105.165,387.692Z" fill="#fff" opacity="0.2"/><path d="M87.328,398.286v1.486h-6.65v-1.419a87.033,87.033,0,0,1-12.12-.938l3.584-2.3a70.978,70.978,0,0,0,10.894.857c3.16,0,4.292-.188,4.292-.509,0-1.179-18.251-.228-18.251-3.724,0-1.513,3.867-2.785,11.6-3.093v-1.46h6.65v1.433a76.917,76.917,0,0,1,9.574.777l-3.349,2.29a64.567,64.567,0,0,0-9.2-.7c-3.254,0-4.292.268-4.292.59,0,1.125,18.251.187,18.251,3.643C98.316,396.665,94.638,397.924,87.328,398.286Z" fill="#007ce6"/><path d="M87.134,397.791v1.487H80.485v-1.42a87.042,87.042,0,0,1-12.12-.937l3.584-2.3a70.974,70.974,0,0,0,10.894.857c3.159,0,4.291-.187,4.291-.509,0-1.178-18.25-.228-18.25-3.723,0-1.514,3.867-2.786,11.6-3.094v-1.46h6.649v1.433a76.911,76.911,0,0,1,9.574.777l-3.348,2.29a64.734,64.734,0,0,0-9.2-.7c-3.254,0-4.291.268-4.291.589,0,1.125,18.251.188,18.251,3.643C98.123,396.171,94.444,397.43,87.134,397.791Z" fill="#61c2ff"/><path d="M120.412,389.486v.111a5.4,5.4,0,0,1-2.074,3.907,12,12,0,0,1-1.092.883,22.263,22.263,0,0,1-4.14,2.275c-.353.153-.718.3-1.093.45-1.263.5-2.647.963-4.139,1.392q-.537.156-1.093.3-1.96.526-4.141.969-.54.111-1.093.214-1.994.378-4.139.682c-.362.052-.725.1-1.093.15q-2.016.261-4.14.457-.543.049-1.092.094-2.029.166-4.14.265c-.363.017-.726.033-1.093.046q-2.04.078-4.139.09H80.618q-2.1,0-4.141-.077c-.366-.012-.73-.027-1.093-.043q-1.553-.068-3.066-.173c-.36-.025-.718-.051-1.073-.08s-.731-.059-1.093-.092q-2.121-.185-4.14-.442-.55-.069-1.093-.145-1.284-.177-2.518-.381-.822-.136-1.621-.284-.552-.1-1.093-.209-2.172-.431-4.141-.945c-.258-.067-.514-.136-.768-.2l-.325-.091c-.591-.166-1.168-.338-1.726-.515q-1.268-.4-2.413-.839-.562-.216-1.093-.437a25.009,25.009,0,0,1-3.672-1.869c-.16-.1-.317-.2-.468-.306q-.285-.192-.546-.388-.286-.213-.546-.431c-1.579-1.315-2.442-2.741-2.442-4.227,0-.1.005-.208.015-.313v-8.417h3.516l4.14-.006h1.093l3.23-.005h2l4.141-.006h1.093l4.139-.007h1.093l4.14-.007h1.093l4.139-.006h1.093l4.141-.005h1.093l4.139-.005H86.94l4.14-.006h1.092l4.14-.006h1.1l4.139-.006h1.093l4.141-.006h1.362l3.87-.006h1.093l4.14-.007H120.4l.015,8.735Z" fill="#009ef3"/><path d="M45.083,380.862v13.781q-.285-.192-.546-.388-.286-.213-.546-.431v-12.96Z" fill="#007ce6"/><path d="M50.316,380.854v16.4q-.562-.216-1.093-.437V380.856Z" fill="#007ce6"/><path d="M55.548,380.846V398.9c-.258-.067-.514-.136-.768-.2l-.325-.091V380.848Z" fill="#007ce6"/><path d="M60.782,380.839v19.22q-.552-.1-1.093-.209V380.84Z" fill="#007ce6"/><path d="M66.014,380.831v20.038q-.55-.069-1.093-.145V380.832Z" fill="#007ce6"/><path d="M71.247,380.823V401.4q-.551-.042-1.093-.092V380.824Z" fill="#007ce6"/><path d="M76.479,380.815V401.7c-.366-.012-.73-.027-1.093-.043v-20.84Z" fill="#007ce6"/><path d="M81.713,380.807v20.968H80.62V380.81Z" fill="#007ce6"/><path d="M86.945,380.8v20.839c-.363.017-.726.033-1.093.046V380.8Z" fill="#007ce6"/><path d="M92.177,380.792V401.28q-.543.049-1.092.094v-20.58Z" fill="#007ce6"/><path d="M97.41,380.785v19.888c-.362.052-.725.1-1.093.15V380.786Z" fill="#007ce6"/><path d="M102.642,380.777v19q-.54.111-1.093.214V380.779Z" fill="#007ce6"/><path d="M107.876,380.769V398.5q-.537.156-1.093.3V380.771Z" fill="#007ce6"/><path d="M113.108,380.762v15.9c-.353.153-.718.3-1.093.45V380.763Z" fill="#007ce6"/><path d="M118.34,380.754V393.5a12,12,0,0,1-1.092.883V380.755Z" fill="#007ce6"/><path d="M120.4,380.857c0,6.183-17.646,11.2-39.42,11.2-2.975,0-5.873-.094-8.659-.272-3.5-.222-6.832-.578-9.915-1.047-2.751-.418-5.308-.926-7.62-1.511q-1.061-.267-2.05-.557a32.951,32.951,0,0,1-7.176-2.89c-.361-.209-.7-.422-1.014-.637-1.925-1.319-2.987-2.766-2.987-4.282a2.658,2.658,0,0,1,.032-.416c.764-5.99,18.107-10.779,39.389-10.779a130.4,130.4,0,0,1,14.805.816q1.326.153,2.6.331a79.864,79.864,0,0,1,10.034,2.011q.972.267,1.877.553a32.769,32.769,0,0,1,5.524,2.242,11.723,11.723,0,0,1,3.544,2.685,4.229,4.229,0,0,1,1,2.141,2.655,2.655,0,0,1,.036.412Z" fill="#61c2ff"/><path d="M119.369,378.3,72.325,391.781c-3.5-.222-6.832-.578-9.915-1.047l53.415-15.119a11.721,11.721,0,0,1,3.544,2.685Z" fill="#fff" opacity="0.3"/><path d="M98.39,370.809,45.564,385.776c-.361-.209-.7-.422-1.014-.637l51.239-14.661Q97.115,370.631,98.39,370.809Z" fill="#fff" opacity="0.3"/><path d="M110.3,373.373l-55.51,15.85q-1.061-.267-2.05-.557l55.684-15.846Q109.4,373.087,110.3,373.373Z" fill="#fff" opacity="0.3"/><path d="M112.492,380.857a3.133,3.133,0,0,1-.031.411c-.761,4.745-14.586,8.538-31.477,8.538s-30.716-3.793-31.477-8.538a3.315,3.315,0,0,1-.03-.411c0-4.934,14.133-8.948,31.507-8.948S112.492,375.923,112.492,380.857Z" fill="#007ce6"/><path d="M112.461,381.268c-.761,4.745-14.586,8.538-31.477,8.538-.378,0-.752,0-1.125-.007a102.758,102.758,0,0,1-10.692-.646,70.877,70.877,0,0,1-9.012-1.587c-.673-.169-1.319-.345-1.943-.53a22.3,22.3,0,0,1-6.59-2.935,7.662,7.662,0,0,1-.958-.809,3.77,3.77,0,0,1-1.157-2.024c.761-4.744,14.587-8.538,31.477-8.538,2.137,0,4.225.061,6.247.177,1.029.059,2.044.132,3.038.22a76.743,76.743,0,0,1,10.946,1.7q1.029.246,1.988.517a27.143,27.143,0,0,1,6.1,2.415,6.727,6.727,0,0,1,2.963,2.841,2.7,2.7,0,0,1,.2.668Z" fill="#009ef3"/><path d="M112.263,380.6l-32.4,9.2a102.758,102.758,0,0,1-10.692-.646l40.133-11.4a6.727,6.727,0,0,1,2.959,2.846Z" fill="#fff" opacity="0.2"/><path d="M90.269,373.127,51.622,384.1a7.661,7.661,0,0,1-.958-.809l36.567-10.385C88.26,372.966,89.275,373.039,90.269,373.127Z" fill="#fff" opacity="0.2"/><path d="M103.2,375.34,60.155,387.566c-.673-.169-1.319-.345-1.943-.53l43-12.213Q102.244,375.069,103.2,375.34Z" fill="#fff" opacity="0.2"/><path d="M85.366,385.934v1.487h-6.65V386a87.061,87.061,0,0,1-12.12-.937l3.584-2.3a70.982,70.982,0,0,0,10.894.857c3.16,0,4.292-.187,4.292-.509,0-1.179-18.251-.228-18.251-3.723,0-1.514,3.867-2.786,11.6-3.094v-1.46h6.65v1.433a76.9,76.9,0,0,1,9.573.777l-3.348,2.29a64.572,64.572,0,0,0-9.2-.7c-3.255,0-4.292.268-4.292.589,0,1.125,18.251.187,18.251,3.643C96.354,384.313,92.675,385.572,85.366,385.934Z" fill="#007ce6"/><path d="M85.172,385.44v1.486H78.523v-1.42a87.08,87.08,0,0,1-12.121-.937l3.585-2.3a70.835,70.835,0,0,0,10.894.857c3.159,0,4.291-.187,4.291-.509,0-1.178-18.251-.227-18.251-3.723,0-1.513,3.867-2.786,11.6-3.094v-1.46H85.17v1.433a77.117,77.117,0,0,1,9.574.777L91.4,378.837a64.567,64.567,0,0,0-9.2-.7c-3.254,0-4.292.268-4.292.589,0,1.125,18.252.188,18.252,3.643C96.161,383.819,92.482,385.078,85.172,385.44Z" fill="#61c2ff"/><path d="M189.945,429.459v.111a5.4,5.4,0,0,1-2.073,3.907,12.2,12.2,0,0,1-1.093.882,22.252,22.252,0,0,1-4.139,2.275c-.353.153-.719.3-1.093.45-1.263.5-2.648.963-4.14,1.393q-.537.154-1.093.3-1.961.525-4.141.968-.54.111-1.092.214-2,.378-4.14.682c-.361.052-.725.1-1.093.15q-2.016.261-4.139.457-.545.049-1.093.094-2.029.166-4.14.265-.543.025-1.093.047-2.039.077-4.139.089h-1.093q-2.1-.006-4.141-.077-.549-.02-1.093-.044-1.553-.067-3.066-.173-.54-.037-1.073-.079c-.366-.029-.73-.059-1.093-.092q-2.121-.186-4.139-.442-.552-.07-1.093-.146-1.285-.177-2.519-.381-.822-.137-1.621-.283c-.367-.069-.733-.139-1.093-.21q-2.172-.43-4.141-.945c-.258-.067-.514-.136-.768-.2l-.324-.091c-.592-.165-1.169-.338-1.727-.515q-1.268-.4-2.413-.839-.562-.216-1.093-.437a25.1,25.1,0,0,1-3.671-1.868c-.161-.1-.318-.2-.468-.307-.19-.128-.373-.257-.547-.387-.191-.142-.372-.286-.546-.431-1.579-1.316-2.442-2.742-2.442-4.227a2.18,2.18,0,0,1,.015-.313v-8.417h3.516l4.139-.006h6.325l4.141-.006h1.093l4.14-.006h1.093l4.139-.006h1.093l4.139-.005h6.327l4.139-.006h1.093l4.14-.007h1.093l4.139-.007h1.093l4.14-.006h1.092l4.141-.006h1.363l3.87-.006h1.093l4.139-.007h3.151l.015,8.736Z" fill="#009ef3"/><path d="M114.616,420.834v13.781c-.19-.128-.373-.257-.547-.387-.191-.142-.372-.286-.546-.431V420.836Z" fill="#007ce6"/><path d="M119.848,420.826v16.4q-.562-.216-1.093-.437V420.828Z" fill="#007ce6"/><path d="M125.08,420.818v18.059c-.258-.067-.514-.136-.768-.2l-.324-.091V420.82Z" fill="#007ce6"/><path d="M130.314,420.811v19.221c-.367-.069-.733-.139-1.093-.21v-19.01Z" fill="#007ce6"/><path d="M135.547,420.8v20.039q-.552-.07-1.093-.146V420.8Z" fill="#007ce6"/><path d="M140.779,420.8v20.581c-.366-.029-.73-.059-1.093-.092V420.8Z" fill="#007ce6"/><path d="M146.011,420.787v20.885q-.549-.02-1.093-.044V420.79Z" fill="#007ce6"/><path d="M151.245,420.78v20.967h-1.093V420.782Z" fill="#007ce6"/><path d="M156.477,420.773v20.838q-.543.025-1.093.047V420.774Z" fill="#007ce6"/><path d="M161.71,420.765v20.487q-.545.049-1.093.094v-20.58Z" fill="#007ce6"/><path d="M166.942,420.757v19.888c-.361.052-.725.1-1.093.15V420.758Z" fill="#007ce6"/><path d="M172.174,420.749v19q-.54.111-1.092.214V420.751Z" fill="#007ce6"/><path d="M177.408,420.741v17.736q-.537.154-1.093.3V420.743Z" fill="#007ce6"/><path d="M182.641,420.734v15.9c-.353.153-.719.3-1.093.45V420.735Z" fill="#007ce6"/><path d="M187.873,420.726v12.751a12.2,12.2,0,0,1-1.093.882V420.727Z" fill="#007ce6"/><path d="M189.937,420.829c0,6.183-17.646,11.2-39.421,11.2-2.975,0-5.873-.094-8.659-.271-3.5-.223-6.832-.579-9.914-1.047-2.752-.418-5.308-.927-7.621-1.511-.706-.179-1.391-.364-2.05-.557a32.947,32.947,0,0,1-7.176-2.891c-.361-.209-.7-.421-1.014-.637-1.925-1.319-2.987-2.766-2.987-4.282a2.638,2.638,0,0,1,.032-.415c.764-5.99,18.108-10.78,39.389-10.78a130.189,130.189,0,0,1,14.806.817q1.324.152,2.6.331a79.862,79.862,0,0,1,10.034,2.01q.972.267,1.878.553a32.713,32.713,0,0,1,5.523,2.243,11.738,11.738,0,0,1,3.545,2.684,4.238,4.238,0,0,1,1,2.142,2.638,2.638,0,0,1,.035.411Z" fill="#61c2ff"/><path d="M188.9,418.272l-47.045,13.482c-3.5-.223-6.832-.579-9.914-1.047l53.414-15.119A11.738,11.738,0,0,1,188.9,418.272Z" fill="#fff" opacity="0.3"/><path d="M167.922,410.782,115.1,425.748c-.361-.209-.7-.421-1.014-.637l51.24-14.66Q166.646,410.6,167.922,410.782Z" fill="#fff" opacity="0.3"/><path d="M179.834,413.345,124.322,429.2c-.706-.179-1.391-.364-2.05-.557L177.956,412.8Q178.928,413.059,179.834,413.345Z" fill="#fff" opacity="0.3"/><path d="M182.024,420.83a3.156,3.156,0,0,1-.031.411c-.76,4.744-14.586,8.537-31.477,8.537s-30.716-3.793-31.476-8.537a3.158,3.158,0,0,1-.031-.411c0-4.934,14.134-8.948,31.507-8.948S182.024,415.9,182.024,420.83Z" fill="#007ce6"/><path d="M181.993,421.241c-.76,4.744-14.586,8.537-31.477,8.537-.378,0-.751,0-1.125-.006a102.984,102.984,0,0,1-10.691-.647,70.726,70.726,0,0,1-9.013-1.587q-1.008-.254-1.943-.53a22.274,22.274,0,0,1-6.59-2.935,7.579,7.579,0,0,1-.958-.809,3.763,3.763,0,0,1-1.156-2.023c.76-4.745,14.586-8.539,31.476-8.539,2.137,0,4.225.061,6.247.177,1.029.059,2.045.132,3.038.22a76.779,76.779,0,0,1,10.947,1.7q1.029.245,1.987.517a27.077,27.077,0,0,1,6.1,2.414,6.727,6.727,0,0,1,2.964,2.842,2.725,2.725,0,0,1,.194.669Z" fill="#009ef3"/><path d="M181.8,420.569l-32.4,9.2a102.976,102.976,0,0,1-10.691-.647l40.132-11.4A6.727,6.727,0,0,1,181.8,420.569Z" fill="#fff" opacity="0.2"/><path d="M159.8,413.1l-38.647,10.974a7.58,7.58,0,0,1-.958-.809l36.567-10.385C157.792,412.938,158.808,413.011,159.8,413.1Z" fill="#fff" opacity="0.2"/><path d="M172.735,415.313l-43.048,12.225q-1.008-.254-1.943-.53l43-12.212Q171.777,415.041,172.735,415.313Z" fill="#fff" opacity="0.2"/><path d="M154.9,425.906v1.487h-6.65v-1.42a87.061,87.061,0,0,1-12.12-.937l3.584-2.3a70.982,70.982,0,0,0,10.894.857c3.16,0,4.292-.187,4.292-.509,0-1.178-18.251-.227-18.251-3.723,0-1.513,3.867-2.786,11.6-3.094V414.8h6.65v1.433a77.09,77.09,0,0,1,9.573.777l-3.348,2.29a64.7,64.7,0,0,0-9.2-.7c-3.254,0-4.292.268-4.292.589,0,1.125,18.251.188,18.251,3.643C165.886,424.286,162.208,425.545,154.9,425.906Z" fill="#007ce6"/><path d="M154.7,425.412V426.9h-6.649v-1.419a87.014,87.014,0,0,1-12.12-.938l3.584-2.3a70.824,70.824,0,0,0,10.894.858c3.159,0,4.291-.188,4.291-.509,0-1.179-18.251-.228-18.251-3.724,0-1.513,3.868-2.785,11.6-3.093v-1.46H154.7v1.433a76.741,76.741,0,0,1,9.574.777l-3.348,2.29a64.581,64.581,0,0,0-9.2-.7c-3.254,0-4.291.268-4.291.59,0,1.125,18.251.187,18.251,3.643C165.693,423.791,162.014,425.05,154.7,425.412Z" fill="#61c2ff"/><path d="M192.422,415.648v.112a5.4,5.4,0,0,1-2.073,3.906,12,12,0,0,1-1.092.883,22.3,22.3,0,0,1-4.14,2.275q-.529.229-1.093.45c-1.263.5-2.647.963-4.139,1.393-.358.1-.722.2-1.093.3-1.307.351-2.691.674-4.141.969q-.54.111-1.093.214-1.994.378-4.139.682c-.362.052-.726.1-1.093.15q-2.016.261-4.14.457-.543.048-1.093.094-2.028.166-4.139.265-.545.025-1.093.047-2.04.076-4.14.089h-1.092q-2.1,0-4.141-.077c-.366-.012-.73-.027-1.093-.043q-1.553-.067-3.067-.173c-.36-.025-.717-.051-1.073-.08s-.73-.059-1.093-.091q-2.119-.186-4.139-.443-.552-.069-1.093-.145-1.284-.177-2.519-.381-.82-.137-1.62-.283-.552-.1-1.093-.21-2.172-.43-4.141-.945c-.259-.067-.515-.136-.768-.2l-.325-.091c-.592-.166-1.169-.338-1.726-.515q-1.268-.4-2.414-.839-.561-.216-1.092-.437a25.01,25.01,0,0,1-3.672-1.869c-.16-.1-.317-.2-.468-.306q-.285-.192-.546-.388-.286-.213-.547-.431c-1.579-1.315-2.441-2.741-2.441-4.226,0-.105,0-.209.014-.313V407.03h3.516l4.14-.006h1.092l3.231-.005h2L131.7,407h1.093l4.139-.007h1.093l4.139-.007h6.326l4.141-.005h1.092l4.14-.005h1.093l4.139-.006h1.093l4.14-.007h1.093l4.139-.006h1.093l4.141-.006h1.362l3.87-.006h1.093l4.14-.007h3.151l.014,8.735Z" fill="#009ef3"/><path d="M117.093,407.024V420.8q-.285-.192-.546-.388-.286-.213-.547-.431v-12.96Z" fill="#007ce6"/><path d="M122.325,407.016v16.4q-.561-.216-1.092-.437V407.018Z" fill="#007ce6"/><path d="M127.558,407.008v18.059c-.259-.067-.515-.136-.768-.2l-.325-.091V407.01Z" fill="#007ce6"/><path d="M132.792,407v19.221q-.552-.1-1.093-.21V407Z" fill="#007ce6"/><path d="M138.024,406.993v20.038q-.552-.069-1.093-.145V406.994Z" fill="#007ce6"/><path d="M143.256,406.985v20.58q-.549-.042-1.093-.091V406.986Z" fill="#007ce6"/><path d="M148.489,406.977v20.884c-.366-.012-.73-.027-1.093-.043V406.98Z" fill="#007ce6"/><path d="M153.722,406.969v20.968H152.63V406.972Z" fill="#007ce6"/><path d="M158.955,406.962V427.8q-.545.025-1.093.047V406.964Z" fill="#007ce6"/><path d="M164.187,406.955v20.487q-.543.048-1.093.094v-20.58Z" fill="#007ce6"/><path d="M169.42,406.947v19.888c-.362.052-.726.1-1.093.15V406.948Z" fill="#007ce6"/><path d="M174.652,406.939v19q-.54.111-1.093.214V406.941Z" fill="#007ce6"/><path d="M179.886,406.931v17.736c-.358.1-.722.2-1.093.3V406.933Z" fill="#007ce6"/><path d="M185.118,406.924v15.9q-.529.229-1.093.45V406.925Z" fill="#007ce6"/><path d="M190.35,406.916v12.75a12,12,0,0,1-1.092.883V406.917Z" fill="#007ce6"/><path d="M192.414,407.019c0,6.183-17.646,11.2-39.421,11.2-2.974,0-5.872-.094-8.659-.272-3.5-.222-6.831-.578-9.914-1.047-2.752-.418-5.308-.926-7.62-1.511q-1.061-.267-2.05-.557a32.949,32.949,0,0,1-7.176-2.89c-.361-.209-.7-.422-1.014-.638-1.925-1.318-2.987-2.765-2.987-4.281a2.636,2.636,0,0,1,.032-.415c.764-5.991,18.107-10.78,39.388-10.78a130.429,130.429,0,0,1,14.806.816q1.325.153,2.6.332a79.708,79.708,0,0,1,10.035,2.01q.972.267,1.877.553a32.679,32.679,0,0,1,5.524,2.243,11.733,11.733,0,0,1,3.544,2.684,4.222,4.222,0,0,1,1,2.142,2.52,2.52,0,0,1,.035.411Z" fill="#61c2ff"/><path d="M191.379,404.462l-47.045,13.481c-3.5-.222-6.831-.578-9.914-1.047l53.415-15.118A11.734,11.734,0,0,1,191.379,404.462Z" fill="#fff" opacity="0.3"/><path d="M170.4,396.972l-52.825,14.966c-.361-.209-.7-.422-1.014-.638L167.8,396.64Q169.124,396.793,170.4,396.972Z" fill="#fff" opacity="0.3"/><path d="M182.311,399.535,126.8,415.385q-1.061-.267-2.05-.557l55.684-15.846Q181.406,399.249,182.311,399.535Z" fill="#fff" opacity="0.3"/><path d="M184.5,407.02a3.312,3.312,0,0,1-.031.41c-.761,4.744-14.587,8.538-31.477,8.538s-30.716-3.794-31.477-8.538a3.314,3.314,0,0,1-.03-.41c0-4.935,14.133-8.948,31.507-8.948S184.5,402.085,184.5,407.02Z" fill="#007ce6"/><path d="M184.471,407.43c-.761,4.744-14.587,8.538-31.477,8.538-.378,0-.752,0-1.126-.007a102.73,102.73,0,0,1-10.691-.646,70.849,70.849,0,0,1-9.012-1.587c-.673-.169-1.319-.345-1.943-.53a22.287,22.287,0,0,1-6.59-2.935,7.665,7.665,0,0,1-.959-.809,3.768,3.768,0,0,1-1.156-2.024c.761-4.744,14.587-8.538,31.477-8.538,2.137,0,4.225.061,6.247.177,1.029.059,2.044.132,3.038.22a76.738,76.738,0,0,1,10.946,1.7c.686.163,1.35.335,1.987.516a27.133,27.133,0,0,1,6.1,2.415,6.733,6.733,0,0,1,2.963,2.841A2.71,2.71,0,0,1,184.471,407.43Z" fill="#009ef3"/><path d="M184.273,406.758l-32.4,9.2a102.722,102.722,0,0,1-10.691-.646l40.133-11.4a6.733,6.733,0,0,1,2.958,2.846Z" fill="#fff" opacity="0.2"/><path d="M162.279,399.289l-38.647,10.974a7.665,7.665,0,0,1-.959-.809l36.568-10.385C160.27,399.128,161.285,399.2,162.279,399.289Z" fill="#fff" opacity="0.2"/><path d="M175.212,401.5l-43.047,12.226c-.673-.169-1.319-.345-1.943-.53l43-12.212Q174.255,401.231,175.212,401.5Z" fill="#fff" opacity="0.2"/><path d="M157.375,412.1v1.487h-6.649v-1.42a87.037,87.037,0,0,1-12.12-.937l3.584-2.3a70.958,70.958,0,0,0,10.894.857c3.159,0,4.291-.187,4.291-.509,0-1.178-18.251-.228-18.251-3.723,0-1.514,3.868-2.786,11.6-3.094V401h6.649v1.433a76.912,76.912,0,0,1,9.574.777L163.6,405.5a64.576,64.576,0,0,0-9.2-.7c-3.254,0-4.291.268-4.291.589,0,1.125,18.251.188,18.251,3.643C168.364,410.475,164.685,411.735,157.375,412.1Z" fill="#007ce6"/><path d="M157.182,411.6v1.487h-6.65v-1.42a87.061,87.061,0,0,1-12.12-.937l3.584-2.3a70.859,70.859,0,0,0,10.894.857c3.16,0,4.292-.187,4.292-.509,0-1.178-18.251-.227-18.251-3.723,0-1.513,3.867-2.786,11.6-3.094V400.5h6.65v1.433a77.1,77.1,0,0,1,9.573.777L163.407,405a64.563,64.563,0,0,0-9.2-.7c-3.254,0-4.292.268-4.292.589,0,1.125,18.251.188,18.251,3.643C168.17,409.981,164.492,411.24,157.182,411.6Z" fill="#61c2ff"/><path d="M359.729,218.974v29.678a3.428,3.428,0,0,1-3.424,3.424H326.628a6.5,6.5,0,0,1-5.558-3.94,2.237,2.237,0,0,1-.153-.352c-.058-.176-.117-.352-.176-.539,0-.024-.011-.036-.011-.059s-.012-.012-.012-.023V247.1l-.059-23.416v-6.859a3.432,3.432,0,0,1,3.061-3.412c.117,0,.246-.012.363-.012l30.275.117a2.37,2.37,0,0,1,.411.035h.011C357.829,213.9,359.729,217.169,359.729,218.974Z" fill="#005ec9"/><path d="M357.184,216.829v29.665a3.42,3.42,0,0,1-3.424,3.424H324.083a3.425,3.425,0,0,1-3.013-1.782,2.23,2.23,0,0,1-.153-.352c-.058-.176-.117-.352-.176-.539,0-.024-.011-.036-.011-.059s-.012-.059-.012-.082a3.488,3.488,0,0,1-.059-.61V216.829a3.432,3.432,0,0,1,3.061-3.412c.117,0,.246-.012.363-.012H353.76a3.2,3.2,0,0,1,1.009.152h.011a3.413,3.413,0,0,1,2.4,3.272Z" transform="translate(0.249 -1.929)" fill="#007ce6"/><path d="M377.316,364.319l-63.241-.159v78.549l63.241.2Z" fill="#005ec9"/><path d="M330.3,374.045a1.194,1.194,0,0,0,1.241-1.08c.376-3.952,2.1-17.169,8.6-21.945a8.346,8.346,0,0,1,5.961-1.634c11.407,1.071,13.141,18.959,13.4,23.684a1.2,1.2,0,0,0,1.2,1.13h0a1.2,1.2,0,0,0,1.192-1.257c-.259-5.185-2.125-24.342-15.538-25.6a11,11,0,0,0-7.773,2.116c-7.226,5.312-9.031,19.023-9.424,23.28a1.2,1.2,0,0,0,1.142,1.307Z" fill="#009ef3"/><path d="M371.815,364.319l-63.241-.159v78.549l63.241.2Z" fill="#007ce6"/><path d="M327.408,373.649a2.269,2.269,0,1,1-2.269-2.269,2.269,2.269,0,0,1,2.269,2.269Z" fill="#005ec9"/><path d="M357.87,373.649a2.27,2.27,0,1,1-2.27-2.269A2.27,2.27,0,0,1,357.87,373.649Z" fill="#005ec9"/><path d="M325.229,374.226a1.2,1.2,0,0,0,1.242-1.081c.376-3.952,2.1-17.169,8.6-21.944a8.338,8.338,0,0,1,5.961-1.634c11.408,1.07,13.142,18.962,13.4,23.685a1.193,1.193,0,0,0,1.2,1.128h0a1.2,1.2,0,0,0,1.19-1.255c-.259-5.182-2.123-24.344-15.538-25.6a11,11,0,0,0-7.774,2.115c-7.226,5.313-9.031,19.024-9.423,23.28a1.2,1.2,0,0,0,1.141,1.308Z" fill="#61b3ff"/><path d="M7.092-12.6H1.026V0H5.274V-3.1H7.092c3.51,0,5.742-1.836,5.742-4.752S10.6-12.6,7.092-12.6Zm-.27,6.228H5.274V-9.324H6.822c1.17,0,1.728.558,1.728,1.476S7.992-6.372,6.822-6.372ZM23.022,0h4.392L21.906-12.6H17.73L12.222,0h4.32l.846-2.2h4.788ZM18.558-5.256l1.224-3.168,1.224,3.168ZM39.528-12.6h-4.1L32.832-8.244,30.258-12.6H25.776l4.752,7.974V0h4.248V-4.572Zm6.606,0H40.068V0h4.248V-3.1h1.818c3.51,0,5.742-1.836,5.742-4.752S49.644-12.6,46.134-12.6Zm-.27,6.228H44.316V-9.324h1.548c1.17,0,1.728.558,1.728,1.476S47.034-6.372,45.864-6.372ZM53.262,0H63.2V-3.294H57.51V-12.6H53.262ZM68.544-3.2V-4.86h5.328V-7.92H68.544V-9.4H74.61v-3.2H64.368V0H74.844V-3.2Z" transform="translate(217.908 390.476)" fill="#fff"/><path d="M16.752-7.536l-.5,3.624h-.12l-.576-3.624-.144-.744h1.464Zm-5.3-2.4.5-3.936h.1l.528,3.936Zm-2.712,2.4L8.184-3.912h-.1l-.5-3.624-.12-.744H8.88Zm13.824-2.4h-2.5l1.776-8.016h-3.5L17.112-9.936H15.1l-1.32-6.912h-3.36L9.168-9.936H7.2L5.9-17.952H2.16l1.9,8.016h-.7l-1.92.168V-8.28h3L6.384,0H9.792l1.392-7.92.048-.36h1.584l.048.36L14.3,0h3.552L19.7-8.28H22.56Z" transform="translate(326.908 239.476)" fill="#fff"/></g></g></svg>