<svg xmlns="http://www.w3.org/2000/svg" width="431.363" height="339.834" viewBox="0 0 431.363 339.834"><g transform="translate(-34.203 -71.952)"><rect width="332.554" height="67.975" rx="11.852" transform="translate(83.742 207.53)" fill="#fff"/><text transform="translate(251.371 259.09)" fill="#70bfe0" font-size="46.583" font-family="JosefinSans-Bold, Josefin Sans" font-weight="700" letter-spacing="0.2em"><tspan x="-112.312" y="0">PAYPLE</tspan></text><line x2="152.682" transform="translate(277.732 286.485)" stroke-width="3" stroke="#fff" stroke-linecap="round" stroke-linejoin="round" fill="none"/><line x2="85.34" transform="translate(299.933 296.944)" stroke-width="3" stroke="#fff" stroke-linecap="round" stroke-linejoin="round" fill="none"/><line x2="48.849" transform="translate(387.653 308.223)" stroke-width="3" stroke="#fff" stroke-linecap="round" stroke-linejoin="round" fill="none"/><line x2="152.682" transform="translate(81.65 196.026)" stroke-width="3" stroke="#fff" stroke-linecap="round" stroke-linejoin="round" fill="none"/><line x2="18.824" transform="translate(249.496 196.549)" stroke-width="3" stroke="#fff" stroke-linecap="round" stroke-linejoin="round" fill="none"/><line x2="46.903" transform="translate(282.964 196.549)" stroke-width="3" stroke="#fff" stroke-linecap="round" stroke-linejoin="round" fill="none"/><line x2="152.682" transform="translate(65.964 185.569)" stroke-width="3" stroke="#fff" stroke-linecap="round" stroke-linejoin="round" fill="none"/><line x2="31.069" transform="translate(245.048 372.922)" stroke-width="3" stroke="#fff" stroke-linecap="round" stroke-linejoin="round" fill="none"/><line x2="32.115" transform="translate(239.819 383.38)" stroke-width="3" stroke="#fff" stroke-linecap="round" stroke-linejoin="round" fill="none"/><line x2="31.069" transform="translate(227.609 148.551)" stroke-width="3" stroke="#fff" stroke-linecap="round" stroke-linejoin="round" fill="none"/><line x2="32.115" transform="translate(222.38 159.01)" stroke-width="3" stroke="#fff" stroke-linecap="round" stroke-linejoin="round" fill="none"/><path d="M163.76,171.973l9.267-7.944-9.267-7.944" fill="none" stroke="#fff" stroke-linecap="round" stroke-linejoin="round" stroke-width="3"/><path d="M176.772,171.973l9.267-7.944-9.267-7.944" fill="none" stroke="#fff" stroke-linecap="round" stroke-linejoin="round" stroke-width="3"/><path d="M189.783,171.973l9.267-7.944-9.267-7.944" fill="none" stroke="#fff" stroke-linecap="round" stroke-linejoin="round" stroke-width="3"/><path d="M421.525,337.959l8.433-7.228-8.433-7.228" fill="none" stroke="#fff" stroke-linecap="round" stroke-linejoin="round" stroke-width="3"/><path d="M433.365,337.959l8.433-7.228-8.433-7.228" fill="none" stroke="#fff" stroke-linecap="round" stroke-linejoin="round" stroke-width="3"/><path d="M445.205,337.959l8.433-7.228-8.433-7.228" fill="none" stroke="#fff" stroke-linecap="round" stroke-linejoin="round" stroke-width="3"/><path d="M264.1,333.229l-3.482-5.754-4.132,5.306" fill="none" stroke="#fff" stroke-linecap="round" stroke-linejoin="round" stroke-width="2"/><path d="M236.246,353.021a24.212,24.212,0,0,0,24.212-24.211" fill="none" stroke="#fff" stroke-linecap="round" stroke-linejoin="round" stroke-width="2"/><path d="M436.484,185.679l-5.754,3.482,5.306,4.132" fill="none" stroke="#fff" stroke-linecap="round" stroke-linejoin="round" stroke-width="2"/><path d="M456.276,213.535a24.212,24.212,0,0,0-24.212-24.212" fill="none" stroke="#fff" stroke-linecap="round" stroke-linejoin="round" stroke-width="2"/><path d="M37.653,260.246l3.482-5.754,4.132,5.306" fill="none" stroke="#fff" stroke-linecap="round" stroke-linejoin="round" stroke-width="2"/><path d="M65.509,280.038A24.212,24.212,0,0,1,41.3,255.826" fill="none" stroke="#fff" stroke-linecap="round" stroke-linejoin="round" stroke-width="2"/><circle cx="14.912" cy="14.912" r="14.912" transform="translate(34.203 218.024) rotate(-13.282)" fill="#fff"/><path d="M44.1,229.9l5.344,5.561,10.9-11.788" fill="none" stroke="#70bfe0" stroke-linecap="round" stroke-linejoin="round" stroke-width="3"/><rect width="64.993" height="45.862" rx="5.064" transform="translate(336.67 121.434)" stroke-width="3" stroke="#fff" stroke-linecap="round" stroke-linejoin="round" fill="#70bfe0"/><rect width="64.993" height="6.254" transform="translate(336.67 129.89)" stroke-width="2" stroke="#fff" stroke-linecap="round" stroke-linejoin="round" fill="none"/><rect width="38.017" height="3.388" transform="translate(343.998 155.687)" stroke-width="2" stroke="#fff" stroke-linecap="round" stroke-linejoin="round" fill="none"/><rect width="26.849" height="3.388" transform="translate(343.998 148.212)" stroke-width="2" stroke="#fff" stroke-linecap="round" stroke-linejoin="round" fill="none"/><rect width="64.993" height="45.862" rx="5.064" transform="translate(353.245 142.584)" stroke-width="3" stroke="#fff" stroke-linecap="round" stroke-linejoin="round" fill="#70bfe0"/><rect width="38.017" height="3.388" transform="translate(360.573 167.62)" stroke-width="2" stroke="#fff" stroke-linecap="round" stroke-linejoin="round" fill="none"/><rect width="50.687" height="3.388" transform="translate(360.573 175.993)" stroke-width="2" stroke="#fff" stroke-linecap="round" stroke-linejoin="round" fill="none"/><rect width="12.241" height="3.388" transform="translate(360.573 151.042)" stroke-width="2" stroke="#fff" stroke-linecap="round" stroke-linejoin="round" fill="none"/><rect width="12.241" height="7.576" transform="translate(399.731 149.676)" stroke-width="2" stroke="#fff" stroke-linecap="round" stroke-linejoin="round" fill="none"/><g transform="translate(53.125 308.243)" fill="#70bfe0" stroke="#fff" stroke-linecap="round" stroke-linejoin="round" stroke-width="3"><rect width="81.74" height="40.113" stroke="none"/><rect x="-1.5" y="-1.5" width="84.74" height="43.113" fill="none"/></g><path d="M131.62,338.165V318.434a6.944,6.944,0,0,1-6.945-6.945H63.316a6.944,6.944,0,0,1-6.944,6.945v19.731a6.945,6.945,0,0,1,6.944,6.945h61.359A6.945,6.945,0,0,1,131.62,338.165Z" fill="#70bfe0" stroke="#fff" stroke-linecap="round" stroke-linejoin="round" stroke-width="2"/><circle cx="13.134" cy="13.134" r="13.134" transform="translate(80.862 315.166)" fill="#70bfe0" stroke="#fff" stroke-linecap="round" stroke-linejoin="round" stroke-width="2"/><g transform="translate(66.247 294.589)" fill="#70bfe0" stroke="#fff" stroke-linecap="round" stroke-linejoin="round" stroke-width="3"><rect width="81.74" height="40.113" stroke="none"/><rect x="-1.5" y="-1.5" width="84.74" height="43.113" fill="none"/></g><path d="M144.742,324.511V304.78a6.946,6.946,0,0,1-6.945-6.945H76.438a6.945,6.945,0,0,1-6.944,6.945v19.731a6.944,6.944,0,0,1,6.944,6.945H137.8A6.945,6.945,0,0,1,144.742,324.511Z" fill="#70bfe0" stroke="#fff" stroke-linecap="round" stroke-linejoin="round" stroke-width="2"/><circle cx="13.134" cy="13.134" r="13.134" transform="translate(93.984 301.511)" fill="#70bfe0" stroke="#fff" stroke-linecap="round" stroke-linejoin="round" stroke-width="2"/><circle cx="11.994" cy="11.994" r="11.994" transform="translate(66.205 390.097) rotate(-45)" fill="#fff"/><g transform="translate(73.172 380.103)" fill="none" stroke="#70bfe0" stroke-miterlimit="10" stroke-width="1"><circle cx="9.995" cy="9.995" r="9.995" stroke="none"/><circle cx="9.995" cy="9.995" r="9.495" fill="none"/></g><text transform="translate(79.685 396.291)" fill="#70bfe0" font-size="15.957" font-family="Helvetica"><tspan x="0" y="0">$</tspan></text><circle cx="11.994" cy="11.994" r="11.994" transform="translate(93.955 361.184) rotate(-12.811)" fill="#fff"/><g transform="matrix(0.004, -1, 1, 0.004, 98.275, 380.174)" fill="none" stroke="#70bfe0" stroke-miterlimit="10" stroke-width="1"><circle cx="9.995" cy="9.995" r="9.995" stroke="none"/><circle cx="9.995" cy="9.995" r="9.495" fill="none"/></g><text transform="translate(104.828 376.413)" fill="#70bfe0" font-size="15.957" font-family="Helvetica"><tspan x="0" y="0">$</tspan></text><circle cx="11.994" cy="11.994" r="11.994" transform="translate(56.678 379.618) rotate(-45)" fill="#fff"/><g transform="translate(63.645 369.624)" fill="none" stroke="#70bfe0" stroke-miterlimit="10" stroke-width="1"><circle cx="9.995" cy="9.995" r="9.995" stroke="none"/><circle cx="9.995" cy="9.995" r="9.495" fill="none"/></g><text transform="translate(70.157 385.813)" fill="#70bfe0" font-size="15.957" font-family="Helvetica"><tspan x="0" y="0">$</tspan></text><circle cx="11.994" cy="11.994" r="11.994" transform="translate(132.805 369.821) rotate(-13.971)" fill="#fff"/><g transform="matrix(0.161, -0.987, 0.987, 0.161, 135.869, 386.823)" fill="none" stroke="#70bfe0" stroke-miterlimit="10" stroke-width="1"><circle cx="9.995" cy="9.995" r="9.995" stroke="none"/><circle cx="9.995" cy="9.995" r="9.495" fill="none"/></g><text transform="translate(143.857 384.758)" fill="#70bfe0" font-size="15.957" font-family="Helvetica"><tspan x="0" y="0">$</tspan></text><path d="M300.848,81.978h7V76.863a3.41,3.41,0,0,0-3.41-3.41s-3.589-.089-3.589,4.263Z" fill="none" stroke="#fff" stroke-linecap="round" stroke-linejoin="round" stroke-width="3"/><path d="M271.235,98.221V76.863a3.41,3.41,0,0,1,3.41-3.41h29.613a3.41,3.41,0,0,0-3.41,3.41V98.221Z" fill="none" stroke="#fff" stroke-linecap="round" stroke-linejoin="round" stroke-width="3"/><line x2="17.229" transform="translate(277.696 80.991)" stroke-width="2" stroke="#fff" stroke-linecap="round" stroke-linejoin="round" fill="none"/><line x2="17.229" transform="translate(277.696 85.837)" stroke-width="2" stroke="#fff" stroke-linecap="round" stroke-linejoin="round" fill="none"/><line x2="17.229" transform="translate(277.696 90.683)" stroke-width="2" stroke="#fff" stroke-linecap="round" stroke-linejoin="round" fill="none"/><rect width="53.881" height="80.783" rx="6.01" transform="translate(258.831 98.449)" stroke-width="3" stroke="#fff" stroke-linecap="round" stroke-linejoin="round" fill="none"/><path d="M304.756,103.584H267.3a2.971,2.971,0,0,0-2.882,3.051v23.511a2.445,2.445,0,0,0,2.373,2.512h37.969a2.445,2.445,0,0,0,2.373-2.512V106.1A2.445,2.445,0,0,0,304.756,103.584Z" fill="none" stroke="#fff" stroke-linecap="round" stroke-linejoin="round" stroke-width="2"/><path d="M1.313,0h8.944a1.312,1.312,0,0,1,1.312,1.312V5.05a1.312,1.312,0,0,1-1.312,1.312H1.312A1.312,1.312,0,0,1,0,5.05V1.313A1.313,1.313,0,0,1,1.313,0Z" transform="translate(264.235 136.795)" fill="none" stroke="#fff" stroke-linecap="round" stroke-linejoin="round" stroke-width="2"/><path d="M1.313,0h8.944a1.312,1.312,0,0,1,1.312,1.312V5.05a1.312,1.312,0,0,1-1.312,1.312H1.312A1.312,1.312,0,0,1,0,5.05V1.313A1.313,1.313,0,0,1,1.313,0Z" transform="translate(279.853 136.795)" fill="none" stroke="#fff" stroke-linecap="round" stroke-linejoin="round" stroke-width="2"/><path d="M1.313,0h8.944a1.312,1.312,0,0,1,1.312,1.312V5.05a1.312,1.312,0,0,1-1.312,1.312H1.312A1.312,1.312,0,0,1,0,5.05V1.313A1.313,1.313,0,0,1,1.313,0Z" transform="translate(295.471 136.795)" fill="none" stroke="#fff" stroke-linecap="round" stroke-linejoin="round" stroke-width="2"/><path d="M1.312,0h8.944a1.312,1.312,0,0,1,1.312,1.312V5.05a1.313,1.313,0,0,1-1.312,1.313H1.312A1.312,1.312,0,0,1,0,5.05V1.312A1.312,1.312,0,0,1,1.312,0Z" transform="translate(264.235 147.025)" fill="none" stroke="#fff" stroke-linecap="round" stroke-linejoin="round" stroke-width="2"/><path d="M1.312,0h8.944a1.312,1.312,0,0,1,1.312,1.312V5.05a1.313,1.313,0,0,1-1.312,1.313H1.312A1.312,1.312,0,0,1,0,5.05V1.312A1.312,1.312,0,0,1,1.312,0Z" transform="translate(279.853 147.025)" fill="none" stroke="#fff" stroke-linecap="round" stroke-linejoin="round" stroke-width="2"/><path d="M1.312,0h8.944a1.312,1.312,0,0,1,1.312,1.312V5.05a1.313,1.313,0,0,1-1.312,1.313H1.312A1.312,1.312,0,0,1,0,5.05V1.312A1.312,1.312,0,0,1,1.312,0Z" transform="translate(295.471 147.025)" fill="none" stroke="#fff" stroke-linecap="round" stroke-linejoin="round" stroke-width="2"/><rect width="11.569" height="6.363" rx="1.312" transform="translate(264.235 157.255)" stroke-width="2" stroke="#fff" stroke-linecap="round" stroke-linejoin="round" fill="none"/><rect width="11.569" height="6.363" rx="1.312" transform="translate(279.853 157.255)" stroke-width="2" stroke="#fff" stroke-linecap="round" stroke-linejoin="round" fill="none"/><rect width="11.569" height="6.363" rx="1.312" transform="translate(264.235 167.485)" stroke-width="2" stroke="#fff" stroke-linecap="round" stroke-linejoin="round" fill="none"/><rect width="11.569" height="6.363" rx="1.312" transform="translate(279.853 167.485)" stroke-width="2" stroke="#fff" stroke-linecap="round" stroke-linejoin="round" fill="none"/><rect width="11.569" height="16.494" rx="1.509" transform="translate(295.471 157.354)" stroke-width="2" stroke="#fff" stroke-linecap="round" stroke-linejoin="round" fill="none"/><path d="M276.881,118.66l6.468,6.73,13.2-14.268" fill="none" stroke="#fff" stroke-linecap="round" stroke-linejoin="round" stroke-width="4"/><path d="M246.639,120.735a11.335,11.335,0,0,1,0-16.048" fill="none" stroke="#fff" stroke-linecap="round" stroke-linejoin="round" stroke-width="3"/><path d="M242.277,100.326a17.5,17.5,0,0,0,0,24.771" fill="none" stroke="#fff" stroke-linecap="round" stroke-linejoin="round" stroke-width="3"/><path d="M251,116.376a5.182,5.182,0,0,1,0-7.329" fill="none" stroke="#fff" stroke-linecap="round" stroke-linejoin="round" stroke-width="3"/><path d="M246.639,104.687a11.335,11.335,0,0,0,0,16.048" fill="none" stroke="#fff" stroke-linecap="round" stroke-linejoin="round" stroke-width="3"/><path d="M251,109.047a5.182,5.182,0,0,0,0,7.329" fill="none" stroke="#fff" stroke-linecap="round" stroke-linejoin="round" stroke-width="3"/><path d="M192.317,308.886a13.866,13.866,0,0,1,19.633,0" fill="none" stroke="#fff" stroke-linecap="round" stroke-linejoin="round" stroke-width="3"/><path d="M217.286,303.55a21.406,21.406,0,0,0-30.3,0" fill="none" stroke="#fff" stroke-linecap="round" stroke-linejoin="round" stroke-width="3"/><path d="M197.65,314.22a6.34,6.34,0,0,1,8.966,0" fill="none" stroke="#fff" stroke-linecap="round" stroke-linejoin="round" stroke-width="3"/><path d="M211.95,308.886a13.866,13.866,0,0,0-19.633,0" fill="none" stroke="#fff" stroke-linecap="round" stroke-linejoin="round" stroke-width="3"/><path d="M206.616,314.22a6.34,6.34,0,0,0-8.966,0" fill="none" stroke="#fff" stroke-linecap="round" stroke-linejoin="round" stroke-width="3"/><g transform="translate(178.079 327.9)" fill="#70bfe0" stroke="#fff" stroke-linecap="round" stroke-linejoin="round" stroke-width="3"><rect width="48.109" height="80.886" rx="6.433" stroke="none"/><rect x="-1.5" y="-1.5" width="51.109" height="83.886" rx="7.933" fill="none"/></g><path d="M2.625,0H61.77a2.624,2.624,0,0,1,2.624,2.624V38.155a2.625,2.625,0,0,1-2.625,2.625H2.625A2.625,2.625,0,0,1,0,38.155V2.625A2.625,2.625,0,0,1,2.625,0Z" transform="translate(222.523 331.565) rotate(90)" fill="#70bfe0" stroke="#fff" stroke-linecap="round" stroke-linejoin="round" stroke-width="2"/><circle cx="3.19" cy="3.19" r="3.19" transform="translate(198.027 399.056)" fill="#70bfe0" stroke="#fff" stroke-linecap="round" stroke-linejoin="round" stroke-width="2"/><line y1="22.623" x2="22.623" transform="translate(188.577 343.659)" stroke-width="2" stroke="#fff" stroke-linecap="round" stroke-linejoin="round" fill="#70bfe0"/><line y1="17.709" x2="17.709" transform="translate(188.577 356.939)" stroke-width="2" stroke="#fff" stroke-linecap="round" stroke-linejoin="round" fill="#70bfe0"/><path d="M3.075,0H103.5a3.075,3.075,0,0,1,3.075,3.075v68.12a0,0,0,0,1,0,0H0a0,0,0,0,1,0,0V3.075A3.075,3.075,0,0,1,3.075,0Z" transform="translate(297.451 322.473)" fill="#70bfe0" stroke="#fff" stroke-linecap="round" stroke-linejoin="round" stroke-width="3"/><rect width="90.194" height="56.627" transform="translate(305.727 329.868)" stroke-width="2" stroke="#fff" stroke-linecap="round" stroke-linejoin="round" fill="#70bfe0"/><rect width="121.253" height="5.221" transform="translate(290.255 393.667)" stroke-width="3" stroke="#fff" stroke-linecap="round" stroke-linejoin="round" fill="#70bfe0"/><line y1="16.451" x2="16.452" transform="translate(311.695 338.007)" stroke-width="2" stroke="#fff" stroke-linecap="round" stroke-linejoin="round" fill="#70bfe0"/><line y1="29.306" x2="29.306" transform="translate(309.603 335.611)" stroke-width="2" stroke="#fff" stroke-linecap="round" stroke-linejoin="round" fill="#70bfe0"/><text transform="translate(350.576 364.263)" fill="#fff" font-size="12.549" font-family="JosefinSans-Bold, Josefin Sans" font-weight="700" letter-spacing="0.1em"><tspan x="-13.045" y="0">PAY</tspan></text><rect width="36.315" height="19.296" transform="translate(332.313 349.963)" stroke-width="2" stroke="#fff" stroke-linecap="round" stroke-linejoin="round" fill="none"/><path d="M409.958,357.371l-20.834-7.55,7.635,20.749,5.044-5.043,10.911,10.911a2.2,2.2,0,1,0,3.112-3.111l-10.912-10.912Z" fill="#70bfe0" stroke="#fff" stroke-linecap="round" stroke-linejoin="round" stroke-width="3"/><rect width="90.659" height="49.304" transform="translate(54.906 120.364)" stroke-width="3" stroke="#fff" stroke-linecap="round" stroke-linejoin="round" fill="#70bfe0"/><rect width="53.769" height="5.475" transform="translate(62.584 135.583)" stroke-width="2" stroke="#fff" stroke-linecap="round" stroke-linejoin="round" fill="#70bfe0"/><rect width="18.347" height="5.475" transform="translate(119.54 135.583)" stroke-width="2" stroke="#fff" stroke-linecap="round" stroke-linejoin="round" fill="#70bfe0"/><rect width="75.304" height="16.441" transform="translate(62.584 146.064)" stroke-width="2" stroke="#fff" stroke-linecap="round" stroke-linejoin="round" fill="#70bfe0"/><line x2="55.594" transform="translate(62.584 128.308)" stroke-width="2" stroke="#fff" stroke-linecap="round" stroke-linejoin="round" fill="#70bfe0"/><line x2="14.052" transform="translate(123.835 128.308)" stroke-width="2" stroke="#fff" stroke-linecap="round" stroke-linejoin="round" fill="#70bfe0"/><path d="M171.849,91.822l-59.066,59.066-7.9-7.9L163.95,83.923a5.6,5.6,0,0,1,7.9,0h0A5.6,5.6,0,0,1,171.849,91.822Z" fill="#70bfe0" stroke="#fff" stroke-linecap="round" stroke-linejoin="round" stroke-width="3"/><path d="M104.884,142.99l-2.368,10.267,10.267-2.368Z" fill="#70bfe0" stroke="#fff" stroke-linecap="round" stroke-linejoin="round" stroke-width="3"/><line x2="7.722" y2="7.722" transform="translate(149.524 98.441)" stroke-width="2" stroke="#fff" stroke-linecap="round" stroke-linejoin="round" fill="none"/><path d="M170.5,93.723h0a5.815,5.815,0,0,1,0,8.2l-15.212,15.213" fill="none" stroke="#fff" stroke-linecap="round" stroke-linejoin="round" stroke-width="3"/><circle cx="15.211" cy="15.211" r="15.211" transform="translate(425.88 252.235) rotate(-67.718)" fill="#fff"/><circle cx="12.676" cy="12.676" r="12.676" transform="translate(433.047 231.252)" fill="none" stroke="#70bfe0" stroke-miterlimit="10" stroke-width="2"/><text transform="translate(441.306 251.783)" fill="#70bfe0" font-size="20.237" font-family="Helvetica"><tspan x="0" y="0">$</tspan></text><circle cx="15.211" cy="15.211" r="15.211" transform="translate(238.485 287.267)" fill="#fff"/><circle cx="12.676" cy="12.676" r="12.676" transform="translate(241.02 289.803)" fill="none" stroke="#70bfe0" stroke-miterlimit="10" stroke-width="2"/><text transform="translate(245.503 310.213)" fill="#70bfe0" font-size="20.237" font-family="Helvetica"><tspan x="0" y="0">€</tspan></text><circle cx="15.211" cy="15.211" r="15.211" transform="translate(184.355 108.413)" fill="#fff"/><circle cx="12.676" cy="12.676" r="12.676" transform="translate(186.891 110.949)" fill="none" stroke="#70bfe0" stroke-miterlimit="10" stroke-width="2"/><text transform="translate(191.374 131.358)" fill="#70bfe0" font-size="20.237" font-family="Helvetica"><tspan x="0" y="0">€</tspan></text></g></svg>