<svg xmlns="http://www.w3.org/2000/svg" xmlns:xlink="http://www.w3.org/1999/xlink" width="445.723" height="450.244" viewBox="0 0 445.723 450.244"><defs><linearGradient id="a" x1="0.828" y1="-81.549" x2="1.828" y2="-81.549" gradientUnits="objectBoundingBox"><stop offset="0" stop-color="#db846d"/><stop offset="1" stop-color="#991920"/></linearGradient><linearGradient id="b" x1="60.438" y1="31.616" x2="61.438" y2="31.616" xlink:href="#a"/><clipPath id="c"><path d="M1.745,0H9.4a1.743,1.743,0,0,1,1.743,1.743V5.558A1.743,1.743,0,0,1,9.4,7.3H1.745A1.745,1.745,0,0,1,0,5.556V1.745A1.745,1.745,0,0,1,1.745,0Z" transform="translate(141.31 94.554) rotate(-1.838)" fill="none"/></clipPath><linearGradient id="d" y1="0.5" x2="1" y2="0.5" gradientUnits="objectBoundingBox"><stop offset="0" stop-color="#d4d4d5"/><stop offset="1" stop-color="#9e9e9e"/></linearGradient><linearGradient id="e" x1="0.5" y1="-1.571" x2="0.5" y2="-2.573" gradientUnits="objectBoundingBox"><stop offset="0" stop-color="#4a82a5"/><stop offset="1" stop-color="#62acd7"/></linearGradient><linearGradient id="f" x1="0.5" y1="-0.141" x2="0.5" y2="1.08" gradientUnits="objectBoundingBox"><stop offset="0" stop-color="#fff"/><stop offset="1" stop-color="#cfd1d2"/></linearGradient><radialGradient id="g" cx="-0.044" cy="0.173" r="1.515" gradientTransform="translate(0.023)" gradientUnits="objectBoundingBox"><stop offset="0" stop-color="#babcbe"/><stop offset="1" stop-color="#6d6e70"/></radialGradient><linearGradient id="h" x1="55.269" y1="-26.833" x2="55.269" y2="-25.773" gradientUnits="objectBoundingBox"><stop offset="0" stop-color="#fff"/><stop offset="1" stop-color="#e5e5e6"/></linearGradient><linearGradient id="i" x1="0.5" y1="-0.296" x2="0.5" y2="0.854" gradientUnits="objectBoundingBox"><stop offset="0" stop-color="#e5e5e6"/><stop offset="1" stop-color="#babcbe"/></linearGradient><linearGradient id="j" x1="0.5" y1="1" x2="0.5" gradientUnits="objectBoundingBox"><stop offset="0" stop-color="#babcbe"/><stop offset="1" stop-color="#9e9e9e"/></linearGradient></defs><g transform="translate(-961 -210)"><path d="M250.1,439.092H250a1.462,1.462,0,0,1,0-2.924,1.5,1.5,0,0,1,1.511,1.462,1.421,1.421,0,0,1-1.411,1.462Zm-9.809-.256h-.09l.089-1.459-.141,1.456a1.462,1.462,0,1,1,.087-2.922l.142.007a1.462,1.462,0,0,1-.087,2.921Zm19.523-.006a1.462,1.462,0,1,1-.043-2.923h.045a1.5,1.5,0,0,1,1.508,1.394A1.42,1.42,0,0,1,260,438.822l-.142.007Zm-29.3-.774a1.518,1.518,0,0,1-.177-.011l.175-1.451-.229,1.445a1.462,1.462,0,1,1,.265-2.912l.14.016a1.462,1.462,0,0,1-.174,2.913Zm39.087-.011a1.462,1.462,0,0,1-.131-2.918,1.5,1.5,0,0,1,1.635,1.3,1.42,1.42,0,0,1-1.23,1.6l-.14.016-.136,0Zm-48.817-1.3a1.472,1.472,0,0,1-.217-.017l-.143-.023a1.462,1.462,0,1,1,.532-2.875,1.5,1.5,0,0,1,1.224,1.688,1.429,1.429,0,0,1-1.4,1.23Zm58.55-.017a1.461,1.461,0,0,1-.275-2.9l.146-.024a1.462,1.462,0,1,1,.438,2.89l-.219-1.445.173,1.452a1.385,1.385,0,0,1-.265.03Zm-68.2-1.815a1.433,1.433,0,0,1-.3-.033l-.1-.022a1.461,1.461,0,1,1,.625-2.855,1.5,1.5,0,0,1,1.164,1.748,1.433,1.433,0,0,1-1.391,1.165Zm77.828-.021a1.462,1.462,0,0,1-.3-2.892,1.5,1.5,0,0,1,1.78,1.111,1.421,1.421,0,0,1-1.069,1.726l-.1.022a1.4,1.4,0,0,1-.313.036Zm-87.349-2.334a1.475,1.475,0,0,1-.4-.054l.4-1.407-.448,1.392a1.462,1.462,0,1,1,.709-2.836l.135.036a1.462,1.462,0,0,1-.4,2.869Zm96.874-.027a1.462,1.462,0,0,1-.394-2.869,1.5,1.5,0,0,1,1.849,1,1.421,1.421,0,0,1-.964,1.79l-.094.026a1.436,1.436,0,0,1-.4.056Zm-106.26-2.844a1.455,1.455,0,0,1-.482-.083l.482-1.379-.529,1.364a1.462,1.462,0,1,1,.872-2.791l.139.047a1.462,1.462,0,0,1-.482,2.842Zm115.645-.033a1.462,1.462,0,0,1-.436-2.857,1.506,1.506,0,0,1,1.869.917,1.422,1.422,0,0,1-.852,1.825l-.145.049a1.469,1.469,0,0,1-.438.069Zm-124.9-3.355a1.4,1.4,0,0,1-.509-.1l-.129-.052a1.464,1.464,0,0,1,1.131-2.7,1.5,1.5,0,0,1,.836,1.912,1.446,1.446,0,0,1-1.328.941Zm134.124-.034a1.461,1.461,0,0,1-.594-2.8l.143-.058a1.462,1.462,0,1,1,1.055,2.727l-.527-1.364.489,1.378a1.454,1.454,0,0,1-.562.12Zm-143.14-3.849a1.446,1.446,0,0,1-.617-.138l.618-1.324-.7,1.287a1.461,1.461,0,0,1,1.22-2.656l.1.045a1.462,1.462,0,0,1-.62,2.786Zm152.125-.019a1.462,1.462,0,0,1-.619-2.786,1.5,1.5,0,0,1,1.986.686,1.42,1.42,0,0,1-.662,1.922l-.088.041a1.46,1.46,0,0,1-.616.14Zm-160.929-4.35a1.453,1.453,0,0,1-.7-.177l.7-1.285-.758,1.253a1.463,1.463,0,1,1,1.343-2.6l.112.06a1.462,1.462,0,0,1-.7,2.747Zm169.705-.006a1.462,1.462,0,0,1-.654-2.77,1.505,1.505,0,0,1,1.99.605,1.42,1.42,0,0,1-.545,1.937l-.138.074a1.467,1.467,0,0,1-.652.157Zm8.532-4.83a1.462,1.462,0,0,1-.741-2.723,1.5,1.5,0,0,1,2.036.487,1.42,1.42,0,0,1-.455,1.974l-.1.061a1.458,1.458,0,0,1-.739.2Zm-186.82-.01a1.391,1.391,0,0,1-.716-.2l-.084-.05a1.463,1.463,0,1,1,1.5-2.512,1.506,1.506,0,0,1,.548,2.03,1.461,1.461,0,0,1-1.247.731Zm195.08-5.273a1.462,1.462,0,0,1-.791-2.692,1.5,1.5,0,0,1,2.043.386,1.419,1.419,0,0,1-.332,1.984c-.016.012-.113.079-.131.089a1.453,1.453,0,0,1-.788.236Zm-203.323-.016a1.457,1.457,0,0,1-.83-.259l.831-1.2-.881,1.168a1.461,1.461,0,0,1,1.6-2.445c.011.006.1.067.111.074a1.462,1.462,0,0,1-.832,2.665ZM359.613,402.2a1.462,1.462,0,0,1-.871-2.637,1.506,1.506,0,0,1,2.075.265,1.42,1.42,0,0,1-.236,2.01l-.1.075a1.458,1.458,0,0,1-.867.29Zm-219.3-.035a1.385,1.385,0,0,1-.838-.284l-.078-.059a1.462,1.462,0,1,1,1.761-2.334,1.505,1.505,0,0,1,.325,2.077,1.471,1.471,0,0,1-1.171.6Zm226.95-6.111a1.462,1.462,0,0,1-.946-2.579l.078-.065a1.462,1.462,0,1,1,1.881,2.238l-.94-1.119.87,1.179a1.456,1.456,0,0,1-.944.349Zm-234.6-.044a1.378,1.378,0,0,1-.884-.322l-.111-.092a1.464,1.464,0,0,1,1.932-2.2,1.5,1.5,0,0,1,.184,2.076,1.477,1.477,0,0,1-1.127.541Zm241.909-6.507a1.462,1.462,0,0,1-.987-2.539,1.5,1.5,0,0,1,2.089.044,1.42,1.42,0,0,1-.02,2.022l-.094.088a1.454,1.454,0,0,1-.994.388ZM125.4,389.469a1.455,1.455,0,0,1-1.011-.407l1.011-1.055-1.047,1.021a1.462,1.462,0,1,1,1.953-2.176l.106.1a1.462,1.462,0,0,1-1.012,2.518Zm256.118-6.9a1.461,1.461,0,0,1-1.077-2.45c.006-.008.081-.086.087-.094a1.463,1.463,0,1,1,2.112,2.024l-1.056-1.012,1.011,1.059a1.457,1.457,0,0,1-1.083.477ZM118.4,382.516a1.38,1.38,0,0,1-1-.432l-.078-.082a1.462,1.462,0,0,1,2.133-2,1.478,1.478,0,0,1-1.055,2.514Zm269.676-7.253a1.459,1.459,0,0,1-1.139-2.37c.014-.016.09-.106.1-.121a1.464,1.464,0,1,1,2.2,1.931l-1.1-.966,1.072.995a1.476,1.476,0,0,1-1.133.531Zm-276.237-.049a1.379,1.379,0,0,1-1.055-.487l-.081-.1a1.462,1.462,0,1,1,2.253-1.863,1.48,1.48,0,0,1-1.117,2.446Zm282.4-7.587a1.462,1.462,0,0,1-1.174-2.332l.076-.1a1.461,1.461,0,0,1,2.316,1.783l-1.158-.891,1.116.947a1.46,1.46,0,0,1-1.179.593Zm-288.552-.056a1.38,1.38,0,0,1-1.1-.547l-.075-.1a1.462,1.462,0,0,1,2.35-1.741,1.481,1.481,0,0,1-1.17,2.386Zm294.293-7.923a1.458,1.458,0,0,1-1.228-2.241l.089-.131a1.461,1.461,0,1,1,2.39,1.682l-1.2-.841,1.174.873a1.478,1.478,0,0,1-1.228.658Zm-300.025-.039A1.384,1.384,0,0,1,98.8,359l-.058-.085a1.462,1.462,0,1,1,2.419-1.643,1.48,1.48,0,0,1-1.209,2.337Zm305.329-8.218a1.463,1.463,0,0,1-1.241-2.233,1.5,1.5,0,0,1,2.032-.516,1.42,1.42,0,0,1,.511,1.962l-.059.1a1.46,1.46,0,0,1-1.246.687Zm-310.622-.038a1.385,1.385,0,0,1-1.2-.674l-.052-.087a1.462,1.462,0,1,1,2.5-1.51,1.5,1.5,0,0,1-.47,2.047,1.519,1.519,0,0,1-.781.224Zm315.47-8.518a1.46,1.46,0,0,1-1.3-2.107c.009-.018.065-.121.073-.138a1.462,1.462,0,0,1,2.553,1.41l-1.28-.706,1.26.741a1.473,1.473,0,0,1-1.309.8Zm-320.307-.012a1.386,1.386,0,0,1-1.237-.739,1.049,1.049,0,0,0-.055-.105,1.463,1.463,0,0,1,2.6-1.341,1.5,1.5,0,0,1-.6,2.008,1.526,1.526,0,0,1-.711.177Zm-4.364-8.775a1.389,1.389,0,0,1-1.275-.809l-.049-.106a1.462,1.462,0,1,1,2.666-1.2,1.5,1.5,0,0,1-.7,1.972,1.531,1.531,0,0,1-.645.143Zm329.052,0a1.444,1.444,0,0,1-.6-.13,1.462,1.462,0,0,1-.73-1.934s.046-.1.048-.1a1.462,1.462,0,0,1,2.649,1.236l-1.324-.618,1.291.691a1.461,1.461,0,0,1-1.337.852ZM81.578,325.053a1.394,1.394,0,0,1-1.309-.877l-.038-.094A1.462,1.462,0,0,1,82.946,323a1.5,1.5,0,0,1-.794,1.944,1.524,1.524,0,0,1-.574.109Zm336.826-.036a1.444,1.444,0,0,1-.564-.115,1.46,1.46,0,0,1-.782-1.913,1.5,1.5,0,0,1,1.912-.836,1.422,1.422,0,0,1,.835,1.838c0,.013-.046.116-.052.129a1.461,1.461,0,0,1-1.353.9ZM78.231,315.881a1.464,1.464,0,0,1-1.385-.993l1.385-.469-1.414.384a1.462,1.462,0,1,1,2.765-.951l.034.1A1.464,1.464,0,0,1,78.7,315.8a1.48,1.48,0,0,1-.469.081Zm343.57-.094a1.461,1.461,0,0,1-1.392-1.911l.04-.119a1.462,1.462,0,0,1,2.766.951l-1.383-.476,1.36.542a1.462,1.462,0,0,1-1.392,1.013Zm-346.5-9.329a1.4,1.4,0,0,1-1.369-1.023c0-.007-.03-.108-.031-.115a1.461,1.461,0,1,1,2.825-.75,1.5,1.5,0,0,1-1.014,1.832A1.547,1.547,0,0,1,75.306,306.458Zm349.378-.054a1.46,1.46,0,0,1-1.409-1.857,1.5,1.5,0,0,1,1.817-1.059,1.421,1.421,0,0,1,1.024,1.756l-.026.094a1.462,1.462,0,0,1-1.406,1.062ZM72.973,296.978a1.463,1.463,0,0,1-1.427-1.15l1.428-.312-1.446.229a1.461,1.461,0,0,1,2.85-.648l.024.106a1.46,1.46,0,0,1-1.115,1.74A1.419,1.419,0,0,1,72.973,296.978Zm354.078-.1a1.462,1.462,0,0,1-1.432-1.766l.023-.1a1.461,1.461,0,1,1,2.855.625l-1.428-.313,1.409.4a1.46,1.46,0,0,1-1.427,1.155ZM71.1,287.293a1.407,1.407,0,0,1-1.415-1.176l-.019-.11a1.462,1.462,0,1,1,2.889-.451,1.5,1.5,0,0,1-1.2,1.716,1.548,1.548,0,0,1-.255.021Zm357.8-.054a1.481,1.481,0,0,1-.272-.025,1.461,1.461,0,0,1-1.167-1.706,1.512,1.512,0,0,1,1.689-1.22,1.42,1.42,0,0,1,1.208,1.612c0,.018-.021.13-.024.147a1.462,1.462,0,0,1-1.44,1.192ZM69.79,277.567a1.411,1.411,0,0,1-1.435-1.259l-.01-.1a1.462,1.462,0,1,1,2.907-.309,1.505,1.505,0,0,1-1.294,1.657,1.594,1.594,0,0,1-.174.011Zm360.426-.052a1.022,1.022,0,0,1-.135-.006,1.462,1.462,0,0,1-1.323-1.589c0-.014.014-.125.016-.14a1.462,1.462,0,0,1,2.9.352l-1.451-.176,1.445.229a1.463,1.463,0,0,1-1.458,1.33ZM69,267.786a1.417,1.417,0,0,1-1.449-1.325l-.007-.119a1.462,1.462,0,1,1,2.921-.133,1.5,1.5,0,0,1-1.38,1.574Zm362-.054h-.045a1.461,1.461,0,0,1-1.417-1.5c0-.015.006-.126.007-.142a1.445,1.445,0,0,1,1.548-1.37,1.462,1.462,0,0,1,1.37,1.548L431,266.179l1.456.141a1.462,1.462,0,0,1-1.46,1.412ZM68.735,257.973a1.422,1.422,0,0,1-1.462-1.413v-.1a1.462,1.462,0,1,1,2.924,0A1.5,1.5,0,0,1,68.735,257.973Zm362.531-.049a1.465,1.465,0,0,1-1.45-1.652,1.624,1.624,0,0,1-.013-.2,1.5,1.5,0,0,1,1.462-1.51,1.421,1.421,0,0,1,1.462,1.413v.1a1.327,1.327,0,0,1-.007.141,1.481,1.481,0,0,1,.007.149v.1a1.461,1.461,0,0,1-1.461,1.459ZM68.984,248.163h-.072a1.422,1.422,0,0,1-1.387-1.478c0-.007.006-.111.006-.118a1.462,1.462,0,0,1,2.919.174,1.51,1.51,0,0,1-1.466,1.422Zm362-.44a1.463,1.463,0,0,1-1.458-1.375,1.5,1.5,0,0,1,1.368-1.6,1.428,1.428,0,0,1,1.544,1.323l.006.1a1.461,1.461,0,0,1-1.372,1.546.443.443,0,0,1-.084.006ZM69.757,238.38a1.461,1.461,0,0,1-1.45-1.567l.01-.1a1.462,1.462,0,0,1,2.907.308,1.513,1.513,0,0,1-1.467,1.359Zm360.428-.437a1.463,1.463,0,0,1-1.454-1.33,1.5,1.5,0,0,1,1.3-1.634,1.419,1.419,0,0,1,1.6,1.229c0,.015.014.126.016.141a1.461,1.461,0,0,1-1.324,1.587,1.233,1.233,0,0,1-.138.007ZM71.064,228.7a1.421,1.421,0,0,1-.242-.02,1.462,1.462,0,0,1-1.2-1.68l1.442.24-1.429-.318a1.461,1.461,0,1,1,2.889.444l-.018.115a1.462,1.462,0,0,1-1.44,1.219Zm357.769-.525a1.41,1.41,0,0,1-1.412-1.153c0-.015-.02-.119-.023-.133a1.462,1.462,0,1,1,2.889-.45v.006a1.5,1.5,0,0,1-1.194,1.708,1.561,1.561,0,0,1-.26.023Zm-355.95-9.167a1.37,1.37,0,0,1-.29-.031,1.421,1.421,0,0,1-1.132-1.689l.02-.1a1.462,1.462,0,1,1,2.859.615,1.523,1.523,0,0,1-1.457,1.206Zm354.123-.426a1.463,1.463,0,0,1-1.417-1.108c0-.016-.029-.126-.032-.142a1.461,1.461,0,1,1,2.857-.615l-1.429.308,1.44-.26a1.463,1.463,0,0,1-1.064,1.773,1.5,1.5,0,0,1-.355.045ZM75.241,209.53a1.464,1.464,0,0,1-1.409-1.858l1.408.4-1.387-.469a1.462,1.462,0,1,1,2.825.751c0,.006-.029.107-.031.114A1.463,1.463,0,0,1,75.241,209.53Zm349.389-.47a1.461,1.461,0,0,1-1.406-1.066,1.5,1.5,0,0,1,1-1.85,1.422,1.422,0,0,1,1.79.964l.026.094a1.464,1.464,0,0,1-1.408,1.858ZM78.1,200.092a1.388,1.388,0,0,1-.443-.072,1.422,1.422,0,0,1-.934-1.8l.036-.106a1.462,1.462,0,1,1,2.764.951,1.53,1.53,0,0,1-1.423,1.027Zm343.642-.41a1.463,1.463,0,0,1-1.393-1.02,1.5,1.5,0,0,1,.916-1.876,1.423,1.423,0,0,1,1.826.859c.005.013.04.119.045.132a1.466,1.466,0,0,1-1.394,1.9ZM81.487,190.908a1.464,1.464,0,0,1-1.355-2.01l1.356.547-1.327-.618a1.462,1.462,0,1,1,2.726,1.055l-.043.11a1.465,1.465,0,0,1-1.357.916Zm336.853-.434a1.459,1.459,0,0,1-1.345-.889c-.007-.015-.049-.12-.055-.135a1.462,1.462,0,1,1,2.727-1.056l-1.363.528,1.381-.483a1.462,1.462,0,0,1-.773,1.917A1.447,1.447,0,0,1,418.34,190.474Zm-332.974-8.6a1.463,1.463,0,0,1-1.324-2.081l1.325.619-1.288-.7a1.462,1.462,0,1,1,2.657,1.22l-.045.1a1.463,1.463,0,0,1-1.325.842Zm329.087-.392a1.461,1.461,0,0,1-1.325-.843,1.5,1.5,0,0,1,.685-1.987,1.421,1.421,0,0,1,1.922.663l.041.087a1.461,1.461,0,0,1-.706,1.943,1.445,1.445,0,0,1-.617.137Zm-324.73-8.467a1.4,1.4,0,0,1-.653-.161,1.422,1.422,0,0,1-.633-1.929l.051-.1a1.462,1.462,0,1,1,2.578,1.378,1.539,1.539,0,0,1-1.343.812Zm320.358-.3a1.463,1.463,0,0,1-1.3-.8,1.5,1.5,0,0,1,.594-2,1.423,1.423,0,0,1,1.943.543l.069.129a1.462,1.462,0,0,1-1.3,2.124Zm-315.52-8.252a1.4,1.4,0,0,1-.726-.2,1.421,1.421,0,0,1-.524-1.958l.061-.1a1.462,1.462,0,1,1,2.491,1.53,1.539,1.539,0,0,1-1.3.724Zm310.677-.27a1.463,1.463,0,0,1-1.251-.7l-.055-.093a1.462,1.462,0,0,1,2.511-1.5l-1.256.749,1.3-.676a1.462,1.462,0,0,1-1.249,2.221Zm-305.383-8.01a1.406,1.406,0,0,1-.794-.242,1.421,1.421,0,0,1-.417-1.983l.065-.1a1.462,1.462,0,1,1,2.406,1.662,1.542,1.542,0,0,1-1.26.663Zm300.086-.245a1.46,1.46,0,0,1-1.216-.651,1.5,1.5,0,0,1,.367-2.061,1.423,1.423,0,0,1,2,.339c0,.006.063.093.067.1a1.462,1.462,0,0,1-1.215,2.273Zm-294.352-7.733a1.445,1.445,0,0,1-1.17-2.289c0-.005.067-.087.07-.092a1.462,1.462,0,0,1,2.313,1.789,1.543,1.543,0,0,1-1.213.592Zm288.615-.224a1.457,1.457,0,0,1-1.159-.57l-.068-.088a1.462,1.462,0,1,1,2.334-1.762l-1.167.881,1.217-.814a1.461,1.461,0,0,1-1.157,2.353Zm-282.461-7.432a1.445,1.445,0,0,1-1.125-2.352l.072-.085a1.462,1.462,0,1,1,2.217,1.907,1.543,1.543,0,0,1-1.164.53Zm276.3-.2a1.458,1.458,0,0,1-1.129-.533,1.5,1.5,0,0,1,.148-2.079,1.423,1.423,0,0,1,2.014.11l.094.111a1.462,1.462,0,0,1-1.127,2.391Zm-269.759-7.054a1.463,1.463,0,0,1-1.056-2.474l1.056,1.012-1.01-1.06a1.462,1.462,0,1,1,2.153,1.978l-.088.093a1.456,1.456,0,0,1-1.051.447Zm263.2-.242a1.456,1.456,0,0,1-1.055-.451,1.5,1.5,0,0,1,.01-2.1,1.42,1.42,0,0,1,2.034.008l.067.071a1.461,1.461,0,0,1-1.056,2.473ZM125.238,126.3a1.445,1.445,0,0,1-1.032-2.466l.082-.078a1.462,1.462,0,0,1,2,2.133,1.54,1.54,0,0,1-1.046.407Zm249.294-.178a1.456,1.456,0,0,1-1-.4l-.082-.078a1.462,1.462,0,1,1,2.023-2.11l-1.011,1.055,1.07-1a1.463,1.463,0,0,1-1,2.529Zm-241.991-6.383a1.441,1.441,0,0,1-1.1-.5,1.422,1.422,0,0,1,.123-2.024l.085-.072a1.462,1.462,0,1,1,1.885,2.235,1.539,1.539,0,0,1-.989.357Zm234.679-.169a1.451,1.451,0,0,1-.931-.336l-.1-.081a1.461,1.461,0,0,1,1.906-2.216l-.953,1.108,1.006-1.063a1.461,1.461,0,0,1-.932,2.588Zm-227.068-5.94A1.462,1.462,0,0,1,139.27,111l.881,1.167-.828-1.207a1.461,1.461,0,0,1,1.81,2.295l-.1.079a1.46,1.46,0,0,1-.877.291Zm219.412-.21a1.455,1.455,0,0,1-.869-.287,1.249,1.249,0,0,1-.1-.075,1.462,1.462,0,1,1,1.783-2.317l-.892,1.159.947-1.117a1.462,1.462,0,0,1-.871,2.637ZM148.108,107.89a1.462,1.462,0,0,1-.818-2.675l.816,1.213-.761-1.25a1.462,1.462,0,1,1,1.683,2.391l-.106.072a1.457,1.457,0,0,1-.81.245Zm203.48-.2a1.446,1.446,0,0,1-.84-.267,1.5,1.5,0,0,1-.407-2.046,1.418,1.418,0,0,1,1.972-.423l.117.079a1.462,1.462,0,0,1-.842,2.657Zm-195.229-5.1a1.462,1.462,0,0,1-.75-2.717l.749,1.255-.692-1.29a1.462,1.462,0,1,1,1.55,2.479l-.109.066a1.448,1.448,0,0,1-.744.206Zm186.95-.195a1.448,1.448,0,0,1-.753-.211l-.087-.052a1.462,1.462,0,1,1,1.517-2.5l-.759,1.249.838-1.2a1.462,1.462,0,0,1-.756,2.714Zm-178.37-4.688a1.468,1.468,0,0,1-1.307-.76A1.421,1.421,0,0,1,164.2,95l.094-.05a1.462,1.462,0,1,1,1.36,2.588,1.516,1.516,0,0,1-.711.168Zm169.817-.148a1.465,1.465,0,0,1-.67-.163l-.1-.056a1.462,1.462,0,1,1,1.379-2.578l-.689,1.289.757-1.253a1.462,1.462,0,0,1-.672,2.761ZM173.72,93.337a1.474,1.474,0,0,1-1.346-.827,1.422,1.422,0,0,1,.663-1.922l.088-.041a1.462,1.462,0,1,1,1.236,2.649,1.508,1.508,0,0,1-.641.141Zm152.233-.143a1.464,1.464,0,0,1-.6-.13l-.1-.048a1.462,1.462,0,0,1,1.236-2.65l-.618,1.325.691-1.291a1.462,1.462,0,0,1-.6,2.794Zm-143.235-3.74a1.482,1.482,0,0,1-1.385-.906,1.422,1.422,0,0,1,.767-1.879l.1-.041a1.462,1.462,0,1,1,1.07,2.721A1.508,1.508,0,0,1,182.718,89.454Zm134.2-.139a1.452,1.452,0,0,1-.527-.1l-.111-.044a1.462,1.462,0,0,1,1.094-2.712l-.547,1.356.618-1.327a1.462,1.462,0,0,1-.527,2.826ZM191.853,86.088a1.462,1.462,0,0,1-.462-2.849l.462,1.387-.389-1.411a1.462,1.462,0,1,1,.964,2.76l-.112.038a1.466,1.466,0,0,1-.463.075Zm115.831-.155a1.449,1.449,0,0,1-.49-.085,1.5,1.5,0,0,1-.94-1.865,1.425,1.425,0,0,1,1.793-.933l.126.043a1.462,1.462,0,0,1-.489,2.84ZM201.315,83.172a1.49,1.49,0,0,1-1.445-1.065,1.42,1.42,0,0,1,.967-1.779l.114-.032a1.462,1.462,0,0,1,.751,2.826,1.507,1.507,0,0,1-.387.05Zm96.984-.1a1.439,1.439,0,0,1-.376-.05l-.114-.031a1.462,1.462,0,0,1,.791-2.815l-.4,1.408.469-1.387a1.462,1.462,0,0,1-.374,2.875Zm-87.546-2.246a1.462,1.462,0,0,1-.306-2.891l.307,1.429-.238-1.444a1.462,1.462,0,0,1,.667,2.846l-.121.027a1.49,1.49,0,0,1-.309.028Zm78.017-.1a1.451,1.451,0,0,1-.3-.032l-.1-.022A1.462,1.462,0,0,1,289,77.815l-.312,1.428.4-1.409a1.462,1.462,0,0,1-.3,2.892Zm-68.288-1.764A1.5,1.5,0,0,1,219,77.729a1.42,1.42,0,0,1,1.151-1.665l.121-.02a1.462,1.462,0,1,1,.437,2.891,1.525,1.525,0,0,1-.227.017Zm58.646-.063a1.611,1.611,0,0,1-.228-.017l-.11-.018a1.462,1.462,0,1,1,.48-2.884l-.24,1.442.322-1.429a1.462,1.462,0,0,1-.224,2.906Zm-49.014-1.25a1.462,1.462,0,0,1-.153-2.916l.155,1.454-.079-1.462a1.462,1.462,0,1,1,.351,2.9l-.118.013a1.386,1.386,0,0,1-.156,0ZM269.4,77.6a1.052,1.052,0,0,1-.156-.008,1.5,1.5,0,0,1-1.348-1.613,1.424,1.424,0,0,1,1.56-1.305l.1.01A1.462,1.462,0,0,1,269.4,77.6Zm-29.408-.755a1.5,1.5,0,0,1-1.507-1.382,1.419,1.419,0,0,1,1.323-1.533l.12-.007a1.462,1.462,0,1,1,.131,2.921Zm19.624-.021h-.09a1.5,1.5,0,0,1-1.419-1.539,1.437,1.437,0,0,1,1.478-1.386l.119.007a1.461,1.461,0,1,1-.088,2.92Zm-9.81-.25a1.5,1.5,0,0,1-1.511-1.462,1.422,1.422,0,0,1,1.413-1.462h.1a1.462,1.462,0,1,1,0,2.924Z" transform="translate(933.861 160.244)" fill="#fff"/><path d="M209.835,96.144a46.388,46.388,0,1,1-46.388-46.388,46.388,46.388,0,0,1,46.388,46.388Z" transform="translate(933.861 160.244)" fill="#fff"/><path d="M379.8,96.144a46.388,46.388,0,1,1-46.388-46.388A46.388,46.388,0,0,1,379.8,96.144Z" transform="translate(933.861 160.244)" fill="#fff"/><circle cx="46.388" cy="46.388" r="46.388" transform="translate(1313.947 329.777)" fill="#fff"/><circle cx="46.388" cy="46.388" r="46.388" transform="translate(961 329.777)" fill="#fff"/><circle cx="46.388" cy="46.388" r="46.388" transform="translate(1286.091 471.086)" fill="#fff"/><circle cx="46.388" cy="46.388" r="46.388" transform="translate(985.931 471.086)" fill="#fff"/><path d="M351.635,116.624l-23.289-12.547V79.657L351.635,92.2Z" transform="translate(933.861 160.244)" fill="#d3b180"/><path d="M372.927,81.644,350.085,69.67l8.952-11.109L383.02,69.854Z" transform="translate(933.861 160.244)" fill="#e4ca97"/><path d="M351.635,116.624l21.292-11.873V81.644L351.635,92.2Z" transform="translate(933.861 160.244)" fill="#ac8559"/><path d="M328.346,79.657,351.635,92.2l21.292-10.56L350.085,69.67Z" transform="translate(933.861 160.244)" fill="#ac8559"/><path d="M318.31,68.743l10.036,10.913,21.739-9.987L340.046,58.757Z" transform="translate(933.861 160.244)" fill="#d3b180"/><path d="M350.085,69.67l22.842,11.974L351.635,92.2Z" transform="translate(933.861 160.244)" fill="#c69b74"/><path d="M328.346,94.933l12.688,6.818,10.6-9.546L328.346,79.657Z" transform="translate(933.861 160.244)" fill="#d3b180" opacity="0.4" style="mix-blend-mode:multiply;isolation:isolate"/><path d="M351.635,92.2l9.859,10.491,11.433-6.25v-14.8Z" transform="translate(933.861 160.244)" fill="#ac8559" opacity="0.4" style="mix-blend-mode:multiply;isolation:isolate"/><path d="M340.8,100.127,317.516,87.579l10.83-7.922L351.635,92.2Z" transform="translate(933.861 160.244)" fill="#e4ca97"/><path d="M361.914,100.4l21.292-11.875L372.927,81.64,351.635,92.2Z" transform="translate(933.861 160.244)" fill="#e4ca97"/><path d="M318.654,129.827,295.363,117.28V92.859l23.291,12.548Z" transform="translate(933.861 160.244)" fill="#d3b180"/><path d="M318.654,129.827l21.293-11.874V94.846l-21.293,10.561Z" transform="translate(933.861 160.244)" fill="#ac8559"/><path d="M295.363,92.859l23.291,12.548,21.293-10.561L317.1,82.873Z" transform="translate(933.861 160.244)" fill="#e4ca97"/><path d="M303.308,89.212l22.722,12.5,6.441-3.193L309.588,86.327Z" transform="translate(933.861 160.244)" fill="#fff" opacity="0.7"/><path d="M326.162,125.639l-.133-23.929,6.441-3.193-.03,23.622Z" transform="translate(933.861 160.244)" fill="#fff" opacity="0.7"/><path d="M309.539,124.919l-5.723-3.084V97.464l5.723,3.082Z" transform="translate(933.861 160.244)" fill="#fff" opacity="0.5"/><path d="M330,89.665l-5.395-2.829L303.816,97.464l5.723,3.082Z" transform="translate(933.861 160.244)" fill="#fff" opacity="0.7"/><path d="M441.5,245.232l-49.562-28.685,20.851-9.222L460.986,234Z" transform="translate(933.861 160.244)" fill="#434244"/><path d="M458.668,235.128l2.318,1.129V234l-2.318-1.132Z" transform="translate(933.861 160.244)" fill="#272425"/><path d="M394.265,217.859l-2.323.949v-2.26l2.323-.949Z" transform="translate(933.861 160.244)" fill="#272425"/><path d="M393.465,214.9l27.512,14.821v-26.43l-27.512-14.819Z" transform="translate(933.861 160.244)" fill="#d4d4d5"/><path d="M393.465,206.253l27.512,14.82V209.606l-27.512-14.821Z" transform="translate(933.861 160.244)" fill="#7bb752"/><path d="M393.465,211.13l27.512,14.822v-2.424L393.465,208.71Z" transform="translate(933.861 160.244)" fill="#7bb752"/><path d="M442.167,218.188l-21.19,11.528v-26.43l21.19-11.529Z" transform="translate(933.861 160.244)" fill="#babcbe"/><path d="M442.167,191.756l-21.19,11.529-27.512-14.819,21.193-11.53Z" transform="translate(933.861 160.244)" fill="#e5e5e6"/><path d="M423.731,234.758V212.634l10.937,6.358,6.816,16.274v9.969Z" transform="translate(933.861 160.244)" fill="#589c55"/><path d="M434.668,218.993l17.672-10.046-9.916-5.975-18.692,9.663Z" transform="translate(933.861 160.244)" fill="#95c14e"/><path d="M434.668,218.993l6.816,16.274,18.424-9.943-7.568-16.378Z" transform="translate(933.861 160.244)" fill="#7bb752"/><path d="M459.908,225.324l-18.424,9.943v9.969l18.377-10.6Z" transform="translate(933.861 160.244)" fill="#64ae54"/><path d="M441.5,247.5l19.483-11.235V234L441.5,245.232Z" transform="translate(933.861 160.244)" fill="#59595b"/><path d="M448.722,242.34l5.529-3.282V236.4l-5.529,3.13Z" transform="translate(933.861 160.244)" fill="#e5e5e6"/><path d="M441.5,247.5l-49.562-28.687v-2.262L441.5,245.232Z" transform="translate(933.861 160.244)" fill="#59595b"/><path d="M436.809,219.216l4.88,11.646,15.415-8.384-5.542-11.59Z" transform="translate(933.861 160.244)" fill="#bbdeec"/><path d="M427.094,226.366v-9.472l6.07,3.586,4.828,12.236Z" transform="translate(933.861 160.244)" fill="#a1d2e1"/><path d="M443.061,241.041l3.24-1.843v-2.851l-3.24,1.843Z" transform="translate(933.861 160.244)" fill="#f6df5c"/><path d="M455.773,234.238l3.243-1.842v-2.85l-3.243,1.843Z" transform="translate(933.861 160.244)" fill="#f6df5c"/><path d="M396.854,221.363c.768,2.65,3.458,8.147,5.409,8.2,3.747-.976,4.336-3.035,3.547-5.711s-3-4.845-4.941-4.87S396.894,220.6,396.854,221.363Z" transform="translate(933.861 160.244)" fill="#272425"/><path d="M396.731,224.73c.765,2.651,2.963,4.846,4.913,4.9s2.915-2.081,2.128-4.756-2.994-4.843-4.938-4.868S395.965,222.09,396.731,224.73Z" transform="translate(933.861 160.244)" fill="#434244"/><path d="M398.36,224.525c.407,1.467,1.621,2.8,2.73,2.912,1.154.115,1.665-1.113,1.137-2.689-.51-1.5-1.764-2.68-2.794-2.693C398.437,222.042,397.966,223.125,398.36,224.525Z" transform="translate(933.861 160.244)" fill="#919395"/><path d="M398.891,222.192a2.364,2.364,0,0,0-.168,2.021c.41,1.466,1.623,2.8,2.73,2.911a1.174,1.174,0,0,0,.673-.122,1.088,1.088,0,0,1-1.036.435c-1.109-.116-2.323-1.445-2.73-2.912C398.049,223.414,398.285,222.514,398.891,222.192Z" transform="translate(933.861 160.244)" fill="#6d6e70"/><path d="M426.572,238.664c.765,2.65,3.455,8.146,5.406,8.2,3.746-.978,4.332-3.036,3.546-5.712s-2.995-4.845-4.939-4.871S426.611,237.9,426.572,238.664Z" transform="translate(933.861 160.244)" fill="#272425"/><path d="M426.446,242.032c.769,2.649,2.96,4.844,4.911,4.9s2.916-2.079,2.132-4.755-3-4.845-4.938-4.871S425.681,239.391,426.446,242.032Z" transform="translate(933.861 160.244)" fill="#434244"/><path d="M428.072,241.827c.411,1.465,1.625,2.794,2.733,2.908,1.153.121,1.666-1.112,1.137-2.685-.511-1.5-1.763-2.682-2.794-2.7C428.154,239.341,427.679,240.425,428.072,241.827Z" transform="translate(933.861 160.244)" fill="#919395"/><path d="M428.606,239.491a2.381,2.381,0,0,0-.168,2.024c.41,1.464,1.622,2.793,2.731,2.908a1.155,1.155,0,0,0,.673-.123,1.079,1.079,0,0,1-1.037.435c-1.108-.114-2.322-1.443-2.733-2.908C427.762,240.716,428,239.815,428.606,239.491Z" transform="translate(933.861 160.244)" fill="#6d6e70"/><path d="M436.809,219.216l20.3,3.261-15.415,8.384Z" transform="translate(933.861 160.244)" fill="#a1d2e1"/><path d="M52.412,202.524a1.073,1.073,0,0,1-1.023-.747l-2.959-9.233-3.692-2.213a1.075,1.075,0,0,1,.292-1.968l16.158-4.04a1.093,1.093,0,0,1,.828.126l3.5,2.156a1.051,1.051,0,0,1,.463.607s.632,2.078,1.242,4.161c.307,1.044.609,2.09.825,2.879.416,1.506.622,2.262-.35,2.621a1.074,1.074,0,0,1-1.45-.986c-.142-.691-1.206-4.329-2.206-7.661l-2.768-1.7-13.2,3.3,1.81,1.084a1.088,1.088,0,0,1,.475.6l3.084,9.618a1.074,1.074,0,0,1-1.029,1.4Zm14.538-7.672a1.055,1.055,0,0,0-.593.534,1.06,1.06,0,0,1,.593-.534Z" transform="translate(933.861 160.244)" fill="#ced0d1"/><path d="M67.339,196.935A7.624,7.624,0,0,0,67,195.3c-.218-.786-.521-1.834-.828-2.879-.609-2.084-1.236-4.16-1.236-4.16a1.077,1.077,0,0,0-.466-.607l-3.5-2.151a1.073,1.073,0,0,0-.825-.131L44.229,189.35a1.071,1.071,0,0,0,.514.982l3.692,2.213,2.959,9.233a1.073,1.073,0,0,0,1.023.747h.027a1.168,1.168,0,0,0-.047-.355l-3.085-9.62a1.069,1.069,0,0,0-.471-.592l-1.809-1.084,1.968-.5-.928-.556,13.2-3.3,2.768,1.7c1,3.332,2.064,6.97,2.206,7.661a1.066,1.066,0,0,0,1.093,1.048Zm-.582-1.991a1.172,1.172,0,0,0-.146.111c.046-.036.094-.078.146-.111Zm-.291.267a1.015,1.015,0,0,1,.129-.143,1.244,1.244,0,0,0-.129.143Zm-.109.175a.954.954,0,0,1,.1-.168A1.013,1.013,0,0,0,66.357,195.386Z" transform="translate(933.861 160.244)" fill="#909294"/><path d="M77.695,242.47a5.853,5.853,0,1,0,5.853-5.853,5.853,5.853,0,0,0-5.853,5.853Z" transform="translate(933.861 160.244)" fill="#35414f"/><path d="M80.006,242.884a3.053,3.053,0,1,0,.894-2.161,3.053,3.053,0,0,0-.894,2.161Z" transform="translate(933.861 160.244)" fill="#4c5e73"/><path d="M82.156,242.884a2.132,2.132,0,1,0,2.131-2.132,2.132,2.132,0,0,0-2.131,2.132Z" transform="translate(933.861 160.244)" fill="#35414f"/><path d="M54.389,235.9a4.891,4.891,0,1,0,4.892-4.9A4.891,4.891,0,0,0,54.389,235.9Z" transform="translate(933.861 160.244)" fill="#35414f"/><path d="M57.744,236.241a2.55,2.55,0,1,0,.747-1.8,2.551,2.551,0,0,0-.747,1.8Z" transform="translate(933.861 160.244)" fill="#4c5e73"/><path d="M59.54,236.241a1.779,1.779,0,1,0,.52-1.26A1.78,1.78,0,0,0,59.54,236.241Z" transform="translate(933.861 160.244)" fill="#35414f"/><path d="M104.325,232.54a4.984,4.984,0,1,1-4.985-4.986,4.984,4.984,0,0,1,4.985,4.986Z" transform="translate(933.861 160.244)" fill="#35414f"/><path d="M102.352,232.9a2.6,2.6,0,1,1-2.6-2.6,2.6,2.6,0,0,1,2.6,2.6Z" transform="translate(933.861 160.244)" fill="#4c5e73"/><path d="M100.527,232.9a1.816,1.816,0,1,1-.532-1.285,1.815,1.815,0,0,1,.532,1.285Z" transform="translate(933.861 160.244)" fill="#35414f"/><path d="M87.168,241.079a1.111,1.111,0,0,1-.3-.041l-31.643-9.156a1.077,1.077,0,0,1-.775-1.036v-7.5a1.075,1.075,0,1,1,2.15,0v6.694l30.364,8.787,13.5-9.68-7.581-2.591a1.078,1.078,0,1,1,.7-2.04l9.559,3.27a1.073,1.073,0,0,1,.719.86,1.087,1.087,0,0,1-.437,1.035l-15.62,11.2a1.074,1.074,0,0,1-.636.2Z" transform="translate(933.861 160.244)" fill="#b9bbbc"/><path d="M103.136,227.782l-9.559-3.27a1.079,1.079,0,0,0-1.035.194,1.047,1.047,0,0,0,.645.651l8.825,2.656-15.047,10.81L56.6,230.036v-6.694a1.072,1.072,0,0,0-.761-1.027v7.214a1.04,1.04,0,0,0,.752,1.006l30.756,8.9a1.151,1.151,0,0,0,.289.041,1.057,1.057,0,0,0,.611-.2l15.182-10.89a.969.969,0,0,0,.223-.224,1.082,1.082,0,0,0-.516-.385Z" transform="translate(933.861 160.244)" fill="#909294"/><path d="M50.677,206.778l1.346,17.507,34.2,8.836v-17.15Z" transform="translate(933.861 160.244)" fill="#cc5499"/><path d="M86.223,233.121l14.953-10.049,3.566-17.581-18.519,10.48Z" transform="translate(933.861 160.244)" fill="#a8006c"/><path d="M86.223,216.511,46.37,206.239V203.68l39.853,10.271Z" transform="translate(933.861 160.244)" fill="#a8006c"/><path d="M86.223,216.511l20.739-11.655V202.3L86.223,213.952Z" transform="translate(933.861 160.244)" fill="#840058"/><path d="M86.223,213.952,46.37,203.68l23.7-8.754,36.894,7.373Z" transform="translate(933.861 160.244)" fill="#c91188"/><path d="M85.149,211.762l-32.875-8.425,17.662-6.523,30.668,6.265Z" transform="translate(933.861 160.244)" fill="#a8006c"/><path d="M69.935,207.86l15.214,3.9,15.454-8.683-30.668-6.265Z" transform="translate(933.861 160.244)" fill="#840058"/><path d="M98.248,221.167c-.048.634.211,1.15.572,1.15s.7-.516.757-1.148l.707-8.207c.055-.633-.223-1.147-.616-1.147s-.757.514-.8,1.147Z" transform="translate(933.861 160.244)" fill="#fff"/><path d="M93.715,223.73c-.025.637.247,1.155.6,1.155s.67-.518.7-1.155l.378-7.73c.031-.631-.259-1.15-.645-1.15s-.719.519-.742,1.15Z" transform="translate(933.861 160.244)" fill="#fff"/><path d="M89.376,226.286c0,.636.282,1.154.629,1.154s.635-.518.641-1.154l.082-7.266c.01-.631-.295-1.151-.67-1.151s-.682.52-.682,1.151Z" transform="translate(933.861 160.244)" fill="#fff"/><path d="M67.744,182.744c.5.255,1.033,2.663-.145,2.928l-22.723,7.009a3.537,3.537,0,0,1-2.225-.164l-1.61-.77c-.806-.3-.924-2.767-.3-2.962l22.648-7.06a3.7,3.7,0,0,1,2.239.123Z" transform="translate(933.861 160.244)" fill="#d1b22c"/><path d="M43.867,190.23l.11,2.555a3.031,3.031,0,0,0,.9-.1L67.6,185.672c1.178-.265.649-2.673.145-2.928Z" transform="translate(933.861 160.244)" fill="#c59d2a"/><path d="M67.56,182.648c.6.263.583.636-.046.833l-22.721,7.008a3.574,3.574,0,0,1-2.221-.163l-1.612-.772c-.6-.284-.563-.673.064-.873l22.38-6.987a3.739,3.739,0,0,1,2.241.122Z" transform="translate(933.861 160.244)" fill="#f6df5c"/><path d="M74.337,201.073c-.482,0-.867.558-.852,1.241l.141,6.493,1.705.438a1.632,1.632,0,0,0,.041-.393l-.127-6.538C75.23,201.631,74.821,201.073,74.337,201.073Z" transform="translate(933.861 160.244)" fill="#fff"/><path d="M80.236,202.642c-.482,0-.868.559-.858,1.24l.094,6.425,1.707.436a1.593,1.593,0,0,0,.04-.357l-.088-6.5C81.125,203.2,80.72,202.642,80.236,202.642Z" transform="translate(933.861 160.244)" fill="#fff"/><path d="M87,205.344c0-.684-.4-1.24-.887-1.24s-.87.556-.864,1.24l.053,6.33,1.734-.972Z" transform="translate(933.861 160.244)" fill="#fff"/><path d="M92.847,206.656c0-.681-.389-1.242-.873-1.242s-.875.561-.875,1.242v1.759l1.744-.981Z" transform="translate(933.861 160.244)" fill="#fff"/><path d="M58.327,223.3c-.569,0-1.1-.684-1.192-1.519l-.87-8.274c-.087-.832.327-1.518.922-1.518s1.152.688,1.233,1.518l.79,8.274C59.29,222.615,58.892,223.3,58.327,223.3Z" transform="translate(933.861 160.244)" fill="#fff"/><path d="M65.323,225.136c-.559,0-1.071-.687-1.133-1.524l-.592-8.064c-.062-.836.373-1.523.963-1.523s1.114.687,1.171,1.523l.516,8.06C66.3,224.449,65.886,225.136,65.323,225.136Z" transform="translate(933.861 160.244)" fill="#fff"/><path d="M72.2,226.826c-.558,0-1.042-.686-1.075-1.524l-.328-7.881c-.035-.839.417-1.526,1-1.526s1.087.687,1.111,1.526l.253,7.877C73.187,226.14,72.753,226.826,72.2,226.826Z" transform="translate(933.861 160.244)" fill="#fff"/><path d="M79.965,226.8c0,.837-.452,1.525-1,1.525s-1.012-.688-1.02-1.525l-.075-7.724c-.01-.836.459-1.525,1.041-1.525s1.056.689,1.056,1.527Z" transform="translate(933.861 160.244)" fill="#fff"/><path d="M440.084,356.382a5.584,5.584,0,0,1-2.954,7.3L390.823,383.3a15.989,15.989,0,0,1-10.325.194l-16.479-6.276a5.31,5.31,0,0,1-3.006-7.1l6.953-16.2a16,16,0,0,1,7.316-7.286l46.306-19.623a5.584,5.584,0,0,1,7.3,2.949Z" transform="translate(933.861 160.244)" fill="#7568a9"/><path d="M436.838,355.919a4.919,4.919,0,0,1-2.6,6.434l-42.96,18.2a14.1,14.1,0,0,1-9.1.17L367.2,375.379a4.684,4.684,0,0,1-2.653-6.257l6.568-14.479a14.113,14.113,0,0,1,6.457-6.426l42.958-18.205a4.924,4.924,0,0,1,6.434,2.6Z" transform="translate(933.861 160.244)" fill="none" stroke="#fff" stroke-linecap="round" stroke-linejoin="round" stroke-width="1.122" stroke-dasharray="1.683 2.805"/><g transform="translate(933.861 160.244)"><text transform="translate(389.668 359.224) rotate(-22.95)" fill="#fbf361" font-size="14.757" font-family="Helvetica"><tspan x="0" y="0">SAVE</tspan></text><text transform="translate(397.028 373.241) rotate(-22.95)" fill="#fbf361" font-size="17.817" font-family="Helvetica"><tspan x="0" y="0">50%</tspan></text></g><path d="M372.38,366.849s12.173-32.493,12.2-32.719,2.08,2.079,2.042,3.072-5.969,24.872-6.709,26.767a2.68,2.68,0,0,1-2.891,1.792l-2.3,2.128a4.26,4.26,0,0,1-2.342-1.04Z" transform="translate(933.861 160.244)" fill="#cfd1d2"/><path d="M372.38,366.849s12.173-32.493,12.2-32.719c.011-.093.348.22.745.7h0s-9.782,25.767-10.635,28.2-.723,2.928.329,3.268a4.85,4.85,0,0,1,.97.411l-1.269,1.177a4.26,4.26,0,0,1-2.34-1.037Z" transform="translate(933.861 160.244)" fill="#cfd1d2" opacity="0.4" style="mix-blend-mode:multiply;isolation:isolate"/><path d="M386.253,337.69l-5.575,22.543s5.24-22.38,5.293-23.3Z" transform="translate(933.861 160.244)" fill="#fff"/><path d="M365.938,386.488a7.612,7.612,0,0,0,7.294-11.852h0a5.546,5.546,0,0,1,.332-3.2c.579-1.2,2.117-3.651,1.273-4.289s-2.593-1.8-3.4-.517-1.555,4.1-4.987,4.72h0a7.613,7.613,0,0,0-.509,15.14Zm.3-2.234a5.358,5.358,0,1,1,6.027-4.592,5.358,5.358,0,0,1-6.027,4.592Z" transform="translate(933.861 160.244)" fill="#d46537"/><path d="M368.916,384.38a5.77,5.77,0,1,0-4.417-.15,5.773,5.773,0,0,0,4.417.15Zm-.074-.422a5.35,5.35,0,1,1,3-2.8,5.356,5.356,0,0,1-3,2.8Z" transform="translate(933.861 160.244)" fill="url(#a)"/><path d="M369.875,385.974h0c4.346-1.761,4.615-8.15,3.161-10.349s-.884-3.744.119-6,.3-3.32.3-3.32h0a7.4,7.4,0,0,1,1.375.846c.844.638-.694,3.087-1.273,4.289a5.546,5.546,0,0,0-.332,3.2h0a7.611,7.611,0,0,1-3.357,11.338Z" transform="translate(933.861 160.244)" fill="#d46537" style="mix-blend-mode:multiply;isolation:isolate"/><path d="M372.316,366.519a2.986,2.986,0,0,0-1.179,1.461c-.366.991-1.721,3.3-3.165,3.738a3.429,3.429,0,0,0,2.561-1.85C371.463,368.141,372.316,366.519,372.316,366.519Z" transform="translate(933.861 160.244)" fill="#fff" opacity="0.3"/><path d="M381.4,368.067s-3.106-34.557-3.069-34.785-2.551,1.456-2.785,2.426-.848,25.558-.641,27.582a2.686,2.686,0,0,0,2.316,2.5l1.647,2.662A4.272,4.272,0,0,0,381.4,368.067Z" transform="translate(933.861 160.244)" fill="#e5e5e6"/><path d="M377.538,362.385a1.9,1.9,0,1,1,1.416-.339A1.9,1.9,0,0,1,377.538,362.385Z" transform="translate(933.861 160.244)" fill="#6d6e70"/><path d="M379.714,360.8a1.9,1.9,0,0,0-.26-1.288,1.7,1.7,0,0,1-.005.421,1.6,1.6,0,0,1-3.151-.5c.005-.025.01-.047.018-.079a1.9,1.9,0,1,0,3.4,1.444Z" transform="translate(933.861 160.244)" fill="#59595b"/><path d="M381.4,368.067s-3.106-34.557-3.069-34.785c.013-.091-.393.127-.9.481h0s2.585,27.434,2.758,30.016-.08,3.016-1.18,3.067a4.669,4.669,0,0,0-1.05.133l.909,1.471A4.272,4.272,0,0,0,381.4,368.067Z" transform="translate(933.861 160.244)" fill="#e5e5e6" opacity="0.4" style="mix-blend-mode:multiply;isolation:isolate"/><path d="M375.769,336.268l-.613,23.219s.893-22.968,1.085-23.868Z" transform="translate(933.861 160.244)" fill="#fff"/><path d="M390.959,382.19a7.622,7.622,0,0,0-5.033-8.208h0c-3.145-1.515-3.116-4.422-3.556-5.874s-2.442-.79-3.42-.4-.146,3.154.089,4.468a5.525,5.525,0,0,1-.532,3.176h0a7.614,7.614,0,1,0,12.452,6.841Zm-12.852-1.74a5.352,5.352,0,1,1,1.046,3.965,5.356,5.356,0,0,1-1.046-3.965Z" transform="translate(933.861 160.244)" fill="#d46537"/><path d="M388.145,384.609a5.771,5.771,0,1,0-8.062,1.282,5.771,5.771,0,0,0,8.062-1.282Zm-9.069-6.588a5.359,5.359,0,1,1,1.19,7.484,5.359,5.359,0,0,1-1.19-7.484Z" transform="translate(933.861 160.244)" fill="url(#b)"/><path d="M378.734,387.172h0c-3.725-2.853-2.286-9.084-.3-10.822s1.848-3.376,1.482-5.82.583-3.279.583-3.279h.005a7.239,7.239,0,0,0-1.555.451c-.98.387-.146,3.154.089,4.468a5.525,5.525,0,0,1-.532,3.176h0a7.61,7.61,0,0,0,.227,11.823Z" transform="translate(933.861 160.244)" fill="#d46537" style="mix-blend-mode:multiply;isolation:isolate"/><path d="M381.544,367.766a2.986,2.986,0,0,1,.753,1.722c.089,1.053.782,3.635,2.06,4.447a3.435,3.435,0,0,1-1.98-2.468C381.94,369.557,381.544,367.766,381.544,367.766Z" transform="translate(933.861 160.244)" fill="#fff" opacity="0.3"/><path d="M97.649,328.824A30.077,30.077,0,1,0,127.727,358.9a30.077,30.077,0,0,0-30.078-30.077Z" transform="translate(933.861 160.244)" fill="#69b59c"/><path d="M97.649,383.938A25.037,25.037,0,1,1,122.685,358.9,25.037,25.037,0,0,1,97.649,383.938Z" transform="translate(933.861 160.244)" fill="#ced0d1"/><path d="M96.8,382.1a24.045,24.045,0,1,1,24.045-24.046A24.045,24.045,0,0,1,96.8,382.1Z" transform="translate(933.861 160.244)" fill="#f0f0f1"/><path d="M115.172,353.433l-14.892,7.485a3.451,3.451,0,0,0-1.667-.628,3.506,3.506,0,1,0,3.131,3.843,3.294,3.294,0,0,0,.015-.475Z" transform="translate(933.861 160.244)" fill="#cd4245"/><path d="M102.721,364.27a4.337,4.337,0,1,1-3.875-4.753,4.337,4.337,0,0,1,3.875,4.753Z" transform="translate(933.861 160.244)" fill="#4c5e73"/><text transform="translate(1013.862 523.203) rotate(-19.584)" fill="#335980" font-size="18.142" font-family="Helvetica"><tspan x="0" y="0">24</tspan><tspan y="0" fill="#80c6e5">/</tspan><tspan y="0">7</tspan></text><rect width="54.639" height="32.589" rx="2.51" transform="translate(1059.714 240.538) rotate(-24.606)" fill="#9e9e9e"/><rect width="54.639" height="32.59" rx="2.51" transform="translate(1058.137 239.902) rotate(-24.591)" fill="#cfd1d2"/><rect width="54.639" height="7.166" transform="translate(1060.796 245.711) rotate(-24.607)" fill="#434244"/><rect width="33.876" height="4.24" transform="translate(1075.448 252.77) rotate(-24.607)" fill="#fff"/><rect width="56.908" height="33.942" rx="2.614" transform="matrix(0.999, -0.032, 0.032, 0.999, 1072.772, 250.657)" fill="#2f5496"/><rect width="56.909" height="33.943" rx="2.614" transform="translate(1071.511 249.412) rotate(-1.835)" fill="#4275bb"/><rect width="49.923" height="1.537" transform="matrix(0.999, -0.032, 0.032, 0.999, 1075.67, 270.37)" fill="#fff"/><rect width="28.022" height="1.537" transform="matrix(0.999, -0.032, 0.032, 0.999, 1075.844, 275.798)" fill="#fff"/><rect width="6.655" height="4.248" transform="translate(1119.052 273.207) rotate(-1.835)" fill="#fff"/><path d="M168.495,94.34l2.567-.082a1.548,1.548,0,0,1,1.808,1.606,1.238,1.238,0,0,1-.811,1.357,1.3,1.3,0,0,1,1,1.371,1.605,1.605,0,0,1-1.769,1.888l-2.593.084Zm2.576,2.385c.427-.012.642-.28.629-.726-.019-.576-.374-.7-.674-.688l-1.306.041.046,1.416Zm.131,2.705c.36-.012.681-.192.661-.852-.015-.456-.208-.867-.716-.851l-1.349.044.054,1.7Z" transform="translate(933.861 160.244)" fill="#fff"/><path d="M175.258,94.123l1.354-.043,2.218,6.158-1.266.04-.485-1.365-2.041.064-.4,1.4-1.28.04Zm1.506,3.746-.773-2.2-.677,2.247Z" transform="translate(933.861 160.244)" fill="#fff"/><path d="M179.271,94l1.211-.04,2.594,3.942-.128-4.02,1.193-.038.2,6.221-1.194.038-2.6-3.893.127,3.973-1.2.039Z" transform="translate(933.861 160.244)" fill="#fff"/><path d="M185.048,93.809l1.142-.035.084,2.6.5-.015,1.494-2.652,1.388-.044-1.8,3.176,2.005,3.046-1.389.044-1.657-2.52-.495.015L186.4,100l-1.148.036Z" transform="translate(933.861 160.244)" fill="#fff"/><path d="M1.745,0H9.4a1.743,1.743,0,0,1,1.743,1.743V5.558A1.743,1.743,0,0,1,9.4,7.3H1.745A1.745,1.745,0,0,1,0,5.556V1.745A1.745,1.745,0,0,1,1.745,0Z" transform="translate(1075.171 254.798) rotate(-1.838)" fill="#fff"/><g transform="translate(933.861 160.244)" clip-path="url(#c)"><path d="M152.532,96.82l-4.918.159a.153.153,0,0,1-.158-.148.15.15,0,0,1,.147-.158l4.919-.158a.154.154,0,0,1,.158.149.151.151,0,0,1-.148.156Z" fill="#4275bb"/><path d="M152.6,99.015l-4.918.158a.152.152,0,0,1-.158-.148.154.154,0,0,1,.148-.158l4.918-.158a.153.153,0,0,1,.157.149.151.151,0,0,1-.147.157Z" fill="#4275bb"/><path d="M147.712,100.044l-6.164.2a.154.154,0,1,1-.011-.307l6.165-.2a.154.154,0,1,1,.01.307Z" fill="#4275bb"/><path d="M147.774,102.017a.154.154,0,0,1-.158-.148l-.24-7.51a.154.154,0,0,1,.307-.01l.24,7.51a.151.151,0,0,1-.149.158Z" fill="#4275bb"/></g><path d="M208.916,414.209h75.831s-1.925-24.636,3.85-34.644,35.672-53.89,29.9-73.522-5.643-44.268-4.489-57.354,2.694-17.708-3.465-20.018-14.627,3.85-17.707,18.092-4.618,36.183-4.618,36.183-11.293,12.319-10.138,13.474-86.089-30.609-84.164-22.525-3.606,18.254-10.535,23.643-14.621,35.58,14.375,72.4C208.191,383.2,211.611,397.272,208.916,414.209Z" transform="translate(933.861 160.244)" fill="#efc9a2"/><path d="M313.427,259.521c.133-3.953.316-7.868.578-10.832.451-5.1.952-8.9,1.04-11.789h0s-7.454-5.4-9.25-1.811-6.67,17.707-1.8,21.557S313.427,259.521,313.427,259.521Z" transform="translate(933.861 160.244)" fill="#f3d9ba"/><path d="M278.077,296.42c1.154,1.154-86.089-30.609-84.164-22.525s-3.606,18.254-10.535,23.643c-3.909,3.038-10.02,24.922-1.038,38.608,4.575,3.369-.342,5.543,8.722,7.236a120.12,120.12,0,0,1,35.261,13.058c12.085,6.957,17.3-1.7,22.864-2.665,25.106-4.349,40.293,2.841,46.19-5.013,8.084-10.77,8.764-31.475,8.47-41.18-1.156-38.107-11.014-60.789-11.014-60.819-.108.893-3.031,19.53-3.131,20.395-.015.151-.032.3-.051.451-.1.872-.191,1.733-.279,2.563l-.009.091c-.09.862-.178,1.7-.259,2.507a.684.684,0,0,1-.009.091c-.081.824-.157,1.612-.229,2.358,0,.029-.005.059-.008.09-.138,1.5-.258,2.833-.352,3.952a.284.284,0,0,1-.006.071c-.093,1.119-.165,2.015-.213,2.634v.018c-.049.623-.072.962-.072.962S276.922,295.265,278.077,296.42Z" transform="translate(933.861 160.244)" fill="#efc9a2" opacity="0.5" style="mix-blend-mode:multiply;isolation:isolate"/><g transform="translate(933.861 160.244)" opacity="0.5" style="mix-blend-mode:multiply;isolation:isolate"><path d="M265.394,414.209c-20.94-1.7-47.832-7.043-48.392-8.721-.769-2.31,4.62-3.6,10.52-5.906s6.159-4.36-1.54-4.36-8.468-2.57-10.519-5.649-12.08-11.192-12.08-11.192a.6.6,0,0,1-.064.016c5.964,10.828,7.729,22.418,5.6,35.812Z" fill="#efc9a2"/><path d="M257.8,391.883s18.266-2.382,25.15-8.468C282.955,383.415,285.52,394.707,257.8,391.883Z" fill="#efc9a2"/></g><rect width="96.488" height="20.786" transform="translate(1131.8 574.02)" fill="#fff"/><path d="M269.2,422.5c-1.077,5.2-27,9.783-42.468,12.063h67.7V413.776H218.9S270.738,415.06,269.2,422.5Z" transform="translate(933.861 160.244)" fill="#e5f2fc"/><rect width="111.735" height="70.06" transform="translate(1124.177 590.184)" fill="#59595b"/><path d="M190.316,450.215c0-1.54,34.232-22.581,77.858-10.779S285.111,494.353,242,500h60.052V429.94H190.316Z" transform="translate(933.861 160.244)" fill="#59595b" opacity="0.4" style="mix-blend-mode:multiply;isolation:isolate"/><rect width="100.899" height="192.959" rx="14.49" transform="translate(1132.032 317.799)" fill="url(#d)"/><rect width="100.899" height="192.958" rx="14.49" transform="translate(1129.692 316.048)" fill="#e5e5e6"/><rect width="83.954" height="141.289" transform="translate(1138.26 335.956)" fill="url(#e)" style="mix-blend-mode:multiply;isolation:isolate"/><rect width="81.497" height="138.913" transform="translate(1139.394 337.145)" fill="#7ac2da"/><path d="M271.53,166.872a2.652,2.652,0,1,1,.775,1.881,2.654,2.654,0,0,1-.775-1.881Z" transform="translate(933.861 160.244)" fill="url(#f)"/><path d="M276.455,166.878a2.269,2.269,0,1,1-.664-1.607,2.272,2.272,0,0,1,.664,1.607Z" transform="translate(933.861 160.244)" fill="url(#g)"/><path d="M237.277,332.519a8.992,8.992,0,1,1,2.63,6.363,9,9,0,0,1-2.63-6.363Z" transform="translate(933.861 160.244)" fill="url(#h)"/><path d="M254.422,332.522a8.133,8.133,0,1,1-2.378-5.757,8.142,8.142,0,0,1,2.378,5.757Z" transform="translate(933.861 160.244)" fill="url(#i)"/><path d="M258.775,167.017c0,.547-.6.995-1.325.995H235.112c-.727,0-1.329-.448-1.329-.995s.6-.994,1.329-.994H257.45C258.178,166.023,258.775,166.472,258.775,167.017Z" transform="translate(933.861 160.244)" fill="url(#j)"/><path d="M287.029,176.9l-81.5,138.913h81.5Z" transform="translate(933.861 160.244)" fill="#62acd7"/><g transform="translate(933.861 160.244)" opacity="0.5" style="mix-blend-mode:multiply;isolation:isolate"><path d="M175.644,249.6s3.467-10.766,11-7.25c8.469,3.951,29.58,16.194,32.677,18.107,4.965,3.07,1.161,18.693-7.335,17.153S169.13,263.694,175.644,249.6Z" fill="#d4d4d5"/><path d="M169.836,273.429s2.157-11.1,10.06-8.508c8.874,2.911,31.3,12.554,34.6,14.081,5.292,2.453,3.379,18.422-5.242,17.9S165.049,288.2,169.836,273.429Z" fill="#d4d4d5"/><path d="M169.578,297.674s2.057-10.654,10.369-8.721c9.761,2.271,37.387,12.952,41,14.407,5.789,2.334,4.505,18.326-4.757,18S165.154,312.533,169.578,297.674Z" fill="#d4d4d5"/><path d="M176.419,328.974s-2.132-10.355,7.864-11.032,39.438,3.228,43.3,3.736c6.189.814,8.932,16.621-.117,18.618S175.839,344.465,176.419,328.974Z" fill="#d4d4d5"/></g><path d="M173.9,247.858s3.467-10.766,11-7.25c8.469,3.951,29.58,16.194,32.677,18.106,4.965,3.071,1.161,18.693-7.334,17.155S167.386,261.951,173.9,247.858Z" transform="translate(933.861 160.244)" fill="#efc9a2"/><path d="M202.526,269.787c-1.3-3.235,2.868-10.453,4.932-11.554s8.781,1.233,8.474,3.781-1.714,10.962-5.783,10.756C203.663,272.44,202.526,269.787,202.526,269.787Z" transform="translate(933.861 160.244)" fill="#f3d9ba"/><g transform="translate(933.861 160.244)" opacity="0.5" style="mix-blend-mode:multiply;isolation:isolate"><path d="M184.9,240.608c-7.537-3.516-11,7.25-11,7.25-6.513,14.093,27.845,26.471,36.347,28.011,4.823.871,8.128-3.784,9.178-8.535-1.008,3.344-5.678,7.555-10.7,6.167-18.886-5.218-25.436-15.052-26.482-16.819C175.749,245.741,184.9,240.608,184.9,240.608Z" fill="#efc9a2" opacity="0.5" style="mix-blend-mode:multiply;isolation:isolate"/><path d="M219.613,262.317h0a14.74,14.74,0,0,1,.175,1.969A10.537,10.537,0,0,0,219.613,262.317Z" fill="#efc9a2"/></g><path d="M168.092,271.685s2.156-11.1,10.059-8.508c8.875,2.911,31.3,12.552,34.6,14.08,5.292,2.455,3.38,18.423-5.242,17.9S163.3,286.453,168.092,271.685Z" transform="translate(933.861 160.244)" fill="#efc9a2"/><path d="M199.127,290.044c-1.675-3.055,1.6-10.721,3.519-12.059s8.865.174,8.865,2.743-.39,11.09-4.456,11.37C200.565,292.543,199.127,290.044,199.127,290.044Z" transform="translate(933.861 160.244)" fill="#f3d9ba"/><path d="M206.023,293.659c-19.211-3.115-26.924-12.586-28.172-14.291-6.637-9.06-1.194-14.756.421-16.148-.04-.013-.084-.03-.121-.043-7.9-2.592-10.059,8.508-10.059,8.508-4.787,14.768,30.8,22.961,39.42,23.477,3.623.217,6.048-2.489,7.265-5.87a17.043,17.043,0,0,0,.506-3.211C214.844,289.588,211.045,294.478,206.023,293.659Z" transform="translate(933.861 160.244)" fill="#efc9a2" opacity="0.5" style="mix-blend-mode:multiply;isolation:isolate"/><path d="M167.834,295.93s2.057-10.656,10.369-8.722c9.762,2.27,37.386,12.953,41,14.409,5.789,2.333,4.505,18.326-4.757,18S163.41,310.789,167.834,295.93Z" transform="translate(933.861 160.244)" fill="#efc9a2"/><path d="M205.214,314.692c-1.94-3.013,1.2-10.745,3.194-12.126s9.506-.021,9.629,2.544.114,11.086-4.228,11.455C206.877,317.158,205.214,314.692,205.214,314.692Z" transform="translate(933.861 160.244)" fill="#f3d9ba"/><path d="M222.542,311.028c-2.005,6.107-5.891,6.948-14.928,5.793S174.9,306.428,173.74,298.729c-1.149-7.65,7.127-10.751,7.227-10.789-1.014-.287-1.967-.548-2.764-.732-8.312-1.934-10.369,8.722-10.369,8.722-4.424,14.859,37.347,23.363,46.613,23.687C219.288,319.786,221.929,315.5,222.542,311.028Z" transform="translate(933.861 160.244)" fill="#efc9a2" opacity="0.5" style="mix-blend-mode:multiply;isolation:isolate"/><path d="M174.676,327.229s-2.133-10.353,7.864-11.031,39.437,3.228,43.3,3.737c6.189.814,8.932,16.62-.117,18.617S174.1,342.72,174.676,327.229Z" transform="translate(933.861 160.244)" fill="#efc9a2"/><path d="M215.553,336.08c-2.634-2.433-1.515-10.707.066-12.535s9.2-2.394,9.96.06,2.875,10.706-1.238,12.15C217.772,338.052,215.553,336.08,215.553,336.08Z" transform="translate(933.861 160.244)" fill="#f3d9ba"/><path d="M225.721,338.552a6.948,6.948,0,0,0,5.154-4.725c-2.938,5.857-20.191,4.483-26.725,3.522s-21.81-2.232-22.326-13.088c-.271-5.684,2.174-7.587,4.568-8.123-1.459-.02-2.785-.011-3.852.06-10,.678-7.864,11.031-7.864,11.031C174.1,342.72,216.666,340.549,225.721,338.552Z" transform="translate(933.861 160.244)" fill="#efc9a2" opacity="0.5" style="mix-blend-mode:multiply;isolation:isolate"/><rect width="57.011" height="29.204" rx="5.843" transform="translate(1151.327 372.778)" fill="#d4c9ff"/><rect width="57.012" height="29.201" rx="5.843" transform="translate(1150 371)" fill="#7852e8"/><path d="M5.133-1.063a2.257,2.257,0,0,0,1.841-.927,4.413,4.413,0,0,0,.734-2.773A5.176,5.176,0,0,0,7.383-6.7a2.244,2.244,0,0,0-2.25-1.556,2.244,2.244,0,0,0-2.25,1.644,6.514,6.514,0,0,0-.325,2.232,4.732,4.732,0,0,0,.325,1.854A2.243,2.243,0,0,0,5.133-1.063Zm-4.1-8.306H2.575v1.248a3.84,3.84,0,0,1,1.037-.993,3.338,3.338,0,0,1,1.881-.527A3.537,3.537,0,0,1,8.209-8.416a5.023,5.023,0,0,1,1.116,3.5q0,3.076-1.608,4.395A3.634,3.634,0,0,1,5.344.316,3.221,3.221,0,0,1,3.56-.149a4.111,4.111,0,0,1-.94-.905V3.753H1.037ZM12.384-2.5a1.3,1.3,0,0,0,.5,1.081,1.857,1.857,0,0,0,1.187.4,3.608,3.608,0,0,0,1.617-.387,2.176,2.176,0,0,0,1.318-2.1V-4.79a2.707,2.707,0,0,1-.747.308,6.366,6.366,0,0,1-.9.176l-.958.123a3.664,3.664,0,0,0-1.292.36A1.4,1.4,0,0,0,12.384-2.5Zm3.832-3.2a.859.859,0,0,0,.729-.457,1.391,1.391,0,0,0,.105-.606,1.285,1.285,0,0,0-.576-1.173,3.089,3.089,0,0,0-1.648-.365,2.094,2.094,0,0,0-1.758.668,2.2,2.2,0,0,0-.378,1.1H11.215A2.718,2.718,0,0,1,12.344-8.96a4.637,4.637,0,0,1,2.518-.681,5.124,5.124,0,0,1,2.7.633A2.147,2.147,0,0,1,18.589-7.04v5.423a.694.694,0,0,0,.1.4.487.487,0,0,0,.426.149q.105,0,.237-.013t.281-.04V.044a4.406,4.406,0,0,1-.562.132A4.111,4.111,0,0,1,18.545.2a1.3,1.3,0,0,1-1.187-.58,2.239,2.239,0,0,1-.272-.87A4.025,4.025,0,0,1,15.7-.149a4.3,4.3,0,0,1-2,.466,2.967,2.967,0,0,1-2.14-.8,2.642,2.642,0,0,1-.831-1.991,2.564,2.564,0,0,1,.817-2.03,3.889,3.889,0,0,1,2.145-.888ZM27.062-9.413h1.749q-.334.905-1.485,4.131-.861,2.426-1.441,3.955A26.739,26.739,0,0,1,23.95,3.067a2.21,2.21,0,0,1-1.934.791,3.794,3.794,0,0,1-.514-.026,4.062,4.062,0,0,1-.444-.1V2.294a5.458,5.458,0,0,0,.6.141,2.333,2.333,0,0,0,.325.026,1.139,1.139,0,0,0,.646-.145,1.338,1.338,0,0,0,.347-.356q.044-.07.316-.721t.4-.967l-3.48-9.686H22l2.522,7.664Zm7.093,8.35A2.257,2.257,0,0,0,36-1.991a4.413,4.413,0,0,0,.734-2.773A5.176,5.176,0,0,0,36.4-6.7a2.244,2.244,0,0,0-2.25-1.556A2.244,2.244,0,0,0,31.9-6.609a6.514,6.514,0,0,0-.325,2.232A4.732,4.732,0,0,0,31.9-2.522,2.243,2.243,0,0,0,34.154-1.063Zm-4.1-8.306H31.6v1.248a3.84,3.84,0,0,1,1.037-.993,3.338,3.338,0,0,1,1.881-.527A3.537,3.537,0,0,1,37.23-8.416a5.023,5.023,0,0,1,1.116,3.5q0,3.076-1.608,4.395a3.634,3.634,0,0,1-2.373.835,3.221,3.221,0,0,1-1.784-.466,4.111,4.111,0,0,1-.94-.905V3.753H30.059Zm10.178-3.542h1.582V0H40.236Zm7.875,3.287a4.294,4.294,0,0,1,1.942.47,3.582,3.582,0,0,1,1.433,1.217,4.2,4.2,0,0,1,.633,1.661A10.868,10.868,0,0,1,52.26-4.2h-6.9a4.026,4.026,0,0,0,.677,2.3A2.266,2.266,0,0,0,48-1.037a2.534,2.534,0,0,0,1.978-.817,2.755,2.755,0,0,0,.6-1.1h1.556A3.276,3.276,0,0,1,51.719-1.8a4.111,4.111,0,0,1-.778,1.042,3.687,3.687,0,0,1-1.784.949,5.42,5.42,0,0,1-1.292.141A3.964,3.964,0,0,1,44.886-.945a4.976,4.976,0,0,1-1.222-3.582,5.41,5.41,0,0,1,1.23-3.683A4.059,4.059,0,0,1,48.111-9.624Zm2.522,4.166A4.1,4.1,0,0,0,50.186-7.1a2.3,2.3,0,0,0-2.171-1.143,2.406,2.406,0,0,0-1.828.787,2.972,2.972,0,0,0-.782,2Z" transform="translate(1152 391)" fill="#fff"/><path d="M332.041,240.167a3.073,3.073,0,0,1-1.764-3.278h0c.015-.09,1.347-9.2-4.015-16.236-3.555-4.67-9.348-7.5-17.2-8.414a3.072,3.072,0,0,1,.707-6.1c9.617,1.116,16.822,4.768,21.43,10.858,6.931,9.162,5.221,20.391,5.145,20.863a3.078,3.078,0,0,1-4.3,2.31Z" transform="translate(933.861 160.244)" fill="#fff"/><path d="M347.01,241.82a3.079,3.079,0,0,1-1.79-3.112c.152-1.487,3.259-36.5-34.979-40.995a3.071,3.071,0,1,1,.718-6.1c44.314,5.192,40.416,47.3,40.373,47.731a3.074,3.074,0,0,1-3.375,2.732,3.019,3.019,0,0,1-.947-.256Z" transform="translate(933.861 160.244)" fill="#fff"/><path d="M361.919,243.5a3.073,3.073,0,0,1-1.788-3.122c.213-2.023,4.59-49.671-48.826-58.107a3.071,3.071,0,1,1,.958-6.066c59.283,9.351,54.033,64.275,53.977,64.828a3.071,3.071,0,0,1-3.382,2.723,3.029,3.029,0,0,1-.939-.256Z" transform="translate(933.861 160.244)" fill="#fff"/></g></svg>