<svg xmlns="http://www.w3.org/2000/svg" xmlns:xlink="http://www.w3.org/1999/xlink" width="136" height="55" viewBox="0 0 136 55">
  <defs>
    <filter id="사각형_2" x="0" y="0" width="136" height="55" filterUnits="userSpaceOnUse">
      <feOffset dy="3" input="SourceAlpha"/>
      <feGaussianBlur stdDeviation="3" result="blur"/>
      <feFlood flood-opacity="0.161"/>
      <feComposite operator="in" in2="blur"/>
      <feComposite in="SourceGraphic"/>
    </filter>
    <filter id="패스_5" x="15" y="9" width="84.825" height="36.043" filterUnits="userSpaceOnUse">
      <feOffset dy="3" input="SourceAlpha"/>
      <feGaussianBlur stdDeviation="3" result="blur-2"/>
      <feFlood flood-opacity="0.161"/>
      <feComposite operator="in" in2="blur-2"/>
      <feComposite in="SourceGraphic"/>
    </filter>
  </defs>
  <g id="그룹_5" data-name="그룹 5" transform="translate(-1435 -116)">
    <g transform="matrix(1, 0, 0, 1, 1435, 116)" filter="url(#사각형_2)">
      <g id="사각형_2-2" data-name="사각형 2" transform="translate(9 6)" fill="none" stroke="#fff" stroke-width="2">
        <rect width="118" height="37" rx="6" stroke="none"/>
        <rect x="1" y="1" width="116" height="35" rx="5" fill="none"/>
      </g>
    </g>
    <g id="그룹_4" data-name="그룹 4" transform="translate(1459 131)">
      <g transform="matrix(1, 0, 0, 1, -24, -15)" filter="url(#패스_5)">
        <path id="패스_5-2" data-name="패스 5" d="M14.582-14.616h-2.39V3.427h2.39V-5.848h2.572V-7.812H14.582ZM9.662-1.028V-13.2H7.292v4.374H3.465v-4.334H1.116v12.13ZM7.292-2.891H3.465v-4.07H7.292Zm25.454-.628v-1.9H22.419V-7.609h9.8v-5.852H19.969v1.883h9.9v2.086h-9.8v5.974h4.84V-.7H17.984V1.179h16.3V-.7H27.279V-3.519Zm19.46-2.207V-7.69H49.595v-6.926H47.246V3.427h2.349V-5.726Zm-7.351-7.047H36.432v1.964h5.852a11.889,11.889,0,0,1-6.946,9.194L36.777.167A14.342,14.342,0,0,0,44.856-12.773Zm23.085,16.2V-14.616H65.572V3.427Zm-5.549-16.16H53.969v1.964h5.873a11.845,11.845,0,0,1-6.966,9.153L54.333.167C59.841-2.83,62.251-7.285,62.393-12.733Z" transform="translate(22.88 29.62)" fill="#fff"/>
      </g>
      <g id="그룹_3" data-name="그룹 3" transform="translate(76.571 3.375)">
        <path id="Icon_ionic-ios-arrow-forward" data-name="Icon ionic-ios-arrow-forward" d="M15.982,12.122,11.5,7.639a.844.844,0,0,1,0-1.2.854.854,0,0,1,1.2,0l5.083,5.079A.846.846,0,0,1,17.8,12.69L12.7,17.8a.847.847,0,0,1-1.2-1.2Z" transform="translate(-11.246 -6.196)" fill="#fff"/>
        <path id="Icon_ionic-ios-arrow-forward-2" data-name="Icon ionic-ios-arrow-forward" d="M15.982,12.122,11.5,7.639a.844.844,0,0,1,0-1.2.854.854,0,0,1,1.2,0l5.083,5.079A.846.846,0,0,1,17.8,12.69L12.7,17.8a.847.847,0,0,1-1.2-1.2Z" transform="translate(-6.732 -6.196)" fill="#fff"/>
      </g>
    </g>
  </g>
</svg>
