<svg xmlns="http://www.w3.org/2000/svg" xmlns:xlink="http://www.w3.org/1999/xlink" width="317.18" height="71.99" viewBox="0 0 317.18 71.99">
  <defs>
    <clipPath id="clip-path">
      <rect width="317.18" height="71.99" fill="none"/>
    </clipPath>
    <filter id="Rectangle_12" x="0" y="0" width="317.18" height="71.99" filterUnits="userSpaceOnUse">
      <feOffset dx="0.5" dy="0.866" input="SourceAlpha"/>
      <feGaussianBlur stdDeviation="4" result="blur"/>
      <feFlood flood-opacity="0.522"/>
      <feComposite operator="in" in2="blur"/>
      <feComposite in="SourceGraphic"/>
    </filter>
  </defs>
  <g id="반복_그리드_1" data-name="반복 그리드 1" clip-path="url(#clip-path)">
    <g id="그룹_1" data-name="그룹 1" transform="translate(-61.01 -15.366)">
      <g transform="matrix(1, 0, 0, 1, 61.01, 15.37)" filter="url(#Rectangle_12)">
        <rect id="Rectangle_12-2" data-name="Rectangle 12" width="288.18" height="42.99" rx="14" transform="translate(14 13.63)" fill="#7852e8" stroke="#7852e8" stroke-width="5"/>
      </g>
      <path id="패스_1" data-name="패스 1" d="M19.65-10.075c-3.325-.325-7.225-2-7.775-4.6H18.8v-1.6H2.8v1.6h7c-.575,2.6-4.275,4.3-7.775,4.65l.85,1.6C6.65-8.9,9.8-10.75,10.8-12.775c1.125,2,4.425,3.8,7.975,4.3ZM11.725,1.775v-6.95h8.95v-1.6H.95v1.6H9.825v6.95Zm2.65-19.95v-1.65H7.25v1.65ZM23.125-14h4.95v.45c0,2.75-2.625,5.4-5.525,6.275l1.025,1.45A9.363,9.363,0,0,0,29.05-10.8a9.89,9.89,0,0,0,5.275,4.375L35.3-7.9c-2.55-.625-5.25-2.95-5.25-5.7V-14H34.9v-1.55H23.125Zm17.3-6.1h-1.9v7.525h-4.05V-11h4.05v6.85h1.9ZM40.9,1.025V-.55H28.275V-5.5h-1.9V1.025ZM25.975-17.5h6.2v-1.65h-6.2ZM62.05-4.15V-20.1h-1.9V-4.15Zm.55,5.175V-.55H49.7V-5.725H47.8v6.75ZM50.55-18.65c-3.3,0-5.875,2.225-5.875,5.475s2.575,5.4,5.9,5.4S56.45-9.95,56.45-13.2,53.875-18.65,50.55-18.65Zm0,1.65a3.793,3.793,0,0,1,4.1,3.825A3.752,3.752,0,0,1,50.575-9.45,3.812,3.812,0,0,1,46.5-13.2,3.815,3.815,0,0,1,50.55-17ZM90.621-7.05v-1.6H87.046l.875-6.05L86.046-15l-.775,6.35H79.9l-.45-6.375-1.95.275.6,6.1H74.521v1.6ZM92.5-1.15V-2.775H72.771V-1.15ZM90.646-16.2v-1.6H74.5v1.6ZM114.121-1.025v-1.6h-8.95V-6.35H112.3v-1.6H98.721V-11.6h12.95v-6.675H96.8v1.6h12.975v3.5H96.821V-6.35h6.45v3.725H94.4v1.6Zm21.625,0v-1.6H126.8V-7.85h6.525v-10.3H118.4v10.3h6.5v5.225h-8.875v1.6Zm-4.325-8.4H120.3v-7.15h11.125Zm18.15-1.2H153.6V-4.3h1.9V-20.1h-1.9v3.3h-4.025v1.6H153.6v2.975h-4.025ZM150.4-8.85c-2.6-.95-5.525-3.525-5.525-7.175v-2.8h-1.925v2.875c0,3.5-2.625,6.525-5.55,7.825l1.175,1.475a11.267,11.267,0,0,0,5.375-6,11.079,11.079,0,0,0,5.325,5.3Zm5.575,9.925V-.5H143.346V-5.6h-1.9V1.075Zm27.046.375v-7.4h-13.9v7.4Zm-16.5-15.7h4.875c-.15,2.675-2.7,5.175-5.5,6l1.05,1.45a9.6,9.6,0,0,0,5.5-5,9.839,9.839,0,0,0,5.25,4.375l.975-1.475c-2.475-.625-5.025-2.725-5.25-5.35h4.825V-15.8H166.517Zm14.6,14.125h-10.1v-4.25h10.1Zm5.225-12.5v-1.6h-3.325V-20.1h-1.9v13h1.9v-5.525Zm-16.975-5.2h6.1V-19.45h-6.1Zm34.5,4.175V-8.2h-4.425v1.575h4.425V1.75h1.9V-20.1h-1.9v4.875h-4.425v1.575Zm-15.9,2.8c0,4.65,1.95,7.725,5.4,7.725,3.5,0,5.425-3.075,5.425-7.7,0-4.65-1.925-7.75-5.425-7.75C189.917-18.575,187.967-15.475,187.967-10.85Zm8.95.025c0,3.55-1.4,6.05-3.55,6.05-2.1,0-3.525-2.5-3.525-6.05,0-3.6,1.425-6.1,3.525-6.1C195.517-16.925,196.917-14.425,196.917-10.825Zm32.9,1.55v-1.6h-3.55V-20.1h-1.9V1.75h1.9V-9.275Zm-10.775-7.7V-18.6h-6.425v1.625Zm3.225,3.7V-14.85h-12.9v1.575Zm-1.3,5.925c0-2.575-2.05-4.525-5.1-4.525s-5.1,1.975-5.1,4.525,2.05,4.5,5.1,4.5S220.967-4.825,220.967-7.35Zm-1.9,0a2.956,2.956,0,0,1-3.2,2.925,2.984,2.984,0,0,1-3.2-2.925,2.969,2.969,0,0,1,3.2-2.925A2.956,2.956,0,0,1,219.067-7.35Zm29.875,9.1V-20.1h-1.9V1.75Zm-6.425-19.525h-10.4v1.6h8.375c-.4,4.925-3.65,9.675-9.175,12.1l1.1,1.5A17.017,17.017,0,0,0,242.517-17.775Z" transform="translate(85.284 59.525)" fill="#fefefe"/>
      <path id="Triangle_1" data-name="Triangle 1" d="M353.549,51.334l-13.281,9.719V41.615Z" fill="#fff" stroke="#fff" stroke-linecap="round" stroke-linejoin="round" stroke-width="1"/>
    </g>
  </g>
</svg>
