<svg xmlns="http://www.w3.org/2000/svg" xmlns:xlink="http://www.w3.org/1999/xlink" width="798" height="999" viewBox="0 0 798 999"><defs><filter id="a" x="103" y="180" width="596" height="75" filterUnits="userSpaceOnUse"><feOffset dx="4" dy="4" input="SourceAlpha"/><feGaussianBlur result="b"/><feFlood flood-opacity="0.4"/><feComposite operator="in" in2="b"/><feComposite in="SourceGraphic"/></filter><filter id="c" x="227" y="114" width="347" height="51" filterUnits="userSpaceOnUse"><feOffset dx="1" dy="1" input="SourceAlpha"/><feGaussianBlur result="d"/><feFlood flood-color="#fff" flood-opacity="0.8"/><feComposite operator="in" in2="d"/><feComposite in="SourceGraphic"/></filter><filter id="e" x="413" y="393" width="381" height="510" filterUnits="userSpaceOnUse"><feOffset dx="4" dy="4" input="SourceAlpha"/><feGaussianBlur stdDeviation="3" result="f"/><feFlood flood-opacity="0.8"/><feComposite operator="in" in2="f"/><feComposite in="SourceGraphic"/></filter><clipPath id="h"><rect width="798" height="999"/></clipPath></defs><g id="g" clip-path="url(#h)"><rect width="798" height="999" fill="#fff"/><g transform="translate(-11 -11)"><rect width="800" height="1000" transform="translate(10 10)" fill="#ffd976"/><g transform="translate(10 10)" fill="#7852e8"><path d="M 0.5005000233650208 999.0145874023438 L 0.5005000233650208 0.500063955783844 L 799.5 0.500063955783844 L 799.5 414.7016296386719 L 0.5005000233650208 999.0145874023438 Z" stroke="none"/><path d="M 1.000499963760376 998.0296020507812 L 799 414.4479675292969 L 799 1.000064015388489 L 1.000499963760376 1.000064015388489 L 1.000499963760376 998.0296020507812 M 0 999.9999389648438 L 0.0005000000237487257 999.9996948242188 L 0.0005000000237487257 6.39648424112238e-05 L 800 6.39648424112238e-05 L 800 414.9554443359375 L 0.0005000000237487257 999.9996948242188 L 0 999.9999389648438 Z" stroke="none" fill="#707070"/></g></g><circle cx="56" cy="56" r="56" transform="translate(200 215)" fill="#fff" opacity="0.4"/><g transform="translate(-39.877 566.157) rotate(-19)"><path d="M427.975,194.769l1.769,4.876a16.8,16.8,0,0,1-10.062,21.506l-72.6,26.322a16.8,16.8,0,0,0-10.062,21.506l1.768,4.878a16.786,16.786,0,0,0,21.507,10.06l24.464-8.87a16.8,16.8,0,0,1,21.506,10.062l1.767,4.876a16.782,16.782,0,0,1-10.061,21.506L201.2,382.832A16.783,16.783,0,0,1,179.69,372.77l-1.768-4.876a16.8,16.8,0,0,1,10.061-21.506l58.146-21.081a16.783,16.783,0,0,0,10.062-21.5l-1.768-4.877a16.794,16.794,0,0,0-21.506-10.061L126.631,327.4a16.794,16.794,0,0,1-21.506-10.061l-1.768-4.876a16.8,16.8,0,0,1,10.061-21.506l23.154-8.394a16.794,16.794,0,0,0,10.062-21.506l-1.768-4.877a16.794,16.794,0,0,0-21.506-10.061L83.9,260.42A16.783,16.783,0,0,1,62.4,250.359l-1.768-4.878a16.783,16.783,0,0,1,10.061-21.5l107.848-39.1a16.793,16.793,0,0,0,10.061-21.5l-1.767-4.877a16.8,16.8,0,0,0-21.506-10.061l-36.3,13.161a16.783,16.783,0,0,1-21.5-10.062l-1.768-4.876a16.8,16.8,0,0,1,10.061-21.506L312.582,53.81a16.794,16.794,0,0,1,21.506,10.061l1.768,4.876a16.783,16.783,0,0,1-10.061,21.506L293.17,102.081a16.8,16.8,0,0,0-10.061,21.506l1.768,4.876a16.8,16.8,0,0,0,21.506,10.061l61.555-22.316a16.8,16.8,0,0,1,21.506,10.061l1.769,4.877a16.8,16.8,0,0,1-10.062,21.506l-74.7,27.084a16.8,16.8,0,0,0-10.061,21.5l1.769,4.876a16.793,16.793,0,0,0,21.5,10.062l86.81-31.473A16.794,16.794,0,0,1,427.975,194.769Z" transform="translate(-59.617 -46.802)" opacity="0.2"/><g transform="translate(8.105 0)"><ellipse cx="138.686" cy="38.951" rx="138.686" ry="38.951" transform="translate(32.155 316.567)" fill="#3d61d3" opacity="0.5"/><g transform="translate(32.156)"><path d="M240.749,60.937V361.373a14.279,14.279,0,0,1-9.4,13.421L130.506,417.876c-1.4.507-17.056-.564-18.428-.6a11.445,11.445,0,0,1-11.156-11.439V100.656A14.28,14.28,0,0,1,110.4,87.207L221.671,47.49c4.649-1.66,20.848-.766,24.455,1.776S240.749,56,240.749,60.937Z" transform="translate(-100.922 -46.647)" fill="#35353d"/><path d="M257.438,62.79V363.226a14.279,14.279,0,0,1-9.4,13.421L136.763,417.053a14.278,14.278,0,0,1-19.152-13.421V102.509a14.28,14.28,0,0,1,9.478-13.448L238.36,49.343A14.278,14.278,0,0,1,257.438,62.79Z" transform="translate(-101.344 -46.694)" fill="#474751"/><path d="M251.183,82.032V337.285a7.877,7.877,0,0,1-5.626,7.342L137.038,380.686c-5.571,1.851-11.46-1.924-11.46-7.341V117.476a7.1,7.1,0,0,1,.75-3.179,8.222,8.222,0,0,1,4.922-4.181L156.1,102l83.667-27.326C245.331,72.857,251.183,76.632,251.183,82.032Z" transform="translate(-101.546 -47.344)" fill="#8ba0e5"/><path d="M251.2,82.032V299.764C169.765,284.223,131.983,162.782,126.347,114.3a8.222,8.222,0,0,1,4.922-4.181L156.12,102l83.667-27.326C245.35,72.857,251.2,76.632,251.2,82.032Z" transform="translate(-101.565 -47.344)" fill="#6481dc" opacity="0.5"/><path d="M175.846,386.374v9.583a4.187,4.187,0,0,0,5.628,3.931l32.057-11.744a4.186,4.186,0,0,0,2.747-3.931v-8.594a4.187,4.187,0,0,0-5.519-3.97L178.7,382.4A4.188,4.188,0,0,0,175.846,386.374Z" transform="translate(-102.817 -54.861)" fill="#35353d"/><path d="M169.232,90.661l42.2-14.536a2.877,2.877,0,0,0,1.94-2.774h0a2.876,2.876,0,0,0-3.784-2.675l-42.21,14.047a2.878,2.878,0,0,0-1.968,2.784l.01.489A2.876,2.876,0,0,0,169.232,90.661Z" transform="translate(-102.553 -47.251)" fill="#35353d"/></g><g transform="translate(52.588 45.751)"><path d="M422.667,151.412c-3.153,2.155-5.386,1.448-8.5-.224-2.08-1.118-4.395-2.185-6.821-1.781-5.577.929-6.463,5.79-8.879,10.023a9.552,9.552,0,0,1-3.439,3.387c-2.037,1.2-4.526-.735-6.314-1.625a12.455,12.455,0,0,0-8.279-1.233,9.161,9.161,0,0,0-5.914,4.513c-1.523,2.6-.947,6.012-4.583,6.763-1.592.328-.916,2.758.671,2.431a6.221,6.221,0,0,0,4.783-4.068c1.274-3.312,1.842-6.114,5.713-7.207,3.827-1.079,6.708,1.621,10.046,2.816,2.783,1,5.011.174,7.178-1.7,3.906-3.372,3.9-11.287,10-11.666,2.738-.171,5.15,2.106,7.6,3,2.956,1.079,5.453.5,8.015-1.253C425.274,152.678,424.014,150.493,422.667,151.412Z" transform="translate(-128.135 -94.994)" fill="#fff"/><path d="M370.6,208.79c3.791-.459,5.448,1.2,7.439,4.116,1.332,1.949,2.9,3.963,5.235,4.722,5.376,1.746,8.4-2.161,12.5-4.805a9.552,9.552,0,0,1,4.614-1.421c2.36-.127,3.679,2.737,4.854,4.351a12.461,12.461,0,0,0,6.781,4.909,9.17,9.17,0,0,0,7.328-1.281c2.548-1.6,3.61-4.9,7.183-3.891,1.563.442,2.084-2.026.524-2.466a6.214,6.214,0,0,0-6.118,1.407c-2.657,2.352-4.452,4.578-8.392,3.762-3.894-.8-5.206-4.528-7.617-7.126-2.012-2.167-4.369-2.464-7.153-1.8-5.022,1.194-8.661,8.222-14.247,5.749-2.508-1.11-3.6-4.243-5.362-6.164-2.128-2.32-4.611-2.953-7.691-2.58C368.872,206.465,368.982,208.986,370.6,208.79Z" transform="translate(-128.143 -96.432)" fill="#fff"/><path d="M429.132,189.482c-3.719.867-5.545-.6-7.842-3.285-1.534-1.8-3.305-3.627-5.714-4.128-5.535-1.152-8.12,3.059-11.9,6.132a9.568,9.568,0,0,1-4.433,1.912c-2.332.381-3.953-2.323-5.3-3.8a12.459,12.459,0,0,0-7.273-4.144,9.162,9.162,0,0,0-7.146,2.067c-2.359,1.87-3.059,5.262-6.719,4.646-1.6-.27-1.852,2.24-.254,2.509a6.222,6.222,0,0,0,5.931-2.062c2.386-2.627,3.928-5.034,7.934-4.65,3.957.378,5.666,3.937,8.344,6.259,2.234,1.937,4.61,1.976,7.306,1.016,4.862-1.731,7.719-9.112,13.54-7.259,2.615.831,4.04,3.827,6,5.546,2.367,2.074,4.9,2.435,7.925,1.731C431.1,191.605,430.72,189.111,429.132,189.482Z" transform="translate(-128.197 -95.818)" fill="#fff"/><path d="M209.35,306.144s25.952,5.943,34.113-18.055" transform="translate(-124.096 -98.504)" fill="none" stroke="#6481dc" stroke-miterlimit="10" stroke-width="5"/><path d="M204.743,243.189s26.934-7.1,34.128,20.431" transform="translate(-123.98 -97.348)" fill="none" stroke="#6481dc" stroke-miterlimit="10" stroke-width="4"/><path d="M177.685,271.213s-5.641,23.741,20.216,33.718" transform="translate(-123.282 -98.077)" fill="none" stroke="#6481dc" stroke-miterlimit="10" stroke-width="4"/><path d="M302.632,207.3v12.517h8.681V200.5h-8.681Z" transform="translate(-126.456 -96.289)" fill="#ff7529"/><rect width="4.343" height="19.316" transform="translate(180.515 104.211)" fill="#e05212" opacity="0.5"/><path d="M290.47,137.971s10.517-28.536-17.658-30.124a37.739,37.739,0,0,0-38.1-13.293c-24.8,5.357-24.207,17.46-38.294,20.238s-42.33-5.357-62.435,17.395c-20.735,23.464-10.656,46.841-.537,53.984s26.538,5.677,30.167,13.478c4.365,9.386-17.338,32.674-3.307,42.131,18.254,12.3,37.7-16.47,47.461-18.651C219.565,220.491,285.508,239.723,290.47,137.971Z" transform="translate(-121.884 -93.585)" fill="#21125a"/><path d="M291.344,137.968c-4.958,101.756-70.907,82.521-82.7,85.157-9.762,2.185-29.2,30.957-47.463,18.657a10.314,10.314,0,0,1-4.759-8.525c.082.063.172.127.262.19,17.05,11.486,35.209-15.379,44.321-17.42,11.017-2.465,75.811-10.831,74.857-76.09,0,0,12.205-30.089-14.11-31.57a35.26,35.26,0,0,0-28.338-13.312c.7-.172,1.427-.343,2.177-.5a37.76,37.76,0,0,1,38.1,13.292C301.864,109.433,291.344,137.968,291.344,137.968Z" transform="translate(-122.758 -93.585)" fill="#190e44" opacity="0.5"/><path d="M294.439,164.558a62.821,62.821,0,0,1-.961,7.1c-2.07,10.5-7.166,20.1-18.071,24.326a38.97,38.97,0,0,1-15.818,2.786,35.716,35.716,0,0,1-10.175-1.92,44.182,44.182,0,0,1-19.445-13.857s-13.4,3.468-13.39-11.706c0-5.906,4.525-9.437,7.937-9.723,5.953-.5,8.627,2.579,8.627,2.579s7.54-.4,9.326-7.937,3.571-20.635,11.508-25,21.429-1.587,23.809-8.334c0,0,6.945,9.922,13.691,9.326C291.477,132.2,295.755,148.272,294.439,164.558Z" transform="translate(-124.279 -94.325)" fill="#ffc2a4"/><path d="M294.45,164.8a62.507,62.507,0,0,1-.956,7.108c-2.068,10.5-7.171,20.1-18.07,24.328a38.993,38.993,0,0,1-15.821,2.781,35.786,35.786,0,0,1-10.177-1.914,44.239,44.239,0,0,1-19.442-13.861s-10.34,2.673-12.841-6.954c3.8,5.228,11.188,3.314,11.188,3.314a44.116,44.116,0,0,0,19.442,13.853,35.824,35.824,0,0,0,10.177,1.924,38.963,38.963,0,0,0,15.814-2.782c10.909-4.226,16-13.825,18.069-24.328a62.756,62.756,0,0,0,.967-7.107c.939-11.568-.958-23.037-2.123-28.7a5.956,5.956,0,0,0,.813-.018S295.77,148.515,294.45,164.8Z" transform="translate(-124.294 -94.567)" fill="#e8a182" opacity="0.5"/><path d="M293.111,223.1s-1.786,8.333,5.159,11.211c0,0,4.464-2.183,6.25-2.382s9.821.695,10.913-.793a4.037,4.037,0,0,0,.843-2.877s1.985-1.091,2.332-2.281-1.19-2.877-1.19-2.877,2.083-1.339,1.835-3.324-2.679-2.529-2.679-2.529a4.465,4.465,0,0,0-.446-3.473c-1.041-1.537-5.208-1.19-5.208-1.19V216.7s-4.613,3.075-8.533,0v-6.648s-3.124,2.977-3.67,5.01.149,4.316-.5,5.259S293.111,223.1,293.111,223.1Z" transform="translate(-126.21 -96.53)" fill="#ffc2a4"/><path d="M317.884,223.165s1.535,1.679,1.192,2.871-2.33,2.285-2.33,2.285a4.064,4.064,0,0,1-.849,2.881c-.361.487-1.472.722-2.871.812a3.985,3.985,0,0,0,.786-2.772s1.977-1.093,2.33-2.285-1.192-2.88-1.192-2.88,2.086-1.337,1.833-3.323-2.673-2.529-2.673-2.529a4.485,4.485,0,0,0-.452-3.467,3.377,3.377,0,0,0-2.276-1.084v-1.029s4.173-.344,5.211,1.192a4.485,4.485,0,0,1,.452,3.467s2.428.552,2.673,2.538S317.884,223.165,317.884,223.165Z" transform="translate(-126.677 -96.595)" fill="#e8a182" opacity="0.5"/><path d="M341.881,115.736c-.471,4.326-7.64,14.936-8.454,16.128-.045.072-.072.108-.072.108a12.881,12.881,0,0,1-11.35-1.237s1.012-4.046-1.292-6.041c-2.05-1.761-8.525-6.647-6.23-8.073s6.862,3.17,8.028,1.472c.7-1.021.921-5.861,1.589-9.554.434-2.4,1.057-4.326,2.132-4.407.839-.063,1.21,2.917,1.372,6.06.18,3.449.1,7.089.1,7.089s.515-2.854,1.309-6.051c1.039-4.19,2.556-8.967,4.009-8.705,1.907.352-.054,14.079-.162,14.882.235-.668,4.072-11.739,5.365-11.144,2.455,1.13-1.3,12.58-1.482,13.122C337,119.005,342.369,111.248,341.881,115.736Z" transform="translate(-126.743 -93.81)" fill="#ffc2a4"/><path d="M295.677,234.2l-13.853,5.932-4.714,2.023a9.951,9.951,0,0,1-1.256,2.564h-.009c-2.8,4.091-8.046,5.653-8.046,5.653-10.52,17.655-35.516,40.077-35.516,40.077s-20.444,6.149-33.738-2.185c-13-8.146-6.836-29.765-6.556-30.713a.056.056,0,0,1,.009-.036c14.485-.6,31.156-23.316,31.156-23.316s-1.192-18.748,1.985-23.118,22.351-4.967,22.351-4.967a37.041,37.041,0,0,1,10.629-.045,1.046,1.046,0,0,0,.108.018c6.511,1.147,7.9,4.723,9.175,6.981.405.731,1.138,1.914,2.032,3.314.009,0,.009.01.018.01.343.559.732,1.155,1.12,1.769.813,1.274,1.7,2.629,2.537,3.911,2.132,3.26,4.01,6.077,4.01,6.077l.451-.172,12.94-4.985h.009Z" transform="translate(-123.614 -96.421)" fill="#ffa1b5"/><path d="M262.531,218.842c-6.042,2.447-13.889-11.017-13.889-11.017l1.58-9.049A35.786,35.786,0,0,0,260.4,200.69l-.948,6.15S266.694,217.153,262.531,218.842Z" transform="translate(-125.09 -96.245)" fill="#ffc2a4"/><path d="M260.427,200.69l-.948,6.15c-5.308-.766-9.743-5.094-9.743-5.094l.515-2.971A35.786,35.786,0,0,0,260.427,200.69Z" transform="translate(-125.118 -96.245)" fill="#e8a182" opacity="0.8"/><path d="M332.379,132.21s-11.513,61.813-57.506,87.929c-2.257-3.449-4.795-7.378-5.707-9-1.273-2.257-2.664-5.834-9.175-6.981,2.122.235,37.449,3.08,60.847-74.311,0,0,5.472-1.526,9.906,1.137a9.11,9.11,0,0,1,1.58,1.183A.244.244,0,0,1,332.379,132.21Z" transform="translate(-125.377 -94.491)" fill="#f47d9d"/><path d="M332.629,132.252s-11.513,61.813-57.506,87.929c-1.942-2.971-4.1-6.3-5.238-8.2,42.687-21.9,59.213-74.2,61.173-80.913a8.495,8.495,0,0,1,1.517,1.138A.244.244,0,0,1,332.629,132.252Z" transform="translate(-125.628 -94.533)" fill="#b75e76" opacity="0.5"/><path d="M278.866,159.287c2.752,0,2.8,7.094,0,7.094S276.336,159.287,278.866,159.287Z" transform="translate(-125.804 -95.246)" fill="#ef997b"/><g transform="translate(125.803 64.793)"><path d="M262.9,163.631a3.572,3.572,0,1,1-3.572-3.572A3.571,3.571,0,0,1,262.9,163.631Z" transform="translate(-251.074 -160.059)" fill="#19162d"/><path d="M261.037,160.566s-1.994-1.43-5.769,1.1c-2.331,1.561-4.316-.769-4.316-.769" transform="translate(-250.952 -160.062)" fill="none" stroke="#19162d" stroke-miterlimit="10" stroke-width="0.879"/></g><g transform="translate(163.023 62.873)"><path d="M295.222,161.131a3.042,3.042,0,1,1-3.043-3.042A3.042,3.042,0,0,1,295.222,161.131Z" transform="translate(-289.138 -158.089)" fill="#19162d"/><path d="M290.632,158.616s1.692-1.212,4.89.932c1.976,1.325,3.658-.651,3.658-.651" transform="translate(-289.176 -158.094)" fill="none" stroke="#19162d" stroke-miterlimit="10" stroke-width="0.745"/></g><path d="M250.586,149.685c-.961,1.051-.107,3.77,1.876,3.571s4.341-3.369,8.7-3.79c1.786-.173,1.819-5.106-1.767-4.709C256.025,145.13,252.645,147.436,250.586,149.685Z" transform="translate(-125.129 -94.878)" fill="#21125a"/><path d="M298.908,148.269c.807.882.092,3.166-1.575,3s-3.645-2.829-7.3-3.182c-1.5-.145-1.526-4.287,1.484-3.954A12.88,12.88,0,0,1,298.908,148.269Z" transform="translate(-126.112 -94.863)" fill="#21125a"/><path d="M280.46,183.326a11.227,11.227,0,0,1-8.445,3.491c-6.738.135-9.873-4.047-10.88-7.317-.557-1.793-.47-3.318.015-3.706.08-.064.167-.128.262-.191,4.389-2.961,20.841-2.127,21.706-.484a2.352,2.352,0,0,1,.192.818A10.672,10.672,0,0,1,280.46,183.326Z" transform="translate(-125.397 -95.609)" fill="#3d000b"/><path d="M280.47,183.453a11.227,11.227,0,0,1-8.445,3.491c-6.738.135-9.873-4.047-10.88-7.317C264.478,178.421,274.219,177.2,280.47,183.453Z" transform="translate(-125.407 -95.736)" fill="#ffa1b5"/><path d="M283.327,175.937c-6.97,1.071-18.017.079-21.9-.333,4.389-2.961,20.841-2.127,21.706-.484A2.352,2.352,0,0,1,283.327,175.937Z" transform="translate(-125.414 -95.609)" fill="#fff7f3"/><path d="M256.238,171.819c0,2.447-3.493,4.431-7.8,4.431s-7.805-1.984-7.805-4.431,3.494-4.432,7.805-4.432S256.238,169.372,256.238,171.819Z" transform="translate(-124.888 -95.451)" fill="#ffa1b5"/><path d="M296.339,165.64a62.821,62.821,0,0,1-.961,7.1c-2.293-.849-3.793-2.357-3.643-3.921C291.887,167.187,293.79,165.972,296.339,165.64Z" transform="translate(-126.18 -95.407)" fill="#ffa1b5"/><path d="M225.92,179.43s.893-5.953,5.556-4.067c0,0-1.488-4.365-4.961-5.06s-5.258,3.671-5.258,3.671" transform="translate(-124.398 -95.523)" fill="none" stroke="#e8a182" stroke-miterlimit="10" stroke-width="0.879"/><path d="M291.726,223.458c-.208.081-1.147.451-2.637,1.047-1.716.66-4.154,1.644-7.107,2.755-.993.379-2.051.777-3.152,1.192-2.122.813-4.415,1.679-6.837,2.564a.333.333,0,0,1-.09.036l-11.6,4.218c-3.964,1.39-7.928,2.781-11.676,4.019-.939.306-1.861.613-2.772.885-.48.126-.876.262-1.418.361a1.24,1.24,0,0,1-.262,0c-.162-.054-.072-.026-.117-.054l-.036-.027-.073-.063a.514.514,0,0,1-.081-.108c-.081-.135-.126-.244-.18-.353-.091-.225-.172-.443-.244-.658-.579-1.744-.984-3.4-1.382-4.922-.777-3.062-1.318-5.626-1.724-7.423-.334-1.571-.542-2.556-.587-2.781.062.216.325,1.192.74,2.745.461,1.78,1.156,4.307,2,7.342.425,1.508.885,3.16,1.49,4.839.072.209.153.415.244.615a1.965,1.965,0,0,0,.135.251c0-.009,0-.009.01-.018.369-.081.857-.234,1.29-.37.895-.3,1.815-.6,2.746-.911,3.72-1.265,7.676-2.692,11.63-4.108s7.911-2.809,11.622-4.128c.145-.054.3-.108.444-.153,2.085-.732,4.09-1.437,5.959-2.1,1.319-.46,2.583-.9,3.757-1.319,2.98-1.02,5.463-1.878,7.206-2.474C290.562,223.846,291.51,223.53,291.726,223.458Z" transform="translate(-124.866 -96.869)" fill="#f47d9d"/><path d="M352.182,208.972,312.1,200.791V180.066l40.086-12.679a59.814,59.814,0,0,1,1.833,6.99C355.695,182.433,357.221,196.212,352.182,208.972Z" transform="translate(-126.695 -95.451)" fill="#ff7529"/><path d="M311.75,180.4v20.923H301.7s-3.287-2.483-3.287-10.457c0-.216,0-.424.019-.641V190.2A19.837,19.837,0,0,1,301.7,180.4Z" transform="translate(-126.349 -95.78)" fill="#ffcd2e"/><path d="M353.674,209.447c-.956,2.338-4.8,1.318-3.828-1.048.018-.045.036-.09.054-.135,3.676-9.067,4.262-19.487,2.673-29.367a67.971,67.971,0,0,0-2.726-11.035c-.822-2.429,3.007-3.459,3.828-1.048.471,1.372.895,2.782,1.274,4.209C358.306,183.449,358.506,197.653,353.674,209.447Z" transform="translate(-127.646 -95.402)" fill="#ffcd2e"/><path d="M271.489,216.657c.009,0,.009.01.018.01.343.559.732,1.155,1.12,1.769.813,1.274,1.7,2.629,2.537,3.911,1.626,2.492,3.106,4.723,3.712,5.635.189.29.3.443.3.443l.451-.172a.034.034,0,0,1,.009.027c-2.122.813-4.415,1.679-6.837,2.564.046-.252.091-.515.119-.767A26.635,26.635,0,0,0,271.489,216.657Z" transform="translate(-125.668 -96.697)" fill="#f47d9d" opacity="0.5"/><path d="M267.295,246.641c4.813-1.688,8.381-2.944,9.78-3.431-.01.019-.01.036-.018.045-1.987,5.9-9.257,8.065-9.257,8.065-10.52,17.655-35.516,40.077-35.516,40.077s-20.444,6.149-33.738-2.185c-13-8.146-6.836-29.765-6.556-30.713a.056.056,0,0,1,.009-.036s32.446,24.085,66.229-5.923c1.227-1.084,2.338-2.178,3.35-3.269.3-.316.578-.623.849-.94C264.161,247.743,265.787,247.174,267.295,246.641Z" transform="translate(-123.614 -97.369)" fill="#f47d9d" opacity="0.5"/><path d="M297.458,234.646l-13.853,5.932-4.714,2.023c-.01.036-.027.072-.036.108a.068.068,0,0,1-.018.045c-.479.19-1.211.488-2.149.876-1.8.713-4.353,1.76-7.459,2.926-1.111.415-2.285.867-3.512,1.328l-5,1.146c29.475-10.99,31.579-25.592,31.579-25.592Z" transform="translate(-125.396 -96.869)" fill="#f47d9d" opacity="0.5"/><path d="M278.515,242.8c-.091.036-.3.118-.614.252-.479.19-1.211.488-2.149.876-1.8.713-4.353,1.76-7.459,2.926-1.111.415-2.285.867-3.512,1.328-.768.289-1.555.587-2.358.885-1.517.559-3.106,1.137-4.75,1.706-3.911,1.373-8.1,2.8-12.336,4.082-2.122.624-4.261,1.219-6.4,1.689a20.249,20.249,0,0,1-3.269.5,4.853,4.853,0,0,1-.813-.019,3.475,3.475,0,0,1-.876-.252,5.362,5.362,0,0,1-1.382-.94,17.934,17.934,0,0,1-3.422-4.994c-.867-1.706-1.553-3.368-2.167-4.921-1.2-3.1-2-5.743-2.547-7.594s-.794-2.935-.794-2.935.325,1.057.939,2.88,1.554,4.434,2.818,7.486c.641,1.518,1.372,3.161,2.266,4.814a28.865,28.865,0,0,0,1.482,2.483,12.628,12.628,0,0,0,1.887,2.276,4.728,4.728,0,0,0,1.2.8,2.921,2.921,0,0,0,.641.19,5.614,5.614,0,0,0,.777.009,19.7,19.7,0,0,0,3.106-.506c2.1-.479,4.218-1.084,6.331-1.725,4.225-1.246,8.416-2.637,12.336-3.973.786-.271,1.561-.533,2.32-.8h.01q1.8-.623,3.494-1.2c1.734-.587,3.36-1.156,4.868-1.689,4.813-1.688,8.381-2.944,9.78-3.431C278.225,242.9,278.424,242.832,278.515,242.8Z" transform="translate(-124.459 -97.171)" fill="#f47d9d"/><path d="M348.949,208.613,312.1,201.091v-6.159c1.083-.009,31.082-.487,39.525-15.686C353.211,189.126,352.624,199.546,348.949,208.613Z" transform="translate(-126.695 -95.751)" fill="#e05212" opacity="0.5"/><path d="M311.75,195.216v6.357H301.7s-3.287-2.483-3.287-10.457c0-.216,0-.424.019-.641C299.649,197.257,311.75,195.216,311.75,195.216Z" transform="translate(-126.349 -96.035)" fill="#e8b21a" opacity="0.5"/><path d="M353.674,209.592c-.956,2.338-4.8,1.318-3.828-1.048.018-.045.036-.09.054-.135,3.676-9.067,4.262-19.487,2.673-29.367a36.25,36.25,0,0,0,2.375-7.874C358.306,183.594,358.506,197.8,353.674,209.592Z" transform="translate(-127.646 -95.547)" fill="#e8b21a" opacity="0.5"/><path d="M260.352,114.276c-7.993.31-15.662,4.788-20.722,10.853-6.4,7.669-6.555,17.613-16.406,22.452-9.68,4.756-21.125,4.209-30.212,10.468-6.769,4.664-9.461,12.679-11.188,20.326-.255,1.13,1.479,1.609,1.734.478,2.035-9.005,5.337-16.749,13.81-21.361,8.2-4.464,18.217-4.624,26.764-8.357,7.3-3.189,10.039-9.75,13.194-16.563,4.145-8.95,12.858-16.1,23.026-16.5C261.509,116.03,261.512,114.231,260.352,114.276Z" transform="translate(-123.4 -94.108)" fill="#190e44" opacity="0.5"/><path d="M228.656,103.744c-9.509,5.83-16.473,13.893-27.989,15.862-9.7,1.66-19.389.828-29,3.395-15.107,4.032-27.41,14.31-29.016,30.509-.114,1.154,1.686,1.143,1.8,0,1.784-17.993,17.242-26.963,33.54-30.115,9.1-1.759,18.477-.693,27.5-2.969,9.452-2.383,16.034-10.2,24.074-15.13C230.551,104.693,229.647,103.136,228.656,103.744Z" transform="translate(-122.409 -93.838)" fill="#190e44" opacity="0.5"/><path d="M232.268,194.383c-1.917,5.178-8.459,8.295-13.085,10.584-5.988,2.962-12.061,3.468-18.492,4.888-12.7,2.8-18.17,19.1-31.9,19.086a.9.9,0,0,0,0,1.8c6.234,0,11.075-3.257,15.611-7.23,2.515-2.2,4.852-4.6,7.343-6.835,4.079-3.65,8.6-5.075,13.884-5.926a52.441,52.441,0,0,0,17.608-5.867c4.152-2.264,9.046-5.382,10.764-10.022C234.406,193.771,232.667,193.305,232.268,194.383Z" transform="translate(-123.049 -96.119)" fill="#190e44" opacity="0.5"/><path d="M226.791,127.461c-2.435,3.713-4.251,7.432-7.882,10.188s-8.148,4.231-12.435,5.651c-6.658,2.206-12.856,4.379-17.47,9.942-.735.885.53,2.166,1.271,1.271,5.955-7.179,14.97-8.486,23.177-11.833a31.316,31.316,0,0,0,8.656-5.325c2.756-2.376,4.279-6,6.236-8.986C228.983,127.4,227.424,126.5,226.791,127.461Z" transform="translate(-123.576 -94.431)" fill="#190e44" opacity="0.5"/><path d="M192.943,249.238s-11.489,21.117,1.487,36.936,41.907,5.662,41.907,5.662" transform="translate(-123.563 -97.522)" fill="none" stroke="#6481dc" stroke-miterlimit="10" stroke-width="6"/></g><g transform="translate(0 1.806)"><g transform="translate(49.262 150.629)"><path d="M153.217,220.409a17.373,17.373,0,1,1-17.372-17.372A17.373,17.373,0,0,1,153.217,220.409Z" transform="translate(-118.472 -203.037)" fill="#db2828"/><path d="M136.04,230.807c-10.313-4.5-11.748-13.838-7.939-16.337,5.137-3.36,7.939,3.971,7.939,3.971s2.8-7.331,7.938-3.971C147.787,216.969,146.352,226.306,136.04,230.807Z" transform="translate(-118.667 -203.304)" fill="#fff"/></g><g transform="translate(0 210.216)"><path d="M101.515,275.289a17.372,17.372,0,1,1-22.464-9.947A17.372,17.372,0,0,1,101.515,275.289Z" transform="translate(-67.932 -264.171)" fill="#db2828"/><path d="M89.141,291.223c-11.242-.483-15.945-8.677-13.291-12.38,3.581-4.987,8.836.843,8.836.843s-.028-7.848,5.974-6.563C95.113,274.081,97.14,283.308,89.141,291.223Z" transform="translate(-68.114 -264.394)" fill="#fff"/></g><g transform="translate(36.452 103.242)"><path d="M127.191,168.287a11.1,11.1,0,1,1-7.995-13.515A11.105,11.105,0,0,1,127.191,168.287Z" transform="translate(-105.33 -154.421)" fill="#db2828"/><path d="M114.96,171.95c-5.67-4.425-5.074-10.433-2.319-11.375,3.713-1.264,4.283,3.719,4.283,3.719s2.9-4.093,5.546-1.2C124.43,165.249,122.059,170.8,114.96,171.95Z" transform="translate(-105.463 -154.571)" fill="#fff"/></g><g transform="translate(106.17)"><path d="M198.718,62.366a11.1,11.1,0,1,1-8-13.515A11.1,11.1,0,0,1,198.718,62.366Z" transform="translate(-176.857 -48.5)" fill="#db2828"/><path d="M186.486,66.029c-5.669-4.425-5.074-10.433-2.318-11.375,3.713-1.264,4.283,3.719,4.283,3.719s2.9-4.093,5.545-1.2C195.957,59.327,193.586,64.88,186.486,66.029Z" transform="translate(-176.99 -48.65)" fill="#fff"/></g><g transform="translate(2.657 60.391)"><path d="M91.251,118.686a10.411,10.411,0,1,1-12.365-7.994A10.412,10.412,0,0,1,91.251,118.686Z" transform="translate(-70.658 -110.458)" fill="#db2828"/><path d="M82.458,126.952c-6.609-1.339-8.625-6.63-6.707-8.574,2.586-2.616,5.15,1.328,5.15,1.328s.719-4.648,4.151-3.326C87.6,117.364,87.934,123.016,82.458,126.952Z" transform="translate(-70.769 -110.601)" fill="#fff"/></g><g transform="translate(224.861 19.34)"><path d="M319.221,76.569a10.411,10.411,0,1,1-12.365-7.994A10.411,10.411,0,0,1,319.221,76.569Z" transform="translate(-298.628 -68.342)" fill="#db2828"/><path d="M310.428,84.836c-6.609-1.339-8.625-6.63-6.707-8.574,2.586-2.616,5.15,1.328,5.15,1.328s.719-4.648,4.152-3.326C315.57,75.248,315.9,80.9,310.428,84.836Z" transform="translate(-298.739 -68.485)" fill="#fff"/></g><g transform="translate(59.921 117.363)"><path d="M140.475,187.251c-.515-.1-1.021-.331-1.553-.06-.2.1-.227-.09-.274-.206q-1.233-3.11-2.458-6.223a.352.352,0,0,1,.032-.425c1.269-1.425,1.335-3.27,1.778-4.994a6.679,6.679,0,0,0-.709-5.164.662.662,0,0,1,.269-1,1.118,1.118,0,0,1,1.33-.1,9,9,0,0,1,1.978,2.363,10.489,10.489,0,0,1,.631,2.446c.153.6.242,1.214.362,1.833.178.046.32-.07.469-.128q2.632-1.032,5.26-2.072c.74-.29,1.184-.221,1.481.228a1.51,1.51,0,0,1-.165,1.822c-.1.119-.365.151-.3.363s.3.1.456.135c.806.185,1.043,1.129.514,1.938-.129.194-.494.271-.4.534.077.209.4.08.6.167a1.276,1.276,0,0,1,.215,2.033c-.079.088-.2.146-.26.242s-.125.192.092.246a1.11,1.11,0,0,1,.708,1.856c-.055.085-.109.17-.165.253a1.584,1.584,0,0,1-.843.566q-4.119,1.636-8.245,3.257A1.054,1.054,0,0,1,140.475,187.251Z" transform="translate(-129.578 -168.908)" fill="#fefefe" fill-rule="evenodd"/><path d="M131.045,186.968c-.521-1.319-1.035-2.639-1.565-3.953-.107-.267-.132-.409.2-.535q2.424-.923,4.824-1.9c.313-.128.405-.037.514.243q1.556,3.986,3.142,7.959c.135.336.08.468-.26.6-1.567.6-3.128,1.209-4.678,1.848-.386.159-.493.044-.623-.3C132.1,189.6,131.565,188.286,131.045,186.968Z" transform="translate(-129.408 -169.202)" fill="#3d61d3" fill-rule="evenodd"/></g><g transform="translate(13.835 172.323)"><path d="M93.344,246.894c-.473-.511-.828-1.163-1.609-1.3-.3-.051-.171-.276-.13-.435q1.156-4.3,2.316-8.6c.057-.208.114-.375.372-.429,2.486-.513,4.022-2.428,5.863-3.919a8.879,8.879,0,0,0,3.342-6.074c.084-.668.462-.875,1.079-.85a1.485,1.485,0,0,1,1.5.954,11.957,11.957,0,0,1,.237,4.092,14.067,14.067,0,0,1-1.269,3.112c-.312.76-.706,1.487-1.069,2.245.154.19.4.178.6.236q3.629.987,7.261,1.964c1.021.276,1.44.7,1.4,1.418a2.007,2.007,0,0,1-1.621,1.813c-.206.044-.511-.127-.609.151s.246.343.382.506c.713.837.216,2.032-.991,2.475-.29.106-.742-.1-.85.253-.084.284.361.4.507.655a1.7,1.7,0,0,1-1.383,2.34,3.479,3.479,0,0,0-.471.051c-.142.05-.284.106-.1.335a1.477,1.477,0,0,1-.718,2.543l-.376.141a2.126,2.126,0,0,1-1.35-.065q-5.7-1.525-11.387-3.072A1.39,1.39,0,0,1,93.344,246.894Z" transform="translate(-82.364 -225.294)" fill="#fefefe" fill-rule="evenodd"/><path d="M83.679,239.128c.491-1.818.991-3.639,1.468-5.462.1-.371.184-.542.636-.413q3.32.94,6.659,1.8c.437.114.464.282.357.668q-1.5,5.49-2.965,10.991c-.123.467-.286.563-.751.43-2.146-.605-4.3-1.192-6.46-1.74-.538-.136-.56-.345-.429-.812C82.712,242.775,83.186,240.951,83.679,239.128Z" transform="translate(-82.126 -225.494)" fill="#3d61d3" fill-rule="evenodd"/></g><g transform="translate(95.55 44.608)"><path d="M177.18,115.865c-.473-.511-.828-1.162-1.609-1.3-.3-.05-.171-.275-.13-.435q1.155-4.3,2.316-8.6c.056-.208.114-.374.372-.428,2.486-.514,4.022-2.429,5.863-3.92a8.877,8.877,0,0,0,3.342-6.073c.084-.669.462-.875,1.079-.851a1.486,1.486,0,0,1,1.5.955,11.956,11.956,0,0,1,.237,4.092,14.066,14.066,0,0,1-1.269,3.112c-.312.76-.706,1.486-1.069,2.244.153.191.4.178.6.237q3.629.987,7.261,1.964c1.02.275,1.44.7,1.4,1.418a2.009,2.009,0,0,1-1.621,1.813c-.206.043-.511-.128-.609.15s.246.343.382.506c.713.837.216,2.032-.991,2.476-.29.105-.742-.1-.85.252-.084.284.361.4.507.656a1.7,1.7,0,0,1-1.383,2.34,3.48,3.48,0,0,0-.471.05c-.142.05-.284.107-.1.335a1.477,1.477,0,0,1-.718,2.543l-.376.141a2.112,2.112,0,0,1-1.35-.065q-5.7-1.525-11.387-3.072A1.39,1.39,0,0,1,177.18,115.865Z" transform="translate(-166.2 -94.265)" fill="#fefefe" fill-rule="evenodd"/><path d="M167.515,108.1c.491-1.818.991-3.639,1.467-5.462.1-.37.185-.542.637-.413q3.32.94,6.659,1.8c.437.114.463.281.357.668q-1.5,5.49-2.965,10.99c-.123.467-.286.563-.751.43-2.146-.6-4.3-1.192-6.46-1.74-.538-.136-.56-.345-.43-.812C166.547,111.746,167.022,109.923,167.515,108.1Z" transform="translate(-165.962 -94.465)" fill="#3d61d3" fill-rule="evenodd"/></g><g transform="translate(43.679 232.55)"><path d="M128.1,317.859c-.778-.427-1.47-1.072-2.47-.918-.383.059-.317-.264-.331-.474q-.335-5.67-.664-11.335c-.016-.274-.014-.5.277-.669,2.8-1.623,3.888-4.56,5.514-7.106a11.325,11.325,0,0,0,1.595-8.7c-.168-.841.206-1.246.963-1.464a1.9,1.9,0,0,1,2.194.553,15.248,15.248,0,0,1,1.936,4.855,17.91,17.91,0,0,1-.28,4.277c-.071,1.046-.254,2.084-.39,3.147.263.169.552.055.824.044q4.79-.27,9.577-.552c1.346-.078,2.025.27,2.263,1.151a2.56,2.56,0,0,1-1.229,2.848c-.231.135-.669.053-.675.428s.435.316.665.457c1.2.726,1.082,2.372-.2,3.395-.309.246-.939.176-.926.648.013.378.6.341.877.589.984.868.622,2.617-.73,3.39a4.407,4.407,0,0,0-.549.25c-.152.118-.3.245.018.445,1.44.907,1.491,2.284.157,3.367l-.4.323a2.7,2.7,0,0,1-1.66.465q-7.509.452-15.016.873A1.77,1.77,0,0,1,128.1,317.859Z" transform="translate(-113.044 -287.084)" fill="#fefefe" fill-rule="evenodd"/><path d="M113.179,312.449c-.139-2.4-.268-4.8-.427-7.2-.031-.489,0-.731.6-.759q4.4-.2,8.783-.508c.574-.038.674.154.7.665q.395,7.247.843,14.492c.04.616-.118.8-.736.825-2.84.133-5.683.29-8.518.5-.706.051-.817-.193-.847-.811C113.477,317.251,113.318,314.854,113.179,312.449Z" transform="translate(-112.744 -287.511)" fill="#3d61d3" fill-rule="evenodd"/></g><g transform="translate(256.559 10.773)"><g transform="translate(0)"><path d="M346.5,90.327c-.778-.427-1.47-1.072-2.47-.918-.383.06-.317-.263-.331-.474q-.335-5.67-.664-11.335c-.016-.274-.014-.5.277-.669,2.8-1.623,3.888-4.56,5.515-7.106a11.329,11.329,0,0,0,1.594-8.7c-.168-.841.207-1.245.963-1.464a1.9,1.9,0,0,1,2.194.554,15.242,15.242,0,0,1,1.936,4.854,17.909,17.909,0,0,1-.28,4.277c-.071,1.046-.254,2.084-.389,3.147.262.169.552.056.823.044q4.79-.27,9.576-.552c1.346-.078,2.025.27,2.264,1.151a2.561,2.561,0,0,1-1.23,2.848c-.231.135-.669.053-.675.428s.435.316.665.457c1.2.726,1.082,2.372-.2,3.395-.309.246-.939.176-.926.648.013.378.6.341.877.59.985.867.622,2.616-.73,3.389a4.412,4.412,0,0,0-.549.25c-.152.118-.3.244.019.444,1.439.908,1.49,2.284.156,3.367-.132.107-.265.216-.4.323a2.7,2.7,0,0,1-1.66.466q-7.509.45-15.016.873A1.771,1.771,0,0,1,346.5,90.327Z" transform="translate(-331.449 -59.552)" fill="#fefefe" fill-rule="evenodd"/><path d="M331.584,84.917c-.139-2.4-.268-4.8-.427-7.2-.031-.488,0-.731.6-.758q4.4-.2,8.783-.508c.574-.038.674.153.7.664q.395,7.247.843,14.493c.04.615-.118.8-.736.824-2.84.133-5.683.29-8.518.5-.706.051-.817-.192-.847-.811C331.883,89.72,331.723,87.322,331.584,84.917Z" transform="translate(-331.149 -59.979)" fill="#3d61d3" fill-rule="evenodd"/></g></g><g transform="translate(2.657 103.242)"><path d="M78.215,170.192c-.39-.245-.729-.6-1.252-.551-.2.02-.156-.146-.157-.255q0-2.946,0-5.889c0-.142.009-.26.164-.338,1.5-.756,2.15-2.244,3.068-3.515a5.868,5.868,0,0,0,1.088-4.454c-.062-.443.143-.64.542-.731a.984.984,0,0,1,1.12.353,7.926,7.926,0,0,1,.857,2.573,9.236,9.236,0,0,1-.274,2.206c-.068.539-.194,1.072-.3,1.618.132.1.285.046.426.048q2.487,0,4.975,0c.7,0,1.041.2,1.138.665a1.331,1.331,0,0,1-.722,1.438c-.124.062-.348.006-.364.2s.216.177.33.257c.6.412.489,1.261-.206,1.753-.167.117-.491.063-.5.308,0,.2.3.193.437.331a1.122,1.122,0,0,1-.481,1.734,2.312,2.312,0,0,0-.291.112c-.082.056-.163.117,0,.231a.977.977,0,0,1-.02,1.748c-.071.052-.143.1-.216.156a1.4,1.4,0,0,1-.873.19q-3.9.009-7.8,0A.923.923,0,0,1,78.215,170.192Z" transform="translate(-70.813 -154.421)" fill="#fefefe" fill-rule="evenodd"/><path d="M70.665,166.942c0-1.247.006-2.5,0-3.742,0-.254.023-.378.335-.375q2.282.028,4.563,0c.3,0,.345.1.343.365q-.013,3.765,0,7.531c0,.319-.085.409-.405.4-1.476-.017-2.951-.02-4.426,0-.367.006-.418-.124-.414-.444C70.677,169.437,70.665,168.19,70.665,166.942Z" transform="translate(-70.658 -154.633)" fill="#3d61d3" fill-rule="evenodd"/></g><g transform="translate(65.951 191.481)"><path d="M171.706,263.006A18.056,18.056,0,1,1,153.65,244.95,18.056,18.056,0,0,1,171.706,263.006Z" transform="translate(-135.594 -244.95)" fill="#ffcd2e"/><path d="M166.464,265.038a12.675,12.675,0,0,1-25.35,0Z" transform="translate(-135.734 -245.458)" fill="#3d000b"/><path d="M163.7,273.116a12.681,12.681,0,0,1-19.668,0,12.666,12.666,0,0,1,19.668,0Z" transform="translate(-135.807 -245.544)" fill="#ffa1b5"/><path d="M150.123,259.658c0,.031-.009.063-.009.087a.688.688,0,0,1-.444.6.451.451,0,0,1-.111.039l-.15.04-7.318,1.976a.794.794,0,0,1-.413-1.531l5.6-1.509-5.04-2.9a.79.79,0,0,1,.793-1.365l6.564,3.778a.72.72,0,0,1,.317.214c.009.009.017.016.017.023A.673.673,0,0,1,150.123,259.658Z" transform="translate(-135.734 -245.204)" fill="#3d000b"/><path d="M157.88,259.658c0,.031.009.063.009.087a.688.688,0,0,0,.443.6.459.459,0,0,0,.112.039l.15.04,7.318,1.976a.793.793,0,0,0,.412-1.531l-5.6-1.509,5.04-2.9a.79.79,0,0,0-.793-1.365l-6.565,3.778a.726.726,0,0,0-.317.214c-.008.009-.017.016-.017.023A.675.675,0,0,0,157.88,259.658Z" transform="translate(-136.158 -245.204)" fill="#3d000b"/></g><g transform="translate(22.854 132.014)"><path d="M115.608,199.774a12.362,12.362,0,1,1-8.4-15.335A12.363,12.363,0,0,1,115.608,199.774Z" transform="translate(-91.379 -183.939)" fill="#ffcd2e"/><path d="M111.867,200.025a8.677,8.677,0,0,1-16.657-4.872Z" transform="translate(-91.467 -184.223)" fill="#3d000b"/><path d="M108.482,204.841a8.681,8.681,0,0,1-12.924-3.78,8.672,8.672,0,0,1,12.924,3.78Z" transform="translate(-91.484 -184.333)" fill="#ffa1b5"/><path d="M102.138,193.356c0,.02-.018.04-.022.056a.468.468,0,0,1-.407.311.361.361,0,0,1-.081,0l-.106,0-5.188-.107a.544.544,0,0,1,.023-1.087l3.972.086-2.754-2.877a.541.541,0,0,1,.784-.744l3.587,3.743a.5.5,0,0,1,.168.2.031.031,0,0,1,.006.019A.46.46,0,0,1,102.138,193.356Z" transform="translate(-91.491 -184.063)" fill="#3d000b"/><path d="M107.245,194.876c-.006.02-.007.043-.011.058a.469.469,0,0,0,.175.482.343.343,0,0,0,.065.048l.092.056,4.428,2.7a.543.543,0,0,0,.566-.927l-3.393-2.068,3.871-.941a.541.541,0,0,0-.259-1.05l-5.039,1.221a.5.5,0,0,0-.25.08c-.007,0-.014.008-.015.013A.459.459,0,0,0,107.245,194.876Z" transform="translate(-91.78 -184.174)" fill="#3d000b"/></g><g transform="translate(132.525 21.472)"><path d="M228.523,81.343a12.362,12.362,0,1,1-13.814-10.716A12.362,12.362,0,0,1,228.523,81.343Z" transform="translate(-203.896 -70.529)" fill="#ffcd2e"/><path d="M225.1,83.159a8.677,8.677,0,0,1-17.218,2.175Z" transform="translate(-203.997 -70.848)" fill="#3d000b"/><path d="M223.922,88.917A8.68,8.68,0,0,1,210.564,90.6a8.672,8.672,0,0,1,13.358-1.686Z" transform="translate(-204.064 -70.933)" fill="#ffa1b5"/><path d="M213.552,80.958c0,.021,0,.045,0,.06a.47.47,0,0,1-.25.448.356.356,0,0,1-.072.036l-.1.04-4.8,1.97a.543.543,0,0,1-.412-1L211.6,81l-3.673-1.54a.541.541,0,0,1,.422-1l4.782,2a.487.487,0,0,1,.234.119c.007,0,.013.009.014.014A.463.463,0,0,1,213.552,80.958Z" transform="translate(-203.989 -70.728)" fill="#3d000b"/><path d="M218.817,80.28c0,.021.011.043.013.058a.47.47,0,0,0,.354.371.276.276,0,0,0,.079.018l.106.015,5.14.714a.544.544,0,0,0,.149-1.076l-3.936-.543,3.175-2.407a.541.541,0,0,0-.657-.859L219.1,79.7a.512.512,0,0,0-.2.173c0,.006-.009.012-.009.017A.462.462,0,0,0,218.817,80.28Z" transform="translate(-204.273 -70.679)" fill="#3d000b"/></g><g transform="translate(62.033 85.039)"><path d="M148.48,142.964a8.5,8.5,0,1,1-9.687-7.12A8.5,8.5,0,0,1,148.48,142.964Z" transform="translate(-131.575 -135.745)" fill="#ffcd2e"/><path d="M146.154,144.271a5.967,5.967,0,0,1-11.8,1.8Z" transform="translate(-131.645 -135.961)" fill="#3d000b"/><path d="M145.449,148.255a5.969,5.969,0,0,1-9.152,1.4,5.962,5.962,0,0,1,9.152-1.4Z" transform="translate(-131.694 -136.022)" fill="#ffa1b5"/><path d="M138.176,142.971a.359.359,0,0,1,0,.042.324.324,0,0,1-.164.312.186.186,0,0,1-.05.026l-.066.029-3.265,1.44a.374.374,0,0,1-.3-.683l2.5-1.1-2.552-.994a.372.372,0,0,1,.273-.691l3.323,1.292a.34.34,0,0,1,.164.077l.009.01A.314.314,0,0,1,138.176,142.971Z" transform="translate(-131.638 -135.886)" fill="#3d000b"/><path d="M141.785,142.41c0,.015.009.029.011.04a.321.321,0,0,0,.25.25.226.226,0,0,0,.054.011l.073.008,3.546.4a.373.373,0,0,0,.084-.742l-2.716-.3,2.139-1.711a.372.372,0,0,0-.466-.579l-2.787,2.225a.347.347,0,0,0-.133.122l-.006.012A.32.32,0,0,0,141.785,142.41Z" transform="translate(-131.833 -135.845)" fill="#3d000b"/></g></g></g></g><circle cx="29" cy="29" r="29" transform="translate(50 -24)" fill="#fff" opacity="0.4"/><g transform="translate(649 437)" fill="none" stroke="#fff" stroke-width="10" stroke-dasharray="6" opacity="0.4"><circle cx="36" cy="36" r="36" stroke="none"/><circle cx="36" cy="36" r="31" fill="none"/></g><g transform="translate(-645.142 -108.585)"><path d="M11.357-73.268h1.785A3.586,3.586,0,0,0,15.73-74.1a2.973,2.973,0,0,0,.855-2.237,2.818,2.818,0,0,0-.855-2.174,3.576,3.576,0,0,0-2.513-.792h-1.86ZM8.19-81.89h5.3a6.575,6.575,0,0,1,4.587,1.558,5.148,5.148,0,0,1,1.722,4,5.137,5.137,0,0,1-1.772,4.11,6.607,6.607,0,0,1-4.461,1.52H11.356v5.756H8.19ZM29.052-70.428H27.493a2.891,2.891,0,0,0-1.81.49,1.513,1.513,0,0,0-.628,1.244q0,1.609,1.86,1.609a2.072,2.072,0,0,0,1.571-.591,2.142,2.142,0,0,0,.566-1.547Zm-6.183-3.82v-2.79a7.935,7.935,0,0,1,4.122-.88q5.177,0,5.177,4.826v8.144H29.177v-1.533a3.421,3.421,0,0,1-3.318,1.634A3.918,3.918,0,0,1,22.981-65.9a3.589,3.589,0,0,1-1.068-2.664,3.369,3.369,0,0,1,1.358-2.841,6.391,6.391,0,0,1,3.921-1.031h1.86v-.779a2.179,2.179,0,0,0-.553-1.609,2.613,2.613,0,0,0-1.885-.553,6.648,6.648,0,0,0-3.745,1.132ZM39.331-65.2,34.3-77.692h3.343L39.13-73.62q.679,1.81,1.093,3.041t.516,1.558l.075.352q.251-.88,1.609-4.951l1.332-4.072h3.167L42.322-65.3q-1.91,5.1-5.831,5.1a5.487,5.487,0,0,1-1.257-.126v-2.488a3.513,3.513,0,0,0,.855.1A3.34,3.34,0,0,0,39.331-65.2Zm16.136-2.162A2.728,2.728,0,0,0,57.68-68.4a4.5,4.5,0,0,0,.855-2.928,4.5,4.5,0,0,0-.855-2.928A2.677,2.677,0,0,0,55.518-75.3a3.053,3.053,0,0,0-2.262.98,4.021,4.021,0,0,0-.955,2.916,4.38,4.38,0,0,0,.93,2.991A2.881,2.881,0,0,0,55.468-67.362ZM52.3-77.692v1.96a4.348,4.348,0,0,1,3.9-2.136,4.864,4.864,0,0,1,3.959,1.785,7.154,7.154,0,0,1,1.47,4.7,7.439,7.439,0,0,1-1.47,4.738,4.8,4.8,0,0,1-3.984,1.872A4.277,4.277,0,0,1,52.3-66.859v6.711H49.285V-77.692ZM64.843-64.949v-17.77h3.016v17.77Zm14.578-7.415v-.377a3.2,3.2,0,0,0-.666-1.973,2.2,2.2,0,0,0-1.8-.741,2.56,2.56,0,0,0-1.872.792,3.993,3.993,0,0,0-1.018,2.3Zm2.061,4.1v2.614a7.323,7.323,0,0,1-3.845.829,6.385,6.385,0,0,1-4.8-1.81,6.426,6.426,0,0,1-1.76-4.675,6.624,6.624,0,0,1,1.659-4.776,5.5,5.5,0,0,1,4.146-1.734,5.233,5.233,0,0,1,3.946,1.508,6.084,6.084,0,0,1,1.458,4.4,12,12,0,0,1-.176,1.81H74.117a3.427,3.427,0,0,0,1.37,2.111,4.432,4.432,0,0,0,2.6.729A5.615,5.615,0,0,0,81.482-68.267Z" transform="translate(695.3 213.117)" fill="#fff"/><g transform="translate(663.9 127.42)"><g transform="translate(12.46 0)" opacity="0.999"><path d="M13.65-92.817H6.9V-119.58h8.78a12.731,12.731,0,0,1,4.093.623,9.351,9.351,0,0,1,3.292,1.919,8.545,8.545,0,0,1,2.855,6.6,8.525,8.525,0,0,1-2.949,6.786,9.875,9.875,0,0,1-3.261,1.859,12.142,12.142,0,0,1-3.921.61H13.65v8.363Zm0-14.236h1.519a4.238,4.238,0,0,0,3.013-.9,3.267,3.267,0,0,0,.916-2.48,3.046,3.046,0,0,0-.9-2.371,4.213,4.213,0,0,0-2.922-.864H13.65Z" transform="translate(-5.826 120.654)" fill="#6c5da9"/><path d="M8.65-97.817v-8.363h3.214a9.6,9.6,0,0,0,6.482-2.209,7.463,7.463,0,0,0,2.575-5.971,7.479,7.479,0,0,0-2.5-5.807,9.553,9.553,0,0,0-6.665-2.264H4.048v24.614h4.6m0-20.853h2.7A5.2,5.2,0,0,1,15-117.52a4.094,4.094,0,0,1,1.242,3.159A4.32,4.32,0,0,1,15-111.111a5.211,5.211,0,0,1-3.762,1.205H8.65v-8.765m2.148,23H1.9V-124.58h9.854a11.667,11.667,0,0,1,8.106,2.82,9.579,9.579,0,0,1,3.208,7.4,9.555,9.555,0,0,1-3.324,7.6,11.73,11.73,0,0,1-7.881,2.727H10.8v8.363Zm0-16.385h.445a3.485,3.485,0,0,0,2.265-.6,2.162,2.162,0,0,0,.59-1.709,1.95,1.95,0,0,0-.553-1.583,3.434,3.434,0,0,0-2.192-.578H10.8Z" transform="translate(-1.9 124.58)" fill="#fff"/></g><g transform="translate(0 0)" opacity="0.999"><path d="M13.65-92.817H6.9V-119.58h8.78a12.731,12.731,0,0,1,4.093.623,9.351,9.351,0,0,1,3.292,1.919,8.545,8.545,0,0,1,2.855,6.6,8.525,8.525,0,0,1-2.949,6.786,9.875,9.875,0,0,1-3.261,1.859,12.142,12.142,0,0,1-3.921.61H13.65v8.363Zm0-14.236h1.519a4.238,4.238,0,0,0,3.013-.9,3.267,3.267,0,0,0,.916-2.48,3.046,3.046,0,0,0-.9-2.371,4.213,4.213,0,0,0-2.922-.864H13.65Z" transform="translate(-5.826 120.654)" fill="#6c5da9"/><path d="M8.65-97.817v-8.363h3.214a9.6,9.6,0,0,0,6.482-2.209,7.463,7.463,0,0,0,2.575-5.971,7.479,7.479,0,0,0-2.5-5.807,9.553,9.553,0,0,0-6.665-2.264H4.048v24.614h4.6m0-20.853h2.7A5.2,5.2,0,0,1,15-117.52a4.094,4.094,0,0,1,1.242,3.159A4.32,4.32,0,0,1,15-111.111a5.211,5.211,0,0,1-3.762,1.205H8.65v-8.765m2.148,23H1.9V-124.58h9.854a11.667,11.667,0,0,1,8.106,2.82,9.579,9.579,0,0,1,3.208,7.4,9.555,9.555,0,0,1-3.324,7.6,11.73,11.73,0,0,1-7.881,2.727H10.8v8.363Zm0-16.385h.445a3.485,3.485,0,0,0,2.265-.6,2.162,2.162,0,0,0,.59-1.709,1.95,1.95,0,0,0-.553-1.583,3.434,3.434,0,0,0-2.192-.578H10.8Z" transform="translate(-1.9 124.58)" fill="#fff"/></g></g></g><circle cx="14" cy="14" r="14" transform="translate(561 177)" fill="#fff" opacity="0.4"/><rect width="75" height="75" transform="translate(25.5 298.467) rotate(45)" fill="#fff" opacity="0.4"/><path d="M4,0,24.757,4.243a4,4,0,0,1,4,4L33,29a4,4,0,0,1-4,4L8.243,28.757a4,4,0,0,1-4-4L0,4A4,4,0,0,1,4,0Z" transform="translate(683.5 268.165) rotate(45)" fill="#fff" opacity="0.4"/><circle cx="30" cy="30" r="30" transform="translate(430 463)" fill="#fff" opacity="0.4"/><rect width="69" height="69" transform="translate(717.5 -30.29) rotate(45)" fill="#fff" opacity="0.4"/><path d="M4,0,24.757,4.243a4,4,0,0,1,4,4L33,29a4,4,0,0,1-4,4L8.243,28.757a4,4,0,0,1-4-4L0,4A4,4,0,0,1,4,0Z" transform="translate(325.5 18.165) rotate(45)" fill="#fff" opacity="0.4"/><g transform="translate(225 900)" fill="none" stroke="#fff" stroke-width="10" stroke-dasharray="6" opacity="0.4"><circle cx="62" cy="62" r="62" stroke="none"/><circle cx="62" cy="62" r="57" fill="none"/></g><rect width="125" height="125" transform="translate(703.5 882.112) rotate(45)" fill="#fff" opacity="0.4"/><path d="M6.482,0,40.117,6.875A6.482,6.482,0,0,1,46.6,13.356l6.875,33.635a6.482,6.482,0,0,1-6.482,6.482L13.356,46.6a6.482,6.482,0,0,1-6.482-6.482L0,6.482A6.482,6.482,0,0,1,6.482,0Z" transform="translate(427.5 644.689) rotate(45)" fill="#fff" opacity="0.4"/><circle cx="26" cy="26" r="26" transform="translate(579 631)" fill="#fff" opacity="0.4"/><g transform="translate(-1 30)"><g transform="matrix(1, 0, 0, 1, 1, -30)" filter="url(#a)"><text transform="translate(103 236)" fill="#fff" font-size="48" font-family="NotoSansKR-Black, Noto Sans KR" font-weight="800" letter-spacing="-0.045em"><tspan x="0" y="0">페이플의 신규 상점을 찾습니다!</tspan></text></g><text transform="translate(158 265)" fill="#fff" font-size="24" font-family="AppleSDGothicNeo-SemiBold, Apple SD Gothic Neo" font-weight="600"><tspan x="0" y="0">추천하신 분에게는 5만원 상당 기프티콘/상품권을!</tspan><tspan x="0" y="29">추천받은 분에게는 가입비 5만원을 할인해 드립니다!</tspan><tspan x="0" y="58"> </tspan></text><g transform="translate(150 -94.585)"><path d="M97.91,232.671V185.1H43l21.459,23.787L43,232.671Z" transform="translate(0 -4.498)" fill="#f4c449"/><path d="M81.849,166.33V215.3l25.37,12.869V180.6Z" transform="translate(-9.31)" fill="#c7a345"/><path d="M297.489,232.671V185.1H352.4l-21.459,23.787L352.4,232.671Z" transform="translate(104.356 -4.498)" fill="#f4c449"/><path d="M322.87,166.33V215.3L297.5,228.173V180.6Z" transform="translate(104.353)" fill="#c7a345"/><rect width="354.683" height="48.974" transform="translate(72.539 166.33)" fill="#ffd976"/></g><g transform="matrix(1, 0, 0, 1, 1, -30)" filter="url(#c)"><text transform="translate(227 133)" fill="#7852e8" font-size="21" font-family="AppleSDGothicNeo-Bold, Apple SD Gothic Neo" font-weight="700" letter-spacing="-0.03em"><tspan x="0" y="0">신규 상점에 페이플 소개하고 같이 혜택받자!</tspan><tspan x="0" y="25"></tspan></text></g></g><g transform="matrix(1, 0, 0, 1, 0, 0)" filter="url(#e)"><rect width="363" height="492" rx="12" transform="translate(418 398)" opacity="0.28"/></g><text transform="translate(438 441)" fill="#fff" font-size="20" font-family="AppleSDGothicNeo-ExtraBold, Apple SD Gothic Neo" font-weight="800"><tspan x="0" y="0" xml:space="preserve">   추천인 대상</tspan><tspan font-family="AppleSDGothicNeo-Regular, Apple SD Gothic Neo" font-weight="400"><tspan x="0" y="24">페이플 고객사 임직원 모두</tspan></tspan></text><text transform="translate(438 509)" fill="#fff" font-size="20" font-family="AppleSDGothicNeo-ExtraBold, Apple SD Gothic Neo" font-weight="800"><tspan x="0" y="0" xml:space="preserve">   피추천인 대상</tspan><tspan font-family="AppleSDGothicNeo-Regular, Apple SD Gothic Neo" font-weight="400"><tspan x="0" y="24">페이플 신규 고객사 중, 별도의 솔루션이나</tspan><tspan x="0" y="48">호스팅을 사용하지 않은 순수 독립몰</tspan></tspan></text><text transform="translate(438 601)" fill="#fff" font-size="20" font-family="AppleSDGothicNeo-ExtraBold, Apple SD Gothic Neo" font-weight="800"><tspan x="0" y="0" xml:space="preserve">   이벤트 기간</tspan><tspan font-family="AppleSDGothicNeo-Regular, Apple SD Gothic Neo" font-weight="400"><tspan x="0" y="24">~ 2020년 12월 31일 </tspan><tspan x="0" y="48">(PG계약 및 보증보험 결제일 기준)</tspan></tspan></text><text transform="translate(438 693)" fill="#fff" font-size="20" font-family="AppleSDGothicNeo-ExtraBold, Apple SD Gothic Neo" font-weight="800"><tspan x="0" y="0" xml:space="preserve">   추천방법</tspan><tspan font-family="AppleSDGothicNeo-Regular, Apple SD Gothic Neo" font-weight="400"><tspan x="0" y="24">가입문의하기 - [기타 문의사항]에 </tspan><tspan x="0" y="48">추천인 성함과 이메일, 연락처 기재</tspan></tspan></text><text transform="translate(438 785)" fill="#fff" font-size="20" font-family="AppleSDGothicNeo-ExtraBold, Apple SD Gothic Neo" font-weight="800"><tspan x="0" y="0" xml:space="preserve">   혜택 지급 방법</tspan><tspan font-family="AppleSDGothicNeo-Regular, Apple SD Gothic Neo" font-weight="400"><tspan x="0" y="24">[</tspan><tspan y="24" letter-spacing="0.061em">추 천 인</tspan><tspan y="24">] 신규 상점 가입 완료 후 </tspan><tspan x="0" y="48" xml:space="preserve">                 익월 말까지 지급</tspan><tspan x="0" y="72">[피추천인] 가입비 할인 적용</tspan></tspan></text><text transform="translate(188 933)" font-size="20" font-family="AppleSDGothicNeo-Medium, Apple SD Gothic Neo" font-weight="500"><tspan x="0" y="0">※ 문의하기: sales@payple.kr / H.P:010-4367-1985</tspan></text><text transform="translate(123 970)" font-size="20" font-family="AppleSDGothicNeo-Medium, Apple SD Gothic Neo" font-weight="500"><tspan x="0" y="0">※ 유의사항: 본 이벤트는 조기종료되거나 혜택이 변경될 수 있습니다.</tspan></text><g transform="translate(433 424)"><path d="M4,0A4,4,0,1,0,8,4,4,4,0,0,0,4,0Z" transform="translate(5.328 5.328)" fill="#fff" fill-rule="evenodd"/></g><g transform="translate(433 490)"><path d="M4,0A4,4,0,1,0,8,4,4,4,0,0,0,4,0Z" transform="translate(5.328 5.328)" fill="#fff" fill-rule="evenodd"/></g><g transform="translate(433 584)"><path d="M4,0A4,4,0,1,0,8,4,4,4,0,0,0,4,0Z" transform="translate(5.328 5.328)" fill="#fff" fill-rule="evenodd"/></g><g transform="translate(433 674)"><path d="M4,0A4,4,0,1,0,8,4,4,4,0,0,0,4,0Z" transform="translate(5.328 5.328)" fill="#fff" fill-rule="evenodd"/></g><g transform="translate(433 767)"><path d="M4,0A4,4,0,1,0,8,4,4,4,0,0,0,4,0Z" transform="translate(5.328 5.328)" fill="#fff" fill-rule="evenodd"/></g></g></svg>