<svg xmlns="http://www.w3.org/2000/svg" xmlns:xlink="http://www.w3.org/1999/xlink" width="315.18" height="69.99" viewBox="0 0 315.18 69.99">
  <defs>
    <filter id="Rectangle_12_copy" x="0" y="0" width="315.18" height="69.99" filterUnits="userSpaceOnUse">
      <feOffset dx="0.5" dy="0.866" input="SourceAlpha"/>
      <feGaussianBlur stdDeviation="4" result="blur"/>
      <feFlood flood-opacity="0.522"/>
      <feComposite operator="in" in2="blur"/>
      <feComposite in="SourceGraphic"/>
    </filter>
  </defs>
  <g id="그룹_2" data-name="그룹 2" transform="translate(-392.81 -16.366)">
    <g transform="matrix(1, 0, 0, 1, 392.81, 16.37)" filter="url(#Rectangle_12_copy)">
      <rect id="Rectangle_12_copy-2" data-name="Rectangle 12 copy" width="288.18" height="42.99" rx="14" transform="translate(13 12.63)" fill="#fed214" stroke="#fed214" stroke-width="3"/>
    </g>
    <path id="패스_2" data-name="패스 2" d="M18.8-4.225V-20.1H16.9V-4.225ZM14.15-9.2c-2.6-.925-5.55-3.625-5.55-7.275V-18.85H6.675v2.425c0,3.5-2.825,6.7-5.7,7.975l1.15,1.5c2.375-1.2,4.9-3.725,5.55-6.075a10.538,10.538,0,0,0,5.4,5.35ZM19.275,1.075V-.5H6.6V-5.65H4.7V1.075Zm20.4-19.625H24.9v1.575H37.725a36.674,36.674,0,0,1-.85,7.9h-14.3v1.6h5.05V1.75h1.9V-7.475H35.3V1.75h1.9V-7.475h5.1v-1.6H38.8A49.311,49.311,0,0,0,39.675-18.55ZM69-7.05v-1.6H65.421L66.3-14.7,64.421-15l-.775,6.35H58.271l-.45-6.375-1.95.275.6,6.1H52.9v1.6Zm1.875,5.9V-2.775H51.146V-1.15ZM69.021-16.2v-1.6H52.871v1.6ZM92.5-1.025v-1.6h-8.95V-6.35h7.125v-1.6H77.1V-11.6h12.95v-6.675H75.171v1.6H88.146v3.5H75.2V-6.35h6.45v3.725H72.771v1.6Zm21.625,0v-1.6h-8.95V-7.85H111.7v-10.3H96.771v10.3h6.5v5.225H94.4v1.6Zm-4.325-8.4H98.671v-7.15H109.8Zm18.15-1.2h4.025V-4.3h1.9V-20.1h-1.9v3.3h-4.025v1.6h4.025v2.975h-4.025Zm.825,1.775c-2.6-.95-5.525-3.525-5.525-7.175v-2.8h-1.925v2.875c0,3.5-2.625,6.525-5.55,7.825l1.175,1.475a11.267,11.267,0,0,0,5.375-6,11.079,11.079,0,0,0,5.325,5.3Zm5.575,9.925V-.5H121.721V-5.6h-1.9V1.075Zm27.046.375v-7.4h-13.9v7.4Zm-16.5-15.7h4.875c-.15,2.675-2.7,5.175-5.5,6l1.05,1.45a9.6,9.6,0,0,0,5.5-5,9.839,9.839,0,0,0,5.25,4.375l.975-1.475c-2.475-.625-5.025-2.725-5.25-5.35h4.825V-15.8H144.892Zm14.6,14.125h-10.1v-4.25h10.1Zm5.225-12.5v-1.6h-3.325V-20.1h-1.9v13h1.9v-5.525Zm-16.975-5.2h6.1V-19.45h-6.1Zm34.5,4.175V-8.2h-4.425v1.575h4.425V1.75h1.9V-20.1h-1.9v4.875h-4.425v1.575Zm-15.9,2.8c0,4.65,1.95,7.725,5.4,7.725,3.5,0,5.425-3.075,5.425-7.7,0-4.65-1.925-7.75-5.425-7.75C168.292-18.575,166.342-15.475,166.342-10.85Zm8.95.025c0,3.55-1.4,6.05-3.55,6.05-2.1,0-3.525-2.5-3.525-6.05,0-3.6,1.425-6.1,3.525-6.1C173.892-16.925,175.292-14.425,175.292-10.825Zm32.9,1.55v-1.6h-3.55V-20.1h-1.9V1.75h1.9V-9.275Zm-10.775-7.7V-18.6h-6.425v1.625Zm3.225,3.7V-14.85h-12.9v1.575Zm-1.3,5.925c0-2.575-2.05-4.525-5.1-4.525s-5.1,1.975-5.1,4.525,2.05,4.5,5.1,4.5S199.342-4.825,199.342-7.35Zm-1.9,0a2.956,2.956,0,0,1-3.2,2.925,2.984,2.984,0,0,1-3.2-2.925,2.969,2.969,0,0,1,3.2-2.925A2.956,2.956,0,0,1,197.442-7.35Zm29.875,9.1V-20.1h-1.9V1.75Zm-6.425-19.525h-10.4v1.6h8.375c-.4,4.925-3.65,9.675-9.175,12.1l1.1,1.5A17.017,17.017,0,0,0,220.892-17.775Z" transform="translate(428.284 59.525)" fill="#fff"/>
    <path id="Triangle_1_copy" data-name="Triangle 1 copy" d="M676.354,51.334l-13.281,9.719V41.615Z" fill="#fff" stroke="#fff" stroke-linecap="round" stroke-linejoin="round" stroke-width="1"/>
  </g>
</svg>
