<svg xmlns="http://www.w3.org/2000/svg" width="234.676" height="29.254" viewBox="0 0 234.676 29.254">
  <g id="그룹_3343" data-name="그룹 3343" transform="translate(-23.433 -958.017)">
    <g id="그룹_3341" data-name="그룹 3341" transform="translate(3 0.42)">
      <g id="그룹_3340" data-name="그룹 3340">
        <g id="그룹_3338" data-name="그룹 3338">
          <path id="패스_4335" data-name="패스 4335" d="M172.376,976.818v.533h-2.5v1.68h2.4v.527h-2.4v2.648h-.613v-5.388Z" fill="#12265b"/>
          <path id="패스_4336" data-name="패스 4336" d="M173.863,977.082a.44.44,0,0,1,.123-.321.406.406,0,0,1,.31-.128.411.411,0,0,1,.306.128.438.438,0,0,1,.126.321.427.427,0,0,1-.432.433.41.41,0,0,1-.31-.124A.418.418,0,0,1,173.863,977.082Zm.739,1.238v3.886h-.614V978.32Z" fill="#12265b"/>
          <path id="패스_4337" data-name="패스 4337" d="M179.738,979.907v2.3h-.6v-2.313a1.836,1.836,0,0,0-.167-.89.655.655,0,0,0-.621-.292.989.989,0,0,0-.437.1,1.236,1.236,0,0,0-.377.285,1.469,1.469,0,0,0-.264.428,1.376,1.376,0,0,0-.1.536v2.143h-.593V978.32h.6l.028.562h.007a1.028,1.028,0,0,1,.221-.271,1.482,1.482,0,0,1,.295-.206,1.517,1.517,0,0,1,.339-.131,1.383,1.383,0,0,1,.352-.046,1.152,1.152,0,0,1,1.023.431A2.185,2.185,0,0,1,179.738,979.907Z" fill="#12265b"/>
          <path id="패스_4338" data-name="패스 4338" d="M183.43,981.616c.051-.038.077-.025.077.041v.435a.839.839,0,0,1-.339.149,1.817,1.817,0,0,1-.387.044,1.074,1.074,0,0,1-.772-.218,1.033,1.033,0,0,1-.233-.764v-2.521h-.664v-.462h.664v-.961h.6v.961h.99v.462h-.99v2.427a2.189,2.189,0,0,0,.013.264.369.369,0,0,0,.064.171.277.277,0,0,0,.147.092.941.941,0,0,0,.258.029,1.414,1.414,0,0,0,.264-.036A1.156,1.156,0,0,0,183.43,981.616Z" fill="#12265b"/>
          <path id="패스_4339" data-name="패스 4339" d="M186.57,978.228a1.526,1.526,0,0,1,1.193.468,1.968,1.968,0,0,1,.426,1.361v.292h-2.8v.064a1.451,1.451,0,0,0,.363,1.032,1.269,1.269,0,0,0,.935.348,2.1,2.1,0,0,0,.61-.092,2.241,2.241,0,0,0,.625-.321c.051-.042.077-.033.077.028v.492a1.646,1.646,0,0,1-.635.309,3.246,3.246,0,0,1-.761.082,2.01,2.01,0,0,1-.753-.135,1.618,1.618,0,0,1-.586-.391,1.792,1.792,0,0,1-.382-.63,2.786,2.786,0,0,1,0-1.7,1.911,1.911,0,0,1,.375-.647,1.625,1.625,0,0,1,.575-.417A1.83,1.83,0,0,1,186.57,978.228Zm-1.172,1.658h2.155v-.029a1.259,1.259,0,0,0-.268-.872.942.942,0,0,0-.73-.3,1.018,1.018,0,0,0-.407.083,1.107,1.107,0,0,0-.345.231,1.243,1.243,0,0,0-.259.367,1.678,1.678,0,0,0-.146.481Z" fill="#12265b"/>
          <path id="패스_4340" data-name="패스 4340" d="M192.542,981.408c.052-.051.077-.042.077.029v.477a1.273,1.273,0,0,1-.513.3,2.014,2.014,0,0,1-.6.088,2.358,2.358,0,0,1-.8-.127,1.727,1.727,0,0,1-.613-.378,1.678,1.678,0,0,1-.4-.626,2.849,2.849,0,0,1-.006-1.733,1.807,1.807,0,0,1,.384-.651,1.683,1.683,0,0,1,.611-.417,2.121,2.121,0,0,1,.8-.145,2.043,2.043,0,0,1,.593.084,1.462,1.462,0,0,1,.51.27v.493c0,.081-.025.09-.076.028a1.261,1.261,0,0,0-.475-.286,1.8,1.8,0,0,0-.537-.077,1.25,1.25,0,0,0-.573.125,1.155,1.155,0,0,0-.4.334,1.564,1.564,0,0,0-.245.49,2.111,2.111,0,0,0-.082.595,2.142,2.142,0,0,0,.082.612,1.357,1.357,0,0,0,.252.48,1.1,1.1,0,0,0,.423.314,1.488,1.488,0,0,0,.6.11,1.454,1.454,0,0,0,.529-.092A1.486,1.486,0,0,0,192.542,981.408Z" fill="#12265b"/>
          <path id="패스_4341" data-name="패스 4341" d="M197.3,979.907v2.3h-.592v-2.313a1.817,1.817,0,0,0-.172-.89.662.662,0,0,0-.625-.292.973.973,0,0,0-.439.1,1.212,1.212,0,0,0-.371.285,1.5,1.5,0,0,0-.257.428,1.432,1.432,0,0,0-.1.536v2.143h-.6v-5.787h.6v2.505h.007a1.261,1.261,0,0,1,.516-.515,1.463,1.463,0,0,1,.711-.181,1.151,1.151,0,0,1,1.024.431A2.193,2.193,0,0,1,197.3,979.907Z" fill="#12265b"/>
          <path id="패스_4342" data-name="패스 4342" d="M205.327,981.06c.059-.047.089-.038.089.029v.625a2.152,2.152,0,0,1-.738.42,2.889,2.889,0,0,1-.909.136,2.444,2.444,0,0,1-1.008-.2,2.131,2.131,0,0,1-.753-.562,2.461,2.461,0,0,1-.471-.869,3.7,3.7,0,0,1-.16-1.124,3.387,3.387,0,0,1,.184-1.154,2.516,2.516,0,0,1,.517-.871,2.223,2.223,0,0,1,.783-.549,2.558,2.558,0,0,1,.992-.188,3.077,3.077,0,0,1,.83.1,1.931,1.931,0,0,1,.691.359v.656c0,.034-.01.051-.027.056a.071.071,0,0,1-.064-.028,1.777,1.777,0,0,0-1.388-.613,1.893,1.893,0,0,0-.733.143,1.637,1.637,0,0,0-.593.42,2.027,2.027,0,0,0-.4.686,2.788,2.788,0,0,0-.146.943,2.547,2.547,0,0,0,.476,1.677,1.7,1.7,0,0,0,1.371.567A1.924,1.924,0,0,0,205.327,981.06Z" fill="#12265b"/>
          <path id="패스_4343" data-name="패스 4343" d="M208.578,978.228a1.521,1.521,0,0,1,1.191.468,1.959,1.959,0,0,1,.427,1.361v.292h-2.8v.064a1.442,1.442,0,0,0,.363,1.032,1.269,1.269,0,0,0,.934.348,2.11,2.11,0,0,0,.611-.092,2.241,2.241,0,0,0,.625-.321c.05-.042.077-.033.077.028v.492a1.646,1.646,0,0,1-.635.309,3.249,3.249,0,0,1-.76.082,2.017,2.017,0,0,1-.755-.135,1.635,1.635,0,0,1-.586-.391,1.819,1.819,0,0,1-.381-.63,2.786,2.786,0,0,1,0-1.7,1.941,1.941,0,0,1,.373-.647,1.637,1.637,0,0,1,.576-.417A1.838,1.838,0,0,1,208.578,978.228Zm-1.174,1.658h2.156v-.029a1.264,1.264,0,0,0-.267-.872.943.943,0,0,0-.73-.3,1.016,1.016,0,0,0-.408.083,1.176,1.176,0,0,0-.347.231,1.336,1.336,0,0,0-.257.367,1.711,1.711,0,0,0-.147.481Z" fill="#12265b"/>
          <path id="패스_4344" data-name="패스 4344" d="M214.989,979.907v2.3h-.6v-2.313a1.834,1.834,0,0,0-.168-.89.654.654,0,0,0-.62-.292.994.994,0,0,0-.438.1,1.232,1.232,0,0,0-.376.285,1.473,1.473,0,0,0-.266.428,1.376,1.376,0,0,0-.1.536v2.143h-.591V978.32h.6l.027.562h.008a1.044,1.044,0,0,1,.22-.271,1.519,1.519,0,0,1,.3-.206,1.5,1.5,0,0,1,.339-.131,1.378,1.378,0,0,1,.352-.046,1.145,1.145,0,0,1,1.021.431A2.185,2.185,0,0,1,214.989,979.907Z" fill="#12265b"/>
          <path id="패스_4345" data-name="패스 4345" d="M218.682,981.616c.05-.038.075-.025.075.041v.435a.824.824,0,0,1-.337.149,1.833,1.833,0,0,1-.388.044,1.077,1.077,0,0,1-.772-.218,1.033,1.033,0,0,1-.232-.764v-2.521h-.664v-.462h.664v-.961h.6v.961h.99v.462h-.99v2.427a2,2,0,0,0,.013.264.379.379,0,0,0,.062.171.289.289,0,0,0,.147.092.949.949,0,0,0,.259.029,1.422,1.422,0,0,0,.265-.036A1.131,1.131,0,0,0,218.682,981.616Z" fill="#12265b"/>
          <path id="패스_4346" data-name="패스 4346" d="M221.821,978.228a1.532,1.532,0,0,1,1.194.468,1.968,1.968,0,0,1,.424,1.361v.292h-2.8v.064a1.447,1.447,0,0,0,.363,1.032,1.274,1.274,0,0,0,.937.348,2.1,2.1,0,0,0,.609-.092,2.241,2.241,0,0,0,.625-.321c.051-.042.075-.033.075.028v.492a1.638,1.638,0,0,1-.633.309,3.249,3.249,0,0,1-.762.082,2.017,2.017,0,0,1-.753-.135,1.618,1.618,0,0,1-.586-.391,1.759,1.759,0,0,1-.38-.63,2.5,2.5,0,0,1-.136-.858,2.531,2.531,0,0,1,.132-.84,1.909,1.909,0,0,1,.374-.647,1.639,1.639,0,0,1,.574-.417A1.849,1.849,0,0,1,221.821,978.228Zm-1.172,1.658H222.8v-.029a1.255,1.255,0,0,0-.27-.872.934.934,0,0,0-.727-.3,1.021,1.021,0,0,0-.409.083,1.123,1.123,0,0,0-.346.231,1.256,1.256,0,0,0-.257.367,1.619,1.619,0,0,0-.147.481Z" fill="#12265b"/>
          <path id="패스_4347" data-name="패스 4347" d="M227.1,978.882a.774.774,0,0,0-.2-.083,1.089,1.089,0,0,0-.244-.024.785.785,0,0,0-.359.09.987.987,0,0,0-.314.251,1.3,1.3,0,0,0-.22.393,1.474,1.474,0,0,0-.084.505v2.192h-.6l-.009-3.886h.617l.027.562a1.085,1.085,0,0,1,.425-.484,1.1,1.1,0,0,1,.58-.17,1.6,1.6,0,0,1,.255.017.66.66,0,0,1,.211.075v.527C227.179,978.913,227.152,978.924,227.1,978.882Z" fill="#12265b"/>
          <path id="패스_4348" data-name="패스 4348" d="M232.838,979.011l2.122,3.2h-.754l-1.778-2.8h-.008l-.614.662v2.135h-.613v-5.388h.613v2.506h.014l2.248-2.506h.739Z" fill="#12265b"/>
          <path id="패스_4349" data-name="패스 4349" d="M237.883,982.27a1.8,1.8,0,0,1-.791-.16,1.557,1.557,0,0,1-.552-.438,1.862,1.862,0,0,1-.325-.644,3.01,3.01,0,0,1,.007-1.587,1.819,1.819,0,0,1,.336-.642,1.575,1.575,0,0,1,.555-.418,2.02,2.02,0,0,1,1.542,0,1.554,1.554,0,0,1,.554.418,1.8,1.8,0,0,1,.336.642,2.957,2.957,0,0,1,.007,1.587,1.878,1.878,0,0,1-.324.644,1.574,1.574,0,0,1-.552.438A1.8,1.8,0,0,1,237.883,982.27Zm0-.491a1,1,0,0,0,.848-.384,2.439,2.439,0,0,0,0-2.307,1.142,1.142,0,0,0-1.7,0,2.454,2.454,0,0,0,0,2.307A1,1,0,0,0,237.883,981.779Z" fill="#12265b"/>
          <path id="패스_4350" data-name="패스 4350" d="M243.354,978.882a.8.8,0,0,0-.2-.083,1.108,1.108,0,0,0-.244-.024.782.782,0,0,0-.359.09.991.991,0,0,0-.315.251,1.318,1.318,0,0,0-.219.393,1.474,1.474,0,0,0-.084.505v2.192h-.6l-.008-3.886h.614l.03.562a1.083,1.083,0,0,1,.424-.484,1.1,1.1,0,0,1,.579-.17,1.572,1.572,0,0,1,.255.017.671.671,0,0,1,.213.075v.527C243.438,978.913,243.409,978.924,243.354,978.882Z" fill="#12265b"/>
          <path id="패스_4351" data-name="패스 4351" d="M246.467,978.228a1.526,1.526,0,0,1,1.192.468,1.963,1.963,0,0,1,.426,1.361v.292h-2.8v.064a1.447,1.447,0,0,0,.363,1.032,1.27,1.27,0,0,0,.934.348,2.113,2.113,0,0,0,.613-.092,2.259,2.259,0,0,0,.623-.321c.052-.042.077-.033.077.028v.492a1.635,1.635,0,0,1-.634.309,3.258,3.258,0,0,1-.761.082,2.021,2.021,0,0,1-.755-.135,1.618,1.618,0,0,1-.586-.391,1.772,1.772,0,0,1-.379-.63,2.5,2.5,0,0,1-.137-.858,2.556,2.556,0,0,1,.133-.84,1.879,1.879,0,0,1,.375-.647,1.63,1.63,0,0,1,.574-.417A1.837,1.837,0,0,1,246.467,978.228Zm-1.173,1.658h2.157v-.029a1.259,1.259,0,0,0-.269-.872.941.941,0,0,0-.729-.3,1.024,1.024,0,0,0-.409.083,1.126,1.126,0,0,0-.344.231,1.24,1.24,0,0,0-.258.367,1.68,1.68,0,0,0-.148.481Z" fill="#12265b"/>
          <path id="패스_4352" data-name="패스 4352" d="M249.865,979.153c-.024.023-.044.031-.062.024s-.029-.029-.029-.067v-.521a2.548,2.548,0,0,1,.656-.313,2.514,2.514,0,0,1,.747-.113,1.367,1.367,0,0,1,1,.319,1.466,1.466,0,0,1,.318,1.054v2.67h-.58l-.028-.562h-.006a1.212,1.212,0,0,1-.227.278,1.52,1.52,0,0,1-.3.2,1.589,1.589,0,0,1-.342.124,1.482,1.482,0,0,1-.353.043,1.681,1.681,0,0,1-.513-.063,1.135,1.135,0,0,1-.4-.214.944.944,0,0,1-.258-.357,1.234,1.234,0,0,1-.091-.49,1.287,1.287,0,0,1,.328-.9,1.611,1.611,0,0,1,.978-.459l1.2-.177v-.064a1.6,1.6,0,0,0-.05-.428.59.59,0,0,0-.146-.267.545.545,0,0,0-.247-.135,1.42,1.42,0,0,0-.354-.04,1.739,1.739,0,0,0-.63.114A2.709,2.709,0,0,0,249.865,979.153Zm2.058,1.474v-.514l-1.012.129a1.223,1.223,0,0,0-.634.265.759.759,0,0,0-.245.61.6.6,0,0,0,.212.492.852.852,0,0,0,.548.17.976.976,0,0,0,.431-.1,1.266,1.266,0,0,0,.361-.26,1.2,1.2,0,0,0,.248-.366A1.043,1.043,0,0,0,251.923,980.627Z" fill="#12265b"/>
        </g>
        <g id="그룹_3339" data-name="그룹 3339">
          <path id="패스_4353" data-name="패스 4353" d="M166.65,965.016v-1.1h6.318v1.1Zm3.2,4.1a3.351,3.351,0,0,1-1.09-.162,2.45,2.45,0,0,1-.787-.423,1.759,1.759,0,0,1-.478-.6,1.632,1.632,0,0,1-.163-.713,1.6,1.6,0,0,1,.163-.7,1.834,1.834,0,0,1,.478-.61,2.339,2.339,0,0,1,.787-.422,3.442,3.442,0,0,1,1.09-.156,3.4,3.4,0,0,1,1.085.156,2.44,2.44,0,0,1,.787.422,1.788,1.788,0,0,1,.483.61,1.612,1.612,0,0,1,.163.7,1.646,1.646,0,0,1-.163.713,1.717,1.717,0,0,1-.483.6,2.562,2.562,0,0,1-.787.423A3.307,3.307,0,0,1,169.854,969.119Zm-1.865-5.747v-1.147h3.721v1.147Zm7.093,9.306H168.36v-2.736h1.4v1.518h5.319Zm-5.228-4.614a1.356,1.356,0,0,0,.91-.248.761.761,0,0,0,.282-.585.793.793,0,0,0-.276-.6,1.329,1.329,0,0,0-.916-.254,1.348,1.348,0,0,0-.933.254.8.8,0,0,0-.27.6.772.772,0,0,0,.27.585A1.371,1.371,0,0,0,169.854,968.064Zm6.575-1.135h-1.562v3.361h-1.381v-8.147h1.381V965.7h1.562Z" fill="#12265b"/>
          <path id="패스_4354" data-name="패스 4354" d="M177.948,962.432h6.88q-.022,1.078-.09,1.971c-.046.595-.1,1.143-.157,1.646h1.81v1.193H182.2v1.715h2.662v3.953H183.48v-2.735h-5.589v-1.218h2.9v-1.715h-4.249v-1.193h6.643c.069-.472.12-.9.158-1.293s.056-.758.056-1.106h-5.452Z" fill="#12265b"/>
          <path id="패스_4355" data-name="패스 4355" d="M187.762,967.033l-.056-2.747h1.36l.045,2.747h1.321c.131,0,.26,0,.387-.01l.045-2.737h1.361l-.057,2.631q.348-.045.7-.1c.236-.037.478-.088.725-.15v1.16a8.78,8.78,0,0,1-1.7.313q-.909.081-1.832.081h-3.45v-1.183Zm-.932-3.094v-1.205H193v1.205Zm8.654,8.739h-6.721V969.34h1.4v2.12h5.317Zm-1.595-10.535h1.393v7.973h-1.393Z" fill="#12265b"/>
          <path id="패스_4356" data-name="패스 4356" d="M197.283,970.348v-7.336h3.676v1.17h-2.294v1.808h1.855v1.16h-1.855v2.005h.023a10.563,10.563,0,0,0,1.518-.111,12.524,12.524,0,0,0,1.5-.306V969.9c-.224.07-.472.134-.742.191s-.551.107-.842.146-.593.067-.9.086-.612.029-.911.029Zm4.913-8.089h1.28V972.62H202.2v-5.61h-1.113v-1.147H202.2Zm3.384,10.628h-1.316V962.143h1.316Z" fill="#12265b"/>
          <path id="패스_4357" data-name="패스 4357" d="M213.381,964.3h-5.463v-1.2h6.845c-.014.573-.041,1.161-.083,1.768s-.092,1.209-.152,1.808-.128,1.188-.2,1.766-.153,1.133-.236,1.659h2.1v1.193h-9.644v-1.193h6.138c.083-.441.16-.885.236-1.334s.143-.9.2-1.345a12.408,12.408,0,0,1-1.269.123q-.642.03-1.361.029h-2.721v-1.193h2.923q.708,0,1.315-.03c.406-.019.822-.047,1.249-.087.036-.34.065-.672.084-1S213.374,964.615,213.381,964.3Z" fill="#12265b"/>
          <path id="패스_4358" data-name="패스 4358" d="M221.08,966.86a11.089,11.089,0,0,0,1.142,1.4,9.063,9.063,0,0,0,1.4,1.183l-.967,1.03a8.908,8.908,0,0,1-1.254-1.129,14.085,14.085,0,0,1-1.062-1.316,10.688,10.688,0,0,1-1.332,1.536,9.9,9.9,0,0,1-1.568,1.222l-.945-.938a8.867,8.867,0,0,0,1.719-1.31,9.557,9.557,0,0,0,1.249-1.483,7.32,7.32,0,0,0,.782-1.484,5.331,5.331,0,0,0,.332-1.31c-.368.016-.734.023-1.1.023h-2.265v-1.228h1.765q.708,0,1.462-.006c.5,0,1.072-.009,1.708-.017a7.734,7.734,0,0,1-.3,1.953A8.97,8.97,0,0,1,221.08,966.86Zm2.722-4.717H225.2v10.744H223.8Z" fill="#12265b"/>
          <path id="패스_4359" data-name="패스 4359" d="M226.724,967.023h1.62c.39,0,.806-.007,1.247-.018s.894-.031,1.355-.058.919-.06,1.376-.1.893-.086,1.3-.138v1.124c-.4.061-.832.114-1.286.156s-.916.08-1.389.109v1.774H229.6v-1.715c-.217.008-.429.013-.635.017s-.406.006-.6.006h-1.643Zm6.239-2.6a1.975,1.975,0,0,1-.191.87,2.049,2.049,0,0,1-.538.684,2.488,2.488,0,0,1-.839.445,3.585,3.585,0,0,1-1.1.157,3.662,3.662,0,0,1-1.1-.157,2.414,2.414,0,0,1-.837-.445,2.028,2.028,0,0,1,0-3.107,2.382,2.382,0,0,1,.837-.445,3.6,3.6,0,0,1,1.1-.157,3.526,3.526,0,0,1,1.1.157,2.454,2.454,0,0,1,.839.445,2.046,2.046,0,0,1,.538.683A1.974,1.974,0,0,1,232.963,964.426Zm2.621,8.252h-7.251V970.1h1.348v1.368h5.9Zm-4.014-8.252a1.234,1.234,0,0,0-.062-.377.883.883,0,0,0-.2-.341.98.98,0,0,0-.388-.244,1.766,1.766,0,0,0-.618-.092,1.728,1.728,0,0,0-.613.092.984.984,0,0,0-.382.244.854.854,0,0,0-.2.341,1.32,1.32,0,0,0-.056.377,1.3,1.3,0,0,0,.056.376.856.856,0,0,0,.2.343,1.018,1.018,0,0,0,.382.243,1.726,1.726,0,0,0,.613.093,1.764,1.764,0,0,0,.618-.093,1.013,1.013,0,0,0,.388-.243.884.884,0,0,0,.2-.343A1.218,1.218,0,0,0,231.57,964.426Zm2.462,6.2v-.963h-2.1v-1.089h2.1v-6.432h1.383v8.484Z" fill="#12265b"/>
          <path id="패스_4360" data-name="패스 4360" d="M237.247,968.69l-.968-.891a5.925,5.925,0,0,0,1.236-1.061,4.205,4.205,0,0,0,.727-1.188,4.77,4.77,0,0,0,.31-1.373,10.849,10.849,0,0,0-.012-1.617h1.36c.008.387,0,.751-.017,1.1a8.047,8.047,0,0,1-.119,1,6.446,6.446,0,0,0,.85,1.593,6.291,6.291,0,0,0,1.343,1.3l-.956.88a6.01,6.01,0,0,1-1.764-2.073,5.73,5.73,0,0,1-.8,1.233A6.826,6.826,0,0,1,237.247,968.69Zm8.3,3.988h-6.826V969.27h1.407v2.19h5.419Zm-4.913-8.206h1.4v-2.213h1.317V970h-1.317v-4.4h-1.4Zm4.744,5.749h-1.326v-8.078h1.326Z" fill="#12265b"/>
          <path id="패스_4361" data-name="패스 4361" d="M249.141,970.279h-2.159v-7.29h4.531v1.193h-3.138v1.831h2.891v1.2h-2.891v1.878h1.092a12.622,12.622,0,0,0,1.68-.117c.574-.077,1.2-.19,1.883-.336V969.8a13.77,13.77,0,0,1-1.894.358A16.707,16.707,0,0,1,249.141,970.279Zm2.934-3.315v-1.217h1.64v-3.6h1.394v10.744h-1.394v-5.923Z" fill="#12265b"/>
        </g>
      </g>
      <path id="패스_4362" data-name="패스 4362" d="M139.1,978.34l1.942-.973,5.563,5.3Zm17.313-.975,2.017.928-7.584,4.379Zm-14.506-.064h13.635l-6.816,6.5Zm14.823-.5,2.105-8.2v9.169Zm-18.114-8.365,2.107,8.372-2.107,1.055Zm10.11-3.781,7.059,12h-14.12Zm-9.976,1.669,9.331-1.85-6.861,11.665Zm10.616-1.855,9.224,1.779.159.092-2.516,9.8Zm-.319-.719v-3.01l7.834,4.52Zm-.645-3.01v3.013l-7.946,1.574Zm.046-1.3-10.657,6.153a.55.55,0,0,0-.275.476v12.308a.547.547,0,0,0,.275.475l10.657,6.154a.551.551,0,0,0,.277.074.541.541,0,0,0,.275-.074l10.659-6.154a.544.544,0,0,0,.274-.475V966.07a.547.547,0,0,0-.274-.476L149,959.441a.55.55,0,0,0-.275-.073.56.56,0,0,0-.277.073" fill="#12265b"/>
    </g>
    <g id="그룹_3342" data-name="그룹 3342">
      <circle id="타원_14" data-name="타원 14" cx="14.627" cy="14.627" r="14.627" transform="translate(23.433 958.017)" fill="#fff"/>
      <path id="패스_4363" data-name="패스 4363" d="M45.2,971.6a4.975,4.975,0,0,0-7.077,1.485,4.98,4.98,0,0,1-9-1.37h0c0-.018-.008-.033-.014-.051s-.011-.042-.016-.064a6.361,6.361,0,0,1-.255-1.978c0-4.463,4.579-9.432,11.175-9.432a12.579,12.579,0,0,1,11.613,8c-.017-.049-.033-.1-.05-.151A14.224,14.224,0,0,0,23.9,972.647c0,7.019,5.064,13.03,12.087,13.03a11.424,11.424,0,0,0,11.094-7.47A5.479,5.479,0,0,0,45.2,971.6" fill="#002b51"/>
      <path id="패스_4364" data-name="패스 4364" d="M51.71,968.462a12.538,12.538,0,0,0-11.7-8.276c-6.6,0-11.175,4.969-11.175,9.432a6.361,6.361,0,0,0,.255,1.978,4.15,4.15,0,0,1-.131-1.014c0-4.648,4.655-7.869,9.438-7.869a11.726,11.726,0,0,1,11.726,11.725,12.924,12.924,0,0,1-7.167,11.581l0,0a14.228,14.228,0,0,0,9.379-13.376,14.019,14.019,0,0,0-.626-4.185" fill="#da0021"/>
      <path id="패스_4365" data-name="패스 4365" d="M69.761,972.751H59.313v-1.223H69.761Zm-2.255-2.013v-2.294H60.154v-1.223h8.767v3.517Zm1.415,7.441H60.154v-4.268h8.767Zm-1.428-3.1H61.569v1.873h5.924Z" fill="#464545"/>
      <path id="패스_4366" data-name="패스 4366" d="M71.019,972.98v-1.146H81.466v1.146H79.211v1.1h-1.3v-1.1H74.574v1.1H73.261v-1.1Zm7.963,3.325a2.349,2.349,0,0,1-.217.995,2.477,2.477,0,0,1-.6.815,2.666,2.666,0,0,1-.861.567,2.731,2.731,0,0,1-1.063.21,2.685,2.685,0,0,1-1.058-.21,2.79,2.79,0,0,1-.866-.567,2.548,2.548,0,0,1-.587-.815,2.4,2.4,0,0,1,0-1.988,2.548,2.548,0,0,1,.587-.815,2.79,2.79,0,0,1,.866-.567,2.669,2.669,0,0,1,1.058-.211,2.714,2.714,0,0,1,1.063.211,2.666,2.666,0,0,1,.861.567,2.477,2.477,0,0,1,.6.815,2.344,2.344,0,0,1,.217.993m-.064-7.415a2.2,2.2,0,0,1-.216.962,2.725,2.725,0,0,1-1.421,1.332,2.683,2.683,0,0,1-1.038.2,2.634,2.634,0,0,1-1.033-.2,2.666,2.666,0,0,1-.827-.536,2.591,2.591,0,0,1-.587-.8,2.188,2.188,0,0,1-.216-.962,2.161,2.161,0,0,1,.216-.949,2.6,2.6,0,0,1,.587-.8,2.682,2.682,0,0,1,.827-.536,2.65,2.65,0,0,1,1.033-.2,2.731,2.731,0,0,1,1.873.739,2.667,2.667,0,0,1,.586.8,2.175,2.175,0,0,1,.216.949m-1.312,7.4a1.329,1.329,0,0,0-.4-.962,1.293,1.293,0,0,0-.956-.4,1.33,1.33,0,0,0-.968.4,1.3,1.3,0,0,0-.408.962,1.393,1.393,0,0,0,1.376,1.376,1.284,1.284,0,0,0,.956-.408,1.347,1.347,0,0,0,.4-.968m-.064-7.39a1.233,1.233,0,0,0-.382-.9,1.252,1.252,0,0,0-.917-.383,1.287,1.287,0,1,0,0,2.574,1.261,1.261,0,0,0,.917-.376,1.228,1.228,0,0,0,.382-.911" fill="#464545"/>
      <path id="패스_4367" data-name="패스 4367" d="M82.375,974.917v-1.249h7.607v1.249H86.8v3.071H85.408v-3.071Zm6.74-4.842a2.667,2.667,0,0,1-.236,1.109,2.7,2.7,0,0,1-.656.9,3.233,3.233,0,0,1-.968.625,3.114,3.114,0,0,1-2.344,0,3.213,3.213,0,0,1-.969-.625,2.808,2.808,0,0,1-.663-.9,2.66,2.66,0,0,1,0-2.217,2.978,2.978,0,0,1,.663-.918,3.211,3.211,0,0,1,.969-.624,3.114,3.114,0,0,1,2.344,0,3.231,3.231,0,0,1,.968.624,2.862,2.862,0,0,1,.656.918,2.666,2.666,0,0,1,.236,1.108m-1.35,0a1.577,1.577,0,0,0-.5-1.172,1.644,1.644,0,0,0-1.185-.484,1.621,1.621,0,0,0-1.179.484,1.637,1.637,0,0,0,0,2.338,1.608,1.608,0,0,0,1.179.491,1.631,1.631,0,0,0,1.185-.491,1.583,1.583,0,0,0,.5-1.166m3.07-3.083h1.4v11.365h-1.4Z" fill="#464545"/>
      <path id="패스_4368" data-name="패스 4368" d="M98.719,973.541v1.529h-1.4v-1.529h-3.1v-1.172H101.8v1.172Zm-2.369.994V976.9h8.115v1.224h-9.53v-3.593Zm4.294-5.135a2.263,2.263,0,0,1-.223.987,2.685,2.685,0,0,1-1.46,1.37,2.843,2.843,0,0,1-2.115,0,3,3,0,0,1-.879-.548,2.922,2.922,0,0,1-.579-.822,2.25,2.25,0,0,1-.224-.987,2.212,2.212,0,0,1,.224-.981,2.98,2.98,0,0,1,.579-.816,2.893,2.893,0,0,1,2.994-.554,2.664,2.664,0,0,1,.867.554,2.9,2.9,0,0,1,.593.816,2.225,2.225,0,0,1,.223.981m-1.339.012a1.317,1.317,0,0,0-.407-.974,1.43,1.43,0,0,0-1.988,0,1.37,1.37,0,0,0,0,1.949,1.43,1.43,0,0,0,1.988,0,1.318,1.318,0,0,0,.407-.975m3.454,1.963H101.14v-1.16h1.619v-3.223h1.4V975.2h-1.4Z" fill="#464545"/>
      <path id="패스_4369" data-name="패스 4369" d="M113.46,977.223h-7.454v-1.236h3v-1.414a2.607,2.607,0,0,1-.383-.127,2.951,2.951,0,0,1-.891-.549,2.6,2.6,0,0,1-.6-.821,2.287,2.287,0,0,1-.217-.988,2.244,2.244,0,0,1,.217-.98,2.63,2.63,0,0,1,.6-.816,2.734,2.734,0,0,1,.885-.554,2.912,2.912,0,0,1,1.077-.2,2.864,2.864,0,0,1,1.07.2,2.633,2.633,0,0,1,.867.554,2.763,2.763,0,0,1,.6.816,2.207,2.207,0,0,1,.223.98,2.25,2.25,0,0,1-.223.988,2.733,2.733,0,0,1-.6.821,2.845,2.845,0,0,1-.867.549,2.522,2.522,0,0,1-.42.14v1.4h3.121Zm-4.561-9.1v-1.211h1.529v1.211h2.765v1.21h-7.06v-1.21Zm2.178,3.95a1.306,1.306,0,0,0-.408-.963,1.434,1.434,0,0,0-1.987,0,1.306,1.306,0,0,0-.408.963,1.322,1.322,0,0,0,.408.968,1.414,1.414,0,0,0,1.987,0,1.322,1.322,0,0,0,.408-.968m3.39-5.084h1.4v11.365h-1.4Z" fill="#464545"/>
    </g>
  </g>
</svg>
