<svg xmlns="http://www.w3.org/2000/svg" xmlns:xlink="http://www.w3.org/1999/xlink" width="885.98" height="204.591" viewBox="0 0 885.98 204.591">
  <defs>
    <clipPath id="clip-path">
      <path id="패스_4136" data-name="패스 4136" d="M101.25,347.128l.062-21.8a10.3,10.3,0,0,1,2.051-5.916,19.943,19.943,0,0,1,6.36-5.488,34.745,34.745,0,0,1,5.786-2.739,36.292,36.292,0,0,1,5.891-1.578,40.476,40.476,0,0,1,6-.609,50.238,50.238,0,0,1,5.716.179l-.062,21.8a50.18,50.18,0,0,0-5.714-.179,40.475,40.475,0,0,0-6,.609,36,36,0,0,0-5.889,1.578,34.986,34.986,0,0,0-5.788,2.737,19.968,19.968,0,0,0-6.36,5.49A10.294,10.294,0,0,0,101.25,347.128Z" transform="translate(-101.25 -308.985)" fill="none"/>
    </clipPath>
    <clipPath id="clip-path-2">
      <path id="패스_4154" data-name="패스 4154" d="M108.722,339.69a4.722,4.722,0,0,0-.73,2.455l.062-21.8a4.729,4.729,0,0,1,.73-2.457q-.031,10.9-.062,21.8.031-10.9.062-21.8a8.025,8.025,0,0,1,2.9-2.646,16.29,16.29,0,0,1,6-2.088,32.849,32.849,0,0,1,6.63-.212l-.062,21.8a33.024,33.024,0,0,0-6.63.21,16.308,16.308,0,0,0-5.994,2.091A8.014,8.014,0,0,0,108.722,339.69Z" transform="translate(-107.992 -312.87)" fill="none"/>
    </clipPath>
    <clipPath id="clip-path-3">
      <path id="패스_4157" data-name="패스 4157" d="M121.725,337.948c-.025-.374,0-.875,0-1.251l.008-2.628.008-2.757q0-2.133.01-4.263.015-5.451.031-10.9a10.964,10.964,0,0,1,.111,1.549l-.062,21.8A10.647,10.647,0,0,0,121.725,337.948Z" transform="translate(-121.715 -316.149)" fill="none"/>
    </clipPath>
    <clipPath id="clip-path-4">
      <path id="패스_4159" data-name="패스 4159" d="M121.642,317.759l-.06,21.8a11.44,11.44,0,0,0-.128-1.665l.062-21.8A11.152,11.152,0,0,1,121.642,317.759Z" transform="translate(-121.455 -316.094)" fill="none"/>
    </clipPath>
    <clipPath id="clip-path-5">
      <path id="패스_4161" data-name="패스 4161" d="M128.526,318.98l-.062,21.8a13.739,13.739,0,0,0-.438-3.451l.062-21.8A13.849,13.849,0,0,1,128.526,318.98Z" transform="translate(-128.026 -315.529)" fill="none"/>
    </clipPath>
    <clipPath id="clip-path-6">
      <path id="패스_4163" data-name="패스 4163" d="M107.992,338.3l.062-21.8a3.877,3.877,0,0,0,.029.51,5.941,5.941,0,0,0,1.362,3,11.807,11.807,0,0,0,3.385,2.776l-.06,21.8a11.845,11.845,0,0,1-3.387-2.776,5.949,5.949,0,0,1-1.362-3A4.281,4.281,0,0,1,107.992,338.3Z" transform="translate(-107.992 -316.504)" fill="none"/>
    </clipPath>
    <clipPath id="clip-path-7">
      <path id="패스_4182" data-name="패스 4182" d="M133.956,316.9l-.062,21.8c0,.15,0,.3-.012.442a6.182,6.182,0,0,1-.426,1.986,5.7,5.7,0,0,1-1.288,1.887,11.462,11.462,0,0,1-2.377,1.784,14.865,14.865,0,0,1-4.51,1.708,20.9,20.9,0,0,1-5.072.42,22.767,22.767,0,0,1-5.169-.8,19.68,19.68,0,0,1-4.726-1.953l.06-21.8a19.617,19.617,0,0,0,4.728,1.955,22.849,22.849,0,0,0,5.169.8,21.084,21.084,0,0,0,5.07-.42,14.933,14.933,0,0,0,4.512-1.71,11.533,11.533,0,0,0,2.377-1.782,5.72,5.72,0,0,0,1.288-1.887,6.25,6.25,0,0,0,.426-1.988C133.952,317.2,133.954,317.051,133.956,316.9Z" transform="translate(-110.314 -316.903)" fill="none"/>
    </clipPath>
    <clipPath id="clip-path-8">
      <path id="패스_4192" data-name="패스 4192" d="M128.7,350.032a33.417,33.417,0,0,1-8.959,3.566q.031-10.9.062-21.8a33.415,33.415,0,0,0,8.959-3.564q-.031,10.9-.06,21.8.022-8.448.047-16.9c0-1.634.012-3.265.012-4.9a24.83,24.83,0,0,0,4.928-3.644q-.028,10.9-.06,21.8.031-10.9.06-21.8a13.393,13.393,0,0,0,2.7-3.654q-.031,10.9-.06,21.8.028-10.9.06-21.8a8.62,8.62,0,0,0,.891-3.652v-.078l-.062,21.8v.078a8.663,8.663,0,0,1-.889,3.652,13.478,13.478,0,0,1-2.7,3.654A24.828,24.828,0,0,1,128.7,350.032Zm8.584-32.745h0l0,1.091,0,1.128,0,1.156,0,1.183,0,1.206,0,1.222,0,1.237,0,1.245,0,1.251,0,1.249,0,1.249,0,1.239,0,1.226,0,1.212,0,1.189,0,1.165v.652l0,.163v.482l0,.158v.628l0,.156v0l0-.156v-.628l0-.158v-.482l0-.163v-.652l0-1.165,0-1.189,0-1.212,0-1.226,0-1.239,0-1.249,0-1.251,0-1.249,0-1.245,0-1.237,0-1.224,0-1.2,0-1.183,0-1.156,0-1.128,0-1.091" transform="translate(-119.743 -317.206)" fill="none"/>
    </clipPath>
    <clipPath id="clip-path-9">
      <path id="패스_4194" data-name="패스 4194" d="M101.252,338.872c0-.049,0-.1,0-.146l.062-21.8c0,.047,0,.1,0,.144q-.031,10.9-.062,21.8.031-10.9.062-21.8a10.7,10.7,0,0,0,2.115,6.033q-.028,10.9-.06,21.8.031-10.9.062-21.8a19.328,19.328,0,0,0,6.218,5.37q-.031,10.849-.062,21.7.019-6.136.035-12.272c.008-3.142.027-6.284.027-9.426l.037.021.1.062q-.031,10.9-.062,21.8l-.1-.062a19.4,19.4,0,0,1-6.255-5.391A10.69,10.69,0,0,1,101.252,338.872Z" transform="translate(-101.25 -316.929)" fill="none"/>
    </clipPath>
    <clipPath id="clip-path-10">
      <path id="패스_4196" data-name="패스 4196" d="M119.743,346.1h0q.028-10.9.06-21.8h0Q119.774,335.2,119.743,346.1Z" transform="translate(-119.743 -324.298)" fill="none"/>
    </clipPath>
    <clipPath id="clip-path-11">
      <path id="패스_4207" data-name="패스 4207" d="M105.371,344.38q.031-10.9.062-21.8a33.457,33.457,0,0,0,9.163,3.564q-.031,10.9-.062,21.8.012-4.469.027-8.934.009-3.549.019-7.1c.006-1.922.016-3.844.016-5.766a45.111,45.111,0,0,0,10.268,1.187q-.031,10.9-.06,21.8.031-10.9.06-21.8A42.486,42.486,0,0,0,135,326.114q-.031,10.9-.06,21.8a42.512,42.512,0,0,1-10.142,1.218,45.226,45.226,0,0,1-10.268-1.187A33.484,33.484,0,0,1,105.371,344.38Z" transform="translate(-105.371 -322.581)" fill="none"/>
    </clipPath>
  </defs>
  <g id="그룹_3337" data-name="그룹 3337" transform="translate(-139.189 -335)">
    <g id="그룹_3144" data-name="그룹 3144" transform="translate(24.021 28.758)">
      <path id="패스_1643" data-name="패스 1643" d="M26.568,82.25H47.635V66.126H64.063V82.25H96.539V96.073H26.568ZM29.61,49.386h47l.533-8.523h-48.3V27.041H94.257l-3.194,53.29H74.635l1.14-17.968H29.61Z" transform="translate(88.6 301.353)" fill="#12265b"/>
      <path id="패스_1644" data-name="패스 1644" d="M104.134,28.192h42.972V66.355H120.867V79.717l31.943-2.534V91l-48.676,3.917V53.3H130.6V41.631H104.134Zm50.5-2.3h17.112V97.224H154.636Z" transform="translate(88.6 301.353)" fill="#12265b"/>
      <path id="패스_1645" data-name="패스 1645" d="M180.18,46.007c0-11.288,9.127-18.966,20.307-18.966,11.257,0,20.383,7.678,20.383,18.966v31.1c0,11.287-9.126,18.967-20.383,18.967-11.18,0-20.307-7.68-20.307-18.967Zm15.287,32.021A5.073,5.073,0,0,0,200.64,83.1a5.139,5.139,0,0,0,5.247-5.067V45.085a5.3,5.3,0,0,0-5.247-5.144,5.234,5.234,0,0,0-5.173,5.144Zm33.389-52.139h16.732V51.766h7.91V66.432h-7.91V97.224H228.856Z" transform="translate(88.6 301.353)" fill="#12265b"/>
      <path id="패스_1646" data-name="패스 1646" d="M27.328,150.2H33.26l-1.673-17.277H46.038L47.407,150.2h6.617l1.369-17.277H69.844L68.094,150.2h5.932V162.02h-46.7Zm.76-31.023H73.266V131H28.088Zm68.755,70.184H31.283v-23.65h16.96v10.749h48.6ZM78.59,118.021H95.7v53.444H78.59Z" transform="translate(88.6 301.353)" fill="#a7367b"/>
      <path id="패스_1647" data-name="패스 1647" d="M104.134,120.324h33.693v13.055H104.134Zm36.66,63.657-36.66,3.072V137.6h32.933v12.67H118.205v21.962l22.589-1.844Zm-8.367-31.022H142.7V118.021h13.31v71.335H142.7V166.013H132.427Zm26.544-34.938h13.614v71.335H158.971Z" transform="translate(88.6 301.353)" fill="#a7367b"/>
      <path id="패스_1648" data-name="패스 1648" d="M178.659,174h69.972V188.2H178.659Zm3.042-30.177h45.938l.836-10.75H180.941v-13.9h65.408l-3.575,52.907H225.586l1.14-15.281H181.7Z" transform="translate(88.6 301.353)" fill="#a7367b"/>
    </g>
    <g id="그룹_3201" data-name="그룹 3201" transform="translate(-110.457 332.777)">
      <path id="패스_4087" data-name="패스 4087" d="M916.6,63.616h50.121V75.9H948.777l-5.02,20.656H926.949L931.968,75.9H916.6Zm1.521-20.348c0-9.6,6.617-17.278,15.82-17.278h13.69c9.2,0,15.82,7.679,15.82,17.278s-6.617,17.277-15.82,17.277h-13.69C924.743,60.545,918.126,52.866,918.126,43.268ZM944.9,48.182c2.206,0,3.955-2.3,3.955-4.837,0-2.764-1.749-4.992-3.955-4.992h-8.214c-2.129,0-3.8,2.3-3.8,4.992,0,2.534,1.674,4.837,3.8,4.837Zm23.73-22.959H985.74V96.558H968.628Z" fill="#12265b"/>
      <path id="패스_4088" data-name="패스 4088" d="M1065.653,81.2h69.972V95.406h-69.972Zm3.042-30.177h45.939l.836-10.751h-47.535v-13.9h65.408l-3.575,52.906H1112.58L1113.721,64h-45.026Z" fill="#12265b"/>
      <path id="패스_4089" data-name="패스 4089" d="M916.631,169.757l24.356-18.771a34.148,34.148,0,0,0,6.462-6.2,9.413,9.413,0,0,0,1.905-5.63,6.211,6.211,0,0,0-2-4.881,7.6,7.6,0,0,0-5.253-1.784,10.717,10.717,0,0,0-6.182,2.018,38.319,38.319,0,0,0-6.74,6.429L917,130.712a56.38,56.38,0,0,1,5.3-6.006,28.874,28.874,0,0,1,5.811-4.412,26.857,26.857,0,0,1,6.879-2.722,35.341,35.341,0,0,1,8.506-.938,29.168,29.168,0,0,1,9.715,1.548,23.283,23.283,0,0,1,7.577,4.271,18.963,18.963,0,0,1,4.927,6.617,20.332,20.332,0,0,1,1.766,8.493v.188a23.414,23.414,0,0,1-.975,7.039,19.908,19.908,0,0,1-2.929,5.773,31.5,31.5,0,0,1-4.741,5.116q-2.788,2.44-6.415,5.068l-11.156,7.884h26.867V183.46h-51.5Z" fill="#12265b"/>
      <path id="패스_4090" data-name="패스 4090" d="M1006.434,184.774a28.662,28.662,0,0,1-12.55-2.675,27.605,27.605,0,0,1-9.436-7.32,33.637,33.637,0,0,1-5.95-10.841,40.81,40.81,0,0,1-2.092-13.14v-.188a40.4,40.4,0,0,1,2.139-13.187,33.7,33.7,0,0,1,6.042-10.887,28.631,28.631,0,0,1,9.483-7.368,28.683,28.683,0,0,1,34.489,7.273,33.141,33.141,0,0,1,6,10.841,40.825,40.825,0,0,1,2.092,13.14v.188a41.243,41.243,0,0,1-2.092,13.188,32.6,32.6,0,0,1-6.043,10.887,29.131,29.131,0,0,1-9.529,7.367A28.236,28.236,0,0,1,1006.434,184.774Zm.186-16.143a9.52,9.52,0,0,0,4.927-1.314,11.266,11.266,0,0,0,3.765-3.707,19.349,19.349,0,0,0,2.371-5.632,28.69,28.69,0,0,0,.837-7.18v-.188a27.839,27.839,0,0,0-.884-7.227,19.4,19.4,0,0,0-2.463-5.678,12.155,12.155,0,0,0-3.811-3.754,9.659,9.659,0,0,0-9.809-.048,12.029,12.029,0,0,0-3.765,3.66,17.933,17.933,0,0,0-2.417,5.632,29.312,29.312,0,0,0-.836,7.227v.188a28.275,28.275,0,0,0,.883,7.274,19.271,19.271,0,0,0,2.463,5.726,11.667,11.667,0,0,0,3.812,3.707A9.52,9.52,0,0,0,1006.62,168.631Z" fill="#12265b"/>
      <path id="패스_4091" data-name="패스 4091" d="M1044.549,169.757l24.357-18.771a34.106,34.106,0,0,0,6.461-6.2,9.408,9.408,0,0,0,1.906-5.63,6.209,6.209,0,0,0-2-4.881,7.6,7.6,0,0,0-5.253-1.784,10.72,10.72,0,0,0-6.182,2.018,38.355,38.355,0,0,0-6.74,6.429l-12.178-10.23a56.276,56.276,0,0,1,5.3-6.006,28.847,28.847,0,0,1,5.811-4.412,26.835,26.835,0,0,1,6.878-2.722,35.35,35.35,0,0,1,8.507-.938,29.172,29.172,0,0,1,9.715,1.548,23.279,23.279,0,0,1,7.576,4.271,18.952,18.952,0,0,1,4.927,6.617,20.332,20.332,0,0,1,1.767,8.493v.188a23.38,23.38,0,0,1-.976,7.039,19.88,19.88,0,0,1-2.928,5.773,31.511,31.511,0,0,1-4.742,5.116q-2.789,2.44-6.415,5.068l-11.155,7.884h26.866V183.46h-51.5Z" fill="#12265b"/>
      <path id="패스_4092" data-name="패스 4092" d="M1115.666,134.279l-10.97,2.534-3.44-14.079,19.058-5.443h13.108V183.46h-17.756Z" fill="#12265b"/>
    </g>
    <g id="그룹_3336" data-name="그룹 3336" transform="translate(431.025 42.701)">
      <path id="패스_4093" data-name="패스 4093" d="M63.573,405.089l-11.545,1.288L6.684,380.127l23.74-12.935Z" transform="translate(0 79.21)" fill="#ccb3d7" opacity="0.3"/>
      <path id="패스_4094" data-name="패스 4094" d="M80.644,393.691,69.1,394.979l-45.344-26.25L42.44,358.61l-.061,12.777Z" transform="translate(18.055 70.133)" fill="#ccb3d7" opacity="0.3"/>
      <path id="패스_4095" data-name="패스 4095" d="M126.821,366.528l-11.545,1.288-45.344-26.25,18.685-10.119-.061,12.777Z" transform="translate(66.893 41.404)" fill="#ccb3d7" opacity="0.3"/>
      <path id="패스_4096" data-name="패스 4096" d="M163.463,345.075l-11.545,1.288-45.344-26.25,18.685-10.119L125.2,322.77Z" transform="translate(105.648 18.714)" fill="#ccb3d7" opacity="0.3"/>
      <path id="패스_4097" data-name="패스 4097" d="M174.94,338.212,163.395,339.5l-45.344-26.25,18.685-10.119-.061,12.777Z" transform="translate(117.786 11.456)" fill="#ccb3d7" opacity="0.3"/>
      <path id="패스_4098" data-name="패스 4098" d="M146.509,353.543l-11.545,1.288L89.62,328.58,108.3,318.461l-.061,12.777Z" transform="translate(87.716 27.67)" fill="#ccb3d7" opacity="0.3"/>
      <path id="패스_4099" data-name="패스 4099" d="M89.055,388.687,77.51,389.974l-45.344-26.25,18.685-10.119-.061,12.777Z" transform="translate(26.951 64.84)" fill="#ccb3d7" opacity="0.3"/>
      <path id="패스_4100" data-name="패스 4100" d="M101.955,381.144,82.084,383.36,45.067,356.181l18.685-10.119-.061,12.777Z" transform="translate(40.595 56.862)" fill="#ccb3d7" opacity="0.3"/>
      <path id="패스_4101" data-name="패스 4101" d="M114.134,374.045l-19.871,2.217L57.246,349.083l18.685-10.119-.061,12.777Z" transform="translate(53.476 49.354)" fill="#ccb3d7" opacity="0.3"/>
      <g id="그룹_3202" data-name="그룹 3202" transform="translate(255.15 299.88)">
        <path id="패스_4102" data-name="패스 4102" d="M137.558,295.983l-.061,21.8-10.06,5.9.061-21.8Z" transform="translate(-127.437 -295.983)" fill="#f89000"/>
      </g>
      <g id="그룹_3203" data-name="그룹 3203" transform="translate(265.21 299.88)">
        <path id="패스_4103" data-name="패스 4103" d="M169.9,317.85l-.061,21.8-37.514-21.867.061-21.8Z" transform="translate(-132.326 -295.983)" fill="#f89000"/>
      </g>
      <g id="그룹_3204" data-name="그룹 3204" transform="translate(255.15 305.782)">
        <path id="패스_4104" data-name="패스 4104" d="M141.679,307.118l-.061,21.8-14.181-8.266.061-21.8Z" transform="translate(-127.437 -298.852)" fill="#898989"/>
      </g>
      <g id="그룹_3205" data-name="그룹 3205" transform="translate(254.401 305.782)">
        <path id="패스_4105" data-name="패스 4105" d="M141.316,307.118l-.061,21.8-14.181-8.266.061-21.8Z" transform="translate(-127.073 -298.852)" fill="#253988"/>
      </g>
      <g id="그룹_3206" data-name="그룹 3206" transform="translate(231.326 313.857)">
        <path id="패스_4106" data-name="패스 4106" d="M125.98,302.776l-.061,21.8-10.06,5.9.061-21.8Z" transform="translate(-115.859 -302.776)" fill="#f89000"/>
      </g>
      <g id="그룹_3207" data-name="그룹 3207" transform="translate(255.568 314.048)">
        <path id="패스_4107" data-name="패스 4107" d="M141.464,302.869l-.061,21.8-13.763,8.075.061-21.8Z" transform="translate(-127.64 -302.869)" fill="#f89000"/>
      </g>
      <g id="그룹_3208" data-name="그룹 3208" transform="translate(241.387 313.857)">
        <path id="패스_4108" data-name="패스 4108" d="M134.991,311.042l-.061,21.8-14.181-8.266.061-21.8Z" transform="translate(-120.748 -302.776)" fill="#f89000"/>
      </g>
      <g id="그룹_3209" data-name="그룹 3209" transform="translate(264.503 319.257)">
        <path id="패스_4109" data-name="패스 4109" d="M145.807,305.4l-.061,21.8-13.763,8.075.061-21.8Z" transform="translate(-131.983 -305.4)" fill="#c5c5c5"/>
      </g>
      <g id="그룹_3210" data-name="그룹 3210" transform="translate(278.266 319.257)">
        <path id="패스_4110" data-name="패스 4110" d="M153.13,313.793l-.061,21.8-14.4-8.392.061-21.8Z" transform="translate(-138.671 -305.4)" fill="#898989"/>
      </g>
      <g id="그룹_3211" data-name="그룹 3211" transform="translate(265.252 319.695)">
        <path id="패스_4111" data-name="패스 4111" d="M145.425,305.613l-.061,21.8-13.017,7.637.061-21.8Z" transform="translate(-132.346 -305.613)" fill="#8f77b3"/>
      </g>
      <g id="그룹_3212" data-name="그룹 3212" transform="translate(292.664 321.747)">
        <path id="패스_4112" data-name="패스 4112" d="M155.79,306.61l-.061,21.8-10.06,5.9.061-21.8Z" transform="translate(-145.669 -306.61)" fill="#c5c5c5"/>
      </g>
      <g id="그룹_3213" data-name="그룹 3213" transform="translate(292.667 321.747)">
        <path id="패스_4113" data-name="패스 4113" d="M156.537,306.61l-.061,21.8-10.806,6.34.061-21.8Z" transform="translate(-145.67 -306.61)" fill="#8f77b3"/>
      </g>
      <g id="그룹_3214" data-name="그룹 3214" transform="translate(278.269 319.695)">
        <path id="패스_4114" data-name="패스 4114" d="M153.132,314.005l-.061,21.8-14.4-8.392.061-21.8Z" transform="translate(-138.673 -305.613)" fill="#253988"/>
      </g>
      <g id="그룹_3215" data-name="그룹 3215" transform="translate(264.503 327.332)">
        <path id="패스_4115" data-name="패스 4115" d="M146.442,317.717l-.061,21.8-14.4-8.392.061-21.8Z" transform="translate(-131.983 -309.325)" fill="#f89000"/>
      </g>
      <g id="그룹_3216" data-name="그룹 3216" transform="translate(268.841 335.724)">
        <path id="패스_4116" data-name="패스 4116" d="M144.212,313.4l-.061,21.8-10.06,5.9.061-21.8Z" transform="translate(-134.091 -313.403)" fill="#c5c5c5"/>
      </g>
      <g id="그룹_3217" data-name="그룹 3217" transform="translate(231.326 319.76)">
        <path id="패스_4117" data-name="패스 4117" d="M153.434,327.512l-.061,21.8-37.514-21.867.061-21.8Z" transform="translate(-115.859 -305.645)" fill="#898989"/>
      </g>
      <g id="그룹_3218" data-name="그룹 3218" transform="translate(230.639 299.441)">
        <path id="패스_4118" data-name="패스 4118" d="M177.614,324.416l-14.4-8.393L150.2,323.661l14.4,8.391-10.8,6.342-38.266-22.3,10.807-6.342,14.181,8.268,13.017-7.638-14.181-8.266,10.807-6.342,38.264,22.3Zm-13.766,7.636-14.4-8.391,13.764-8.076,14.4,8.393,10.062-5.9-37.515-21.867-10.06,5.9,14.181,8.266-13.764,8.074-14.181-8.266-10.06,5.9,37.513,21.867,10.062-5.9" transform="translate(-115.525 -295.77)" fill="#fff"/>
      </g>
      <g id="그룹_3219" data-name="그룹 3219" transform="translate(231.388 299.88)">
        <path id="패스_4119" data-name="패스 4119" d="M187.287,317.85l-10.06,5.9-14.4-8.392-13.763,8.075,14.4,8.392-10.06,5.9-37.514-21.867,10.06-5.9,14.181,8.266,13.763-8.075-14.181-8.266,10.06-5.9Z" transform="translate(-115.889 -295.983)" fill="#fff"/>
      </g>
      <g id="그룹_3220" data-name="그룹 3220" transform="translate(230.578 319.76)">
        <path id="패스_4120" data-name="패스 4120" d="M153.822,327.949l-.061,21.8-38.265-22.3.061-21.8Z" transform="translate(-115.495 -305.645)" fill="#253988"/>
      </g>
      <g id="그룹_3221" data-name="그룹 3221" transform="translate(268.843 335.724)">
        <path id="패스_4121" data-name="패스 4121" d="M144.959,313.4l-.061,21.8-10.806,6.34.061-21.8Z" transform="translate(-134.092 -313.403)" fill="#8f77b3"/>
      </g>
      <g id="그룹_3224" data-name="그룹 3224" transform="translate(201.267 326.633)" style="isolation: isolate">
        <g id="그룹_3223" data-name="그룹 3223" clip-path="url(#clip-path)">
          <g id="그룹_3222" data-name="그룹 3222" transform="translate(0 0.001)" style="isolation: isolate">
            <path id="패스_4122" data-name="패스 4122" d="M116.918,309.093l-.062,21.8-.29-.025.062-21.8.29.025" transform="translate(-85.051 -308.898)" fill="#f89000"/>
            <path id="패스_4123" data-name="패스 4123" d="M118.1,309.147l-.062,21.8c-.947-.078-1.9-.13-2.864-.154l.06-21.8q1.444.037,2.866.154" transform="translate(-86.523 -308.978)" fill="#f89000"/>
            <path id="패스_4124" data-name="패스 4124" d="M116.723,309l-.06,21.8q-1.278-.034-2.56,0c-.113,0-.224.006-.337.01l.062-21.8.335-.01q1.284-.031,2.56,0" transform="translate(-88.013 -308.986)" fill="#f89000"/>
            <path id="패스_4125" data-name="패스 4125" d="M115.171,309l-.062,21.8q-1.3.043-2.613.175l.062-21.8c.87-.089,1.745-.146,2.613-.177" transform="translate(-89.356 -308.972)" fill="#f89000"/>
            <path id="패스_4126" data-name="패스 4126" d="M114.2,309.084l-.062,21.8c-1.021.1-2.041.245-3.051.424l-.15.027.062-21.8.15-.027q1.515-.269,3.051-.422" transform="translate(-91.001 -308.881)" fill="#f89000"/>
            <path id="패스_4127" data-name="패스 4127" d="M113.37,309.3l-.062,21.8a35.955,35.955,0,0,0-4.607,1.165l.06-21.8a35.984,35.984,0,0,1,4.609-1.165" transform="translate(-93.37 -308.651)" fill="#f89000"/>
            <path id="패스_4128" data-name="패스 4128" d="M112.564,309.868l-.06,21.8c-.379.121-.757.251-1.132.387a34.986,34.986,0,0,0-5.788,2.737c-.163.1-.323.191-.479.288l.06-21.8c.158-.1.319-.193.481-.288a34.743,34.743,0,0,1,5.786-2.739c.377-.136.753-.263,1.132-.387" transform="translate(-97.173 -308.052)" fill="#f89000"/>
            <path id="패스_4129" data-name="패스 4129" d="M107.121,311.527l-.06,21.8a23.449,23.449,0,0,0-3.807,2.846l.062-21.8a23.389,23.389,0,0,1,3.8-2.844" transform="translate(-99.129 -306.298)" fill="#f89000"/>
            <path id="패스_4130" data-name="패스 4130" d="M104.183,312.909l-.062,21.8a15.544,15.544,0,0,0-1.685,1.831l.06-21.8a15.744,15.744,0,0,1,1.687-1.831" transform="translate(-99.996 -304.836)" fill="#f89000"/>
            <path id="패스_4131" data-name="패스 4131" d="M103.07,313.8l-.06,21.8q-.2.259-.389.525a12.838,12.838,0,0,0-.728,1.156l.06-21.8a13.668,13.668,0,0,1,.73-1.156c.123-.177.253-.352.387-.525" transform="translate(-100.57 -303.895)" fill="#f89000"/>
            <path id="패스_4132" data-name="패스 4132" d="M102.326,314.616l-.06,21.8a10.99,10.99,0,0,0-.726,1.564l.06-21.8a11.457,11.457,0,0,1,.726-1.564" transform="translate(-100.943 -303.031)" fill="#f89000"/>
            <path id="패스_4133" data-name="패스 4133" d="M101.818,315.376l-.06,21.8a9.752,9.752,0,0,0-.424,1.486l.062-21.8a9.745,9.745,0,0,1,.422-1.486" transform="translate(-101.161 -302.227)" fill="#f89000"/>
            <path id="패스_4134" data-name="패스 4134" d="M101.482,316.1l-.062,21.8a8.812,8.812,0,0,0-.169,1.479l.062-21.8a8.835,8.835,0,0,1,.169-1.479" transform="translate(-101.248 -301.463)" fill="#f89000"/>
            <path id="패스_4135" data-name="패스 4135" d="M101.316,316.817l-.062,21.8c0,.076,0,.152,0,.228l.062-21.8c0-.078,0-.154,0-.23" transform="translate(-101.25 -300.703)" fill="#f89000"/>
          </g>
        </g>
      </g>
      <g id="그룹_3225" data-name="그룹 3225" transform="translate(231.4 326.829)">
        <path id="패스_4137" data-name="패스 4137" d="M117.628,309.08l-.061,21.8-1.672,7.872.061-21.8Z" transform="translate(-115.894 -309.08)" fill="#9e9e9e"/>
      </g>
      <g id="그룹_3226" data-name="그룹 3226" transform="translate(231.86 326.571)">
        <path id="패스_4138" data-name="패스 4138" d="M117.98,308.955l-.061,21.8-1.8,8.473.061-21.8Z" transform="translate(-116.118 -308.955)" fill="#253988"/>
      </g>
      <g id="그룹_3227" data-name="그룹 3227" transform="translate(242.816 341.117)">
        <path id="패스_4139" data-name="패스 4139" d="M121.529,316.168l-.061,21.8-.024-.144.061-21.8Z" transform="translate(-121.443 -316.024)" fill="#f89000"/>
      </g>
      <g id="그룹_3228" data-name="그룹 3228" transform="translate(243.387 340.099)">
        <path id="패스_4140" data-name="패스 4140" d="M134.757,315.529l-.061,21.8L121.72,338.6l.061-21.8Z" transform="translate(-121.72 -315.529)" fill="#f89000"/>
      </g>
      <g id="그룹_3231" data-name="그룹 3231" transform="translate(215.139 334.626)" style="isolation: isolate">
        <g id="그룹_3230" data-name="그룹 3230" clip-path="url(#clip-path-2)">
          <g id="그룹_3229" data-name="그룹 3229" transform="translate(0 0)" style="isolation: isolate">
            <path id="패스_4141" data-name="패스 4141" d="M116.694,312.939l-.062,21.8q-.725-.046-1.436-.064l.062-21.8q.71.019,1.436.064" transform="translate(-100.373 -312.864)" fill="#9e9e9e"/>
            <path id="패스_4142" data-name="패스 4142" d="M116.33,312.881l-.062,21.8c-.71-.019-1.407-.014-2.086.008l.06-21.8q1.022-.034,2.089-.008" transform="translate(-101.445 -312.87)" fill="#a3a3a3"/>
            <path id="패스_4143" data-name="패스 4143" d="M115.269,312.879l-.06,21.8c-.683.023-1.35.068-2,.132l.062-21.8c.648-.066,1.313-.109,2-.134" transform="translate(-102.472 -312.86)" fill="#a8a8a8"/>
            <path id="패스_4144" data-name="패스 4144" d="M114.175,312.944l-.062,21.8c-.377.039-.745.082-1.109.134-.216.031-.432.066-.646.105l.062-21.8c.214-.039.43-.072.646-.1.364-.051.733-.1,1.109-.134" transform="translate(-103.374 -312.791)" fill="#adadad"/>
            <path id="패스_4145" data-name="패스 4145" d="M113.5,313.059l-.062,21.8a16.668,16.668,0,0,0-2.111.531l.062-21.8a16.678,16.678,0,0,1,2.111-.531" transform="translate(-104.459 -312.67)" fill="#b3b3b3"/>
            <path id="패스_4146" data-name="패스 4146" d="M113.163,313.317l-.062,21.8a16.291,16.291,0,0,0-3.237,1.455l-.206.123.062-21.8.2-.124a16.311,16.311,0,0,1,3.239-1.455" transform="translate(-106.229 -312.397)" fill="#b8b8b8"/>
            <path id="패스_4147" data-name="패스 4147" d="M110.549,314.084l-.062,21.8a9.862,9.862,0,0,0-1.611,1.2l.062-21.8a9.976,9.976,0,0,1,1.611-1.2" transform="translate(-107.057 -311.585)" fill="#b3b3b3"/>
            <path id="패스_4148" data-name="패스 4148" d="M109.308,314.669l-.062,21.8a6.657,6.657,0,0,0-.72.782l.062-21.8a6.815,6.815,0,0,1,.72-.782" transform="translate(-107.427 -310.967)" fill="#adadad"/>
            <path id="패스_4149" data-name="패스 4149" d="M108.829,315.049l-.062,21.8a5.537,5.537,0,0,0-.368.537c-.035.058-.068.115-.1.173l.062-21.8c.031-.058.066-.115.1-.173a5.424,5.424,0,0,1,.368-.537" transform="translate(-107.668 -310.565)" fill="#a8a8a8"/>
            <path id="패스_4150" data-name="패스 4150" d="M108.536,315.394l-.062,21.8a5.2,5.2,0,0,0-.344.741l.062-21.8a5.2,5.2,0,0,1,.344-.741" transform="translate(-107.845 -310.2)" fill="#a3a3a3"/>
            <path id="패스_4151" data-name="패스 4151" d="M108.3,315.754l-.062,21.8a4.5,4.5,0,0,0-.2.712l.062-21.8a4.56,4.56,0,0,1,.2-.712" transform="translate(-107.95 -309.819)" fill="#9e9e9e"/>
            <path id="패스_4152" data-name="패스 4152" d="M108.135,316.1l-.062,21.8a4.244,4.244,0,0,0-.08.718l.062-21.8a4.24,4.24,0,0,1,.08-.718" transform="translate(-107.991 -309.453)" fill="#999"/>
            <path id="패스_4153" data-name="패스 4153" d="M108.056,316.449l-.062,21.8,0,.111.062-21.8,0-.113" transform="translate(-107.992 -309.084)" fill="#949494"/>
          </g>
        </g>
      </g>
      <path id="패스_4155" data-name="패스 4155" d="M124.243,313.108c-.56-.037-1.109-.064-1.652-.076l-.078,0c-.053,0-.107,0-.163,0-.486-.008-.967-.006-1.438,0l-.228,0c-.045,0-.093,0-.14,0-.438.016-.868.043-1.294.076-.095.006-.187.014-.282.023-.119.01-.243.018-.362.031-.362.035-.718.078-1.066.128-.208.029-.416.064-.619.1l-.058.012c-.3.056-.6.121-.9.193l-.206.056c-.235.062-.467.13-.7.2-.047.014-.095.025-.142.039l-.154.056q-.225.077-.451.16c-.1.039-.21.076-.315.117q-.228.093-.457.191l-.292.128c-.167.076-.329.156-.494.239-.08.039-.16.078-.241.119-.243.126-.481.257-.72.4l-.2.117c-.049.031-.093.062-.142.091-.068.045-.138.089-.206.132s-.154.1-.228.158-.13.091-.191.136-.142.107-.212.16-.119.093-.175.138-.132.113-.2.169-.107.093-.158.14l-.043.037c-.033.031-.06.064-.093.095-.076.072-.15.146-.22.222-.043.045-.086.093-.128.14-.064.072-.126.146-.185.218-.021.027-.045.051-.066.076s-.025.037-.037.055a5.059,5.059,0,0,0-.307.444c-.031.051-.062.1-.091.156-.074.132-.14.263-.2.4l-.033.078c-.035.08-.07.158-.1.239-.016.041-.023.084-.037.126-.045.134-.082.267-.113.4-.012.054-.035.1-.045.158-.006.029-.006.06-.01.088a4.257,4.257,0,0,0-.049.428c0,.055-.016.113-.019.169l0,.107-.062,21.8c0-.093.014-.185.023-.278a4.285,4.285,0,0,1,.047-.426c.029-.156.06-.311.1-.465l.021-.058a4.549,4.549,0,0,1,.181-.49l.033-.078a5.3,5.3,0,0,1,.29-.554,5.059,5.059,0,0,1,.307-.444c.033-.043.068-.088.1-.132.06-.074.121-.146.185-.218l.128-.142c.07-.074.146-.148.22-.22.045-.045.091-.089.138-.134s.1-.093.158-.138.128-.113.2-.169.115-.093.175-.138.14-.109.212-.163.128-.091.191-.136l.228-.156c.068-.043.138-.089.208-.132.111-.07.222-.14.34-.21.237-.138.477-.27.718-.4.08-.041.16-.078.241-.117.165-.082.329-.163.494-.239.1-.045.2-.084.292-.128.152-.066.3-.13.459-.191.1-.041.208-.08.313-.117.15-.056.3-.111.453-.161.1-.033.2-.064.292-.095.233-.074.467-.14.7-.2.068-.018.136-.039.2-.055.3-.074.6-.138.9-.2.222-.041.449-.08.675-.111.465-.066.942-.117,1.428-.158l.284-.025c.469-.035.944-.062,1.432-.076.076,0,.152,0,.228,0,.473-.012.953-.012,1.44,0,.054,0,.107,0,.163,0q.849.019,1.728.078l.259.019.062-21.8Z" transform="translate(107.419 21.918)" fill="#8f77b3"/>
      <g id="그룹_3234" data-name="그룹 3234" transform="translate(243.376 341.374)" style="isolation: isolate">
        <g id="그룹_3233" data-name="그룹 3233" clip-path="url(#clip-path-3)">
          <g id="그룹_3232" data-name="그룹 3232" transform="translate(0.01)" style="isolation: isolate">
            <path id="패스_4156" data-name="패스 4156" d="M121.893,317.7l-.062,21.8a10.647,10.647,0,0,0-.111-1.549l.062-21.8a10.965,10.965,0,0,1,.111,1.549" transform="translate(-121.72 -316.149)" fill="#858585"/>
          </g>
        </g>
      </g>
      <g id="그룹_3237" data-name="그룹 3237" transform="translate(242.841 341.261)" style="isolation: isolate">
        <g id="그룹_3236" data-name="그룹 3236" clip-path="url(#clip-path-4)">
          <g id="그룹_3235" data-name="그룹 3235" style="isolation: isolate">
            <path id="패스_4158" data-name="패스 4158" d="M121.642,317.759l-.06,21.8a11.44,11.44,0,0,0-.128-1.665l.062-21.8a11.152,11.152,0,0,1,.126,1.665" transform="translate(-121.455 -316.094)" fill="#f89000"/>
          </g>
        </g>
      </g>
      <g id="그룹_3240" data-name="그룹 3240" transform="translate(256.362 340.098)" style="isolation: isolate">
        <g id="그룹_3239" data-name="그룹 3239" clip-path="url(#clip-path-5)">
          <g id="그룹_3238" data-name="그룹 3238" style="isolation: isolate">
            <path id="패스_4160" data-name="패스 4160" d="M128.526,318.98l-.062,21.8a13.739,13.739,0,0,0-.438-3.451l.062-21.8a13.849,13.849,0,0,1,.438,3.451" transform="translate(-128.026 -315.529)" fill="#f89000"/>
          </g>
        </g>
      </g>
      <g id="그룹_3243" data-name="그룹 3243" transform="translate(215.139 342.105)" style="isolation: isolate">
        <g id="그룹_3242" data-name="그룹 3242" clip-path="url(#clip-path-6)">
          <g id="그룹_3241" data-name="그룹 3241" style="isolation: isolate">
            <path id="패스_4162" data-name="패스 4162" d="M112.83,322.792l-.06,21.8a11.845,11.845,0,0,1-3.387-2.776,5.949,5.949,0,0,1-1.362-3,4.281,4.281,0,0,1-.029-.512l.062-21.8a3.877,3.877,0,0,0,.029.51,5.941,5.941,0,0,0,1.362,3,11.807,11.807,0,0,0,3.385,2.776" transform="translate(-107.992 -316.504)" fill="#f89000"/>
          </g>
        </g>
      </g>
      <g id="그룹_3246" data-name="그룹 3246" transform="translate(219.917 342.926)" style="isolation: isolate">
        <g id="그룹_3245" data-name="그룹 3245" clip-path="url(#clip-path-7)">
          <g id="그룹_3244" data-name="그룹 3244" style="isolation: isolate">
            <path id="패스_4164" data-name="패스 4164" d="M121.838,316.9l-.062,21.8c0,.088,0,.175,0,.259l.062-21.8c0-.086,0-.173,0-.259" transform="translate(-98.196 -316.903)" fill="#f89000"/>
            <path id="패스_4165" data-name="패스 4165" d="M121.9,317.029l-.062,21.8c0,.062,0,.121-.008.183a6.245,6.245,0,0,1-.111.918l.06-21.8a6.006,6.006,0,0,0,.113-.92c0-.06.006-.121.008-.181" transform="translate(-98.257 -316.77)" fill="#f89000"/>
            <path id="패스_4166" data-name="패스 4166" d="M121.912,317.564l-.06,21.8a6.211,6.211,0,0,1-.27.949l.062-21.8a6.173,6.173,0,0,0,.268-.946" transform="translate(-98.395 -316.204)" fill="#f89000"/>
            <path id="패스_4167" data-name="패스 4167" d="M121.8,318.024l-.062,21.8-.045.119a4.546,4.546,0,0,1-.263.556l.06-21.8a4.68,4.68,0,0,0,.265-.553l.045-.121" transform="translate(-98.554 -315.717)" fill="#f89000"/>
            <path id="패스_4168" data-name="패스 4168" d="M121.734,318.352l-.06,21.8a5.73,5.73,0,0,1-.469.7l.06-21.8a5.5,5.5,0,0,0,.469-.7" transform="translate(-98.795 -315.371)" fill="#f89000"/>
            <path id="패스_4169" data-name="패스 4169" d="M121.67,318.694l-.06,21.8a6.7,6.7,0,0,1-.556.628c-.074.076-.152.152-.232.228l.06-21.8c.082-.074.16-.15.235-.226a7.3,7.3,0,0,0,.554-.63" transform="translate(-99.2 -315.009)" fill="#f89000"/>
            <path id="패스_4170" data-name="패스 4170" d="M121.85,319.11l-.06,21.8a11.745,11.745,0,0,1-1.885,1.4l.062-21.8a11.714,11.714,0,0,0,1.883-1.4" transform="translate(-100.169 -314.569)" fill="#f89000"/>
            <path id="패스_4171" data-name="패스 4171" d="M121.564,319.791l-.062,21.8c-.084.051-.171.1-.259.156a14.32,14.32,0,0,1-2.846,1.268l.062-21.8a14.554,14.554,0,0,0,2.846-1.27l.259-.154" transform="translate(-101.765 -313.849)" fill="#f89000"/>
            <path id="패스_4172" data-name="패스 4172" d="M119.58,320.483l-.062,21.8a16.05,16.05,0,0,1-1.665.44c-.173.037-.344.07-.516.1l.062-21.8c.171-.033.344-.066.514-.1a16.485,16.485,0,0,0,1.667-.44" transform="translate(-102.886 -313.117)" fill="#f89000"/>
            <path id="패스_4173" data-name="패스 4173" d="M118.238,320.746l-.062,21.8q-.809.148-1.634.23l.062-21.8q.824-.083,1.634-.228" transform="translate(-103.726 -312.839)" fill="#f89000"/>
            <path id="패스_4174" data-name="패스 4174" d="M117.312,320.857l-.062,21.8q-.685.068-1.377.093l.06-21.8q.694-.025,1.379-.093" transform="translate(-104.434 -312.721)" fill="#f89000"/>
            <path id="패스_4175" data-name="패스 4175" d="M116.589,320.9l-.06,21.8q-.636.022-1.276,0l.062-21.8c.426.01.852.008,1.274-.006" transform="translate(-105.089 -312.674)" fill="#f89000"/>
            <path id="패스_4176" data-name="패스 4176" d="M115.965,320.94l-.062,21.8c-.091,0-.179,0-.27-.008-.329-.012-.663-.031-.994-.06l.062-21.8c.331.027.663.047.994.06l.27.008" transform="translate(-105.739 -312.705)" fill="#f89000"/>
            <path id="패스_4177" data-name="패스 4177" d="M115.374,320.948l-.062,21.8c-.434-.035-.872-.084-1.309-.148l.062-21.8q.654.093,1.309.148" transform="translate(-106.411 -312.781)" fill="#f89000"/>
            <path id="패스_4178" data-name="패스 4178" d="M114.811,320.932l-.062,21.8c-.484-.068-.967-.154-1.451-.255l.06-21.8c.484.1.969.187,1.453.257" transform="translate(-107.157 -312.914)" fill="#f89000"/>
            <path id="패스_4179" data-name="패스 4179" d="M114.232,320.891l-.06,21.8c-.473-.1-.947-.212-1.416-.342-.095-.025-.189-.051-.284-.078l.06-21.8.286.08c.469.128.942.241,1.414.339" transform="translate(-108.031 -313.129)" fill="#f89000"/>
            <path id="패스_4180" data-name="패스 4180" d="M113.528,320.809l-.06,21.8q-1-.287-1.936-.661l.062-21.8q.938.37,1.934.658" transform="translate(-109.026 -313.468)" fill="#f89000"/>
            <path id="패스_4181" data-name="패스 4181" d="M112.882,320.776l-.062,21.8a18.556,18.556,0,0,1-2.506-1.214l.06-21.8a18.735,18.735,0,0,0,2.508,1.216" transform="translate(-110.314 -314.093)" fill="#f89000"/>
          </g>
        </g>
      </g>
      <g id="그룹_3249" data-name="그룹 3249" transform="translate(239.318 343.549)" style="isolation: isolate">
        <g id="그룹_3248" data-name="그룹 3248" clip-path="url(#clip-path-8)">
          <g id="그룹_3247" data-name="그룹 3247" transform="translate(-2.496)" style="isolation: isolate">
            <path id="패스_4183" data-name="패스 4183" d="M128.3,317.206,128.24,339v.078l0,.156.06-21.8c0-.051,0-.1,0-.156v-.078" transform="translate(-108.262 -317.206)" fill="#949494"/>
            <path id="패스_4184" data-name="패스 4184" d="M128.375,317.32l-.06,21.8a8.175,8.175,0,0,1-.15,1.313l.062-21.8a7.945,7.945,0,0,0,.148-1.313" transform="translate(-108.34 -317.085)" fill="#999"/>
            <path id="패스_4185" data-name="패스 4185" d="M128.426,317.958l-.062,21.8a9.085,9.085,0,0,1-.387,1.358l.06-21.8a8.866,8.866,0,0,0,.389-1.358" transform="translate(-108.538 -316.411)" fill="#9e9e9e"/>
            <path id="패스_4186" data-name="패스 4186" d="M128.369,318.618l-.06,21.8c-.1.274-.22.549-.35.825q-.136.284-.3.568l.062-21.8c.107-.191.2-.381.294-.57.132-.276.249-.549.35-.825" transform="translate(-108.871 -315.713)" fill="#a3a3a3"/>
            <path id="패스_4187" data-name="패스 4187" d="M128.249,319.3l-.062,21.8a11.751,11.751,0,0,1-1.021,1.527l.062-21.8a12.085,12.085,0,0,0,1.021-1.525" transform="translate(-109.395 -314.996)" fill="#a8a8a8"/>
            <path id="패스_4188" data-name="패스 4188" d="M128.123,320.037l-.062,21.8a16.911,16.911,0,0,1-1.387,1.56c-.115.113-.233.228-.354.342l.06-21.8c.123-.113.241-.228.354-.342a16.128,16.128,0,0,0,1.389-1.56" transform="translate(-110.29 -314.212)" fill="#adadad"/>
            <path id="패스_4189" data-name="패스 4189" d="M128.431,320.961l-.06,21.8a24.893,24.893,0,0,1-3.99,2.951l.062-21.8a24.768,24.768,0,0,0,3.988-2.951" transform="translate(-112.341 -313.235)" fill="#b3b3b3"/>
            <path id="패스_4190" data-name="패스 4190" d="M128.02,322.4l-.062,21.8c-.191.117-.387.235-.586.35a32.006,32.006,0,0,1-6.37,2.831l.062-21.8a32.233,32.233,0,0,0,6.37-2.829q.3-.176.586-.352" transform="translate(-115.917 -311.718)" fill="#b8b8b8"/>
            <path id="패스_4191" data-name="패스 4191" d="M123.676,323.941l-.062,21.8q-1.262.407-2.589.735-1.238.3-2.5.533l.062-21.8c.837-.152,1.671-.329,2.494-.533.885-.216,1.749-.463,2.591-.735" transform="translate(-118.53 -310.083)" fill="#b3b3b3"/>
          </g>
        </g>
      </g>
      <g id="그룹_3252" data-name="그룹 3252" transform="translate(201.267 342.979)" style="isolation: isolate">
        <g id="그룹_3251" data-name="그룹 3251" clip-path="url(#clip-path-9)">
          <g id="그룹_3250" data-name="그룹 3250" style="isolation: isolate">
            <path id="패스_4193" data-name="패스 4193" d="M113.935,330.559l-.06,21.8a31.7,31.7,0,0,1-4.251-2.062,19.4,19.4,0,0,1-6.255-5.391,10.69,10.69,0,0,1-2.117-6.033c0-.049,0-.1,0-.146l.062-21.8c0,.047,0,.1,0,.144a10.7,10.7,0,0,0,2.115,6.033,19.41,19.41,0,0,0,6.257,5.391,31.434,31.434,0,0,0,4.249,2.062" transform="translate(-101.25 -316.929)" fill="#858585"/>
          </g>
        </g>
      </g>
      <g id="그룹_3255" data-name="그룹 3255" transform="translate(239.318 358.142)" style="isolation: isolate">
        <g id="그룹_3254" data-name="그룹 3254" clip-path="url(#clip-path-10)">
          <g id="그룹_3253" data-name="그룹 3253" transform="translate(-2.496 -0.735)" style="isolation: isolate">
            <path id="패스_4195" data-name="패스 4195" d="M123.676,323.941l-.062,21.8q-1.262.407-2.589.735-1.238.3-2.5.533l.062-21.8c.837-.152,1.671-.329,2.494-.533.885-.216,1.749-.463,2.591-.735" transform="translate(-118.53 -323.941)" fill="#b3b3b3"/>
          </g>
        </g>
      </g>
      <g id="그룹_3258" data-name="그룹 3258" transform="translate(209.746 354.609)" style="isolation: isolate">
        <g id="그룹_3257" data-name="그룹 3257" clip-path="url(#clip-path-11)">
          <g id="그룹_3256" data-name="그룹 3256" transform="translate(-8.48 -11.63)" style="isolation: isolate">
            <path id="패스_4197" data-name="패스 4197" d="M123.676,323.941l-.062,21.8q-1.262.407-2.589.735-1.238.3-2.5.533l.062-21.8c.837-.152,1.671-.329,2.494-.533.885-.216,1.749-.463,2.591-.735" transform="translate(-82.974 -309.513)" fill="#b3b3b3"/>
            <path id="패스_4198" data-name="패스 4198" d="M120.317,324.557l-.062,21.8q-1.664.3-3.356.471l.062-21.8c1.126-.113,2.247-.27,3.356-.471" transform="translate(-84.699 -308.861)" fill="#adadad"/>
            <path id="패스_4199" data-name="패스 4199" d="M118.4,324.786l-.062,21.8q-1.4.139-2.809.189l.062-21.8q1.411-.049,2.809-.189" transform="translate(-86.143 -308.619)" fill="#a8a8a8"/>
            <path id="패스_4200" data-name="패스 4200" d="M116.937,324.878l-.062,21.8q-.738.025-1.481.025c-.374,0-.751,0-1.128-.014l.062-21.8c.377.01.753.014,1.128.014q.741,0,1.482-.025" transform="translate(-87.484 -308.522)" fill="#a3a3a3"/>
            <path id="패스_4201" data-name="패스 4201" d="M115.659,324.955l-.062,21.8q-1.3-.034-2.591-.14l.062-21.8q1.293.108,2.591.14" transform="translate(-88.815 -308.588)" fill="#9e9e9e"/>
            <path id="패스_4202" data-name="패스 4202" d="M114.433,324.969l-.062,21.8q-1.33-.111-2.654-.3l.062-21.8q1.324.188,2.654.3" transform="translate(-90.18 -308.743)" fill="#999"/>
            <path id="패스_4203" data-name="패스 4203" d="M113.243,324.926l-.062,21.8q-1.429-.2-2.848-.5l.062-21.8q1.417.3,2.848.5" transform="translate(-91.643 -309)" fill="#949494"/>
            <path id="패스_4204" data-name="패스 4204" d="M111.861,324.787l-.062,21.8c-.35-.074-.7-.15-1.047-.232-.609-.142-1.212-.3-1.8-.469l.062-21.8q.889.256,1.8.469c.348.082.7.159,1.047.233" transform="translate(-93.109 -309.361)" fill="#8f8f8f"/>
            <path id="패스_4205" data-name="패스 4205" d="M110.66,324.648l-.062,21.8q-1.654-.475-3.212-1.095l.06-21.8q1.559.62,3.214,1.095" transform="translate(-94.76 -309.923)" fill="#8a8a8a"/>
            <path id="패스_4206" data-name="패스 4206" d="M113.935,330.559l-.06,21.8a31.7,31.7,0,0,1-4.251-2.062,19.4,19.4,0,0,1-6.255-5.391,10.69,10.69,0,0,1-2.117-6.033c0-.049,0-.1,0-.146l.062-21.8c0,.047,0,.1,0,.144a10.7,10.7,0,0,0,2.115,6.033,19.41,19.41,0,0,0,6.257,5.391,31.434,31.434,0,0,0,4.249,2.062" transform="translate(-101.25 -316.929)" fill="#858585"/>
          </g>
        </g>
      </g>
      <g id="그룹_3259" data-name="그룹 3259" transform="translate(201.329 326.633)">
        <path id="패스_4208" data-name="패스 4208" d="M156.375,322.45a13.794,13.794,0,0,1,.438,3.529,8.62,8.62,0,0,1-.891,3.652,13.392,13.392,0,0,1-2.7,3.654,24.828,24.828,0,0,1-4.928,3.644,33.428,33.428,0,0,1-8.961,3.564,42.486,42.486,0,0,1-10.14,1.218,45.1,45.1,0,0,1-10.268-1.187,33.424,33.424,0,0,1-9.268-3.626,19.41,19.41,0,0,1-6.257-5.391,10.7,10.7,0,0,1-2.115-6.033,10.221,10.221,0,0,1,2.049-6.06,19.942,19.942,0,0,1,6.36-5.488,34.745,34.745,0,0,1,5.786-2.739,36.292,36.292,0,0,1,5.891-1.578,40.476,40.476,0,0,1,6-.609,50.237,50.237,0,0,1,5.716.179l-1.673,7.873a32.851,32.851,0,0,0-6.63.212,16.29,16.29,0,0,0-6,2.088,8.026,8.026,0,0,0-2.9,2.646,4.609,4.609,0,0,0-.7,2.967,5.941,5.941,0,0,0,1.362,3,11.582,11.582,0,0,0,3.278,2.714,19.86,19.86,0,0,0,4.835,2.017,22.849,22.849,0,0,0,5.169.8,21.084,21.084,0,0,0,5.07-.42,14.933,14.933,0,0,0,4.512-1.71,11.532,11.532,0,0,0,2.377-1.782,5.72,5.72,0,0,0,1.288-1.887,6.25,6.25,0,0,0,.426-1.988,10.5,10.5,0,0,0-.1-1.992Z" transform="translate(-101.281 -308.985)" fill="#fff"/>
      </g>
      <path id="패스_4209" data-name="패스 4209" d="M157.646,317.587a8.059,8.059,0,0,1-.062.889c-.006.058-.019.117-.027.175-.033.222-.074.447-.123.671-.021.086-.041.173-.064.259-.058.222-.123.444-.2.667-.021.062-.039.123-.062.183-.107.3-.228.593-.368.889-.084.173-.175.348-.272.523-.021.039-.045.076-.068.115-.125.222-.261.444-.409.669l-.039.062c-.156.232-.325.463-.5.7q-.049.068-.1.136-.272.346-.574.689c-.037.041-.074.08-.109.121-.216.239-.44.479-.681.718-.132.132-.274.265-.416.4-.235.218-.484.434-.743.652-.056.047-.115.093-.171.14-.274.222-.558.446-.858.669l0,0c-.3.222-.621.444-.949.667l-.208.14c-.325.216-.661.432-1.012.646-.212.132-.428.263-.65.393-.44.257-.893.5-1.352.741q-.182.1-.364.185-.627.318-1.278.611c-.051.023-.1.047-.15.07-.479.212-.971.412-1.467.6-.128.049-.255.1-.385.146-.43.16-.864.315-1.307.459-.093.031-.183.064-.278.095-.276.088-.558.171-.839.255-.14.041-.278.087-.42.126q-.639.182-1.29.342-.63.154-1.265.29c-.1.023-.208.041-.311.062-.323.066-.644.132-.965.189l-.012,0c-.506.093-1.016.173-1.527.247-.154.023-.307.041-.461.062q-.571.077-1.144.138c-.165.018-.329.037-.5.051-.267.027-.535.047-.8.068-.189.014-.379.031-.568.043-.28.016-.562.029-.844.043-.175.006-.35.016-.527.023-.475.014-.951.025-1.428.025-.412,0-.825-.006-1.237-.018-.22-.006-.438-.017-.656-.027s-.438-.014-.658-.027-.434-.031-.652-.045-.438-.029-.658-.047c-.255-.023-.512-.049-.768-.076-.187-.018-.377-.035-.564-.058-.27-.029-.537-.066-.8-.1-.175-.023-.35-.043-.523-.068-.465-.066-.926-.14-1.389-.22-.113-.021-.228-.043-.342-.066q-.522-.093-1.039-.2-.586-.12-1.169-.255c-.556-.13-1.1-.274-1.638-.426-.15-.041-.3-.086-.449-.13-.389-.115-.774-.235-1.154-.362-.123-.041-.247-.078-.366-.121q-.735-.25-1.444-.531c-.216-.086-.428-.177-.642-.265-.163-.068-.327-.134-.49-.2-.226-.1-.449-.206-.671-.309-.15-.07-.3-.136-.447-.206-.247-.119-.49-.245-.733-.37-.117-.062-.239-.119-.356-.181-.358-.189-.71-.387-1.058-.589a19.764,19.764,0,0,1-6.373-5.494,10.9,10.9,0,0,1-2.158-6.148v-.16l-.062,21.8c0,.053,0,.107,0,.161a10.868,10.868,0,0,0,2.156,6.146,19.744,19.744,0,0,0,6.373,5.5q.522.3,1.058.588c.117.062.239.119.358.181.243.126.484.251.73.37.146.07.3.136.447.206.222.1.444.208.671.307.163.072.327.138.492.206.189.08.377.163.57.239l.07.027q.713.281,1.444.531l.366.121q.571.188,1.154.362c.082.025.163.053.247.076.066.021.136.035.2.053.539.152,1.084.3,1.638.426q.528.123,1.06.235l.109.021c.346.072.691.136,1.039.2.113.021.228.045.344.066q.691.12,1.387.22l.035.006c.163.023.327.041.49.062.267.035.535.072.8.1.189.023.377.039.566.058.255.027.51.053.765.076l.078.006c.193.016.387.027.58.041.218.014.436.031.654.043s.438.021.656.029.438.021.656.027l.074,0c.389.01.776.014,1.165.014.475,0,.953-.008,1.428-.023l.095,0c.144-.006.284-.016.428-.023.282-.012.566-.025.848-.043.189-.01.379-.027.568-.041.268-.021.535-.041.8-.068l.208-.016c.1-.01.193-.025.288-.035.383-.041.763-.086,1.144-.138.154-.021.307-.039.461-.062.51-.074,1.021-.154,1.527-.247l.01,0h0c.309-.056.615-.119.922-.181.117-.025.237-.045.354-.07q.636-.136,1.265-.29c.436-.107.864-.222,1.29-.342.142-.041.28-.084.422-.128.28-.082.562-.165.84-.253l.084-.027c.066-.021.128-.045.193-.068.44-.146.877-.3,1.3-.459l.385-.146c.5-.191.988-.391,1.467-.6.051-.023.1-.047.15-.07q.651-.29,1.28-.609l.362-.185c.459-.239.912-.484,1.352-.741.2-.119.4-.237.593-.356l.06-.037c.35-.216.685-.43,1.01-.646l.208-.14c.327-.222.648-.444.949-.667l0,0c.3-.222.584-.447.858-.669l.171-.14c.261-.218.51-.436.743-.652l.043-.037c.128-.121.253-.241.372-.36.241-.239.465-.479.681-.72.037-.039.074-.078.109-.119.2-.23.4-.459.576-.689l.049-.062c.021-.025.035-.049.056-.074.177-.233.346-.463.5-.7l.041-.064q.219-.333.407-.667c.014-.025.031-.047.045-.072l.023-.045c.1-.173.187-.348.272-.521.13-.276.247-.551.35-.827l.021-.062c.023-.062.039-.121.06-.183.076-.222.142-.444.2-.667.023-.087.043-.175.064-.261s.039-.148.053-.222c.031-.15.049-.3.07-.447.008-.06.021-.117.027-.177.031-.247.051-.5.06-.743l0-.144v-.07l.062-21.8Z" transform="translate(99.745 26.043)" fill="#253988"/>
      <g id="그룹_3260" data-name="그룹 3260" transform="translate(200.799 326.325)">
        <path id="패스_4210" data-name="패스 4210" d="M153.948,333.6a25.08,25.08,0,0,1-5.008,3.706,34.155,34.155,0,0,1-9.13,3.632,43.424,43.424,0,0,1-10.35,1.243A45.968,45.968,0,0,1,119,340.971a34.111,34.111,0,0,1-9.447-3.694,19.764,19.764,0,0,1-6.373-5.494,10.9,10.9,0,0,1-2.158-6.148,10.431,10.431,0,0,1,2.091-6.181,20.318,20.318,0,0,1,6.475-5.589,35.512,35.512,0,0,1,5.883-2.784,36.982,36.982,0,0,1,6.017-1.609,41.289,41.289,0,0,1,6.132-.619,50.349,50.349,0,0,1,6.068.2l.257.025-1.8,8.473-.259-.018a32.448,32.448,0,0,0-6.7.187,15.583,15.583,0,0,0-5.745,2.01,7.726,7.726,0,0,0-2.786,2.529,4.419,4.419,0,0,0-.669,2.84A5.7,5.7,0,0,0,117.3,328a11.228,11.228,0,0,0,3.169,2.621,19.33,19.33,0,0,0,4.683,1.957,22.223,22.223,0,0,0,4.984.774,20.087,20.087,0,0,0,4.856-.4,14.242,14.242,0,0,0,4.315-1.64,10.979,10.979,0,0,0,2.3-1.718,5.441,5.441,0,0,0,1.228-1.8,6.02,6.02,0,0,0,.414-1.924,10.779,10.779,0,0,0-.115-2.095l-.025-.144,13.986-1.374.043.156a14.062,14.062,0,0,1,.484,3.73,8.888,8.888,0,0,1-.905,3.733A13.8,13.8,0,0,1,153.948,333.6ZM139.6,340.652a33.429,33.429,0,0,0,8.961-3.564,24.829,24.829,0,0,0,4.928-3.644,13.393,13.393,0,0,0,2.7-3.654,8.62,8.62,0,0,0,.891-3.652,13.794,13.794,0,0,0-.438-3.529l-12.975,1.276a10.5,10.5,0,0,1,.1,1.992,6.25,6.25,0,0,1-.426,1.988,5.72,5.72,0,0,1-1.288,1.887,11.533,11.533,0,0,1-2.377,1.782,14.933,14.933,0,0,1-4.512,1.71,21.084,21.084,0,0,1-5.07.42,22.849,22.849,0,0,1-5.169-.8A19.618,19.618,0,0,1,120.2,330.9a11.806,11.806,0,0,1-3.385-2.776,5.941,5.941,0,0,1-1.362-3,4.609,4.609,0,0,1,.7-2.967,8.026,8.026,0,0,1,2.9-2.646,16.29,16.29,0,0,1,6-2.088,32.851,32.851,0,0,1,6.63-.212l1.673-7.873a50.237,50.237,0,0,0-5.716-.179,40.476,40.476,0,0,0-6,.609,36.292,36.292,0,0,0-5.891,1.578,34.745,34.745,0,0,0-5.786,2.739,19.943,19.943,0,0,0-6.36,5.488,10.221,10.221,0,0,0-2.049,6.06,10.7,10.7,0,0,0,2.115,6.033A19.226,19.226,0,0,0,109.818,337a33.666,33.666,0,0,0,9.377,3.687,45.1,45.1,0,0,0,10.268,1.187,42.485,42.485,0,0,0,10.14-1.218" transform="translate(-101.023 -308.835)" fill="#fff"/>
      </g>
      <g id="그룹_3261" data-name="그룹 3261" transform="translate(186.049 346.325)">
        <path id="패스_4211" data-name="패스 4211" d="M102.469,323.541l-.061,21.8-8.553-4.986.061-21.8Z" transform="translate(-93.854 -318.555)" fill="#f89000"/>
      </g>
      <g id="그룹_3262" data-name="그룹 3262" transform="translate(198.835 355.979)">
        <path id="패스_4212" data-name="패스 4212" d="M108.037,327.856l-.061,21.8-7.907-4.609.061-21.8Z" transform="translate(-100.068 -323.247)" fill="#f89000"/>
      </g>
      <g id="그룹_3263" data-name="그룹 3263" transform="translate(156.197 346.325)">
        <path id="패스_4213" data-name="패스 4213" d="M109.259,318.555l-.061,21.8L79.347,357.868l.061-21.8Z" transform="translate(-79.347 -318.555)" fill="#f89000"/>
      </g>
      <g id="그룹_3264" data-name="그룹 3264" transform="translate(174.65 351.311)">
        <path id="패스_4214" data-name="패스 4214" d="M108.328,320.978l-.061,21.8L88.314,354.483l.061-21.8Z" transform="translate(-88.314 -320.978)" fill="#c5c5c5"/>
      </g>
      <g id="그룹_3265" data-name="그룹 3265" transform="translate(175.401 351.313)">
        <path id="패스_4215" data-name="패스 4215" d="M108.693,320.979l-.061,21.8L88.68,354.484l.061-21.8Z" transform="translate(-88.68 -320.979)" fill="#8f77b3"/>
      </g>
      <g id="그룹_3266" data-name="그룹 3266" transform="translate(174.65 363.017)">
        <path id="패스_4216" data-name="패스 4216" d="M94.49,330.232l-.061,21.8-6.115-3.564.061-21.8Z" transform="translate(-88.314 -326.668)" fill="#f89000"/>
      </g>
      <g id="그룹_3267" data-name="그룹 3267" transform="translate(180.764 355.979)">
        <path id="패스_4217" data-name="패스 4217" d="M109.418,323.247l-.061,21.8-18.071,10.6.061-21.8Z" transform="translate(-91.286 -323.247)" fill="#f89000"/>
      </g>
      <g id="그룹_3268" data-name="그룹 3268" transform="translate(215.275 363.047)">
        <path id="패스_4218" data-name="패스 4218" d="M116.676,331.67l-.061,21.8-8.557-4.988.061-21.8Z" transform="translate(-108.058 -326.682)" fill="#f89000"/>
      </g>
      <g id="그룹_3269" data-name="그룹 3269" transform="translate(188.672 360.589)">
        <path id="패스_4219" data-name="패스 4219" d="M113.261,325.487l-.061,21.8-18.071,10.6.061-21.8Z" transform="translate(-95.129 -325.487)" fill="#c5c5c5"/>
      </g>
      <g id="그룹_3270" data-name="그룹 3270" transform="translate(189.42 360.589)">
        <path id="패스_4220" data-name="패스 4220" d="M113.625,325.487l-.061,21.8-18.071,10.6.061-21.8Z" transform="translate(-95.493 -325.487)" fill="#8f77b3"/>
      </g>
      <g id="그룹_3271" data-name="그룹 3271" transform="translate(188.672 371.191)">
        <path id="패스_4221" data-name="패스 4221" d="M101.572,334.36l-.061,21.8-6.382-3.72.061-21.8Z" transform="translate(-95.129 -330.64)" fill="#f89000"/>
      </g>
      <g id="그룹_3272" data-name="그룹 3272" transform="translate(195.054 363.047)">
        <path id="패스_4222" data-name="패스 4222" d="M118.513,326.682l-.061,21.8L98.231,360.344l.061-21.8Z" transform="translate(-98.231 -326.682)" fill="#f89000"/>
      </g>
      <g id="그룹_3273" data-name="그룹 3273" transform="translate(156.197 363.84)">
        <path id="패스_4223" data-name="패스 4223" d="M116.922,348.934l-.061,21.8L79.347,348.865l.061-21.8Z" transform="translate(-79.347 -327.067)" fill="#898989"/>
      </g>
      <g id="그룹_3274" data-name="그룹 3274" transform="translate(193.712 368.035)">
        <path id="패스_4224" data-name="패스 4224" d="M127.76,329.106l-.061,21.8-30.12,17.672.061-21.8Z" transform="translate(-97.578 -329.106)" fill="#c5c5c5"/>
      </g>
      <g id="그룹_3275" data-name="그룹 3275" transform="translate(155.511 345.888)">
        <path id="패스_4225" data-name="패스 4225" d="M138.837,335.063l9.307,5.426L117.277,358.6l-38.264-22.3,30.6-17.951,9.307,5.424L98.964,335.475l5.362,3.123L122.4,328l8.659,5.047-18.07,10.6,5.63,3.282Zm-21.562,23.1,30.12-17.671-8.556-4.988-20.222,11.864-6.381-3.72,18.07-10.6-7.908-4.609-18.07,10.6-6.115-3.564,19.953-11.708-8.554-4.986L79.76,336.294l37.515,21.867" transform="translate(-79.013 -318.343)" fill="#fff"/>
      </g>
      <g id="그룹_3276" data-name="그룹 3276" transform="translate(156.259 346.325)">
        <path id="패스_4226" data-name="패스 4226" d="M147.011,340.265l-30.12,17.672L79.376,336.07l29.851-17.514,8.553,4.986L97.829,335.247l6.115,3.564,18.071-10.6,7.907,4.609-18.071,10.6,6.382,3.72,20.221-11.864Z" transform="translate(-79.376 -318.555)" fill="#fff"/>
      </g>
      <g id="그룹_3277" data-name="그룹 3277" transform="translate(155.449 363.84)">
        <path id="패스_4227" data-name="패스 4227" d="M117.309,349.372l-.061,21.8-38.265-22.3.061-21.8Z" transform="translate(-78.983 -327.067)" fill="#253988"/>
      </g>
      <g id="그룹_3278" data-name="그룹 3278" transform="translate(193.714 368.035)">
        <path id="패스_4228" data-name="패스 4228" d="M128.507,329.106l-.061,21.8L97.58,369.014l.061-21.8Z" transform="translate(-97.58 -329.106)" fill="#8f77b3"/>
      </g>
      <g id="그룹_3279" data-name="그룹 3279" transform="translate(151.255 366.74)">
        <path id="패스_4229" data-name="패스 4229" d="M85.83,333.62l-.061,21.8-8.824-5.143.061-21.8Z" transform="translate(-76.944 -328.477)" fill="#f89000"/>
      </g>
      <g id="그룹_3280" data-name="그룹 3280" transform="translate(118.608 366.74)">
        <path id="패스_4230" data-name="패스 4230" d="M93.787,328.477l-.061,21.8L61.078,369.429l.061-21.8Z" transform="translate(-61.078 -328.477)" fill="#f89000"/>
      </g>
      <g id="그룹_3281" data-name="그룹 3281" transform="translate(148.785 371.883)">
        <path id="패스_4231" data-name="패스 4231" d="M87.1,330.976l-.061,21.8L75.744,359.4l.061-21.8Z" transform="translate(-75.744 -330.976)" fill="#c5c5c5"/>
      </g>
      <g id="그룹_3282" data-name="그룹 3282" transform="translate(149.537 371.885)">
        <path id="패스_4232" data-name="패스 4232" d="M87.464,330.977l-.061,21.8L76.11,359.4l.061-21.8Z" transform="translate(-76.11 -330.977)" fill="#8f77b3"/>
      </g>
      <g id="그룹_3283" data-name="그룹 3283" transform="translate(127.431 384.412)">
        <path id="패스_4233" data-name="패스 4233" d="M76.721,337.065l-.061,21.8-11.293,6.626.061-21.8Z" transform="translate(-65.367 -337.065)" fill="#c5c5c5"/>
      </g>
      <g id="그룹_3284" data-name="그룹 3284" transform="translate(118.608 385.894)">
        <path id="패스_4234" data-name="패스 4234" d="M69.963,342.929l-.061,21.8-8.824-5.143.061-21.8Z" transform="translate(-61.078 -337.786)" fill="#898989"/>
      </g>
      <g id="그룹_3285" data-name="그룹 3285" transform="translate(148.785 378.509)">
        <path id="패스_4235" data-name="패스 4235" d="M104.5,350.92l-.061,21.8-28.69-16.724.061-21.8Z" transform="translate(-75.744 -334.196)" fill="#f89000"/>
      </g>
      <g id="그룹_3286" data-name="그룹 3286" transform="translate(138.725 384.412)">
        <path id="패스_4236" data-name="패스 4236" d="M99.607,353.789l-.061,21.8-28.69-16.724.061-21.8Z" transform="translate(-70.855 -337.065)" fill="#898989"/>
      </g>
      <g id="그룹_3287" data-name="그룹 3287" transform="translate(127.437 384.851)">
        <path id="패스_4237" data-name="패스 4237" d="M76.724,337.279l-.061,21.8L65.369,365.7l.061-21.8Z" transform="translate(-65.369 -337.279)" fill="#8f77b3"/>
      </g>
      <g id="그룹_3288" data-name="그룹 3288" transform="translate(117.859 385.894)">
        <path id="패스_4238" data-name="패스 4238" d="M70.354,343.369l-.061,21.8-9.578-5.583.061-21.8Z" transform="translate(-60.715 -337.786)" fill="#253988"/>
      </g>
      <g id="그룹_3289" data-name="그룹 3289" transform="translate(118.669 366.74)">
        <path id="패스_4239" data-name="패스 4239" d="M102.579,333.62l-11.293,6.626,28.69,16.724-10.06,5.9-28.69-16.724-11.293,6.626-8.824-5.143,32.647-19.155Z" transform="translate(-61.108 -328.477)" fill="#fff"/>
      </g>
      <g id="그룹_3290" data-name="그룹 3290" transform="translate(167.415 395.233)">
        <path id="패스_4240" data-name="패스 4240" d="M94.92,342.324l-.061,21.8-10.06,5.9.061-21.8Z" transform="translate(-84.798 -342.324)" fill="#c5c5c5"/>
      </g>
      <g id="그룹_3291" data-name="그룹 3291" transform="translate(138.731 384.851)">
        <path id="패스_4241" data-name="패스 4241" d="M99.606,354l-.061,21.8L70.858,359.077l.061-21.8Z" transform="translate(-70.858 -337.279)" fill="#253988"/>
      </g>
      <g id="그룹_3292" data-name="그룹 3292" transform="translate(167.418 395.233)">
        <path id="패스_4242" data-name="패스 4242" d="M95.667,342.324l-.061,21.8L84.8,370.462l.061-21.8Z" transform="translate(-84.8 -342.324)" fill="#8f77b3"/>
      </g>
      <g id="그룹_3293" data-name="그룹 3293" transform="translate(117.92 366.302)">
        <path id="패스_4243" data-name="패스 4243" d="M92.421,340.472l28.688,16.723-10.807,6.34-28.686-16.72-11.294,6.626-9.578-5.582,33.393-19.593,9.578,5.582ZM110.3,363.1l10.06-5.9L91.67,340.47l11.294-6.626L94.14,328.7,61.493,347.857,70.316,353l11.294-6.626L110.3,363.1" transform="translate(-60.744 -328.264)" fill="#fff"/>
      </g>
      <g id="그룹_3294" data-name="그룹 3294" transform="translate(103.766 388.794)">
        <path id="패스_4244" data-name="패스 4244" d="M63.825,339.2l-.061,21.8-9.9,5.808.061-21.8Z" transform="translate(-53.865 -339.195)" fill="#f89000"/>
      </g>
      <g id="그룹_3295" data-name="그룹 3295" transform="translate(113.665 388.794)">
        <path id="패스_4245" data-name="패스 4245" d="M96.252,361.062l-.061,21.8L58.676,360.993l.061-21.8Z" transform="translate(-58.676 -339.195)" fill="#f89000"/>
      </g>
      <g id="그룹_3296" data-name="그룹 3296" transform="translate(103.766 394.602)">
        <path id="패스_4246" data-name="패스 4246" d="M74.314,353.9l-.061,21.8L53.865,363.816l.061-21.8Z" transform="translate(-53.865 -342.018)" fill="#898989"/>
      </g>
      <g id="그룹_3297" data-name="그룹 3297" transform="translate(103.018 394.602)">
        <path id="패스_4247" data-name="패스 4247" d="M73.23,353.481l-.061,21.8L53.5,363.816l.061-21.8Z" transform="translate(-53.502 -342.018)" fill="#253988"/>
      </g>
      <g id="그룹_3298" data-name="그룹 3298" transform="translate(87.967 403.872)">
        <path id="패스_4248" data-name="패스 4248" d="M82.435,349.137l-.061,21.8-36.187-2.614.061-21.8Z" transform="translate(-46.187 -346.523)" fill="#f89000"/>
      </g>
      <g id="그룹_3299" data-name="그룹 3299" transform="translate(78.491 403.872)">
        <path id="패스_4249" data-name="패스 4249" d="M51.119,346.523l-.061,21.8-9.476,5.559.061-21.8Z" transform="translate(-41.582 -346.523)" fill="#f89000"/>
      </g>
      <g id="그룹_3300" data-name="그룹 3300" transform="translate(104.759 413.165)">
        <path id="패스_4250" data-name="패스 4250" d="M91.945,353.748l-.061,21.8-37.536-2.709.061-21.8Z" transform="translate(-54.348 -351.039)" fill="#acacac"/>
      </g>
      <g id="그룹_3301" data-name="그룹 3301" transform="translate(142.295 410.661)">
        <path id="패스_4251" data-name="패스 4251" d="M81.536,349.822l-.061,21.8-8.884,5.212.061-21.8Z" transform="translate(-72.59 -349.822)" fill="#c5c5c5"/>
      </g>
      <g id="그룹_3302" data-name="그룹 3302" transform="translate(142.489 410.661)">
        <path id="패스_4252" data-name="패스 4252" d="M82.184,349.822l-.061,21.8-9.439,5.538.061-21.8Z" transform="translate(-72.684 -349.822)" fill="#8f77b3"/>
      </g>
      <g id="그룹_3303" data-name="그룹 3303" transform="translate(106.225 413.583)">
        <path id="패스_4253" data-name="패스 4253" d="M91.386,353.858l-.061,21.8L55.06,373.04l.061-21.8Z" transform="translate(-55.06 -351.242)" fill="#253988"/>
      </g>
      <g id="그룹_3304" data-name="그룹 3304" transform="translate(104.759 413.165)">
        <path id="패스_4254" data-name="패스 4254" d="M75.554,363.364l-.061,21.8L54.348,372.837l.061-21.8Z" transform="translate(-54.348 -351.039)" fill="#f89000"/>
      </g>
      <g id="그룹_3305" data-name="그룹 3305" transform="translate(116.005 425.491)">
        <path id="패스_4255" data-name="패스 4255" d="M69.774,357.029l-.061,21.8-9.9,5.808.061-21.8Z" transform="translate(-59.814 -357.029)" fill="#c5c5c5"/>
      </g>
      <g id="그룹_3306" data-name="그룹 3306" transform="translate(78.491 409.432)">
        <path id="패스_4256" data-name="패스 4256" d="M79.157,371.092l-.061,21.8L41.582,371.023l.061-21.8Z" transform="translate(-41.582 -349.225)" fill="#898989"/>
      </g>
      <g id="그룹_3307" data-name="그룹 3307" transform="translate(77.804 388.356)">
        <path id="패스_4257" data-name="패스 4257" d="M105.994,366.826,69.73,364.209l20.428,11.908-10.644,6.247-38.266-22.3,10.033-5.887,34.908,2.521L66.522,345.229l10.646-6.247,38.264,22.3Zm-.193-.325,8.885-5.214L77.17,339.42l-9.9,5.809,20.387,11.883L51.472,354.5,42,360.058,79.51,381.925l9.9-5.809L68.265,363.791,105.8,366.5" transform="translate(-41.248 -338.982)" fill="#fff"/>
      </g>
      <g id="그룹_3308" data-name="그룹 3308" transform="translate(78.552 388.794)">
        <path id="패스_4258" data-name="패스 4258" d="M114.3,361.062l-8.884,5.213L67.88,363.566l21.145,12.325-9.9,5.808L41.612,359.832l9.476-5.56,36.187,2.614L66.886,345l9.9-5.808Z" transform="translate(-41.612 -339.195)" fill="#fff"/>
      </g>
      <g id="그룹_3309" data-name="그룹 3309" transform="translate(77.743 409.432)">
        <path id="패스_4259" data-name="패스 4259" d="M79.545,371.529l-.061,21.8-38.265-22.3.061-21.8Z" transform="translate(-41.218 -349.225)" fill="#253988"/>
      </g>
      <g id="그룹_3310" data-name="그룹 3310" transform="translate(116.008 425.491)">
        <path id="패스_4260" data-name="패스 4260" d="M70.521,357.029l-.061,21.8-10.645,6.246.061-21.8Z" transform="translate(-59.815 -357.029)" fill="#8f77b3"/>
      </g>
      <g id="그룹_3311" data-name="그룹 3311" transform="translate(61.122 413.69)">
        <path id="패스_4261" data-name="패스 4261" d="M43.313,351.294l-.061,21.8-10.111,5.932.061-21.8Z" transform="translate(-33.141 -351.294)" fill="#f89000"/>
      </g>
      <g id="그룹_3312" data-name="그룹 3312" transform="translate(71.233 413.69)">
        <path id="패스_4262" data-name="패스 4262" d="M75.63,373.161l-.061,21.8L38.055,373.092l.061-21.8Z" transform="translate(-38.055 -351.294)" fill="#f89000"/>
      </g>
      <g id="그룹_3313" data-name="그룹 3313" transform="translate(61.122 419.622)">
        <path id="패스_4263" data-name="패스 4263" d="M70.716,376.044l-.061,21.8L33.141,375.975l.061-21.8Z" transform="translate(-33.141 -354.177)" fill="#898989"/>
      </g>
      <g id="그룹_3314" data-name="그룹 3314" transform="translate(98.637 435.557)">
        <path id="패스_4264" data-name="패스 4264" d="M61.544,361.921l-.061,21.8-10.111,5.932.061-21.8Z" transform="translate(-51.373 -361.921)" fill="#c5c5c5"/>
      </g>
      <g id="그룹_3315" data-name="그룹 3315" transform="translate(60.431 413.249)">
        <path id="패스_4265" data-name="패스 4265" d="M43.669,351.08l38.264,22.3-10.862,6.375-38.266-22.3Zm27.4,28.239,10.111-5.932L43.667,351.52l-10.109,5.932,37.513,21.866" transform="translate(-32.805 -351.08)" fill="#fff"/>
      </g>
      <g id="그룹_3316" data-name="그룹 3316" transform="translate(61.184 413.69)">
        <path id="패스_4266" data-name="패스 4266" d="M80.8,373.161l-10.111,5.932L33.171,357.226l10.111-5.932Z" transform="translate(-33.171 -351.294)" fill="#fff"/>
      </g>
      <g id="그룹_3317" data-name="그룹 3317" transform="translate(60.371 419.624)">
        <path id="패스_4267" data-name="패스 4267" d="M71.1,376.483l-.061,21.8-38.265-22.3.061-21.8Z" transform="translate(-32.776 -354.178)" fill="#253988"/>
      </g>
      <g id="그룹_3318" data-name="그룹 3318" transform="translate(98.636 435.555)">
        <path id="패스_4268" data-name="패스 4268" d="M62.3,361.92l-.061,21.8-10.863,6.374.061-21.8Z" transform="translate(-51.372 -361.92)" fill="#8f77b3"/>
      </g>
      <g id="그룹_3319" data-name="그룹 3319" transform="translate(55.8 422.745)">
        <path id="패스_4269" data-name="패스 4269" d="M39.439,360.838l-.061,21.8-8.824-5.143.061-21.8Z" transform="translate(-30.554 -355.695)" fill="#f89000"/>
      </g>
      <g id="그룹_3320" data-name="그룹 3320" transform="translate(69.507 432.935)">
        <path id="패스_4270" data-name="패스 4270" d="M45.671,365.54l-.061,21.8-8.394-4.893.061-21.8Z" transform="translate(-37.215 -360.647)" fill="#f89000"/>
      </g>
      <g id="그룹_3321" data-name="그룹 3321" transform="translate(44.94 427.888)">
        <path id="패스_4271" data-name="패스 4271" d="M45.021,358.194l-.061,21.8L25.276,391.541l.061-21.8Z" transform="translate(-25.276 -358.194)" fill="#c5c5c5"/>
      </g>
      <g id="그룹_3322" data-name="그룹 3322" transform="translate(45.692 427.89)">
        <path id="패스_4272" data-name="패스 4272" d="M45.387,358.2l-.061,21.8L25.642,391.542l.061-21.8Z" transform="translate(-25.642 -358.195)" fill="#8f77b3"/>
      </g>
      <g id="그룹_3323" data-name="그룹 3323" transform="translate(51.705 432.935)">
        <path id="패스_4273" data-name="패스 4273" d="M46.427,360.647l-.061,21.8-17.8,10.445.061-21.8Z" transform="translate(-28.564 -360.647)" fill="#f89000"/>
      </g>
      <g id="그룹_3324" data-name="그룹 3324" transform="translate(60.099 437.828)">
        <path id="패스_4274" data-name="패스 4274" d="M50.507,363.025l-.061,21.8-17.8,10.445.061-21.8Z" transform="translate(-32.643 -363.025)" fill="#c5c5c5"/>
      </g>
      <g id="그룹_3325" data-name="그룹 3325" transform="translate(60.847 437.828)">
        <path id="패스_4275" data-name="패스 4275" d="M50.87,363.025l-.061,21.8-17.8,10.445.061-21.8Z" transform="translate(-33.007 -363.025)" fill="#8f77b3"/>
      </g>
      <g id="그룹_3326" data-name="그룹 3326" transform="translate(60.099 448.273)">
        <path id="패스_4276" data-name="패스 4276" d="M46.236,375.989l-.061,21.8L32.643,389.9l.061-21.8Z" transform="translate(-32.643 -368.101)" fill="#f89000"/>
      </g>
      <g id="그룹_3327" data-name="그룹 3327" transform="translate(26.056 440.196)">
        <path id="패스_4277" data-name="패스 4277" d="M53.674,386.043l-.061,21.8L16.1,385.974l.061-21.8Z" transform="translate(-16.099 -364.176)" fill="#898989"/>
      </g>
      <g id="그룹_3328" data-name="그룹 3328" transform="translate(63.571 456.161)">
        <path id="패스_4278" data-name="패스 4278" d="M44.452,371.935l-.061,21.8-10.06,5.9.061-21.8Z" transform="translate(-34.331 -371.935)" fill="#c5c5c5"/>
      </g>
      <g id="그룹_3329" data-name="그룹 3329" transform="translate(25.308 440.196)">
        <path id="패스_4279" data-name="패스 4279" d="M54.062,386.481,54,408.279l-38.265-22.3.061-21.8Z" transform="translate(-15.735 -364.176)" fill="#253988"/>
      </g>
      <g id="그룹_3330" data-name="그룹 3330" transform="translate(63.573 456.161)">
        <path id="패스_4280" data-name="패스 4280" d="M45.2,371.935l-.061,21.8-10.806,6.34.061-21.8Z" transform="translate(-34.332 -371.935)" fill="#8f77b3"/>
      </g>
      <path id="패스_4281" data-name="패스 4281" d="M125.68,327.184v21.8s5.455-3.257,5.786-9.037l.07-23.282S131.923,322.669,125.68,327.184Z" transform="translate(125.855 25.767)" fill="#253988"/>
      <g id="그룹_3331" data-name="그룹 3331" transform="translate(68.304 447.899)">
        <path id="패스_4282" data-name="패스 4282" d="M46.183,392.343v3.391l3.272,2.014v-3.4l2.644-1.665v-4.072Zm-3.554,1.208v-3.4l3.44-2.165v-4.074l-9.438,5.947Z" transform="translate(-36.631 -351.002)" fill="#253988"/>
        <path id="패스_4283" data-name="패스 4283" d="M43.1,389.136v3.391l-3.553-2.183v-3.4Z" transform="translate(-33.548 -347.795)" fill="#002265"/>
        <path id="패스_4284" data-name="패스 4284" d="M49.238,392.911l-2.727,1.717-3.648-2.243v-3.4Z" transform="translate(-30.04 -345.637)" fill="#002265"/>
        <path id="패스_4285" data-name="패스 4285" d="M47.419,388.21l-3.272,2.063V386.2Z" transform="translate(-28.681 -348.585)" fill="#002265"/>
        <path id="패스_4286" data-name="패스 4286" d="M44.489,385.925l-3.272,2.063v-4.073Z" transform="translate(-31.78 -351.001)" fill="#f99300"/>
        <path id="패스_4287" data-name="패스 4287" d="M43.2,382.241v3.529l.342.21,2.833-1.784Zm4.492,2.854v3.348l9.922,6.107,2.691-1.7Z" transform="translate(-29.683 -352.772)" fill="#253988"/>
        <path id="패스_4288" data-name="패스 4288" d="M46.766,383.628v3.349l-2.691-1.657Z" transform="translate(-28.758 -351.306)" fill="#002265"/>
        <path id="패스_4289" data-name="패스 4289" d="M44.657,382.241v3.529l-2.835-1.746Z" transform="translate(-31.141 -352.772)" fill="#002265"/>
        <path id="패스_4290" data-name="패스 4290" d="M58.372,382.358a10.387,10.387,0,0,0-4.276-1.584,5.452,5.452,0,0,0-3.63.735,2.532,2.532,0,0,0-.755.683,1.732,1.732,0,0,0-.292.741,2.24,2.24,0,0,0,.041.79,4.564,4.564,0,0,0,.263.79l-1.8-1.107v3.35l4.1,2.523v-4.025a.772.772,0,0,1,0-.239,1.127,1.127,0,0,1,.617-.8,2.749,2.749,0,0,1,1.848-.364,5.92,5.92,0,0,1,2.337.91l7.023,4.317,2.691-1.691Z" transform="translate(-24.688 -354.373)" fill="#253988"/>
        <path id="패스_4291" data-name="패스 4291" d="M58.429,388.837l-2.691,1.691-5.821-3.576v-4.025a1.324,1.324,0,0,0,.031.132c.132.455.615.938,1.459,1.459Z" transform="translate(-22.579 -352.047)" fill="#002265"/>
        <path id="패스_4292" data-name="패스 4292" d="M49.307,382.029v3.349l-2.691-1.657Z" transform="translate(-26.071 -352.997)" fill="#002265"/>
        <path id="패스_4293" data-name="패스 4293" d="M70.431,384.016l-7.321-4.5a14.468,14.468,0,0,0-2.541-1.255,9.253,9.253,0,0,0-2.506-.574,7.359,7.359,0,0,0-2.35.179,6.7,6.7,0,0,0-1.537.562v4.605a5.707,5.707,0,0,1,.741-1.095,5.317,5.317,0,0,1,1.2-.973,3.643,3.643,0,0,1,2.111-.6,4.576,4.576,0,0,1,2.233.737l.208.13v2.029a4.87,4.87,0,0,1,1.006-.479,7.835,7.835,0,0,1,1.13-.286l.634.4a1.78,1.78,0,0,1,1.023,1.346v3.755a5.311,5.311,0,0,0,.737-.383,2.877,2.877,0,0,0,1.249-1.327,2.218,2.218,0,0,0,.019-1.465l1.37.842Z" transform="translate(-18.075 -357.621)" fill="#253988"/>
        <path id="패스_4294" data-name="패스 4294" d="M63.485,382.45v3.7a6.05,6.05,0,0,1-.778.263,6.111,6.111,0,0,1-1.776.2,7.861,7.861,0,0,1-1.914-.3,7.7,7.7,0,0,1-1.914-.862l-.047-.025a5.238,5.238,0,0,1-1.5-1.28,1.9,1.9,0,0,1,0-2.482,4.809,4.809,0,0,1,1.3-1.124,7.415,7.415,0,0,1,1.405-.712,12.981,12.981,0,0,1,1.428-.432v2.029a.477.477,0,0,0-.053.029c-.58.366-.885.743-.92,1.138s.239.759.8,1.1l.047.031a2.83,2.83,0,0,0,1.537.436,2.76,2.76,0,0,0,1.461-.424A1.6,1.6,0,0,0,63.485,382.45Z" transform="translate(-17.104 -355.785)" fill="#002265"/>
        <path id="패스_4295" data-name="패스 4295" d="M55.925,378.029v4.605l-3.4-1.249a6.453,6.453,0,0,1,.9-1.477,8.756,8.756,0,0,1,2.506-1.879Z" transform="translate(-19.824 -357.227)" fill="#002265"/>
        <path id="패스_4296" data-name="패스 4296" d="M68.837,375.774a10.454,10.454,0,0,0-4.284-1.586,5.433,5.433,0,0,0-3.624.731,2.528,2.528,0,0,0-.759.681,1.779,1.779,0,0,0-.294.749,2.188,2.188,0,0,0,.043.782,4.03,4.03,0,0,0,.267.8l-1.8-1.113v3.356l4.1,2.525v-4.033a.621.621,0,0,1,0-.185,1.1,1.1,0,0,1,.615-.854,2.8,2.8,0,0,1,1.848-.36,5.845,5.845,0,0,1,2.34.909l7.021,4.319L77,380.79Z" transform="translate(-13.626 -361.34)" fill="#253988"/>
        <path id="패스_4297" data-name="패스 4297" d="M59.765,375.439v3.355l-2.691-1.657Z" transform="translate(-15.01 -359.966)" fill="#002265"/>
        <path id="패스_4298" data-name="패스 4298" d="M68.886,382.253l-2.691,1.693-5.819-3.576v-4.033c.01.043.016.091.029.132a3.083,3.083,0,0,0,1.465,1.467Z" transform="translate(-11.517 -359.016)" fill="#002265"/>
        <path id="패스_4299" data-name="패스 4299" d="M80.079,376.276l-3.689-.311c.016.113.035.226.041.333a3.025,3.025,0,0,1,0,.473v4.2a6.753,6.753,0,0,0,2.074-.842,3.367,3.367,0,0,0,1.658-1.85A3.675,3.675,0,0,0,80.079,376.276Zm-11.873-5.3a7.259,7.259,0,0,0-2.792,1.06,3.7,3.7,0,0,0-1.5,1.584,2.789,2.789,0,0,0-.156,1.854,4.776,4.776,0,0,0,1.072,1.938,9.056,9.056,0,0,0,2.165,1.8l.047.025c.228.142.467.274.706.4v-4.521a1.271,1.271,0,0,1,.066-.42,1.483,1.483,0,0,1,.658-.753,3.517,3.517,0,0,1,1.591-.533,11.539,11.539,0,0,1,1.963.025l-.706-2.482A12.383,12.383,0,0,0,68.206,370.975Z" transform="translate(-8.032 -364.803)" fill="#253988"/>
        <path id="패스_4300" data-name="패스 4300" d="M74.333,374.587v4.2c-.138.031-.276.06-.414.084a11.127,11.127,0,0,1-2.971.126,13.792,13.792,0,0,1-3.1-.628,12.8,12.8,0,0,1-2.2-.922v-4.521a1.657,1.657,0,0,0,.078.5,2.676,2.676,0,0,0,.621.969,5.5,5.5,0,0,0,1.161.928l.047.029a7.706,7.706,0,0,0,1.533.731,7.027,7.027,0,0,0,1.591.376,5.734,5.734,0,0,0,1.506-.025,3.355,3.355,0,0,0,1.263-.461,1.7,1.7,0,0,0,.813-.963A3.321,3.321,0,0,0,74.333,374.587Z" transform="translate(-5.935 -362.619)" fill="#002265"/>
        <path id="패스_4301" data-name="패스 4301" d="M85.032,372.981l-3.356-.144a2.732,2.732,0,0,1,.035.609v4.218a6.979,6.979,0,0,0,1.788-.79,3.594,3.594,0,0,0,1.628-1.807A2.976,2.976,0,0,0,85.032,372.981Zm-2.549-2.117c-.16-.113-.317-.222-.465-.323s-.3-.191-.442-.282a17.986,17.986,0,0,0-2.848-1.412,14.065,14.065,0,0,0-3.045-.807,10.2,10.2,0,0,0-2.959-.025,6.581,6.581,0,0,0-2.621.944,3.28,3.28,0,0,0-1.381,1.521,2.693,2.693,0,0,0-.072,1.8,5.069,5.069,0,0,0,1.13,1.9,9.96,9.96,0,0,0,2.2,1.776l.047.031.27.16v-4.4a1.222,1.222,0,0,1,.683-1.023,3.235,3.235,0,0,1,2.1-.4,7.747,7.747,0,0,1,2.584.79V373.9Z" transform="translate(-2.895 -367.919)" fill="#253988"/>
        <path id="패스_4302" data-name="패스 4302" d="M79.777,371.8v4.218c-.208.06-.43.113-.65.16a10.509,10.509,0,0,1-2.92.169,13.773,13.773,0,0,1-5.85-1.85v-4.4a1.24,1.24,0,0,0,.043.292,3.426,3.426,0,0,0,1.268,1.634l4.062-2.56v2.786l-1.79,1.126a6.609,6.609,0,0,0,2.656.628,3.881,3.881,0,0,0,2.136-.574,2.2,2.2,0,0,0,.9-.944A1.8,1.8,0,0,0,79.777,371.8Z" transform="translate(-0.961 -366.277)" fill="#002265"/>
        <line id="선_69" data-name="선 69" y1="0.006" transform="translate(12.823 46.748)" fill="none"/>
        <line id="선_70" data-name="선 70" y1="0.239" transform="translate(27.338 30.641)" fill="none"/>
        <line id="선_71" data-name="선 71" y1="0.054" transform="translate(46.382 26.61)" fill="none"/>
        <line id="선_72" data-name="선 72" y1="3.26" transform="translate(49.754 24.772)" fill="none"/>
        <path id="패스_4303" data-name="패스 4303" d="M60.376,376.454v-.227" transform="translate(-11.518 -359.133)" fill="none"/>
        <line id="선_73" data-name="선 73" y1="0.472" transform="translate(68.398 11.496)" fill="none"/>
        <line id="선_74" data-name="선 74" y1="0.084" transform="translate(59.719 10.228)" fill="none"/>
        <line id="선_75" data-name="선 75" y1="0.191" transform="translate(69.397 3.637)" fill="none"/>
        <line id="선_76" data-name="선 76" y1="0.12" transform="translate(78.817 5.408)" fill="none"/>
      </g>
      <g id="그룹_3333" data-name="그룹 3333" transform="translate(134.447 292.299)">
        <g id="그룹_3332" data-name="그룹 3332">
          <path id="패스_4304" data-name="패스 4304" d="M68.776,322.747l3.253,1.866,3.654-2.111,2.644,1.512v-3.037l.4-.235V317Z" transform="translate(-68.776 -266.174)" fill="#253988"/>
          <path id="패스_4305" data-name="패스 4305" d="M76.866,318.866l-3.254,1.878V317Z" transform="translate(-63.66 -266.174)" fill="#f99300"/>
          <path id="패스_4306" data-name="패스 4306" d="M86.2,326.266l-2.638,1.525-10.144-5.819v-3.038Z" transform="translate(-63.866 -264.129)" fill="#002265"/>
          <path id="패스_4307" data-name="패스 4307" d="M93.456,320.508,90.2,320.36a2.545,2.545,0,0,1,.037.5V324.7a6.849,6.849,0,0,0,1.751-.7,3.309,3.309,0,0,0,1.574-1.609A2.466,2.466,0,0,0,93.456,320.508Zm-2.475-1.914c-.163-.107-.311-.2-.461-.292s-.286-.175-.424-.251a17.81,17.81,0,0,0-2.776-1.292,14.6,14.6,0,0,0-2.955-.743,10.893,10.893,0,0,0-2.877-.041,6.593,6.593,0,0,0-2.535.831,3,3,0,0,0-1.342,1.358,2.248,2.248,0,0,0-.06,1.615,4.526,4.526,0,0,0,1.107,1.71A9.727,9.727,0,0,0,80.8,323.1l.047.023c.078.049.163.091.245.132V319.3a1.1,1.1,0,0,1,.658-.891,3.345,3.345,0,0,1,2.045-.348,7.907,7.907,0,0,1,2.506.73V321.3Z" transform="translate(-59.622 -267.338)" fill="#253988"/>
          <path id="패스_4308" data-name="패스 4308" d="M88.36,319.428v3.78c-.2.053-.407.1-.617.138a11.094,11.094,0,0,1-2.835.138,14.383,14.383,0,0,1-2.206-.354c-.27-.066-.533-.142-.8-.22a13.231,13.231,0,0,1-2.691-1.138v-3.947a.884.884,0,0,0,.043.276,3.132,3.132,0,0,0,1.237,1.471l3.93-2.268v2.506l-1.716.994a6.858,6.858,0,0,0,2.578.58,4.035,4.035,0,0,0,2.074-.5,2.032,2.032,0,0,0,.868-.844A1.549,1.549,0,0,0,88.36,319.428Z" transform="translate(-57.743 -265.851)" fill="#002265"/>
          <path id="패스_4309" data-name="패스 4309" d="M98.537,317.735l-3.589-.3a3.071,3.071,0,0,1,.053.545v3.959a6.83,6.83,0,0,0,2.027-.741,2.587,2.587,0,0,0,1.508-3.459ZM86.987,312.9a7.186,7.186,0,0,0-2.71.932,3.45,3.45,0,0,0-1.447,1.418,2.344,2.344,0,0,0-.144,1.663,4.362,4.362,0,0,0,1.047,1.747,8.642,8.642,0,0,0,2.117,1.628l.041.023c.216.125.436.245.665.354v-4.056a1.089,1.089,0,0,1,.066-.37,1.335,1.335,0,0,1,.64-.671,3.55,3.55,0,0,1,1.543-.465,11.968,11.968,0,0,1,1.9.029l-.7-2.23A12.774,12.774,0,0,0,86.987,312.9Z" transform="translate(-54.158 -270.6)" fill="#253988"/>
          <path id="패스_4310" data-name="패스 4310" d="M92.967,316.024v3.959c-.126.029-.263.053-.4.072a11.7,11.7,0,0,1-2.877.095,14.451,14.451,0,0,1-3.014-.58,13.422,13.422,0,0,1-2.158-.854V314.66a1.328,1.328,0,0,0,.082.449,2.448,2.448,0,0,0,.6.879,5.114,5.114,0,0,0,1.13.837l.049.025a7.8,7.8,0,0,0,1.488.669,7.678,7.678,0,0,0,1.549.348,5.942,5.942,0,0,0,1.459-.012,3.319,3.319,0,0,0,1.226-.405,1.541,1.541,0,0,0,.784-.862A2.11,2.11,0,0,0,92.967,316.024Z" transform="translate(-52.122 -268.648)" fill="#002265"/>
          <path id="패스_4311" data-name="패스 4311" d="M99.859,311.559a10.7,10.7,0,0,0-4.163-1.447,5.6,5.6,0,0,0-3.523.634,2.358,2.358,0,0,0-.73.609,1.51,1.51,0,0,0-.28.665,1.868,1.868,0,0,0,.041.706,3.73,3.73,0,0,0,.263.712l-6.2-3.554v3l8.432,4.84v-3.673a.348.348,0,0,1,0-.113v-.025a1.043,1.043,0,0,1,.6-.728,2.834,2.834,0,0,1,1.794-.311,5.959,5.959,0,0,1,2.274.831l6.835,3.918,2.607-1.508Z" transform="translate(-51.336 -273.7)" fill="#253988"/>
          <path id="패스_4312" data-name="패스 4312" d="M97.66,317.336l-2.607,1.506-5.689-3.259V311.91a1.094,1.094,0,0,0,.037.185c.126.407.6.85,1.424,1.317Z" transform="translate(-47.001 -271.557)" fill="#002265"/>
          <path id="패스_4313" data-name="패스 4313" d="M86.606,309.884v3L84,311.392Z" transform="translate(-52.676 -273.699)" fill="#002265"/>
          <path id="패스_4314" data-name="패스 4314" d="M102.764,308.468a10.8,10.8,0,0,0-4.159-1.453,5.636,5.636,0,0,0-3.523.64,2.3,2.3,0,0,0-.728.611,1.4,1.4,0,0,0-.282.663,1.785,1.785,0,0,0,.041.706,3.769,3.769,0,0,0,.263.712l-1.757-1v3l4,2.3v-3.6a.675.675,0,0,1,0-.257v-.006a1.053,1.053,0,0,1,.586-.681A2.807,2.807,0,0,1,99,309.785a5.982,5.982,0,0,1,2.274.831l6.835,3.918,2.607-1.508Z" transform="translate(-43.558 -276.782)" fill="#253988"/>
          <path id="패스_4315" data-name="패스 4315" d="M102.842,314.3l-2.607,1.506-5.671-3.253v-3.6a.312.312,0,0,0,.025.1c.126.412.6.848,1.424,1.321Z" transform="translate(-41.502 -274.69)" fill="#002265"/>
          <path id="패스_4316" data-name="패스 4316" d="M93.96,308.123v3l-2.608-1.5Z" transform="translate(-44.898 -275.562)" fill="#002265"/>
          <path id="패스_4317" data-name="패스 4317" d="M113.987,309.254a4.125,4.125,0,0,0-.979-1.765,8.4,8.4,0,0,0-2.113-1.644l-.041-.025a12.89,12.89,0,0,0-2.864-1.208,14.977,14.977,0,0,0-3.058-.562,12.1,12.1,0,0,0-2.918.132,7.3,7.3,0,0,0-2.465.862,3.521,3.521,0,0,0-1.488,1.434,2.5,2.5,0,0,0-.2,1.7,4.1,4.1,0,0,0,.981,1.77,8.3,8.3,0,0,0,2.111,1.644l.041.025c.226.126.455.251.687.364v-4.019a1.172,1.172,0,0,1,.1-.449,1.641,1.641,0,0,1,.741-.73,3.459,3.459,0,0,1,1.251-.405,6.421,6.421,0,0,1,1.519-.019,7.668,7.668,0,0,1,1.572.329,7.831,7.831,0,0,1,1.467.64l.047.031a5.372,5.372,0,0,1,1.13.835,2.357,2.357,0,0,1,.593.881,1.131,1.131,0,0,1,.06.27,1.063,1.063,0,0,1,0,.28v3.566a7.127,7.127,0,0,0,2.142-.8,3.561,3.561,0,0,0,1.488-1.436A2.5,2.5,0,0,0,113.987,309.254Z" transform="translate(-38.088 -279.905)" fill="#253988"/>
          <path id="패스_4318" data-name="패스 4318" d="M108.155,307.6v3.566c-.107.016-.216.041-.323.06a11.89,11.89,0,0,1-2.918.132,14.419,14.419,0,0,1-3.058-.558,12.865,12.865,0,0,1-2.177-.844v-4.019a1.191,1.191,0,0,0,.072.4,2.323,2.323,0,0,0,.593.885,5.6,5.6,0,0,0,1.13.837l.047.025a7.762,7.762,0,0,0,1.467.646,7.663,7.663,0,0,0,1.572.327,6.574,6.574,0,0,0,1.508-.01,3.441,3.441,0,0,0,1.261-.414,1.642,1.642,0,0,0,.741-.731A1.009,1.009,0,0,0,108.155,307.6Z" transform="translate(-36.091 -277.877)" fill="#002265"/>
          <path id="패스_4319" data-name="패스 4319" d="M101.247,300.653v3l14.122,8.1,2.607-1.506Z" transform="translate(-34.433 -283.463)" fill="#253988"/>
          <path id="패스_4320" data-name="패스 4320" d="M102.587,300.653v3l-2.608-1.5Z" transform="translate(-35.774 -283.463)" fill="#002265"/>
          <path id="패스_4321" data-name="패스 4321" d="M122.038,304.6a4.058,4.058,0,0,0-.981-1.77,8.33,8.33,0,0,0-2.1-1.64l-.047-.029a13.148,13.148,0,0,0-2.866-1.208,15.272,15.272,0,0,0-3.049-.558,12.151,12.151,0,0,0-2.924.132,7.506,7.506,0,0,0-2.465.856,3.591,3.591,0,0,0-1.484,1.44,2.458,2.458,0,0,0-.2,1.7,4.047,4.047,0,0,0,.981,1.77,8.342,8.342,0,0,0,2.1,1.646l.047.023c.228.132.455.251.689.366V303.3a1.155,1.155,0,0,1,.088-.442,1.717,1.717,0,0,1,.743-.735,3.4,3.4,0,0,1,1.255-.4,6.077,6.077,0,0,1,1.514-.025,7.706,7.706,0,0,1,1.572.335,7.4,7.4,0,0,1,1.471.64l.041.031a5.322,5.322,0,0,1,1.132.831,2.382,2.382,0,0,1,.6.885,1.33,1.33,0,0,1,.066.4v3.7a7.124,7.124,0,0,0,2.136-.784,3.591,3.591,0,0,0,1.484-1.44A2.42,2.42,0,0,0,122.038,304.6Z" transform="translate(-29.572 -284.824)" fill="#253988"/>
          <path id="패스_4322" data-name="패스 4322" d="M116.215,302.8v3.7a3.292,3.292,0,0,1-.327.072,12.174,12.174,0,0,1-2.926.132,14.437,14.437,0,0,1-3.049-.558,13.043,13.043,0,0,1-2.177-.842V301.28a1.331,1.331,0,0,0,.066.4,2.367,2.367,0,0,0,.6.885,5.334,5.334,0,0,0,1.132.838l.041.025a7.8,7.8,0,0,0,1.471.646,7.962,7.962,0,0,0,1.574.329,6.675,6.675,0,0,0,1.506-.012,3.466,3.466,0,0,0,1.261-.414,1.665,1.665,0,0,0,.743-.735A1.155,1.155,0,0,0,116.215,302.8Z" transform="translate(-27.571 -282.8)" fill="#002265"/>
          <path id="패스_4323" data-name="패스 4323" d="M131.507,304.314c-.263-1.047-1.484-2.2-3.673-3.451l-9.5-5.455-2.607,1.506,1.6.922a13.721,13.721,0,0,0-2.525-.047,5.338,5.338,0,0,0-2.278.712,2.97,2.97,0,0,0-1.148,1.095,1.91,1.91,0,0,0-.191,1.393,3.6,3.6,0,0,0,.891,1.556,8.192,8.192,0,0,0,2.093,1.6l.049.029a10.818,10.818,0,0,0,1.13.574V300.87a1.025,1.025,0,0,1,.144-.521,1.764,1.764,0,0,1,.675-.628,3.66,3.66,0,0,1,1.1-.4,5.057,5.057,0,0,1,1.292-.072,6.222,6.222,0,0,1,1.381.245,6.466,6.466,0,0,1,1.317.555l.047.031a3.683,3.683,0,0,1,.969.753,1.756,1.756,0,0,1,.436.79,1.066,1.066,0,0,1,.018.239v3.768a5.479,5.479,0,0,0,1.3-.531,2.249,2.249,0,0,0,1.208-1.3,2.593,2.593,0,0,0-.2-1.572l.6.34c1.093.63,1.716,1.233,1.848,1.807s-.241,1.113-1.132,1.628a7.282,7.282,0,0,1-1.955.788c-.179.043-.36.084-.551.121v2.253a15.538,15.538,0,0,0,2.854-.556,11.634,11.634,0,0,0,2.494-1.053,6.448,6.448,0,0,0,1.932-1.566A1.9,1.9,0,0,0,131.507,304.314Z" transform="translate(-23.981 -289.009)" fill="#253988"/>
          <path id="패스_4324" data-name="패스 4324" d="M118.194,301v2.253l-1.722-2.014A17.142,17.142,0,0,0,118.194,301Z" transform="translate(-18.331 -283.1)" fill="#002265"/>
          <path id="패스_4325" data-name="패스 4325" d="M120.56,299.055v3.767c-.2.056-.407.1-.621.144a9.362,9.362,0,0,1-2.418.113,12.6,12.6,0,0,1-2.7-.508,11.211,11.211,0,0,1-1.644-.634v-3.875a.892.892,0,0,0,.025.22,1.767,1.767,0,0,0,.43.79,3.868,3.868,0,0,0,.975.759l.047.025a5.974,5.974,0,0,0,2.7.813,4.178,4.178,0,0,0,2.375-.473,1.8,1.8,0,0,0,.681-.634A1.034,1.034,0,0,0,120.56,299.055Z" transform="translate(-21.814 -286.202)" fill="#002265"/>
          <path id="패스_4326" data-name="패스 4326" d="M134.026,303.77a2.456,2.456,0,0,0-.426-.981,8.084,8.084,0,0,0-1.041-1.233l-9.047-9.257v4.1l3.648,3.42-10.455-3.589V298.7l13.163,4.121a.873.873,0,0,1,.263.574.583.583,0,0,1-.317.377v2.35a10.834,10.834,0,0,0,1.663-.245,5.64,5.64,0,0,0,1.5-.6,2.741,2.741,0,0,0,.85-.7A1.1,1.1,0,0,0,134.026,303.77Z" transform="translate(-18.084 -292.298)" fill="#253988"/>
          <path id="패스_4327" data-name="패스 4327" d="M123.924,297.874v2.35l-1.65-1.949a5.618,5.618,0,0,0,.9-.128,2.349,2.349,0,0,0,.693-.239Z" transform="translate(-12.194 -286.402)" fill="#002265"/>
          <path id="패스_4328" data-name="패스 4328" d="M121.405,292.3v4.1l-2.709-2.536Z" transform="translate(-15.979 -292.299)" fill="#002265"/>
          <path id="패스_4329" data-name="패스 4329" d="M118.125,294.211v2.464l-2.763-.867Z" transform="translate(-19.505 -290.276)" fill="#002265"/>
          <line id="선_77" data-name="선 77" y1="0.012" transform="translate(21.466 51.963)" fill="none"/>
          <line id="선_78" data-name="선 78" y1="0.054" transform="translate(30.617 53.524)" fill="none"/>
          <line id="선_79" data-name="선 79" y1="0.09" transform="translate(40.844 47.286)" fill="none"/>
          <path id="패스_4330" data-name="패스 4330" d="M89.364,311.981v-.138" transform="translate(-47.001 -271.627)" fill="none"/>
          <path id="패스_4331" data-name="패스 4331" d="M94.564,309.084v-.263" transform="translate(-41.501 -274.825)" fill="none"/>
          <line id="선_80" data-name="선 80" y1="0.185" transform="translate(63.59 27.871)" fill="none"/>
          <line id="선_81" data-name="선 81" y1="0.281" transform="translate(72.065 29.438)" fill="none"/>
          <line id="선_82" data-name="선 82" y1="0.084" transform="translate(80.163 18.398)" fill="none"/>
          <line id="선_83" data-name="선 83" y1="0.132" transform="translate(88.644 19.869)" fill="none"/>
          <line id="선_84" data-name="선 84" y1="0.126" transform="translate(91.365 11.735)" fill="none"/>
        </g>
      </g>
      <path id="패스_4332" data-name="패스 4332" d="M51.373,375.4" transform="translate(47.265 87.889)" fill="#ccb3d7"/>
      <g id="그룹_3334" data-name="그룹 3334" transform="translate(25.369 422.307)">
        <path id="패스_4333" data-name="패스 4333" d="M51.3,381.447l13.531,7.889-10.8,6.34-38.266-22.3,30.49-17.889,9.578,5.582L36.15,372.614l6.008,3.5,17.8-10.447L69.107,371Zm2.722,13.79,10.062-5.9-13.533-7.889L68.358,371l-8.4-4.893-17.8,10.445L35.4,372.612l19.683-11.55-8.823-5.142L16.514,373.371l37.513,21.867" transform="translate(-15.765 -355.482)" fill="#fff"/>
      </g>
      <g id="그룹_3335" data-name="그룹 3335" transform="translate(26.117 422.745)">
        <path id="패스_4334" data-name="패스 4334" d="M54.7,360.838,35.013,372.387l6.764,3.943,17.8-10.445,8.394,4.893-17.8,10.445L63.7,389.111l-10.06,5.9L16.129,373.146l29.744-17.451Z" transform="translate(-16.129 -355.695)" fill="#fff"/>
      </g>
    </g>
  </g>
</svg>
