<svg xmlns="http://www.w3.org/2000/svg" width="198.842" height="41.208" viewBox="0 0 198.842 41.208">
  <path id="패스_4370" data-name="패스 4370" d="M-77.68,0h9.92V-2.48h-3.2c-.7,0-1.68.08-2.42.16,2.7-2.64,4.92-5.52,4.92-8.2a4.342,4.342,0,0,0-4.66-4.56,5.941,5.941,0,0,0-4.7,2.24l1.6,1.6a3.872,3.872,0,0,1,2.72-1.52,2.114,2.114,0,0,1,2.22,2.4c0,2.28-2.38,5.06-6.4,8.66Zm16.82.28c3.02,0,5-2.64,5-7.74s-1.98-7.62-5-7.62-5.02,2.5-5.02,7.62C-65.88-2.36-63.88.28-60.86.28Zm0-2.3c-1.28,0-2.24-1.28-2.24-5.44,0-4.14.96-5.34,2.24-5.34s2.22,1.2,2.22,5.34C-58.64-3.3-59.58-2.02-60.86-2.02ZM-54.12,0h9.92V-2.48h-3.2c-.7,0-1.68.08-2.42.16,2.7-2.64,4.92-5.52,4.92-8.2a4.342,4.342,0,0,0-4.66-4.56,5.941,5.941,0,0,0-4.7,2.24l1.6,1.6a3.872,3.872,0,0,1,2.72-1.52,2.114,2.114,0,0,1,2.22,2.4c0,2.28-2.38,5.06-6.4,8.66Zm12.56,0h8.9V-2.38h-2.78V-14.82h-2.18a9.233,9.233,0,0,1-3.44,1.26v1.82h2.68v9.36h-3.18Zm13.38.28a1.842,1.842,0,0,0,1.84-1.92,1.83,1.83,0,0,0-1.84-1.92A1.826,1.826,0,0,0-30-1.64,1.838,1.838,0,0,0-28.18.28Zm9.16,0c3.02,0,5-2.64,5-7.74s-1.98-7.62-5-7.62-5.02,2.5-5.02,7.62C-24.04-2.36-22.04.28-19.02.28Zm0-2.3c-1.28,0-2.24-1.28-2.24-5.44,0-4.14.96-5.34,2.24-5.34s2.22,1.2,2.22,5.34C-16.8-3.3-17.74-2.02-19.02-2.02ZM-7.62.28a5,5,0,0,0,5.18-5.2c0-3.22-2.08-4.7-4.56-4.7a3.887,3.887,0,0,0-1.78.42l.28-3.14h5.38v-2.48h-7.92l-.4,7.2,1.34.88a3.541,3.541,0,0,1,2.22-.78,2.4,2.4,0,0,1,2.5,2.68A2.485,2.485,0,0,1-8-2.12a4.6,4.6,0,0,1-3.26-1.5l-1.36,1.88A6.745,6.745,0,0,0-7.62.28Zm9.5,0A1.842,1.842,0,0,0,3.72-1.64,1.83,1.83,0,0,0,1.88-3.56,1.826,1.826,0,0,0,.06-1.64,1.838,1.838,0,0,0,1.88.28ZM6,0h9.92V-2.48h-3.2c-.7,0-1.68.08-2.42.16,2.7-2.64,4.92-5.52,4.92-8.2a4.342,4.342,0,0,0-4.66-4.56,5.941,5.941,0,0,0-4.7,2.24l1.6,1.6a3.872,3.872,0,0,1,2.72-1.52,2.114,2.114,0,0,1,2.22,2.4C12.4-8.08,10.02-5.3,6-1.7ZM23.08-7.24c1.28,0,2.12.82,2.12,2.56,0,1.82-.92,2.74-2.02,2.74-1.24,0-2.24-1.04-2.52-3.74A2.893,2.893,0,0,1,23.08-7.24ZM23.24.28a4.652,4.652,0,0,0,4.64-4.96c0-3.16-1.76-4.64-4.24-4.64a4.261,4.261,0,0,0-3.04,1.6c.12-3.72,1.52-5,3.22-5a3.213,3.213,0,0,1,2.28,1.08l1.56-1.76a5.448,5.448,0,0,0-4.02-1.68c-2.98,0-5.72,2.36-5.72,7.88C17.92-1.98,20.42.28,23.24.28ZM33.38,4.04l1.84-.78a19.243,19.243,0,0,1-2.44-9.58,19.275,19.275,0,0,1,2.44-9.56l-1.84-.78A19.151,19.151,0,0,0,30.4-6.32,19.169,19.169,0,0,0,33.38,4.04Zm19.8-14.2c-4.18-.58-6.3-2.98-6.3-5.12v-.88H44.06v.88c0,2.16-2.1,4.54-6.3,5.12l1,2.12c3.22-.48,5.54-1.98,6.72-3.96,1.18,1.98,3.48,3.48,6.7,3.96Zm.6,3.48H37.14v2.14h6.94V1.74h2.64V-4.54h7.06ZM57.52,4.04a19.014,19.014,0,0,0,3-10.36,19,19,0,0,0-3-10.34l-1.82.78a19.275,19.275,0,0,1,2.44,9.56A19.243,19.243,0,0,1,55.7,3.26ZM74.6-5.56c1.08,0,2.22-.62,3.24-2.24L76.3-8.98c-.48.88-1.02,1.32-1.66,1.32-1.24,0-2.08-1.76-3.92-1.76-1.1,0-2.22.62-3.26,2.26L69-6c.48-.88,1.04-1.32,1.66-1.32C71.92-7.32,72.76-5.56,74.6-5.56ZM-97.636,22h2.352l.8-3.416c.168-.728.28-1.456.434-2.282h.07c.154.826.28,1.54.448,2.282L-92.708,22h2.422l1.932-7.84h-1.9l-.854,3.864c-.14.77-.252,1.512-.392,2.3h-.07c-.168-.784-.308-1.526-.49-2.3l-.98-3.864h-1.82l-.952,3.864c-.2.756-.336,1.512-.49,2.3h-.056c-.14-.784-.238-1.526-.392-2.3l-.854-3.864h-2.058Zm12.082,0H-83.2l.8-3.416c.168-.728.28-1.456.434-2.282h.07c.154.826.28,1.54.448,2.282L-80.626,22H-78.2l1.932-7.84h-1.9l-.854,3.864c-.14.77-.252,1.512-.392,2.3h-.07c-.168-.784-.308-1.526-.49-2.3l-.98-3.864h-1.82l-.952,3.864c-.2.756-.336,1.512-.49,2.3h-.056c-.14-.784-.238-1.526-.392-2.3l-.854-3.864h-2.058Zm12.082,0h2.352l.8-3.416c.168-.728.28-1.456.434-2.282h.07c.154.826.28,1.54.448,2.282L-68.544,22h2.422l1.932-7.84h-1.9l-.854,3.864c-.14.77-.252,1.512-.392,2.3h-.07c-.168-.784-.308-1.526-.49-2.3l-.98-3.864H-70.7l-.952,3.864c-.2.756-.336,1.512-.49,2.3H-72.2c-.14-.784-.238-1.526-.392-2.3l-.854-3.864H-75.5Zm10.794.2a1.289,1.289,0,0,0,1.288-1.344,1.281,1.281,0,0,0-1.288-1.344,1.278,1.278,0,0,0-1.274,1.344A1.287,1.287,0,0,0-62.678,22.2Zm3.738-.2h2.058V15.784h1.47V14.16h-1.47v-.672c0-.868.336-1.232.952-1.232a2.232,2.232,0,0,1,.826.168l.378-1.526a4.473,4.473,0,0,0-1.484-.266c-1.974,0-2.73,1.26-2.73,2.9v.644l-1.05.084v1.526h1.05Zm4.858,0h2.044V14.16h-2.044Zm1.022-9.1a1.107,1.107,0,0,0,1.2-1.134,1.1,1.1,0,0,0-1.2-1.12,1.093,1.093,0,0,0-1.19,1.12A1.1,1.1,0,0,0-53.06,12.9Zm3.234,9.1h2.058V16.61a2.2,2.2,0,0,1,1.624-.882c.77,0,1.106.42,1.106,1.638V22h2.058V17.114c0-1.974-.728-3.15-2.422-3.15A3.613,3.613,0,0,0-47.95,15.2h-.042l-.154-1.036h-1.68Zm11.844.2A5.067,5.067,0,0,0-36.33,21.9l-.336-1.5a2.291,2.291,0,0,1-.77.168c-.7,0-1.064-.42-1.064-1.316V15.784h1.932V14.16H-38.5V12.046h-1.708l-.238,2.114-1.218.1v1.526h1.106v3.472C-40.558,21.006-39.844,22.2-37.982,22.2Zm6.16,0a4.936,4.936,0,0,0,2.73-.868l-.7-1.26a3.231,3.231,0,0,1-1.764.546,2.06,2.06,0,0,1-2.17-1.96h4.83a3.869,3.869,0,0,0,.1-.952c0-2.156-1.12-3.738-3.276-3.738a3.842,3.842,0,0,0-3.654,4.116A3.806,3.806,0,0,0-31.822,22.2Zm-1.932-4.914a1.764,1.764,0,0,1,1.708-1.722c1.008,0,1.484.672,1.484,1.722Zm9.982,4.914a3.951,3.951,0,0,0,2.576-.952l-.826-1.358a2.435,2.435,0,0,1-1.526.63c-1.12,0-1.946-.952-1.946-2.436s.812-2.436,2.016-2.436a1.784,1.784,0,0,1,1.19.518l.98-1.33a3.427,3.427,0,0,0-2.282-.868,3.911,3.911,0,0,0-4,4.116C-27.594,20.684-25.942,22.2-23.772,22.2Zm4.046-.2h2.058V16.61a2.2,2.2,0,0,1,1.624-.882c.77,0,1.106.42,1.106,1.638V22h2.058V17.114c0-1.974-.728-3.15-2.422-3.15a3.568,3.568,0,0,0-2.464,1.148l.1-1.47V10.828h-2.058Zm10.262,0h2.352l.8-3.416c.168-.728.28-1.456.434-2.282h.07c.154.826.28,1.54.448,2.282L-4.536,22h2.422l1.932-7.84h-1.9l-.854,3.864c-.14.77-.252,1.512-.392,2.3H-3.4c-.168-.784-.308-1.526-.49-2.3l-.98-3.864h-1.82l-.952,3.864c-.2.756-.336,1.512-.49,2.3H-8.19c-.14-.784-.238-1.526-.392-2.3l-.854-3.864h-2.058Zm14.084.2a4.936,4.936,0,0,0,2.73-.868l-.7-1.26a3.231,3.231,0,0,1-1.764.546,2.06,2.06,0,0,1-2.17-1.96h4.83a3.869,3.869,0,0,0,.1-.952c0-2.156-1.12-3.738-3.276-3.738A3.842,3.842,0,0,0,.714,18.08,3.806,3.806,0,0,0,4.62,22.2ZM2.688,17.282A1.764,1.764,0,0,1,4.4,15.56c1.008,0,1.484.672,1.484,1.722ZM12.754,22.2a4.936,4.936,0,0,0,2.73-.868l-.7-1.26a3.231,3.231,0,0,1-1.764.546,2.06,2.06,0,0,1-2.17-1.96h4.83a3.869,3.869,0,0,0,.1-.952c0-2.156-1.12-3.738-3.276-3.738A3.842,3.842,0,0,0,8.848,18.08,3.806,3.806,0,0,0,12.754,22.2Zm-1.932-4.914A1.764,1.764,0,0,1,12.53,15.56c1.008,0,1.484.672,1.484,1.722ZM17.472,22H19.5V20.012l1.106-1.26L22.512,22h2.226L21.8,17.394l2.688-3.234H22.232l-2.674,3.374H19.5V10.828h-2.03Zm9.73.2a1.346,1.346,0,1,0-1.274-1.344A1.289,1.289,0,0,0,27.2,22.2Zm6.5,0a3.825,3.825,0,0,0,3.766-4.116,3.781,3.781,0,1,0-7.532,0A3.825,3.825,0,0,0,33.7,22.2Zm0-1.68c-1.064,0-1.666-.952-1.666-2.436s.6-2.436,1.666-2.436,1.666.966,1.666,2.436S34.762,20.516,33.7,20.516ZM39.186,22h2.058V17.324c.434-1.134,1.176-1.54,1.792-1.54a2.619,2.619,0,0,1,.826.126l.35-1.778a2.218,2.218,0,0,0-.924-.168,2.716,2.716,0,0,0-2.226,1.582H41.02l-.154-1.386h-1.68Zm6.006.2a1.346,1.346,0,1,0-1.274-1.344A1.289,1.289,0,0,0,45.192,22.2ZM48.58,22h2.03V20.012l1.106-1.26L53.62,22h2.226l-2.94-4.606,2.688-3.234H53.34l-2.674,3.374H50.61V10.828H48.58Zm8.47,0h2.058V17.324c.434-1.134,1.176-1.54,1.792-1.54a2.619,2.619,0,0,1,.826.126l.35-1.778a2.218,2.218,0,0,0-.924-.168,2.716,2.716,0,0,0-2.226,1.582h-.042L58.73,14.16H57.05Zm4.774,2.548H63.2l3.472-13.832H65.31ZM67.662,22h6.944V20.264H72.338c-.49,0-1.176.056-1.694.112,1.848-1.932,3.472-3.752,3.472-5.516a3.021,3.021,0,0,0-3.262-3.15,4.172,4.172,0,0,0-3.29,1.582l1.12,1.12a2.729,2.729,0,0,1,1.9-1.078,1.46,1.46,0,0,1,1.554,1.638c0,1.5-1.778,3.262-4.48,5.838Zm11.774.2c2.128,0,3.5-1.862,3.5-5.292,0-3.4-1.372-5.194-3.5-5.194s-3.514,1.778-3.514,5.194S77.308,22.2,79.436,22.2Zm0-1.61c-.9,0-1.568-.868-1.568-3.682s.672-3.584,1.568-3.584S80.99,14.1,80.99,16.9,80.332,20.586,79.436,20.586ZM84.154,22H91.1V20.264H88.83c-.49,0-1.176.056-1.694.112,1.848-1.932,3.472-3.752,3.472-5.516a3.021,3.021,0,0,0-3.262-3.15,4.172,4.172,0,0,0-3.29,1.582l1.12,1.12a2.729,2.729,0,0,1,1.9-1.078,1.46,1.46,0,0,1,1.554,1.638c0,1.5-1.778,3.262-4.48,5.838Zm8.792,0h6.23V20.334H97.23V11.906H95.7a6.72,6.72,0,0,1-2.408.868v1.274h1.876v6.286H92.946Z" transform="translate(99.666 16.66)" fill="#12265b"/>
</svg>
