<svg xmlns="http://www.w3.org/2000/svg" xmlns:xlink="http://www.w3.org/1999/xlink" width="500" height="500" viewBox="0 0 500 500">
  <defs>
    <clipPath id="clip-_403">
      <rect width="500" height="500"/>
    </clipPath>
  </defs>
  <g id="_403" data-name="403" clip-path="url(#clip-_403)">
    <g id="그룹_21" data-name="그룹 21">
      <circle id="타원_12" data-name="타원 12" cx="2.978" cy="2.978" r="2.978" transform="translate(407.747 133.738)" fill="none" stroke="#4dd0e1" stroke-miterlimit="10" stroke-width="1.034"/>
      <path id="패스_104" data-name="패스 104" d="M399.93,105.818a.744.744,0,1,1-.745-.744A.746.746,0,0,1,399.93,105.818Z" fill="none" stroke="#4dd0e1" stroke-miterlimit="10" stroke-width="1.034"/>
      <circle id="타원_13" data-name="타원 13" cx="2.42" cy="2.42" r="2.42" transform="translate(420.032 190.694)" fill="none" stroke="#4dd0e1" stroke-miterlimit="10" stroke-width="1.034"/>
      <circle id="타원_14" data-name="타원 14" cx="2.978" cy="2.978" r="2.978" transform="translate(214.542 120.709)" fill="none" stroke="#4dd0e1" stroke-miterlimit="10" stroke-width="1.034"/>
      <circle id="타원_15" data-name="타원 15" cx="2.234" cy="2.234" r="2.234" transform="translate(182.156 117.73)" fill="none" stroke="#4dd0e1" stroke-miterlimit="10" stroke-width="1.034"/>
      <circle id="타원_16" data-name="타원 16" cx="2.978" cy="2.978" r="2.978" transform="translate(201.886 89.066)" fill="none" stroke="#4dd0e1" stroke-miterlimit="10" stroke-width="1.034"/>
      <path id="패스_105" data-name="패스 105" d="M148.28,151.979a1.49,1.49,0,1,1-1.489-1.489A1.489,1.489,0,0,1,148.28,151.979Z" fill="none" stroke="#4dd0e1" stroke-miterlimit="10" stroke-width="1.034"/>
      <circle id="타원_17" data-name="타원 17" cx="1.675" cy="1.675" r="1.675" transform="translate(51.863 208.563)" fill="none" stroke="#4dd0e1" stroke-miterlimit="10" stroke-width="1.034"/>
      <path id="패스_106" data-name="패스 106" d="M65.637,164.822a5.026,5.026,0,1,1-5.025-5.026A5.025,5.025,0,0,1,65.637,164.822Z" fill="none" stroke="#4dd0e1" stroke-miterlimit="10" stroke-width="1.034"/>
      <path id="패스_107" data-name="패스 107" d="M42.185,243a2.792,2.792,0,1,1-2.792-2.792A2.792,2.792,0,0,1,42.185,243Z" fill="none" stroke="#4dd0e1" stroke-miterlimit="10" stroke-width="1.034"/>
      <circle id="타원_18" data-name="타원 18" cx="0.558" cy="0.558" r="0.558" transform="translate(65.265 277.804)" fill="none" stroke="#4dd0e1" stroke-miterlimit="10" stroke-width="1.034"/>
      <circle id="타원_19" data-name="타원 19" cx="4.095" cy="4.095" r="4.095" transform="translate(51.119 336.621)" fill="none" stroke="#4dd0e1" stroke-miterlimit="10" stroke-width="1.034"/>
      <path id="패스_108" data-name="패스 108" d="M109.192,380.362a2.792,2.792,0,1,1-2.792-2.792A2.792,2.792,0,0,1,109.192,380.362Z" fill="none" stroke="#4dd0e1" stroke-miterlimit="10" stroke-width="1.034"/>
      <path id="패스_109" data-name="패스 109" d="M109.192,70.639a2.792,2.792,0,1,1-2.792-2.792A2.792,2.792,0,0,1,109.192,70.639Z" fill="none" stroke="#4dd0e1" stroke-miterlimit="10" stroke-width="1.034"/>
      <circle id="타원_20" data-name="타원 20" cx="1.675" cy="1.675" r="1.675" transform="translate(348.557 29.504)" fill="none" stroke="#4dd0e1" stroke-miterlimit="10" stroke-width="1.034"/>
      <circle id="타원_21" data-name="타원 21" cx="4.3" cy="4.3" r="4.3" transform="translate(448.924 92.374)" fill="none" stroke="#4dd0e1" stroke-miterlimit="10" stroke-width="1.034"/>
      <path id="패스_110" data-name="패스 110" d="M470.424,245.558a1.075,1.075,0,1,1-1.075-1.075A1.075,1.075,0,0,1,470.424,245.558Z" fill="none" stroke="#4dd0e1" stroke-miterlimit="10" stroke-width="1.034"/>
      <path id="패스_111" data-name="패스 111" d="M419.363,313.55a3.494,3.494,0,1,1-3.494-3.494A3.495,3.495,0,0,1,419.363,313.55Z" fill="none" stroke="#4dd0e1" stroke-miterlimit="10" stroke-width="1.034"/>
    </g>
    <g id="그룹_48" data-name="그룹 48">
      <g id="OBJECTS" transform="translate(-44 1)">
        <g id="그룹_24" data-name="그룹 24" transform="translate(58 -16)">
          <g id="그룹_1" data-name="그룹 1">
            <path id="패스_1" data-name="패스 1" d="M438.467,263.046c2.356-12.275-1.322-31.473-14.23-55.71,8.247,9.314,17.691,13.843,22.946,10.327,6.372-4.263,4.171-18.727-4.914-32.308s-21.617-21.134-27.988-16.872c-4.4,2.946-4.71,10.764-1.482,19.795a318.741,318.741,0,0,0-22.492-29.649c-17.9-21.084-48.755-43.052-69.531-52.247-19.825-8.775-39.291-8.485-51.971-1.165a11.131,11.131,0,0,0-16.765,14.517c-13.31,15.211-22.457,34.577-37.468,48.723-18.89,17.8-46.565,21.423-71.981,26.69s-53.209,15.42-63.932,39.058c-7.33,16.157-4.776,35.122.758,51.977,14.07,42.856,47.2,79.057,88.648,96.858,22.351,9.6,50.033,13.356,69.685-.978.829-.605,1.626-1.233,2.4-1.878a16.141,16.141,0,1,0,11.343-13.289c12.057-19.423,15-45.944,27.32-66.218,3.93-6.468,9.479-12.7,16.913-14.128,4.521-.866,9.18.167,13.6,1.439,15.535,4.465,30.061,11.884,45.4,16.975s32.27,7.764,47.556,2.51C421.21,300.97,434.7,282.693,438.467,263.046Z" fill="#d4c9ff"/>
            <path id="패스_2" data-name="패스 2" d="M82.945,304.979C74.925,292.031,63,284.894,56.314,289.036s-5.608,18,2.411,30.945,19.943,20.085,26.631,15.943S90.965,317.927,82.945,304.979Z" fill="#d4c9ff"/>
            <path id="패스_3" data-name="패스 3" d="M92.169,340.756a4.24,4.24,0,1,0,2.618,5.394A4.241,4.241,0,0,0,92.169,340.756Z" fill="#d4c9ff"/>
            <path id="패스_4" data-name="패스 4" d="M407.659,160.344a4.183,4.183,0,1,0-2.583-5.322A4.182,4.182,0,0,0,407.659,160.344Z" fill="#d4c9ff"/>
            <circle id="타원_1" data-name="타원 1" cx="10.158" cy="10.158" r="10.158" transform="translate(427.448 146.285) rotate(-9.605)" fill="#d4c9ff"/>
            <path id="패스_5" data-name="패스 5" d="M455.848,186.738a4.183,4.183,0,1,0-2.583-5.322A4.183,4.183,0,0,0,455.848,186.738Z" fill="#d4c9ff"/>
            <path id="패스_6" data-name="패스 6" d="M161.836,184.475A11.95,11.95,0,1,0,149.8,172.608,11.95,11.95,0,0,0,161.836,184.475Z" fill="#d4c9ff"/>
            <path id="패스_7" data-name="패스 7" d="M313.225,112a6.924,6.924,0,1,0-6.971-6.876A6.925,6.925,0,0,0,313.225,112Z" fill="#d4c9ff"/>
            <path id="패스_8" data-name="패스 8" d="M329.639,95.944a4.391,4.391,0,1,0-4.421-4.361A4.392,4.392,0,0,0,329.639,95.944Z" fill="#d4c9ff"/>
            <path id="패스_9" data-name="패스 9" d="M341.141,125.732a13.588,13.588,0,1,0-13.681-13.494A13.589,13.589,0,0,0,341.141,125.732Z" fill="#d4c9ff"/>
            <path id="패스_10" data-name="패스 10" d="M133.793,188.069a4.56,4.56,0,1,0-4.591-4.529A4.562,4.562,0,0,0,133.793,188.069Z" fill="#d4c9ff"/>
          </g>
          <g id="그룹_20" data-name="그룹 20" transform="translate(-41 11)">
            <ellipse id="타원_2" data-name="타원 2" cx="149.471" cy="15.044" rx="149.471" ry="15.044" transform="matrix(0.962, -0.274, 0.274, 0.962, 104.747, 435.35)" fill="#d4c9ff"/>
            <g id="그룹_11" data-name="그룹 11">
              <path id="패스_71" data-name="패스 71" d="M334.872,159.131S168.964,205.84,145.65,216.122c-10.922,4.817-11.645,10.7-11.458,18.028l6.769,184.787c.187,7.326,4.268,17.864,15.694,16.309L340.34,374.42c6.171-1.794,11.022-9.187,10.836-16.513l-.421-193.239C350.569,157.342,341.042,157.337,334.872,159.131Z" fill="#743b27"/>
              <path id="패스_72" data-name="패스 72" d="M341.63,159.131,145.65,216.122c-6.171,1.794-11.022,9.188-10.836,16.514l4.795,188.76c.186,7.325,5.339,11.81,11.509,10.015L347.1,374.42c6.17-1.794,11.021-9.187,10.835-16.513l-4.794-188.76C352.953,161.821,347.8,157.337,341.63,159.131Z" fill="#5a2d1a"/>
              <path id="패스_73" data-name="패스 73" d="M333.559,174.2l-179.2,52.111c-5.642,1.641-10.083,8.213-9.918,14.679L148.676,407.6c.164,6.467,4.871,10.379,10.513,8.738l179.2-52.111c5.642-1.64,10.082-8.212,9.918-14.679l-4.232-166.614C343.908,176.472,339.2,172.56,333.559,174.2Z" fill="none" stroke="#f8b450" stroke-miterlimit="10" stroke-width="0.928" stroke-dasharray="7.589"/>
              <path id="패스_74" data-name="패스 74" d="M302.9,253.579c-4.1,1.193-7.331,6.111-7.208,10.983l.943,37.116c.124,4.873,3.552,7.856,7.656,6.662l52-15.12L354.9,238.458Z" fill="#985c3a" opacity="0.43" style="mix-blend-mode: multiply;isolation: isolate"/>
              <path id="패스_75" data-name="패스 75" d="M363.929,233.5l-57.677,16.772c-4.1,1.194-7.331,6.112-7.207,10.984l.942,37.116c.124,4.873,3.552,7.856,7.656,6.662l57.677-16.772c4.1-1.194,7.331-6.112,7.207-10.985l-.942-37.115C371.461,235.292,368.033,232.309,363.929,233.5Z" fill="#a87442"/>
              <path id="패스_76" data-name="패스 76" d="M360.684,239.855,309.77,254.661a9.525,9.525,0,0,0-6.38,9l.758,29.838c.1,3.918,3.117,6.239,6.74,5.186L361.8,283.879a9.524,9.524,0,0,0,6.38-9l-.758-29.838C367.325,241.123,364.307,238.8,360.684,239.855Z" fill="none" stroke="#f8b450" stroke-miterlimit="10" stroke-width="0.928" stroke-dasharray="7.589"/>
              <path id="패스_77" data-name="패스 77" d="M326.814,271.879c.141,5.528-3.52,11.107-8.176,12.461s-8.545-2.03-8.685-7.558,3.52-11.107,8.176-12.461S326.674,266.351,326.814,271.879Z" fill="#fdcc53"/>
              <path id="패스_78" data-name="패스 78" d="M140.1,219.539a18.364,18.364,0,0,0-5.291,13.1l4.795,188.759c.186,7.326,5.339,11.811,11.509,10.016L347.1,374.42c6.17-1.794,11.021-9.187,10.835-16.514l-1.1-43.338C233.506,420.611,145.3,347.053,140.1,219.539Z" fill="#985c3a" opacity="0.24" style="mix-blend-mode: multiply;isolation: isolate"/>
            </g>
            <g id="그룹_18" data-name="그룹 18">
              <path id="패스_86" data-name="패스 86" d="M351.641,163.179,155.661,220.17c-6.171,1.794-11.022,9.188-10.835,16.514l4.794,188.759c.186,7.326,5.111,11.674,16.538,10.119l190.951-57.094c6.171-1.794,11.022-9.188,10.836-16.514l-.421-193.239C367.338,161.389,357.811,161.384,351.641,163.179Z" fill="#743b27"/>
              <path id="패스_87" data-name="패스 87" d="M358.4,163.179,162.418,220.17c-6.17,1.794-11.021,9.188-10.835,16.514l4.8,188.759c.186,7.326,5.339,11.81,11.509,10.016l195.98-56.991c6.17-1.794,11.021-9.188,10.835-16.514L369.908,173.2C369.722,165.869,364.569,161.384,358.4,163.179Z" fill="#a87442"/>
              <path id="패스_88" data-name="패스 88" d="M371.222,224.947,369.908,173.2c-.186-7.326-5.339-11.811-11.509-10.016L208.251,206.841C232.412,251.712,288.623,256.219,371.222,224.947Z" fill="#b67c48"/>
              <path id="패스_89" data-name="패스 89" d="M350.328,178.248,182.983,227.109c-5.641,1.64-10.082,8.213-9.918,14.679L177.3,408.4c.165,6.467,4.871,10.379,10.513,8.738l167.345-48.861c5.642-1.64,10.082-8.213,9.918-14.679l-4.232-166.614C360.677,180.52,355.97,176.607,350.328,178.248Z" fill="none" stroke="#f8b450" stroke-miterlimit="10" stroke-width="0.928" stroke-dasharray="7.589"/>
              <path id="패스_90" data-name="패스 90" d="M319.672,253.147c-4.1,1.194-7.331,6.112-7.208,10.984l.943,41.6c.124,4.873,3.551,7.855,7.656,6.662l52-15.121-1.391-59.24Z" fill="#985c3a" opacity="0.43" style="mix-blend-mode: multiply;isolation: isolate"/>
              <path id="패스_91" data-name="패스 91" d="M380.7,237.551l-57.677,16.772c-4.1,1.194-7.331,6.111-7.208,10.984l.943,37.116c.124,4.873,3.552,7.855,7.656,6.662l57.677-16.773c4.1-1.193,7.331-6.111,7.207-10.984l-.942-37.116C388.23,239.34,384.8,236.357,380.7,237.551Z" fill="#a87442"/>
              <path id="패스_92" data-name="패스 92" d="M377.453,243.9l-50.914,14.806a9.522,9.522,0,0,0-6.38,9l.758,29.838c.1,3.918,3.117,6.239,6.74,5.186l50.914-14.806a9.525,9.525,0,0,0,6.38-9l-.758-29.838C384.093,245.171,381.076,242.849,377.453,243.9Z" fill="none" stroke="#f8b450" stroke-miterlimit="10" stroke-width="0.928" stroke-dasharray="7.589"/>
              <path id="패스_93" data-name="패스 93" d="M343.583,275.927c.14,5.528-3.52,11.107-8.176,12.461s-8.545-2.03-8.685-7.558,3.52-11.107,8.176-12.461S343.443,270.4,343.583,275.927Z" fill="#c6a188"/>
              <path id="패스_94" data-name="패스 94" d="M156.874,223.587a18.363,18.363,0,0,0-5.291,13.1l4.8,188.759c.186,7.326,5.339,11.81,11.509,10.016l195.98-56.991c6.17-1.794,11.021-9.188,10.835-16.514l-1.1-43.339C250.275,424.658,162.074,351.1,156.874,223.587Z" fill="#985c3a" opacity="0.24" style="mix-blend-mode: multiply;isolation: isolate"/>
            </g>
            <path id="패스_96" data-name="패스 96" d="M144.458,216.568c-10.127,5.106,3.225,7.933,16.925,3.964,0,19.334,5.61,209.092,5.61,214.982-11.652,2.689-27.529,5.122-27.529-12.932,0-30.284-5.077-174.406-5.427-187.349S137.462,219.418,144.458,216.568Z" fill="#a87442"/>
            <path id="패스_97" data-name="패스 97" d="M144.458,216.568c-10.127,5.106,3.225,7.933,16.925,3.964,0,19.334,5.61,209.092,5.61,214.982-11.652,2.689-27.529,5.122-27.529-12.932,0-30.284-5.077-174.406-5.427-187.349S137.462,219.418,144.458,216.568Z" fill="#723b27" opacity="0.47" style="mix-blend-mode: multiply;isolation: isolate"/>
          </g>
        </g>
      </g>
    </g>
    <g id="그룹_49" data-name="그룹 49" transform="translate(-2 10)">
      <path id="패스_127" data-name="패스 127" d="M4,0H248a4,4,0,0,1,4,4v7a4,4,0,0,1-4,4H4a4,4,0,0,1-4-4V4A4,4,0,0,1,4,0Z" transform="translate(244 460)" fill="#d4c9ff"/>
      <path id="패스_145" data-name="패스 145" d="M-109.466.168v-8.4h7.2A2.2,2.2,0,0,0-100-10.64a2.284,2.284,0,0,0-2.268-2.492h-7.2V-16.66c0-.672.168-.812.812-.812h7.112a2.2,2.2,0,0,0,2.268-2.408,2.284,2.284,0,0,0-2.268-2.492h-9.324c-3.36,0-4.368,1.2-4.368,4.424V.168Zm11.928-7.224c0,6.02,4.4,7.756,8.12,7.756s8.12-1.736,8.12-7.756V-9.632c0-6.02-4.4-7.756-8.12-7.756-3.808,0-8.12,1.736-8.12,7.756Zm10.612.252a2.474,2.474,0,0,1-2.492,2.772A2.474,2.474,0,0,1-91.91-6.8v-3.08a2.474,2.474,0,0,1,2.492-2.772,2.474,2.474,0,0,1,2.492,2.772ZM-73.038.168V-9.688a2.455,2.455,0,0,1,2.548-2.38c.392-.028.9,0,1.288,0a2.422,2.422,0,0,0,2.436-2.156,2.592,2.592,0,0,0-1.484-2.884,3.617,3.617,0,0,0-1.316-.224,5.458,5.458,0,0,0-3.724,1.568,2.781,2.781,0,0,0-2.6-1.568,2.678,2.678,0,0,0-2.828,2.8V.168Zm12.236,0,.28-1.82A5.737,5.737,0,0,0-55.79.644c3.7,0,6.832-1.82,6.832-7.728V-9.6c0-5.908-3.136-7.728-6.832-7.728a5.781,5.781,0,0,0-3.78,1.316v-4.676a2.7,2.7,0,0,0-2.856-2.8,2.678,2.678,0,0,0-2.828,2.8V.168Zm6.076-6.86a2.375,2.375,0,0,1-2.408,2.548A2.4,2.4,0,0,1-59.57-6.692v-3.444a2.384,2.384,0,0,1,2.436-2.408A2.375,2.375,0,0,1-54.726-10Zm8.54,6.86h5.768v-14.5a2.635,2.635,0,0,0-2.884-2.8,2.635,2.635,0,0,0-2.884,2.8Zm-.028-21.084c0,1.848,1.344,2.576,2.912,2.576s2.912-.728,2.912-2.576-1.344-2.576-2.912-2.576S-46.214-22.764-46.214-20.916ZM-21.462.168v-20.86a2.678,2.678,0,0,0-2.828-2.8,2.7,2.7,0,0,0-2.856,2.8v4.676a5.781,5.781,0,0,0-3.78-1.316c-3.7,0-6.832,1.82-6.832,7.728v2.52c0,5.908,3.136,7.728,6.832,7.728a5.683,5.683,0,0,0,4.7-2.3l.308,1.82ZM-31.99-10a2.375,2.375,0,0,1,2.408-2.548,2.4,2.4,0,0,1,2.436,2.408v3.584a2.4,2.4,0,0,1-2.436,2.408A2.375,2.375,0,0,1-31.99-6.692ZM-2.534.168v-20.86a2.678,2.678,0,0,0-2.828-2.8,2.7,2.7,0,0,0-2.856,2.8v4.676A5.781,5.781,0,0,0-12-17.332c-3.7,0-6.832,1.82-6.832,7.728v2.52C-18.83-1.176-15.694.644-12,.644a5.683,5.683,0,0,0,4.7-2.3l.308,1.82ZM-13.062-10a2.375,2.375,0,0,1,2.408-2.548,2.4,2.4,0,0,1,2.436,2.408v3.584a2.4,2.4,0,0,1-2.436,2.408,2.375,2.375,0,0,1-2.408-2.548ZM8.778.644a10.919,10.919,0,0,0,4.928-1.12c1.344-.784,2.016-1.96,1.428-3.332a2.012,2.012,0,0,0-2.212-1.064,6.571,6.571,0,0,0-1.316.42,7.426,7.426,0,0,1-2.716.364C7.546-4.088,5.7-4.732,5.7-6.636v-.028H15.722a12.091,12.091,0,0,0,.14-1.736c0-7.42-3.836-8.932-7.728-8.932-3.584,0-7.98,1.792-7.98,7.756v2.464C.154-1.26,4.718.644,8.778.644ZM8.162-12.8a2.089,2.089,0,0,1,2.268,2.464H5.7A2.269,2.269,0,0,1,8.162-12.8ZM24.066.168V-10a2.274,2.274,0,0,1,2.24-2.548A2.256,2.256,0,0,1,28.518-10V.168h5.768V-9.66c0-5.908-2.828-7.672-6.384-7.672a6.085,6.085,0,0,0-4.088,1.54,2.8,2.8,0,0,0-2.6-1.54,2.678,2.678,0,0,0-2.828,2.8V.168ZM50.526,5.1V-.5A6.7,6.7,0,0,0,54.306.644c3.7,0,6.832-1.82,6.832-7.728V-9.6c0-5.908-3.136-7.728-6.832-7.728a6.1,6.1,0,0,0-4.032,1.54,2.8,2.8,0,0,0-2.6-1.54,2.678,2.678,0,0,0-2.828,2.8V5.1ZM55.37-6.692a2.375,2.375,0,0,1-2.408,2.548,2.384,2.384,0,0,1-2.436-2.408V-10a2.4,2.4,0,0,1,2.436-2.548A2.375,2.375,0,0,1,55.37-10Zm23.3,6.86V-9.856c0-6.048-3.584-7.476-7.644-7.476a10.314,10.314,0,0,0-5.74,1.512,2.381,2.381,0,0,0-.9,3,2.278,2.278,0,0,0,3,1.008,12.3,12.3,0,0,1,1.316-.56,6.41,6.41,0,0,1,1.876-.308c1.344,0,2.52.448,2.576,2.1H70.266c-3.64,0-6.86,1.344-6.86,5.572,0,4.4,3.416,5.656,5.74,5.656h.616a6.187,6.187,0,0,0,4.256-1.652L74.242.168ZM73.15-5.46c0,1.176-1.2,1.792-2.24,1.792h-.392c-.98,0-1.568-.448-1.568-1.372,0-.9.588-1.428,1.652-1.428H73.15ZM97.342-1.932v-12.6a2.657,2.657,0,0,0-2.8-2.8,2.727,2.727,0,0,0-2.6,1.568,5.872,5.872,0,0,0-4-1.568c-3.7,0-6.776,1.82-6.776,7.728v1.232c0,5.852,3.052,7.616,6.748,7.616A5.488,5.488,0,0,0,91.938-2.3v.5c0,1.26-1.036,2.52-3.416,2.52A19.133,19.133,0,0,1,85.778.476,2.079,2.079,0,0,0,83.566,1.82a2.312,2.312,0,0,0,.9,2.688,9.61,9.61,0,0,0,4.06.756C96.054,4.956,97.342,1.148,97.342-1.932ZM86.926-10a2.355,2.355,0,0,1,2.38-2.548,2.378,2.378,0,0,1,2.408,2.408v2.408A2.378,2.378,0,0,1,89.306-5.32a2.355,2.355,0,0,1-2.38-2.548ZM108.542.644a10.919,10.919,0,0,0,4.928-1.12c1.344-.784,2.016-1.96,1.428-3.332a2.012,2.012,0,0,0-2.212-1.064,6.571,6.571,0,0,0-1.316.42,7.426,7.426,0,0,1-2.716.364c-1.344,0-3.192-.644-3.192-2.548v-.028h10.024a12.092,12.092,0,0,0,.14-1.736c0-7.42-3.836-8.932-7.728-8.932-3.584,0-7.98,1.792-7.98,7.756v2.464C99.918-1.26,104.482.644,108.542.644Zm-.616-13.44a2.089,2.089,0,0,1,2.268,2.464h-4.732A2.269,2.269,0,0,1,107.926-12.8Z" transform="translate(370 466)" fill="#555"/>
      <path id="패스_146" data-name="패스 146" d="M-36.946-15.392c-1.4,0-1.82-.312-1.508-1.456l5.772-19.188a4.656,4.656,0,0,0-4.264-5.772c-2.652-.312-4.784,1.092-5.668,4.264l-6.6,21.788c-1.508,5.356.988,8.892,7.28,8.892h10.66V.312h9.62V-6.864h4.68v-8.528h-4.68V-27.508a4.49,4.49,0,0,0-4.784-4.68,4.531,4.531,0,0,0-4.836,4.68v12.116ZM.7,1.3c8.216,0,14.56-4.732,14.56-13.936V-27.872c0-9.152-6.344-13.936-14.56-13.936s-14.56,4.784-14.56,13.936v15.236C-13.858-3.432-7.514,1.3.7,1.3Zm0-8.84c-1.82,0-4.108-1.04-4.108-4.368V-28.6A4.011,4.011,0,0,1,.7-32.968,4.011,4.011,0,0,1,4.81-28.6v16.692C4.81-8.58,2.522-7.54.7-7.54Zm47.216-5.252a11.213,11.213,0,0,0-9.672-11.336l7.28-7.228a5.9,5.9,0,0,0-4.212-10.088H25.142a4.156,4.156,0,0,0-4.264,4.368,4.06,4.06,0,0,0,4.264,4.316H35.386l-8.008,7.176a4.7,4.7,0,0,0-1.716,5.044,3.709,3.709,0,0,0,3.328,2.756h2.5c3.432,0,6.24,1.664,6.24,4.68a4.666,4.666,0,0,1-4.68,4.836,7.223,7.223,0,0,1-4-.832,8.187,8.187,0,0,0-2.34-1.4,5.536,5.536,0,0,0-5.1.884,4.767,4.767,0,0,0-.572,6.292C23.478.052,28.626,1.2,33.254,1.2,41.21,1.2,47.918-3.952,47.918-12.792Z" transform="translate(434 425)" fill="#555"/>
    </g>
    <g id="OBJECTS-2" data-name="OBJECTS">
      <g id="그룹_24-2" data-name="그룹 24">
        <g id="그룹_20-2" data-name="그룹 20" transform="translate(-22.966 -7)">
          <path id="패스_99" data-name="패스 99" d="M279.35,289.579c-11.153-1.194-18.206-4.076-19.566-8.833l-3.8-.413a19.363,19.363,0,0,0-1.418,9.578l57.214,6.206.369-3.349C302.952,291.917,288.325,290.541,279.35,289.579Z" fill="#fabc00"/>
          <g id="그룹_73" data-name="그룹 73">
            <g id="그룹_72" data-name="그룹 72">
              <g id="그룹_19" data-name="그룹 19">
                <ellipse id="타원_11" data-name="타원 11" cx="14.157" cy="10.047" rx="14.157" ry="10.047" transform="translate(252.072 297.987) rotate(-78.737)" fill="#633220"/>
                <path id="패스_95" data-name="패스 95" d="M264.815,283.489l-8.94,50.18,25.6-8.57Z" fill="#633220"/>
              </g>
              <path id="패스_98" data-name="패스 98" d="M311.775,296.117l-57.214-6.206a19.363,19.363,0,0,1,1.418-9.578l56.856,6.175Z" fill="#ffcd00"/>
              <path id="패스_100" data-name="패스 100" d="M315.964,292.147c-.547,5.054-3.851,8.841-7.379,8.459s-5.945-4.789-5.4-9.843,3.852-8.841,7.38-8.459S316.512,287.093,315.964,292.147Z" fill="#f59f00"/>
              <path id="패스_101" data-name="패스 101" d="M338.1,317.362c-.878,0-1.762-.031-2.657-.1-15.89-1.156-28.074-12.351-27.158-24.956s14.6-21.908,30.483-20.765S366.842,283.9,365.927,296.5h0C365.061,308.4,352.832,317.362,338.1,317.362Zm-1.972-36.245c-9.579,0-17.711,5.178-18.2,11.894-.521,7.164,7.821,13.856,18.216,14.612s19.618-4.658,20.139-11.823-7.822-13.857-18.216-14.613Q337.09,281.117,336.129,281.117Z" fill="#ffcd00"/>
            </g>
            <path id="패스_102" data-name="패스 102" d="M336.145,307.623c-10.395-.756-18.737-7.448-18.216-14.612a9.2,9.2,0,0,1,1.121-3.726,20.128,20.128,0,0,1-4.8-9.485,19.676,19.676,0,0,0-5.964,12.51c-.916,12.605,11.268,23.8,27.158,24.956.895.065,1.779.1,2.657.1,14.731,0,26.96-8.965,27.826-20.861a18.624,18.624,0,0,0,.028-2,32.8,32.8,0,0,1-10.181,3.641C353.658,304.1,345.362,308.3,336.145,307.623Z" fill="#fabc00"/>
            <path id="패스_103" data-name="패스 103" d="M337.846,273.512c7.7.269,23.293,5.465,25.981,19.262" fill="none" stroke="#fffdf4" stroke-miterlimit="10" stroke-width="2.148"/>
          </g>
        </g>
      </g>
    </g>
    <g id="그룹_14" data-name="그룹 14" transform="translate(-1253.76 -111.986) rotate(-1)">
      <g id="그룹_9" data-name="그룹 9" transform="translate(1424.716 369.893)">
        <path id="패스_11" data-name="패스 11" d="M8-124.766c4.99-.052,8.895-.16,12.17,1.58a11.742,11.742,0,0,1,2.4,1.7,11.743,11.743,0,0,1-.124,17.265,12.6,12.6,0,0,1-2.743,1.8,16.9,16.9,0,0,1-7.568,1.356v9.6H1.9v-33.266Zm4.135,14.458c1.662-.02,2.5-.174,3.042-.63a2.916,2.916,0,0,0,.017-3.948c-.569-.454-1.415-.6-3.059-.609Z" transform="translate(-1.9 124.788)" fill="#f8b450" opacity="0.999"/>
        <path id="패스_10-2" data-name="패스 10" d="M17.2-100.162h2.985a6,6,0,0,0,4.33-1.387,4.973,4.973,0,0,0,1.429-3.741,4.713,4.713,0,0,0-1.429-3.636,5.979,5.979,0,0,0-4.2-1.324H17.2ZM11.9-114.58h8.869a11,11,0,0,1,7.671,2.606,8.609,8.609,0,0,1,2.879,6.684,8.59,8.59,0,0,1-2.963,6.873A11.052,11.052,0,0,1,20.9-95.874H17.2v9.626H11.9Z" transform="translate(-9.427 117.104)" fill="#b67c48" opacity="0.999"/>
      </g>
      <path id="패스_11-2" data-name="패스 11" d="M8-124.766c4.99-.052,8.895-.16,12.17,1.58a11.742,11.742,0,0,1,2.4,1.7,11.743,11.743,0,0,1-.124,17.265,12.6,12.6,0,0,1-2.743,1.8,16.9,16.9,0,0,1-7.568,1.356v9.6H1.9v-33.266Zm4.135,14.458c1.662-.02,2.5-.174,3.042-.63a2.916,2.916,0,0,0,.017-3.948c-.569-.454-1.415-.6-3.059-.609Z" transform="translate(1405.1 501.793)" fill="#f8b450" opacity="0.999"/>
      <path id="패스_10-3" data-name="패스 10" d="M17.2-100.162h2.985a6,6,0,0,0,4.33-1.387,4.973,4.973,0,0,0,1.429-3.741,4.713,4.713,0,0,0-1.429-3.636,5.979,5.979,0,0,0-4.2-1.324H17.2ZM11.9-114.58h8.869a11,11,0,0,1,7.671,2.606,8.609,8.609,0,0,1,2.879,6.684,8.59,8.59,0,0,1-2.963,6.873A11.052,11.052,0,0,1,20.9-95.874H17.2v9.626H11.9Z" transform="translate(1397.573 494.109)" fill="#b67c48" opacity="0.999"/>
    </g>
  </g>
</svg>
