<svg xmlns="http://www.w3.org/2000/svg" xmlns:xlink="http://www.w3.org/1999/xlink" width="500" height="500" viewBox="0 0 500 500">
  <defs>
    <linearGradient id="linear-gradient" x1="0.989" y1="2.225" x2="2.367" y2="2.225" gradientUnits="objectBoundingBox">
      <stop offset="0" stop-color="#057864"/>
      <stop offset="0.146" stop-color="#05847d"/>
      <stop offset="0.399" stop-color="#0796a2"/>
      <stop offset="0.634" stop-color="#08a3bd"/>
      <stop offset="0.842" stop-color="#08abce"/>
      <stop offset="1" stop-color="#09aed4"/>
    </linearGradient>
    <linearGradient id="linear-gradient-2" x1="1.004" y1="2.208" x2="2.385" y2="2.208" gradientUnits="objectBoundingBox">
      <stop offset="0" stop-color="#09e0bb"/>
      <stop offset="0.182" stop-color="#09dbcd"/>
      <stop offset="0.501" stop-color="#0ad5e8"/>
      <stop offset="0.784" stop-color="#0ad2f9"/>
      <stop offset="1" stop-color="#0bd1ff"/>
    </linearGradient>
    <linearGradient id="linear-gradient-3" x1="1.756" y1="1.831" x2="0.505" y2="0.086" xlink:href="#linear-gradient"/>
    <linearGradient id="linear-gradient-4" x1="1.743" y1="1.835" x2="0.493" y2="0.09" gradientUnits="objectBoundingBox">
      <stop offset="0" stop-color="#057864"/>
      <stop offset="0.052" stop-color="#05847e"/>
      <stop offset="0.12" stop-color="#069198"/>
      <stop offset="0.198" stop-color="#079bae"/>
      <stop offset="0.289" stop-color="#08a4bf"/>
      <stop offset="0.402" stop-color="#08a9cb"/>
      <stop offset="0.56" stop-color="#08add2"/>
      <stop offset="1" stop-color="#09aed4"/>
    </linearGradient>
    <clipPath id="clip-path">
      <rect id="사각형_25" data-name="사각형 25" width="188.524" height="119.438" rx="6.283" transform="matrix(0.593, 0.805, -0.805, 0.593, 96.147, 0)" fill="none"/>
    </clipPath>
    <linearGradient id="linear-gradient-5" x1="0.3" y1="0.418" x2="1.261" y2="0.418" xlink:href="#linear-gradient-4"/>
    <linearGradient id="linear-gradient-6" x1="1.243" y1="2.376" x2="2.133" y2="2.376" xlink:href="#linear-gradient-4"/>
    <linearGradient id="linear-gradient-7" x1="-1.148" y1="0.274" x2="0.049" y2="0.274" xlink:href="#linear-gradient-4"/>
    <linearGradient id="linear-gradient-8" x1="1.847" y1="2.684" x2="2.783" y2="2.684" gradientUnits="objectBoundingBox">
      <stop offset="0" stop-color="#ffba6a"/>
      <stop offset="0.005" stop-color="#feb969"/>
      <stop offset="0.117" stop-color="#eda961"/>
      <stop offset="0.257" stop-color="#e19e5b"/>
      <stop offset="0.454" stop-color="#da9857"/>
      <stop offset="1" stop-color="#d99757"/>
    </linearGradient>
    <linearGradient id="linear-gradient-9" x1="1.912" y1="2.758" x2="2.846" y2="2.758" gradientUnits="objectBoundingBox">
      <stop offset="0" stop-color="#d99757"/>
      <stop offset="0.546" stop-color="#da9857"/>
      <stop offset="0.743" stop-color="#e19e5b"/>
      <stop offset="0.883" stop-color="#eda961"/>
      <stop offset="0.995" stop-color="#feb969"/>
      <stop offset="1" stop-color="#ffba6a"/>
    </linearGradient>
    <linearGradient id="linear-gradient-10" x1="2.254" y1="3.185" x2="3.435" y2="3.185" gradientUnits="objectBoundingBox">
      <stop offset="0" stop-color="#9f7442"/>
      <stop offset="0.058" stop-color="#92693c"/>
      <stop offset="0.164" stop-color="#815c35"/>
      <stop offset="0.297" stop-color="#75522f"/>
      <stop offset="0.483" stop-color="#6e4d2c"/>
      <stop offset="1" stop-color="#6d4c2c"/>
    </linearGradient>
    <clipPath id="clip-_404">
      <rect width="500" height="500"/>
    </clipPath>
  </defs>
  <g id="_404" data-name="404" clip-path="url(#clip-_404)">
    <g id="그룹_21" data-name="그룹 21">
      <circle id="타원_12" data-name="타원 12" cx="2.978" cy="2.978" r="2.978" transform="translate(407.747 133.738)" fill="none" stroke="#4dd0e1" stroke-miterlimit="10" stroke-width="1.034"/>
      <path id="패스_104" data-name="패스 104" d="M399.93,105.818a.744.744,0,1,1-.745-.744A.746.746,0,0,1,399.93,105.818Z" fill="none" stroke="#4dd0e1" stroke-miterlimit="10" stroke-width="1.034"/>
      <circle id="타원_13" data-name="타원 13" cx="2.42" cy="2.42" r="2.42" transform="translate(420.032 190.694)" fill="none" stroke="#4dd0e1" stroke-miterlimit="10" stroke-width="1.034"/>
      <circle id="타원_14" data-name="타원 14" cx="2.978" cy="2.978" r="2.978" transform="translate(214.542 120.709)" fill="none" stroke="#4dd0e1" stroke-miterlimit="10" stroke-width="1.034"/>
      <circle id="타원_15" data-name="타원 15" cx="2.234" cy="2.234" r="2.234" transform="translate(182.156 117.73)" fill="none" stroke="#4dd0e1" stroke-miterlimit="10" stroke-width="1.034"/>
      <circle id="타원_16" data-name="타원 16" cx="2.978" cy="2.978" r="2.978" transform="translate(201.886 89.066)" fill="none" stroke="#4dd0e1" stroke-miterlimit="10" stroke-width="1.034"/>
      <path id="패스_105" data-name="패스 105" d="M148.28,151.979a1.49,1.49,0,1,1-1.489-1.489A1.489,1.489,0,0,1,148.28,151.979Z" fill="none" stroke="#4dd0e1" stroke-miterlimit="10" stroke-width="1.034"/>
      <circle id="타원_17" data-name="타원 17" cx="1.675" cy="1.675" r="1.675" transform="translate(51.863 208.563)" fill="none" stroke="#4dd0e1" stroke-miterlimit="10" stroke-width="1.034"/>
      <path id="패스_106" data-name="패스 106" d="M65.637,164.822a5.026,5.026,0,1,1-5.025-5.026A5.025,5.025,0,0,1,65.637,164.822Z" fill="none" stroke="#4dd0e1" stroke-miterlimit="10" stroke-width="1.034"/>
      <path id="패스_107" data-name="패스 107" d="M42.185,243a2.792,2.792,0,1,1-2.792-2.792A2.792,2.792,0,0,1,42.185,243Z" fill="none" stroke="#4dd0e1" stroke-miterlimit="10" stroke-width="1.034"/>
      <circle id="타원_18" data-name="타원 18" cx="0.558" cy="0.558" r="0.558" transform="translate(65.265 277.804)" fill="none" stroke="#4dd0e1" stroke-miterlimit="10" stroke-width="1.034"/>
      <circle id="타원_19" data-name="타원 19" cx="4.095" cy="4.095" r="4.095" transform="translate(51.119 336.621)" fill="none" stroke="#4dd0e1" stroke-miterlimit="10" stroke-width="1.034"/>
      <path id="패스_108" data-name="패스 108" d="M109.192,380.362a2.792,2.792,0,1,1-2.792-2.792A2.792,2.792,0,0,1,109.192,380.362Z" fill="none" stroke="#4dd0e1" stroke-miterlimit="10" stroke-width="1.034"/>
      <path id="패스_109" data-name="패스 109" d="M109.192,70.639a2.792,2.792,0,1,1-2.792-2.792A2.792,2.792,0,0,1,109.192,70.639Z" fill="none" stroke="#4dd0e1" stroke-miterlimit="10" stroke-width="1.034"/>
      <circle id="타원_20" data-name="타원 20" cx="1.675" cy="1.675" r="1.675" transform="translate(348.557 29.504)" fill="none" stroke="#4dd0e1" stroke-miterlimit="10" stroke-width="1.034"/>
      <circle id="타원_21" data-name="타원 21" cx="4.3" cy="4.3" r="4.3" transform="translate(448.924 92.374)" fill="none" stroke="#4dd0e1" stroke-miterlimit="10" stroke-width="1.034"/>
      <path id="패스_110" data-name="패스 110" d="M470.424,245.558a1.075,1.075,0,1,1-1.075-1.075A1.075,1.075,0,0,1,470.424,245.558Z" fill="none" stroke="#4dd0e1" stroke-miterlimit="10" stroke-width="1.034"/>
      <path id="패스_111" data-name="패스 111" d="M419.363,313.55a3.494,3.494,0,1,1-3.494-3.494A3.495,3.495,0,0,1,419.363,313.55Z" fill="none" stroke="#4dd0e1" stroke-miterlimit="10" stroke-width="1.034"/>
    </g>
    <g id="그룹_48" data-name="그룹 48">
      <g id="OBJECTS" transform="translate(-44 1)">
        <g id="그룹_24" data-name="그룹 24" transform="translate(58 -16)">
          <g id="그룹_1" data-name="그룹 1">
            <path id="패스_1" data-name="패스 1" d="M438.467,263.046c2.356-12.275-1.322-31.473-14.23-55.71,8.247,9.314,17.691,13.843,22.946,10.327,6.372-4.263,4.171-18.727-4.914-32.308s-21.617-21.134-27.988-16.872c-4.4,2.946-4.71,10.764-1.482,19.795a318.741,318.741,0,0,0-22.492-29.649c-17.9-21.084-48.755-43.052-69.531-52.247-19.825-8.775-39.291-8.485-51.971-1.165a11.131,11.131,0,0,0-16.765,14.517c-13.31,15.211-22.457,34.577-37.468,48.723-18.89,17.8-46.565,21.423-71.981,26.69s-53.209,15.42-63.932,39.058c-7.33,16.157-4.776,35.122.758,51.977,14.07,42.856,47.2,79.057,88.648,96.858,22.351,9.6,50.033,13.356,69.685-.978.829-.605,1.626-1.233,2.4-1.878a16.141,16.141,0,1,0,11.343-13.289c12.057-19.423,15-45.944,27.32-66.218,3.93-6.468,9.479-12.7,16.913-14.128,4.521-.866,9.18.167,13.6,1.439,15.535,4.465,30.061,11.884,45.4,16.975s32.27,7.764,47.556,2.51C421.21,300.97,434.7,282.693,438.467,263.046Z" fill="#d4c9ff"/>
            <path id="패스_2" data-name="패스 2" d="M82.945,304.979C74.925,292.031,63,284.894,56.314,289.036s-5.608,18,2.411,30.945,19.943,20.085,26.631,15.943S90.965,317.927,82.945,304.979Z" fill="#d4c9ff"/>
            <path id="패스_3" data-name="패스 3" d="M92.169,340.756a4.24,4.24,0,1,0,2.618,5.394A4.241,4.241,0,0,0,92.169,340.756Z" fill="#d4c9ff"/>
            <path id="패스_4" data-name="패스 4" d="M407.659,160.344a4.183,4.183,0,1,0-2.583-5.322A4.182,4.182,0,0,0,407.659,160.344Z" fill="#d4c9ff"/>
            <circle id="타원_1" data-name="타원 1" cx="10.158" cy="10.158" r="10.158" transform="translate(427.448 146.285) rotate(-9.605)" fill="#d4c9ff"/>
            <path id="패스_5" data-name="패스 5" d="M455.848,186.738a4.183,4.183,0,1,0-2.583-5.322A4.183,4.183,0,0,0,455.848,186.738Z" fill="#d4c9ff"/>
            <path id="패스_6" data-name="패스 6" d="M161.836,184.475A11.95,11.95,0,1,0,149.8,172.608,11.95,11.95,0,0,0,161.836,184.475Z" fill="#d4c9ff"/>
            <path id="패스_7" data-name="패스 7" d="M313.225,112a6.924,6.924,0,1,0-6.971-6.876A6.925,6.925,0,0,0,313.225,112Z" fill="#d4c9ff"/>
            <path id="패스_8" data-name="패스 8" d="M329.639,95.944a4.391,4.391,0,1,0-4.421-4.361A4.392,4.392,0,0,0,329.639,95.944Z" fill="#d4c9ff"/>
            <path id="패스_9" data-name="패스 9" d="M341.141,125.732a13.588,13.588,0,1,0-13.681-13.494A13.589,13.589,0,0,0,341.141,125.732Z" fill="#d4c9ff"/>
            <path id="패스_10" data-name="패스 10" d="M133.793,188.069a4.56,4.56,0,1,0-4.591-4.529A4.562,4.562,0,0,0,133.793,188.069Z" fill="#d4c9ff"/>
          </g>
          <g id="그룹_20" data-name="그룹 20" transform="translate(-41 11)">
            <ellipse id="타원_2" data-name="타원 2" cx="149.471" cy="15.044" rx="149.471" ry="15.044" transform="matrix(0.962, -0.274, 0.274, 0.962, 104.747, 435.35)" fill="#d4c9ff"/>
            <g id="그룹_11" data-name="그룹 11">
              <path id="패스_71" data-name="패스 71" d="M334.872,159.131S168.964,205.84,145.65,216.122c-10.922,4.817-11.645,10.7-11.458,18.028l6.769,184.787c.187,7.326,4.268,17.864,15.694,16.309L340.34,374.42c6.171-1.794,11.022-9.187,10.836-16.513l-.421-193.239C350.569,157.342,341.042,157.337,334.872,159.131Z" fill="#743b27"/>
              <path id="패스_72" data-name="패스 72" d="M341.63,159.131,145.65,216.122c-6.171,1.794-11.022,9.188-10.836,16.514l4.795,188.76c.186,7.325,5.339,11.81,11.509,10.015L347.1,374.42c6.17-1.794,11.021-9.187,10.835-16.513l-4.794-188.76C352.953,161.821,347.8,157.337,341.63,159.131Z" fill="#5a2d1a"/>
              <path id="패스_73" data-name="패스 73" d="M333.559,174.2l-179.2,52.111c-5.642,1.641-10.083,8.213-9.918,14.679L148.676,407.6c.164,6.467,4.871,10.379,10.513,8.738l179.2-52.111c5.642-1.64,10.082-8.212,9.918-14.679l-4.232-166.614C343.908,176.472,339.2,172.56,333.559,174.2Z" fill="none" stroke="#f8b450" stroke-miterlimit="10" stroke-width="0.928" stroke-dasharray="7.589"/>
              <path id="패스_74" data-name="패스 74" d="M302.9,253.579c-4.1,1.193-7.331,6.111-7.208,10.983l.943,37.116c.124,4.873,3.552,7.856,7.656,6.662l52-15.12L354.9,238.458Z" fill="#985c3a" opacity="0.43" style="mix-blend-mode: multiply;isolation: isolate"/>
              <path id="패스_75" data-name="패스 75" d="M363.929,233.5l-57.677,16.772c-4.1,1.194-7.331,6.112-7.207,10.984l.942,37.116c.124,4.873,3.552,7.856,7.656,6.662l57.677-16.772c4.1-1.194,7.331-6.112,7.207-10.985l-.942-37.115C371.461,235.292,368.033,232.309,363.929,233.5Z" fill="#a87442"/>
              <path id="패스_76" data-name="패스 76" d="M360.684,239.855,309.77,254.661a9.525,9.525,0,0,0-6.38,9l.758,29.838c.1,3.918,3.117,6.239,6.74,5.186L361.8,283.879a9.524,9.524,0,0,0,6.38-9l-.758-29.838C367.325,241.123,364.307,238.8,360.684,239.855Z" fill="none" stroke="#f8b450" stroke-miterlimit="10" stroke-width="0.928" stroke-dasharray="7.589"/>
              <path id="패스_77" data-name="패스 77" d="M326.814,271.879c.141,5.528-3.52,11.107-8.176,12.461s-8.545-2.03-8.685-7.558,3.52-11.107,8.176-12.461S326.674,266.351,326.814,271.879Z" fill="#fdcc53"/>
              <path id="패스_78" data-name="패스 78" d="M140.1,219.539a18.364,18.364,0,0,0-5.291,13.1l4.795,188.759c.186,7.326,5.339,11.811,11.509,10.016L347.1,374.42c6.17-1.794,11.021-9.187,10.835-16.514l-1.1-43.338C233.506,420.611,145.3,347.053,140.1,219.539Z" fill="#985c3a" opacity="0.24" style="mix-blend-mode: multiply;isolation: isolate"/>
            </g>
            <g id="카드" transform="translate(68.915 250.74) rotate(-68)">
              <path id="패스_35" data-name="패스 35" d="M438.889,95.171l-1.768-1.622-2.965,11.467-5.526,9.269-10.377,13.46-24.086,22.06s-7.329,20.052-7.592,20.662S374.9,207.037,374.9,207.037l-.872,4.948,1.419,1.083,56.714-92.706L440.2,96.947Z" transform="translate(-237.271 -3.401)" fill="url(#linear-gradient)"/>
              <path id="패스_36" data-name="패스 36" d="M439.663,96.655l-1.23-1.971L435.218,106l-5.526,9.268-10.377,13.462-24.085,22.06s-7.329,20.051-7.593,20.661-11.671,36.569-11.671,36.569l-.872,4.948,1.418,1.085,56.716-92.706,7.709-23.044Z" transform="translate(-236.815 -2.914)" fill="url(#linear-gradient-2)"/>
              <g id="그룹_39" data-name="그룹 39">
                <g id="그룹_38" data-name="그룹 38">
                  <g id="그룹_27" data-name="그룹 27" transform="translate(50.33 17.826)">
                    <rect id="사각형_23" data-name="사각형 23" width="188.524" height="119.438" rx="6.283" transform="matrix(0.593, 0.805, -0.805, 0.593, 96.147, 2.625)" fill="url(#linear-gradient-3)"/>
                    <rect id="사각형_24" data-name="사각형 24" width="188.524" height="119.438" rx="6.283" transform="matrix(0.593, 0.805, -0.805, 0.593, 96.791, 0)" fill="url(#linear-gradient-4)"/>
                    <g id="그룹_26" data-name="그룹 26" transform="translate(0.644)">
                      <g id="그룹_25" data-name="그룹 25" clip-path="url(#clip-path)">
                        <path id="패스_37" data-name="패스 37" d="M584.4,140.584S469.173,189.954,333.894,70.977l-21.1,15.551s141.664,160.819,311.967,142.46Z" transform="translate(-314.512 -30.909)" fill="url(#linear-gradient-5)"/>
                        <path id="패스_38" data-name="패스 38" d="M530.691,68.067s-73.8,55.071-190.867-6.63L327.429,76.171s128.822,90.485,247.284,48.088Z" transform="translate(-308.234 -35.001)" fill="url(#linear-gradient-6)"/>
                        <path id="패스_39" data-name="패스 39" d="M541.666,224.042S417.035,234.193,326.824,78.779L301.938,86.8S384.919,283.806,551.8,320.445Z" transform="translate(-319.168 -27.562)" fill="url(#linear-gradient-7)"/>
                      </g>
                    </g>
                  </g>
                  <g id="그룹_37" data-name="그룹 37">
                    <g id="그룹_29" data-name="그룹 29" transform="translate(104.325 57.935)">
                      <path id="패스_40" data-name="패스 40" d="M353.308,90.5a11.279,11.279,0,0,1-1.62-2.856,6.1,6.1,0,0,1,.87-5.72,15.156,15.156,0,0,1,3.791-3.172c.483-.323.956-.64,1.389-.96l3.921-2.888c.414-.306.832-.64,1.253-.977a17.618,17.618,0,0,1,3.494-2.363,6.092,6.092,0,0,1,6.2.669,11.314,11.314,0,0,1,2.249,2.393c.43.584.837,1.2,1.236,1.795.369.556.729,1.1,1.093,1.592,1.1,1.49,2.219,2.974,3.339,4.457l1.636,2.168q.812,1.08,1.613,2.168c1.27,1.723,2.306,3.176,3.254,4.574a6.091,6.091,0,0,1-.5,7.483,17.59,17.59,0,0,1-3.292,2.636c-.447.3-.889.6-1.3.909l-3.919,2.889c-.433.32-.876.677-1.328,1.043a15.168,15.168,0,0,1-4.152,2.682,6.09,6.09,0,0,1-6.822-1.933c-1.05-1.317-2.172-2.788-3.431-4.5q-.787-1.07-1.568-2.148l-1.588-2.208c-1.085-1.509-2.168-3.016-3.266-4.508-.364-.494-.776-1-1.2-1.515C354.2,91.653,353.74,91.083,353.308,90.5Z" transform="translate(-351.332 -71.005)" fill="url(#linear-gradient-8)"/>
                      <path id="패스_41" data-name="패스 41" d="M351.83,84.581a5.484,5.484,0,0,0,.257,2.662c.769,2.142,2.743,4.107,4.082,5.923,1.635,2.219,3.237,4.478,4.857,6.72s3.264,4.467,4.981,6.622a5.467,5.467,0,0,0,6.122,1.735c1.929-.7,3.684-2.435,5.32-3.639l3.921-2.889a28.979,28.979,0,0,0,4.5-3.459,5.47,5.47,0,0,0,.449-6.716c-1.55-2.279-3.191-4.505-4.851-6.717s-3.345-4.411-4.981-6.629c-1.339-1.818-2.631-4.285-4.448-5.653a5.472,5.472,0,0,0-5.561-.6,28.924,28.924,0,0,0-4.637,3.277L357.921,78.1c-1.636,1.2-3.817,2.366-5.051,4A5.457,5.457,0,0,0,351.83,84.581Z" transform="translate(-351.144 -70.818)" fill="url(#linear-gradient-9)"/>
                      <g id="그룹_28" data-name="그룹 28" transform="translate(3.415 3.223)">
                        <path id="패스_42" data-name="패스 42" d="M380.134,84.255l-.034-.044-5.448,4.015-6.382-8.659,5.474-4.035q-.221-.324-.447-.64l-5.491,4.047-4.184-5.677c-.209.157-.413.314-.619.476l7.986,10.836-4.281,3.155L358.758,76.94l-.629.463,8,10.861a3.557,3.557,0,0,0-.456,3.975l-1.559,1.149-9.788-13.28c-.206.161-.419.317-.609.489l9.768,13.255-4.207,3.1c.151.211.306.422.457.633l6.376-4.7a3.551,3.551,0,0,0,4.29.886l2.782,3.774-8.7,6.416c.159.2.316.414.476.617l8.691-6.4,3.332,4.523.629-.463-6.542-8.875,4.144-3.054,6.576,8.922c.216-.147.427-.3.639-.449l-7.315-9.925,5.45-4.017C380.42,84.644,380.279,84.45,380.134,84.255Zm-5.383,5.423-4.281,3.155a2.781,2.781,0,1,1-3.3-4.477l4.281-3.155Z" transform="translate(-353.722 -73.261)" fill="url(#linear-gradient-10)"/>
                      </g>
                    </g>
                    <g id="그룹_32" data-name="그룹 32" transform="translate(96.512 89.951)">
                      <g id="그룹_30" data-name="그룹 30" transform="translate(0 0.58)" style="mix-blend-mode: multiply;isolation: isolate">
                        <path id="패스_43" data-name="패스 43" d="M347.454,99.153l4.987-3.675-1.076-.976.614-.684,2.2,1.62.059.269-6.083,4.483.569,1.023-.674.5-2.186-2.966.583-.6Z" transform="translate(-345.864 -93.817)" fill="#09abcb"/>
                        <path id="패스_44" data-name="패스 44" d="M348.345,100.513q.371.039.91.106t1.165.127c.416.04.846.071,1.289.1a11.55,11.55,0,0,0,1.276.006,4.036,4.036,0,0,0,1.969-.443l.07-.051a1.148,1.148,0,0,0,.512-.887,1.3,1.3,0,0,0-.254-.807,1.952,1.952,0,0,0-.92-.7l-1.044.35-.227-1.57a3.326,3.326,0,0,1,1.692.189,3,3,0,0,1,1.32,1.037,2.907,2.907,0,0,1,.644,1.758,2,2,0,0,1-.912,1.666,5.2,5.2,0,0,1-3.159.622,18.509,18.509,0,0,1-1.992-.137q-.812-.109-1.172-.137l1.489,2.02,1.365-.4.489.663-2.1,1.219-3.015-4.092Z" transform="translate(-345.059 -92.579)" fill="#09abcb"/>
                        <path id="패스_45" data-name="패스 45" d="M351.974,104.043a2.957,2.957,0,0,0,.531,2.028,1.674,1.674,0,0,0,1.035.75,1.18,1.18,0,0,0,.922-.19,1.4,1.4,0,0,0,.5-.577,1.452,1.452,0,0,0,.1-.64,2.629,2.629,0,0,0-.579-1.357l-.379-.513.865-.637a5.07,5.07,0,0,0,1.313,1.36,1.2,1.2,0,0,0,1.395-.127,1.125,1.125,0,0,0,.51-.889,1.334,1.334,0,0,0-.274-.854,2.116,2.116,0,0,0-.532-.544,3.477,3.477,0,0,0-.43-.234l-1.1.234-.164-1.445a3.111,3.111,0,0,1,1.7.227,3.535,3.535,0,0,1,1.423,1.193,2.769,2.769,0,0,1,.573,1.7,2.16,2.16,0,0,1-2.086,2.042,2.086,2.086,0,0,1-1.2-.379,2.236,2.236,0,0,1,.054,1.17,1.892,1.892,0,0,1-.729,1.189,2.441,2.441,0,0,1-1.1.492,2.373,2.373,0,0,1-1.007-.073,2.98,2.98,0,0,1-1.572-1.122,4.274,4.274,0,0,1-.969-2.746Z" transform="translate(-343.759 -91.004)" fill="#09abcb"/>
                        <path id="패스_46" data-name="패스 46" d="M357.44,109.974l-1.156.853.469.91-.684.5-2.356-3.2.684-.5,1.183,1.269,1.126-.83-1.956-2.655.51-.887,6.347-.21.8,1.087-4.1,3.024.609.824-.865.636Zm.13-1.632,2.866-2.112-4.341.111Z" transform="translate(-342.498 -88.923)" fill="#09abcb"/>
                        <path id="패스_47" data-name="패스 47" d="M362.82,113.918a7.726,7.726,0,0,0-.713-.84l2.9-2.142.559.086,2.363,3.206-.863.637-1.9-2.573-1.448,1.067.177.241c.084.114.2.28.344.5a3.515,3.515,0,0,1,.389.853,2.9,2.9,0,0,1,.144,1.059,2.583,2.583,0,0,1-1.132,1.98,2.755,2.755,0,0,1-2.316.5,3.339,3.339,0,0,1-2.013-1.34,3.552,3.552,0,0,1-.61-1.249,3.436,3.436,0,0,1-.1-1.172l1.137-.079a2.647,2.647,0,0,0,.487,1.923,1.842,1.842,0,0,0,1.216.764,1.719,1.719,0,0,0,1.356-.349,1.615,1.615,0,0,0,.753-1.44A3.24,3.24,0,0,0,362.82,113.918Z" transform="translate(-340.405 -86.474)" fill="#09abcb"/>
                        <path id="패스_48" data-name="패스 48" d="M368.37,115.361a2.582,2.582,0,0,1,1.05.823,3.588,3.588,0,0,1,.524.933,3.193,3.193,0,0,1,.161.757,2.7,2.7,0,0,1-.149,1.1l-1.378-.457.343-1.03a2.126,2.126,0,0,0-.309-.586,1.356,1.356,0,0,0-.616-.447,2.16,2.16,0,0,0-.9-.136,4.1,4.1,0,0,0-2.083.713,2.546,2.546,0,0,1,.913.28,2.388,2.388,0,0,1,.846.736,3.231,3.231,0,0,1,.513,1,2.4,2.4,0,0,1,.084,1.007,2.658,2.658,0,0,1-1.15,1.809,2.71,2.71,0,0,1-2.012.553,2.618,2.618,0,0,1-1.862-1.095,2.775,2.775,0,0,1-.359-2.824,5.411,5.411,0,0,1,1.91-2.292,5.193,5.193,0,0,1,3.057-1.136A3.259,3.259,0,0,1,368.37,115.361Zm-4.871,3.022q-1.035,1.29-.323,2.256a1.323,1.323,0,0,0,1.079.6,1.849,1.849,0,0,0,1.16-.4,1.745,1.745,0,0,0,.723-1.06,1.368,1.368,0,0,0-.247-1.137,1.483,1.483,0,0,0-1.093-.62A1.916,1.916,0,0,0,363.5,118.383Z" transform="translate(-339.046 -84.699)" fill="#09abcb"/>
                        <path id="패스_49" data-name="패스 49" d="M368.78,120.024l-.467-.634,2.079-1.533,2.921,3.962-.129.374-8.225,2.818-.763-1.036.234-.25,7.425-2.073-1.675-2.273Z" transform="translate(-338.001 -83.506)" fill="#09abcb"/>
                        <path id="패스_50" data-name="패스 50" d="M367.622,124.476a2.582,2.582,0,0,1,2.775-.151,3.037,3.037,0,0,1,.14-1.1,1.746,1.746,0,0,1,.649-.889,2.013,2.013,0,0,1,.923-.41,2.206,2.206,0,0,1,.876.061,2.555,2.555,0,0,1,1.469.982,2.654,2.654,0,0,1,.549,1.673,1.9,1.9,0,0,1-.794,1.533,1.882,1.882,0,0,1-1.659.274,4.467,4.467,0,0,1-.547-.154,3.714,3.714,0,0,1-.039,1.317,2.4,2.4,0,0,1-.906,1.319,2.252,2.252,0,0,1-1.958.372,2.856,2.856,0,0,1-1.7-1.15,3.217,3.217,0,0,1-.692-1.926A2.108,2.108,0,0,1,367.622,124.476Zm2.935.97a1.974,1.974,0,0,0-2.126.063,1.181,1.181,0,0,0-.5,1.023,1.511,1.511,0,0,0,.267.889,2.035,2.035,0,0,0,.507.51,1.421,1.421,0,0,0,.5.2,1.237,1.237,0,0,0,1-.206,1.676,1.676,0,0,0,.48-1.75C370.643,125.947,370.6,125.7,370.557,125.446Zm2.1-.089a1.1,1.1,0,0,0,.757-.233.992.992,0,0,0,.414-.693,1.126,1.126,0,0,0-.241-.83,1.181,1.181,0,0,0-.712-.492.823.823,0,0,0-.692.114,1.12,1.12,0,0,0-.376.424,1.209,1.209,0,0,0-.111.462,4.382,4.382,0,0,0,.119,1.045A2.817,2.817,0,0,0,372.658,125.357Z" transform="translate(-336.924 -81.771)" fill="#09abcb"/>
                        <path id="패스_51" data-name="패스 51" d="M372.962,132.5a2.742,2.742,0,0,0,.462,1.909q.995,1.346,3.289-.129a2.233,2.233,0,0,1-.93-.377,2.908,2.908,0,0,1-.69-.662,2.763,2.763,0,0,1-.422-.869,2.268,2.268,0,0,1-.084-.977,2.563,2.563,0,0,1,1.136-1.783,3.082,3.082,0,0,1,2.091-.657,2.635,2.635,0,0,1,1.949,1.17,2.416,2.416,0,0,1,.194,2.665,6.477,6.477,0,0,1-2.069,2.285,5.319,5.319,0,0,1-2.854,1.14,2.894,2.894,0,0,1-1.328-.214,2.356,2.356,0,0,1-1.022-.783,5,5,0,0,1-.554-.912,4.52,4.52,0,0,1-.251-.729,4.571,4.571,0,0,1-.116-1.063Zm3.107.254a1.584,1.584,0,0,0,.387.367,1.45,1.45,0,0,0,.506.216,1.561,1.561,0,0,0,1.185-.206,2.487,2.487,0,0,0,.932-1.85,1.136,1.136,0,0,0-.231-.59,1.3,1.3,0,0,0-.962-.547,1.924,1.924,0,0,0-1.293.457,1.8,1.8,0,0,0-.784,1.1A1.316,1.316,0,0,0,376.068,132.759Z" transform="translate(-334.755 -78.747)" fill="#09abcb"/>
                        <path id="패스_52" data-name="패스 52" d="M377.233,134.234q2.375-1.749,4.13-1.073a2.7,2.7,0,0,1,1.175.966,2.6,2.6,0,0,1,.346,2.741,5.87,5.87,0,0,1-2.01,2.3q-2.364,1.743-4.137,1.062a2.678,2.678,0,0,1-1.176-.963,2.6,2.6,0,0,1-.334-2.749A5.88,5.88,0,0,1,377.233,134.234Zm.779,1.056q-1.822,1.342-1.852,2.559a1.238,1.238,0,0,0,.266.782,1.452,1.452,0,0,0,1.563.523,5.341,5.341,0,0,0,2.1-1.039q1.83-1.348,1.852-2.561a1.316,1.316,0,0,0-.276-.8,1.269,1.269,0,0,0-.68-.492,1.8,1.8,0,0,0-.875-.016A5.4,5.4,0,0,0,378.012,135.29Z" transform="translate(-333.377 -77.022)" fill="#09abcb"/>
                        <path id="패스_53" data-name="패스 53" d="M380.257,138.335q2.373-1.749,4.128-1.072a2.7,2.7,0,0,1,1.176.965,2.6,2.6,0,0,1,.344,2.741,5.848,5.848,0,0,1-2.01,2.3q-2.364,1.743-4.135,1.062a2.681,2.681,0,0,1-1.177-.963,2.6,2.6,0,0,1-.333-2.748A5.871,5.871,0,0,1,380.257,138.335Zm.777,1.056q-1.82,1.342-1.852,2.561a1.244,1.244,0,0,0,.266.782,1.455,1.455,0,0,0,1.563.523,5.371,5.371,0,0,0,2.106-1.04q1.828-1.348,1.852-2.559a1.319,1.319,0,0,0-.277-.8,1.259,1.259,0,0,0-.68-.492,1.812,1.812,0,0,0-.873-.016A5.407,5.407,0,0,0,381.035,139.391Z" transform="translate(-332.08 -75.263)" fill="#09abcb"/>
                        <path id="패스_54" data-name="패스 54" d="M383.28,142.439q2.373-1.749,4.128-1.073a2.686,2.686,0,0,1,1.176.966,2.6,2.6,0,0,1,.344,2.739,5.837,5.837,0,0,1-2.01,2.3q-2.362,1.743-4.135,1.063a2.692,2.692,0,0,1-1.176-.965,2.6,2.6,0,0,1-.334-2.748A5.87,5.87,0,0,1,383.28,142.439Zm.779,1.055q-1.822,1.344-1.852,2.561a1.251,1.251,0,0,0,.264.782,1.457,1.457,0,0,0,1.565.523,5.37,5.37,0,0,0,2.1-1.039q1.83-1.35,1.852-2.561a1.319,1.319,0,0,0-.276-.8,1.267,1.267,0,0,0-.682-.492,1.777,1.777,0,0,0-.873-.016A5.407,5.407,0,0,0,384.059,143.493Z" transform="translate(-330.783 -73.503)" fill="#09abcb"/>
                        <path id="패스_55" data-name="패스 55" d="M388.793,149.917q2.373-1.749,4.128-1.072a2.688,2.688,0,0,1,1.175.965,2.6,2.6,0,0,1,.346,2.741,5.849,5.849,0,0,1-2.01,2.3q-2.364,1.743-4.135,1.062a2.681,2.681,0,0,1-1.177-.963,2.6,2.6,0,0,1-.333-2.748A5.871,5.871,0,0,1,388.793,149.917Zm.777,1.056q-1.82,1.342-1.852,2.561a1.244,1.244,0,0,0,.266.782,1.458,1.458,0,0,0,1.563.523,5.371,5.371,0,0,0,2.106-1.04q1.828-1.348,1.852-2.559a1.319,1.319,0,0,0-.277-.8,1.264,1.264,0,0,0-.68-.492,1.794,1.794,0,0,0-.873-.016A5.407,5.407,0,0,0,389.571,150.973Z" transform="translate(-328.418 -70.295)" fill="#09abcb"/>
                        <path id="패스_56" data-name="패스 56" d="M391.816,154.021q2.373-1.749,4.128-1.073a2.692,2.692,0,0,1,1.176.965,2.6,2.6,0,0,1,.344,2.741,5.837,5.837,0,0,1-2.01,2.3q-2.364,1.743-4.135,1.063a2.693,2.693,0,0,1-1.176-.965,2.6,2.6,0,0,1-.334-2.748A5.87,5.87,0,0,1,391.816,154.021Zm.779,1.055q-1.822,1.342-1.852,2.561a1.24,1.24,0,0,0,.264.782,1.458,1.458,0,0,0,1.565.523,5.37,5.37,0,0,0,2.1-1.039q1.831-1.35,1.852-2.561a1.319,1.319,0,0,0-.276-.8,1.277,1.277,0,0,0-.682-.493,1.794,1.794,0,0,0-.873-.014A5.407,5.407,0,0,0,392.595,155.075Z" transform="translate(-327.122 -68.535)" fill="#09abcb"/>
                        <path id="패스_57" data-name="패스 57" d="M394.841,158.123q2.373-1.749,4.128-1.073a2.683,2.683,0,0,1,1.175.966,2.6,2.6,0,0,1,.346,2.739,5.873,5.873,0,0,1-2.01,2.3q-2.364,1.74-4.137,1.062a2.706,2.706,0,0,1-1.176-.963,2.6,2.6,0,0,1-.334-2.749A5.873,5.873,0,0,1,394.841,158.123Zm.777,1.056q-1.82,1.342-1.852,2.559a1.241,1.241,0,0,0,.266.782,1.455,1.455,0,0,0,1.563.523A5.361,5.361,0,0,0,397.7,162q1.831-1.348,1.852-2.561a1.306,1.306,0,0,0-.276-.8,1.269,1.269,0,0,0-.68-.492,1.794,1.794,0,0,0-.873-.016A5.4,5.4,0,0,0,395.618,159.179Z" transform="translate(-325.825 -66.776)" fill="#09abcb"/>
                        <path id="패스_58" data-name="패스 58" d="M397.863,162.224q2.373-1.749,4.128-1.072a2.682,2.682,0,0,1,1.176.965,2.6,2.6,0,0,1,.344,2.741,5.849,5.849,0,0,1-2.01,2.3q-2.364,1.743-4.135,1.062a2.678,2.678,0,0,1-1.176-.963,2.6,2.6,0,0,1-.334-2.748A5.86,5.86,0,0,1,397.863,162.224Zm.777,1.056q-1.82,1.342-1.852,2.561a1.244,1.244,0,0,0,.266.782,1.455,1.455,0,0,0,1.563.522,5.346,5.346,0,0,0,2.106-1.039q1.83-1.348,1.852-2.559a1.318,1.318,0,0,0-.277-.8,1.258,1.258,0,0,0-.68-.492,1.794,1.794,0,0,0-.873-.016A5.406,5.406,0,0,0,398.641,163.28Z" transform="translate(-324.528 -65.016)" fill="#09abcb"/>
                      </g>
                      <g id="그룹_31" data-name="그룹 31" transform="translate(0.089)">
                        <path id="패스_59" data-name="패스 59" d="M347.516,98.747l4.987-3.675-1.076-.976.613-.684,2.2,1.619.057.269-6.083,4.484.569,1.023-.673.5-2.186-2.965.582-.6Z" transform="translate(-345.926 -93.411)" fill="#75dfe8"/>
                        <path id="패스_60" data-name="패스 60" d="M348.407,100.105q.369.041.91.107t1.163.127c.417.039.846.071,1.289.1a11.929,11.929,0,0,0,1.277,0,4.025,4.025,0,0,0,1.969-.443l.07-.051a1.142,1.142,0,0,0,.51-.887,1.29,1.29,0,0,0-.253-.806,1.956,1.956,0,0,0-.922-.7l-1.045.352-.227-1.57a3.324,3.324,0,0,1,1.692.189,2.988,2.988,0,0,1,1.322,1.036,2.911,2.911,0,0,1,.644,1.759,2,2,0,0,1-.913,1.666,5.2,5.2,0,0,1-3.158.62,18.512,18.512,0,0,1-1.993-.137q-.81-.109-1.172-.137l1.49,2.021,1.363-.4.49.663-2.1,1.22-3.016-4.092Z" transform="translate(-345.121 -92.173)" fill="#75dfe8"/>
                        <path id="패스_61" data-name="패스 61" d="M352.035,103.636a2.956,2.956,0,0,0,.533,2.028,1.676,1.676,0,0,0,1.035.752,1.18,1.18,0,0,0,.922-.191,1.408,1.408,0,0,0,.5-.576,1.478,1.478,0,0,0,.1-.642,2.624,2.624,0,0,0-.58-1.357l-.377-.513.863-.636a5.136,5.136,0,0,0,1.313,1.36,1.2,1.2,0,0,0,1.395-.129,1.125,1.125,0,0,0,.51-.889,1.329,1.329,0,0,0-.273-.853,2.15,2.15,0,0,0-.533-.546,3.673,3.673,0,0,0-.43-.234l-1.1.236L355.747,100a3.143,3.143,0,0,1,1.7.227,3.547,3.547,0,0,1,1.422,1.195,2.748,2.748,0,0,1,.573,1.7,1.994,1.994,0,0,1-.87,1.62,2.024,2.024,0,0,1-1.216.423,2.1,2.1,0,0,1-1.2-.379,2.215,2.215,0,0,1,.056,1.169,1.9,1.9,0,0,1-.73,1.19,2.442,2.442,0,0,1-1.1.49,2.351,2.351,0,0,1-1.007-.073,2.974,2.974,0,0,1-1.572-1.122,4.263,4.263,0,0,1-.969-2.746Z" transform="translate(-343.821 -90.598)" fill="#75dfe8"/>
                        <path id="패스_62" data-name="패스 62" d="M357.5,109.568l-1.156.852.469.912-.683.5-2.356-3.2.683-.5,1.183,1.269,1.127-.83-1.956-2.655.509-.886,6.347-.21.8,1.086-4.1,3.024.607.824-.864.637Zm.132-1.632,2.865-2.113-4.341.111Z" transform="translate(-342.56 -88.517)" fill="#75dfe8"/>
                        <path id="패스_63" data-name="패스 63" d="M362.881,113.512a7.771,7.771,0,0,0-.712-.842l2.9-2.141.559.086L368,113.822l-.864.636-1.9-2.574-1.449,1.067.179.242c.084.114.2.28.344.5a3.507,3.507,0,0,1,.389.855,2.891,2.891,0,0,1,.143,1.057,2.58,2.58,0,0,1-1.13,1.982,2.768,2.768,0,0,1-2.318.5,3.348,3.348,0,0,1-2.012-1.34,3.558,3.558,0,0,1-.61-1.25,3.431,3.431,0,0,1-.1-1.172l1.137-.079a2.641,2.641,0,0,0,.487,1.923,1.832,1.832,0,0,0,1.215.764,1.711,1.711,0,0,0,1.357-.349,1.617,1.617,0,0,0,.753-1.44A3.245,3.245,0,0,0,362.881,113.512Z" transform="translate(-340.467 -86.068)" fill="#75dfe8"/>
                        <path id="패스_64" data-name="패스 64" d="M368.431,114.954a2.58,2.58,0,0,1,1.052.824,3.531,3.531,0,0,1,.523.932,3.215,3.215,0,0,1,.163.757,2.706,2.706,0,0,1-.15,1.1l-1.378-.459.344-1.029a2.082,2.082,0,0,0-.31-.587,1.349,1.349,0,0,0-.615-.446,2.166,2.166,0,0,0-.9-.136,4.08,4.08,0,0,0-2.082.712,2.522,2.522,0,0,1,.913.282,2.354,2.354,0,0,1,.845.734,3.284,3.284,0,0,1,.514,1,2.408,2.408,0,0,1,.083,1.009,2.654,2.654,0,0,1-1.149,1.809,2.724,2.724,0,0,1-2.013.553,2.62,2.62,0,0,1-1.862-1.1,2.771,2.771,0,0,1-.357-2.824,5.414,5.414,0,0,1,1.909-2.292,5.2,5.2,0,0,1,3.056-1.136A3.28,3.28,0,0,1,368.431,114.954Zm-4.87,3.024q-1.035,1.29-.323,2.255a1.321,1.321,0,0,0,1.079.6,1.832,1.832,0,0,0,1.16-.4,1.753,1.753,0,0,0,.723-1.06,1.365,1.365,0,0,0-.247-1.136,1.49,1.49,0,0,0-1.095-.622A1.914,1.914,0,0,0,363.561,117.978Z" transform="translate(-339.108 -84.293)" fill="#75dfe8"/>
                        <path id="패스_65" data-name="패스 65" d="M368.841,119.618l-.467-.634,2.081-1.533,2.919,3.961-.127.374-8.225,2.818-.763-1.035.234-.251,7.425-2.073-1.675-2.272Z" transform="translate(-338.063 -83.1)" fill="#75dfe8"/>
                        <path id="패스_66" data-name="패스 66" d="M367.684,124.07a2.582,2.582,0,0,1,2.775-.153,3.042,3.042,0,0,1,.14-1.1,1.735,1.735,0,0,1,.649-.889,2,2,0,0,1,.923-.409,2.173,2.173,0,0,1,.875.061,2.555,2.555,0,0,1,1.469.98,2.665,2.665,0,0,1,.55,1.673,1.908,1.908,0,0,1-.794,1.533,1.883,1.883,0,0,1-1.659.276,4.658,4.658,0,0,1-.547-.154,3.7,3.7,0,0,1-.04,1.316,2.4,2.4,0,0,1-.9,1.319,2.252,2.252,0,0,1-1.959.373,2.877,2.877,0,0,1-1.7-1.15,3.222,3.222,0,0,1-.69-1.928A2.1,2.1,0,0,1,367.684,124.07Zm2.935.97a1.974,1.974,0,0,0-2.126.061,1.182,1.182,0,0,0-.5,1.023,1.5,1.5,0,0,0,.269.889,2.011,2.011,0,0,0,.507.51,1.414,1.414,0,0,0,.5.206,1.227,1.227,0,0,0,.995-.207,1.672,1.672,0,0,0,.48-1.749C370.7,125.541,370.663,125.3,370.619,125.04Zm2.1-.09a1.1,1.1,0,0,0,.759-.233.99.99,0,0,0,.413-.692,1.122,1.122,0,0,0-.24-.832,1.2,1.2,0,0,0-.712-.492.822.822,0,0,0-.692.114,1.135,1.135,0,0,0-.377.424,1.24,1.24,0,0,0-.11.462,4.321,4.321,0,0,0,.119,1.046A2.815,2.815,0,0,0,372.718,124.95Z" transform="translate(-336.986 -81.365)" fill="#75dfe8"/>
                        <path id="패스_67" data-name="패스 67" d="M373.024,132.1a2.741,2.741,0,0,0,.462,1.909q.992,1.348,3.289-.127a2.226,2.226,0,0,1-.93-.377,2.886,2.886,0,0,1-.69-.663,2.79,2.79,0,0,1-.423-.867,2.32,2.32,0,0,1-.084-.979,2.568,2.568,0,0,1,1.137-1.783,3.087,3.087,0,0,1,2.09-.657,2.642,2.642,0,0,1,1.949,1.17,2.416,2.416,0,0,1,.194,2.665,6.491,6.491,0,0,1-2.069,2.286,5.345,5.345,0,0,1-2.854,1.14,2.9,2.9,0,0,1-1.329-.216,2.341,2.341,0,0,1-1.02-.783,4.919,4.919,0,0,1-.554-.912,4.338,4.338,0,0,1-.251-.729,4.555,4.555,0,0,1-.117-1.063Zm3.107.254a1.5,1.5,0,0,0,.386.367,1.442,1.442,0,0,0,.507.216,1.562,1.562,0,0,0,1.185-.206,2.485,2.485,0,0,0,.932-1.85,1.152,1.152,0,0,0-.232-.589,1.3,1.3,0,0,0-.963-.547,1.911,1.911,0,0,0-1.292.456,1.8,1.8,0,0,0-.784,1.106A1.3,1.3,0,0,0,376.131,132.352Z" transform="translate(-334.818 -78.341)" fill="#75dfe8"/>
                        <path id="패스_68" data-name="패스 68" d="M377.3,133.828q2.373-1.751,4.128-1.073a2.692,2.692,0,0,1,1.176.965,2.6,2.6,0,0,1,.344,2.741,5.849,5.849,0,0,1-2.011,2.3q-2.364,1.743-4.135,1.062a2.67,2.67,0,0,1-1.176-.963,2.6,2.6,0,0,1-.334-2.748A5.858,5.858,0,0,1,377.3,133.828Zm.777,1.055q-1.82,1.342-1.852,2.561a1.244,1.244,0,0,0,.266.782,1.455,1.455,0,0,0,1.563.523,5.371,5.371,0,0,0,2.106-1.04q1.831-1.348,1.852-2.559a1.319,1.319,0,0,0-.277-.8,1.259,1.259,0,0,0-.68-.492,1.811,1.811,0,0,0-.873-.016A5.407,5.407,0,0,0,378.073,134.882Z" transform="translate(-333.439 -76.617)" fill="#75dfe8"/>
                        <path id="패스_69" data-name="패스 69" d="M380.318,137.93q2.375-1.749,4.128-1.073a2.686,2.686,0,0,1,1.176.966,2.6,2.6,0,0,1,.346,2.739,5.861,5.861,0,0,1-2.01,2.3q-2.364,1.743-4.137,1.063a2.692,2.692,0,0,1-1.176-.965,2.6,2.6,0,0,1-.334-2.748A5.88,5.88,0,0,1,380.318,137.93Zm.779,1.055q-1.822,1.344-1.852,2.561a1.241,1.241,0,0,0,.266.782,1.454,1.454,0,0,0,1.563.523,5.362,5.362,0,0,0,2.1-1.039q1.83-1.35,1.852-2.561a1.319,1.319,0,0,0-.276-.8,1.269,1.269,0,0,0-.68-.492,1.8,1.8,0,0,0-.875-.016A5.417,5.417,0,0,0,381.1,138.984Z" transform="translate(-332.142 -74.857)" fill="#75dfe8"/>
                        <path id="패스_70" data-name="패스 70" d="M383.342,142.032q2.373-1.749,4.128-1.073a2.692,2.692,0,0,1,1.175.966,2.6,2.6,0,0,1,.346,2.739,5.851,5.851,0,0,1-2.01,2.3q-2.364,1.743-4.135,1.062a2.681,2.681,0,0,1-1.177-.963,2.6,2.6,0,0,1-.333-2.749A5.868,5.868,0,0,1,383.342,142.032Zm.777,1.056q-1.82,1.342-1.852,2.559a1.241,1.241,0,0,0,.266.782,1.453,1.453,0,0,0,1.563.523,5.345,5.345,0,0,0,2.106-1.039q1.828-1.348,1.852-2.561a1.318,1.318,0,0,0-.277-.8,1.264,1.264,0,0,0-.68-.492,1.794,1.794,0,0,0-.873-.016A5.407,5.407,0,0,0,384.12,143.088Z" transform="translate(-330.845 -73.097)" fill="#75dfe8"/>
                        <path id="패스_71-2" data-name="패스 71" d="M388.854,149.512q2.375-1.749,4.128-1.073a2.692,2.692,0,0,1,1.176.965,2.6,2.6,0,0,1,.346,2.741,5.86,5.86,0,0,1-2.01,2.3q-2.364,1.743-4.137,1.063a2.692,2.692,0,0,1-1.176-.965,2.6,2.6,0,0,1-.334-2.748A5.87,5.87,0,0,1,388.854,149.512Zm.779,1.055q-1.822,1.344-1.852,2.561a1.241,1.241,0,0,0,.266.782,1.454,1.454,0,0,0,1.563.523,5.369,5.369,0,0,0,2.1-1.039q1.831-1.35,1.852-2.561a1.319,1.319,0,0,0-.276-.8,1.267,1.267,0,0,0-.682-.492,1.794,1.794,0,0,0-.873-.016A5.416,5.416,0,0,0,389.633,150.566Z" transform="translate(-328.481 -69.889)" fill="#75dfe8"/>
                        <path id="패스_72-2" data-name="패스 72" d="M391.878,153.614q2.373-1.749,4.128-1.073a2.692,2.692,0,0,1,1.175.966,2.6,2.6,0,0,1,.346,2.739,5.86,5.86,0,0,1-2.01,2.3q-2.364,1.74-4.135,1.062a2.682,2.682,0,0,1-1.177-.963,2.6,2.6,0,0,1-.333-2.749A5.869,5.869,0,0,1,391.878,153.614Zm.777,1.056q-1.82,1.342-1.852,2.559a1.238,1.238,0,0,0,.266.782,1.455,1.455,0,0,0,1.563.523,5.366,5.366,0,0,0,2.106-1.039q1.828-1.348,1.852-2.561a1.318,1.318,0,0,0-.277-.8,1.264,1.264,0,0,0-.68-.492,1.794,1.794,0,0,0-.873-.016A5.406,5.406,0,0,0,392.656,154.67Z" transform="translate(-327.184 -68.13)" fill="#75dfe8"/>
                        <path id="패스_73-2" data-name="패스 73" d="M394.9,157.715q2.373-1.749,4.128-1.072a2.682,2.682,0,0,1,1.176.965,2.6,2.6,0,0,1,.344,2.741,5.837,5.837,0,0,1-2.011,2.3q-2.364,1.743-4.135,1.062a2.678,2.678,0,0,1-1.176-.963,2.6,2.6,0,0,1-.334-2.748A5.882,5.882,0,0,1,394.9,157.715Zm.779,1.056q-1.822,1.342-1.852,2.561a1.242,1.242,0,0,0,.264.782,1.457,1.457,0,0,0,1.565.523,5.376,5.376,0,0,0,2.1-1.04q1.83-1.348,1.852-2.559a1.326,1.326,0,0,0-.276-.8,1.267,1.267,0,0,0-.682-.492,1.794,1.794,0,0,0-.873-.016A5.392,5.392,0,0,0,395.68,158.771Z" transform="translate(-325.887 -66.37)" fill="#75dfe8"/>
                        <path id="패스_74-2" data-name="패스 74" d="M397.925,161.819q2.373-1.749,4.128-1.073a2.689,2.689,0,0,1,1.175.965,2.6,2.6,0,0,1,.346,2.741,5.86,5.86,0,0,1-2.01,2.3q-2.364,1.743-4.137,1.063a2.692,2.692,0,0,1-1.176-.965,2.6,2.6,0,0,1-.334-2.748A5.863,5.863,0,0,1,397.925,161.819Zm.777,1.055q-1.82,1.342-1.852,2.561a1.243,1.243,0,0,0,.266.782,1.455,1.455,0,0,0,1.563.523,5.381,5.381,0,0,0,2.1-1.039q1.83-1.35,1.852-2.561a1.31,1.31,0,0,0-.276-.8,1.279,1.279,0,0,0-.68-.493,1.794,1.794,0,0,0-.873-.014A5.412,5.412,0,0,0,398.7,162.873Z" transform="translate(-324.59 -64.61)" fill="#75dfe8"/>
                      </g>
                    </g>
                    <text id="CARD_HOLDER" data-name="CARD HOLDER" transform="matrix(0.593, 0.805, -0.805, 0.593, 76.512, 102.459)" fill="#75dfe8" font-size="4.37" font-family="Helvetica" letter-spacing="0.1em"><tspan x="7.089" y="3">CARD HOLDER</tspan></text>
                    <g id="그룹_33" data-name="그룹 33" transform="translate(138.259 40.575)">
                      <text id="CREDIT_CARD" data-name="CREDIT CARD" transform="matrix(0.593, 0.805, -0.805, 0.593, 56.464, 61.706)" fill="#75dfe8" font-size="6.556" font-family="Helvetica" letter-spacing="0.1em"><tspan x="18.257" y="5">CREDIT CARD</tspan></text>
                      <text id="BANK_NAME" data-name="BANK NAME" transform="matrix(0.593, 0.805, -0.805, 0.593, 9.133, 0)" fill="#75dfe8" font-size="4.37" font-family="Helvetica" letter-spacing="0.1em"><tspan x="8.825" y="3">BANK NAME</tspan></text>
                    </g>
                    <g id="그룹_34" data-name="그룹 34" transform="translate(81.02 92.598)">
                      <text id="_05_12" data-name="05/12" transform="matrix(0.593, 0.805, -0.805, 0.593, 69.478, 84.129)" fill="#75dfe8" font-size="4.37" font-family="Helvetica" letter-spacing="0.1em"><tspan x="7.742" y="3">05/12</tspan></text>
                      <text id="_01234" data-name="01234" transform="matrix(0.593, 0.805, -0.805, 0.593, 8.871, 0)" fill="#75dfe8" font-size="3.278" font-family="Helvetica" letter-spacing="0.1em"><tspan x="8.871" y="3">01234</tspan></text>
                      <text id="VALID_THRU" data-name="VALID THRU" transform="matrix(0.593, 0.805, -0.805, 0.593, 55.086, 65.388)" fill="#75dfe8" font-size="2.185" font-family="Helvetica" letter-spacing="0.1em"><tspan x="6.705" y="2">VALID THRU</tspan></text>
                    </g>
                    <g id="그룹_35" data-name="그룹 35" transform="translate(145.927 200.318)">
                      <path id="패스_75-2" data-name="패스 75" d="M384.838,184.674a7.156,7.156,0,0,1-2.964-2.366,7.321,7.321,0,1,1,13.169-5.151,7.317,7.317,0,0,0-10.205,7.518Z" transform="translate(-380.446 -170.649)" fill="#e84525"/>
                      <path id="패스_76-2" data-name="패스 76" d="M390.807,182.095a7.3,7.3,0,0,1-7.273.81,7.317,7.317,0,0,1,10.205-7.518A7.3,7.3,0,0,1,390.807,182.095Z" transform="translate(-379.142 -168.879)" fill="#f46b06"/>
                      <path id="패스_77-2" data-name="패스 77" d="M395.139,187.8a7.314,7.314,0,0,1-10.235-1.543,7.228,7.228,0,0,1-1.383-3.537,7.316,7.316,0,0,0,10.205-7.518,7.156,7.156,0,0,1,2.964,2.366A7.31,7.31,0,0,1,395.139,187.8Z" transform="translate(-379.128 -168.695)" fill="#f29e08"/>
                    </g>
                  </g>
                </g>
              </g>
              <rect id="사각형_28" data-name="사각형 28" width="191.829" height="122.25" transform="translate(147.016 16.602) rotate(53.5)" fill="#fff" opacity="0.68"/>
              <g id="사각형_29" data-name="사각형 29" transform="translate(151.227 3.511) rotate(53.5)" fill="none" stroke="#777" stroke-linecap="round" stroke-linejoin="round" stroke-width="4" stroke-dasharray="4 12">
                <rect width="207.829" height="128.25" rx="20" stroke="none"/>
                <rect x="2" y="2" width="203.829" height="124.25" rx="18" fill="none"/>
              </g>
            </g>
            <g id="그룹_18" data-name="그룹 18">
              <path id="패스_86" data-name="패스 86" d="M351.641,163.179,155.661,220.17c-6.171,1.794-11.022,9.188-10.835,16.514l4.794,188.759c.186,7.326,5.111,11.674,16.538,10.119l190.951-57.094c6.171-1.794,11.022-9.188,10.836-16.514l-.421-193.239C367.338,161.389,357.811,161.384,351.641,163.179Z" fill="#743b27"/>
              <path id="패스_87" data-name="패스 87" d="M358.4,163.179,162.418,220.17c-6.17,1.794-11.021,9.188-10.835,16.514l4.8,188.759c.186,7.326,5.339,11.81,11.509,10.016l195.98-56.991c6.17-1.794,11.021-9.188,10.835-16.514L369.908,173.2C369.722,165.869,364.569,161.384,358.4,163.179Z" fill="#a87442"/>
              <path id="패스_88" data-name="패스 88" d="M371.222,224.947,369.908,173.2c-.186-7.326-5.339-11.811-11.509-10.016L208.251,206.841C232.412,251.712,288.623,256.219,371.222,224.947Z" fill="#b67c48"/>
              <path id="패스_89" data-name="패스 89" d="M350.328,178.248,182.983,227.109c-5.641,1.64-10.082,8.213-9.918,14.679L177.3,408.4c.165,6.467,4.871,10.379,10.513,8.738l167.345-48.861c5.642-1.64,10.082-8.213,9.918-14.679l-4.232-166.614C360.677,180.52,355.97,176.607,350.328,178.248Z" fill="none" stroke="#f8b450" stroke-miterlimit="10" stroke-width="0.928" stroke-dasharray="7.589"/>
              <path id="패스_90" data-name="패스 90" d="M319.672,253.147c-4.1,1.194-7.331,6.112-7.208,10.984l.943,41.6c.124,4.873,3.551,7.855,7.656,6.662l52-15.121-1.391-59.24Z" fill="#985c3a" opacity="0.43" style="mix-blend-mode: multiply;isolation: isolate"/>
              <path id="패스_91" data-name="패스 91" d="M380.7,237.551l-57.677,16.772c-4.1,1.194-7.331,6.111-7.208,10.984l.943,37.116c.124,4.873,3.552,7.855,7.656,6.662l57.677-16.773c4.1-1.193,7.331-6.111,7.207-10.984l-.942-37.116C388.23,239.34,384.8,236.357,380.7,237.551Z" fill="#a87442"/>
              <path id="패스_92" data-name="패스 92" d="M377.453,243.9l-50.914,14.806a9.522,9.522,0,0,0-6.38,9l.758,29.838c.1,3.918,3.117,6.239,6.74,5.186l50.914-14.806a9.525,9.525,0,0,0,6.38-9l-.758-29.838C384.093,245.171,381.076,242.849,377.453,243.9Z" fill="none" stroke="#f8b450" stroke-miterlimit="10" stroke-width="0.928" stroke-dasharray="7.589"/>
              <path id="패스_93" data-name="패스 93" d="M343.583,275.927c.14,5.528-3.52,11.107-8.176,12.461s-8.545-2.03-8.685-7.558,3.52-11.107,8.176-12.461S343.443,270.4,343.583,275.927Z" fill="#c6a188"/>
              <path id="패스_94" data-name="패스 94" d="M156.874,223.587a18.363,18.363,0,0,0-5.291,13.1l4.8,188.759c.186,7.326,5.339,11.81,11.509,10.016l195.98-56.991c6.17-1.794,11.021-9.188,10.835-16.514l-1.1-43.339C250.275,424.658,162.074,351.1,156.874,223.587Z" fill="#985c3a" opacity="0.24" style="mix-blend-mode: multiply;isolation: isolate"/>
            </g>
            <path id="패스_96" data-name="패스 96" d="M144.458,216.568c-10.127,5.106,3.225,7.933,16.925,3.964,0,19.334,5.61,209.092,5.61,214.982-11.652,2.689-27.529,5.122-27.529-12.932,0-30.284-5.077-174.406-5.427-187.349S137.462,219.418,144.458,216.568Z" fill="#a87442"/>
            <path id="패스_97" data-name="패스 97" d="M144.458,216.568c-10.127,5.106,3.225,7.933,16.925,3.964,0,19.334,5.61,209.092,5.61,214.982-11.652,2.689-27.529,5.122-27.529-12.932,0-30.284-5.077-174.406-5.427-187.349S137.462,219.418,144.458,216.568Z" fill="#723b27" opacity="0.47" style="mix-blend-mode: multiply;isolation: isolate"/>
          </g>
        </g>
      </g>
      <g id="그룹_63" data-name="그룹 63">
        <g id="그룹_62" data-name="그룹 62">
          <g id="그룹_47" data-name="그룹 47" transform="translate(-117.649 134.378) rotate(-45)">
            <path id="패스_119" data-name="패스 119" d="M474.089,415.927h-1.674a5.664,5.664,0,0,1-5.658-5.658v-1.406a17.311,17.311,0,0,1,1.961-8.666,45.585,45.585,0,0,1,5.491-7.378,32.515,32.515,0,0,0,3.734-4.5,7.57,7.57,0,0,0,1.179-4.187c0-3.493-2.276-5.191-6.957-5.191a28.251,28.251,0,0,0-7.669,1.151,6.456,6.456,0,0,1-8.228-6.208v-2.846a6.332,6.332,0,0,1,3.736-5.8A37.066,37.066,0,0,1,487.375,365a21.7,21.7,0,0,1,9.2,6.972,16.791,16.791,0,0,1,3.3,10.177,16.552,16.552,0,0,1-3.19,10.178,58.183,58.183,0,0,1-8.921,9.089,63.574,63.574,0,0,0-5.719,5.388,9.947,9.947,0,0,0-2.378,4.427,5.643,5.643,0,0,1-5.576,4.7Z" transform="translate(-338.5 -282)" fill="#7852e8"/>
            <path id="패스_120" data-name="패스 120" d="M481.1,518.381h-.221a10.486,10.486,0,1,1,0-20.973h.221a10.486,10.486,0,0,1,0,20.973Z" transform="translate(-346.439 -357.847)" fill="#7852e8"/>
          </g>
          <g id="그룹_54" data-name="그룹 54" transform="translate(-120.649 133.378) rotate(-45)">
            <path id="패스_119-2" data-name="패스 119" d="M474.089,415.927h-1.674a5.664,5.664,0,0,1-5.658-5.658v-1.406a17.311,17.311,0,0,1,1.961-8.666,45.585,45.585,0,0,1,5.491-7.378,32.515,32.515,0,0,0,3.734-4.5,7.57,7.57,0,0,0,1.179-4.187c0-3.493-2.276-5.191-6.957-5.191a28.251,28.251,0,0,0-7.669,1.151,6.456,6.456,0,0,1-8.228-6.208v-2.846a6.332,6.332,0,0,1,3.736-5.8A37.066,37.066,0,0,1,487.375,365a21.7,21.7,0,0,1,9.2,6.972,16.791,16.791,0,0,1,3.3,10.177,16.552,16.552,0,0,1-3.19,10.178,58.183,58.183,0,0,1-8.921,9.089,63.574,63.574,0,0,0-5.719,5.388,9.947,9.947,0,0,0-2.378,4.427,5.643,5.643,0,0,1-5.576,4.7Z" transform="translate(-338.5 -282)" fill="#d4c9ff"/>
            <path id="패스_120-2" data-name="패스 120" d="M481.1,518.381h-.221a10.486,10.486,0,1,1,0-20.973h.221a10.486,10.486,0,0,1,0,20.973Z" transform="translate(-346.439 -357.847)" fill="#d4c9ff"/>
          </g>
        </g>
        <g id="그룹_56" data-name="그룹 56" transform="translate(27 -36)">
          <g id="그룹_46" data-name="그룹 46" transform="translate(305.92 -70.764) rotate(22)">
            <path id="패스_119-3" data-name="패스 119" d="M478.809,430.081h-2.118a7.165,7.165,0,0,1-7.157-7.157v-1.778a21.9,21.9,0,0,1,2.48-10.961,57.659,57.659,0,0,1,6.946-9.332,41.133,41.133,0,0,0,4.723-5.692,9.576,9.576,0,0,0,1.492-5.3c0-4.418-2.878-6.566-8.8-6.566a35.734,35.734,0,0,0-9.7,1.456,8.166,8.166,0,0,1-10.407-7.852v-3.6a8.01,8.01,0,0,1,4.725-7.341,46.884,46.884,0,0,1,34.622-.3,27.447,27.447,0,0,1,11.636,8.819,21.239,21.239,0,0,1,4.173,12.872,20.936,20.936,0,0,1-4.035,12.874,73.591,73.591,0,0,1-11.284,11.5,80.414,80.414,0,0,0-7.234,6.815,12.581,12.581,0,0,0-3.008,5.6,7.137,7.137,0,0,1-7.053,5.944Z" transform="translate(-338.5 -282)" fill="#7852e8"/>
            <path id="패스_120-3" data-name="패스 120" d="M483.933,523.936h-.279a13.264,13.264,0,0,1,0-26.528h.279a13.264,13.264,0,0,1,0,26.528Z" transform="translate(-344.801 -342.201)" fill="#7852e8"/>
          </g>
          <g id="그룹_55" data-name="그룹 55" transform="translate(302.92 -73.764) rotate(22)">
            <path id="패스_119-4" data-name="패스 119" d="M478.809,430.081h-2.118a7.165,7.165,0,0,1-7.157-7.157v-1.778a21.9,21.9,0,0,1,2.48-10.961,57.659,57.659,0,0,1,6.946-9.332,41.133,41.133,0,0,0,4.723-5.692,9.576,9.576,0,0,0,1.492-5.3c0-4.418-2.878-6.566-8.8-6.566a35.734,35.734,0,0,0-9.7,1.456,8.166,8.166,0,0,1-10.407-7.852v-3.6a8.01,8.01,0,0,1,4.725-7.341,46.884,46.884,0,0,1,34.622-.3,27.447,27.447,0,0,1,11.636,8.819,21.239,21.239,0,0,1,4.173,12.872,20.936,20.936,0,0,1-4.035,12.874,73.591,73.591,0,0,1-11.284,11.5,80.414,80.414,0,0,0-7.234,6.815,12.581,12.581,0,0,0-3.008,5.6,7.137,7.137,0,0,1-7.053,5.944Z" transform="translate(-338.5 -282)" fill="#d4c9ff"/>
            <path id="패스_120-4" data-name="패스 120" d="M483.933,523.936h-.279a13.264,13.264,0,0,1,0-26.528h.279a13.264,13.264,0,0,1,0,26.528Z" transform="translate(-344.801 -342.201)" fill="#d4c9ff"/>
          </g>
        </g>
      </g>
    </g>
    <g id="그룹_49" data-name="그룹 49" transform="translate(-2 10)">
      <path id="패스_127" data-name="패스 127" d="M4,0H248a4,4,0,0,1,4,4v7a4,4,0,0,1-4,4H4a4,4,0,0,1-4-4V4A4,4,0,0,1,4,0Z" transform="translate(244 460)" fill="#d4c9ff"/>
      <path id="패스_148" data-name="패스 148" d="M-107.058-20.8a3.788,3.788,0,0,0-3.612-1.624,2.942,2.942,0,0,0-2.8,2.8V.168h5.1V-13.216l6.832,12.1A3.938,3.938,0,0,0-97.874.5,2.808,2.808,0,0,0-95.13-2.184v-17.64a2.5,2.5,0,0,0-2.548-2.66,2.5,2.5,0,0,0-2.548,2.66V-8.652ZM-92.442-7.056c0,6.02,4.4,7.756,8.12,7.756s8.12-1.736,8.12-7.756V-9.632c0-6.02-4.4-7.756-8.12-7.756-3.808,0-8.12,1.736-8.12,7.756ZM-81.83-6.8a2.474,2.474,0,0,1-2.492,2.772A2.474,2.474,0,0,1-86.814-6.8v-3.08a2.474,2.474,0,0,1,2.492-2.772A2.474,2.474,0,0,1-81.83-9.884ZM-71.638-5.1c0,4.228,2.156,5.74,5.88,5.74A5.3,5.3,0,0,0-63.1-.112a2.4,2.4,0,0,0,1.036-2.6,1.92,1.92,0,0,0-1.9-1.54c-.56,0-.812.14-1.232.112-.476-.028-.9-.224-.9-1.064v-6.944h1.652a2.206,2.206,0,0,0,2.464-2.3A2.243,2.243,0,0,0-64.442-16.8h-1.652v-2.912a2.624,2.624,0,0,0-2.772-2.772,2.624,2.624,0,0,0-2.772,2.772V-16.8h-.924a2.243,2.243,0,0,0-2.464,2.352,2.206,2.206,0,0,0,2.464,2.3h.924ZM-44.87.168v-12.32h1.6a2.193,2.193,0,0,0,2.464-2.3A2.23,2.23,0,0,0-43.274-16.8h-1.6v-.784c0-.868.28-1.148.84-1.148a4.411,4.411,0,0,1,.784.084,5.585,5.585,0,0,0,1.148.14,2.115,2.115,0,0,0,1.9-1.6,2.222,2.222,0,0,0-.952-2.6,6.31,6.31,0,0,0-3.22-.784c-4.032,0-6.216,1.568-6.216,6.076v.616h-.952A2.23,2.23,0,0,0-54-14.448a2.193,2.193,0,0,0,2.464,2.3h.952V.168Zm5.124-7.224c0,6.02,4.4,7.756,8.12,7.756s8.12-1.736,8.12-7.756V-9.632c0-6.02-4.4-7.756-8.12-7.756-3.808,0-8.12,1.736-8.12,7.756Zm10.612.252a2.474,2.474,0,0,1-2.492,2.772A2.474,2.474,0,0,1-34.118-6.8v-3.08a2.474,2.474,0,0,1,2.492-2.772,2.474,2.474,0,0,1,2.492,2.772ZM-14.63.644a5.752,5.752,0,0,0,4.76-2.3l.308,1.82H-5.11V-14.56a2.607,2.607,0,0,0-2.856-2.772,2.6,2.6,0,0,0-2.828,2.772v8.008a2.254,2.254,0,0,1-2.24,2.408,2.256,2.256,0,0,1-2.212-2.548v-7.84a2.635,2.635,0,0,0-2.884-2.8,2.635,2.635,0,0,0-2.884,2.8v7.5C-21.014-1.12-18.186.644-14.63.644Zm18-.476V-10a2.274,2.274,0,0,1,2.24-2.548A2.256,2.256,0,0,1,7.826-10V.168h5.768V-9.66c0-5.908-2.828-7.672-6.384-7.672a6.085,6.085,0,0,0-4.088,1.54,2.8,2.8,0,0,0-2.6-1.54,2.678,2.678,0,0,0-2.828,2.8V.168Zm28.952,0v-20.86a2.678,2.678,0,0,0-2.828-2.8,2.7,2.7,0,0,0-2.856,2.8v4.676a5.781,5.781,0,0,0-3.78-1.316c-3.7,0-6.832,1.82-6.832,7.728v2.52c0,5.908,3.136,7.728,6.832,7.728a5.683,5.683,0,0,0,4.7-2.3l.308,1.82ZM21.8-10a2.375,2.375,0,0,1,2.408-2.548,2.4,2.4,0,0,1,2.436,2.408v3.584a2.4,2.4,0,0,1-2.436,2.408A2.375,2.375,0,0,1,21.8-6.692ZM48.762,5.1V-.5A6.7,6.7,0,0,0,52.542.644c3.7,0,6.832-1.82,6.832-7.728V-9.6c0-5.908-3.136-7.728-6.832-7.728a6.1,6.1,0,0,0-4.032,1.54,2.8,2.8,0,0,0-2.6-1.54,2.678,2.678,0,0,0-2.828,2.8V5.1ZM53.606-6.692A2.375,2.375,0,0,1,51.2-4.144a2.384,2.384,0,0,1-2.436-2.408V-10A2.4,2.4,0,0,1,51.2-12.544,2.375,2.375,0,0,1,53.606-10ZM76.9.168V-9.856c0-6.048-3.584-7.476-7.644-7.476a10.314,10.314,0,0,0-5.74,1.512,2.381,2.381,0,0,0-.9,3,2.278,2.278,0,0,0,3,1.008,12.3,12.3,0,0,1,1.316-.56,6.41,6.41,0,0,1,1.876-.308c1.344,0,2.52.448,2.576,2.1H68.5c-3.64,0-6.86,1.344-6.86,5.572,0,4.4,3.416,5.656,5.74,5.656H68a6.187,6.187,0,0,0,4.256-1.652L72.478.168ZM71.386-5.46c0,1.176-1.2,1.792-2.24,1.792h-.392c-.98,0-1.568-.448-1.568-1.372,0-.9.588-1.428,1.652-1.428h2.548ZM95.578-1.932v-12.6a2.657,2.657,0,0,0-2.8-2.8,2.727,2.727,0,0,0-2.6,1.568,5.872,5.872,0,0,0-4-1.568c-3.7,0-6.776,1.82-6.776,7.728v1.232c0,5.852,3.052,7.616,6.748,7.616A5.488,5.488,0,0,0,90.174-2.3v.5c0,1.26-1.036,2.52-3.416,2.52A19.133,19.133,0,0,1,84.014.476,2.079,2.079,0,0,0,81.8,1.82a2.312,2.312,0,0,0,.9,2.688,9.61,9.61,0,0,0,4.06.756C94.29,4.956,95.578,1.148,95.578-1.932ZM85.162-10a2.355,2.355,0,0,1,2.38-2.548,2.378,2.378,0,0,1,2.408,2.408v2.408A2.378,2.378,0,0,1,87.542-5.32a2.355,2.355,0,0,1-2.38-2.548ZM106.778.644a10.919,10.919,0,0,0,4.928-1.12c1.344-.784,2.016-1.96,1.428-3.332a2.012,2.012,0,0,0-2.212-1.064,6.571,6.571,0,0,0-1.316.42,7.426,7.426,0,0,1-2.716.364c-1.344,0-3.192-.644-3.192-2.548v-.028h10.024a12.091,12.091,0,0,0,.14-1.736c0-7.42-3.836-8.932-7.728-8.932-3.584,0-7.98,1.792-7.98,7.756v2.464C98.154-1.26,102.718.644,106.778.644Zm-.616-13.44a2.089,2.089,0,0,1,2.268,2.464H103.7A2.269,2.269,0,0,1,106.162-12.8Z" transform="translate(370 466)" fill="#555"/>
      <path id="패스_147" data-name="패스 147" d="M-37.648-15.392c-1.4,0-1.82-.312-1.508-1.456l5.772-19.188a4.656,4.656,0,0,0-4.264-5.772c-2.652-.312-4.784,1.092-5.668,4.264l-6.6,21.788c-1.508,5.356.988,8.892,7.28,8.892h10.66V.312h9.62V-6.864h4.68v-8.528h-4.68V-27.508a4.49,4.49,0,0,0-4.784-4.68,4.531,4.531,0,0,0-4.836,4.68v12.116ZM0,1.3c8.216,0,14.56-4.732,14.56-13.936V-27.872c0-9.152-6.344-13.936-14.56-13.936s-14.56,4.784-14.56,13.936v15.236C-14.56-3.432-8.216,1.3,0,1.3ZM0-7.54c-1.82,0-4.108-1.04-4.108-4.368V-28.6A4.011,4.011,0,0,1,0-32.968,4.011,4.011,0,0,1,4.108-28.6v16.692C4.108-8.58,1.82-7.54,0-7.54Zm30.316-7.852c-1.4,0-1.82-.312-1.508-1.456L34.58-36.036a4.656,4.656,0,0,0-4.264-5.772c-2.652-.312-4.784,1.092-5.668,4.264l-6.6,21.788c-1.508,5.356.988,8.892,7.28,8.892h10.66V.312H45.6V-6.864h4.68v-8.528H45.6V-27.508a4.49,4.49,0,0,0-4.784-4.68,4.531,4.531,0,0,0-4.836,4.68v12.116Z" transform="translate(434 425)" fill="#555"/>
    </g>
    <g id="그룹_14" data-name="그룹 14" transform="translate(-1253.76 -111.986) rotate(-1)">
      <g id="그룹_9" data-name="그룹 9" transform="translate(1424.716 369.893)">
        <path id="패스_11" data-name="패스 11" d="M8-124.766c4.99-.052,8.895-.16,12.17,1.58a11.742,11.742,0,0,1,2.4,1.7,11.743,11.743,0,0,1-.124,17.265,12.6,12.6,0,0,1-2.743,1.8,16.9,16.9,0,0,1-7.568,1.356v9.6H1.9v-33.266Zm4.135,14.458c1.662-.02,2.5-.174,3.042-.63a2.916,2.916,0,0,0,.017-3.948c-.569-.454-1.415-.6-3.059-.609Z" transform="translate(-1.9 124.788)" fill="#f8b450" opacity="0.999"/>
        <path id="패스_10-2" data-name="패스 10" d="M17.2-100.162h2.985a6,6,0,0,0,4.33-1.387,4.973,4.973,0,0,0,1.429-3.741,4.713,4.713,0,0,0-1.429-3.636,5.979,5.979,0,0,0-4.2-1.324H17.2ZM11.9-114.58h8.869a11,11,0,0,1,7.671,2.606,8.609,8.609,0,0,1,2.879,6.684,8.59,8.59,0,0,1-2.963,6.873A11.052,11.052,0,0,1,20.9-95.874H17.2v9.626H11.9Z" transform="translate(-9.427 117.104)" fill="#b67c48" opacity="0.999"/>
      </g>
      <path id="패스_11-2" data-name="패스 11" d="M8-124.766c4.99-.052,8.895-.16,12.17,1.58a11.742,11.742,0,0,1,2.4,1.7,11.743,11.743,0,0,1-.124,17.265,12.6,12.6,0,0,1-2.743,1.8,16.9,16.9,0,0,1-7.568,1.356v9.6H1.9v-33.266Zm4.135,14.458c1.662-.02,2.5-.174,3.042-.63a2.916,2.916,0,0,0,.017-3.948c-.569-.454-1.415-.6-3.059-.609Z" transform="translate(1405.1 501.793)" fill="#f8b450" opacity="0.999"/>
      <path id="패스_10-3" data-name="패스 10" d="M17.2-100.162h2.985a6,6,0,0,0,4.33-1.387,4.973,4.973,0,0,0,1.429-3.741,4.713,4.713,0,0,0-1.429-3.636,5.979,5.979,0,0,0-4.2-1.324H17.2ZM11.9-114.58h8.869a11,11,0,0,1,7.671,2.606,8.609,8.609,0,0,1,2.879,6.684,8.59,8.59,0,0,1-2.963,6.873A11.052,11.052,0,0,1,20.9-95.874H17.2v9.626H11.9Z" transform="translate(1397.573 494.109)" fill="#b67c48" opacity="0.999"/>
    </g>
  </g>
</svg>
