<svg xmlns="http://www.w3.org/2000/svg" width="640" height="360" viewBox="0 0 640 360"><g transform="translate(-2356 -96)"><rect width="640" height="360" transform="translate(2356 96)" fill="#f5f5f5"/><g transform="translate(94.569 20.87)"><path d="M17.562-54.753h5.281q5.132,0,7.661-2.455a8.8,8.8,0,0,0,2.529-6.62A8.339,8.339,0,0,0,30.5-70.261Q27.975-72.6,23.066-72.6h-5.5ZM8.19-80.264H23.884q8.479,0,13.574,4.611a15.233,15.233,0,0,1,5.095,11.826q0,7.661-5.244,12.161a19.556,19.556,0,0,1-13.2,4.5H17.562v17.033H8.19ZM69.924-46.348H65.313a8.556,8.556,0,0,0-5.355,1.45A4.479,4.479,0,0,0,58.1-41.216q0,4.76,5.5,4.76A6.131,6.131,0,0,0,68.251-38.2a6.339,6.339,0,0,0,1.674-4.574Zm-18.3-11.306v-8.256q4.24-2.6,12.2-2.6,15.322,0,15.322,14.281v24.1H70.3V-34.67q-2.6,4.835-9.818,4.835a11.586,11.586,0,0,1-8.516-3.124A10.621,10.621,0,0,1,48.8-40.844a9.969,9.969,0,0,1,4.016-8.4q4.016-3.05,11.6-3.05h5.5V-54.6a6.448,6.448,0,0,0-1.636-4.76Q66.652-61,62.71-61A19.671,19.671,0,0,0,51.627-57.653Zm48.718,26.776L85.47-67.843h9.892L99.75-55.794q2.008,5.355,3.235,9t1.525,4.611l.223,1.041q.744-2.6,4.76-14.653l3.942-12.049h9.372L109.2-31.174q-5.653,15.1-17.256,15.1a16.235,16.235,0,0,1-3.719-.372v-7.364a10.4,10.4,0,0,0,2.529.3Q97.519-23.513,100.345-30.877Zm47.751-6.4a8.07,8.07,0,0,0,6.545-3.087q2.529-3.087,2.529-8.665t-2.529-8.665a7.922,7.922,0,0,0-6.4-3.087,9.036,9.036,0,0,0-6.694,2.9q-2.826,2.9-2.826,8.628t2.752,8.851A8.524,8.524,0,0,0,148.1-37.274Zm-9.372-30.57v5.8a12.868,12.868,0,0,1,11.529-6.322,14.392,14.392,0,0,1,11.715,5.281q4.351,5.281,4.351,13.909,0,8.479-4.351,14.02a14.2,14.2,0,0,1-11.789,5.541,12.658,12.658,0,0,1-11.454-6.173v19.859H129.8V-67.843Zm37.115,37.71V-82.719h8.925v52.586Zm43.14-21.942v-1.116a9.48,9.48,0,0,0-1.971-5.839,6.518,6.518,0,0,0-5.318-2.194,7.576,7.576,0,0,0-5.541,2.343,11.816,11.816,0,0,0-3.012,6.806Zm6.1,12.124v7.735q-3.942,2.455-11.38,2.455-9,0-14.206-5.355t-5.207-13.834q0-9,4.909-14.132a16.281,16.281,0,0,1,12.273-5.132q7.364,0,11.678,4.463t4.314,13.016a35.493,35.493,0,0,1-.521,5.355H203.286a10.142,10.142,0,0,0,4.054,6.248,13.116,13.116,0,0,0,7.7,2.157A16.612,16.612,0,0,0,225.079-39.951Z" transform="translate(2529.509 307.594)" fill="#ccc"/><g transform="translate(2426.9 222.42)"><g transform="translate(24.972 114.58)" fill="#ccc" opacity="0.999"><path d="M 30.51706123352051 -36.73956680297852 L 25.51706123352051 -36.73956680297852 L 11.90000534057617 -36.73956680297852 L 6.900004863739014 -36.73956680297852 L 6.900004863739014 -41.73956680297852 L 6.900004863739014 -114.5799942016602 L 6.900004863739014 -119.5799942016602 L 11.90000534057617 -119.5799942016602 L 34.70316314697266 -119.5799942016602 C 44.15674591064453 -119.5799942016602 51.92143249511719 -116.890625 57.78154754638672 -111.5865859985352 C 60.77273178100586 -108.8792419433594 63.05684661865234 -105.72509765625 64.57044982910156 -102.2117691040039 C 66.06924438476562 -98.73281097412109 66.82920837402344 -94.8583984375 66.82920837402344 -90.69612884521484 C 66.82920837402344 -86.31816864013672 66.05086517333984 -82.29326629638672 64.51579284667969 -78.73322296142578 C 62.9481201171875 -75.09754180908203 60.57632064819336 -71.90087127685547 57.46630477905273 -69.23197937011719 C 51.47846221923828 -64.09346771240234 43.92890548706055 -61.4880256652832 35.02737808227539 -61.4880256652832 L 30.51706123352051 -61.4880256652832 L 30.51706123352051 -41.73956680297852 L 30.51706123352051 -36.73956680297852 Z M 30.51706123352051 -82.5113525390625 L 33.19016265869141 -82.5113525390625 C 36.79289245605469 -82.5113525390625 39.36639022827148 -83.23615264892578 40.83920669555664 -84.66562652587891 C 41.54137802124023 -85.34715270996094 42.05409240722656 -86.12705230712891 42.40662002563477 -87.04985046386719 C 42.79770660400391 -88.07358551025391 42.99600601196289 -89.30036926269531 42.99600601196289 -90.69612884521484 C 42.99600601196289 -94.06656646728516 41.81316375732422 -95.55222320556641 40.92344665527344 -96.37651062011719 C 39.43939208984375 -97.75145721435547 36.94662094116211 -98.44859313964844 33.51437759399414 -98.44859313964844 L 30.51706123352051 -98.44859313964844 L 30.51706123352051 -82.5113525390625 Z" stroke="none"/><path d="M 25.51706504821777 -41.73956298828125 L 25.51706504821777 -66.48802185058594 L 35.02738571166992 -66.48802185058594 C 42.73650360107422 -66.48802185058594 49.13076400756836 -68.66748046875 54.21014404296875 -73.02635955810547 C 59.28950500488281 -77.38526153564453 61.82920455932617 -83.27518463134766 61.82920455932617 -90.69612121582031 C 61.82920455932617 -97.68476104736328 59.36156463623047 -103.4125823974609 54.42628479003906 -107.8795394897461 C 49.49100494384766 -112.3465042114258 42.9166259765625 -114.5800018310547 34.70316314697266 -114.5800018310547 L 11.90000534057617 -114.5800018310547 L 11.90000534057617 -41.73956298828125 L 25.51706504821777 -41.73956298828125 M 25.51706504821777 -103.4485855102539 L 33.51436614990234 -103.4485855102539 C 38.26954650878906 -103.4485855102539 41.87192535400391 -102.3138427734375 44.32156372070312 -100.044319152832 C 46.77118682861328 -97.77482604980469 47.99600601196289 -94.65874481201172 47.99600601196289 -90.69612121582031 C 47.99600601196289 -86.66144561767578 46.77118682861328 -83.45529937744141 44.32156372070312 -81.07772064208984 C 41.87192535400391 -78.70014190673828 38.16146469116211 -77.51136016845703 33.19016647338867 -77.51136016845703 L 25.51706504821777 -77.51136016845703 L 25.51706504821777 -103.4485855102539 M 35.51706314086914 -31.73956298828125 L 25.51706504821777 -31.73956298828125 L 11.90000534057617 -31.73956298828125 L 1.900004982948303 -31.73956298828125 L 1.900004982948303 -41.73956298828125 L 1.900004982948303 -114.5800018310547 L 1.900004982948303 -124.5800018310547 L 11.90000534057617 -124.5800018310547 L 34.70316314697266 -124.5800018310547 C 45.43524551391602 -124.5800018310547 54.32880401611328 -121.4556198120117 61.13682556152344 -115.2936248779297 C 68.13184356689453 -108.9623794555664 71.82920837402344 -100.4567031860352 71.82920837402344 -90.69612121582031 C 71.82920837402344 -80.40730285644531 67.98856353759766 -71.67304229736328 60.72250366210938 -65.43759918212891 C 53.91431427001953 -59.59513473510742 45.43582153320312 -56.58618927001953 35.51706314086914 -56.49037933349609 L 35.51706314086914 -41.73956298828125 L 35.51706314086914 -31.73956298828125 Z M 35.51706314086914 -93.32546234130859 L 35.51706314086914 -87.6695556640625 C 36.66913604736328 -87.84723663330078 37.22668838500977 -88.12723541259766 37.35682678222656 -88.2535400390625 C 37.53162384033203 -88.42320251464844 37.99600601196289 -88.87392425537109 37.99600601196289 -90.69612121582031 C 37.99600601196289 -91.74222564697266 37.837646484375 -92.41936492919922 37.52534484863281 -92.70870208740234 C 37.37051010131836 -92.85214996337891 36.7632942199707 -93.15506744384766 35.51706314086914 -93.32546234130859 Z" stroke="none" fill="#fff"/></g><g transform="translate(-11.9 114.58)" fill="#ccc" opacity="0.999"><path d="M 30.51706123352051 -36.73956680297852 L 25.51706123352051 -36.73956680297852 L 11.90000534057617 -36.73956680297852 L 6.900004863739014 -36.73956680297852 L 6.900004863739014 -41.73956680297852 L 6.900004863739014 -114.5799942016602 L 6.900004863739014 -119.5799942016602 L 11.90000534057617 -119.5799942016602 L 34.70316314697266 -119.5799942016602 C 44.15674591064453 -119.5799942016602 51.92143249511719 -116.890625 57.78154754638672 -111.5865859985352 C 60.77273178100586 -108.8792419433594 63.05684661865234 -105.72509765625 64.57044982910156 -102.2117691040039 C 66.06924438476562 -98.73281097412109 66.82920837402344 -94.8583984375 66.82920837402344 -90.69612884521484 C 66.82920837402344 -86.31816864013672 66.05086517333984 -82.29326629638672 64.51579284667969 -78.73322296142578 C 62.9481201171875 -75.09754180908203 60.57632064819336 -71.90087127685547 57.46630477905273 -69.23197937011719 C 51.47846221923828 -64.09346771240234 43.92890548706055 -61.4880256652832 35.02737808227539 -61.4880256652832 L 30.51706123352051 -61.4880256652832 L 30.51706123352051 -41.73956680297852 L 30.51706123352051 -36.73956680297852 Z M 30.51706123352051 -82.5113525390625 L 33.19016265869141 -82.5113525390625 C 36.79289245605469 -82.5113525390625 39.36639022827148 -83.23615264892578 40.83920669555664 -84.66562652587891 C 41.54137802124023 -85.34715270996094 42.05409240722656 -86.12705230712891 42.40662002563477 -87.04985046386719 C 42.79770660400391 -88.07358551025391 42.99600601196289 -89.30036926269531 42.99600601196289 -90.69612884521484 C 42.99600601196289 -94.06656646728516 41.81316375732422 -95.55222320556641 40.92344665527344 -96.37651062011719 C 39.43939208984375 -97.75145721435547 36.94662094116211 -98.44859313964844 33.51437759399414 -98.44859313964844 L 30.51706123352051 -98.44859313964844 L 30.51706123352051 -82.5113525390625 Z" stroke="none"/><path d="M 25.51706504821777 -41.73956298828125 L 25.51706504821777 -66.48802185058594 L 35.02738571166992 -66.48802185058594 C 42.73650360107422 -66.48802185058594 49.13076400756836 -68.66748046875 54.21014404296875 -73.02635955810547 C 59.28950500488281 -77.38526153564453 61.82920455932617 -83.27518463134766 61.82920455932617 -90.69612121582031 C 61.82920455932617 -97.68476104736328 59.36156463623047 -103.4125823974609 54.42628479003906 -107.8795394897461 C 49.49100494384766 -112.3465042114258 42.9166259765625 -114.5800018310547 34.70316314697266 -114.5800018310547 L 11.90000534057617 -114.5800018310547 L 11.90000534057617 -41.73956298828125 L 25.51706504821777 -41.73956298828125 M 25.51706504821777 -103.4485855102539 L 33.51436614990234 -103.4485855102539 C 38.26954650878906 -103.4485855102539 41.87192535400391 -102.3138427734375 44.32156372070312 -100.044319152832 C 46.77118682861328 -97.77482604980469 47.99600601196289 -94.65874481201172 47.99600601196289 -90.69612121582031 C 47.99600601196289 -86.66144561767578 46.77118682861328 -83.45529937744141 44.32156372070312 -81.07772064208984 C 41.87192535400391 -78.70014190673828 38.16146469116211 -77.51136016845703 33.19016647338867 -77.51136016845703 L 25.51706504821777 -77.51136016845703 L 25.51706504821777 -103.4485855102539 M 35.51706314086914 -31.73956298828125 L 25.51706504821777 -31.73956298828125 L 11.90000534057617 -31.73956298828125 L 1.900004982948303 -31.73956298828125 L 1.900004982948303 -41.73956298828125 L 1.900004982948303 -114.5800018310547 L 1.900004982948303 -124.5800018310547 L 11.90000534057617 -124.5800018310547 L 34.70316314697266 -124.5800018310547 C 45.43524551391602 -124.5800018310547 54.32880401611328 -121.4556198120117 61.13682556152344 -115.2936248779297 C 68.13184356689453 -108.9623794555664 71.82920837402344 -100.4567031860352 71.82920837402344 -90.69612121582031 C 71.82920837402344 -80.40730285644531 67.98856353759766 -71.67304229736328 60.72250366210938 -65.43759918212891 C 53.91431427001953 -59.59513473510742 45.43582153320312 -56.58618927001953 35.51706314086914 -56.49037933349609 L 35.51706314086914 -41.73956298828125 L 35.51706314086914 -31.73956298828125 Z M 35.51706314086914 -93.32546234130859 L 35.51706314086914 -87.6695556640625 C 36.66913604736328 -87.84723663330078 37.22668838500977 -88.12723541259766 37.35682678222656 -88.2535400390625 C 37.53162384033203 -88.42320251464844 37.99600601196289 -88.87392425537109 37.99600601196289 -90.69612121582031 C 37.99600601196289 -91.74222564697266 37.837646484375 -92.41936492919922 37.52534484863281 -92.70870208740234 C 37.37051010131836 -92.85214996337891 36.7632942199707 -93.15506744384766 35.51706314086914 -93.32546234130859 Z" stroke="none" fill="#fff"/></g></g></g></g></svg>