<svg xmlns="http://www.w3.org/2000/svg" width="140.8" height="163.288" viewBox="0 0 140.8 163.288">
  <g id="그룹_227" data-name="그룹 227" transform="translate(-29.792 -12)">
    <g id="그룹_42" data-name="그룹 42" transform="translate(-77 -697)">
      <circle id="타원_1" data-name="타원 1" cx="59.5" cy="59.5" r="59.5" transform="translate(119 709)" fill="#fff"/>
      <g id="그룹_41" data-name="그룹 41" transform="translate(119 709)">
        <g id="그룹_37" data-name="그룹 37" transform="translate(0)">
          <g id="그룹_36" data-name="그룹 36">
            <g id="그룹_35" data-name="그룹 35">
              <g id="그룹_34" data-name="그룹 34">
                <g id="그룹_33" data-name="그룹 33">
                  <g id="그룹_32" data-name="그룹 32">
                    <g id="그룹_30" data-name="그룹 30">
                      <path id="패스_73" data-name="패스 73" d="M474.193,385.386c-10.03-6.817-22.873-4.036-29.612,6.216a20.839,20.839,0,0,1-37.671-5.728h0c-.021-.081-.038-.144-.06-.218s-.05-.175-.068-.266a26.742,26.742,0,0,1-1.066-8.278c0-18.675,19.156-39.467,46.756-39.467,28.256,0,44.427,21.514,48.592,33.47-.076-.21-.137-.42-.215-.636a59.51,59.51,0,0,0-115.8,19.306c0,29.374,21.189,54.518,50.576,54.518,23.438,0,39.19-13.144,46.417-31.252C486,403.145,483.195,391.5,474.193,385.386Z" transform="translate(-385.045 -330.281)" fill="#002c52"/>
                    </g>
                    <g id="그룹_31" data-name="그룹 31" transform="translate(20.667 7.363)">
                      <path id="패스_74" data-name="패스 74" d="M493.266,369.366c-3.476-11.661-19.764-34.63-48.96-34.63-27.6,0-46.756,20.792-46.756,39.467a26.742,26.742,0,0,0,1.066,8.278,17.522,17.522,0,0,1-.552-4.246c0-19.449,19.475-32.923,39.494-32.923a49.061,49.061,0,0,1,49.061,49.058,54.086,54.086,0,0,1-29.981,48.459l0,.012a59.522,59.522,0,0,0,39.242-55.966A58.736,58.736,0,0,0,493.266,369.366Z" transform="translate(-397.55 -334.736)" fill="#e5002b"/>
                    </g>
                  </g>
                </g>
              </g>
            </g>
          </g>
        </g>
      </g>
    </g>
    <path id="패스_559" data-name="패스 559" d="M21.888-15.424v-5.824H3.84v-3.008h21.5v8.832Zm5.5,1.952v3.008H1.792v-3.008ZM21.92-5.024H7.264V-.416H21.92ZM3.84-7.968h21.5V2.56H3.84Zm43.392-11.9a3.228,3.228,0,0,0-1.008-2.416,3.389,3.389,0,0,0-2.448-.976,3.389,3.389,0,0,0-2.448.976,3.228,3.228,0,0,0-1.008,2.416,3.228,3.228,0,0,0,1.008,2.416,3.389,3.389,0,0,0,2.448.976,3.389,3.389,0,0,0,2.448-.976A3.228,3.228,0,0,0,47.232-19.872Zm3.424,0a5.627,5.627,0,0,1-.544,2.432,6.551,6.551,0,0,1-1.472,2.016,7.558,7.558,0,0,1-2.208,1.376,6.929,6.929,0,0,1-2.656.512,6.929,6.929,0,0,1-2.656-.512,7.559,7.559,0,0,1-2.208-1.376A6.551,6.551,0,0,1,37.44-17.44a5.627,5.627,0,0,1-.544-2.432A5.627,5.627,0,0,1,37.44-22.3a6.551,6.551,0,0,1,1.472-2.016A7.559,7.559,0,0,1,41.12-25.7a6.929,6.929,0,0,1,2.656-.512,6.929,6.929,0,0,1,2.656.512A7.558,7.558,0,0,1,48.64-24.32,6.551,6.551,0,0,1,50.112-22.3,5.627,5.627,0,0,1,50.656-19.872Zm5.92,7.2V-9.7h-4.7V-7.04H48.448V-9.7H39.1V-7.04H35.68V-9.7h-4.7v-2.976ZM47.232-2.048a3.228,3.228,0,0,0-1.008-2.416,3.389,3.389,0,0,0-2.448-.976,3.389,3.389,0,0,0-2.448.976A3.228,3.228,0,0,0,40.32-2.048,3.228,3.228,0,0,0,41.328.368a3.389,3.389,0,0,0,2.448.976A3.389,3.389,0,0,0,46.224.368,3.228,3.228,0,0,0,47.232-2.048Zm3.424,0A5.627,5.627,0,0,1,50.112.384,6.551,6.551,0,0,1,48.64,2.4a7.558,7.558,0,0,1-2.208,1.376,6.929,6.929,0,0,1-2.656.512,6.929,6.929,0,0,1-2.656-.512A7.559,7.559,0,0,1,38.912,2.4,6.551,6.551,0,0,1,37.44.384,5.627,5.627,0,0,1,36.9-2.048,5.627,5.627,0,0,1,37.44-4.48,6.551,6.551,0,0,1,38.912-6.5,7.559,7.559,0,0,1,41.12-7.872a6.929,6.929,0,0,1,2.656-.512,6.929,6.929,0,0,1,2.656.512A7.558,7.558,0,0,1,48.64-6.5,6.551,6.551,0,0,1,50.112-4.48,5.627,5.627,0,0,1,50.656-2.048ZM73.248-17.28a3.884,3.884,0,0,0-1.216-2.864,4,4,0,0,0-2.912-1.2,3.946,3.946,0,0,0-2.9,1.2,3.909,3.909,0,0,0-1.2,2.864,3.909,3.909,0,0,0,1.2,2.864,3.946,3.946,0,0,0,2.9,1.2,4,4,0,0,0,2.912-1.2A3.884,3.884,0,0,0,73.248-17.28Zm3.392,0a6.4,6.4,0,0,1-.592,2.72,7.163,7.163,0,0,1-1.616,2.24,7.732,7.732,0,0,1-2.4,1.52,7.651,7.651,0,0,1-2.912.56,7.651,7.651,0,0,1-2.912-.56,7.732,7.732,0,0,1-2.4-1.52,7.163,7.163,0,0,1-1.616-2.24,6.4,6.4,0,0,1-.592-2.72A6.4,6.4,0,0,1,62.192-20a7.163,7.163,0,0,1,1.616-2.24,7.732,7.732,0,0,1,2.4-1.52,7.651,7.651,0,0,1,2.912-.56,7.651,7.651,0,0,1,2.912.56,7.732,7.732,0,0,1,2.4,1.52A7.163,7.163,0,0,1,76.048-20,6.4,6.4,0,0,1,76.64-17.28ZM78.56-5.408H70.88V2.144H67.424V-5.408H60.032V-8.48H78.56Zm2.208-19.424h3.456V3.04H80.768ZM101.92-18.72a3.321,3.321,0,0,0-1.072-2.5A3.558,3.558,0,0,0,98.3-22.24a3.558,3.558,0,0,0-2.544,1.024,3.321,3.321,0,0,0-1.072,2.5,3.321,3.321,0,0,0,1.072,2.5A3.558,3.558,0,0,0,98.3-15.2a3.558,3.558,0,0,0,2.544-1.024A3.321,3.321,0,0,0,101.92-18.72Zm3.36,0a5.735,5.735,0,0,1-.56,2.512,7.132,7.132,0,0,1-1.488,2.064,7.5,7.5,0,0,1-2.224,1.376,7.133,7.133,0,0,1-2.7.512,7.133,7.133,0,0,1-2.7-.512,7.5,7.5,0,0,1-2.224-1.376,7.132,7.132,0,0,1-1.488-2.064,5.735,5.735,0,0,1-.56-2.512,5.735,5.735,0,0,1,.56-2.512A7.132,7.132,0,0,1,93.376-23.3,7.5,7.5,0,0,1,95.6-24.672a7.133,7.133,0,0,1,2.7-.512,7.133,7.133,0,0,1,2.7.512,7.5,7.5,0,0,1,2.224,1.376,7.132,7.132,0,0,1,1.488,2.064A5.735,5.735,0,0,1,105.28-18.72ZM107.744-8.1h-7.392v4.224H96.9V-8.1h-7.68v-3.04h18.528Zm2.208-16.736h3.456v21.28h-3.456V-13.824H106.08v-3.008h3.872ZM91.1,2.56V-5.408H94.56v4.96h19.168V2.56Zm34.528-24.608v-2.976h3.744v2.976H136v2.976H118.976v-2.976Zm5.344,9.728a3.207,3.207,0,0,0-1.008-2.368,3.36,3.36,0,0,0-2.448-.992,3.307,3.307,0,0,0-2.432.992,3.232,3.232,0,0,0-.992,2.368,3.232,3.232,0,0,0,.992,2.368,3.307,3.307,0,0,0,2.432.992,3.36,3.36,0,0,0,2.448-.992A3.207,3.207,0,0,0,130.976-12.32Zm3.36,0a5.769,5.769,0,0,1-.528,2.432,6.335,6.335,0,0,1-1.456,2.016,6.67,6.67,0,0,1-2.176,1.344,7.445,7.445,0,0,1-.928.288v3.52h7.68V.32H118.4V-2.72h7.392V-6.24a7.445,7.445,0,0,1-.928-.288,6.67,6.67,0,0,1-2.176-1.344,6.335,6.335,0,0,1-1.456-2.016,5.769,5.769,0,0,1-.528-2.432,5.769,5.769,0,0,1,.528-2.432,6.335,6.335,0,0,1,1.456-2.016,6.67,6.67,0,0,1,2.176-1.344,7.334,7.334,0,0,1,2.656-.48,7.334,7.334,0,0,1,2.656.48,6.67,6.67,0,0,1,2.176,1.344,6.335,6.335,0,0,1,1.456,2.016A5.769,5.769,0,0,1,134.336-12.32Zm4.8-12.512h3.456V3.04h-3.456Z" transform="translate(28 171)" fill="#fff"/>
  </g>
</svg>
