<svg xmlns="http://www.w3.org/2000/svg" width="20" height="60" viewBox="0 0 20 60"><g transform="translate(-1144 -251)"><g transform="translate(1144 291)"><path d="M10,19.5A9.5,9.5,0,1,1,19.5,10,9.511,9.511,0,0,1,10,19.5Z" fill="#eee"/><path d="M10,1a9,9,0,1,0,9,9,9.01,9.01,0,0,0-9-9m0-1A10,10,0,1,1,0,10,10,10,0,0,1,10,0Z" fill="#ccc"/></g><g transform="translate(1144 271)"><path d="M10,0A10,10,0,1,1,0,10,10,10,0,0,1,10,0Z" fill="none"/><path d="M10,1a9,9,0,1,0,9,9,9.01,9.01,0,0,0-9-9m0-1A10,10,0,1,1,0,10,10,10,0,0,1,10,0Z" fill="#7852e8"/></g><g transform="translate(1144 251)"><path d="M10,0A10,10,0,0,1,20,10a10.47,10.47,0,0,1-.534,3.231A10,10,0,1,1,10,0Z" fill="none"/><path d="M10,1a9,9,0,1,0,5.395,16.233,8.477,8.477,0,0,0,3.115-4.293v0A9.437,9.437,0,0,0,19,10a9.01,9.01,0,0,0-9-9m0-1A10,10,0,0,1,20,10a10.47,10.47,0,0,1-.534,3.231A10,10,0,1,1,10,0Z" fill="#ccc"/></g><g transform="translate(1148 275)" fill="#7852e8" stroke="#7852e8" stroke-width="1"><circle cx="6" cy="6" r="6" stroke="none"/><circle cx="6" cy="6" r="5.5" fill="none"/></g><g transform="translate(1148 295)" fill="#ccc" stroke="#ccc" stroke-width="1"><circle cx="6" cy="6" r="6" stroke="none"/><circle cx="6" cy="6" r="5.5" fill="none"/></g></g></svg>