<svg xmlns="http://www.w3.org/2000/svg" width="20" height="60" viewBox="0 0 20 60"><g transform="translate(-1038 -251)"><g transform="translate(1038 456)"><g transform="translate(0 -205)" fill="#fff" stroke="#ccc" stroke-width="1"><rect width="20" height="20" rx="4" stroke="none"/><rect x="0.5" y="0.5" width="19" height="19" rx="3.5" fill="none"/></g></g><g transform="translate(671 -819)"><rect width="20" height="20" rx="4" transform="translate(367 1090)" fill="#7852e8"/><path d="M3.448,6.975h0a.765.765,0,0,1-.493-.191L.2,4.108a.734.734,0,0,1,0-1.051.8.8,0,0,1,1.084.1l2.167,2.1L8.67.19a.79.79,0,0,1,1.084,0,.734.734,0,0,1,0,1.051L3.941,6.784a.765.765,0,0,1-.493.191Z" transform="translate(372.025 1097.025)" fill="#fff"/></g><g transform="translate(1008 496)"><g transform="translate(30 -205)" fill="#eee" stroke="#ccc" stroke-width="1"><rect width="20" height="20" rx="4" stroke="none"/><rect x="0.5" y="0.5" width="19" height="19" rx="3.5" fill="none"/></g><path d="M3.448,6.975h0a.765.765,0,0,1-.493-.191L.2,4.108a.734.734,0,0,1,0-1.051.8.8,0,0,1,1.084.1l2.167,2.1L8.67.19a.79.79,0,0,1,1.084,0,.734.734,0,0,1,0,1.051L3.941,6.784a.765.765,0,0,1-.493.191Z" transform="translate(35.025 -197.975)" fill="#ccc"/></g></g></svg>