<svg xmlns="http://www.w3.org/2000/svg" width="97" height="63.261" viewBox="0 0 97 63.261"><g transform="translate(-637 -688)"><g transform="translate(0 -39)"><circle cx="12" cy="12" r="12" transform="translate(686 757)" fill="#7852e8"/><circle cx="12" cy="12" r="12" transform="translate(699 757)" fill="#7852e8"/></g><g transform="translate(189 160)"><path d="M0,0H92.782" transform="translate(450.109 538.543)" fill="none" stroke="#000" stroke-width="3"/><path d="M129.405,0H45.057a6.334,6.334,0,0,0-6.326,6.326V56.935a6.334,6.334,0,0,0,6.326,6.326H129.4a6.334,6.334,0,0,0,6.326-6.326V6.326A6.334,6.334,0,0,0,129.405,0ZM45.057,4.218H129.4a2.111,2.111,0,0,1,2.109,2.109V18.978H42.949V6.326A2.111,2.111,0,0,1,45.057,4.218Zm84.348,54.826H45.057a2.111,2.111,0,0,1-2.109-2.109V22.2h88.565V56.935A2.111,2.111,0,0,1,129.405,59.044Z" transform="translate(409.269 528)"/><path d="M175.385,67.778a12.566,12.566,0,0,0-6.326,1.712,12.652,12.652,0,1,0,0,21.88,12.646,12.646,0,1,0,6.326-23.592Zm-6.326,18.173a8.281,8.281,0,0,1,0-11.041,8.281,8.281,0,0,1,0,11.041ZM154.3,80.43A8.443,8.443,0,0,1,162.732,72a8.352,8.352,0,0,1,2.8.514,12.6,12.6,0,0,0,0,15.841,8.345,8.345,0,0,1-2.8.514A8.444,8.444,0,0,1,154.3,80.43Zm21.087,8.435a8.352,8.352,0,0,1-2.8-.514,12.6,12.6,0,0,0,0-15.841,8.343,8.343,0,0,1,2.8-.514,8.435,8.435,0,0,1,0,16.869Z" transform="translate(346.42 489.744)"/></g><line x2="17.249" transform="translate(647.383 729.902)" fill="none" stroke="#000" stroke-width="3"/><line x2="28.903" transform="translate(647.383 737.672)" fill="none" stroke="#000" stroke-width="3"/></g></svg>