<svg xmlns="http://www.w3.org/2000/svg" width="103" height="103" viewBox="0 0 103 103"><g transform="translate(-387 -681)"><path d="M45.194,58.5a3.322,3.322,0,0,1-3.323-3.323V18.629a3.322,3.322,0,0,1,3.323-3.323h9.968V7H2V86.742H55.161V58.5Z" transform="translate(386.661 683.968)" fill="#7852e8"/><path d="M104,59.145V22.6a4.99,4.99,0,0,0-4.984-4.984H57.484V9.306A8.316,8.316,0,0,0,49.177,1H9.306A8.316,8.316,0,0,0,1,9.306V95.694A8.316,8.316,0,0,0,9.306,104H49.177a8.316,8.316,0,0,0,8.306-8.306V64.129H99.016A4.99,4.99,0,0,0,104,59.145ZM44.194,27.581h56.484v6.645H44.194ZM100.677,22.6v1.661H44.194V22.6a1.662,1.662,0,0,1,1.661-1.661H99.016A1.662,1.662,0,0,1,100.677,22.6Zm-46.516,73.1a4.99,4.99,0,0,1-4.984,4.984H9.306a4.99,4.99,0,0,1-4.984-4.984V9.306A4.99,4.99,0,0,1,9.306,4.323H49.177a4.99,4.99,0,0,1,4.984,4.984v8.306H45.855A4.99,4.99,0,0,0,40.871,22.6V59.145a4.99,4.99,0,0,0,4.984,4.984h8.306ZM82.4,64.129ZM45.855,60.806a1.662,1.662,0,0,1-1.661-1.661v-21.6h56.484v21.6a1.662,1.662,0,0,1-1.661,1.661Z" transform="translate(386 680)"/><path d="M104,59.145V22.6a4.99,4.99,0,0,0-4.984-4.984H57.484V9.306A8.316,8.316,0,0,0,49.177,1H9.306A8.316,8.316,0,0,0,1,9.306V95.694A8.316,8.316,0,0,0,9.306,104H49.177a8.316,8.316,0,0,0,8.306-8.306V64.129H99.016A4.99,4.99,0,0,0,104,59.145ZM44.194,27.581h56.484v6.645H44.194ZM100.677,22.6v1.661H44.194V22.6a1.662,1.662,0,0,1,1.661-1.661H99.016A1.662,1.662,0,0,1,100.677,22.6Zm-46.516,73.1a4.99,4.99,0,0,1-4.984,4.984H9.306a4.99,4.99,0,0,1-4.984-4.984V9.306A4.99,4.99,0,0,1,9.306,4.323H49.177a4.99,4.99,0,0,1,4.984,4.984v8.306H45.855A4.99,4.99,0,0,0,40.871,22.6V59.145a4.99,4.99,0,0,0,4.984,4.984h8.306ZM45.855,60.806a1.662,1.662,0,0,1-1.661-1.661v-21.6h56.484v21.6a1.662,1.662,0,0,1-1.661,1.661Z" transform="translate(386 680)"/><path d="M15,57h9.968v3.323H15Z" transform="translate(395.258 717.032)"/><path d="M60.29,27a6.553,6.553,0,0,0-3.323.92A6.553,6.553,0,0,0,53.645,27a6.645,6.645,0,1,0,0,13.29,6.553,6.553,0,0,0,3.323-.92,6.553,6.553,0,0,0,3.323.92,6.645,6.645,0,1,0,0-13.29Zm-5.8,9.855a3.2,3.2,0,0,1-.842.113,3.323,3.323,0,1,1,0-6.645,3.2,3.2,0,0,1,.842.113,6.537,6.537,0,0,0,0,6.419Zm5.8.113a3.323,3.323,0,1,1,3.323-3.323A3.312,3.312,0,0,1,60.29,36.968Z" transform="translate(416.419 697.194)"/><path d="M29,29h3.323v3.323H29Z" transform="translate(404.516 698.516)"/><path d="M35,29h3.323v3.323H35Z" transform="translate(408.484 698.516)"/><path d="M41,29h3.323v3.323H41Z" transform="translate(412.452 698.516)"/><path d="M29,33H52.258v3.323H29Z" transform="translate(404.516 701.161)"/><path d="M21.645,28a6.645,6.645,0,1,0,6.645,6.645A6.652,6.652,0,0,0,21.645,28Zm0,9.968a3.323,3.323,0,1,1,3.323-3.323A3.326,3.326,0,0,1,21.645,37.968Z" transform="translate(395.258 697.855)"/><path d="M24.29,27.323V24a13.29,13.29,0,0,0,0,26.581V47.258a9.968,9.968,0,0,1,0-19.935Z" transform="translate(392.613 695.21)"/><path d="M26.935,56.548a16.613,16.613,0,0,1,0-33.226V20a19.935,19.935,0,1,0,0,39.871Z" transform="translate(389.968 692.565)"/></g></svg>