<svg xmlns="http://www.w3.org/2000/svg" width="113.983" height="69.025" viewBox="0 0 113.983 69.025"><g transform="translate(-498.017 -692)"><g transform="translate(511 692)" fill="none" stroke="#000" stroke-width="3"><path d="M0,0H101a0,0,0,0,1,0,0V47A12,12,0,0,1,89,59H12A12,12,0,0,1,0,47V0A0,0,0,0,1,0,0Z" stroke="none"/><path d="M3,1.5H98A1.5,1.5,0,0,1,99.5,3V47A10.5,10.5,0,0,1,89,57.5H12A10.5,10.5,0,0,1,1.5,47V3A1.5,1.5,0,0,1,3,1.5Z" fill="none"/></g><rect width="98" height="9" transform="translate(514 704)"/><line x2="17.249" transform="translate(574.383 728.902)" fill="none" stroke="#000" stroke-width="3"/><line x2="28.903" transform="translate(574.383 736.672)" fill="none" stroke="#000" stroke-width="3"/><g transform="translate(556.219 746.175) rotate(124)"><g transform="translate(0 0.113)" fill="#7852e8"><path d="M 9.415058135986328 56.50996017456055 C 9.287838935852051 56.50996017456055 9.157388687133789 56.50859069824219 9.027338027954102 56.50588226318359 C 2.800897359848022 56.37648010253906 1.664886474609375 53.6170768737793 1.499998569488525 53.06573867797852 L 1.500008344650269 4.058938503265381 C 1.696629524230957 3.802008628845215 2.094796180725098 3.368853569030762 2.798018455505371 2.928910493850708 C 3.83996844291687 2.277050495147705 5.761088371276855 1.500000476837158 8.99616813659668 1.500000476837158 C 10.86166858673096 1.500000476837158 13.47614860534668 1.768550515174866 15.33750820159912 3.04792046546936 C 15.9097728729248 3.441259384155273 16.24570655822754 3.822045803070068 16.41207885742188 4.0430588722229 L 16.41206932067871 53.09490966796875 C 16.35604286193848 53.32100677490234 16.13416862487793 54.01732635498047 15.40816879272461 54.71641159057617 C 14.18965816497803 55.8897590637207 12.11727809906006 56.50996017456055 9.415058135986328 56.50996017456055 Z" stroke="none"/><path d="M 8.99616813659668 3 C 6.282468795776367 3 4.673418045043945 3.585750579833984 3.801458358764648 4.077140808105469 C 3.441706657409668 4.279872894287109 3.1815185546875 4.479255676269531 3.000008583068848 4.643520355224609 L 2.999998092651367 52.77729034423828 C 3.078405380249023 52.93333053588867 3.220808982849121 53.15371322631836 3.474398612976074 53.39810943603516 C 4.851088523864746 54.72492218017578 7.563938140869141 54.97513961791992 9.058468818664551 55.00621032714844 C 9.17836856842041 55.00870132446289 9.298338890075684 55.00996017456055 9.415058135986328 55.00996017456055 C 12.18594837188721 55.00996017456055 13.56643867492676 54.32740020751953 14.23658847808838 53.75479125976562 C 14.65167903900146 53.40013122558594 14.8367748260498 53.04734802246094 14.91206836700439 52.86082458496094 L 14.91207885742188 4.620059967041016 C 14.80283260345459 4.519344329833984 14.66301536560059 4.40447998046875 14.48784828186035 4.284080505371094 C 13.63557815551758 3.698291778564453 11.99099826812744 3 8.99616813659668 3 M 8.99616813659668 0 C 16.28425788879395 0 17.91207885742188 3.623531341552734 17.91207885742188 3.623531341552734 L 17.91206932067871 53.23994064331055 C 17.91206932067871 53.23994064331055 17.29861640930176 58.00995635986328 9.415061950683594 58.00995635986328 C 9.277492523193359 58.00995635986328 9.138200759887695 58.00851440429688 8.99616813659668 58.00556182861328 C 0.7147979736328125 57.83343887329102 -1.9073486328125e-06 53.23994064331055 -1.9073486328125e-06 53.23994064331055 L 7.62939453125e-06 3.623531341552734 C 7.62939453125e-06 3.623531341552734 1.708087921142578 0 8.99616813659668 0 Z" stroke="none"/></g><g transform="translate(0 0)" fill="#fff" stroke="#7852e8" stroke-width="3"><ellipse cx="8.956" cy="4.741" rx="8.956" ry="4.741" stroke="none"/><ellipse cx="8.956" cy="4.741" rx="7.456" ry="3.241" fill="none"/></g><g transform="translate(0 0)" fill="none" stroke="#000" stroke-width="3"><ellipse cx="8.956" cy="4.741" rx="8.956" ry="4.741" stroke="none"/><ellipse cx="8.956" cy="4.741" rx="7.456" ry="3.241" fill="none"/></g></g></g></svg>