<svg xmlns="http://www.w3.org/2000/svg" width="32.999" height="36" viewBox="0 0 32.999 36">
  <path id="Icon_awesome-asterisk" data-name="Icon awesome-asterisk" d="M33.624,23.491,23.625,18l10-5.491a1.687,1.687,0,0,0,.649-2.323L32.9,7.814a1.688,1.688,0,0,0-2.336-.6l-9.755,5.914.244-11.4A1.687,1.687,0,0,0,19.37,0H16.63a1.687,1.687,0,0,0-1.687,1.724l.244,11.4L5.433,7.215a1.688,1.688,0,0,0-2.336.6l-1.37,2.372a1.688,1.688,0,0,0,.649,2.323l10,5.491-10,5.491a1.687,1.687,0,0,0-.649,2.323L3.1,28.186a1.688,1.688,0,0,0,2.336.6l9.755-5.914-.244,11.4A1.688,1.688,0,0,0,16.63,36H19.37a1.688,1.688,0,0,0,1.687-1.724l-.244-11.4,9.755,5.914a1.688,1.688,0,0,0,2.336-.6l1.37-2.372a1.687,1.687,0,0,0-.649-2.323Z" transform="translate(-1.5)" fill="#ed001b"/>
</svg>
