<svg xmlns="http://www.w3.org/2000/svg" width="31.069" height="34.244" viewBox="0 0 31.069 34.244"><g transform="translate(-46 -10)"><path d="M266.213,21.6h6.539a1.248,1.248,0,0,0,1.777,1.753l2.119-2.119a1.249,1.249,0,0,0,0-1.766l-2.119-2.119a1.248,1.248,0,0,0-1.777,1.753h-6.539a1.249,1.249,0,1,0,0,2.5Z" transform="translate(-199.944 -6.864)"/><path d="M275.766,76.58h-6.539a1.248,1.248,0,0,0-1.777-1.753l-2.119,2.119a1.249,1.249,0,0,0,0,1.766l2.119,2.119a1.248,1.248,0,0,0,1.777-1.753h6.539a1.249,1.249,0,0,0,0-2.5Z" transform="translate(-199.946 -57.163)"/><path d="M68.323,16.929a3.817,3.817,0,0,0-1.294.227,3.632,3.632,0,0,0-3.207-1.934,3.888,3.888,0,0,0-.9.106V3.633a3.633,3.633,0,0,0-7.266-.06V4.668a3.9,3.9,0,0,0-.907-.106,3.637,3.637,0,0,0-3.633,3.633V19.021a3.715,3.715,0,0,0-2.521,3.427c-.077,2.72.147,6.163,2.577,8.662,2.05,2.108,5.252,3.133,9.791,3.133,4.087,0,7.111-1.2,8.988-3.579a10.337,10.337,0,0,0,2.016-6.5l-.006-3.609A3.637,3.637,0,0,0,68.323,16.929ZM60.958,32.574c-9.57,0-10.846-4.851-10.7-10.078a2.068,2.068,0,0,1,2.005-2.005V22.8c0,.291.2.325.262.325s.255-.033.255-.324V8.194a1.963,1.963,0,0,1,1.963-1.963,1.825,1.825,0,0,1,1.945,1.7s-.007,9.361-.007,9.361a.32.32,0,0,0,.639,0V3.6a1.963,1.963,0,0,1,3.925.032l0,15.017a.315.315,0,1,0,.63,0v-.081a1.839,1.839,0,0,1,1.946-1.676,1.959,1.959,0,0,1,1.959,1.963l0,1.439a.306.306,0,1,0,.613,0v-.109A1.837,1.837,0,0,1,68.323,18.6a1.963,1.963,0,0,1,1.963,1.963l.006,3.606C70.292,27.523,68.988,32.574,60.958,32.574Z" transform="translate(-2.577 10)" fill="#7852e8"/></g></svg>