<svg xmlns="http://www.w3.org/2000/svg" width="113.983" height="69.025" viewBox="0 0 113.983 69.025"><g transform="translate(-498.017 -692)"><g transform="translate(511 692)" fill="none" stroke="#000" stroke-width="3"><path d="M0,0H101a0,0,0,0,1,0,0V47A12,12,0,0,1,89,59H12A12,12,0,0,1,0,47V0A0,0,0,0,1,0,0Z" stroke="none"/><path d="M3,1.5H98A1.5,1.5,0,0,1,99.5,3V47A10.5,10.5,0,0,1,89,57.5H12A10.5,10.5,0,0,1,1.5,47V3A1.5,1.5,0,0,1,3,1.5Z" fill="none"/></g><rect width="98" height="9" transform="translate(514 704)"/><line x2="17.249" transform="translate(574.383 728.902)" fill="none" stroke="#000" stroke-width="3"/><line x2="28.903" transform="translate(574.383 736.672)" fill="none" stroke="#000" stroke-width="3"/><g transform="translate(556.125 746.112) rotate(124)" fill="none"><path d="M0,3.624S1.708,0,9,0s8.916,3.624,8.916,3.624V53.24S17.278,58.178,9,58.006,0,53.24,0,53.24Z" stroke="none"/><path d="M 8.99616813659668 3 C 6.282468795776367 3 4.673418045043945 3.585750579833984 3.801458358764648 4.077140808105469 C 3.441706657409668 4.279872894287109 3.1815185546875 4.479255676269531 3.000008583068848 4.643520355224609 L 2.999998092651367 52.77729034423828 C 3.078405380249023 52.93333053588867 3.220808982849121 53.15371322631836 3.474398612976074 53.39810943603516 C 4.851088523864746 54.72492218017578 7.563938140869141 54.97513961791992 9.058468818664551 55.00621032714844 C 9.17836856842041 55.00870132446289 9.298338890075684 55.00996017456055 9.415058135986328 55.00996017456055 C 12.18594837188721 55.00996017456055 13.56643867492676 54.32740020751953 14.23658847808838 53.75479125976562 C 14.65167903900146 53.40013122558594 14.8367748260498 53.04734802246094 14.91206836700439 52.86082458496094 L 14.91207885742188 4.620059967041016 C 14.80283260345459 4.519344329833984 14.66301536560059 4.40447998046875 14.48784828186035 4.284080505371094 C 13.63557815551758 3.698291778564453 11.99099826812744 3 8.99616813659668 3 M 8.99616813659668 0 C 16.28425788879395 0 17.91207885742188 3.623531341552734 17.91207885742188 3.623531341552734 L 17.91206932067871 53.23994064331055 C 17.91206932067871 53.23994064331055 17.29861640930176 58.00995635986328 9.415061950683594 58.00995635986328 C 9.277492523193359 58.00995635986328 9.138200759887695 58.00851440429688 8.99616813659668 58.00556182861328 C 0.7147979736328125 57.83343887329102 -1.9073486328125e-06 53.23994064331055 -1.9073486328125e-06 53.23994064331055 L 7.62939453125e-06 3.623531341552734 C 7.62939453125e-06 3.623531341552734 1.708087921142578 0 8.99616813659668 0 Z" stroke="none"/></g><g transform="translate(556.219 746.175) rotate(124)" fill="#7852e8"><path d="M 8.956035614013672 7.982859134674072 C 6.835235595703125 7.982859134674072 4.782795429229736 7.540219306945801 3.324995517730713 6.768449306488037 C 2.182235717773438 6.163459300994873 1.499995589256287 5.405699253082275 1.499995589256287 4.741429328918457 C 1.499995589256287 4.077159404754639 2.182235717773438 3.319399356842041 3.324995517730713 2.714409351348877 C 4.782795429229736 1.942639350891113 6.835235595703125 1.499999284744263 8.956035614013672 1.499999284744263 C 11.07683563232422 1.499999284744263 13.12927532196045 1.942639350891113 14.58707523345947 2.714409351348877 C 15.72983551025391 3.319399356842041 16.41207504272461 4.077159404754639 16.41207504272461 4.741429328918457 C 16.41207504272461 5.405699253082275 15.72983551025391 6.163459300994873 14.58707523345947 6.768449306488037 C 13.12927532196045 7.540219306945801 11.07683563232422 7.982859134674072 8.956035614013672 7.982859134674072 Z" stroke="none"/><path d="M 8.956035614013672 2.999999523162842 C 7.315765380859375 2.999999523162842 5.741015434265137 3.285959243774414 4.521855354309082 3.805209159851074 C 3.674410820007324 4.1661376953125 3.24217414855957 4.536067962646484 3.067815780639648 4.741429328918457 C 3.24217414855957 4.94679069519043 3.674410820007324 5.316720962524414 4.521855354309082 5.67764949798584 C 5.741015434265137 6.1968994140625 7.315765380859375 6.48285961151123 8.956035614013672 6.48285961151123 C 10.59630584716797 6.48285961151123 12.17105579376221 6.1968994140625 13.39021492004395 5.67764949798584 C 14.23766040802002 5.316720962524414 14.66989707946777 4.94679069519043 14.8442554473877 4.741429328918457 C 14.66989707946777 4.536067962646484 14.23766040802002 4.1661376953125 13.39021492004395 3.805209159851074 C 12.17105579376221 3.285959243774414 10.59630584716797 2.999999523162842 8.956035614013672 2.999999523162842 M 8.956035614013672 -9.5367431640625e-07 C 13.90231513977051 -9.5367431640625e-07 17.91207504272461 2.122809410095215 17.91207504272461 4.741429328918457 C 17.91207504272461 7.360049247741699 13.90231513977051 9.48285961151123 8.956035614013672 9.48285961151123 C 4.009756088256836 9.48285961151123 -3.814697265625e-06 7.360049247741699 -3.814697265625e-06 4.741429328918457 C -3.814697265625e-06 2.122809410095215 4.009756088256836 -9.5367431640625e-07 8.956035614013672 -9.5367431640625e-07 Z" stroke="none" fill="#7852e8"/></g><g transform="translate(556.219 746.175) rotate(124)" fill="none" stroke="#000" stroke-width="3"><ellipse cx="8.956" cy="4.741" rx="8.956" ry="4.741" stroke="none"/><ellipse cx="8.956" cy="4.741" rx="7.456" ry="3.241" fill="none"/></g></g></svg>