<svg xmlns="http://www.w3.org/2000/svg" width="113.983" height="68.025" viewBox="0 0 113.983 68.025"><g transform="translate(-498.017 -692)"><g transform="translate(511 692)" fill="none" stroke="#000" stroke-width="3"><path d="M0,0H101a0,0,0,0,1,0,0V47A12,12,0,0,1,89,59H12A12,12,0,0,1,0,47V0A0,0,0,0,1,0,0Z" stroke="none"/><path d="M3,1.5H98A1.5,1.5,0,0,1,99.5,3V47A10.5,10.5,0,0,1,89,57.5H12A10.5,10.5,0,0,1,1.5,47V3A1.5,1.5,0,0,1,3,1.5Z" fill="none"/></g><rect width="98" height="9" transform="translate(514 704)"/><line x2="17.249" transform="translate(574.383 728.902)" fill="none" stroke="#000" stroke-width="3"/><line x2="28.903" transform="translate(574.383 736.672)" fill="none" stroke="#000" stroke-width="3"/><g transform="translate(1 -11)"><g transform="translate(-10 -29)"><g transform="translate(565.125 785.112) rotate(124)" fill="none"><path d="M0,3.624S1.708,0,9,0s8.916,3.624,8.916,3.624V53.24S17.278,58.178,9,58.006,0,53.24,0,53.24Z" stroke="none"/><path d="M 8.99616813659668 3 C 6.282468795776367 3 4.673418045043945 3.585750579833984 3.801458358764648 4.077140808105469 C 3.441706657409668 4.279872894287109 3.1815185546875 4.479255676269531 3.000008583068848 4.643520355224609 L 2.999998092651367 52.77729034423828 C 3.078405380249023 52.93333053588867 3.220808982849121 53.15371322631836 3.474398612976074 53.39810943603516 C 4.851088523864746 54.72492218017578 7.563938140869141 54.97513961791992 9.058468818664551 55.00621032714844 C 9.17836856842041 55.00870132446289 9.298338890075684 55.00996017456055 9.415058135986328 55.00996017456055 C 12.18594837188721 55.00996017456055 13.56643867492676 54.32740020751953 14.23658847808838 53.75479125976562 C 14.65167903900146 53.40013122558594 14.8367748260498 53.04734802246094 14.91206836700439 52.86082458496094 L 14.91207885742188 4.620059967041016 C 14.80283260345459 4.519344329833984 14.66301536560059 4.40447998046875 14.48784828186035 4.284080505371094 C 13.63557815551758 3.698291778564453 11.99099826812744 3 8.99616813659668 3 M 8.99616813659668 0 C 16.28425788879395 0 17.91207885742188 3.623531341552734 17.91207885742188 3.623531341552734 L 17.91206932067871 53.23994064331055 C 17.91206932067871 53.23994064331055 17.29861640930176 58.00995635986328 9.415061950683594 58.00995635986328 C 9.277492523193359 58.00995635986328 9.138200759887695 58.00851440429688 8.99616813659668 58.00556182861328 C 0.7147979736328125 57.83343887329102 -1.9073486328125e-06 53.23994064331055 -1.9073486328125e-06 53.23994064331055 L 7.62939453125e-06 3.623531341552734 C 7.62939453125e-06 3.623531341552734 1.708087921142578 0 8.99616813659668 0 Z" stroke="none"/></g><g transform="translate(565.125 785.112) rotate(124)" fill="#fff"><path d="M 9.415058135986328 56.50996017456055 C 9.287838935852051 56.50996017456055 9.157388687133789 56.50859069824219 9.027338027954102 56.50588226318359 C 2.800897359848022 56.37648010253906 1.664886474609375 53.6170768737793 1.499998569488525 53.06573867797852 L 1.500008344650269 4.058938503265381 C 1.696629524230957 3.802008628845215 2.094796180725098 3.368853569030762 2.798018455505371 2.928910493850708 C 3.83996844291687 2.277050495147705 5.761088371276855 1.500000476837158 8.99616813659668 1.500000476837158 C 10.86166858673096 1.500000476837158 13.47614860534668 1.768550515174866 15.33750820159912 3.04792046546936 C 15.9097728729248 3.441259384155273 16.24570655822754 3.822045803070068 16.41207885742188 4.0430588722229 L 16.41206932067871 53.09490966796875 C 16.35604286193848 53.32100677490234 16.13416862487793 54.01732635498047 15.40816879272461 54.71641159057617 C 14.18965816497803 55.8897590637207 12.11727809906006 56.50996017456055 9.415058135986328 56.50996017456055 Z" stroke="none"/><path d="M 8.99616813659668 3 C 6.282468795776367 3 4.673418045043945 3.585750579833984 3.801458358764648 4.077140808105469 C 3.441706657409668 4.279872894287109 3.1815185546875 4.479255676269531 3.000008583068848 4.643520355224609 L 2.999998092651367 52.77729034423828 C 3.078405380249023 52.93333053588867 3.220808982849121 53.15371322631836 3.474398612976074 53.39810943603516 C 4.851088523864746 54.72492218017578 7.563938140869141 54.97513961791992 9.058468818664551 55.00621032714844 C 9.17836856842041 55.00870132446289 9.298338890075684 55.00996017456055 9.415058135986328 55.00996017456055 C 12.18594837188721 55.00996017456055 13.56643867492676 54.32740020751953 14.23658847808838 53.75479125976562 C 14.65167903900146 53.40013122558594 14.8367748260498 53.04734802246094 14.91206836700439 52.86082458496094 L 14.91207885742188 4.620059967041016 C 14.80283260345459 4.519344329833984 14.66301536560059 4.40447998046875 14.48784828186035 4.284080505371094 C 13.63557815551758 3.698291778564453 11.99099826812744 3 8.99616813659668 3 M 8.99616813659668 0 C 16.28425788879395 0 17.91207885742188 3.623531341552734 17.91207885742188 3.623531341552734 L 17.91206932067871 53.23994064331055 C 17.91206932067871 53.23994064331055 17.29861640930176 58.00995635986328 9.415061950683594 58.00995635986328 C 9.277492523193359 58.00995635986328 9.138200759887695 58.00851440429688 8.99616813659668 58.00556182861328 C 0.7147979736328125 57.83343887329102 -1.9073486328125e-06 53.23994064331055 -1.9073486328125e-06 53.23994064331055 L 7.62939453125e-06 3.623531341552734 C 7.62939453125e-06 3.623531341552734 1.708087921142578 0 8.99616813659668 0 Z" stroke="none" fill="#111"/></g><g transform="translate(564.75 785.859) rotate(124)" fill="#7852e8"><path d="M 8.422161102294922 7.417580127716064 C 4.196590900421143 7.417580127716064 1.500001072883606 5.66519021987915 1.500001072883606 4.458790302276611 C 1.500001072883606 3.252390384674072 4.196590900421143 1.500000357627869 8.422161102294922 1.500000357627869 C 12.64773082733154 1.500000357627869 15.34432125091553 3.252390384674072 15.34432125091553 4.458790302276611 C 15.34432125091553 5.66519021987915 12.64773082733154 7.417580127716064 8.422161102294922 7.417580127716064 Z" stroke="none"/><path d="M 8.422161102294922 3.000000476837158 C 5.404566764831543 3.000000476837158 3.672576904296875 3.960092544555664 3.131461143493652 4.458790302276611 C 3.672576904296875 4.957488059997559 5.404566764831543 5.917580604553223 8.422161102294922 5.917580604553223 C 11.4397554397583 5.917580604553223 13.17174530029297 4.957488059997559 13.71286106109619 4.458790302276611 C 13.17174530029297 3.960092544555664 11.4397554397583 3.000000476837158 8.422161102294922 3.000000476837158 M 8.422161102294922 0 C 13.0735912322998 0 16.84432029724121 1.996270179748535 16.84432029724121 4.458790302276611 C 16.84432029724121 6.921310424804688 13.0735912322998 8.917580604553223 8.422161102294922 8.917580604553223 C 3.770730972290039 8.917580604553223 1.9073486328125e-06 6.921310424804688 1.9073486328125e-06 4.458790302276611 C 1.9073486328125e-06 1.996270179748535 3.770730972290039 0 8.422161102294922 0 Z" stroke="none" fill="#7852e8"/></g><g transform="translate(565.219 785.175) rotate(124)" fill="none"><path d="M8.956,0c4.946,0,8.956,2.123,8.956,4.741S13.9,9.483,8.956,9.483,0,7.36,0,4.741,4.01,0,8.956,0Z" stroke="none"/><path d="M 8.956035614013672 2.999999523162842 C 7.315765380859375 2.999999523162842 5.741015434265137 3.285959243774414 4.521855354309082 3.805209159851074 C 3.674410820007324 4.1661376953125 3.24217414855957 4.536067962646484 3.067815780639648 4.741429328918457 C 3.24217414855957 4.94679069519043 3.674410820007324 5.316720962524414 4.521855354309082 5.67764949798584 C 5.741015434265137 6.1968994140625 7.315765380859375 6.48285961151123 8.956035614013672 6.48285961151123 C 10.59630584716797 6.48285961151123 12.17105579376221 6.1968994140625 13.39021492004395 5.67764949798584 C 14.23766040802002 5.316720962524414 14.66989707946777 4.94679069519043 14.8442554473877 4.741429328918457 C 14.66989707946777 4.536067962646484 14.23766040802002 4.1661376953125 13.39021492004395 3.805209159851074 C 12.17105579376221 3.285959243774414 10.59630584716797 2.999999523162842 8.956035614013672 2.999999523162842 M 8.956035614013672 -9.5367431640625e-07 C 13.90231513977051 -9.5367431640625e-07 17.91207504272461 2.122809410095215 17.91207504272461 4.741429328918457 C 17.91207504272461 7.360049247741699 13.90231513977051 9.48285961151123 8.956035614013672 9.48285961151123 C 4.009756088256836 9.48285961151123 -3.814697265625e-06 7.360049247741699 -3.814697265625e-06 4.741429328918457 C -3.814697265625e-06 2.122809410095215 4.009756088256836 -9.5367431640625e-07 8.956035614013672 -9.5367431640625e-07 Z" stroke="none" fill="#111"/></g></g></g></g></svg>