<svg xmlns="http://www.w3.org/2000/svg" width="344.916" height="105.066" viewBox="0 0 344.916 105.066"><path d="M22.932-38.727h8.307q8.073,0,12.051-3.861T47.268-53q0-6.435-3.978-10.12t-11.7-3.686H22.932ZM8.19-78.858H32.877q13.338,0,21.353,7.254A23.962,23.962,0,0,1,62.244-53q0,12.051-8.249,19.13T33.228-26.793h-10.3V0H8.19ZM105.3-25.506H98.046q-5.5,0-8.424,2.281A7.045,7.045,0,0,0,86.7-17.433q0,7.488,8.658,7.488a9.644,9.644,0,0,0,7.313-2.75,9.972,9.972,0,0,0,2.633-7.2ZM76.518-43.29V-56.277q6.669-4.095,19.188-4.095,24.1,0,24.1,22.464V0H105.885V-7.137Q101.79.468,90.441.468q-8.424,0-13.4-4.914a16.708,16.708,0,0,1-4.972-12.4A15.682,15.682,0,0,1,78.39-30.069q6.318-4.8,18.252-4.8H105.3v-3.627q0-4.914-2.574-7.488t-8.775-2.574A30.944,30.944,0,0,0,76.518-43.29ZM153.153-1.17l-23.4-58.149h15.561l6.9,18.954q3.159,8.424,5.089,14.157t2.4,7.254l.351,1.638q1.17-4.095,7.488-23.049l6.2-18.954h14.742L167.076-1.638q-8.892,23.751-27.144,23.751a25.539,25.539,0,0,1-5.85-.585V9.945a16.353,16.353,0,0,0,3.978.468Q148.707,10.413,153.153-1.17Zm75.114-10.062a12.7,12.7,0,0,0,10.3-4.855q3.978-4.856,3.978-13.631t-3.978-13.63A12.462,12.462,0,0,0,228.5-48.2a14.213,14.213,0,0,0-10.53,4.563q-4.446,4.563-4.446,13.572t4.329,13.923A13.409,13.409,0,0,0,228.267-11.232ZM213.525-59.319v9.126a20.242,20.242,0,0,1,18.135-9.945q11.583,0,18.428,8.307t6.844,21.879q0,13.338-6.844,22.055T231.543.819q-11.934,0-18.018-9.711V22.347h-14.04V-59.319ZM271.908,0V-82.719h14.04V0Zm67.86-34.515V-36.27a14.913,14.913,0,0,0-3.1-9.185q-2.866-3.451-8.365-3.451a11.916,11.916,0,0,0-8.716,3.686q-3.686,3.686-4.739,10.706Zm9.594,19.071V-3.276q-6.2,3.861-17.9,3.861-14.157,0-22.347-8.424T300.924-29.6q0-14.157,7.722-22.23a25.61,25.61,0,0,1,19.3-8.073q11.583,0,18.369,7.02t6.786,20.475a55.832,55.832,0,0,1-.819,8.424H315.081a15.953,15.953,0,0,0,6.376,9.828,20.632,20.632,0,0,0,12.109,3.393Q342.927-10.764,349.362-15.444Z" transform="translate(-8.19 82.719)" fill="#444"/></svg>