<svg xmlns="http://www.w3.org/2000/svg" width="141.002" height="121.438" viewBox="0 0 141.002 121.438">
  <g id="그룹_24" data-name="그룹 24" transform="translate(-1406.5 -377.318)">
    <g id="그룹_9" data-name="그룹 9" transform="translate(1459.501 377.792)">
      <path id="패스_11" data-name="패스 11" d="M23.787-124.707c17.9-.186,31.906-.578,43.656,5.709a42.125,42.125,0,0,1,8.611,6.155c18.6,16.92,17.116,47.151-.446,62.4a45.154,45.154,0,0,1-9.838,6.509c-9.162,4.435-18.615,4.912-27.148,4.9V-4.325H1.9V-124.561ZM38.621-72.451c5.961-.072,8.982-.629,10.913-2.276,3.6-3.075,3.82-11.247.061-14.268-2.042-1.641-5.076-2.157-10.974-2.2Z" transform="translate(-1.9 124.788)" fill="#fff" stroke="#000" stroke-width="1" opacity="0.999"/>
      <path id="패스_10" data-name="패스 10" d="M30.9-62.4H41.605q10.4,0,15.531-5.02t5.127-13.54q0-8.367-5.127-13.16T42.057-98.91H30.9Zm-19-52.182H43.716q17.19,0,27.519,9.432T81.564-80.958q0,15.67-10.631,24.874t-26.765,9.2H30.9v34.839h-19Z" transform="translate(-3.03 123.634)" fill="#7852e8" opacity="0.999"/>
    </g>
    <path id="패스_11-2" data-name="패스 11" d="M23.787-124.707c17.9-.186,31.906-.578,43.656,5.709a42.125,42.125,0,0,1,8.611,6.155c18.6,16.92,17.116,47.151-.446,62.4a45.154,45.154,0,0,1-9.838,6.509c-9.162,4.435-18.615,4.912-27.148,4.9V-4.325H1.9V-124.561ZM38.621-72.451c5.961-.072,8.982-.629,10.913-2.276,3.6-3.075,3.82-11.247.061-14.268-2.042-1.641-5.076-2.157-10.974-2.2Z" transform="translate(1405.1 502.58)" fill="#fff" stroke="#000" stroke-width="1" opacity="0.999"/>
    <path id="패스_10-2" data-name="패스 10" d="M30.9-62.4H41.605q10.4,0,15.531-5.02t5.127-13.54q0-8.367-5.127-13.16T42.057-98.91H30.9Zm-19-52.182H43.716q17.19,0,27.519,9.432T81.564-80.958q0,15.67-10.631,24.874t-26.765,9.2H30.9v34.839h-19Z" transform="translate(1403.97 501.426)" fill="#7852e8" opacity="0.999"/>
  </g>
</svg>
