<svg xmlns="http://www.w3.org/2000/svg" width="164.878" height="97.808" viewBox="0 0 164.878 97.808"><g transform="translate(-787.25 -878.25)"><g transform="translate(786.9 877.8)"><circle cx="35.7" cy="35.7" r="35.7" transform="translate(49.4 5.1)" fill="#fff"/><rect width="8.3" height="3.3" transform="matrix(0.819, 0.574, -0.574, 0.819, 118.576, 60.699)" fill="#5a5a5d" stroke="#434345" stroke-miterlimit="10" stroke-width="1.5"/><path d="M163.5,90.9l-3.1,4.4a5.126,5.126,0,0,1-7.1,1.3L122.2,74.8a5.126,5.126,0,0,1-1.3-7.1l3.1-4.4a5.126,5.126,0,0,1,7.1-1.3l31.1,21.8A4.955,4.955,0,0,1,163.5,90.9Z" fill="#8b8b8b" stroke="#434345" stroke-miterlimit="10" stroke-width="1.5"/><path d="M163.5,90.9l-3.1,4.4a5.126,5.126,0,0,1-7.1,1.3l-3.4-2.4,8.9-12.8,3.4,2.4A4.955,4.955,0,0,1,163.5,90.9Z" stroke="#434345" stroke-miterlimit="10" stroke-width="1.5"/><path d="M84.9,1.2a40.7,40.7,0,1,0,40.7,40.7A40.672,40.672,0,0,0,84.9,1.2Zm0,72.9a32.15,32.15,0,1,1,32.2-32.2A32.179,32.179,0,0,1,84.9,74.1Z" fill="#7852e8" stroke="#434345" stroke-miterlimit="10" stroke-width="1.5"/><path d="M102,32.1l-9.2,5.5L102,43" fill="none" stroke="#434345" stroke-linecap="round" stroke-linejoin="round" stroke-miterlimit="10" stroke-width="1.5"/><path d="M67.8,32.1,77,37.6,67.8,43" fill="none" stroke="#434345" stroke-linecap="round" stroke-linejoin="round" stroke-miterlimit="10" stroke-width="1.5"/><path d="M92.9,58.7H77.1A1.4,1.4,0,0,1,75.7,57a9.466,9.466,0,0,1,18.6,0A1.455,1.455,0,0,1,92.9,58.7Z" fill="#434345"/><path d="M89.4,57.6H80.6c-.5,0-.9-.3-.8-.6.4-1.7,2.6-2.9,5.2-2.9s4.7,1.3,5.2,2.9C90.2,57.3,89.9,57.6,89.4,57.6Z" fill="#ec5d5f"/><line x1="31" transform="translate(20.4 12.2)" stroke-width="1.5" stroke="#434345" stroke-linecap="round" stroke-linejoin="round" stroke-miterlimit="10" fill="#aadff2"/><line x1="21.7" transform="translate(1.1 28.2)" stroke-width="1.5" stroke="#434345" stroke-linecap="round" stroke-linejoin="round" stroke-miterlimit="10" fill="#aadff2"/><line x1="14.6" transform="translate(28.6 28.2)" stroke-width="1.5" stroke="#434345" stroke-linecap="round" stroke-linejoin="round" stroke-miterlimit="10" fill="#aadff2"/><line x1="12.6" transform="translate(33.3 20.2)" stroke-width="1.5" stroke="#434345" stroke-linecap="round" stroke-linejoin="round" stroke-miterlimit="10" fill="#aadff2"/><line x1="14.6" transform="translate(128 52.3)" stroke-width="1.5" stroke="#434345" stroke-linecap="round" stroke-linejoin="round" stroke-miterlimit="10" fill="#aadff2"/><line x1="12.7" transform="translate(149.2 52.3)" stroke-width="1.5" stroke="#434345" stroke-linecap="round" stroke-linejoin="round" stroke-miterlimit="10" fill="#aadff2"/><line x1="12.8" transform="translate(130.6 44.8)" stroke-width="1.5" stroke="#434345" stroke-linecap="round" stroke-linejoin="round" stroke-miterlimit="10" fill="#aadff2"/><line x1="21.1" transform="translate(128.3 36.9)" stroke-width="1.5" stroke="#434345" stroke-linecap="round" stroke-linejoin="round" stroke-miterlimit="10" fill="#aadff2"/><path d="M116.5,56.2a4.4,4.4,0,0,1-4.5,3.2,6.249,6.249,0,0,1-2.5-.4,4.686,4.686,0,0,1-3-3.7,6.968,6.968,0,0,1,1.2-5c1.4-2,3.7-5.2,3.7-5.2h0l4,5.2A6.985,6.985,0,0,1,116.5,56.2Z" fill="#66d1fd" stroke="#434345" stroke-miterlimit="10" stroke-width="1.5"/><path d="M115.8,55.7c-.5,1.5-1.2,2.9-4.1,2.9a7.55,7.55,0,0,1-2.3-.3c7.7-1.7,2.2-11.3,1.9-11.8l3.5,4A5.793,5.793,0,0,1,115.8,55.7Z" fill="#66b1fd"/></g></g></svg>