<svg xmlns="http://www.w3.org/2000/svg" xmlns:xlink="http://www.w3.org/1999/xlink" width="600" height="400" viewBox="0 0 600 400">
  <defs>
    <clipPath id="clip-아트보드_1">
      <rect width="600" height="400"/>
    </clipPath>
  </defs>
  <g id="아트보드_1" data-name="아트보드 – 1" clip-path="url(#clip-아트보드_1)">
    <g id="그룹_24" data-name="그룹 24" transform="translate(-24 14)">
      <path id="패스_150" data-name="패스 150" d="M690.617,136.395H678.4a15.38,15.38,0,0,0-15.026,12.1L612.6,381.207a9.53,9.53,0,0,0,8.687,11.541l107.271,7.03a12.342,12.342,0,0,0,12.954-10.128l43.325-240.53A10.81,10.81,0,0,0,774.2,136.395H762.6a5.1,5.1,0,0,0-4.926,3.775h0a4.5,4.5,0,0,1-4.349,3.333H698.293A7.7,7.7,0,0,1,690.617,136.395Z" transform="translate(-299.252 -76.336)" fill="#fff"/>
      <g id="그룹_22" data-name="그룹 22" transform="translate(-57 -4)">
        <path id="패스_16" data-name="패스 16" d="M395.755,158H366.177L294.529,427.042h29.578Z" transform="translate(114 -97.582)" fill="#fafafa"/>
        <path id="패스_17" data-name="패스 17" d="M414.853,158H400.064L328.416,427.042h14.789Z" transform="translate(114 -97.582)" fill="#fafafa"/>
        <path id="패스_18" data-name="패스 18" d="M372.873,302.284l-24.039-87.846a9.507,9.507,0,0,0-11.541-6.486l-56.881,14.522L272.825,337.26l93.333-23.829A9.12,9.12,0,0,0,372.873,302.284Z" transform="translate(162.807 -147.91) rotate(9)" fill="#f0f0f0"/>
      </g>
      <path id="제외_2" data-name="제외 2" d="M-803.094,289.238h0c-.392,0-.791-.01-1.184-.029l-107.62-5.3a17.95,17.95,0,0,1-13.434-7.081,17.948,17.948,0,0,1-3.226-14.839l52.9-234.626a22.186,22.186,0,0,1,2.894-6.995,22.22,22.22,0,0,1,4.917-5.492,22.219,22.219,0,0,1,6.439-3.588A22.185,22.185,0,0,1-853.953,10h104.8a13.671,13.671,0,0,1,10.478,4.874,13.661,13.661,0,0,1,3,11.266l-8.376,46.3,2.3.574-5.741,31.441-2.232-.638L-779.728,269.7a23.675,23.675,0,0,1-2.911,7.842,23.708,23.708,0,0,1-5.258,6.182,23.732,23.732,0,0,1-7.015,4.053A23.618,23.618,0,0,1-803.094,289.238Zm-49.3-274.18a15.43,15.43,0,0,0-9.646,3.4,15.429,15.429,0,0,0-5.379,8.7l-50.773,232.711a9.518,9.518,0,0,0,1.7,7.762,9.519,9.519,0,0,0,6.99,3.778l107.272,7.031c.271.018.546.027.816.027a12.326,12.326,0,0,0,12.137-10.154l43.326-240.53a10.783,10.783,0,0,0-2.345-8.85,10.782,10.782,0,0,0-8.294-3.877h-11.593a5.109,5.109,0,0,0-4.926,3.776,4.513,4.513,0,0,1-4.35,3.334H-832.5a7.675,7.675,0,0,1-5.231-2.05,7.678,7.678,0,0,1-2.445-5.059Z" transform="translate(1231.536 45)" fill="#444"/>
    </g>
    <rect id="사각형_41" data-name="사각형 41" width="496.901" height="1.254" transform="translate(70.045 350.876)" fill="#3f3d56"/>
    <g id="그룹_29" data-name="그룹 29" transform="translate(33)">
      <path id="패스_78" data-name="패스 78" d="M188.547,557.723l-2.984-11.77a152.809,152.809,0,0,0-16.215-5.818l-.377,5.47-1.528-6.026c-6.833-1.951-11.482-2.811-11.482-2.811s6.28,23.879,19.45,42.135l15.347,2.7-11.923,1.719a61.852,61.852,0,0,0,5.333,5.652c19.16,17.784,40.5,25.944,47.665,18.225s-2.559-28.394-21.719-46.178c-5.94-5.513-13.4-9.938-20.87-13.42Z" transform="translate(-85.96 -260.538)" fill="#e6e6e6"/>
      <path id="패스_79" data-name="패스 79" d="M247.2,524l3.529-11.618a152.825,152.825,0,0,0-10.874-13.362l-3.15,4.488,1.807-5.948c-4.841-5.2-8.376-8.342-8.376-8.342s-6.968,23.687-5.129,46.123l11.744,10.241-11.095-4.691a61.84,61.84,0,0,0,1.644,7.595c7.209,25.128,21.26,43.144,31.383,40.24s12.486-25.629,5.277-50.757c-2.235-7.79-6.335-15.434-10.929-22.276Z" transform="translate(-116.236 -239.594)" fill="#e6e6e6"/>
      <path id="패스_80" data-name="패스 80" d="M285.994,434.205s-3.87,46.528-4.7,56.5a70.9,70.9,0,0,1-4.154,18.278,17.187,17.187,0,0,0-1.662,6.647V558a2.47,2.47,0,0,0-2.493,3.323c.831,3.323,1.662,9.139,1.662,9.139H287.11a2.573,2.573,0,0,1,1.662-3.323c2.493-.831,0-7.478,0-7.478l13.293-49.85L322,468.27s11.632,37.388,14.124,41.542c0,0,9.139,46.527,10.8,50.681s2.493,4.154,1.662,5.816-.831,3.323,0,4.154,16.617,0,16.617,0l-4.154-58.99-7.477-70.621-38.219-11.632Z" transform="translate(-137.443 -213.171)" fill="#2f2e41"/>
      <path id="패스_81" data-name="패스 81" d="M275.691,663.651s-4.154-14.955-10.8-3.323-6.647,15.786-6.647,15.786-10.8,15.786,4.154,14.124S274.03,681.1,274.03,681.1s5.816-3.323,5.816-5.816S275.691,663.651,275.691,663.651Z" transform="translate(-129.348 -313.006)" fill="#2f2e41"/>
      <path id="패스_82" data-name="패스 82" d="M409.389,660.682s4.154-14.955,10.8-3.323,6.647,15.786,6.647,15.786,10.8,15.786-4.154,14.124-11.632-9.139-11.632-9.139-5.816-3.323-5.816-5.816S409.389,660.682,409.389,660.682Z" transform="translate(-195.747 -311.698)" fill="#2f2e41"/>
      <path id="패스_83" data-name="패스 83" d="M339.5,237.686s1.662,10.8-3.323,13.293,10.8,11.632,14.955,11.632,11.632-8.308,11.632-8.308-4.154-12.463-3.323-14.955Z" transform="translate(-164.909 -128.814)" fill="#e8b4b4"/>
      <circle id="타원_4" data-name="타원 4" cx="17.448" cy="17.448" r="17.448" transform="translate(166.284 82.285)" fill="#e8b4b4"/>
      <path id="패스_84" data-name="패스 84" d="M364.914,274.081,344.144,261.5s-11.818,13.415-24.6-1.54l-21.924,5.816,3.323,56.5s-4.985,22.433-3.323,26.587-4.154,5.816-2.493,6.647,0,6.647,0,6.647,32.4,16.617,68.129,4.154l-3.323-10.8a8.718,8.718,0,0,0-1.662-8.308s3.323-4.985-.831-9.139c0,0,1.662-7.478-2.493-10.8l-.831-11.632,2.492-5.816Z" transform="translate(-147.119 -138.623)" fill="#cfcce0"/>
      <path id="패스_85" data-name="패스 85" d="M335.8,196.146s-2.08,4.5,6.24,2.7c0,0,3.12,1.8,3.12-.9,0,0,4.16,4.5,5.2,1.8s3.12.9,3.12.9l2.08-4.5,2.08,2.7h7.28s2.08-18.006-22.881-16.206-12.682,30.33-12.682,30.33.2-5.121,2.281-2.42S335.8,196.146,335.8,196.146Z" transform="translate(-161.001 -104.515)" fill="#2f2e41"/>
      <path id="패스_86" data-name="패스 86" d="M421.164,344.589l.831,17.448s3.323,32.4-3.323,46.527v7.478s-1.662,19.109-9.97,18.278,2.493-27.418,2.493-27.418l-1.662-36.557-1.662-20.771Z" transform="translate(-195.891 -175.897)" fill="#e8b4b4"/>
      <path id="패스_87" data-name="패스 87" d="M397.865,285.623l8.288-1.346A40.465,40.465,0,0,1,417.8,305.563c2.493,13.293,3.323,15.786,3.323,15.786l-19.94,4.985-10.8-20.771Z" transform="translate(-189.208 -149.334)" fill="#cfcce0"/>
      <g id="그룹_28" data-name="그룹 28" transform="matrix(0.995, -0.105, 0.105, 0.995, -961.223, -462.258)">
        <rect id="사각형_47" data-name="사각형 47" width="182" height="99" rx="8" transform="translate(1062 721)" fill="#7852e8"/>
        <rect id="사각형_48" data-name="사각형 48" width="182" height="9" transform="translate(1062 744)" fill="#fff"/>
        <rect id="사각형_49" data-name="사각형 49" width="43" height="4" transform="translate(1082 783)" fill="#fff"/>
        <rect id="사각형_50" data-name="사각형 50" width="65" height="4" transform="translate(1082 794)" fill="#fff"/>
        <g id="타원_20" data-name="타원 20" transform="translate(1167 767)" fill="none" stroke="#fff" stroke-width="4">
          <ellipse cx="21.5" cy="21" rx="21.5" ry="21" stroke="none"/>
          <ellipse cx="21.5" cy="21" rx="19.5" ry="19" fill="none"/>
        </g>
        <g id="타원_21" data-name="타원 21" transform="translate(1189 767)" fill="none" stroke="#fff" stroke-width="4">
          <ellipse cx="21.5" cy="21" rx="21.5" ry="21" stroke="none"/>
          <ellipse cx="21.5" cy="21" rx="19.5" ry="19" fill="none"/>
        </g>
      </g>
      <path id="패스_97" data-name="패스 97" d="M275.277,310.329S267.8,341.9,276.939,341.9s30.741-35.726,30.741-35.726,22.433-11.632,13.293-15.786-20.771,6.647-20.771,6.647l-13.421,18.634-.7-9.495Z" transform="translate(-137.242 -151.607)" fill="#e8b4b4"/>
      <path id="패스_98" data-name="패스 98" d="M292.376,275.336l-4.985-4.985s-9.97,5.816-10.8,11.632-4.985,24.094-4.985,24.094l15.37,1.246,4.985-7.478Z" transform="translate(-136.893 -143.2)" fill="#cfcce0"/>
    </g>
  </g>
</svg>
