<svg xmlns="http://www.w3.org/2000/svg" xmlns:xlink="http://www.w3.org/1999/xlink" width="600" height="400" viewBox="0 0 600 400">
  <defs>
    <clipPath id="clip-아트보드_2">
      <rect width="600" height="400"/>
    </clipPath>
  </defs>
  <g id="아트보드_2" data-name="아트보드 – 2" clip-path="url(#clip-아트보드_2)">
    <g id="그룹_24" data-name="그룹 24" transform="translate(-24 14)">
      <path id="패스_150" data-name="패스 150" d="M690.617,136.395H678.4a15.38,15.38,0,0,0-15.026,12.1L612.6,381.207a9.53,9.53,0,0,0,8.687,11.541l107.271,7.03a12.342,12.342,0,0,0,12.954-10.128l43.325-240.53A10.81,10.81,0,0,0,774.2,136.395H762.6a5.1,5.1,0,0,0-4.926,3.775h0a4.5,4.5,0,0,1-4.349,3.333H698.293A7.7,7.7,0,0,1,690.617,136.395Z" transform="translate(-299.252 -76.336)" fill="#fff"/>
      <g id="그룹_22" data-name="그룹 22" transform="translate(-57 -4)">
        <path id="패스_16" data-name="패스 16" d="M395.755,158H366.177L294.529,427.042h29.578Z" transform="translate(114 -97.582)" fill="#fafafa"/>
        <path id="패스_17" data-name="패스 17" d="M414.853,158H400.064L328.416,427.042h14.789Z" transform="translate(114 -97.582)" fill="#fafafa"/>
        <path id="패스_18" data-name="패스 18" d="M372.873,302.284l-24.039-87.846a9.507,9.507,0,0,0-11.541-6.486l-56.881,14.522L272.825,337.26l93.333-23.829A9.12,9.12,0,0,0,372.873,302.284Z" transform="translate(162.807 -135.91) rotate(9)" fill="#f0f0f0"/>
      </g>
      <path id="제외_2" data-name="제외 2" d="M-803.094,289.238h0c-.392,0-.791-.01-1.184-.029l-107.62-5.3a17.95,17.95,0,0,1-13.434-7.081,17.948,17.948,0,0,1-3.226-14.839l52.9-234.626a22.186,22.186,0,0,1,2.894-6.995,22.22,22.22,0,0,1,4.917-5.492,22.219,22.219,0,0,1,6.439-3.588A22.185,22.185,0,0,1-853.953,10h104.8a13.671,13.671,0,0,1,10.478,4.874,13.661,13.661,0,0,1,3,11.266l-8.376,46.3,2.3.574-5.741,31.441-2.232-.638L-779.728,269.7a23.675,23.675,0,0,1-2.911,7.842,23.708,23.708,0,0,1-5.258,6.182,23.732,23.732,0,0,1-7.015,4.053A23.618,23.618,0,0,1-803.094,289.238Zm-49.3-274.18a15.43,15.43,0,0,0-9.646,3.4,15.429,15.429,0,0,0-5.379,8.7l-50.773,232.711a9.518,9.518,0,0,0,1.7,7.762,9.519,9.519,0,0,0,6.99,3.778l107.272,7.031c.271.018.546.027.816.027a12.326,12.326,0,0,0,12.137-10.154l43.326-240.53a10.783,10.783,0,0,0-2.345-8.85,10.782,10.782,0,0,0-8.294-3.877h-11.593a5.109,5.109,0,0,0-4.926,3.776,4.513,4.513,0,0,1-4.35,3.334H-832.5a7.675,7.675,0,0,1-5.231-2.05,7.678,7.678,0,0,1-2.445-5.059Z" transform="translate(1231.536 45)" fill="#444"/>
    </g>
    <g id="그룹_32" data-name="그룹 32" transform="translate(0 -1)">
      <path id="패스_125" data-name="패스 125" d="M227.7,180.127q-.3,1.583-.722,3.135c-.03.12-.064.238-.1.358h-3.905a1.256,1.256,0,0,0-1.255,1.255v11.133c-.118.22-.238.439-.358.658-.62,1.129-1.265,2.246-1.925,3.348a127.27,127.27,0,0,1-43.674,43.649l1.061-2.394-1.169-.081c-8.468-.579-16.965-1.221-25.234-3.124-8.651-1.991-17.113-5.445-23.893-11.171s-11.753-13.907-12.443-22.757a25.966,25.966,0,0,1,.909-9.034,23.2,23.2,0,0,1,10.074-13.739c7.871-4.722,18.139-3.76,26.436.168s15.049,10.427,21.642,16.814a83.591,83.591,0,0,0-27.046-28.23c-3.685-2.359-7.6-4.459-10.728-7.515s-5.441-7.335-4.887-11.674c.629-4.921,4.66-8.656,8.7-11.536,1.613-1.151,3.278-2.242,4.995-3.246a43.25,43.25,0,0,1,15.619-5.774c7.5-1.077,15.594.557,21.341,5.489,6.475,5.558,9.131,14.52,8.878,23.094,3.989-5.8,10.142-10.239,17.09-10.427,7.214-.194,14.071,4.364,17.683,10.611S229.048,173.039,227.7,180.127Z" transform="translate(-36.165 109.661)" fill="#e6e6e6"/>
      <path id="패스_126" data-name="패스 126" d="M492.353,300.665a64.22,64.22,0,0,0,12.222-1.965,22.5,22.5,0,0,0,10.612-6.072c3.039-3.3,4.679-7.589,5.836-11.857.645-2.38,1.175-4.793,1.676-7.206q.814-3.928,1.447-7.892,1.259-7.889,1.8-15.87.065-.969.119-1.938c.022-.4-.6-.4-.62,0q-.443,7.868-1.592,15.674c-.756,5.113-1.724,10.2-2.952,15.225-1.04,4.254-2.387,8.574-5.055,12.116a20.3,20.3,0,0,1-10.017,6.788,55.337,55.337,0,0,1-12.3,2.239c-.509.048-.66.094-1.169.139C491.958,300.08,491.955,300.7,492.353,300.665Z" transform="translate(-346.459 13.208)" fill="#fff"/>
      <path id="패스_127" data-name="패스 127" d="M120.122,492.718a67.205,67.205,0,0,1,15.718,2.77,67.925,67.925,0,0,1,14.638,6.372A66.265,66.265,0,0,1,162.8,511.14a67.844,67.844,0,0,1,16.519,24.839q.327.862.631,1.733c.131.374.73.213.6-.165a67.859,67.859,0,0,0-6.582-13.69,68.737,68.737,0,0,0-9.445-11.9,67.025,67.025,0,0,0-12.058-9.623,68.447,68.447,0,0,0-30.391-10.1q-.976-.082-1.954-.135c-.4-.022-.4.6,0,.62Z" transform="translate(-40.937 -187.5)" fill="#fff"/>
      <path id="패스_128" data-name="패스 128" d="M282.278,165.283a36.525,36.525,0,0,1,9.588,4.686,45.026,45.026,0,0,1,8.185,7.269,60.258,60.258,0,0,1,6.778,9.341,79.688,79.688,0,0,1,5.389,10.957,99.124,99.124,0,0,1,3.925,11.917,112.039,112.039,0,0,1,3.59,24.973,99.192,99.192,0,0,1-.355,12.012,76.513,76.513,0,0,1-1.8,11.059,52.251,52.251,0,0,1-3.254,9.562q-.483,1.047-1.026,2.065c-.188.352.348.666.535.313a47.8,47.8,0,0,0,3.662-9.217,71.386,71.386,0,0,0,2.184-10.843,94.354,94.354,0,0,0,.722-11.988,110,110,0,0,0-.751-12.6,113.458,113.458,0,0,0-2.185-12.587,102.7,102.7,0,0,0-3.653-12.258,85.285,85.285,0,0,0-5.079-11.281,65.391,65.391,0,0,0-6.513-9.83,48.5,48.5,0,0,0-7.957-7.885,38.476,38.476,0,0,0-9.331-5.382q-1.227-.488-2.488-.883C282.061,164.565,281.9,165.163,282.278,165.283Z" transform="translate(-174.1 81.248)" fill="#fff"/>
    </g>
    <rect id="사각형_41" data-name="사각형 41" width="496.901" height="1.254" transform="translate(52.045 350.876)" fill="#3f3d56"/>
    <path id="패스_129" data-name="패스 129" d="M693.807,445.066a8.351,8.351,0,0,0-.19,1.3l-34.094,19.669-8.287-4.771L642.4,472.832l17.729,12.636,38.9-30.685a8.33,8.33,0,1,0-5.219-9.716Z" transform="translate(-401.203 -305.194)" fill="#ffb8b8"/>
    <path id="패스_130" data-name="패스 130" d="M608.185,456.954l26.845,19.133,12.007-15.054-26.1-20.939a10.575,10.575,0,0,0-15.23,2.11h0A10.575,10.575,0,0,0,608.185,456.954Z" transform="translate(-393.227 -305.014)" fill="#fff"/>
    <path id="패스_131" data-name="패스 131" d="M425.519,597.518l9.413,2.466,13.992-35.131-13.892-3.641Z" transform="translate(-265.977 -227.267)" fill="#ffb8b8"/>
    <path id="패스_132" data-name="패스 132" d="M0,0H30.581V11.815H11.815A11.815,11.815,0,0,1,0,0H0Z" transform="matrix(-0.967, -0.253, 0.253, -0.967, 184.818, 386.216)" fill="#2f2e41"/>
    <path id="패스_133" data-name="패스 133" d="M529.227,605.139l9.579-1.711-2.041-37.76-14.137,2.525Z" transform="translate(-286.013 -228.186)" fill="#ffb8b8"/>
    <path id="패스_134" data-name="패스 134" d="M0,0H30.581V11.815H11.815A11.815,11.815,0,0,1,0,0H0Z" transform="translate(272.85 380.838) rotate(169.872)" fill="#2f2e41"/>
    <path id="패스_135" data-name="패스 135" d="M616.83,394.939c2.36.575,4.281,2.98,5.434,5.766a40.2,40.2,0,0,1,2.146,9.059c.906,5.76,1.776,11.995-.1,17.329-2.2,6.252-8.049,9.526-13.126,7.988s-9.114-7.315-10.494-13.964a33.818,33.818,0,0,1,2.321-19.909c1.442-3.283,3.43-6.313,6.072-7.794a5.992,5.992,0,0,1,7.991,1.665" transform="translate(-392.478 -295.684)" fill="#2f2e41"/>
    <path id="패스_136" data-name="패스 136" d="M617.266,526.948,635.5,690.279,620.44,696,592.662,586.473,553.988,686.616l-16.486.916s22.62-155.822,39.383-159.363Z" transform="translate(-379.559 -323.415)" fill="#070081"/>
    <circle id="타원_19" data-name="타원 19" cx="19.493" cy="19.493" r="19.493" transform="translate(202.896 81.113)" fill="#ffb8b8"/>
    <path id="패스_137" data-name="패스 137" d="M619.839,431.414l-21.066-2.748s-13.738,16.486-12.822,44.878-2.29,37.093-2.29,37.093l43.922.794C621.234,502.7,647.791,452.559,619.839,431.414Z" transform="translate(-389.083 -303.136)" fill="#fff"/>
    <g id="그룹_36" data-name="그룹 36" transform="matrix(1, -0.017, 0.017, 1, -9.403, 5.647)">
      <path id="사각형_40" data-name="사각형 40" d="M0,0H160.365a0,0,0,0,1,0,0V81.085a12,12,0,0,1-12,12H12a12,12,0,0,1-12-12V0A0,0,0,0,1,0,0Z" transform="matrix(0.996, -0.087, 0.087, 0.996, 233.225, 155.464)" fill="#7852e8"/>
      <rect id="사각형_41-2" data-name="사각형 41" width="160.365" height="13.825" transform="matrix(0.996, -0.087, 0.087, 0.996, 234.912, 174.744)" fill="#fff"/>
      <line id="선_5" data-name="선 5" x2="27.295" transform="matrix(0.996, -0.087, 0.087, 0.996, 338.516, 204.87)" fill="none" stroke="#fff" stroke-width="4"/>
      <line id="선_7" data-name="선 7" x2="45.738" transform="matrix(0.996, -0.087, 0.087, 0.996, 339.588, 217.119)" fill="none" stroke="#fff" stroke-width="4"/>
    </g>
    <g id="그룹_34" data-name="그룹 34" transform="translate(109.075 203.79) rotate(-59)">
      <g id="패스_72" data-name="패스 72" transform="translate(87.621 129.353) rotate(119)" fill="none">
        <path d="M0,4.212S1.985,0,10.456,0,20.819,4.212,20.819,4.212V61.881s-.738,5.739-10.363,5.539S0,61.881,0,61.881Z" stroke="none"/>
        <path d="M 10.45629024505615 3 C 7.133579254150391 3 5.163690567016602 3.740829467773438 4.096256256103516 4.362308502197266 C 3.577959060668945 4.664070129394531 3.226184844970703 4.960903167724609 3.00001335144043 5.188861846923828 L 3.000001907348633 61.45143890380859 C 3.003982543945312 61.46059417724609 3.008193969726562 61.47008895874023 3.012645721435547 61.47990798950195 C 3.112768173217773 61.70082092285156 3.313379287719727 62.04245376586914 3.700424194335938 62.41548538208008 C 4.60198974609375 63.28438568115234 6.516735076904297 64.33761596679688 10.51866817474365 64.42078399658203 C 10.66104602813721 64.42375183105469 10.803879737854 64.42525482177734 10.94316864013672 64.42525482177734 C 13.65683555603027 64.42525482177734 15.7244348526001 63.86268615722656 16.92242431640625 62.7983512878418 C 17.50216102600098 62.28330230712891 17.73552703857422 61.76934432983398 17.81929016113281 61.52926254272461 L 17.81929016113281 5.163261413574219 C 17.60161399841309 4.939094543457031 17.25912666320801 4.644954681396484 16.74846839904785 4.345485687255859 C 15.70181274414062 3.731674194335938 13.76055717468262 3 10.45629024505615 3 M 10.45629024505615 0 C 18.92726898193359 0 20.81929016113281 4.211639404296875 20.81929016113281 4.211639404296875 L 20.81929016113281 61.88103103637695 C 20.81929016113281 61.88103103637695 20.10625648498535 67.42525482177734 10.94317054748535 67.42525482177734 C 10.78327369689941 67.42525482177734 10.62137508392334 67.42356872558594 10.45629024505615 67.42014312744141 C 0.8308238983154297 67.22010040283203 1.9073486328125e-06 61.88104248046875 1.9073486328125e-06 61.88104248046875 L 1.33514404296875e-05 4.211639404296875 C 1.33514404296875e-05 4.211639404296875 1.985313415527344 0 10.45629024505615 0 Z" stroke="none"/>
      </g>
      <g id="그룹_33" data-name="그룹 33" transform="translate(18.556 96.665)">
        <path id="패스_75" data-name="패스 75" d="M0,4.212S1.985,0,10.456,0,20.819,4.212,20.819,4.212V61.881s-.738,5.739-10.363,5.539S0,61.881,0,61.881Z" transform="translate(69.065 32.688) rotate(119)" fill="#222"/>
        <g id="패스_74" data-name="패스 74" transform="translate(70.935 33.418) rotate(119)" fill="#c60a0a">
          <path d="M 10.64828491210938 10.27465534210205 C 7.964194774627686 10.27465534210205 5.456335067749023 9.729545593261719 3.586694955825806 8.73973560333252 C 1.942814946174622 7.86944580078125 1.000004887580872 6.738655567169189 1.000004887580872 5.637325763702393 C 1.000004887580872 4.535995960235596 1.942814946174622 3.405205726623535 3.586694955825806 2.534915685653687 C 5.456335067749023 1.545105814933777 7.964194774627686 0.9999957680702209 10.64828491210938 0.9999957680702209 C 13.33237457275391 0.9999957680702209 15.84022521972656 1.545105814933777 17.70987510681152 2.534915685653687 C 19.3537540435791 3.405215740203857 20.29657554626465 4.535995960235596 20.29657554626465 5.637325763702393 C 20.29657554626465 6.738655567169189 19.3537540435791 7.869435787200928 17.70987510681152 8.73973560333252 C 15.84022521972656 9.729545593261719 13.33237457275391 10.27465534210205 10.64828491210938 10.27465534210205 Z" stroke="none"/>
          <path d="M 10.64828491210938 1.999996185302734 C 8.160934448242188 1.999996185302734 5.757624626159668 2.517095565795898 4.054584503173828 3.418705940246582 C 2.787265777587891 4.089635848999023 1.999994277954102 4.939765930175781 1.999994277954102 5.637325763702393 C 1.999994277954102 6.334885597229004 2.787265777587891 7.185015678405762 4.054584503173828 7.855945587158203 C 5.757624626159668 8.757555961608887 8.160934448242188 9.274656295776367 10.64828491210938 9.274656295776367 C 13.13562488555908 9.274656295776367 15.5389347076416 8.757555961608887 17.24197387695312 7.855945587158203 C 18.5092945098877 7.185015678405762 19.29656410217285 6.334885597229004 19.29656410217285 5.637325763702393 C 19.29656410217285 4.939765930175781 18.5092945098877 4.089635848999023 17.24197387695312 3.418705940246582 C 15.5389347076416 2.517095565795898 13.13562488555908 1.999996185302734 10.64828491210938 1.999996185302734 M 10.64828491210938 -3.814697265625e-06 C 16.52916526794434 -3.814697265625e-06 21.29656410217285 2.52391529083252 21.29656410217285 5.637325763702393 C 21.29656410217285 8.750736236572266 16.52916526794434 11.27465534210205 10.64828491210938 11.27465534210205 C 4.76739501953125 11.27465534210205 -5.7220458984375e-06 8.750736236572266 -5.7220458984375e-06 5.637325763702393 C -5.7220458984375e-06 2.52391529083252 4.76739501953125 -3.814697265625e-06 10.64828491210938 -3.814697265625e-06 Z" stroke="none" fill="#c60a0a"/>
        </g>
      </g>
      <path id="패스_78" data-name="패스 78" d="M10.41,0c5.749,0,10.41,2.467,10.41,5.511s-4.661,5.511-10.41,5.511S0,8.555,0,5.511,4.661,0,10.41,0Z" transform="translate(87.735 129.417) rotate(119)" fill="none"/>
    </g>
    <path id="패스_138" data-name="패스 138" d="M631.274,526.59a8.329,8.329,0,0,0-1.311.113l-26.949-28.688,2.748-9.159-13.28-5.953-8.243,20.149,38.772,30.841a8.33,8.33,0,1,0,8.263-7.3Z" transform="translate(-389.202 -314.327)" fill="#ffb8b8"/>
    <path id="패스_139" data-name="패스 139" d="M603.068,444.482l-12.482,30.511,17.4,8.243,14.411-30.2a10.575,10.575,0,0,0-5.54-14.343h0A10.575,10.575,0,0,0,603.068,444.482Z" transform="translate(-390.512 -305.043)" fill="#fff"/>
    <path id="패스_140" data-name="패스 140" d="M604.174,408.741c3.055-1.762,3.38-6.012,2.965-9.514s-1.108-7.405.95-10.268c2.457-3.417,7.392-3.485,11.6-3.6s9.33-1.343,10.42-5.408c.72-2.686-.821-5.568-3.032-7.254s-4.978-2.432-7.667-3.14c-6.016-1.585-12.227-3.183-18.386-2.312a23.441,23.441,0,0,0-19.971,26.175c1,7.818,2.443,11.232,1.494,14.68-1.768,6.421-9.39,10.546-9.541,17.2-.119,5.208,4.481,9.226,8.97,11.87a30.115,30.115,0,0,0,11.505,4.368c4.1.491,8.52-.449,11.576-3.23,3.942-3.587,4.917-9.579,3.787-14.787s-4.03-9.833-6.9-14.325" transform="translate(-386.884 -290.412)" fill="#2f2e41"/>
  </g>
</svg>
