<svg xmlns="http://www.w3.org/2000/svg" width="765.451" height="729.736" viewBox="0 0 765.451 729.736"><g transform="translate(-623.888 -287.782)" opacity="0.4"><path d="M648.207,819.332S347.573,234.439,524.3,162.651c191.064-77.613,240.223,59.085,320.211,38.1,159.538-41.866,361.9-21.251,328.23,182.108-42.267,255.274,131.141,222.715,28.149,436.478Z" transform="translate(155.248 194.312)" fill="#ebf3fa"/><g transform="translate(751.204 287.782)"><path d="M1683.217,655.466s34.395-145.779,150.425-161.806c0,0,22.575-2.773,30.093,22.086s-37.368,25.038-65.114,35.037S1706.193,603.171,1683.217,655.466Z" transform="translate(-1679.988 -462.669)" fill="#d2e0ff"/><path d="M1677.48,598.518s-12.063-120.751,72.611-163.607c0,0,16.566-8.073,28.876,8.992s-22.033,29.03-40.655,44S1681.3,552.4,1677.48,598.518Z" transform="translate(-1676.887 -433.002)" fill="#d2e0ff"/></g><g transform="translate(983.687 745.973)"><path d="M1896.489,1391.717s9.6-58.414,54.722-49.12c0,0,29.23,9.921,42.094,27.235,0,0-58.791,9.576-56.333,20.405s64.741-15.393,64.741-15.393,43.134,42.24,48.463,63.017c0,0-65.236-12.26-60.188-2.369s72.338,25.8,72.338,25.8,28.71,48.93.68,68.605-48.5,11.707-53.254,4.641-22.169-57.159-28.175-53.519-4.17,41.063,8.46,57.731c0,0-58.659-2.192-65.919-30.325s6.526-42.649,1.722-59.953-13.792-27.965-15.276-17.906,11.883,37.446,5.249,55.231-9.77,31.373-24.1,8-27.508-69.875-11.366-85.977Z" transform="translate(-1770.658 -1341.595)" fill="#bbd0ff"/><g transform="translate(0 50.09)"><path d="M2008.016,1557.553s-93.284-120.028-148.124-117.743c0,0-21.781,8.622-51.958,4.172l-9.713,3.518s38.183,2.284,45.53,8.412C1843.751,1455.911,1875.463,1410,2008.016,1557.553Z" transform="translate(-1734.062 -1439.778)" fill="#bbd0ff"/><path d="M1746.332,1446.415s-39.44-9.436-73.872,16.56l3.4,4.87s40.8-20.7,66.245-17.509S1746.332,1446.415,1746.332,1446.415Z" transform="translate(-1672.46 -1442.211)" fill="#bbd0ff"/></g></g><g transform="translate(1037.99 440.781)"><path d="M1846.336,814.379s-60.833-34.067-32.444-80.3c0,0,22.711-28.389,47.045-35.689,0,0-12.979,68.945,0,70.567s8.922-77.867,8.922-77.867,64.078-30.822,89.222-28.389c0,0-39.745,67.322-26.767,65.7s57.589-69.756,57.589-69.756,65.7-12.167,76.245,26.767-6.489,58.4-16.223,60.833-72.189,1.622-70.566,9.734,43.8,21.089,67.322,13.789c0,0-25.956,64.078-60.023,60.834s-44.611-24.334-65.7-25.956-36.5,4.055-25.956,9.734,46.233,1.861,63.267,16.341,30.822,23.4-.811,29.892-88.412,2.433-99.767-21.9Z" transform="translate(-1806.343 -656.845)" fill="#d2e0ff"/><g transform="translate(7.864 40.734)"><path d="M2058.96,736.689s-170.334,55.155-189.8,116.8c0,0,.811,27.578-16.222,59.211v12.167s17.845-41.367,27.578-47.045C1880.514,877.822,1842.392,824.289,2058.96,736.689Z" transform="translate(-1837.029 -736.689)" fill="#d2e0ff"/><path d="M1837.663,1074.426s-26.268,39.89-11.292,88.447l6.758-1.815s-6.56-53.482,7.183-80.382S1837.663,1074.426,1837.663,1074.426Z" transform="translate(-1821.757 -898.414)" fill="#d2e0ff"/></g></g><g transform="translate(688.185 391.823)"><g transform="translate(0)"><rect width="454.708" height="621.822" fill="#739af0"/><rect width="415.958" height="587.909" transform="translate(19.375 16.779)" fill="#f3faff"/><path d="M1361.5,634.977v21.182a21.172,21.172,0,0,0,21.162,21.182h113.671a21.172,21.172,0,0,0,21.162-21.182V634.977Z" transform="translate(-1220.383 -634.977)" fill="#2b478b"/></g><g transform="translate(67.661 521.469)"><rect width="51.463" height="5.209" fill="#aec3ff"/><rect width="51.463" height="5.209" transform="translate(63.383)" fill="#aec3ff"/><rect width="71.373" height="5.209" transform="translate(0 11.559)" fill="#aec3ff"/></g><g transform="translate(112.063 87.22)"><rect width="223.476" height="2.884" transform="translate(0 51.516)" fill="#8c9df4"/><g transform="translate(-63.772 -477.464)"><g transform="translate(81 466)"><path d="M13.567-69.422h2.911A5.851,5.851,0,0,0,20.7-70.775,4.851,4.851,0,0,0,22.1-74.425,4.6,4.6,0,0,0,20.7-77.972a5.833,5.833,0,0,0-4.1-1.292H13.567ZM8.4-83.487h8.652a10.727,10.727,0,0,1,7.483,2.542,8.4,8.4,0,0,1,2.809,6.52,8.38,8.38,0,0,1-2.891,6.7,10.781,10.781,0,0,1-7.278,2.481H13.567v9.39H8.4Zm33.214,18.7H39.072a4.717,4.717,0,0,0-2.952.8,2.469,2.469,0,0,0-1.025,2.03q0,2.624,3.034,2.624a3.38,3.38,0,0,0,2.563-.964,3.5,3.5,0,0,0,.923-2.522ZM31.527-71.021v-4.552a12.946,12.946,0,0,1,6.725-1.435q8.447,0,8.447,7.873v13.286h-4.88v-2.5q-1.435,2.665-5.413,2.665a6.387,6.387,0,0,1-4.7-1.722,5.856,5.856,0,0,1-1.743-4.347,5.5,5.5,0,0,1,2.214-4.634,10.431,10.431,0,0,1,6.4-1.681h3.034V-69.34a3.555,3.555,0,0,0-.9-2.624,4.262,4.262,0,0,0-3.075-.9A10.845,10.845,0,0,0,31.527-71.021ZM57.565-56.259l-8.2-20.379h5.454L57.237-70q1.107,2.952,1.784,4.962t.841,2.542l.123.574q.41-1.435,2.624-8.078l2.173-6.643h5.167l-7.5,20.215Q59.328-48.1,52.931-48.1a8.951,8.951,0,0,1-2.05-.205v-4.059a5.732,5.732,0,0,0,1.394.164Q56.007-52.2,57.565-56.259ZM83.07-59.786a4.449,4.449,0,0,0,3.608-1.7,7.342,7.342,0,0,0,1.394-4.777,7.342,7.342,0,0,0-1.394-4.777,4.367,4.367,0,0,0-3.526-1.7,4.981,4.981,0,0,0-3.69,1.6A6.56,6.56,0,0,0,77.9-66.388a7.145,7.145,0,0,0,1.517,4.88A4.7,4.7,0,0,0,83.07-59.786ZM77.9-76.639v3.2a7.094,7.094,0,0,1,6.356-3.485,7.934,7.934,0,0,1,6.458,2.911,11.673,11.673,0,0,1,2.4,7.668,12.135,12.135,0,0,1-2.4,7.729,7.826,7.826,0,0,1-6.5,3.055,6.978,6.978,0,0,1-6.315-3.4v10.948H72.983V-76.639Zm19.641,20.79V-84.84h4.921v28.991Zm22.963-12.1v-.615a5.226,5.226,0,0,0-1.087-3.219,3.593,3.593,0,0,0-2.932-1.21,4.176,4.176,0,0,0-3.055,1.292,6.514,6.514,0,0,0-1.661,3.752Zm3.362,6.684V-57a11.949,11.949,0,0,1-6.274,1.353,10.417,10.417,0,0,1-7.832-2.952,10.482,10.482,0,0,1-2.87-7.627,10.807,10.807,0,0,1,2.706-7.791,8.975,8.975,0,0,1,6.766-2.829,8.537,8.537,0,0,1,6.438,2.46q2.378,2.46,2.378,7.176a19.569,19.569,0,0,1-.287,2.952h-13.04a5.591,5.591,0,0,0,2.235,3.444,7.231,7.231,0,0,0,4.244,1.189A9.158,9.158,0,0,0,123.87-61.262Z" transform="translate(63.837 94.066)" fill="#444"/><g transform="translate(0 0)"><path d="M11.889-124.751c8.169-.085,14.562-.264,19.925,2.606a19.227,19.227,0,0,1,3.93,2.809c8.487,7.722,7.812,21.52-.2,28.48a20.609,20.609,0,0,1-4.49,2.971c-4.182,2.024-8.5,2.242-12.391,2.237v15.84H1.9v-54.876ZM18.66-100.9c2.721-.033,4.1-.287,4.981-1.039,1.645-1.4,1.743-5.133.028-6.512-.932-.749-2.317-.985-5.008-1Z" transform="translate(22.062 124.788)" fill="#fff" opacity="0.999"/><path d="M20.571-90.764h4.886q4.749,0,7.088-2.291a8.254,8.254,0,0,0,2.34-6.18,7.821,7.821,0,0,0-2.34-6.006q-2.34-2.187-6.882-2.187H20.571ZM11.9-114.58H26.421q7.846,0,12.56,4.3a14.279,14.279,0,0,1,4.714,11.04,14.248,14.248,0,0,1-4.852,11.353,17.994,17.994,0,0,1-12.216,4.2H20.571v15.9H11.9Z" transform="translate(16.11 118.713)" fill="#6c5da9" opacity="0.999"/><path d="M11.889-124.751c8.169-.085,14.562-.264,19.925,2.606a19.227,19.227,0,0,1,3.93,2.809c8.487,7.722,7.812,21.52-.2,28.48a20.609,20.609,0,0,1-4.49,2.971c-4.182,2.024-8.5,2.242-12.391,2.237v15.84H1.9v-54.876ZM18.66-100.9c2.721-.033,4.1-.287,4.981-1.039,1.645-1.4,1.743-5.133.028-6.512-.932-.749-2.317-.985-5.008-1Z" transform="translate(-1.9 124.788)" fill="#fff" opacity="0.999"/><path d="M20.571-90.764h4.886q4.749,0,7.088-2.291a8.254,8.254,0,0,0,2.34-6.18,7.821,7.821,0,0,0-2.34-6.006q-2.34-2.187-6.882-2.187H20.571ZM11.9-114.58H26.421q7.846,0,12.56,4.3a14.28,14.28,0,0,1,4.714,11.04,14.248,14.248,0,0,1-4.852,11.353,17.994,17.994,0,0,1-12.216,4.2H20.571v15.9H11.9Z" transform="translate(-7.852 118.713)" fill="#6c5da9" opacity="0.999"/></g></g></g></g><g transform="translate(46.881 147.117)"><g transform="translate(271.617)"><g transform="translate(0 12.899)"><path d="M1784.418,1023.861h-75.23V948.63h75.23Zm-71.687-3.544h68.143V952.174h-68.143Z" transform="translate(-1709.188 -948.63)" fill="#afcdfb"/></g><g transform="translate(10.954)"><path d="M1759.189,996.355a5.314,5.314,0,0,1-4.1-1.928l-23.215-28.083a5.315,5.315,0,1,1,8.192-6.773l18.412,22.271,33.306-55.9a5.315,5.315,0,1,1,9.133,5.441l-37.165,62.378a5.314,5.314,0,0,1-4.158,2.579C1759.461,996.35,1759.325,996.355,1759.189,996.355Z" transform="translate(-1730.66 -923.346)" fill="#f99746"/></g></g><g transform="translate(0 23.147)"><g transform="translate(46.433 0.856)"><rect width="167.127" height="7.34" fill="#aec3ff"/><g transform="translate(0 32.784)"><rect width="154.023" height="7.34" fill="#aec3ff"/></g><g transform="translate(0 16.392)"><rect width="45.558" height="7.34" transform="translate(121.568)" fill="#aec3ff"/><rect width="108.945" height="7.34" fill="#aec3ff"/></g></g><path d="M1185.8,976.134l-7.477,2.077-1.543-5.934,11.156-3.561h5.1v41.836h-7.24Z" transform="translate(-1176.781 -968.717)" fill="#aec3ff"/><path d="M1218.021,1043.006a2.642,2.642,0,1,1,2.642,2.642A2.642,2.642,0,0,1,1218.021,1043.006Z" transform="translate(-1196.982 -1003.812)" fill="#aec3ff"/></g></g><g transform="translate(46.559 259.498)"><g transform="translate(272.522)"><g transform="translate(0 12.899)"><path d="M1785.56,1244.144h-75.23v-75.23h75.23Zm-71.687-3.543h68.144v-68.144h-68.144Z" transform="translate(-1710.33 -1168.914)" fill="#afcdfb"/></g><g transform="translate(10.954)"><path d="M1760.332,1216.638a5.317,5.317,0,0,1-4.1-1.928l-23.215-28.083a5.315,5.315,0,1,1,8.193-6.773l18.411,22.272,33.306-55.9a5.315,5.315,0,1,1,9.132,5.441l-37.165,62.377a5.314,5.314,0,0,1-4.159,2.579C1760.6,1216.633,1760.467,1216.638,1760.332,1216.638Z" transform="translate(-1731.802 -1143.629)" fill="#f99746"/></g></g><g transform="translate(0 23.147)"><path d="M1176.15,1225.121l14.2-12.08c5.657-4.773,7.719-7.425,7.719-11.136,0-4.066-2.887-6.423-6.658-6.423s-6.364,2.063-9.546,6.187l-5.127-4.007c3.948-5.538,7.837-8.662,15.2-8.662,8.073,0,13.612,4.95,13.612,12.433,0,6.482-3.477,9.959-10.724,15.969l-8.485,7.071h19.622v6.365H1176.15Z" transform="translate(-1176.15 -1189)" fill="#aec3ff"/><path d="M1244.211,1263.343a2.623,2.623,0,1,1,2.624,2.624A2.624,2.624,0,0,1,1244.211,1263.343Z" transform="translate(-1209.489 -1224.131)" fill="#aec3ff"/><g transform="translate(48.138 0.856)"><rect width="175.621" height="7.34" fill="#aec3ff"/><g transform="translate(0 32.784)"><rect width="161.851" height="7.34" fill="#aec3ff"/></g><g transform="translate(0 16.392)"><rect width="47.874" height="7.34" transform="translate(127.747)" fill="#aec3ff"/><rect width="114.482" height="7.34" fill="#aec3ff"/></g></g></g></g><g transform="translate(46.036 372.71)"><g transform="translate(273.044)"><g transform="translate(0 12.899)"><path d="M1785.56,1466.053h-75.23v-75.23h75.23Zm-71.687-3.543h68.144v-68.143h-68.144Z" transform="translate(-1710.33 -1390.823)" fill="#afcdfb"/></g><g transform="translate(10.954)"><path d="M1760.332,1438.548a5.315,5.315,0,0,1-4.1-1.928l-23.215-28.083a5.315,5.315,0,1,1,8.193-6.772l18.411,22.271,33.306-55.9a5.315,5.315,0,0,1,9.132,5.441l-37.165,62.378a5.314,5.314,0,0,1-4.159,2.579C1760.6,1438.543,1760.467,1438.548,1760.332,1438.548Z" transform="translate(-1731.802 -1365.54)" fill="#f99746"/></g></g><g transform="translate(48.66 24.003)"><rect width="175.621" height="7.34" fill="#aec3ff"/><g transform="translate(0 32.783)"><rect width="161.851" height="7.34" fill="#aec3ff"/></g><g transform="translate(0 16.392)"><rect width="47.874" height="7.34" transform="translate(127.747)" fill="#aec3ff"/><rect width="114.482" height="7.34" fill="#aec3ff"/></g></g><g transform="translate(0 23.537)"><path d="M1175.126,1445.638l4.959-4.613c2.883,3.4,6.112,5.3,10.609,5.3,3.979,0,6.977-2.422,6.977-6.227,0-3.979-3.633-6.228-9.283-6.228H1185.1l-1.154-4.44,10.9-11.59h-17.471v-6.17h26.7v5.3l-11.244,11.533c6.4.922,11.878,4.209,11.878,11.474,0,7.438-5.765,12.742-14.127,12.742A19.134,19.134,0,0,1,1175.126,1445.638Z" transform="translate(-1175.126 -1411.676)" fill="#aec3ff"/><path d="M1237.09,1484.651a2.568,2.568,0,1,1,2.568,2.567A2.567,2.567,0,0,1,1237.09,1484.651Z" transform="translate(-1205.478 -1446.164)" fill="#aec3ff"/></g></g><g transform="translate(212.616 460.839)"><g transform="translate(14.053 49.164)"><path d="M1560.5,1662.755a32,32,0,0,1-31.26-25.479,2.185,2.185,0,0,1,4.282-.876,27.544,27.544,0,0,0,53.9.26,2.186,2.186,0,1,1,4.274.919A32.061,32.061,0,0,1,1560.5,1662.755Z" transform="translate(-1529.191 -1634.652)" fill="#aec3ff"/></g><g transform="translate(13.993 13.451)"><path d="M1531.261,1593.06a2.185,2.185,0,0,1-2.148-2.6,31.915,31.915,0,0,1,62.274-1.693,2.186,2.186,0,1,1-4.24,1.064,27.545,27.545,0,0,0-53.743,1.461A2.187,2.187,0,0,1,1531.261,1593.06Z" transform="translate(-1529.073 -1564.65)" fill="#aec3ff"/></g><path d="M1547,1629a45.359,45.359,0,1,1,45.358-45.359A45.41,45.41,0,0,1,1547,1629Zm0-84.5a39.145,39.145,0,1,0,39.145,39.145A39.19,39.19,0,0,0,1547,1544.5Z" transform="translate(-1501.645 -1538.285)" fill="#aec3ff"/><g transform="translate(32.136 39.677)"><rect width="17.966" height="2.875" transform="translate(4.239)" fill="#aec3ff"/><rect width="17.966" height="2.876" transform="translate(4.239 11.767)" fill="#aec3ff"/><rect width="26.443" height="2.876" transform="translate(0 5.682)" fill="#aec3ff"/></g></g></g><g transform="matrix(-0.469, 0.883, -0.883, -0.469, 1235.036, 608.57)"><path d="M1343.475,1786.4a12.932,12.932,0,0,0,.1,1.661,13.619,13.619,0,0,0,13.525,11.967h191.68a13.63,13.63,0,0,0,0-27.261H1357.1A13.63,13.63,0,0,0,1343.475,1786.4Z" transform="translate(-1343.475 -1766.121)" fill="#2b478b"/><path d="M1383.119,1757.024h65.72a2.1,2.1,0,0,0,2.092-2.092h0a2.1,2.1,0,0,0-2.092-2.092h-65.72a2.1,2.1,0,0,0-2.092,2.092h0A2.1,2.1,0,0,0,1383.119,1757.024Z" transform="translate(-1368.498 -1752.84)" fill="#2b478b"/><rect width="7.124" height="2.467" transform="translate(25.374 6.651) rotate(180)" fill="#233862"/><path d="M1348.432,1833.172a13.649,13.649,0,0,0,11.975,7.109h40.6v-7.109Z" transform="translate(-1346.778 -1806.371)" fill="#233862"/><path d="M1638.471,1782.41v7.985a9.631,9.631,0,0,1-9.635,9.638H1429.168a9.631,9.631,0,0,1-9.635-9.638v-7.985a9.635,9.635,0,0,1,9.635-9.638h199.669A9.635,9.635,0,0,1,1638.471,1782.41Z" transform="translate(-1394.158 -1766.122)" fill="#f99746"/><path d="M1638.806,1833.172a9.633,9.633,0,0,1-9.3,7.109H1429.839a9.633,9.633,0,0,1-9.3-7.109Z" transform="translate(-1394.829 -1806.371)" fill="#ef873a"/><g transform="translate(224.482 6.65)"><path d="M2016.323,1786.451a15.151,15.151,0,0,0,3.965,10.525c.055.055.107.111.162.166a9.674,9.674,0,0,0,6.84,2.987c4.042,0,14.061-6.1,20.27-10.148,3.094-2.019,5.242-3.529,5.242-3.529s-2.148-1.51-5.242-3.529c-6.209-4.053-16.228-10.151-20.27-10.151a9.051,9.051,0,0,0-3.355.65,10.985,10.985,0,0,0-4.622,3.647,15.048,15.048,0,0,0-2.776,6.671.707.707,0,0,0-.011.089A16.873,16.873,0,0,0,2016.323,1786.451Z" transform="translate(-2016.323 -1772.771)" fill="#8c9df4"/><path d="M2016.323,1808.533a15.151,15.151,0,0,0,3.965,10.524l30.731-10.572-34.492-2.577A16.874,16.874,0,0,0,2016.323,1808.533Z" transform="translate(-2016.323 -1794.853)" fill="#6980e2"/><path d="M2025.285,1778.365l30.658,8.372-26.036-12.019A10.982,10.982,0,0,0,2025.285,1778.365Z" transform="translate(-2022.295 -1774.068)" fill="#9fb1ff"/><path d="M2103.953,1806.727a3.785,3.785,0,0,0,2,3.529c3.094-2.019,5.242-3.529,5.242-3.529s-2.148-1.51-5.242-3.529A3.777,3.777,0,0,0,2103.953,1806.727Z" transform="translate(-2074.717 -1793.047)" fill="#182d4c"/></g></g><path d="M539.087,1804.185H586c2.514-2.133-1.74-6.976-6.184-7.3a27.4,27.4,0,0,0-7.161.847c-.645-8.574-4.332-47.123-18.227-45.574-15.623,1.734,0,16.976,4.417,26a214.813,214.813,0,0,1,8.3,20.792c-1.269.275-2.581.544-3.923.792-2.071-6.358-9.776-27.745-19.574-26.5-11.5,1.46-6.88,10.034,1.274,15.124,5.982,3.743,13.328,9.064,16.818,11.634a49.9,49.9,0,0,1-9.175.735C544.531,1800.543,540.608,1802.911,539.087,1804.185Z" transform="translate(87.135 -786.667)" fill="#a8d29f"/><path d="M2480.984,1798.655h-51.906c-2.781-2.36,1.925-7.718,6.842-8.078a30.284,30.284,0,0,1,7.923.937c.714-9.487,4.793-52.136,20.166-50.421,17.285,1.918,0,18.781-4.886,28.765a237.28,237.28,0,0,0-9.183,23c1.4.3,2.856.6,4.34.875,2.291-7.035,10.816-30.7,21.656-29.318,12.728,1.614,7.612,11.1-1.41,16.733-6.619,4.141-14.746,10.027-18.608,12.871a55.1,55.1,0,0,0,10.151.813C2474.961,1794.625,2479.3,1797.245,2480.984,1798.655Z" transform="translate(-1195.247 -785.01)" fill="#a8d29f"/><path d="M1.936,0H763.514a1.936,1.936,0,0,1,1.936,1.936v0a1.937,1.937,0,0,1-1.937,1.937H1.937A1.937,1.937,0,0,1,0,1.936v0A1.936,1.936,0,0,1,1.936,0Z" transform="translate(623.889 1013.644)" fill="#233862"/></g></svg>