<svg xmlns="http://www.w3.org/2000/svg" width="1570" height="524" viewBox="0 0 1570 524"><g transform="translate(-73 -1132)"><rect width="1570" height="524" transform="translate(73 1132)" fill="#fff"/><g transform="translate(586.916 937.674)" opacity="0.4"><path d="M328.044,565.521S227.034,479.274,303.82,397.53c81.752-87.03,9.323-198.758,120.3-243.837,119.979-48.737,150.848,37.1,201.077,23.922C725.375,151.325,852.45,164.27,831.306,291.97c-26.542,160.3,82.35,139.854,17.676,274.086Z" transform="translate(124.908 149.986)" fill="#ebf3fa"/><g transform="translate(742.844 288.69)"><path d="M1683.217,589.016s20.278-85.946,88.685-95.395c0,0,13.31-1.635,17.742,13.021s-22.031,14.761-38.389,20.656S1696.763,558.185,1683.217,589.016Z" transform="translate(-1681.313 -475.351)" fill="#d2e0ff"/><path d="M1677.237,530.584s-7.112-71.19,42.809-96.456c0,0,9.766-4.76,17.024,5.3s-12.99,17.115-23.969,25.942S1679.491,503.393,1677.237,530.584Z" transform="translate(-1676.887 -433.002)" fill="#d2e0ff"/></g><g transform="translate(498.681 445.982)" opacity="0.8"><path d="M886.148,780.326s21.086-11.808,11.246-27.833c0,0-7.872-9.84-16.307-12.37,0,0,4.5,23.9,0,24.46s-3.093-26.99-3.093-26.99-22.211-10.684-30.926-9.84c0,0,13.776,23.335,9.278,22.773s-19.961-24.179-19.961-24.179-22.773-4.217-26.428,9.278,2.249,20.243,5.623,21.086,25.022.562,24.46,3.374-15.182,7.31-23.335,4.78c0,0,9,22.211,20.8,21.086s15.463-8.434,22.773-9,12.652,1.406,9,3.374-16.025.645-21.929,5.664-10.684,8.112.281,10.361,30.645.843,34.581-7.591Z" transform="translate(-808.804 -725.722)" fill="#aec3ff"/><g transform="translate(11.555 14.119)"><path d="M862.263,791.04s59.041,19.118,65.788,40.485a44.85,44.85,0,0,0,5.623,20.524v4.217s-6.185-14.339-9.559-16.307C924.115,839.959,937.329,821.4,862.263,791.04Z" transform="translate(-862.263 -791.04)" fill="#aec3ff"/><path d="M1182.4,1063.766s9.105,13.827,3.914,30.657l-2.342-.629s2.274-18.538-2.49-27.861S1182.4,1063.766,1182.4,1063.766Z" transform="translate(-1110.99 -1002.757)" fill="#aec3ff"/></g></g><g transform="translate(429.396 544.162)" opacity="0.5"><path d="M646.617,1231.689s13.813-41.384-18.795-50.83c0,0-22.466-3.577-36.8,3.29,0,0,35.037,26.447,29.714,32.663s-36.917-32.285-36.917-32.285-42.638,12.715-53.251,24.429c0,0,46.744,14.426,40.054,19.14s-56.028-8.039-56.028-8.039-35.533,22.033-24.02,44.494,27.594,24.3,33.124,21.327,34.1-29.646,36.761-25.208-11.393,28.2-25.355,34.73c0,0,39,18.73,53.4,2.884s10.4-30.047,19.481-39.678,18.6-13.492,16.112-6.424-20.616,20.328-22.4,34.2-4.412,23.811,12.962,13.494,41.947-36.1,36.957-52.146Z" transform="translate(-488.274 -1179.928)" fill="#d2e0ff"/><g transform="translate(21.31 46.589)"><path d="M586.859,1426.488s102.066-46.193,137.033-25.856c0,0,11.886,14.574,4.99,16.044C728.882,1416.676,723.986,1375.845,586.859,1426.488Z" transform="translate(-586.859 -1395.459)" fill="#d2e0ff"/></g></g><g transform="translate(741.512 561.973)"><path d="M1886.82,1371.145s5.663-34.438,32.262-28.959c0,0,17.233,5.849,24.817,16.057,0,0-34.661,5.646-33.212,12.03s38.169-9.075,38.169-9.075,25.43,24.9,28.572,37.152c0,0-38.46-7.228-35.485-1.4s42.648,15.212,42.648,15.212,16.926,28.847.4,40.447-28.592,6.9-31.4,2.736-13.07-33.7-16.611-31.552-2.459,24.209,4.988,34.036c0,0-34.583-1.292-38.864-17.879s3.847-25.144,1.015-35.346-8.131-16.487-9.006-10.557,7.006,22.077,3.094,32.562-5.76,18.5-14.207,4.714-16.217-41.2-6.7-50.689Z" transform="translate(-1812.636 -1341.595)" fill="#bbd0ff"/><g transform="translate(0 29.531)"><path d="M1921.908,1509.213s-55-70.764-87.328-69.417c0,0-12.841,5.083-30.633,2.459l-5.726,2.074s22.511,1.346,26.843,4.959C1825.064,1449.289,1843.76,1422.221,1921.908,1509.213Z" transform="translate(-1760.395 -1439.778)" fill="#bbd0ff"/><path d="M1716.012,1445.73s-23.252-5.563-43.552,9.763l2.006,2.871s24.053-12.2,39.056-10.322S1716.012,1445.73,1716.012,1445.73Z" transform="translate(-1672.46 -1443.251)" fill="#bbd0ff"/></g></g><g transform="translate(781.781 356.017)"><path d="M1829.921,749.721s-35.865-20.085-19.128-47.342c0,0,13.39-16.737,27.736-21.041,0,0-7.652,40.647,0,41.6s5.26-45.907,5.26-45.907,37.778-18.172,52.6-16.737c0,0-23.432,39.691-15.781,38.735s33.953-41.126,33.953-41.126,38.734-7.173,44.951,15.781-3.826,34.431-9.564,35.865-42.56.956-41.6,5.738,25.823,12.433,39.69,8.129c0,0-15.3,37.778-35.387,35.865s-26.3-14.346-38.734-15.3-21.519,2.391-15.3,5.739,27.257,1.1,37.3,9.634,18.172,13.8-.478,17.623-52.124,1.434-58.819-12.912Z" transform="translate(-1806.343 -656.845)" fill="#d2e0ff"/><g transform="translate(4.636 24.015)"><path d="M1974.4,736.689s-100.422,32.518-111.9,68.861c0,0,.478,16.259-9.564,34.909v7.173s10.52-24.388,16.259-27.736C1869.2,819.9,1846.72,788.335,1974.4,736.689Z" transform="translate(-1843.558 -736.689)" fill="#d2e0ff"/><path d="M1831.135,1071.318s-15.487,23.518-6.657,52.145l3.984-1.07s-3.867-31.531,4.235-47.39S1831.135,1071.318,1831.135,1071.318Z" transform="translate(-1821.756 -967.548)" fill="#d2e0ff"/></g></g><g transform="translate(564.785 349.439)"><g transform="translate(0)"><rect width="268.079" height="366.603" fill="#739af0"/><rect width="245.233" height="346.609" transform="translate(11.423 9.892)" fill="#f3faff"/><path d="M1361.5,634.977v12.488a12.482,12.482,0,0,0,12.476,12.488h67.016a12.482,12.482,0,0,0,12.477-12.488V634.977Z" transform="translate(-1278.303 -634.977)" fill="#2b478b"/></g><g transform="translate(39.89 307.439)"><rect width="30.341" height="3.071" fill="#aec3ff"/><rect width="30.341" height="3.071" transform="translate(37.368)" fill="#aec3ff"/><rect width="42.079" height="3.071" transform="translate(0 6.815)" fill="#aec3ff"/></g><g transform="translate(66.068 44.663)"><rect width="131.753" height="1.701" transform="translate(0 37.131)" fill="#8c9df4"/><g transform="translate(10.157 0)"><g transform="translate(0)"><path d="M11.446-75.75h1.716a3.45,3.45,0,0,0,2.49-.8,2.86,2.86,0,0,0,.822-2.152,2.71,2.71,0,0,0-.822-2.091,3.439,3.439,0,0,0-2.418-.762H11.446ZM8.4-84.042h5.1a6.324,6.324,0,0,1,4.412,1.5A4.951,4.951,0,0,1,19.569-78.7a4.94,4.94,0,0,1-1.7,3.953,6.356,6.356,0,0,1-4.291,1.463H11.446v5.536H8.4ZM27.982-73.018h-1.5a2.781,2.781,0,0,0-1.741.471,1.456,1.456,0,0,0-.6,1.2q0,1.547,1.789,1.547a1.993,1.993,0,0,0,1.511-.568,2.06,2.06,0,0,0,.544-1.487Zm-5.947-3.675v-2.683A7.632,7.632,0,0,1,26-80.223q4.98,0,4.98,4.642v7.833H28.1v-1.475a3.291,3.291,0,0,1-3.191,1.571,3.766,3.766,0,0,1-2.768-1.015,3.452,3.452,0,0,1-1.027-2.563,3.24,3.24,0,0,1,1.305-2.732,6.15,6.15,0,0,1,3.771-.991h1.789V-75.7a2.1,2.1,0,0,0-.532-1.547,2.513,2.513,0,0,0-1.813-.532A6.394,6.394,0,0,0,22.035-76.693Zm15.351,8.7L32.551-80.005h3.215l1.426,3.916q.653,1.741,1.052,2.925t.5,1.5l.073.338q.242-.846,1.547-4.762l1.281-3.916h3.046L40.263-68.087q-1.837,4.908-5.609,4.908a5.277,5.277,0,0,1-1.209-.121v-2.393a3.378,3.378,0,0,0,.822.1A3.212,3.212,0,0,0,37.386-67.99Zm15.037-2.079a2.623,2.623,0,0,0,2.127-1,4.329,4.329,0,0,0,.822-2.816,4.329,4.329,0,0,0-.822-2.816,2.575,2.575,0,0,0-2.079-1,2.937,2.937,0,0,0-2.176.943,3.867,3.867,0,0,0-.919,2.8,4.213,4.213,0,0,0,.894,2.877A2.771,2.771,0,0,0,52.423-70.069Zm-3.046-9.936v1.886a4.183,4.183,0,0,1,3.747-2.055,4.678,4.678,0,0,1,3.808,1.716,6.882,6.882,0,0,1,1.414,4.521,7.154,7.154,0,0,1-1.414,4.557,4.614,4.614,0,0,1-3.832,1.8,4.114,4.114,0,0,1-3.723-2.007v6.455h-2.9V-80.005Zm11.58,12.257V-84.84h2.9v17.092ZM74.495-74.88v-.363a3.081,3.081,0,0,0-.641-1.9,2.118,2.118,0,0,0-1.729-.713,2.462,2.462,0,0,0-1.8.762,3.841,3.841,0,0,0-.979,2.212Zm1.982,3.941v2.514a7.045,7.045,0,0,1-3.7.8,6.142,6.142,0,0,1-4.617-1.741,6.18,6.18,0,0,1-1.692-4.5,6.372,6.372,0,0,1,1.6-4.593,5.292,5.292,0,0,1,3.989-1.668,5.033,5.033,0,0,1,3.8,1.451,5.852,5.852,0,0,1,1.4,4.231,11.537,11.537,0,0,1-.169,1.741H69.394a3.3,3.3,0,0,0,1.318,2.031,4.263,4.263,0,0,0,2.5.7A5.4,5.4,0,0,0,76.477-70.939Z" transform="translate(34.188 90.279)" fill="#444"/><g transform="translate(0)"><path d="M7.789-124.766c4.816-.05,8.585-.156,11.747,1.536a11.336,11.336,0,0,1,2.317,1.656,11.48,11.48,0,0,1-.12,16.791,12.15,12.15,0,0,1-2.647,1.751,16.2,16.2,0,0,1-7.305,1.319v9.339H1.9v-32.353Zm3.992,14.061c1.6-.019,2.417-.169,2.936-.613a2.852,2.852,0,0,0,.016-3.839c-.549-.442-1.366-.581-2.953-.592Z" transform="translate(12.227 124.788)" fill="#fff" opacity="0.999"/><path d="M17.012-100.539h2.881a5.757,5.757,0,0,0,4.179-1.351,4.866,4.866,0,0,0,1.38-3.643,4.611,4.611,0,0,0-1.38-3.541,5.738,5.738,0,0,0-4.057-1.289h-3ZM11.9-114.58h8.561a10.555,10.555,0,0,1,7.4,2.538,8.419,8.419,0,0,1,2.779,6.509,8.4,8.4,0,0,1-2.86,6.693,10.609,10.609,0,0,1-7.2,2.477h-3.57v9.374H11.9Z" transform="translate(4.614 117.016)" fill="#6c5da9" opacity="0.999"/><path d="M7.789-124.766c4.816-.05,8.585-.156,11.747,1.536a11.336,11.336,0,0,1,2.317,1.656,11.48,11.48,0,0,1-.12,16.791,12.15,12.15,0,0,1-2.647,1.751,16.2,16.2,0,0,1-7.305,1.319v9.339H1.9v-32.353Zm3.992,14.061c1.6-.019,2.417-.169,2.936-.613a2.852,2.852,0,0,0,.016-3.839c-.549-.442-1.366-.581-2.953-.592Z" transform="translate(-1.9 124.788)" fill="#fff" opacity="0.999"/><path d="M17.012-100.539h2.881a5.757,5.757,0,0,0,4.179-1.351,4.866,4.866,0,0,0,1.38-3.643,4.611,4.611,0,0,0-1.38-3.541,5.738,5.738,0,0,0-4.057-1.289h-3ZM11.9-114.58h8.561a10.555,10.555,0,0,1,7.4,2.538,8.419,8.419,0,0,1,2.779,6.509,8.4,8.4,0,0,1-2.86,6.693,10.609,10.609,0,0,1-7.2,2.477h-3.57v9.374H11.9Z" transform="translate(-9.513 117.016)" fill="#6c5da9" opacity="0.999"/></g></g></g></g><g transform="translate(27.639 86.735)"><g transform="translate(160.135)"><g transform="translate(0 7.605)"><path d="M1753.541,992.983h-44.353V948.63h44.353Zm-42.264-2.089h40.175V950.719h-40.175Z" transform="translate(-1709.188 -948.63)" fill="#afcdfb"/></g><g transform="translate(6.458)"><path d="M1747.48,966.389a3.133,3.133,0,0,1-2.415-1.137L1731.379,948.7a3.133,3.133,0,1,1,4.83-3.993l10.855,13.13,19.636-32.957a3.134,3.134,0,1,1,5.384,3.208l-21.911,36.776a3.133,3.133,0,0,1-2.452,1.52C1747.64,966.386,1747.56,966.389,1747.48,966.389Z" transform="translate(-1730.66 -923.346)" fill="#f99746"/></g></g><g transform="translate(0 13.646)"><g transform="translate(27.375 0.505)"><rect width="98.532" height="4.327" fill="#aec3ff"/><g transform="translate(0 19.328)"><rect width="90.806" height="4.327" fill="#aec3ff"/></g><g transform="translate(0 9.664)"><rect width="26.86" height="4.327" transform="translate(71.672)" fill="#aec3ff"/><rect width="64.23" height="4.327" fill="#aec3ff"/></g></g><path d="M1182.1,973.09l-4.408,1.225-.909-3.5,6.577-2.1h3.009v24.665H1182.1Z" transform="translate(-1176.781 -968.717)" fill="#aec3ff"/><path d="M1218.021,1041.921a1.558,1.558,0,1,1,1.557,1.558A1.558,1.558,0,0,1,1218.021,1041.921Z" transform="translate(-1205.617 -1018.814)" fill="#aec3ff"/></g></g><g transform="translate(27.449 152.99)"><g transform="translate(160.668)"><g transform="translate(0 7.605)"><path d="M1754.683,1213.267H1710.33v-44.353h44.353Zm-42.264-2.089h40.175V1171h-40.175Z" transform="translate(-1710.33 -1168.914)" fill="#afcdfb"/></g><g transform="translate(6.458)"><path d="M1748.622,1186.672a3.135,3.135,0,0,1-2.415-1.137l-13.687-16.557a3.134,3.134,0,0,1,4.83-3.993l10.854,13.131,19.636-32.957a3.134,3.134,0,1,1,5.384,3.208l-21.911,36.775a3.134,3.134,0,0,1-2.452,1.521C1748.782,1186.67,1748.7,1186.672,1748.622,1186.672Z" transform="translate(-1731.802 -1143.629)" fill="#f99746"/></g></g><g transform="translate(0 13.646)"><path d="M1176.15,1210.3l8.372-7.122c3.335-2.814,4.551-4.377,4.551-6.566a3.646,3.646,0,0,0-3.926-3.787c-2.223,0-3.752,1.216-5.628,3.647l-3.022-2.362c2.328-3.265,4.62-5.106,8.963-5.106,4.76,0,8.025,2.918,8.025,7.33,0,3.821-2.05,5.871-6.323,9.415l-5,4.169h11.568v3.752H1176.15Z" transform="translate(-1176.15 -1189)" fill="#aec3ff"/><path d="M1244.211,1262.267a1.547,1.547,0,1,1,1.547,1.547A1.547,1.547,0,0,1,1244.211,1262.267Z" transform="translate(-1223.74 -1239.148)" fill="#aec3ff"/><g transform="translate(28.38 0.505)"><rect width="103.54" height="4.327" fill="#aec3ff"/><g transform="translate(0 19.328)"><rect width="95.421" height="4.327" fill="#aec3ff"/></g><g transform="translate(0 9.664)"><rect width="28.225" height="4.327" transform="translate(75.315)" fill="#aec3ff"/><rect width="67.494" height="4.327" fill="#aec3ff"/></g></g></g></g><g transform="translate(27.141 219.736)"><g transform="translate(160.976)"><g transform="translate(0 7.605)"><path d="M1754.683,1435.176H1710.33v-44.353h44.353Zm-42.264-2.089h40.175v-40.175h-40.175Z" transform="translate(-1710.33 -1390.823)" fill="#afcdfb"/></g><g transform="translate(6.458)"><path d="M1748.622,1408.582a3.134,3.134,0,0,1-2.415-1.137l-13.687-16.557a3.134,3.134,0,0,1,4.83-3.993l10.854,13.13,19.636-32.957a3.134,3.134,0,0,1,5.384,3.208l-21.911,36.776a3.133,3.133,0,0,1-2.452,1.52C1748.782,1408.58,1748.7,1408.582,1748.622,1408.582Z" transform="translate(-1731.802 -1365.539)" fill="#f99746"/></g></g><g transform="translate(28.688 14.151)"><rect width="103.54" height="4.327" fill="#aec3ff"/><g transform="translate(0 19.328)"><rect width="95.421" height="4.327" fill="#aec3ff"/></g><g transform="translate(0 9.664)"><rect width="28.225" height="4.327" transform="translate(75.315)" fill="#aec3ff"/><rect width="67.494" height="4.327" fill="#aec3ff"/></g></g><g transform="translate(0 13.877)"><path d="M1175.126,1431.7l2.923-2.72a7.761,7.761,0,0,0,6.255,3.127c2.346,0,4.113-1.428,4.113-3.671,0-2.346-2.142-3.672-5.473-3.672h-1.937l-.68-2.618,6.425-6.833h-10.3v-3.638h15.74v3.127l-6.629,6.8c3.773.543,7,2.481,7,6.765,0,4.385-3.4,7.512-8.328,7.512A11.281,11.281,0,0,1,1175.126,1431.7Z" transform="translate(-1175.126 -1411.676)" fill="#aec3ff"/><path d="M1237.09,1483.6a1.514,1.514,0,1,1,1.514,1.514A1.514,1.514,0,0,1,1237.09,1483.6Z" transform="translate(-1218.453 -1460.907)" fill="#aec3ff"/></g></g><g transform="translate(125.35 271.693)"><g transform="translate(8.285 28.985)"><path d="M1547.647,1651.221a18.868,18.868,0,0,1-18.43-15.022,1.288,1.288,0,0,1,2.525-.516,16.239,16.239,0,0,0,31.778.153,1.289,1.289,0,1,1,2.52.542A18.9,18.9,0,0,1,1547.647,1651.221Z" transform="translate(-1529.191 -1634.652)" fill="#aec3ff"/></g><g transform="translate(8.25 7.93)"><path d="M1530.363,1581.4a1.288,1.288,0,0,1-1.266-1.534,18.816,18.816,0,0,1,36.714-1,1.289,1.289,0,1,1-2.5.627,16.239,16.239,0,0,0-31.685.861A1.289,1.289,0,0,1,1530.363,1581.4Z" transform="translate(-1529.073 -1564.65)" fill="#aec3ff"/></g><path d="M1528.386,1591.768a26.742,26.742,0,1,1,26.741-26.742A26.772,26.772,0,0,1,1528.386,1591.768Zm0-49.82a23.079,23.079,0,1,0,23.078,23.078A23.1,23.1,0,0,0,1528.386,1541.948Z" transform="translate(-1501.645 -1538.285)" fill="#aec3ff"/><g transform="translate(18.946 23.392)"><rect width="10.592" height="1.695" transform="translate(2.499)" fill="#aec3ff"/><rect width="10.592" height="1.695" transform="translate(2.499 6.937)" fill="#aec3ff"/><rect width="15.59" height="1.695" transform="translate(0 3.35)" fill="#aec3ff"/></g></g></g><g transform="matrix(-0.469, 0.883, -0.883, -0.469, 887.188, 477.226)"><path d="M0,8.037a7.63,7.63,0,0,0,.061.979,8.029,8.029,0,0,0,7.974,7.056H121.042a8.036,8.036,0,0,0,0-16.072H8.035A8.036,8.036,0,0,0,0,8.037Z" transform="translate(0 3.92)" fill="#2b478b"/><path d="M1.233,2.467H39.98a1.237,1.237,0,0,0,1.233-1.233h0A1.237,1.237,0,0,0,39.98,0H1.233A1.237,1.237,0,0,0,0,1.233H0A1.237,1.237,0,0,0,1.233,2.467Z" transform="translate(7.386 0)" fill="#2b478b"/><rect width="4.2" height="1.455" transform="translate(14.96 3.921) rotate(180)" fill="#233862"/><path d="M0,0A8.043,8.043,0,0,0,1.377,1.839,8.014,8.014,0,0,0,7.06,4.191H31V0Z" transform="translate(0.975 15.801)" fill="#233862"/><path d="M129.078,5.682V10.39a5.678,5.678,0,0,1-5.68,5.682H5.68A5.678,5.678,0,0,1,0,10.39V5.682A5.68,5.68,0,0,1,5.68,0H123.4A5.68,5.68,0,0,1,129.078,5.682Z" transform="translate(14.96 3.921)" fill="#f99746"/><path d="M128.682,0A5.679,5.679,0,0,1,123.2,4.191H5.482A5.679,5.679,0,0,1,0,0Z" transform="translate(15.158 15.801)" fill="#ef873a"/><g transform="translate(132.346 3.92)"><path d="M0,8.065a8.933,8.933,0,0,0,2.337,6.2l.1.1a5.7,5.7,0,0,0,4.033,1.761c2.383,0,8.29-3.6,11.95-5.983,1.824-1.19,3.091-2.081,3.091-2.081s-1.267-.89-3.091-2.08C14.756,3.6,8.849,0,6.466,0A5.335,5.335,0,0,0,4.488.383a6.476,6.476,0,0,0-2.725,2.15A8.872,8.872,0,0,0,.126,6.466a.414.414,0,0,0-.006.052A9.949,9.949,0,0,0,0,8.065Z" transform="translate(0 0)" fill="#8c9df4"/><path d="M0,1.547a8.933,8.933,0,0,0,2.337,6.2L20.455,1.519.12,0A9.95,9.95,0,0,0,0,1.547Z" transform="translate(0 6.518)" fill="#6980e2"/><path d="M0,2.15,18.075,7.086,2.725,0A6.475,6.475,0,0,0,0,2.15Z" transform="translate(1.763 0.383)" fill="#9fb1ff"/><path d="M0,2.08A2.231,2.231,0,0,0,1.18,4.161C3,2.971,4.27,2.08,4.27,2.08S3,1.19,1.18,0A2.227,2.227,0,0,0,0,2.08Z" transform="translate(17.236 5.985)" fill="#182d4c"/></g></g><g transform="translate(843.805 477.998)"><path d="M2182.167,1063.746a10.429,10.429,0,0,0-8.245-.882c-14.006-1.645-18.092,14.689-17.9,20.31s.831,11.657-5.424,18.958c-18.067,21.09,19.771,22.021,19.771,22.021.32-16.851,20.52-10.7,19.635-8.995C2215.9,1121.371,2192.576,1069.147,2182.167,1063.746Z" transform="translate(-2113.324 -1062.401)" fill="#163560"/><path d="M2052.854,1278.87s-2.463-3.749-4.448-3.823-5.661-1.1-5.367-.368,2.573.808,2.794,1.25-3.382,1.1-4.412,1.176-3.455,0-3.382.515,4.373,2.647,7.406,2.353a20.57,20.57,0,0,1,6.783.882Z" transform="translate(-2038.038 -1210.647)" fill="#ffb27d"/><path d="M2119.442,1223.652a36.936,36.936,0,0,1-3.768,5.7c-2.927,3.666-7.439,7.9-13.106,8.737a14.067,14.067,0,0,1-7.786-1.263l-.009,0c-6.882-3.055-12.056-10.08-12.056-10.08a5.657,5.657,0,0,1,.772-5.552s13.9,3.125,15.219,2.464,9.46-18.712,10.925-21.718c3.115-6.39,8.059-8.223,8.059-8.223Z" transform="translate(-2069.005 -1154.216)" fill="#ffa561"/><path d="M2144.635,1295.08c-2.927,3.666-7.439,7.9-13.106,8.736a14.066,14.066,0,0,1-7.786-1.263c.269.035,7.142.884,9.881-4.017,2.794-5,5.817-12.94,9.967-10.293C2145.382,1289.385,2145.3,1292.224,2144.635,1295.08Z" transform="translate(-2097.965 -1219.947)" fill="#f4904d"/><path d="M2342.378,1787.689s4.24,3.87,3.413,6.619-4.654,4.582-5.171,7.943-2.585,5.193-4.447,5.193H2327.3s-1.37-2.364,1.939-3.077,4.557-4.661,4.351-8.327a64.613,64.613,0,0,1,.31-8.553l7.032-1.629Z" transform="translate(-2240.099 -1568.258)" fill="#1c4b8e"/><path d="M2202.608,1797.412s1.525,16.392-.336,17.309l-23.823-.049s0-2.749,3.826-3.36,10.548-2.851,11.686-7.841S2202.608,1797.412,2202.608,1797.412Z" transform="translate(-2136.217 -1576.338)" fill="#1c4b8e"/><path d="M2219.639,1208.022a94.884,94.884,0,0,1,0,11.011c-.236,3.981-4.263,9.314-4.835,10.633-1.434,3.308-3.05,3.847-3.05,3.847l-12.508,3.066-4.4,1.076-13.869-4.142s-6.317-17.632-3.78-27.557a76.284,76.284,0,0,1,6.412-16.818s9.4-3.711,26.053-.94Z" transform="translate(-2134.923 -1149.643)" fill="#ffa561"/><path d="M2256,1289.146c-.236,3.981-.6,7.689-1.174,9.008-1.434,3.309-3.051,3.847-3.051,3.847l-12.508,3.066-5.432-1.6s18.135-2.748,16.125-18.351Z" transform="translate(-2174.945 -1218.13)" fill="#f2ccaa"/><path d="M2177.081,1350.145s-6.868,21.378-7.309,28.656,13.129,103.4,13.675,106.753c.514,3.161,4.44,5.177,4.44,5.177a5.942,5.942,0,0,0,4.383.338c3.575-1.01,4.705-2.218,4.705-2.218s5.346-68.552,2.038-93.041a387.874,387.874,0,0,1-3.347-45.665Z" transform="translate(-2130.142 -1263.599)" fill="#6980e2"/><path d="M2228.453,1348.025s10.477,14.057,11.454,23.56,1.532,42.881,3.613,52.145,9.726,27.091,9.726,55.985a5.765,5.765,0,0,1-3.248,2.538,26.818,26.818,0,0,1-2.857.79,4.491,4.491,0,0,1-5.024-2.385c-5.168-10.406-21.633-43.971-22.477-50.938-.6-4.931-5.8-37.564-17.136-56.712-2.722-4.6,1.671-22.879,1.671-22.879Z" transform="translate(-2152.415 -1262.116)" fill="#8c9df4"/><path d="M2189.543,1339.172s2.758,2.181,8.235,2.291c6.542.132,22.754-1.668,22.754-1.668a13.4,13.4,0,0,1,.691,4.138s-19.8,4.994-31.273.729A7.249,7.249,0,0,1,2189.543,1339.172Z" transform="translate(-2143.702 -1255.926)" fill="#233862"/><g transform="translate(49.521 84.418)"><path d="M2205.669,1349.825a3.4,3.4,0,1,1,2.985-3.379A3.2,3.2,0,0,1,2205.669,1349.825Zm0-5.768a2.428,2.428,0,1,0,2,2.39A2.222,2.222,0,0,0,2205.669,1344.057Z" transform="translate(-2202.684 -1343.067)" fill="#fff"/></g><path d="M2261.539,1291.972l-16.078,14a2.789,2.789,0,0,1-3.935-.272l-20.516-23.561a2.789,2.789,0,0,1,.272-3.935l16.079-14a2.789,2.789,0,0,1,3.935.272l20.516,23.561A2.789,2.789,0,0,1,2261.539,1291.972Z" transform="translate(-2165.497 -1203.027)" fill="#2b478b"/><path d="M2258.411,1352.244c-.229.061-8.541,1.038-8.543,2.755,0,1.986,2.436,4.647,4.733,4.521.931-.051,5.219-3.995,5.219-3.995Z" transform="translate(-2186.155 -1265.066)" fill="#ffb27d"/><path d="M2234.321,1164.057a27.678,27.678,0,0,1-1.482-10.111l-.627.124-10.559,2.091s.24,3.323.247,6.453v.078c.013,2.719-1.836,5.447,2.525,6.525C2225.771,1169.55,2236.307,1168.874,2234.321,1164.057Z" transform="translate(-2166.334 -1126.411)" fill="#ffb27d"/><path d="M2221.957,1156.448s.24,3.323.247,6.453c5.909-.167,9.032-5.556,10.312-8.544Z" transform="translate(-2166.639 -1126.699)" fill="#e8945b"/><path d="M2204.573,1116.326s13.979.231,13.989-8.478,1.821-14.543-7.1-15.058-10.663,2.806-11.373,5.711S2200.936,1116.041,2204.573,1116.326Z" transform="translate(-2151.228 -1083.612)" fill="#ffb27d"/><path d="M2217.116,1088.09s3.828,10.216,9.7,11.727,8.422-.063,8.422-.063a16.633,16.633,0,0,1-5.441-9.827S2220,1083.228,2217.116,1088.09Z" transform="translate(-2163.253 -1079.126)" fill="#163560"/><path d="M2203.815,1091.09a8.67,8.67,0,0,0-4.006,3.131,14.074,14.074,0,0,0-1.89,7.995s-2.884-6.944.356-10.872C2201.713,1087.178,2203.815,1091.09,2203.815,1091.09Z" transform="translate(-2149.004 -1081.296)" fill="#163560"/><path d="M2265.159,1351.11a9.508,9.508,0,0,0-3.323-.453c-1.331.186-2.316-.027-2.316.347s1.718.546,2.084.726A18.125,18.125,0,0,0,2265.159,1351.11Z" transform="translate(-2192.903 -1263.933)" fill="#ffb27d"/><path d="M2276.063,1190.587s9.923.7,13.728,9.943,11.021,24.773,11.021,27.384-4.032,10.664-25.684,15.293c0,0-2.239-2.356-2.1-4.218,0,0,13.516-11.609,13.48-12.966-.069-2.566-2.216-5.955-14.082-17.825C2269.2,1204.971,2276.063,1190.587,2276.063,1190.587Z" transform="translate(-2201.322 -1152.032)" fill="#ffa561"/></g><path d="M538.129,1782.813h27.659c1.482-1.258-1.026-4.113-3.646-4.3a16.151,16.151,0,0,0-4.222.5c-.38-5.055-2.554-27.782-10.746-26.869-9.211,1.023,0,10.009,2.6,15.328a126.637,126.637,0,0,1,4.893,12.258c-.748.162-1.522.321-2.313.467-1.221-3.748-5.763-16.358-11.54-15.623-6.782.861-4.056,5.916.751,8.917,3.527,2.207,7.858,5.344,9.915,6.859a29.414,29.414,0,0,1-5.409.433C541.339,1780.665,539.026,1782.061,538.129,1782.813Z" transform="translate(-54.092 -1064.487)" fill="#a8d29f"/><path d="M2459.339,1775.008h-30.6c-1.64-1.391,1.135-4.55,4.034-4.762a17.853,17.853,0,0,1,4.671.553c.421-5.593,2.826-30.737,11.889-29.727,10.19,1.13,0,11.073-2.881,16.958a139.832,139.832,0,0,0-5.414,13.563c.827.179,1.684.355,2.559.516,1.351-4.148,6.377-18.1,12.768-17.285,7.5.951,4.488,6.545-.831,9.865-3.9,2.441-8.693,5.911-10.97,7.588a32.48,32.48,0,0,0,5.985.479C2455.788,1772.632,2458.347,1774.177,2459.339,1775.008Z" transform="translate(-1449.814 -1058.966)" fill="#a8d29f"/><path d="M1.142,0H622.375a1.142,1.142,0,0,1,1.142,1.142v0a1.142,1.142,0,0,1-1.142,1.142H1.142A1.142,1.142,0,0,1,0,1.142v0A1.142,1.142,0,0,1,1.142,0Z" transform="translate(387.53 716.042)" fill="#233862"/></g></g></svg>