<svg xmlns="http://www.w3.org/2000/svg" xmlns:xlink="http://www.w3.org/1999/xlink" width="2048" height="1152" viewBox="0 0 2048 1152">
  <defs>
    <filter id="사각형_122" x="1543.841" y="601.896" width="691.808" height="943.06" filterUnits="userSpaceOnUse">
      <feOffset dy="3" input="SourceAlpha"/>
      <feGaussianBlur stdDeviation="3" result="blur"/>
      <feFlood flood-opacity="0.161"/>
      <feComposite operator="in" in2="blur"/>
      <feComposite in="SourceGraphic"/>
    </filter>
    <linearGradient id="linear-gradient" x1="0.5" x2="0.5" y2="1" gradientUnits="objectBoundingBox">
      <stop offset="0" stop-opacity="0.251"/>
      <stop offset="1" stop-color="#fff" stop-opacity="0"/>
    </linearGradient>
    <clipPath id="clip-아트보드_1">
      <rect width="2048" height="1152"/>
    </clipPath>
  </defs>
  <g id="아트보드_1" data-name="아트보드 – 1" clip-path="url(#clip-아트보드_1)">
    <rect width="2048" height="1152" fill="#fff"/>
    <g id="그룹_405" data-name="그룹 405" transform="translate(-272.531 13.468)">
      <path id="패스_65" data-name="패스 65" d="M0,0H3582.871V1326.21H0Z" transform="translate(-550.492 -97.654)" fill="#d4c9ff"/>
      <g id="그룹_3" data-name="그룹 3" transform="translate(-84.522 -97.654)">
        <path id="패스_1" data-name="패스 1" d="M90.958,995.613c133.1,45.121,281.919,42.028,404.559-24.892,79.127-43.177,149.03-121.543,144.735-211.579-4.969-104.11-103.527-180.263-129.929-281.091-27.4-104.64,39.8-224.9,143.287-256.391,63.653-19.372,132.582-7.817,196.472,10.767S976.3,276.569,1042.239,285.5s138.51-1.338,187.615-46.239c27.21-24.881,55.347-49.522,44.84-98.722s-268.946-301.465-710.749-226.1S-10.4,197.715-67.572,462.8-28.589,915.106,90.958,995.613Z" transform="translate(72.522 72.654)" fill="#9f8ee2"/>
        <path id="패스_2" data-name="패스 2" d="M1515.661,125.234c-27.4-34.687-67.871-56.969-111.968-59.986-.262-.018-.525-.036-.787-.052-54.43-3.516-113.1,18.236-141.535,64.779-31.67,51.829-19.507,118.018-28.46,178.093-16.542,111.017-117.127,203.629-229.129,210.971-72.185,4.732-142.318-22-213.877-32.608s-155.616.6-196.805,60.067c-33.546,48.432-28.086,112.914-43.071,169.894a236.571,236.571,0,0,1-43.556,86.417,153.608,153.608,0,0,0-29.385,62.507C461.619,935.625,455.036,1070.6,613.625,1117.8c218.3,64.971,335.25-265.082,582.14-244.291C1432.94,893.485,1787.635,469.57,1515.661,125.234Z" transform="translate(970.426 357.439)" fill="#6c5da9"/>
        <path id="패스_32" data-name="패스 32" d="M249.489,593.036s119.5-119.386,125.038-257.652S99.092,116.263,9.689,197.742-107.079,556.546.567,609.458,249.489,593.036,249.489,593.036Z" transform="translate(108.715 517.867)" fill="#6c5da9"/>
        <path id="패스_275" data-name="패스 275" d="M80.958-29.412,2211,0V818H0Z" transform="translate(220.053 254.186)" fill="none"/>
      </g>
      <g id="영어--풀--화이트-라인--블랙-바탕--화이트-텍스트" transform="translate(905.008 467.737)">
        <g id="그룹_60" data-name="그룹 60" transform="translate(0 0)">
          <path id="패스_15" data-name="패스 15" d="M26.765-30.037H37.113q10.057,0,15.013-4.81t4.956-12.972q0-8.016-4.956-12.608T37.551-65.018H26.765ZM8.4-80.03H39.154q16.616,0,26.6,9.037t9.984,23.175q0,15.012-10.276,23.831T39.591-15.17H26.765V18.207H8.4ZM126.46-13.567h-9.037q-6.85,0-10.494,2.842a8.776,8.776,0,0,0-3.644,7.215q0,9.328,10.786,9.328,5.83,0,9.11-3.425a12.422,12.422,0,0,0,3.279-8.964ZM90.6-35.721V-51.9q8.308-5.1,23.9-5.1,30.025,0,30.025,27.985V18.207H127.188V9.316q-5.1,9.474-19.239,9.474-10.494,0-16.689-6.122a20.814,20.814,0,0,1-6.194-15.45q0-10.494,7.871-16.47t22.737-5.976H126.46v-4.518q0-6.122-3.207-9.328T112.322-42.28A38.548,38.548,0,0,0,90.6-35.721ZM183.157,16.75,154.007-55.689h19.385l8.6,23.612q3.935,10.494,6.34,17.636T191.32-5.4l.437,2.041q1.457-5.1,9.328-28.713l7.725-23.612h18.365L200.5,16.167q-11.077,29.588-33.815,29.588a31.815,31.815,0,0,1-7.288-.729V30.6a20.373,20.373,0,0,0,4.956.583Q177.619,31.179,183.157,16.75ZM273.816,4.215a15.815,15.815,0,0,0,12.826-6.049q4.956-6.049,4.956-16.98t-4.956-16.98a15.524,15.524,0,0,0-12.535-6.049,17.707,17.707,0,0,0-13.118,5.684q-5.539,5.684-5.539,16.907t5.393,17.345A16.7,16.7,0,0,0,273.816,4.215Zm-18.365-59.9v11.369q7.871-12.389,22.592-12.389,14.43,0,22.956,10.348t8.527,27.256q0,16.616-8.527,27.474T277.9,19.227q-14.867,0-22.446-12.1V46.046H237.96V-55.689Zm69.816,73.9V-84.84h17.49V18.207Zm81.622-43v-2.186q-.292-7.142-3.862-11.442t-10.421-4.3a14.845,14.845,0,0,0-10.859,4.591q-4.591,4.591-5.9,13.336ZM418.839-1.032V14.126q-7.725,4.81-22.3,4.81-17.636,0-27.839-10.494t-10.2-27.11q0-17.636,9.62-27.693a31.9,31.9,0,0,1,24.049-10.057q14.43,0,22.883,8.745T423.5-22.166a69.547,69.547,0,0,1-1.02,10.494H376.134A19.874,19.874,0,0,0,384.077.571Q390.126,4.8,399.163,4.8,410.823,4.8,418.839-1.032Z" transform="translate(248.368 99.61)" fill="#fff"/>
          <g id="그룹_57" data-name="그룹 57" transform="translate(0)">
            <path id="패스_11" data-name="패스 11" d="M37.406-124.656c29.039-.3,51.761-.938,70.824,9.262a68.341,68.341,0,0,1,13.969,9.986c30.168,27.449,27.767,76.493-.724,101.234a73.255,73.255,0,0,1-15.96,10.559c-14.864,7.194-30.2,7.969-44.043,7.951v56.3H1.9V-124.42ZM61.473-39.881c9.671-.117,14.571-1.02,17.7-3.693,5.846-4.988,6.2-18.245.1-23.147-3.313-2.663-8.236-3.5-17.8-3.569Z" transform="translate(83.272 124.788)" fill="#fff" opacity="0.999"/>
            <path id="패스_10" data-name="패스 10" d="M42.722-29.925H60.091q16.879,0,25.2-8.145T93.6-60.036q0-13.574-8.317-21.349T60.824-89.159h-18.1ZM11.9-114.58H63.515q27.887,0,44.643,15.3t16.757,39.242q0,25.421-17.246,40.353T64.249-4.75H42.722V51.769H11.9Z" transform="translate(87.661 129.269)" fill="#6c5da9" opacity="0.999"/>
            <path id="패스_11-2" data-name="패스 11" d="M37.406-124.656c29.039-.3,51.761-.938,70.824,9.262a68.341,68.341,0,0,1,13.969,9.986c30.168,27.449,27.767,76.493-.724,101.234a73.255,73.255,0,0,1-15.96,10.559c-14.864,7.194-30.2,7.969-44.043,7.951v56.3H1.9V-124.42ZM61.473-39.881c9.671-.117,14.571-1.02,17.7-3.693,5.846-4.988,6.2-18.245.1-23.147-3.313-2.663-8.236-3.5-17.8-3.569Z" transform="translate(-1.9 124.788)" fill="#fff" opacity="0.999"/>
            <path id="패스_10-2" data-name="패스 10" d="M42.722-29.925H60.091q16.879,0,25.2-8.145T93.6-60.036q0-13.574-8.317-21.349T60.824-89.159h-18.1ZM11.9-114.58H63.515q27.887,0,44.643,15.3t16.757,39.242q0,25.421-17.246,40.353T64.249-4.75H42.722V51.769H11.9Z" transform="translate(2.49 129.269)" fill="#6c5da9" opacity="0.999"/>
          </g>
        </g>
        <path id="패스_31" data-name="패스 31" d="M5.353-5.884h2.07a4.159,4.159,0,0,0,3-.962,3.448,3.448,0,0,0,.991-2.594,3.268,3.268,0,0,0-.991-2.522A4.146,4.146,0,0,0,7.51-12.88H5.353Zm-3.673-10H7.831a7.625,7.625,0,0,1,5.32,1.807,5.97,5.97,0,0,1,2,4.635,5.957,5.957,0,0,1-2.055,4.766A7.664,7.664,0,0,1,7.918-2.91H5.353V3.765H1.68ZM29.956-2.59H28.149a3.353,3.353,0,0,0-2.1.568,1.755,1.755,0,0,0-.729,1.443q0,1.866,2.157,1.866A2.4,2.4,0,0,0,29.3.6a2.484,2.484,0,0,0,.656-1.793ZM22.785-7.021v-3.236a9.2,9.2,0,0,1,4.781-1.02q6.005,0,6.005,5.6V3.765H30.1V1.987q-1.02,1.895-3.848,1.895a4.541,4.541,0,0,1-3.338-1.224,4.163,4.163,0,0,1-1.239-3.09,3.907,3.907,0,0,1,1.574-3.294,7.415,7.415,0,0,1,4.547-1.2h2.157v-.9a2.527,2.527,0,0,0-.641-1.866,3.03,3.03,0,0,0-2.186-.641A7.71,7.71,0,0,0,22.785-7.021ZM45.96,3.474,40.13-11.014h3.877l1.72,4.722q.787,2.1,1.268,3.527t.6,1.807l.087.408q.292-1.02,1.866-5.743l1.545-4.722h3.673L49.429,3.357q-2.215,5.918-6.763,5.918a6.363,6.363,0,0,1-1.458-.146V6.243a4.075,4.075,0,0,0,.991.117Q44.852,6.359,45.96,3.474ZM65.082-11.014v2.332a4.312,4.312,0,0,1,4.169-2.507,3.991,3.991,0,0,1,4.2,2.8A4.472,4.472,0,0,1,75.2-10.46a4.9,4.9,0,0,1,2.653-.729,4.435,4.435,0,0,1,3.469,1.356,5.567,5.567,0,0,1,1.224,3.862V3.765H79.016V-5.3q0-2.973-2.274-2.973a2.665,2.665,0,0,0-2.026.991,4.582,4.582,0,0,0-.889,3.119V3.765H70.3V-5.3q0-2.973-2.274-2.973a2.709,2.709,0,0,0-2.041.991,4.53,4.53,0,0,0-.9,3.119V3.765h-3.5V-11.014Zm34.631,6.18v-.437a3.715,3.715,0,0,0-.772-2.288,2.554,2.554,0,0,0-2.084-.86,2.969,2.969,0,0,0-2.172.918A4.631,4.631,0,0,0,93.5-4.834ZM102.1-.083V2.949a8.495,8.495,0,0,1-4.46.962,7.406,7.406,0,0,1-5.568-2.1A7.452,7.452,0,0,1,90.035-3.61a7.683,7.683,0,0,1,1.924-5.539,6.381,6.381,0,0,1,4.81-2.011,6.069,6.069,0,0,1,4.577,1.749,7.056,7.056,0,0,1,1.691,5.1,13.91,13.91,0,0,1-.2,2.1h-9.27A3.975,3.975,0,0,0,95.151.238a5.141,5.141,0,0,0,3.017.845A6.511,6.511,0,0,0,102.1-.083Zm12.3-10.931v2.536a4.572,4.572,0,0,1,4.547-2.711,4.612,4.612,0,0,1,3.5,1.341,5.264,5.264,0,0,1,1.283,3.79V3.765h-3.5V-5.33a3.1,3.1,0,0,0-.7-2.2,2.477,2.477,0,0,0-1.895-.743,2.943,2.943,0,0,0-2.3,1.064,4.48,4.48,0,0,0-.933,3.046V3.765h-3.5V-11.014ZM136.3-8.391V-.87a1.883,1.883,0,0,0,.5,1.414,1.884,1.884,0,0,0,1.37.481A3.644,3.644,0,0,0,140.2.413v3a6.016,6.016,0,0,1-2.624.5q-4.781,0-4.781-4.839V-8.391h-2.215v-2.624H132.8v-3.556h3.5v3.556h3.673v2.624Zm26.848-2.624v2.332a4.312,4.312,0,0,1,4.169-2.507,3.991,3.991,0,0,1,4.2,2.8,4.472,4.472,0,0,1,1.749-2.07,4.9,4.9,0,0,1,2.653-.729,4.434,4.434,0,0,1,3.469,1.356,5.567,5.567,0,0,1,1.224,3.862V3.765h-3.527V-5.3q0-2.973-2.274-2.973a2.665,2.665,0,0,0-2.026.991,4.582,4.582,0,0,0-.889,3.119V3.765h-3.527V-5.3q0-2.973-2.274-2.973a2.709,2.709,0,0,0-2.041.991,4.531,4.531,0,0,0-.9,3.119V3.765h-3.5V-11.014Zm34.893,0h3.527V3.765h-3.527V1.346q-1.166,2.565-4.547,2.565a4.667,4.667,0,0,1-3.5-1.283,5,5,0,0,1-1.253-3.644v-10h3.5v9.182A3,3,0,0,0,192.922.3a2.455,2.455,0,0,0,1.88.729A2.94,2.94,0,0,0,197.178,0a4.709,4.709,0,0,0,.86-3.09Zm20.813.466v3.09a6.978,6.978,0,0,0-3.644-.875,2.264,2.264,0,0,0-1.414.394,1.217,1.217,0,0,0-.51,1.006,1.291,1.291,0,0,0,.073.437,1.074,1.074,0,0,0,.262.394q.189.189.364.335a2.615,2.615,0,0,0,.5.306l.554.277q.233.117.641.292t.641.292a8.728,8.728,0,0,1,2.449,1.691,3.331,3.331,0,0,1,.9,2.419,3.882,3.882,0,0,1-1.487,3.236,6.248,6.248,0,0,1-3.964,1.166,9.394,9.394,0,0,1-4.431-.9V-.2a7.434,7.434,0,0,0,4.227,1.312,2.658,2.658,0,0,0,1.5-.364,1.15,1.15,0,0,0,.539-1.006,1.356,1.356,0,0,0-.175-.685,1.8,1.8,0,0,0-.67-.6q-.5-.292-.772-.423t-1.093-.481a.572.572,0,0,1-.131-.058.571.571,0,0,0-.131-.058,1.133,1.133,0,0,1-.146-.058q-3.236-1.458-3.236-4.2a3.8,3.8,0,0,1,1.545-3.207,6.254,6.254,0,0,1,3.877-1.166A9.454,9.454,0,0,1,218.851-10.548Zm12.535,2.157V-.87a1.883,1.883,0,0,0,.5,1.414,1.884,1.884,0,0,0,1.37.481,3.644,3.644,0,0,0,2.041-.612v3a6.016,6.016,0,0,1-2.624.5q-4.781,0-4.781-4.839V-8.391h-2.215v-2.624h2.215v-3.556h3.5v3.556h3.673v2.624ZM261.965.967A3.146,3.146,0,0,0,264.5-.287a5.008,5.008,0,0,0,1.02-3.265,5.234,5.234,0,0,0-1.035-3.454,3.2,3.2,0,0,0-2.551-1.239A3.468,3.468,0,0,0,259.4-7.123a4.61,4.61,0,0,0-1.108,3.367,5.212,5.212,0,0,0,1.049,3.513A3.33,3.33,0,0,0,261.965.967Zm-3.673-17.811V-8.77a4.939,4.939,0,0,1,4.431-2.449,5.787,5.787,0,0,1,4.562,2.055,8.153,8.153,0,0,1,1.793,5.553,8.532,8.532,0,0,1-1.705,5.364,5.522,5.522,0,0,1-4.62,2.215,4.951,4.951,0,0,1-4.46-2.478V3.765h-3.527V-16.844Zm27.343,12.01v-.437a3.715,3.715,0,0,0-.772-2.288,2.554,2.554,0,0,0-2.084-.86,2.969,2.969,0,0,0-2.172.918,4.63,4.63,0,0,0-1.181,2.667Zm2.39,4.752V2.949a8.5,8.5,0,0,1-4.46.962A7.406,7.406,0,0,1,278,1.812a7.452,7.452,0,0,1-2.041-5.422,7.683,7.683,0,0,1,1.924-5.539,6.381,6.381,0,0,1,4.81-2.011,6.069,6.069,0,0,1,4.577,1.749,7.057,7.057,0,0,1,1.691,5.1,13.909,13.909,0,0,1-.2,2.1h-9.27A3.975,3.975,0,0,0,281.073.238a5.141,5.141,0,0,0,3.017.845A6.511,6.511,0,0,0,288.026-.083ZM319.8-15.066v3.556a8.915,8.915,0,0,0-4.664-1.312,3.366,3.366,0,0,0-2.143.612,1.92,1.92,0,0,0-.772,1.574,1.913,1.913,0,0,0,.831,1.589,13.841,13.841,0,0,0,2.492,1.385q1.166.525,1.895.918a10.429,10.429,0,0,1,1.589,1.093,4.384,4.384,0,0,1,1.283,1.676,5.565,5.565,0,0,1,.423,2.23,5.156,5.156,0,0,1-1.88,4.183A7.488,7.488,0,0,1,313.911,4,10.954,10.954,0,0,1,308.4,2.745v-3.76a9.172,9.172,0,0,0,5.48,1.807,3.341,3.341,0,0,0,2.157-.656,2.145,2.145,0,0,0,.816-1.764,2.058,2.058,0,0,0-.2-.933,2.289,2.289,0,0,0-.831-.816q-.627-.408-.962-.583T313.474-4.6q-.292-.146-.437-.2-1.079-.5-1.749-.889a10.475,10.475,0,0,1-1.458-1.064,4.255,4.255,0,0,1-1.181-1.6,5.431,5.431,0,0,1-.394-2.128,4.939,4.939,0,0,1,1.851-4.023,7.512,7.512,0,0,1,4.912-1.516A10.985,10.985,0,0,1,319.8-15.066Zm8.833,18.831V-11.014h3.5V3.765Zm-.35-19.21a2.024,2.024,0,0,1,.612-1.487,2.024,2.024,0,0,1,1.487-.612,2.024,2.024,0,0,1,1.487.612,2.024,2.024,0,0,1,.612,1.487,2.059,2.059,0,0,1-.612,1.516,2.024,2.024,0,0,1-1.487.612,2.024,2.024,0,0,1-1.487-.612A2.059,2.059,0,0,1,328.282-15.445Zm15.945,4.431v2.332a4.312,4.312,0,0,1,4.169-2.507,3.991,3.991,0,0,1,4.2,2.8,4.472,4.472,0,0,1,1.749-2.07A4.9,4.9,0,0,1,357-11.189a4.435,4.435,0,0,1,3.469,1.356,5.567,5.567,0,0,1,1.224,3.862V3.765h-3.527V-5.3q0-2.973-2.274-2.973a2.665,2.665,0,0,0-2.026.991,4.581,4.581,0,0,0-.889,3.119V3.765h-3.527V-5.3q0-2.973-2.274-2.973a2.709,2.709,0,0,0-2.041.991,4.53,4.53,0,0,0-.9,3.119V3.765h-3.5V-11.014ZM377.139.967A3.163,3.163,0,0,0,379.7-.243a5.22,5.22,0,0,0,.991-3.4,5.22,5.22,0,0,0-.991-3.4,3.105,3.105,0,0,0-2.507-1.21,3.541,3.541,0,0,0-2.624,1.137,4.663,4.663,0,0,0-1.108,3.381,5.08,5.08,0,0,0,1.079,3.469A3.341,3.341,0,0,0,377.139.967Zm-3.673-11.981v2.274a5.043,5.043,0,0,1,4.518-2.478,5.64,5.64,0,0,1,4.591,2.07A8.3,8.3,0,0,1,384.281-3.7,8.627,8.627,0,0,1,382.575,1.8a5.564,5.564,0,0,1-4.62,2.172,4.961,4.961,0,0,1-4.489-2.419V9.333h-3.5V-11.014ZM392.093,3.765V-16.844h3.5V3.765Zm20.988-8.6v-.437a3.716,3.716,0,0,0-.773-2.288,2.554,2.554,0,0,0-2.084-.86,2.969,2.969,0,0,0-2.172.918,4.631,4.631,0,0,0-1.181,2.667Zm2.39,4.752V2.949a8.5,8.5,0,0,1-4.46.962,7.406,7.406,0,0,1-5.568-2.1A7.452,7.452,0,0,1,403.4-3.61a7.683,7.683,0,0,1,1.924-5.539,6.381,6.381,0,0,1,4.81-2.011,6.069,6.069,0,0,1,4.577,1.749,7.057,7.057,0,0,1,1.691,5.1,13.906,13.906,0,0,1-.2,2.1h-9.27A3.975,3.975,0,0,0,408.519.238a5.141,5.141,0,0,0,3.017.845A6.511,6.511,0,0,0,415.472-.083Z" transform="translate(255.088 171.519)" fill="#fff"/>
      </g>
      <g id="그룹_403" data-name="그룹 403" transform="translate(1825.262 735.562) rotate(-20)">
        <g transform="matrix(0.94, 0.34, -0.34, 0.94, -1202.91, -1234.92)" filter="url(#사각형_122)">
          <rect id="사각형_122-2" data-name="사각형 122" width="413.531" height="833.915" rx="28" transform="translate(1552.84 749.33) rotate(-20)" fill="none"/>
        </g>
        <g id="그룹_401" data-name="그룹 401" transform="translate(0.424 0)">
          <g id="그룹_133" data-name="그룹 133" transform="translate(0 0)">
            <rect id="사각형_99" data-name="사각형 99" width="393.858" height="804.727" rx="30" transform="translate(10.914 12.552)" fill="#f3f3f3"/>
            <path id="교차_1" data-name="교차 1" d="M30,510.566a30,30,0,0,1-30-30V408.52C20.389,319.812,79.556,220.6,170.008,136.253,241,70.053,319.777,23.716,393.858,0V480.565a30,30,0,0,1-30,30Z" transform="translate(10.025 309.156)" fill="#eee"/>
            <g id="그룹_132" data-name="그룹 132" transform="translate(0 0)">
              <path id="제외_1" data-name="제외 1" d="M350.524,834.115H63.158a63.427,63.427,0,0,1-44.674-18.3A62.161,62.161,0,0,1,0,771.588V62.527A62.16,62.16,0,0,1,18.483,18.3,63.43,63.43,0,0,1,63.158,0H350.524A63.427,63.427,0,0,1,395.2,18.3a62.156,62.156,0,0,1,18.483,44.229V771.588A62.157,62.157,0,0,1,395.2,815.817a63.422,63.422,0,0,1-44.617,18.3Zm0-20.252a41.23,41.23,0,0,0,29.039-11.895,40.4,40.4,0,0,0,12.013-28.749V64.091a40.4,40.4,0,0,0-12.013-28.75,41.233,41.233,0,0,0-29.039-11.894H290.887a5.278,5.278,0,0,0-.41,1.88v1.281a20.724,20.724,0,0,1-20.827,20.619H144.69a20.724,20.724,0,0,1-20.827-20.619v-1.45a5.075,5.075,0,0,0-.352-1.711H63.158A41.228,41.228,0,0,0,34.119,35.341,40.406,40.406,0,0,0,22.1,64.091V773.22a40.4,40.4,0,0,0,12.014,28.749,41.229,41.229,0,0,0,29.039,11.895Z" fill="#f9f9f9"/>
              <rect id="사각형_1" data-name="사각형 1" width="137.524" height="6.323" rx="2" transform="translate(139.199 787.326)" fill="#f9f9f9"/>
              <g id="그룹_1" data-name="그룹 1" transform="translate(168.471 23.929)">
                <rect id="사각형_2" data-name="사각형 2" width="50.583" height="7.388" rx="2.337" transform="translate(0 3.694)" opacity="0.054"/>
                <circle id="타원_1" data-name="타원 1" cx="7.388" cy="7.388" r="7.388" transform="translate(62.295 0)" fill="url(#linear-gradient)"/>
                <circle id="타원_2" data-name="타원 2" cx="3.166" cy="3.166" r="3.166" transform="translate(66.517 4.222)" fill="#035a81" opacity="0.257"/>
              </g>
            </g>
          </g>
          <g id="그룹_378" data-name="그룹 378" transform="translate(85.472 89.784)">
            <rect id="사각형_101" data-name="사각형 101" width="255.157" height="88.978" rx="12" transform="translate(9.159 9.159)" fill="#9f8ee2"/>
            <rect id="사각형_100" data-name="사각형 100" width="255.157" height="88.978" rx="12" transform="translate(0 0)" fill="#d4c9ff"/>
            <text id="PAYMENT" transform="translate(37.946 47.085)" fill="#fff" font-size="32" font-family="Hind-Bold, Hind" font-weight="700"><tspan x="0" y="0">PAYMENT</tspan></text>
          </g>
          <g id="그룹_143" data-name="그룹 143" transform="translate(52.37 206.66)">
            <g id="그룹_137" data-name="그룹 137" transform="translate(72.412 60.428)" opacity="0.5">
              <rect id="사각형_102" data-name="사각형 102" width="1.473" height="8.344" transform="translate(3.436 0)" fill="#47e6b1"/>
              <rect id="사각형_103" data-name="사각형 103" width="1.473" height="8.344" transform="translate(8.344 3.436) rotate(90)" fill="#47e6b1"/>
            </g>
            <g id="그룹_138" data-name="그룹 138" transform="translate(83.677 238.87)" opacity="0.5">
              <rect id="사각형_104" data-name="사각형 104" width="1.473" height="8.344" transform="translate(3.44 0)" fill="#47e6b1"/>
              <rect id="사각형_105" data-name="사각형 105" width="1.473" height="8.344" transform="translate(8.344 3.436) rotate(90)" fill="#47e6b1"/>
            </g>
            <g id="그룹_139" data-name="그룹 139" transform="translate(64.068 138.264)" opacity="0.5">
              <rect id="사각형_106" data-name="사각형 106" width="1.473" height="8.344" transform="translate(3.436 0)" fill="#47e6b1"/>
              <rect id="사각형_107" data-name="사각형 107" width="1.473" height="8.344" transform="translate(8.344 3.436) rotate(90)" fill="#47e6b1"/>
            </g>
            <g id="그룹_140" data-name="그룹 140" transform="translate(255.679 0)" opacity="0.5">
              <rect id="사각형_108" data-name="사각형 108" width="1.473" height="8.344" transform="translate(3.436 0)" fill="#47e6b1"/>
              <rect id="사각형_109" data-name="사각형 109" width="1.473" height="8.344" transform="translate(8.344 3.436) rotate(90)" fill="#47e6b1"/>
            </g>
            <g id="그룹_141" data-name="그룹 141" transform="translate(26.797 20.752)" opacity="0.5">
              <rect id="사각형_110" data-name="사각형 110" width="1.473" height="8.344" transform="translate(3.44 0)" fill="#47e6b1"/>
              <rect id="사각형_111" data-name="사각형 111" width="1.473" height="8.344" transform="translate(8.344 3.436) rotate(90)" fill="#47e6b1"/>
            </g>
            <path id="패스_263" data-name="패스 263" d="M6.082,3.393a1.8,1.8,0,0,1-1-2.18.878.878,0,0,0,.04-.2h0a.884.884,0,0,0-1.623-.6h0a.873.873,0,0,0-.1.177,1.8,1.8,0,0,1-2.18,1,.891.891,0,0,0-.2-.04h0a.884.884,0,0,0-.6,1.623h0a.9.9,0,0,0,.177.1,1.8,1.8,0,0,1,1,2.18.888.888,0,0,0-.04.2h0a.884.884,0,0,0,1.623.6h0a.885.885,0,0,0,.1-.177,1.8,1.8,0,0,1,2.18-1,.884.884,0,0,0,.2.04h0a.884.884,0,0,0,.6-1.623h0A.879.879,0,0,0,6.082,3.393Z" transform="translate(31.806 199.852)" fill="#4d8af0" opacity="0.5"/>
            <path id="패스_264" data-name="패스 264" d="M6.077,3.393a1.8,1.8,0,0,1-1-2.18.886.886,0,0,0,.04-.2h0A.884.884,0,0,0,3.49.413h0a.885.885,0,0,0-.1.177A1.8,1.8,0,0,1,1.213,1.6a.894.894,0,0,0-.2-.04h0a.885.885,0,0,0-.6,1.623h0a.892.892,0,0,0,.177.1,1.8,1.8,0,0,1,1,2.18.88.88,0,0,0-.04.2h0a.884.884,0,0,0,1.623.6h0a.9.9,0,0,0,.1-.177,1.8,1.8,0,0,1,2.18-1,.892.892,0,0,0,.2.04h0a.884.884,0,0,0,.6-1.623h0A.869.869,0,0,0,6.077,3.393Z" transform="translate(46.548 285.008)" fill="#4d8af0" opacity="0.5"/>
            <path id="패스_265" data-name="패스 265" d="M6.077,3.393a1.8,1.8,0,0,1-1-2.18.883.883,0,0,0,.039-.2h0A.884.884,0,0,0,3.49.413h0a.894.894,0,0,0-.1.177A1.8,1.8,0,0,1,1.213,1.6a.878.878,0,0,0-.2-.04h0a.884.884,0,0,0-.6,1.623h0a.882.882,0,0,0,.177.1,1.8,1.8,0,0,1,1,2.18.9.9,0,0,0-.04.2h0a.884.884,0,0,0,1.623.6h0a.884.884,0,0,0,.1-.177,1.8,1.8,0,0,1,2.18-1,.888.888,0,0,0,.2.04h0a.884.884,0,0,0,.6-1.623h0A.875.875,0,0,0,6.077,3.393Z" transform="translate(290.319 109.456)" fill="#4d8af0" opacity="0.5"/>
            <path id="패스_266" data-name="패스 266" d="M6.082,3.393a1.8,1.8,0,0,1-1-2.18.9.9,0,0,0,.04-.2h0a.884.884,0,0,0-1.623-.6h0a.884.884,0,0,0-.1.177,1.8,1.8,0,0,1-2.18,1,.875.875,0,0,0-.2-.04h0a.884.884,0,0,0-.6,1.623h0a.892.892,0,0,0,.177.1,1.8,1.8,0,0,1,1,2.18.9.9,0,0,0-.04.2h0a.885.885,0,0,0,1.623.6h0a.876.876,0,0,0,.1-.177,1.8,1.8,0,0,1,2.18-1,.878.878,0,0,0,.2.04h0a.884.884,0,0,0,.6-1.623h0A.885.885,0,0,0,6.082,3.393Z" transform="translate(215.971 238.871)" fill="#4d8af0" opacity="0.5"/>
            <path id="패스_267" data-name="패스 267" d="M6.081,3.393a1.8,1.8,0,0,1-1-2.18.883.883,0,0,0,.039-.2h0a.884.884,0,0,0-1.623-.6h0a.881.881,0,0,0-.1.177,1.8,1.8,0,0,1-2.18,1,.886.886,0,0,0-.2-.04h0a.884.884,0,0,0-.6,1.623h0a.888.888,0,0,0,.177.1,1.8,1.8,0,0,1,1,2.18.884.884,0,0,0-.04.2h0a.884.884,0,0,0,1.623.6h0a.892.892,0,0,0,.1-.177,1.8,1.8,0,0,1,2.18-1,.881.881,0,0,0,.2.04h0a.884.884,0,0,0,.6-1.623h0A.89.89,0,0,0,6.081,3.393Z" transform="translate(212.636 47.263)" fill="#4d8af0" opacity="0.5"/>
            <path id="패스_268" data-name="패스 268" d="M6.081,3.393a1.8,1.8,0,0,1-1-2.18.9.9,0,0,0,.04-.2h0a.885.885,0,0,0-1.623-.6h0a.908.908,0,0,0-.1.177,1.8,1.8,0,0,1-2.18,1,.885.885,0,0,0-.2-.04h0a.884.884,0,0,0-.6,1.623h0a.874.874,0,0,0,.177.1,1.8,1.8,0,0,1,1,2.18.884.884,0,0,0-.04.2h0a.885.885,0,0,0,1.623.6h0a.925.925,0,0,0,.1-.177,1.8,1.8,0,0,1,2.18-1,.884.884,0,0,0,.2.04h0a.885.885,0,0,0,.6-1.623h0A.887.887,0,0,0,6.081,3.393Z" transform="translate(315.618 243.91)" fill="#4d8af0" opacity="0.5"/>
            <circle id="타원_15" data-name="타원 15" cx="2.945" cy="2.945" r="2.945" transform="translate(0 113.186)" fill="#f55f44" opacity="0.5"/>
            <circle id="타원_16" data-name="타원 16" cx="2.945" cy="2.945" r="2.945" transform="translate(290.9 61.656)" fill="#f55f44" opacity="0.5"/>
            <circle id="타원_17" data-name="타원 17" cx="3.316" cy="3.316" r="3.316" transform="translate(168.087 171.776)" fill="#f55f44" opacity="0.5"/>
            <circle id="타원_18" data-name="타원 18" cx="3.316" cy="3.316" r="3.316" transform="translate(168.087 171.776)" fill="#f55f44" opacity="0.5"/>
            <circle id="타원_19" data-name="타원 19" cx="2.945" cy="2.945" r="2.945" transform="translate(275.423 178.409)" fill="#f55f44" opacity="0.5"/>
            <circle id="타원_20" data-name="타원 20" cx="3.316" cy="3.316" r="3.316" transform="translate(105.109 17.586)" fill="#47e6b1" opacity="0.5"/>
            <circle id="타원_21" data-name="타원 21" cx="2.945" cy="2.945" r="2.945" transform="translate(278.368 271.841)" fill="#f55f44" opacity="0.5"/>
          </g>
          <g id="그룹_144" data-name="그룹 144" transform="translate(159.365 298.94)">
            <ellipse id="Ellipse_95" data-name="Ellipse 95" cx="59.834" cy="59.834" rx="59.834" ry="59.834" fill="#9f8ee2" opacity="0.4"/>
            <ellipse id="Ellipse_96" data-name="Ellipse 96" cx="48.179" cy="48.178" rx="48.179" ry="48.178" transform="translate(11.655 11.656)" fill="#7852e8"/>
            <path id="Path_616" data-name="Path 616" d="M16.979,47.841,0,26.011l9.874-7.68,8.039,10.336L45.071,0l9.082,8.6Z" transform="translate(37.235 32.591)" fill="#fff"/>
          </g>
        </g>
      </g>
    </g>
  </g>
</svg>
