<svg xmlns="http://www.w3.org/2000/svg" width="185.19" height="169.439" viewBox="0 0 185.19 169.439"><g transform="translate(-712.544 -285.056)"><g transform="translate(2.544 2.551)"><path d="M1.735-2.017,166.973-.059v88.34A11.649,11.649,0,0,1,155.323,99.93H11.649A11.649,11.649,0,0,1,0,88.281Z" transform="translate(710 313.138)" fill="#ccc"/><path d="M0,0H168a0,0,0,0,1,0,0V88a12,12,0,0,1-12,12H12A12,12,0,0,1,0,88V0A0,0,0,0,1,0,0Z" transform="translate(711.456 311.449)" fill="#6bc6bf"/><path d="M0,0H168V17.474H0Z" transform="translate(711.456 332.495)" fill="#bfd8ec"/><rect width="168" height="21" transform="translate(711.456 311.449)" fill="#30979d"/><path d="M1.348-10.708H4.68a6.422,6.422,0,0,1,3.307.648A2.256,2.256,0,0,1,9.016-8a2.6,2.6,0,0,1-.45,1.575,1.8,1.8,0,0,1-1.2.74v.073a2.359,2.359,0,0,1,1.469.85,2.764,2.764,0,0,1,.45,1.655A2.728,2.728,0,0,1,8.229-.82,4.577,4.577,0,0,1,5.354,0H1.348ZM3.618-6.467H4.937a2.41,2.41,0,0,0,1.337-.286A1.065,1.065,0,0,0,6.687-7.7a.945.945,0,0,0-.45-.883,2.9,2.9,0,0,0-1.425-.267H3.618Zm0,1.8v2.791H5.1a2.195,2.195,0,0,0,1.384-.359,1.325,1.325,0,0,0,.447-1.1q0-1.333-1.9-1.333ZM16.45,0l-.432-1.113h-.059A3.3,3.3,0,0,1,14.8-.128a3.752,3.752,0,0,1-1.556.275,2.517,2.517,0,0,1-1.857-.674,2.588,2.588,0,0,1-.677-1.919,2.161,2.161,0,0,1,.912-1.923,5.284,5.284,0,0,1,2.75-.685L15.791-5.1v-.359A1.114,1.114,0,0,0,14.517-6.7a5.808,5.808,0,0,0-2.307.593l-.74-1.509a6.657,6.657,0,0,1,3.135-.74,3.9,3.9,0,0,1,2.527.718,2.653,2.653,0,0,1,.879,2.183V0Zm-.659-3.794-.864.029a2.768,2.768,0,0,0-1.45.352A1.1,1.1,0,0,0,13-2.432q0,.945,1.084.945a1.717,1.717,0,0,0,1.241-.447,1.569,1.569,0,0,0,.465-1.187ZM27.869,0H25.635V-4.783a2.3,2.3,0,0,0-.315-1.329,1.146,1.146,0,0,0-1-.443,1.509,1.509,0,0,0-1.355.626,3.884,3.884,0,0,0-.417,2.076V0H20.31V-8.188h1.707l.3,1.047h.125a2.361,2.361,0,0,1,1.029-.9,3.5,3.5,0,0,1,1.49-.3,2.864,2.864,0,0,1,2.168.773,3.1,3.1,0,0,1,.74,2.23Zm4.446-4.453L33.289-5.7l2.292-2.49H38.1L34.849-4.636,38.3,0H35.72L33.362-3.318l-.959.769V0H30.168V-11.4H32.4v5.083l-.117,1.86Z" transform="translate(717.456 346.449)" fill="#ccc"/><path d="M1.348-10.708H4.68a6.422,6.422,0,0,1,3.307.648A2.256,2.256,0,0,1,9.016-8a2.6,2.6,0,0,1-.45,1.575,1.8,1.8,0,0,1-1.2.74v.073a2.359,2.359,0,0,1,1.469.85,2.764,2.764,0,0,1,.45,1.655A2.728,2.728,0,0,1,8.229-.82,4.577,4.577,0,0,1,5.354,0H1.348ZM3.618-6.467H4.937a2.41,2.41,0,0,0,1.337-.286A1.065,1.065,0,0,0,6.687-7.7a.945.945,0,0,0-.45-.883,2.9,2.9,0,0,0-1.425-.267H3.618Zm0,1.8v2.791H5.1a2.195,2.195,0,0,0,1.384-.359,1.325,1.325,0,0,0,.447-1.1q0-1.333-1.9-1.333ZM16.45,0l-.432-1.113h-.059A3.3,3.3,0,0,1,14.8-.128a3.752,3.752,0,0,1-1.556.275,2.517,2.517,0,0,1-1.857-.674,2.588,2.588,0,0,1-.677-1.919,2.161,2.161,0,0,1,.912-1.923,5.284,5.284,0,0,1,2.75-.685L15.791-5.1v-.359A1.114,1.114,0,0,0,14.517-6.7a5.808,5.808,0,0,0-2.307.593l-.74-1.509a6.657,6.657,0,0,1,3.135-.74,3.9,3.9,0,0,1,2.527.718,2.653,2.653,0,0,1,.879,2.183V0Zm-.659-3.794-.864.029a2.768,2.768,0,0,0-1.45.352A1.1,1.1,0,0,0,13-2.432q0,.945,1.084.945a1.717,1.717,0,0,0,1.241-.447,1.569,1.569,0,0,0,.465-1.187ZM27.869,0H25.635V-4.783a2.3,2.3,0,0,0-.315-1.329,1.146,1.146,0,0,0-1-.443,1.509,1.509,0,0,0-1.355.626,3.884,3.884,0,0,0-.417,2.076V0H20.31V-8.188h1.707l.3,1.047h.125a2.361,2.361,0,0,1,1.029-.9,3.5,3.5,0,0,1,1.49-.3,2.864,2.864,0,0,1,2.168.773,3.1,3.1,0,0,1,.74,2.23Zm4.446-4.453L33.289-5.7l2.292-2.49H38.1L34.849-4.636,38.3,0H35.72L33.362-3.318l-.959.769V0H30.168V-11.4H32.4v5.083l-.117,1.86Z" transform="translate(716.456 345.449)" fill="#fff"/><rect width="39" height="2" transform="translate(804.456 385.449)" fill="#fff"/><rect width="53" height="2" transform="translate(804.456 395.449)" fill="#fff"/><rect width="44.655" height="164.06" transform="translate(803.712 282.505) rotate(20)" fill="#fff" opacity="0.316"/></g><g transform="translate(-8.573 106.034) rotate(-30)"><path d="M0,0H64.274s5.76.014,5.782,8.07-5.782,8-5.782,8H0Z" transform="translate(573.427 682)" fill="#333"/><g transform="translate(567 682)" fill="#ff2c2c" stroke="#222" stroke-width="1"><ellipse cx="6.026" cy="8.034" rx="6.026" ry="8.034" stroke="none"/><ellipse cx="6.026" cy="8.034" rx="5.526" ry="7.534" fill="none"/></g></g></g></svg>