<svg xmlns="http://www.w3.org/2000/svg" xmlns:xlink="http://www.w3.org/1999/xlink" width="203.418" height="162.477" viewBox="0 0 203.418 162.477"><defs><clipPath id="a"><path d="M209.261,435.352l-149.6-28.5a8,8,0,0,1-6.361-9.356l16.318-85.649a8,8,0,0,1,9.356-6.361l149.6,28.5a8,8,0,0,1,6.362,9.356L218.617,428.99A8,8,0,0,1,209.261,435.352Z" fill="#0075aa"/></clipPath></defs><g transform="translate(-110.438 -254.874) rotate(-11)"><path d="M209.261,435.352l-149.6-28.5a8,8,0,0,1-6.361-9.356l16.318-85.649a8,8,0,0,1,9.356-6.361l149.6,28.5a8,8,0,0,1,6.362,9.356L218.617,428.99A8,8,0,0,1,209.261,435.352Z" fill="#0075aa"/><g clip-path="url(#a)"><circle cx="84.411" cy="84.411" r="84.411" transform="translate(82.804 381.479) rotate(-45)" fill="#0075aa"/></g><path d="M170.338,427.936l-43.975-8.378,59.189-93.769,43.975,8.378Z" fill="#fff" opacity="0.1"/><rect width="33.324" height="8.157" transform="translate(70.709 358.7) rotate(10.787)" fill="#f0f7fb"/><rect width="17.641" height="8.157" transform="translate(164.754 391.824) rotate(10.787)" fill="#f0f7fb"/><rect width="17.641" height="8.157" transform="matrix(0.982, 0.187, -0.187, 0.982, 141.788, 387.449)" fill="#f0f7fb"/><rect width="33.324" height="8.157" transform="translate(107.63 365.734) rotate(10.787)" fill="#f0f7fb"/><rect width="33.324" height="8.157" transform="translate(183.867 380.259) rotate(10.787)" fill="#f0f7fb"/><rect width="33.324" height="8.157" transform="translate(144.55 372.768) rotate(10.787)" fill="#f0f7fb"/><rect width="73.874" height="7.587" transform="translate(150.482 332.696) rotate(10.787)" fill="#019cde"/><rect width="60.7" height="7.587" transform="matrix(0.982, 0.187, -0.187, 0.982, 65.13, 387.984)" fill="#019cde"/><rect width="30.35" height="24.09" rx="7.083" transform="matrix(0.982, 0.187, -0.187, 0.982, 76.283, 329.445)" fill="#fadd5f"/><circle cx="7.862" cy="7.862" r="7.862" transform="matrix(0.827, -0.562, 0.562, 0.827, 191.142, 417.648)" fill="#009ce3"/><path d="M200.414,419.415a7.862,7.862,0,1,1-6.252-9.2A7.862,7.862,0,0,1,200.414,419.415Z" fill="#df5d67"/></g></svg>