<svg xmlns="http://www.w3.org/2000/svg" width="170.297" height="164.032" viewBox="0 0 170.297 164.032"><g transform="translate(-893.703 -471.984)"><path d="M246.116,194.028H89.538c-3.236,0-5.859,4.351-5.859,9.719V283.09c0,5.368,2.623,9.719,5.859,9.719H224.623l17.081,18.1c.138.259.358.348.553.224a.932.932,0,0,0,.319-.781l2.1-17.544h1.445c3.236,0,5.859-4.351,5.859-9.719V203.747c0-5.369-2.624-9.72-5.86-9.719Z" transform="translate(810.024 312.479)" fill="#283659"/><path d="M246.116,194.028H89.538c-3.236,0-5.859,4.351-5.859,9.719V283.09c0,5.368,2.623,9.719,5.859,9.719H224.623l17.081,18.1c.138.259.358.348.553.224a.932.932,0,0,0,.319-.781l2.1-17.544h1.445c3.236,0,5.859-4.351,5.859-9.719V203.747c0-5.369-2.624-9.72-5.86-9.719Z" transform="translate(812.024 310.479)" fill="#d4c9ff"/><rect width="40" height="160" transform="translate(997.568 471.984) rotate(20)" fill="#fff" opacity="0.32"/><rect width="67" height="4" transform="translate(909 527)" fill="#fff"/><rect width="116" height="4" transform="translate(909 543)" fill="#fff"/><rect width="87" height="4" transform="translate(909 559)" fill="#fff"/><path d="M6.748,0H5.239V-3.081H2.412V0H.9V-7.139H2.412v2.8H5.239v-2.8H6.748ZM11.3,0H9.79V-5.879H7.852v-1.26h5.391v1.26H11.3Zm5.991,0H15.781V-5.879H13.843v-1.26h5.391v1.26H17.295Zm4.551-3.779h.5a1.659,1.659,0,0,0,1.045-.276.966.966,0,0,0,.347-.8.99.99,0,0,0-.291-.786,1.361,1.361,0,0,0-.911-.254h-.688Zm3.418-1.133a2.182,2.182,0,0,1-.72,1.763,3.08,3.08,0,0,1-2.048.61h-.649V0H20.332V-7.139h2.28a3.033,3.033,0,0,1,1.975.559A2.039,2.039,0,0,1,25.264-4.912Zm5.562,2.93a1.845,1.845,0,0,1-.7,1.523A3.023,3.023,0,0,1,28.193.1a4.547,4.547,0,0,1-2.021-.43V-1.738a8.33,8.33,0,0,0,1.223.454,3.619,3.619,0,0,0,.916.132,1.3,1.3,0,0,0,.764-.19.651.651,0,0,0,.266-.566.625.625,0,0,0-.117-.374,1.311,1.311,0,0,0-.344-.315,8.854,8.854,0,0,0-.925-.483,4.386,4.386,0,0,1-.981-.591,2.218,2.218,0,0,1-.522-.659,1.881,1.881,0,0,1-.2-.879A1.845,1.845,0,0,1,26.9-6.7a2.668,2.668,0,0,1,1.775-.542,4.191,4.191,0,0,1,1.062.132,7.3,7.3,0,0,1,1.057.371L30.3-5.562a7.144,7.144,0,0,0-.945-.327,3.041,3.041,0,0,0-.735-.093.973.973,0,0,0-.659.2.66.66,0,0,0-.229.522.647.647,0,0,0,.093.349,1.02,1.02,0,0,0,.3.288,9.134,9.134,0,0,0,.959.5,3.818,3.818,0,0,1,1.372.959A1.873,1.873,0,0,1,30.825-1.982ZM31.792-.7a.819.819,0,0,1,.22-.62.891.891,0,0,1,.64-.21.866.866,0,0,1,.627.215A.816.816,0,0,1,33.5-.7a.816.816,0,0,1-.225.608.85.85,0,0,1-.625.222.876.876,0,0,1-.635-.217A.813.813,0,0,1,31.792-.7Zm0-4.033a.819.819,0,0,1,.22-.62.891.891,0,0,1,.64-.21.866.866,0,0,1,.627.215.816.816,0,0,1,.222.615.808.808,0,0,1-.227.613.863.863,0,0,1-.623.217.882.882,0,0,1-.635-.215A.811.811,0,0,1,31.792-4.731Zm6.362-2.407L35.493,0H34.141L36.8-7.139Zm4.131,0L39.624,0H38.271l2.661-7.139ZM50.186,0H48.462L47.5-3.75q-.054-.2-.183-.828t-.149-.842q-.029.264-.146.847t-.181.833L45.874,0H44.155L42.334-7.139h1.489l.913,3.9q.239,1.079.347,1.87.029-.278.134-.862t.2-.906l1.04-4h1.431l1.04,4q.068.269.171.82t.156.947q.049-.381.156-.95t.2-.92l.908-3.9H52Zm9.668,0H58.13l-.967-3.75q-.054-.2-.183-.828t-.149-.842q-.029.264-.146.847T56.5-3.74L55.542,0H53.823L52-7.139h1.489l.913,3.9q.239,1.079.347,1.87.029-.278.134-.862t.2-.906l1.04-4h1.431l1.04,4q.068.269.171.82t.156.947q.049-.381.156-.95t.2-.92l.908-3.9H61.67Zm9.668,0H67.8l-.967-3.75q-.054-.2-.183-.828T66.5-5.42q-.029.264-.146.847t-.181.833L65.21,0H63.491L61.67-7.139h1.489l.913,3.9q.239,1.079.347,1.87.029-.278.134-.862t.2-.906l1.04-4h1.431l1.04,4q.068.269.171.82t.156.947q.049-.381.156-.95t.2-.92l.908-3.9h1.489Z" transform="translate(909 581)" fill="#4970ef"/><g transform="translate(-15 4)"><path d="M332.382,312.709l-20.835-14.094-.834-.564-.254-.172a.9.9,0,0,0-1.4.662l-2.468,26.353a.9.9,0,0,0,1.346.864l1.15-.834,6.532-4.735,5.734,12.143a.905.905,0,0,0,1.2.432l5.76-2.72a.905.905,0,0,0,.432-1.2l-5.707-12.081L332.2,314.3a.9.9,0,0,0,.185-1.593Z" transform="translate(671.107 283.277)" fill="#283659"/><path d="M332.382,312.709l-20.835-14.094-.834-.564-.254-.172a.9.9,0,0,0-1.4.662l-2.468,26.353a.9.9,0,0,0,1.346.864l1.15-.834,6.532-4.735,5.734,12.143a.905.905,0,0,0,1.2.432l5.76-2.72a.905.905,0,0,0,.432-1.2l-5.707-12.081L332.2,314.3a.9.9,0,0,0,.185-1.593Z" transform="translate(672.107 282.277)" fill="#fff"/></g></g></svg>