<svg xmlns="http://www.w3.org/2000/svg" width="95.92" height="119.792" viewBox="0 0 95.92 119.792"><g transform="translate(-530 -740)"><path d="M46,116H8a8.009,8.009,0,0,1-8-8V8A8.009,8.009,0,0,1,8,0H78a8.009,8.009,0,0,1,8,8V78H54a8.009,8.009,0,0,0-8,8v30Z" transform="translate(530 740)" fill="#81a3ff"/><g transform="translate(570.333 748)"><path d="M24,23l7-7L24,9" transform="translate(-4.667)" fill="none" stroke="#fff" stroke-linecap="round" stroke-linejoin="round" stroke-width="3"/><path d="M10,9,3,16l7,7" transform="translate(0)" fill="none" stroke="#fff" stroke-linecap="round" stroke-linejoin="round" stroke-width="3"/></g><g transform="translate(539.3 818)"><path d="M27.408,11.82a.532.532,0,0,0-.216.042l-7.532,3.906h0a1.069,1.069,0,0,0-.53.908V24.56a.511.511,0,0,0,.539.488.58.58,0,0,0,.259-.059.093.093,0,0,0,.021-.013l7.409-3.931.013,0a1.077,1.077,0,0,0,.581-.937v-7.8A.514.514,0,0,0,27.408,11.82Z" transform="translate(-6.696 -3.797)" fill="#fff"/><path d="M20.651,5.919,12.945,2.454a2.435,2.435,0,0,0-.7-.2,2.393,2.393,0,0,0-.7.2L3.827,5.919s-.339.14-.339.4c0,.28.352.488.352.488l7.867,4.148a1.337,1.337,0,0,0,1.073,0L20.643,6.8a.615.615,0,0,0,.318-.488C20.965,6.046,20.651,5.919,20.651,5.919Z" transform="translate(-0.491)" fill="#fff"/><path d="M10.541,15.765,3,11.855a.6.6,0,0,0-.216-.042.514.514,0,0,0-.539.488v7.8a1.077,1.077,0,0,0,.581.937l.008,0,7.409,3.931a.561.561,0,0,0,.28.072.517.517,0,0,0,.539-.488v-7.88A1.06,1.06,0,0,0,10.541,15.765Z" transform="translate(0 -3.795)" fill="#fff"/></g><path d="M40.561,4.5H5.406A3.893,3.893,0,0,0,1.5,8.406V31.842a3.9,3.9,0,0,0,3.906,3.906h9.765v3.906H30.8V35.749H34.7V31.842H5.406V8.406H40.561V24.03h3.906V8.406A3.9,3.9,0,0,0,40.561,4.5ZM24.936,18.171V12.312H21.03v5.859H15.171v3.906H21.03v5.859h3.906V22.077H30.8V18.171ZM46.42,33.8l-8.789,8.789-2.93-2.93L40.561,33.8,34.7,27.936l2.93-2.93Z" transform="translate(579.5 817.208)" fill="#193d9d"/><rect width="39" height="4" rx="2" transform="translate(540 787)" fill="#fff"/><rect width="28" height="4" rx="2" transform="translate(540 799)" fill="#fff"/></g></svg>