<svg xmlns="http://www.w3.org/2000/svg" xmlns:xlink="http://www.w3.org/1999/xlink" width="1200.751" height="407.036" viewBox="0 0 1200.751 407.036"><defs><filter id="a" x="72.751" y="193" width="201" height="92" filterUnits="userSpaceOnUse"><feOffset dy="3" input="SourceAlpha"/><feGaussianBlur stdDeviation="3" result="b"/><feFlood flood-opacity="0.4"/><feComposite operator="in" in2="b"/><feComposite in="SourceGraphic"/></filter><filter id="c" x="44.519" y="234.118" width="137.03" height="141.18" filterUnits="userSpaceOnUse"><feOffset dy="3" input="SourceAlpha"/><feGaussianBlur stdDeviation="3" result="d"/><feFlood flood-opacity="0.4"/><feComposite operator="in" in2="d"/><feComposite in="SourceGraphic"/></filter><filter id="e" x="15.643" y="334.411" width="72.625" height="72.625" filterUnits="userSpaceOnUse"><feOffset dy="3" input="SourceAlpha"/><feGaussianBlur stdDeviation="3" result="f"/><feFlood flood-opacity="0.4"/><feComposite operator="in" in2="f"/><feComposite in="SourceGraphic"/></filter><filter id="g" x="3.633" y="282.815" width="77.419" height="65.031" filterUnits="userSpaceOnUse"><feOffset dy="3" input="SourceAlpha"/><feGaussianBlur stdDeviation="3" result="h"/><feFlood flood-opacity="0.4"/><feComposite operator="in" in2="h"/><feComposite in="SourceGraphic"/></filter><filter id="i" x="0" y="321.251" width="77.291" height="41.161" filterUnits="userSpaceOnUse"><feOffset dy="3" input="SourceAlpha"/><feGaussianBlur stdDeviation="3" result="j"/><feFlood flood-opacity="0.4"/><feComposite operator="in" in2="j"/><feComposite in="SourceGraphic"/></filter></defs><g transform="translate(-173.249 -545)"><rect width="1200" height="320" transform="translate(174 545)" fill="#fff"/><g transform="translate(-14 -5)"><g transform="translate(212 682)" fill="#fff" stroke="#ccc" stroke-width="2"><rect width="1152" height="148" stroke="none"/><rect x="1" y="1" width="1150" height="146" fill="none"/></g><g transform="translate(212 682)" fill="#eee" stroke="#ccc" stroke-width="2"><rect width="1152" height="65" stroke="none"/><rect x="1" y="1" width="1150" height="63" fill="none"/></g><g transform="translate(212 678)"><path d="M105.568,15.88c-3.2-1.088-6.624-4.32-6.624-8.736V4.584h-2.88V7.24c0,4.416-2.944,7.776-6.944,9.472l1.728,2.24c3.04-1.44,5.888-4.064,6.72-7.008A13.047,13.047,0,0,0,103.9,18.12Zm6.112,9.888c0-3.36-3.52-5.472-9.44-5.472s-9.44,2.112-9.44,5.472c0,3.392,3.52,5.472,9.44,5.472S111.68,29.16,111.68,25.768Zm-9.44-3.136c4.032,0,6.528,1.152,6.528,3.136s-2.5,3.168-6.528,3.168-6.5-1.184-6.5-3.168S98.208,22.632,102.24,22.632Zm13.216-9.7V10.6H111.3V3.272h-2.848V20.328H111.3V12.936Zm24.864,17.92V21.064H122.3v9.792Zm-22.3-23.232h6.3V8.776c0,3.9-3.52,7.552-7.168,8.9l1.6,2.208c2.88-1.184,6.144-4.128,7.04-6.784a13.052,13.052,0,0,0,6.528,5.984l1.568-2.272c-3.168-.96-6.688-4.128-6.688-8.1V7.624h6.112V5.288h-15.3Zm19.456,20.96H125.12V23.3h12.352Zm2.848-8.928V3.272h-2.848v7.1h-5.216v2.3h5.216v6.976ZM168.16,25.8c0-3.328-3.424-5.472-9.536-5.472-6.016,0-9.5,2.144-9.5,5.472,0,3.36,3.488,5.44,9.5,5.44C164.736,31.24,168.16,29.16,168.16,25.8Zm-9.536-3.136c4.224,0,6.656,1.184,6.656,3.136s-2.432,3.1-6.656,3.1c-4.1,0-6.56-1.152-6.56-3.1S154.528,22.664,158.624,22.664Zm1.984-12.7h4.544v3.488h-4.544V15.72h4.544v4.7H168V3.272h-2.848V7.688h-4.544ZM159.2,18.184V5.448H146.3V18.184Zm-2.816-2.24H149.12V7.688h7.264Z" transform="translate(2 17)" fill="#444"/><path d="M73.68,15.88c-3.2-1.088-6.624-4.32-6.624-8.736V4.584h-2.88V7.24c0,4.416-2.944,7.776-6.944,9.472l1.728,2.24c3.04-1.44,5.888-4.064,6.72-7.008a13.047,13.047,0,0,0,6.336,6.176Zm6.112,9.888c0-3.36-3.52-5.472-9.44-5.472s-9.44,2.112-9.44,5.472c0,3.392,3.52,5.472,9.44,5.472S79.792,29.16,79.792,25.768Zm-9.44-3.136c4.032,0,6.528,1.152,6.528,3.136s-2.5,3.168-6.528,3.168-6.5-1.184-6.5-3.168S66.32,22.632,70.352,22.632Zm13.216-9.7V10.6h-4.16V3.272H76.56V20.328h2.848V12.936Zm24.864,17.92V21.064H90.416v9.792ZM86.128,7.624h6.3V8.776c0,3.9-3.52,7.552-7.168,8.9l1.6,2.208c2.88-1.184,6.144-4.128,7.04-6.784a13.052,13.052,0,0,0,6.528,5.984L102,16.808c-3.168-.96-6.688-4.128-6.688-8.1V7.624h6.112V5.288h-15.3Zm19.456,20.96H93.232V23.3h12.352Zm2.848-8.928V3.272h-2.848v7.1h-5.216v2.3h5.216v6.976ZM129.008,5.032a7,7,0,0,0-7.264,7.168c0,4.1,3.072,6.976,7.264,6.976a6.85,6.85,0,0,0,7.232-7.008A6.97,6.97,0,0,0,129.008,5.032Zm0,2.464c2.656,0,4.352,1.952,4.352,4.672a4.218,4.218,0,0,1-4.352,4.544,4.3,4.3,0,0,1-4.384-4.544A4.367,4.367,0,0,1,129.008,7.5ZM141.68,9.48v4.64h-4.672l-.064,2.336h4.736v7.136h2.848V3.272H141.68v3.84h-4.736l.064,2.368Zm3.424,20.9V28.1H129.2V21.768h-2.816v8.608Zm29.92-17.536V10.5h-4.16V3.272h-2.816V20.36h2.816V12.84Zm-22.656,8.928V24.1h15.68V31.24h2.816V21.768Zm13.6-3.52-.352-2.24a71.377,71.377,0,0,1-11.9.864h-.544v-4h9.888v-8h-12.8V7.144h9.984v3.488h-9.92v8.544h3.328A80.319,80.319,0,0,0,165.968,18.248Zm27.456,5.376a11.808,11.808,0,0,1-6.976-10.752V12.2h6.272V9.9H177.232v2.3H183.5v.7a12.943,12.943,0,0,1-7.264,11.424l1.824,2.048c3.1-1.632,6.176-5.152,6.944-8.1.864,2.88,4,6.048,6.784,7.424ZM197.04,17.9V31.24h2.816V3.272H197.04V15.528h-5.664V17.9Zm-7.9-10.528V5.032h-8.384V7.368Z" transform="translate(264 17)" fill="#444"/><path d="M105.568,15.88c-3.2-1.088-6.624-4.32-6.624-8.736V4.584h-2.88V7.24c0,4.416-2.944,7.776-6.944,9.472l1.728,2.24c3.04-1.44,5.888-4.064,6.72-7.008A13.047,13.047,0,0,0,103.9,18.12Zm6.112,9.888c0-3.36-3.52-5.472-9.44-5.472s-9.44,2.112-9.44,5.472c0,3.392,3.52,5.472,9.44,5.472S111.68,29.16,111.68,25.768Zm-9.44-3.136c4.032,0,6.528,1.152,6.528,3.136s-2.5,3.168-6.528,3.168-6.5-1.184-6.5-3.168S98.208,22.632,102.24,22.632Zm13.216-9.7V10.6H111.3V3.272h-2.848V20.328H111.3V12.936Zm24.224,17.92V21.992h-8.32V19.176h11.264v-2.3H117.376v2.3h11.136v2.816H120.32v8.864ZM140,14.7v-2.3h-4.224L136.64,8.2l-2.848-.416-.64,4.608h-6.368l-.64-4.576-2.816.416.768,4.16h-4.224v2.3Zm-3.136,13.92H123.136V24.232h13.728Zm3.168-21.792V4.552H119.84V6.824ZM168.16,25.8c0-3.328-3.424-5.472-9.536-5.472-6.016,0-9.5,2.144-9.5,5.472,0,3.36,3.488,5.44,9.5,5.44C164.736,31.24,168.16,29.16,168.16,25.8Zm-9.536-3.136c4.224,0,6.656,1.184,6.656,3.136s-2.432,3.1-6.656,3.1c-4.1,0-6.56-1.152-6.56-3.1S154.528,22.664,158.624,22.664Zm1.984-12.7h4.544v3.488h-4.544V15.72h4.544v4.7H168V3.272h-2.848V7.688h-4.544ZM159.2,18.184V5.448H146.3V18.184Zm-2.816-2.24H149.12V7.688h7.264Z" transform="translate(526 17)" fill="#444"/><path d="M95.952,16.84v14.4h2.816V3.272H95.952v11.2H89.936V16.84ZM89.872,6.248H77.04v2.4h9.824c-.512,6.016-4.576,11.936-11.232,15.072l1.76,2.176C85.008,21.736,89.68,15.144,89.872,6.248Zm37.28,24.992V3.272h-2.72v11.1h-3.264V3.88H118.48V29.864h2.688V16.68h3.264V31.24ZM117.1,23.624l-.352-2.272a51.547,51.547,0,0,1-9.632.832V16.136h8.224V6.152h-11.1v2.3h8.288V13.8H104.3V24.52h2.048A63.412,63.412,0,0,0,117.1,23.624Zm37.056-6.112V3.272h-2.848v14.24Zm.992,13.536V28.712H138.8V25.96h15.36V18.952H135.888v2.3h15.424v2.592H135.984v7.2Zm-16-26.848c-4.032,0-7.168,2.656-7.168,6.4,0,3.808,3.232,6.176,7.168,6.176,4,0,7.136-2.464,7.136-6.208C146.288,6.792,143.152,4.2,139.152,4.2Zm0,2.432c2.656,0,4.352,1.632,4.352,3.936,0,2.176-1.728,3.84-4.352,3.84-2.5,0-4.384-1.568-4.384-3.84A4.088,4.088,0,0,1,139.152,6.632Zm42.88,24.608V3.272h-2.816V31.24Zm-6.144-8.832a14.2,14.2,0,0,1-7.008-12.032V5.736h-2.944V10.5a15.4,15.4,0,0,1-7.168,12.672l1.76,2.08A17.471,17.471,0,0,0,167.44,16.2c1.024,3.264,4.256,6.592,6.752,8.32Z" transform="translate(788 17)" fill="#444"/><rect width="2" height="32" transform="translate(262 21)" fill="#ccc"/><rect width="2" height="32" transform="translate(524 21)" fill="#ccc"/><rect width="2" height="32" transform="translate(786 21)" fill="#ccc"/><rect width="2" height="32" transform="translate(1048 21)" fill="#ccc"/><g transform="translate(0 -10)"><path d="M127.12,8.272c0-2.784-2.808-4.68-7.512-4.68-4.68,0-7.512,1.9-7.512,4.68,0,2.808,2.832,4.7,7.512,4.7C124.312,12.976,127.12,11.056,127.12,8.272Zm-7.512-3.1c3.576,0,5.736,1.176,5.736,3.1,0,1.944-2.16,3.12-5.736,3.12-3.528,0-5.688-1.176-5.688-3.12C113.92,6.352,116.08,5.176,119.608,5.176ZM120.52,23.7v-7.3h8.664V14.872h-18.96v1.536H118.7v7.3Zm24.024-5.928-.144-1.488c-.96.144-2.28.264-3.816.36.24-2.808.5-5.664.768-8.472l-1.824-.216c-.216,2.928-.408,5.88-.6,8.784-.264,0-.5.024-.768.024-.816.048-1.632.1-2.472.12l-.6-8.9L133.24,8.2l.768,8.712c-1.08.024-2.112.024-3.1.024.072.552.168,1.08.264,1.608,1.9-.024,4.416-.12,6.864-.216C140.584,18.184,142.984,17.992,144.544,17.776ZM148,23.68V2.7h-1.824V23.68ZM143.248,6.448V4.912h-11.76V6.448Z" transform="translate(2 105)" fill="#444"/><path d="M21.806,21.806H6.663V6.663h6.761V4.5H6.663A2.169,2.169,0,0,0,4.5,6.663V21.806a2.169,2.169,0,0,0,2.163,2.163H21.806a2.169,2.169,0,0,0,2.163-2.163v-6.76H21.806ZM15.857,4.5V6.663h4.435L9.367,17.588,10.882,19.1,21.806,8.177v4.435h2.163V4.5Z" transform="translate(152.265 105.265)" fill="#444"/></g><path d="M62.716,21.28c3.264,0,5.76-2.232,5.76-7.68V12.136c0-5.592-2.592-7.512-5.736-7.512-3.168,0-5.928,1.92-5.928,7.608v1.344C56.812,19.024,59.4,21.28,62.716,21.28Zm0-1.584c-2.52,0-3.864-1.92-3.864-5.928V11.992c0-4.032,1.368-5.784,3.888-5.784,2.472,0,3.792,1.848,3.792,5.9v1.776C66.532,18.016,65.188,19.7,62.716,19.7ZM75.484,21.28c3.552,0,5.664-2.424,5.664-5.3,0-3.384-1.992-4.92-5.232-4.92a10.68,10.68,0,0,0-2.3.336l.336-4.9h6.624V4.864h-8.16l-.576,8.448a9.74,9.74,0,0,1,3.36-.792c2.52,0,3.96.984,3.96,3.432,0,2.28-1.488,3.72-4.032,3.72a7.6,7.6,0,0,1-3.792-1.152l-.36,1.536A8.076,8.076,0,0,0,75.484,21.28Zm14.328,0c3.264,0,5.76-2.232,5.76-7.68V12.136c0-5.592-2.592-7.512-5.736-7.512-3.168,0-5.928,1.92-5.928,7.608v1.344C83.908,19.024,86.5,21.28,89.812,21.28Zm0-1.584c-2.52,0-3.864-1.92-3.864-5.928V11.992c0-4.032,1.368-5.784,3.888-5.784,2.472,0,3.792,1.848,3.792,5.9v1.776C93.628,18.016,92.284,19.7,89.812,19.7Zm9.432,1.392h2.112l6.312-14.9V4.96H97.4V6.568h8.184Zm13.656,0h1.824V4.624h-1.008L109.924,6.4V7.5l2.976-.7Zm9.864.144c3.576,0,5.856-1.968,5.856-4.776,0-2.5-1.584-3.672-3.672-4.08,1.824-.6,3.072-1.776,3.072-3.768,0-2.52-1.968-3.984-4.848-3.984a8.915,8.915,0,0,0-4.248,1.248l.288,1.536a7.423,7.423,0,0,1,3.576-1.152c1.968,0,3.24.7,3.24,2.664,0,1.8-1.416,2.856-3.5,2.856h-1.44v1.632h1.56c2.448,0,4.032.984,4.032,3.048,0,1.992-1.488,3.168-4.152,3.168a7.72,7.72,0,0,1-3.72-1.056L118.4,20.08A7.99,7.99,0,0,0,122.764,21.232Zm14.16.048c3.264,0,5.232-2.376,5.232-5.448a4.667,4.667,0,0,0-4.848-4.92,5.481,5.481,0,0,0-3.984,1.728c.24-5.016,1.776-6.408,4.512-6.408a7.454,7.454,0,0,1,3.024.744l.552-1.392a7.974,7.974,0,0,0-3.768-.96c-3.72,0-6.24,2.5-6.24,8.184v1.248C131.4,18.64,133.324,21.28,136.924,21.28ZM136.9,19.7c-2.568,0-3.576-1.968-3.576-4.968V14.56a4.751,4.751,0,0,1,3.6-2.04c1.944,0,3.312.984,3.312,3.5C140.236,18.328,138.988,19.7,136.9,19.7Zm11.664,1.584c3.552,0,5.664-2.424,5.664-5.3,0-3.384-1.992-4.92-5.232-4.92a10.68,10.68,0,0,0-2.3.336l.336-4.9h6.624V4.864h-8.16l-.576,8.448a9.74,9.74,0,0,1,3.36-.792c2.52,0,3.96.984,3.96,3.432,0,2.28-1.488,3.72-4.032,3.72a7.6,7.6,0,0,1-3.792-1.152l-.36,1.536A8.076,8.076,0,0,0,148.564,21.28Zm14.328,0c3.264,0,5.76-2.232,5.76-7.68V12.136c0-5.592-2.592-7.512-5.736-7.512-3.168,0-5.928,1.92-5.928,7.608v1.344C156.988,19.024,159.58,21.28,162.892,21.28Zm0-1.584c-2.52,0-3.864-1.92-3.864-5.928V11.992c0-4.032,1.368-5.784,3.888-5.784,2.472,0,3.792,1.848,3.792,5.9v1.776C166.708,18.016,165.364,19.7,162.892,19.7Zm14.424,1.584c3.264,0,5.232-2.376,5.232-5.448a4.667,4.667,0,0,0-4.848-4.92,5.481,5.481,0,0,0-3.984,1.728c.24-5.016,1.776-6.408,4.512-6.408a7.454,7.454,0,0,1,3.024.744l.552-1.392a7.974,7.974,0,0,0-3.768-.96c-3.72,0-6.24,2.5-6.24,8.184v1.248C171.8,18.64,173.716,21.28,177.316,21.28Zm-.024-1.584c-2.568,0-3.576-1.968-3.576-4.968V14.56a4.751,4.751,0,0,1,3.6-2.04c1.944,0,3.312.984,3.312,3.5C180.628,18.328,179.38,19.7,177.292,19.7ZM187.3,21.088h1.824V4.624h-1.008L184.324,6.4V7.5l2.976-.7Zm11.16.192c3.264,0,5.232-2.376,5.232-5.448a4.667,4.667,0,0,0-4.848-4.92,5.481,5.481,0,0,0-3.984,1.728c.24-5.016,1.776-6.408,4.512-6.408a7.454,7.454,0,0,1,3.024.744l.552-1.392a7.974,7.974,0,0,0-3.768-.96c-3.72,0-6.24,2.5-6.24,8.184v1.248C192.94,18.64,194.86,21.28,198.46,21.28Zm-.024-1.584c-2.568,0-3.576-1.968-3.576-4.968V14.56a4.751,4.751,0,0,1,3.6-2.04c1.944,0,3.312.984,3.312,3.5C201.772,18.328,200.524,19.7,198.436,19.7Z" transform="translate(264 95)" fill="#444"/><path d="M30.976,21.256c4.416,0,7.08-3.048,7.08-8.112V12.76c0-5.28-2.664-8.136-7.008-8.136-4.44,0-7.1,3.048-7.1,8.112v.384C23.944,18.4,26.608,21.256,30.976,21.256Zm.048-1.56c-3.6,0-5.04-2.688-5.04-6.576v-.744c0-3.6,1.656-6.192,4.968-6.192,3.648.024,5.064,2.664,5.064,6.576V13.5C36.016,17.08,34.36,19.7,31.024,19.7Zm14.568,1.512c3.216,0,5.424-2.256,5.424-6.048v-.336c0-3.768-2.04-5.952-5.4-5.952-3.216,0-5.4,2.256-5.4,6.024v.36C40.216,19.048,42.232,21.208,45.592,21.208ZM45.64,19.7c-1.992,0-3.552-1.08-3.552-4.392v-.6c0-2.784,1.344-4.32,3.5-4.32,1.944,0,3.552,1.08,3.552,4.392v.6C49.144,18.184,47.8,19.7,45.64,19.7Zm8.136,4.848h1.848V20.416a6.039,6.039,0,0,0,3.048.792c3.288,0,5.376-1.824,5.376-6.168v-.312c0-4.416-2.256-5.856-4.872-5.856a5.3,5.3,0,0,0-3.528,1.2h-.1v-.96H53.776ZM58.5,19.7a4.778,4.778,0,0,1-2.88-.84V11.3a5.647,5.647,0,0,1,3.072-.864c2.184,0,3.432,1.032,3.432,4.392v.48C62.128,18.5,60.76,19.7,58.5,19.7Zm9.264,4.872c1.968,0,2.952-.72,3.744-2.832l4.68-12.648H74.344l-3.216,9.048H71.08l-3.5-9.048H65.608l4.56,11.472-.36.984a2.085,2.085,0,0,1-2.376,1.488,6.579,6.579,0,0,1-1.152-.168v1.368A3.682,3.682,0,0,0,67.768,24.568ZM82.192,23.44h1.656a15.383,15.383,0,0,1-3.864-9.768V13.1a14.686,14.686,0,0,1,3.864-9.624H82.192a13.84,13.84,0,0,0-4.152,9.792v.384A13.886,13.886,0,0,0,82.192,23.44ZM102.16,8.272c0-2.784-2.808-4.68-7.512-4.68-4.68,0-7.512,1.9-7.512,4.68,0,2.808,2.832,4.7,7.512,4.7C99.352,12.976,102.16,11.056,102.16,8.272Zm-7.512-3.1c3.576,0,5.736,1.176,5.736,3.1,0,1.944-2.16,3.12-5.736,3.12-3.528,0-5.688-1.176-5.688-3.12C88.96,6.352,91.12,5.176,94.648,5.176ZM95.56,23.7v-7.3h8.664V14.872H85.264v1.536h8.472v7.3Zm24.024-5.928-.144-1.488c-.96.144-2.28.264-3.816.36.24-2.808.5-5.664.768-8.472l-1.824-.216c-.216,2.928-.408,5.88-.6,8.784-.264,0-.5.024-.768.024-.816.048-1.632.1-2.472.12l-.6-8.9L108.28,8.2l.768,8.712c-1.08.024-2.112.024-3.1.024.072.552.168,1.08.264,1.608,1.9-.024,4.416-.12,6.864-.216C115.624,18.184,118.024,17.992,119.584,17.776Zm3.456,5.9V2.7h-1.824V23.68ZM118.288,6.448V4.912h-11.76V6.448Zm7.944,16.992h1.632a13.727,13.727,0,0,0,4.128-9.792v-.384a13.772,13.772,0,0,0-4.128-9.792h-1.632A15.515,15.515,0,0,1,130.1,13.24v.6A14.8,14.8,0,0,1,126.232,23.44Zm24.312-10.128c0-2.328-2.64-3.6-6.744-3.6-4.08,0-6.72,1.272-6.72,3.6,0,2.136,2.232,3.408,5.784,3.576v2.784H134.32v1.536h18.936V19.672h-8.568V16.888C148.264,16.744,150.544,15.472,150.544,13.312Zm-1.92,0c0,1.488-2.328,2.112-4.824,2.112-2.448,0-4.8-.624-4.8-2.112s2.352-2.112,4.8-2.112C146.272,11.2,148.624,11.824,148.624,13.312Zm3.744-4.728V7.048H135.232V8.584ZM147.544,5.32V3.736h-7.56V5.32ZM173.32,13.5c-3.216-.72-7.824-3.96-7.824-7.392V4.456h-1.9V6.112c0,3.432-4.368,6.672-7.776,7.344l.96,1.56c3.648-1.032,6.984-4.008,7.728-6.144.864,2.136,4.272,5.112,7.8,6.168Zm.7,7.3V19.264H155.08V20.8Zm17.88-9.96V9.3h-11.9V6.256H192.3V4.72h-14.16V15.64H192.52V14.1H179.992V10.84Zm2.88,10.176V19.48H175.84v1.536Zm19.512,2.664V2.7h-1.8V23.68Zm-6-12.432V22.6h1.8V3.208h-1.8V9.736h-4.92v1.512ZM206.464,16a41.125,41.125,0,0,1-6.912.7V4.888h-1.824V18.3h1.152a46,46,0,0,0,7.8-.72ZM234.5,14.68V2.7h-1.824V14.68Zm.024,8.712V15.784H220.936v7.608ZM232.7,21.88H222.76V17.3H232.7Zm-9.384-18c-2.976,0-5.448,2.016-5.448,5.064s2.472,4.968,5.448,4.968,5.424-1.92,5.424-4.992C228.736,5.9,226.288,3.88,223.312,3.88Zm0,1.488a3.453,3.453,0,0,1,3.672,3.576,3.4,3.4,0,0,1-3.672,3.48,3.449,3.449,0,0,1-3.672-3.5A3.5,3.5,0,0,1,223.312,5.368ZM74.956,49.088H76.78V32.624H75.772L71.98,34.4v1.1l2.976-.7ZM97.828,51.68V30.7h-1.8V38.96H93.292V31.208h-1.8V50.624h1.8V40.472h2.736V51.68Zm-8.64-18.5h-8.4v1.536h6.48a13.983,13.983,0,0,1-7.2,11.256l1.224,1.344A16.02,16.02,0,0,0,89.188,33.176ZM124.516,47.7c0-2.472-2.544-4.008-7.056-4.008-4.488,0-7.008,1.536-7.008,4.008,0,2.448,2.52,3.984,7.008,3.984C121.972,51.68,124.516,50.144,124.516,47.7Zm-16.752-13.7h4.776c0,.384,0,.888-.024,1.128-.1,2.976-2.76,5.64-5.4,6.648l.984,1.464c2.256-.984,4.776-3.5,5.352-5.472a10.507,10.507,0,0,0,5.3,4.728l1.08-1.464c-2.568-.768-5.256-3.048-5.424-5.9-.024-.24-.024-.72-.024-1.128h4.728V32.456H107.764Zm9.7,11.232c3.288,0,5.184.888,5.184,2.472,0,1.56-1.9,2.448-5.184,2.448-3.216,0-5.16-.888-5.16-2.448C112.3,46.112,114.244,45.224,117.46,45.224Zm5.064-7.536v6.048h1.824V30.7h-1.824v5.448H118.3v1.536ZM145.108,51.68V30.7h-1.824V51.68ZM138.94,32.936h-9.984v1.536H137a14.163,14.163,0,0,1-8.808,11.616l1.056,1.44A16.336,16.336,0,0,0,138.94,32.936ZM166.66,51.56V50.12H154.132V47.6h11.736V42.536H152.236v1.44h11.808v2.3H152.308v5.28Zm-7.2-19.7h-9.576v1.536h7.488c-.7,3.432-3.768,6.216-8.376,7.368l.912,1.488C155.14,40.736,159.028,37.376,159.46,31.856Zm.216,3.384h4.368v2.424h-4.632v1.464h4.632v2.256h1.824V30.7h-1.824v3.1h-4.368ZM180.2,45.392a9.444,9.444,0,0,1-4.56-8.4v-2.3h4.032V33.176H169.66v1.512h4.176V37.04a10.779,10.779,0,0,1-4.68,8.976l1.224,1.272a10.979,10.979,0,0,0,4.368-6.264,12.388,12.388,0,0,0,4.3,5.712Zm2.832,5.232V31.208h-1.8v7.2h-3.36V39.92h3.36v10.7Zm4.152,1.056V30.7h-1.8V51.68Z" transform="translate(526 81)" fill="#444"/><path d="M75.568,20.992H85.576V19.36H78.232l2.52-2.544c2.784-2.832,4.464-4.752,4.464-7.536,0-2.88-1.752-4.68-4.992-4.68A8.551,8.551,0,0,0,75.76,6.064l.552,1.512a6.607,6.607,0,0,1,3.6-1.32c2.28,0,3.312,1.056,3.312,3.192,0,2.3-1.536,4.056-3.816,6.432l-3.84,3.984Zm18.768.288c3.264,0,5.76-2.232,5.76-7.68V12.136c0-5.592-2.592-7.512-5.736-7.512-3.168,0-5.928,1.92-5.928,7.608v1.344C88.432,19.024,91.024,21.28,94.336,21.28Zm0-1.584c-2.52,0-3.864-1.92-3.864-5.928V11.992c0-4.032,1.368-5.784,3.888-5.784,2.472,0,3.792,1.848,3.792,5.9v1.776C98.152,18.016,96.808,19.7,94.336,19.7Zm8.64,1.3h10.008V19.36H105.64l2.52-2.544c2.784-2.832,4.464-4.752,4.464-7.536,0-2.88-1.752-4.68-4.992-4.68a8.551,8.551,0,0,0-4.464,1.464l.552,1.512a6.607,6.607,0,0,1,3.6-1.32c2.28,0,3.312,1.056,3.312,3.192,0,2.3-1.536,4.056-3.816,6.432l-3.84,3.984Zm15.6.1H120.4V4.624h-1.008L115.6,6.4V7.5l2.976-.7Zm5.28.5h2.088V19.456h-2.088Zm12-.312c3.264,0,5.76-2.232,5.76-7.68V12.136c0-5.592-2.592-7.512-5.736-7.512-3.168,0-5.928,1.92-5.928,7.608v1.344C129.952,19.024,132.544,21.28,135.856,21.28Zm0-1.584c-2.52,0-3.864-1.92-3.864-5.928V11.992c0-4.032,1.368-5.784,3.888-5.784,2.472,0,3.792,1.848,3.792,5.9v1.776C139.672,18.016,138.328,19.7,135.856,19.7Zm9.432,1.392H147.4l6.312-14.9V4.96H143.44V6.568h8.184Zm10.1.5h2.088V19.456h-2.088Zm12-.312c3.264,0,5.76-2.232,5.76-7.68V12.136c0-5.592-2.592-7.512-5.736-7.512-3.168,0-5.928,1.92-5.928,7.608v1.344C161.488,19.024,164.08,21.28,167.392,21.28Zm0-1.584c-2.52,0-3.864-1.92-3.864-5.928V11.992c0-4.032,1.368-5.784,3.888-5.784,2.472,0,3.792,1.848,3.792,5.9v1.776C171.208,18.016,169.864,19.7,167.392,19.7Zm9.432,1.392h2.112l6.312-14.9V4.96H174.976V6.568h8.184ZM87.436,51.44h1.656a15.383,15.383,0,0,1-3.864-9.768V41.1a14.686,14.686,0,0,1,3.864-9.624H87.436a13.84,13.84,0,0,0-4.152,9.792v.384A13.886,13.886,0,0,0,87.436,51.44Zm6.384-2.352h1.824V32.624H94.636L90.844,34.4v1.1l2.976-.7Zm9.5.192c3.552,0,5.664-2.424,5.664-5.3,0-3.384-1.992-4.92-5.232-4.92a10.68,10.68,0,0,0-2.3.336l.336-4.9h6.624V32.864h-8.16l-.576,8.448a9.74,9.74,0,0,1,3.36-.792c2.52,0,3.96.984,3.96,3.432,0,2.28-1.488,3.72-4.032,3.72a7.6,7.6,0,0,1-3.792-1.152l-.36,1.536A8.076,8.076,0,0,0,103.324,49.28ZM112.468,38.7h2.064v-2.16h-2.064Zm0,8.832h2.064V45.344h-2.064Zm7.464,1.56h1.824V32.624h-1.008L116.956,34.4v1.1l2.976-.7Zm5.76-.1H135.7V47.36h-7.344l2.52-2.544c2.784-2.832,4.464-4.752,4.464-7.536,0-2.88-1.752-4.68-4.992-4.68a8.551,8.551,0,0,0-4.464,1.464l.552,1.512a6.607,6.607,0,0,1,3.6-1.32c2.28,0,3.312,1.056,3.312,3.192,0,2.3-1.536,4.056-3.816,6.432l-3.84,3.984Zm13.7-10.3h2.064v-2.16H139.4Zm0,8.832h2.064V45.344H139.4Zm10.008,1.7c3.576,0,5.856-1.968,5.856-4.776,0-2.5-1.584-3.672-3.672-4.08,1.824-.6,3.072-1.776,3.072-3.768,0-2.52-1.968-3.984-4.848-3.984a8.915,8.915,0,0,0-4.248,1.248l.288,1.536a7.423,7.423,0,0,1,3.576-1.152c1.968,0,3.24.7,3.24,2.664,0,1.8-1.416,2.856-3.5,2.856h-1.44v1.632h1.56c2.448,0,4.032.984,4.032,3.048,0,1.992-1.488,3.168-4.152,3.168a7.72,7.72,0,0,1-3.72-1.056l-.408,1.512A7.99,7.99,0,0,0,149.4,49.232Zm14.16.072c3.48,0,5.64-2.016,5.64-4.584,0-2.424-1.92-3.576-3.912-4.224,1.656-.864,3.264-1.992,3.264-3.936,0-2.5-2.04-3.96-5.064-3.96-3.1,0-5.088,1.728-5.088,4.056,0,2.064,1.416,3.288,3.144,3.96-1.776.7-3.6,2.16-3.6,4.272C157.948,47.528,160.132,49.3,163.564,49.3Zm-.024-1.584c-2.136,0-3.672-1.128-3.672-2.9s1.608-2.928,3.192-3.48c2.784.888,4.1,1.608,4.1,3.576C167.164,46.568,165.6,47.72,163.54,47.72Zm.336-7.92c-2.136-.552-3.432-1.536-3.432-3.192,0-1.536,1.224-2.424,3.072-2.424,1.992,0,3.048,1.032,3.048,2.448C166.564,38.168,165.388,39.128,163.876,39.8Zm7.032,11.64h1.632a13.727,13.727,0,0,0,4.128-9.792v-.384a13.772,13.772,0,0,0-4.128-9.792h-1.632a15.515,15.515,0,0,1,3.864,9.768v.6A14.8,14.8,0,0,1,170.908,51.44Z" transform="translate(788 81)" fill="#444"/></g><g transform="translate(-1)"><g transform="matrix(1, 0, 0, 1, 188.25, 550)" filter="url(#a)"><g transform="translate(81.75 199)" fill="none" stroke="#ed0000" stroke-width="6" stroke-dasharray="18 12"><rect width="183" height="74" rx="20" stroke="none"/><rect x="3" y="3" width="177" height="68" rx="17" fill="none"/></g></g></g></g><g transform="translate(-14 -2)"><g transform="translate(212 592)" fill="#7752e8" stroke="#707070" stroke-width="1"><rect width="8" height="60" rx="4" stroke="none"/><rect x="0.5" y="0.5" width="7" height="59" rx="3.5" fill="none"/></g><path d="M36.624-31.056v-3.408H4.944v3.408H18.528v.528c0,6.864-8.736,12.624-15.312,13.632l2.112,3.5c6.528-1.632,13.584-6.384,15.408-11.376,2.16,4.9,9.024,9.648,15.5,11.376l2.112-3.36c-6.288-1.152-15.36-7.008-15.36-13.776v-.528ZM39.7-1.968V-5.424H22.8v-9.84H18.528v9.84H1.824v3.456Zm31.92-2.688-.384-3.36c-2.88.384-7.488.72-11.952.912v-3.552c4.9-.576,8.16-3.264,8.16-7.008,0-4.32-4.176-7.056-10.176-7.056-5.9,0-10.128,2.784-10.128,7.056,0,3.7,3.168,6.336,7.92,6.96v3.84c-4.128.192-8.208.288-11.664.288l.72,3.552c3.5,0,8.592-.24,13.2-.432C62.448-3.744,68.064-4.224,71.616-4.656ZM78.048,3.36V-38.592H73.824V3.36Zm-8.16-30.24v-3.408H44.88v3.408Zm-6.864,9.216c0,2.064-2.4,3.7-5.76,3.7-3.312,0-5.664-1.632-5.664-3.7,0-2.112,2.352-3.7,5.664-3.7C60.624-21.36,63.024-19.776,63.024-17.664Zm.1-15.5v-3.408H50.976v3.408ZM120.72,3.12V-.336H96.384V-4.512h22.9v-10.56H91.824v3.408h23.184V-7.68H92.16V3.12Zm-14.4-39.552h-19.1v3.552h14.3C99.936-26.448,93.744-21.456,85.1-19.536l2.3,3.36C97.44-18.96,105.6-25.44,106.32-36.432Zm.48,7.152h8.208v4.368h-8.736V-21.6h8.736v4.272h4.272V-38.592h-4.272v6H106.8Zm58.656,11.76v-3.5h-6.432V-38.592H154.8V3.36h4.224V-17.52ZM152.544-6.912l-.528-3.312c-3.552.528-8.112.816-13.44,1.056V-22.32h-4.128v13.3c-3.072.1-6.48.1-9.024.1l.624,3.552c3.408,0,7.824-.1,12.048-.288C142.416-5.9,148.56-6.336,152.544-6.912Zm-2.736-27.456H127.92v3.456h17.616a80.236,80.236,0,0,1-1.2,15.264l4.08.528C149.376-19.248,149.808-26.784,149.808-34.368ZM189.744,2.88h3.6c-4.272-4.8-7.824-12.288-7.824-19.536V-17.9c0-7.488,3.552-14.4,7.824-19.152h-3.6A27.165,27.165,0,0,0,181.3-17.52v.816A27.368,27.368,0,0,0,189.744,2.88ZM229.2-3.648c0-4.56-4.848-7.3-14.5-7.3-9.6,0-14.448,2.88-14.448,7.3,0,4.464,4.848,7.3,14.448,7.3C224.352,3.648,229.2.864,229.2-3.648Zm2.592-18.768c-6.048-.336-13.248-2.832-14.688-6.576h12.624v-3.36H199.68v3.36H212.4c-1.392,3.744-8.112,6.24-14.784,6.576l1.872,3.5c6.528-.624,12.96-3.36,15.216-7.1,2.3,3.7,9.168,6.432,15.312,7.1Zm1.872,9.552V-16.32h-16.9v-5.328H212.5v5.328h-16.7v3.456ZM214.7-7.44c6.288,0,10.176,1.392,10.176,3.792C224.88-1.2,220.992.144,214.7.144c-6.192,0-10.08-1.344-10.08-3.792C204.624-6.048,208.512-7.44,214.7-7.44Zm6.768-27.312V-38.16H207.888v3.408ZM256.224-1.824h4.224V-34.8h-2.3l-7.776,3.6v2.448l5.856-1.3Zm46.7,4.128V-1.152h-24.1v-9.792H274.56V2.3ZM297.7-22.176V-8.112h4.272v-30.48H297.7V-25.68H288.96v3.5Zm-27.888-13.1v3.5h14.16c-1.2,7.344-7.488,13.344-16.176,15.5l2.16,3.456c10.992-3.216,18.288-11.04,18.672-22.464ZM307.776,2.88h3.648a27.312,27.312,0,0,0,8.5-19.584v-.816a27.285,27.285,0,0,0-8.5-19.536h-3.648c4.368,4.8,7.872,12.288,7.872,19.488v1.3C315.648-8.784,312.144-1.872,307.776,2.88Z" transform="translate(247 637)" fill="#707070"/></g><g transform="translate(57.563 1292.575) rotate(-82)"><g transform="matrix(0.14, 0.99, -0.99, 0.14, 756.4, 10.52)" filter="url(#c)"><path d="M25.519,0a8.483,8.483,0,0,1,8.244,8.428V27.212A9.253,9.253,0,0,1,47.109,28.4a8.617,8.617,0,0,1,11.723,3.095C68.076,29.8,72.238,35.62,72.238,45.148c0,.517-.038,2.5-.037,3.01.032,11.658-5.844,14.465-7.208,23.276a4.51,4.51,0,0,1-4.459,3.813H28.267a9.03,9.03,0,0,1-8.248-5.355c-2.444-5.434-9.225-17.949-14.546-20.229C2.05,48.2,0,45.641,0,42.139a9.035,9.035,0,0,1,12.587-8.3A25.568,25.568,0,0,1,17.274,36.5V8.428A8.619,8.619,0,0,1,25.519,0Zm.065,78.257H61.7a4.515,4.515,0,0,1,4.515,4.515V91.8A4.515,4.515,0,0,1,61.7,96.317H25.584A4.515,4.515,0,0,1,21.069,91.8v-9.03A4.515,4.515,0,0,1,25.584,78.257Zm31.6,5.267a3.762,3.762,0,1,0,3.762,3.762A3.762,3.762,0,0,0,57.188,83.525Z" transform="translate(114.22 241.52) rotate(38)" fill="#7752e8" stroke="#fff" stroke-width="2"/></g><g transform="matrix(-0.602, 0.799, -0.799, -0.602, 428.448, 122.979)"><g transform="matrix(0.71, -0.71, 0.71, 0.71, -287.18, -194.23)" filter="url(#e)"><path d="M9.577,0l9.577,58.1H0Z" transform="translate(65.72 340.41) rotate(45)" fill="#fff"/></g><path d="M5.734,0l5.734,49.694H0Z" transform="translate(3.823 5.734)" fill="#7752e8"/></g><g transform="translate(449.937 126.349) rotate(-156)"><g transform="matrix(-0.53, -0.85, 0.85, -0.53, -232.86, 230.47)" filter="url(#g)"><path d="M9.577,0l9.577,58.1H0Z" transform="matrix(-0.53, 0.85, -0.85, -0.53, 72.05, 319.6)" fill="#fff"/></g><path d="M5.734,0l5.734,49.694H0Z" transform="translate(3.823 5.734)" fill="#7752e8"/></g><g transform="matrix(-0.978, 0.208, -0.208, -0.978, 441.652, 122.366)"><g transform="matrix(0.07, -1, 1, 0.07, -331.12, 43.96)" filter="url(#i)"><path d="M9.577,0l9.577,58.1H0Z" transform="translate(66.95 327.25) rotate(86)" fill="#fff"/></g><path d="M5.734,0l5.734,49.694H0Z" transform="translate(3.823 5.734)" fill="#7752e8"/></g></g></g></svg>