<svg xmlns="http://www.w3.org/2000/svg" xmlns:xlink="http://www.w3.org/1999/xlink" width="1200" height="320" viewBox="0 0 1200 320">
  <defs>
    <filter id="사각형_147" x="501.192" y="208.28" width="196.968" height="64.104" filterUnits="userSpaceOnUse">
      <feOffset dy="3" input="SourceAlpha"/>
      <feGaussianBlur stdDeviation="3" result="blur"/>
      <feFlood flood-opacity="0.161"/>
      <feComposite operator="in" in2="blur"/>
      <feComposite in="SourceGraphic"/>
    </filter>
    <filter id="도트_라인" x="474" y="185" width="253" height="112" filterUnits="userSpaceOnUse">
      <feOffset dy="3" input="SourceAlpha"/>
      <feGaussianBlur stdDeviation="3" result="blur-2"/>
      <feFlood flood-opacity="0.4"/>
      <feComposite operator="in" in2="blur-2"/>
      <feComposite in="SourceGraphic"/>
    </filter>
    <filter id="Icon_awesome-hand-point-up" x="404.264" y="91.733" width="140.264" height="131.45" filterUnits="userSpaceOnUse">
      <feOffset dy="3" input="SourceAlpha"/>
      <feGaussianBlur stdDeviation="3" result="blur-3"/>
      <feFlood flood-opacity="0.4"/>
      <feComposite operator="in" in2="blur-3"/>
      <feComposite in="SourceGraphic"/>
    </filter>
    <filter id="패스_4" x="362.56" y="72.031" width="75.925" height="68.261" filterUnits="userSpaceOnUse">
      <feOffset dy="3" input="SourceAlpha"/>
      <feGaussianBlur stdDeviation="3" result="blur-4"/>
      <feFlood flood-opacity="0.4"/>
      <feComposite operator="in" in2="blur-4"/>
      <feComposite in="SourceGraphic"/>
    </filter>
    <filter id="패스_4-2" x="424.475" y="49.5" width="59.129" height="78.865" filterUnits="userSpaceOnUse">
      <feOffset dy="3" input="SourceAlpha"/>
      <feGaussianBlur stdDeviation="3" result="blur-5"/>
      <feFlood flood-opacity="0.4"/>
      <feComposite operator="in" in2="blur-5"/>
      <feComposite in="SourceGraphic"/>
    </filter>
    <filter id="패스_4-3" x="402.873" y="49.555" width="48.815" height="78.809" filterUnits="userSpaceOnUse">
      <feOffset dy="3" input="SourceAlpha"/>
      <feGaussianBlur stdDeviation="3" result="blur-6"/>
      <feFlood flood-opacity="0.4"/>
      <feComposite operator="in" in2="blur-6"/>
      <feComposite in="SourceGraphic"/>
    </filter>
  </defs>
  <g id="결제_내역_조회" data-name="결제 내역 조회" transform="translate(-174 -545)">
    <rect id="사각형_133" data-name="사각형 133" width="1200" height="320" transform="translate(174 545)" fill="#fff"/>
    <g id="그룹_23" data-name="그룹 23">
      <g id="그룹_21" data-name="그룹 21">
        <g id="그룹_20" data-name="그룹 20" transform="translate(-14 -5)">
          <g id="사각형_135" data-name="사각형 135" transform="translate(212 682)" fill="#fff" stroke="#ccc" stroke-width="2">
            <rect width="1152" height="148" stroke="none"/>
            <rect x="1" y="1" width="1150" height="146" fill="none"/>
          </g>
          <g id="사각형_136" data-name="사각형 136" transform="translate(212 682)" fill="#eee" stroke="#ccc" stroke-width="2">
            <rect width="1152" height="65" stroke="none"/>
            <rect x="1" y="1" width="1150" height="63" fill="none"/>
          </g>
          <g id="그룹_19" data-name="그룹 19" transform="translate(212 678)">
            <path id="패스_415" data-name="패스 415" d="M10.388-21.364a18.781,18.781,0,0,1-.532,4.984,13.321,13.321,0,0,0,6.524,6.272L14.252-7.84a14.09,14.09,0,0,1-5.74-5.124A15.851,15.851,0,0,1,2.38-6.944L-.112-9.24c5.04-2.856,7.28-6.44,6.972-12.124ZM24.724-13.02H20.832v6.468H17.388V-22.008h3.444v6.076h3.892ZM12.656-6.272c5.684,0,8.68,2.3,8.68,5.236,0,2.884-3,5.18-8.68,5.18s-8.624-2.3-8.624-5.18C4.032-3.976,6.972-6.272,12.656-6.272Zm0,2.772c-3.724,0-5.124,1.176-5.124,2.464C7.532.2,8.932,1.4,12.656,1.4S17.808.2,17.808-1.036C17.808-2.324,16.38-3.5,12.656-3.5Zm26.88-9.688V-16.1h4.032v-5.908H47.04V-7.2H43.568v-5.992Zm7.5,16.744H30.576V-6.1H47.04ZM43.568-3.192H33.992V.672h9.576ZM27.216-20.86H31.36c2.492,0,5.04,0,7.56-.056a14.788,14.788,0,0,1-2.576,7.224,16.621,16.621,0,0,0,5.6,3.948L39.956-7.252a18.146,18.146,0,0,1-5.488-4.256,25.553,25.553,0,0,1-6.86,4.592L25.452-9.38c5.768-2.464,8.9-6.02,9.38-8.624-1.54.056-3.108.056-4.648.056H27.216ZM64.036-8.624H51.94V-20.86h12.1v2.072h4.508v-3.22h3.472v15.68H68.544v-4.536H64.036Zm0-7.5v2.576h4.536v-2.576ZM60.788-11.4v-6.72H55.44v6.72ZM63.5-6.328c5.8,0,8.82,2.324,8.82,5.264,0,2.912-3.024,5.208-8.82,5.208s-8.764-2.3-8.764-5.208C54.74-4,57.708-6.328,63.5-6.328Zm0,2.8c-3.808,0-5.264,1.176-5.264,2.464C58.24.2,59.7,1.4,63.5,1.4S68.8.2,68.8-1.064C68.8-2.352,67.312-3.528,63.5-3.528Z" transform="translate(78 45)" fill="#444"/>
            <path id="패스_414" data-name="패스 414" d="M10.388-21.364a18.781,18.781,0,0,1-.532,4.984,13.321,13.321,0,0,0,6.524,6.272L14.252-7.84a14.09,14.09,0,0,1-5.74-5.124A15.851,15.851,0,0,1,2.38-6.944L-.112-9.24c5.04-2.856,7.28-6.44,6.972-12.124ZM24.724-13.02H20.832v6.468H17.388V-22.008h3.444v6.076h3.892ZM12.656-6.272c5.684,0,8.68,2.3,8.68,5.236,0,2.884-3,5.18-8.68,5.18s-8.624-2.3-8.624-5.18C4.032-3.976,6.972-6.272,12.656-6.272Zm0,2.772c-3.724,0-5.124,1.176-5.124,2.464C7.532.2,8.932,1.4,12.656,1.4S17.808.2,17.808-1.036C17.808-2.324,16.38-3.5,12.656-3.5Zm26.88-9.688V-16.1h4.032v-5.908H47.04V-7.2H43.568v-5.992Zm7.5,16.744H30.576V-6.1H47.04ZM43.568-3.192H33.992V.672h9.576ZM27.216-20.86H31.36c2.492,0,5.04,0,7.56-.056a14.788,14.788,0,0,1-2.576,7.224,16.621,16.621,0,0,0,5.6,3.948L39.956-7.252a18.146,18.146,0,0,1-5.488-4.256,25.553,25.553,0,0,1-6.86,4.592L25.452-9.38c5.768-2.464,8.9-6.02,9.38-8.624-1.54.056-3.108.056-4.648.056H27.216ZM66.08,1.512h-.056A7.69,7.69,0,0,1,59.5-1.54c-1.008-1.54-1.344-3.5-1.344-6.16V-20.412h3.528V-7.924c0,2.3.14,3.836.9,4.872a4.013,4.013,0,0,0,3.472,1.568,3.94,3.94,0,0,0,3.416-1.568c.784-1.036.924-2.576.924-4.872V-20.412H73.92V-7.7c0,2.66-.336,4.62-1.372,6.16A7.654,7.654,0,0,1,66.08,1.512Zm21.5-9.324v.056L92.9,1.26H88.592l-4.228-8.4h-2.94v8.4H77.9V-20.384H84.14c4.984,0,7.756,2.66,7.756,6.356A6.1,6.1,0,0,1,87.584-7.812Zm.728-6.132c0-2.324-1.6-3.528-3.752-3.528H81.4V-9.94h2.436C86.884-9.94,88.312-10.808,88.312-13.944ZM107.52-1.68V1.26h-12.8V-20.384h3.528v18.7Z" transform="translate(521 45)" fill="#444"/>
            <path id="패스_413" data-name="패스 413" d="M10.388-21.364a18.781,18.781,0,0,1-.532,4.984,13.321,13.321,0,0,0,6.524,6.272L14.252-7.84a14.09,14.09,0,0,1-5.74-5.124A15.851,15.851,0,0,1,2.38-6.944L-.112-9.24c5.04-2.856,7.28-6.44,6.972-12.124ZM24.724-13.02H20.832v6.468H17.388V-22.008h3.444v6.076h3.892ZM12.656-6.272c5.684,0,8.68,2.3,8.68,5.236,0,2.884-3,5.18-8.68,5.18s-8.624-2.3-8.624-5.18C4.032-3.976,6.972-6.272,12.656-6.272Zm0,2.772c-3.724,0-5.124,1.176-5.124,2.464C7.532.2,8.932,1.4,12.656,1.4S17.808.2,17.808-1.036C17.808-2.324,16.38-3.5,12.656-3.5ZM28.392-18.508v-2.8h18.2v2.8Zm-.308,6.888v-2.772l3.388.028-.168-3.3h3.5l.112,3.3H40.04l.168-3.3h3.444l-.2,3.3h3.416v2.744Zm7.56,6.72V-7.056H25.2v-2.8H49.728v2.8H39.144V-4.9H45.92V3.556H28.98V-4.9Zm6.832,2.8H32.4V.7h10.08Zm21.56-6.524H51.94V-20.86h12.1v2.072h4.508v-3.22h3.472v15.68H68.544v-4.536H64.036Zm0-7.5v2.576h4.536v-2.576ZM60.788-11.4v-6.72H55.44v6.72ZM63.5-6.328c5.8,0,8.82,2.324,8.82,5.264,0,2.912-3.024,5.208-8.82,5.208s-8.764-2.3-8.764-5.208C54.74-4,57.708-6.328,63.5-6.328Zm0,2.8c-3.808,0-5.264,1.176-5.264,2.464C58.24.2,59.7,1.4,63.5,1.4S68.8.2,68.8-1.064C68.8-2.352,67.312-3.528,63.5-3.528Z" transform="translate(308 45)" fill="#444"/>
            <path id="패스_412" data-name="패스 412" d="M13.076-19.18h5.516v-2.828h3.472V-3.556H18.592V-9.044H12.628A7,7,0,0,1,8.2-7.588a6.556,6.556,0,0,1-6.86-6.664A6.614,6.614,0,0,1,8.2-21.028,6.937,6.937,0,0,1,13.076-19.18Zm1.54,7.42h4l.056-4.732H14.728a7.351,7.351,0,0,1,.336,2.24A7.166,7.166,0,0,1,14.616-11.76Zm7.952,15.2H5.6V-4.564H9.044V.5H22.568Zm-17.64-17.7c0,2.268,1.26,3.7,3.332,3.7,2.016,0,3.36-1.428,3.36-3.7,0-2.408-1.344-3.864-3.36-3.864C6.216-18.116,4.928-16.66,4.928-14.252Zm25.032,4.06h1.988a40.809,40.809,0,0,0,9.744-1.148v2.8A44.136,44.136,0,0,1,31.08-7.392H26.516V-15.68h8.176v-2.6h-8.2v-2.8H38.136v8.148H29.96Zm19.8-3.108H45.864v7.14H42.42V-22.008h3.444v5.824h3.892ZM42.42,4V-2.184H29.148V-5.068H45.864V4ZM64.4-8.736v-3h4.144V-22.008h3.472V3.948H68.544V-8.736ZM53.76-18.172v-2.94h8.484v2.94ZM61.488-9.3a21.653,21.653,0,0,0,5.46,5.376l-2.38,2.464A25.547,25.547,0,0,1,59.5-6.524a25.557,25.557,0,0,1-7.224,5.8L50.092-3.08c5.124-2.6,9.156-7.168,9.772-10.7-1.792.056-3.556.056-5.32.056H51.6v-2.912H56c2.632,0,5.292,0,7.952-.056A18.061,18.061,0,0,1,61.488-9.3Z" transform="translate(768 45)" fill="#444"/>
            <path id="패스_411" data-name="패스 411" d="M13.916-8.82v-2.968h4.676v-10.22h3.472V3.948H18.592V-8.82ZM.448-3.78c7-3.332,9.94-8.316,10.528-13.16q-3.108.084-6.216.084H1.792v-2.968H6.244c2.632,0,5.32,0,8.484-.056C14.224-11.788,11-5.74,2.772-1.344ZM26.656-2.044V-12.8h6.188v-4.256H26.6v-2.912h9.6V-9.912H30.1v4.956h.728a28.239,28.239,0,0,0,7.308-.9v2.828a29.759,29.759,0,0,1-8.372.98ZM47.4,3.948H44.156v-14.2H41.944V3.3H38.7V-21.728h3.248v8.568h2.212v-8.848H47.4Zm21.14-25.956h3.472V-9.016H68.544ZM72.52,3.668H55.44v-7.2H68.572v-1.6H55.44v-2.8H72.016v7.14H58.828V.84H72.52ZM51.548-15.484c0-3.472,2.772-6.076,6.8-6.076,3.892,0,6.776,2.6,6.776,6.076,0,3.416-2.828,5.992-6.776,5.992C54.376-9.492,51.548-12.068,51.548-15.484Zm3.5,0a2.953,2.953,0,0,0,3.276,3.136A2.98,2.98,0,0,0,61.6-15.484a2.987,2.987,0,0,0-3.276-3.164A2.973,2.973,0,0,0,55.048-15.484ZM93.52-22.008h3.472V3.948H93.52ZM77.14-1.484,74.62-3.5c4.7-3.5,7.868-8.344,7.308-16.968h3.584a30.174,30.174,0,0,1-.56,6.776A18.373,18.373,0,0,0,92.2-4.34L89.88-1.988a19.985,19.985,0,0,1-6.356-7.224A19.243,19.243,0,0,1,77.14-1.484Z" transform="translate(985 45)" fill="#444"/>
            <rect id="사각형_142" data-name="사각형 142" width="2" height="32" transform="translate(230 21)" fill="#ccc"/>
            <rect id="사각형_143" data-name="사각형 143" width="2" height="32" transform="translate(460 21)" fill="#ccc"/>
            <rect id="사각형_144" data-name="사각형 144" width="2" height="32" transform="translate(690 21)" fill="#ccc"/>
            <rect id="사각형_145" data-name="사각형 145" width="2" height="32" transform="translate(920 21)" fill="#ccc"/>
          </g>
          <path id="패스_410" data-name="패스 410" d="M3-3.816H.6v1.2H5.952A18.617,18.617,0,0,0,11.76-3.24V-4.392a12.552,12.552,0,0,1-2.808.5L9.1-14.52H7.752l-.144,10.7H4.344L4.1-14.52H2.76Zm7.9-6.96v1.224h2.832V2.592h1.3V-18.432h-1.3v7.656Zm6.72-7.9V3.144h1.32V-18.672Zm-6.6,2.016H.888v1.176H11.016Zm28.992,19.8V-18.672H38.616V3.144ZM32.52-9.6c0,4.008-1.7,6.576-4.2,6.576s-4.2-2.568-4.2-6.576,1.7-6.576,4.2-6.576S32.52-13.608,32.52-9.6Zm1.368,0c0-4.7-2.208-7.776-5.568-7.776S22.752-14.3,22.752-9.6,24.96-1.824,28.32-1.824,33.888-4.9,33.888-9.6Zm27.1,11.472H47.928V-.552H60.384v-4.7h-13.8V-4.08H59.04v2.424H46.584v4.7h14.4ZM58.272-12.12l.216-3.792H57.1L56.88-12.12H50.232l-.192-3.792H48.648l.192,3.792H45.792v1.176H61.2V-12.12ZM43.1-7.512h20.76V-8.688H43.1Zm17.76-10.536H46.152v1.176H60.864Z" transform="translate(295 795)" fill="#444"/>
          <path id="패스_409" data-name="패스 409" d="M7.536-2.3a32.823,32.823,0,0,0,8.52-.984V-4.44a32.508,32.508,0,0,1-8.184.912H3.384V-9.384h8.232V-10.56H3.384V-15.7h8.592V-16.92H2.016V-2.3ZM18.6,3.144V-18.672H17.208V3.144Zm21.384,0V-18.672H38.64v5.112H33.5v1.2H38.64v3.936H33.5v1.2H38.64V3.144ZM22.56-1.656a15.871,15.871,0,0,0,6-8.208,17.453,17.453,0,0,0,6.1,7.7l.984-1.056a16.961,16.961,0,0,1-6.576-8.52,22.668,22.668,0,0,0,.456-5.544H28.08c.384,7.68-2.664,12.048-6.6,14.688Zm36.984-12.72c.072-.264-.048-.48-.312-.456-1.1.024-2.136.048-3.12.048H46.7v1.152h6.48c1.56,0,3.288-.048,4.632-.1-1.344,2.952-6.288,6.336-12.576,7.944l.648,1.176a29.158,29.158,0,0,0,8.28-3.7A28.514,28.514,0,0,0,61.44-4.7l.72-1.2a28.328,28.328,0,0,1-6.984-3.12C57.456-10.728,58.992-12.552,59.544-14.376ZM43.344-1.368V-.192H63.6V-1.368ZM49.224-16.8H57.1v-1.176H49.224Z" transform="translate(525 795)" fill="#444"/>
          <path id="패스_408" data-name="패스 408" d="M3.072-13.7q0,.252.216.144a13.145,13.145,0,0,0,3.576-2.184h.048V.792H8.256V-17.256H6.6a10.494,10.494,0,0,1-3.528,2.592Zm12.7,12.168c-.12-.12-.264-.072-.264.1V-.312a8.646,8.646,0,0,0,4.92,1.3c3.936,0,6.36-2.568,6.36-5.928,0-3.168-2.592-5.064-6.312-5.064a18.383,18.383,0,0,0-3.024.264h-.024l.384-6.36H25.68v-1.08h-9L16.2-8.52a19.193,19.193,0,0,1,3.576-.432c3.12,0,5.688,1.152,5.688,4.224A4.821,4.821,0,0,1,20.52-.072,8.34,8.34,0,0,1,15.768-1.536ZM30.312-14.16c1.536-1.44,2.952-2.256,4.68-2.256,2.5,0,3.72,1.3,3.72,3.5,0,1.824-.888,2.688-3.5,6.024l-5.832,6.5V.792H40.44v-1.2H31.128V-.456L36.6-6.624c2.184-2.64,3.576-4.176,3.576-6.336,0-3.168-1.992-4.608-5.256-4.608a7.807,7.807,0,0,0-4.9,1.9v1.416C30.024-14.088,30.192-14.04,30.312-14.16Zm13.992,0c1.536-1.44,2.952-2.256,4.68-2.256,2.5,0,3.72,1.3,3.72,3.5,0,1.824-.888,2.688-3.5,6.024l-5.832,6.5V.792H54.432v-1.2H45.12V-.456l5.472-6.168c2.184-2.64,3.576-4.176,3.576-6.336,0-3.168-1.992-4.608-5.256-4.608a7.807,7.807,0,0,0-4.9,1.9v1.416C44.016-14.088,44.184-14.04,44.3-14.16Zm13.68,4.776V-8.16h9.96V-9.384ZM71.736-1.536c-.12-.12-.264-.072-.264.1V-.312a8.646,8.646,0,0,0,4.92,1.3c3.936,0,6.36-2.568,6.36-5.928,0-3.168-2.592-5.064-6.312-5.064a18.383,18.383,0,0,0-3.024.264h-.024l.384-6.36h7.872v-1.08h-9l-.48,8.664a19.193,19.193,0,0,1,3.576-.432c3.12,0,5.688,1.152,5.688,4.224A4.821,4.821,0,0,1,76.488-.072,8.34,8.34,0,0,1,71.736-1.536ZM90.96-17.592c-3.72,0-5.784,2.9-5.784,9.408,0,6.456,2.04,9.192,5.784,9.192,3.72,0,5.784-2.736,5.784-9.192C96.744-14.688,94.632-17.592,90.96-17.592Zm0,1.2c2.9,0,4.368,2.736,4.368,8.208,0,5.544-1.512,8.016-4.368,8.016S86.592-2.64,86.592-8.184C86.592-13.656,88.056-16.392,90.96-16.392ZM101.016-13.7q0,.252.216.144a13.145,13.145,0,0,0,3.576-2.184h.048V.792H106.2V-17.256h-1.656a10.494,10.494,0,0,1-3.528,2.592Zm12.7,11.5c-.12-.12-.288-.072-.288.1v1.32a8,8,0,0,0,5.3,1.8c3.864,0,5.88-2.424,5.88-5.064a4.478,4.478,0,0,0-3.96-4.656V-8.76a4.336,4.336,0,0,0,3.48-4.416c0-2.568-1.944-4.44-5.376-4.44a7.957,7.957,0,0,0-4.824,1.632v1.344c0,.168.168.216.288.1a6.453,6.453,0,0,1,4.608-1.944c2.328,0,3.912,1.344,3.912,3.456,0,3.144-3.216,3.792-4.776,3.792h-.384v1.128h.72c2.856,0,4.92,1.368,4.92,4.056,0,2.448-2.04,3.912-4.44,3.912A6.916,6.916,0,0,1,113.712-2.208Z" transform="translate(954 795)" fill="#444"/>
          <path id="패스_407" data-name="패스 407" d="M2.328-14.16c1.536-1.44,2.952-2.256,4.68-2.256,2.5,0,3.72,1.3,3.72,3.5,0,1.824-.888,2.688-3.5,6.024L1.392-.384V.792H12.456v-1.2H3.144V-.456L8.616-6.624c2.184-2.64,3.576-4.176,3.576-6.336,0-3.168-1.992-4.608-5.256-4.608a7.807,7.807,0,0,0-4.9,1.9v1.416C2.04-14.088,2.208-14.04,2.328-14.16ZM21-17.592c-3.72,0-5.784,2.9-5.784,9.408,0,6.456,2.04,9.192,5.784,9.192,3.72,0,5.784-2.736,5.784-9.192C26.784-14.688,24.672-17.592,21-17.592Zm0,1.2c2.9,0,4.368,2.736,4.368,8.208C25.368-2.64,23.856-.168,21-.168S16.632-2.64,16.632-8.184C16.632-13.656,18.1-16.392,21-16.392Zm9.312,2.232c1.536-1.44,2.952-2.256,4.68-2.256,2.5,0,3.72,1.3,3.72,3.5,0,1.824-.888,2.688-3.5,6.024l-5.832,6.5V.792H40.44v-1.2H31.128V-.456L36.6-6.624c2.184-2.64,3.576-4.176,3.576-6.336,0-3.168-1.992-4.608-5.256-4.608a7.807,7.807,0,0,0-4.9,1.9v1.416C30.024-14.088,30.192-14.04,30.312-14.16Zm14.736.456q0,.252.216.144a13.145,13.145,0,0,0,3.576-2.184h.048V.792h1.344V-17.256H48.576a10.494,10.494,0,0,1-3.528,2.592ZM59.088-1.632A1.114,1.114,0,0,0,57.816-.384,1.114,1.114,0,0,0,59.088.864,1.114,1.114,0,0,0,60.36-.384,1.114,1.114,0,0,0,59.088-1.632ZM70.1-17.592c-3.72,0-5.784,2.9-5.784,9.408,0,6.456,2.04,9.192,5.784,9.192,3.72,0,5.784-2.736,5.784-9.192C75.888-14.688,73.776-17.592,70.1-17.592Zm0,1.2c2.9,0,4.368,2.736,4.368,8.208,0,5.544-1.512,8.016-4.368,8.016S65.736-2.64,65.736-8.184C65.736-13.656,67.2-16.392,70.1-16.392ZM82.224.792l7.392-16.776v-1.2H78.264v1.08H88.3L80.784.792ZM94.2-1.632A1.114,1.114,0,0,0,92.928-.384,1.114,1.114,0,0,0,94.2.864,1.114,1.114,0,0,0,95.472-.384,1.114,1.114,0,0,0,94.2-1.632Zm11.016-15.96c-3.72,0-5.784,2.9-5.784,9.408,0,6.456,2.04,9.192,5.784,9.192,3.72,0,5.784-2.736,5.784-9.192C111-14.688,108.888-17.592,105.216-17.592Zm0,1.2c2.9,0,4.368,2.736,4.368,8.208,0,5.544-1.512,8.016-4.368,8.016s-4.368-2.472-4.368-8.016C100.848-13.656,102.312-16.392,105.216-16.392ZM117.336.792l7.392-16.776v-1.2H113.376v1.08h10.032L115.9.792ZM3.792,19.392a17.312,17.312,0,0,0,4.656,11.16h.864a19.447,19.447,0,0,1-3.96-11.16A19.6,19.6,0,0,1,9.288,8.232h-.84A17.365,17.365,0,0,0,3.792,19.392Zm9.984-6.1q0,.252.216.144a13.145,13.145,0,0,0,3.576-2.184h.048V27.792H18.96V9.744H17.3a10.494,10.494,0,0,1-3.528,2.592Zm12.7,12.168c-.12-.12-.264-.072-.264.1v1.128a8.646,8.646,0,0,0,4.92,1.3c3.936,0,6.36-2.568,6.36-5.928,0-3.168-2.592-5.064-6.312-5.064a18.383,18.383,0,0,0-3.024.264h-.024l.384-6.36h7.872V9.816h-9L26.9,18.48a19.193,19.193,0,0,1,3.576-.432c3.12,0,5.688,1.152,5.688,4.224a4.821,4.821,0,0,1-4.944,4.656A8.34,8.34,0,0,1,26.472,25.464ZM42.384,12.6a1.248,1.248,0,1,0,1.272,1.248A1.231,1.231,0,0,0,42.384,12.6Zm0,9.888a1.248,1.248,0,1,0,1.272,1.248A1.231,1.231,0,0,0,42.384,22.488Zm6.5-9.192q0,.252.216.144a13.145,13.145,0,0,0,3.576-2.184h.048V27.792h1.344V9.744H52.416a10.494,10.494,0,0,1-3.528,2.592Zm13.248-.456c1.536-1.44,2.952-2.256,4.68-2.256,2.5,0,3.72,1.3,3.72,3.5,0,1.824-.888,2.688-3.5,6.024l-5.832,6.5v1.176H72.264v-1.2H62.952v-.048l5.472-6.168C70.608,17.736,72,16.2,72,14.04c0-3.168-1.992-4.608-5.256-4.608a7.807,7.807,0,0,0-4.9,1.9v1.416C61.848,12.912,62.016,12.96,62.136,12.84ZM77.5,12.6a1.248,1.248,0,1,0,1.272,1.248A1.231,1.231,0,0,0,77.5,12.6Zm0,9.888a1.248,1.248,0,1,0,1.272,1.248A1.231,1.231,0,0,0,77.5,22.488Zm5.208,2.3c-.12-.12-.288-.072-.288.1v1.32a8,8,0,0,0,5.3,1.8c3.864,0,5.88-2.424,5.88-5.064a4.478,4.478,0,0,0-3.96-4.656V18.24a4.336,4.336,0,0,0,3.48-4.416c0-2.568-1.944-4.44-5.376-4.44a7.957,7.957,0,0,0-4.824,1.632V12.36c0,.168.168.216.288.1a6.453,6.453,0,0,1,4.608-1.944c2.328,0,3.912,1.344,3.912,3.456,0,3.144-3.216,3.792-4.776,3.792h-.384v1.128h.72c2.856,0,4.92,1.368,4.92,4.056,0,2.448-2.04,3.912-4.44,3.912A6.916,6.916,0,0,1,82.7,24.792ZM101.9,27c-2.424,0-4.632-1.512-4.632-4.032a4.654,4.654,0,0,1,9.264,0C106.536,25.488,104.328,27,101.9,27Zm0-9.384c-1.992,0-4.224-1.2-4.224-3.576,0-2.232,2.016-3.624,4.224-3.624s4.224,1.392,4.224,3.624C106.128,16.416,103.9,17.616,101.9,17.616Zm0,10.416c3.768,0,5.952-2.16,5.952-4.92,0-2.3-1.128-4.1-3.936-4.8V18.24c2.232-.7,3.528-2.256,3.528-4.2,0-2.544-1.776-4.632-5.544-4.632S96.36,11.5,96.36,14.04c0,1.944,1.248,3.5,3.528,4.2v.072c-2.808.7-3.936,2.5-3.936,4.8C95.952,25.872,98.28,28.032,101.9,28.032Zm14.064-8.64a17.365,17.365,0,0,0-4.656-11.16h-.84a19.95,19.95,0,0,1,3.936,11.16,19.857,19.857,0,0,1-3.96,11.16h.864A17.312,17.312,0,0,0,115.968,19.392Z" transform="translate(1184 781)" fill="#444"/>
          <g id="그룹_25" data-name="그룹 25" transform="translate(-1)">
            <g id="버튼" transform="translate(14 9)">
              <g transform="matrix(1, 0, 0, 1, 175, 541)" filter="url(#사각형_147)">
                <rect id="사각형_147-2" data-name="사각형 147" width="178.968" height="46.104" rx="8" transform="translate(510.19 214.28)" fill="#7752e8"/>
              </g>
              <path id="패스_406" data-name="패스 406" d="M8.28-18.168a15.007,15.007,0,0,1-.456,3.984A12.709,12.709,0,0,0,13.656-8.52L12.384-7.056a13.444,13.444,0,0,1-5.352-4.992,12.7,12.7,0,0,1-5.424,5.64L.192-7.776C4.3-10.1,6.408-13.392,6.144-18.168ZM21.168-11.28H17.712v5.856H15.648v-13.3h2.064V-13.1h3.456ZM17.952-.936c0,2.472-2.4,4.32-7.1,4.32s-7.1-1.848-7.1-4.32c0-2.5,2.4-4.224,7.1-4.224S17.952-3.432,17.952-.936Zm-2.16.048c0-1.392-1.512-2.5-4.944-2.5-3.384,0-4.968,1.1-4.968,2.5s1.584,2.5,4.968,2.5C14.28,1.608,15.792.5,15.792-.888ZM31.008-12.024a16.425,16.425,0,0,0,5.064,3.648L34.8-6.864a18.1,18.1,0,0,1-4.992-3.792,18.674,18.674,0,0,1-6.528,4.32L21.912-7.824c4.224-1.488,8.064-4.92,8.952-8.208-1.656.072-3.408.072-5.136.072H23.5v-1.776h3.7c2.016,0,4.032,0,6.264-.048A11.357,11.357,0,0,1,31.008-12.024Zm3.216.336v-1.824h3.864V-18.72h2.064V-6H38.088v-5.688ZM40.152,2.856H26.472V-4.752h13.68ZM38.088-2.928H28.536V1.056h9.552Zm11.64.144v-14.28H51.84v5.424h5.568v-5.424h2.04v14.28Zm7.7-7.1H51.816v5.352h5.616Zm12.12,1.152H65.784V3.192H63.72V-18.72h2.064v8.16h3.768Zm3.912,3.168v-6.624H85.1V-15.36H73.44v-1.8H87.168v6.672H75.528V-7.32h12.36v1.752h-6.5v3.912H90.5V.1H70.1V-1.656h9.12V-5.568Zm18.12,2.544c5.64-2.808,8.5-7.3,9.144-12.1-1.944.072-3.864.072-5.784.072H92.472v-1.776H96.24c2.232,0,4.488,0,6.744-.048A17.8,17.8,0,0,1,92.976-1.512Zm20.784-5.4H108.6V3.192h-2.064V-18.72H108.6v8.472h3.768ZM129.1-18.72h2.064V3.192H129.1ZM113.3-3.024c5.64-2.808,8.568-7.3,9.216-12.1-1.944.072-3.864.072-5.784.072h-2.544v-1.776h3.84c2.232,0,4.488,0,6.744-.048-.456,6.6-3.576,11.88-10.08,15.36Z" transform="translate(709 786)" fill="#fff"/>
            </g>
            <g transform="matrix(1, 0, 0, 1, 189, 550)" filter="url(#도트_라인)">
              <g id="도트_라인-2" data-name="도트 라인" transform="translate(483 191)" fill="none" stroke="#ed0000" stroke-width="6" stroke-dasharray="18 12">
                <rect width="235" height="94" rx="20" stroke="none"/>
                <rect x="3" y="3" width="229" height="88" rx="17" fill="none"/>
              </g>
            </g>
          </g>
        </g>
      </g>
    </g>
    <g id="그룹_18" data-name="그룹 18" transform="translate(-14 -2)">
      <g id="사각형_134" data-name="사각형 134" transform="translate(212 571)" fill="#7752e8" stroke="#707070" stroke-width="1">
        <rect width="8" height="60" rx="4" stroke="none"/>
        <rect x="0.5" y="0.5" width="7" height="59" rx="3.5" fill="none"/>
      </g>
      <path id="패스_416" data-name="패스 416" d="M20.4-32.16c-3.792.144-7.392.144-11.232.144H4.752v-3.5H12c4.464,0,8.784,0,13.3-.1C24.576-26.3,17.088-18.48,5.04-14.88l-2.3-3.312C12.144-20.832,18.48-25.344,20.4-32.16Zm12.96,1.152V-37.44h4.128v22.416H33.36v-4.7h-8.3v-3.5h8.352v-4.32H26.256v-3.456ZM38.448,5.9H9.936V-5.088H33.408V-9.072H9.936v-3.456H37.488v10.8H14.016v4.08H38.448Zm42.576.48H76.9V-37.44h4.128ZM68.208-36.96h3.984V5.28H68.208V-18.48H62.352v-3.5h5.856Zm-11.04,6.72c-2.544.192-5.616.192-8.448.192H45.84v-3.5h5.376c3.36,0,6.672,0,10.464-.1a46.794,46.794,0,0,1-3.408,14.4A33.371,33.371,0,0,0,66.816-8.112L63.552-5.328a35.833,35.833,0,0,1-7.248-9.84,40.5,40.5,0,0,1-9.456,11.52L43.536-6.1C51.744-12.672,56.064-20.448,57.168-30.24Zm31.44,24.1V-34.176h4.224V-9.792H94.7a57.459,57.459,0,0,0,12.624-1.584v3.5a54.921,54.921,0,0,1-13.1,1.728ZM123.84,6.384h-4.128v-24h-6.336V5.28h-4.032V-36.96h4.032v15.792h6.336V-37.44h4.128ZM151.3-32.256h10.512V-37.44h4.128V-12h-4.128v-6.912H151.536a11.238,11.238,0,0,1-9.168,4.464A10.817,10.817,0,0,1,131.232-25.44a10.845,10.845,0,0,1,11.136-10.992A11.148,11.148,0,0,1,151.3-32.256Zm1.872,9.888h8.688v-6.48h-8.784a11.258,11.258,0,0,1,.528,3.408A10.8,10.8,0,0,1,153.168-22.368Zm8.64,28.9V-5.952H137.616V-9.5h28.32V6.528Zm-26.5-31.968c0,4.224,2.88,7.344,7.056,7.344a7.012,7.012,0,0,0,7.152-7.344,7.039,7.039,0,0,0-7.152-7.344A6.99,6.99,0,0,0,135.312-25.44Zm88.512,25.3h-40.8v-3.5H201.36V-13.824h4.272V-3.648h18.192ZM207.408-22.176a69.763,69.763,0,0,0,13.92,6.384l-2.688,3.264a66.043,66.043,0,0,1-14.112-7.488A73.492,73.492,0,0,1,188.5-12.048l-2.544-3.216c10.9-3.36,20.64-9.888,23.616-15.024-3.648.192-7.152.192-10.7.192h-8.976v-3.6H203.04c4.128,0,8.352,0,12.816-.1C214.656-29.472,211.584-25.584,207.408-22.176Zm56.064,28.56h-4.128V-37.44h4.128ZM228.144-26.64v-3.408h26.688v3.408ZM234-32.688v-3.5h14.832v3.5Zm18.336,15.7c0,3.888-2.88,6.96-8.5,7.584V-4.8c4.7-.192,9.552-.528,13.248-1.008V-2.4a178.289,178.289,0,0,1-21.936,1.344H226.56V-4.608H235.1c1.392,0,2.928,0,4.56-.048V-9.408c-5.76-.576-8.688-3.648-8.688-7.584,0-4.368,3.6-7.632,10.7-7.632C248.736-24.624,252.336-21.36,252.336-16.992Zm-4.176,0c0-2.3-1.872-4.512-6.48-4.512s-6.528,2.208-6.528,4.512c0,2.352,1.92,4.512,6.528,4.512S248.16-14.64,248.16-16.992Z" transform="translate(244 615)" fill="#707070"/>
    </g>
    <g id="아이콘-손" transform="translate(175.037 535.016)">
      <g transform="matrix(1, 0, 0, 1, -1.04, 9.98)" filter="url(#Icon_awesome-hand-point-up)">
        <path id="Icon_awesome-hand-point-up-2" data-name="Icon awesome-hand-point-up" d="M25.519,0a8.483,8.483,0,0,1,8.244,8.428V27.212A9.253,9.253,0,0,1,47.109,28.4a8.617,8.617,0,0,1,11.723,3.095C68.076,29.8,72.238,35.62,72.238,45.148c0,.517-.038,2.5-.037,3.01.032,11.658-5.844,14.465-7.208,23.276a4.51,4.51,0,0,1-4.459,3.813H28.267a9.03,9.03,0,0,1-8.248-5.355c-2.444-5.434-9.225-17.949-14.546-20.229C2.05,48.2,0,45.641,0,42.139a9.035,9.035,0,0,1,12.587-8.3A25.568,25.568,0,0,1,17.274,36.5V8.428A8.619,8.619,0,0,1,25.519,0Zm.065,78.257H61.7a4.515,4.515,0,0,1,4.515,4.515V91.8A4.515,4.515,0,0,1,61.7,96.317H25.584A4.515,4.515,0,0,1,21.069,91.8v-9.03A4.515,4.515,0,0,1,25.584,78.257Zm31.6,5.267a3.762,3.762,0,1,0,3.762,3.762A3.762,3.762,0,0,0,57.188,83.525Z" transform="translate(534.16 147.26) rotate(120)" fill="#7752e8" stroke="#fff" stroke-width="2"/>
      </g>
      <g id="그룹_2" data-name="그룹 2" transform="matrix(-0.602, 0.799, -0.799, -0.602, 428.448, 122.979)">
        <g transform="matrix(-0.6, -0.8, 0.8, -0.6, 168.23, 411)" filter="url(#패스_4)">
          <path id="패스_4-4" data-name="패스 4" d="M9.577,0l9.577,58.1H0Z" transform="matrix(-0.6, 0.8, -0.8, -0.6, 429.48, 112.99)" fill="#fff"/>
        </g>
        <path id="다각형_4" data-name="다각형 4" d="M5.734,0l5.734,49.694H0Z" transform="translate(3.823 5.734)" fill="#7752e8"/>
      </g>
      <g id="그룹_3" data-name="그룹 3" transform="translate(449.937 126.349) rotate(-156)">
        <g transform="matrix(-0.91, 0.41, -0.41, -0.91, 459.31, -77.12)" filter="url(#패스_4-2)">
          <path id="패스_4-5" data-name="패스 4" d="M9.577,0l9.577,58.1H0Z" transform="translate(450.97 116.36) rotate(-156)" fill="#fff"/>
        </g>
        <path id="다각형_4-2" data-name="다각형 4" d="M5.734,0l5.734,49.694H0Z" transform="translate(3.823 5.734)" fill="#7752e8"/>
      </g>
      <g id="그룹_4" data-name="그룹 4" transform="matrix(-0.978, 0.208, -0.208, -0.978, 441.652, 122.366)">
        <g transform="matrix(-0.98, -0.21, 0.21, -0.98, 409.65, 201.97)" filter="url(#패스_4-3)">
          <path id="패스_4-6" data-name="패스 4" d="M9.577,0l9.577,58.1H0Z" transform="matrix(-0.98, 0.21, -0.21, -0.98, 442.69, 112.38)" fill="#fff"/>
        </g>
        <path id="다각형_4-3" data-name="다각형 4" d="M5.734,0l5.734,49.694H0Z" transform="translate(3.823 5.734)" fill="#7752e8"/>
      </g>
    </g>
  </g>
</svg>
