<svg xmlns="http://www.w3.org/2000/svg" xmlns:xlink="http://www.w3.org/1999/xlink" width="1200" height="600" viewBox="0 0 1200 600"><defs><clipPath id="a"><path d="M150.606,272.455l-75.6,25.116a4.185,4.185,0,0,1-5.29-2.653L55.338,251.64a4.185,4.185,0,0,1,2.65-5.291l75.6-25.116a4.185,4.185,0,0,1,5.29,2.652l14.379,43.281a4.185,4.185,0,0,1-2.65,5.29Z" transform="translate(-55.123 -221.018)" fill="#019cde"/></clipPath><clipPath id="b"><path d="M93.2,77.619,3.883,60.6a4.776,4.776,0,0,1-3.8-5.586L9.828,3.883a4.776,4.776,0,0,1,5.586-3.8L104.728,17.1a4.776,4.776,0,0,1,3.8,5.586L98.784,73.82A4.776,4.776,0,0,1,93.2,77.619Z" fill="#0075aa"/></clipPath><clipPath id="d"><rect width="1200" height="600"/></clipPath></defs><g id="c" clip-path="url(#d)"><rect width="1200" height="600" fill="#eee"/><ellipse cx="382.5" cy="265" rx="382.5" ry="265" transform="translate(-568 -191)" fill="#d4c9ff"/><ellipse cx="606" cy="199.5" rx="606" ry="199.5" transform="translate(584 408)" fill="#ef6eb0"/><g transform="translate(55.125 104.347)"><g transform="translate(86.34 58.288)"><g transform="translate(25.76 129.145)"><path d="M115.9,285.713l39.47-92.923V174.436L108.1,285.713Z" transform="translate(-108.104 -174.436)" fill="#d6953e"/><path d="M145.752,191.665l5.663,1.124V174.436l-6.8,16-1.182,2.782Z" transform="translate(-104.15 -174.436)" fill="#b57b35"/></g><g transform="translate(163.359)"><path d="M309.768,91.076l-15.678,14.555,5.4,8.237a5.811,5.811,0,0,1,.368,5.631l-.027.059a5.817,5.817,0,0,1-4.508,3.4l-9.765,1.285-.8,21.377,9.642,2.006a5.815,5.815,0,0,1,4.243,3.723l.023.06a5.817,5.817,0,0,1-.786,5.588l-6,7.813,7.277,7.839,7.277,7.839,8.237-5.4a5.811,5.811,0,0,1,5.631-.368l.059.027a5.817,5.817,0,0,1,3.4,4.508l1.285,9.765,21.377.8,2.006-9.642a5.819,5.819,0,0,1,3.723-4.244l.06-.022a5.816,5.816,0,0,1,5.588.786l7.813,6L381.3,168.131l-5.4-8.237a5.811,5.811,0,0,1-.368-5.631l.027-.059a5.817,5.817,0,0,1,4.508-3.4l9.765-1.285.794-21.377-9.642-2.006a5.815,5.815,0,0,1-4.242-3.723l-.023-.061a5.812,5.812,0,0,1,.786-5.587l6-7.813-7.277-7.839-7.277-7.839-8.237,5.4a5.811,5.811,0,0,1-5.631.368l-.059-.027a5.817,5.817,0,0,1-3.4-4.508l-1.285-9.765-21.377-.8-2.006,9.642a5.815,5.815,0,0,1-3.723,4.243l-.06.023a5.816,5.816,0,0,1-5.588-.786Zm51.07,24.321a31.578,31.578,0,1,1-44.627-1.659A31.578,31.578,0,0,1,360.838,115.4Z" transform="translate(-225.935 -55.416)" fill="#285c77"/><path d="M396.059,113.029l-6.926,6.429,2.385,3.639a2.567,2.567,0,0,1,.162,2.487l-.011.026a2.571,2.571,0,0,1-1.991,1.5l-4.314.568-.351,9.443,4.26.886a2.571,2.571,0,0,1,1.875,1.645l.01.027a2.566,2.566,0,0,1-.347,2.468l-2.649,3.452,3.215,3.462,3.215,3.464,3.639-2.386a2.567,2.567,0,0,1,2.487-.162l.026.012a2.567,2.567,0,0,1,1.5,1.991l.568,4.313,9.443.351.886-4.26a2.571,2.571,0,0,1,1.645-1.875l.027-.01a2.569,2.569,0,0,1,2.468.347l3.452,2.65,6.926-6.43-2.386-3.638a2.57,2.57,0,0,1-.162-2.488l.012-.026a2.57,2.57,0,0,1,1.991-1.5l4.313-.567.351-9.444-4.26-.886a2.569,2.569,0,0,1-1.875-1.645l-.01-.027a2.569,2.569,0,0,1,.347-2.468l2.65-3.451-3.216-3.464L422.2,114l-3.639,2.385a2.567,2.567,0,0,1-2.487.162l-.026-.011a2.573,2.573,0,0,1-1.5-1.991l-.567-4.314-9.444-.35-.886,4.26a2.569,2.569,0,0,1-1.644,1.874l-.027.01a2.566,2.566,0,0,1-2.468-.347Zm22.56,10.743a13.95,13.95,0,1,1-19.715-.733A13.95,13.95,0,0,1,418.619,123.772Z" transform="translate(-214.717 -52.515)" fill="#d6953e"/><path d="M248.1,62.919l-10.188,9.458,3.509,5.353a3.774,3.774,0,0,1,.239,3.658l-.017.039a3.781,3.781,0,0,1-2.93,2.207l-6.345.835-.517,13.891,6.267,1.3a3.777,3.777,0,0,1,2.756,2.418l.014.04a3.776,3.776,0,0,1-.51,3.63l-3.9,5.077,4.729,5.095,4.729,5.094,5.353-3.509a3.777,3.777,0,0,1,3.658-.239l.039.018a3.779,3.779,0,0,1,2.207,2.929l.835,6.346,13.891.516,1.3-6.266a3.782,3.782,0,0,1,2.419-2.757l.039-.014a3.781,3.781,0,0,1,3.631.51l5.077,3.9,10.188-9.458-3.509-5.353a3.779,3.779,0,0,1-.239-3.659l.018-.038a3.777,3.777,0,0,1,2.929-2.207l6.346-.835.516-13.892-6.266-1.3a3.783,3.783,0,0,1-2.758-2.418l-.014-.04a3.776,3.776,0,0,1,.51-3.63l3.9-5.078-4.729-5.094-4.728-5.094L281.2,67.857a3.779,3.779,0,0,1-3.659.24l-.038-.018a3.779,3.779,0,0,1-2.207-2.929l-.835-6.346-13.892-.517-1.3,6.267a3.779,3.779,0,0,1-2.419,2.756l-.039.014a3.775,3.775,0,0,1-3.631-.51Zm33.186,15.8a20.52,20.52,0,1,1-29-1.077A20.52,20.52,0,0,1,281.289,78.722Z" transform="translate(-231.855 -58.288)" fill="#d6953e"/></g><g transform="translate(0 235.296)"><g transform="translate(0 5.053)"><path d="M89.751,284.079h357.44a4.814,4.814,0,0,0,4.815-4.815h0a4.815,4.815,0,0,0-4.815-4.816H89.751a4.815,4.815,0,0,0-4.815,4.816h0A4.814,4.814,0,0,0,89.751,284.079Z" transform="translate(-84.936 -274.449)" fill="#868689"/><path d="M85.295,280.5a4.813,4.813,0,0,0,4.415,2.9H447.15a4.815,4.815,0,0,0,4.415-2.9Z" transform="translate(-84.896 -273.772)" fill="#6d6d6d"/></g><rect width="132.635" height="5.053" transform="translate(242.803 5.053) rotate(180)" fill="#c5c4d7"/><rect width="132.635" height="5.053" transform="translate(256.269 5.053) rotate(180)" fill="#a5a5ad"/></g><g transform="translate(73.025 67.198)"><rect width="213.048" height="133.246" rx="7.004" transform="translate(4.475 4.474)" fill="#172f47"/><rect width="2.869" height="93.162" transform="translate(109.539 24.423)" fill="#202739"/><path d="M367.685,136.717v-6.791a7.178,7.178,0,0,0-7.178-7.178H161.815a7.178,7.178,0,0,0-7.178,7.178v6.791Z" transform="translate(-150.162 -118.273)" fill="#a7a6bb"/><g transform="translate(127.873 26.967)"><g transform="translate(0 45.785)"><rect width="29.273" height="5.046" fill="#fefefe"/><rect width="36.435" height="5.046" transform="translate(0 9.777)" fill="#fd7c3a"/><rect width="18.062" height="5.046" transform="translate(40.172 9.777)" fill="#fefefe"/><rect width="14.325" height="5.046" transform="translate(0 19.555)" fill="#fefefe"/><rect width="53.874" height="5.046" transform="translate(19.307 19.555)" fill="#fefefe"/><rect width="16.808" height="5.046" transform="translate(36.124)" fill="#004db9"/></g><rect width="29.273" height="5.046" fill="#fefefe"/><rect width="36.435" height="5.046" transform="translate(0 9.777)" fill="#fd7c3a"/><rect width="18.062" height="5.046" transform="translate(40.172 9.777)" fill="#fefefe"/><rect width="14.325" height="5.046" transform="translate(0 19.554)" fill="#fefefe"/><rect width="53.874" height="5.046" transform="translate(19.307 19.554)" fill="#fefefe"/><rect width="16.808" height="5.046" transform="translate(36.124)" fill="#004db9"/></g><g transform="translate(28.284 26.967)"><g transform="translate(0 45.785)"><rect width="29.273" height="5.046" fill="#fefefe"/><rect width="36.435" height="5.046" transform="translate(0 9.777)" fill="#fd7c3a"/><rect width="18.062" height="5.046" transform="translate(40.172 9.777)" fill="#fefefe"/><rect width="14.325" height="5.046" transform="translate(0 19.555)" fill="#fefefe"/><rect width="53.874" height="5.046" transform="translate(19.307 19.555)" fill="#fefefe"/><rect width="16.808" height="5.046" transform="translate(36.124)" fill="#004db9"/></g><rect width="29.273" height="5.046" fill="#fefefe"/><rect width="36.435" height="5.046" transform="translate(0 9.777)" fill="#fd7c3a"/><rect width="18.062" height="5.046" transform="translate(40.172 9.777)" fill="#fefefe"/><rect width="14.325" height="5.046" transform="translate(0 19.554)" fill="#fefefe"/><rect width="53.874" height="5.046" transform="translate(19.307 19.554)" fill="#fefefe"/><rect width="16.808" height="5.046" transform="translate(36.124)" fill="#004db9"/></g><path d="M357.69,260.917H165.533A14.937,14.937,0,0,1,150.612,246V133.642a14.937,14.937,0,0,1,14.921-14.919H357.69a14.936,14.936,0,0,1,14.919,14.919V246A14.936,14.936,0,0,1,357.69,260.917ZM165.533,127.672a5.978,5.978,0,0,0-5.972,5.971v92.43a5.978,5.978,0,0,0,5.972,5.971H357.69a5.978,5.978,0,0,0,5.971-5.971v-92.43a5.978,5.978,0,0,0-5.971-5.971Z" transform="translate(-150.612 -118.723)" fill="#868689"/><path d="M335.681,226.311l.435-1.9a15.219,15.219,0,0,0-4.487-14.54h0a15.218,15.218,0,0,0-14.836-3.385l-.925.286,11.449,10.62-1.739,7.622-7.47,2.3-11.449-10.621-.215.944a15.214,15.214,0,0,0,4.487,14.54h0a15.217,15.217,0,0,0,14.835,3.385l1.865-.576,16.8,15.589a14.967,14.967,0,0,0,9.176-7.632Z" transform="translate(-133.217 -108.978)" fill="#d3d3d3" style="mix-blend-mode:multiply;isolation:isolate"/><g transform="translate(0 6.758)"><path d="M356.789,124.8H164.632a5.978,5.978,0,0,0-5.972,5.971v2.19a5.978,5.978,0,0,1,5.972-5.971H356.789a5.978,5.978,0,0,1,5.971,5.971v-2.19A5.978,5.978,0,0,0,356.789,124.8Z" transform="translate(-149.711 -124.801)" fill="#6d6d6d"/><path d="M357.69,246.138H165.533a14.936,14.936,0,0,1-14.921-14.918v2.189a14.937,14.937,0,0,0,14.921,14.919H357.69a14.936,14.936,0,0,0,14.919-14.919V231.22A14.935,14.935,0,0,1,357.69,246.138Z" transform="translate(-150.612 -112.893)" fill="#6d6d6d"/></g><path d="M333.959,131.423a2.248,2.248,0,1,1-2.248-2.247A2.249,2.249,0,0,1,333.959,131.423Z" transform="translate(-130.599 -117.553)" fill="#fefefe"/><path d="M326.934,131.423a2.248,2.248,0,1,1-2.247-2.247A2.248,2.248,0,0,1,326.934,131.423Z" transform="translate(-131.385 -117.553)" fill="#202739"/><path d="M319.91,131.423a2.248,2.248,0,1,1-2.248-2.247A2.248,2.248,0,0,1,319.91,131.423Z" transform="translate(-132.171 -117.553)" fill="#fd7c3a"/></g><g transform="translate(35.802 124.251)"><path d="M145.59,286.205,193.742,172.84l-6.6-2.805L137.794,286.205Z" transform="translate(-114.823 -170.035)" fill="#d6953e"/><path d="M145.1,191.883h0a3.588,3.588,0,0,1,3.588-3.588h30.751v7.175H148.686A3.587,3.587,0,0,1,145.1,191.883Z" transform="translate(-114.006 -167.991)" fill="#d6953e"/><rect width="7.175" height="34.21" transform="translate(55.608 45.885) rotate(90)" fill="#d6953e"/><rect width="7.175" height="34.979" transform="translate(45.358 71.467) rotate(90)" fill="#d6953e"/><rect width="7.175" height="33.954" transform="translate(33.954 97.048) rotate(90)" fill="#d6953e"/></g><g transform="translate(251.008 153.26)"><path d="M377.288,274.037l-38.4-54.531.819-1.77a15.217,15.217,0,0,0-15.174-21.55l-.964.087,8.991,12.769-3.285,7.093-7.787.7L312.5,204.07l-.407.878A15.216,15.216,0,0,0,327.267,226.5l1.944-.175,38.4,54.53a5.918,5.918,0,1,0,9.678-6.815Z" transform="translate(-310.683 -196.125)" fill="#adadad"/><path d="M369.115,273.231h0a2.912,2.912,0,0,1-4.058-.7l-32.171-45.685a2.913,2.913,0,0,1,.7-4.058h0a2.912,2.912,0,0,1,4.058.7l32.171,45.685A2.913,2.913,0,0,1,369.115,273.231Z" transform="translate(-308.258 -193.201)" fill="#868689"/></g></g><g transform="translate(72.385 416.492)"><path d="M461.118,392.936H78.632a6.246,6.246,0,0,1-6.247-6.247h0a6.247,6.247,0,0,1,6.247-6.247H461.118a6.248,6.248,0,0,1,6.247,6.247h0A6.247,6.247,0,0,1,461.118,392.936Z" transform="translate(-72.385 -380.443)" fill="#e4e4ef"/><path d="M331.685,392.936H184.4a6.246,6.246,0,0,1-6.247-6.247h0a6.247,6.247,0,0,1,6.247-6.247H331.685a6.247,6.247,0,0,1,6.247,6.247h0A6.246,6.246,0,0,1,331.685,392.936Z" transform="translate(-60.55 -380.443)" fill="#c5c4d7"/></g><g transform="translate(207.714 156.856)"><path d="M249.127,289.57H284.4a17.658,17.658,0,0,1,1.79.1c12,1.245,19.967,13.085,17.164,24.816L288.92,381.666H268.178l9.956-63.721H249.127Z" transform="translate(-187.937 -130.976)" fill="#897762"/><path d="M266.261,372.4h17.312S302,374.14,302,386.338H266.261Z" transform="translate(-186.02 -121.708)" fill="#331d0b"/><path d="M256.447,289.57H221.176a17.693,17.693,0,0,0-1.79.1c-12,1.245-19.966,13.085-17.163,24.816l14.432,67.183H237.4l-9.956-63.721h29.006Z" transform="translate(-193.249 -130.976)" fill="#897762"/><path d="M280.359,379.612c.069-.229.138-.455.208-.684,2.4-7.911,4.667-26.832,6.913-34.789,2.4-8.512,4.642-17.082,6.3-25.775.339-1.783.628-3.574.941-5.362.118-.8.2-1.335.24-1.606.11-.932.219-1.862.31-2.8.021-.225.036-.45.056-.676h-46.2v7.966h29.007l-9.956,63.721Z" transform="translate(-187.937 -128.922)" fill="#635140"/><path d="M255.4,307.926H211.026q.315,1.359.658,2.714c1.951,7.673,4.46,15.191,6.964,22.7,2.441,7.315,5,14.633,6.877,22.118,1.1,4.393,1.946,19.785,3.049,24.157h7.774l-9.956-63.721H255.4Z" transform="translate(-192.2 -128.922)" fill="#635140"/><g transform="translate(30.391 0)"><g transform="translate(0 9.222)"><g transform="translate(0 27.46)"><path d="M232.849,184.226s-4.416-6.968-9.473-3.162.3,17.571,9.5,15.35Z" transform="translate(-221.428 -179.926)" fill="#edac7c"/><path d="M232.611,188.5l.014,6.274c-7.828.633-11.177-10.506-7.494-11.647C228.11,182.205,231.3,186.309,232.611,188.5Z" transform="translate(-221.181 -179.583)" fill="#f7a588"/><path d="M223.674,185.271s.02-.046.051-.133.088-.209.153-.361a2.574,2.574,0,0,1,.794-1.006,1.481,1.481,0,0,1,.336-.168,1.792,1.792,0,0,1,.189-.057l.046-.011h0c-.035.01-.008,0-.013.006l.006,0,.019,0,.029,0,.125-.021a1.579,1.579,0,0,1,.224-.024,1.958,1.958,0,0,1,.218,0,1.938,1.938,0,0,1,.227.014,1.553,1.553,0,0,1,.236.03,5,5,0,0,1,1.875.821,9.724,9.724,0,0,1,.882.659c.28.235.555.476.815.717.518.488.983.972,1.388,1.39l1.335,1.435s-.058-.191-.191-.511a11.207,11.207,0,0,0-.652-1.281c-.153-.256-.322-.534-.524-.812s-.421-.57-.669-.856a9.085,9.085,0,0,0-1.788-1.609,5.962,5.962,0,0,0-1.125-.592,4.15,4.15,0,0,0-1.245-.284,2.707,2.707,0,0,0-.316-.006,2.013,2.013,0,0,0-.307.022,2.48,2.48,0,0,0-.308.052,1.761,1.761,0,0,0-.277.076l-.122.043-.074.026-.07.03a1.814,1.814,0,0,0-.258.132,2.116,2.116,0,0,0-.417.346,2.072,2.072,0,0,0-.455.766,2.592,2.592,0,0,0-.135.633,2.965,2.965,0,0,0-.009.407Z" transform="translate(-221.178 -179.628)" fill="#cf9166"/></g><g transform="translate(56.131 32.585)"><path d="M274.026,187.753s5.544-6.108,9.874-1.491-3.311,17.259-11.99,13.5Z" transform="translate(-271.91 -184.536)" fill="#edac7c"/><path d="M273.2,191.959l-1.087,6.178c7.6,1.967,12.809-8.433,9.376-10.188C278.716,186.528,274.872,190.024,273.2,191.959Z" transform="translate(-271.887 -184.191)" fill="#f7a588"/><path d="M282.454,190.311l-.027-.139c-.018-.092-.049-.22-.09-.382a2.506,2.506,0,0,0-.609-1.13,1.471,1.471,0,0,0-.3-.223,1.754,1.754,0,0,0-.172-.083l-.048-.02h0c.034.016.007,0,.013,0h-.007l-.014-.007-.029-.011-.121-.041a1.412,1.412,0,0,0-.216-.062,1.646,1.646,0,0,0-.214-.042,2.142,2.142,0,0,0-.227-.026,1.637,1.637,0,0,0-.235-.009,4.962,4.962,0,0,0-1.99.485,10.445,10.445,0,0,0-.982.5c-.316.183-.628.372-.925.568-.594.39-1.135.787-1.606,1.13l-1.561,1.185s.091-.179.279-.47a10.439,10.439,0,0,1,.861-1.153c.193-.224.409-.468.655-.708s.511-.488.8-.728a9.106,9.106,0,0,1,2.036-1.28,6.071,6.071,0,0,1,1.212-.389,4.129,4.129,0,0,1,1.274-.066,2.843,2.843,0,0,1,.311.049,1.785,1.785,0,0,1,.3.076,2.066,2.066,0,0,1,.292.1,1.708,1.708,0,0,1,.261.122l.11.06.07.04.063.041a1.755,1.755,0,0,1,.233.176,2.263,2.263,0,0,1,.351.41,2.081,2.081,0,0,1,.315.832,2.548,2.548,0,0,1,.024.648,2.793,2.793,0,0,1-.061.4Z" transform="translate(-271.778 -184.239)" fill="#cf9166"/></g><path d="M245.227,203.761l12.723-.024s.525,19.923.573,19.923c0,0-.927,3.975-6.572,4.074s-7.045-4.051-7.045-4.051C244.953,223.573,245.227,203.761,245.227,203.761Z" transform="translate(-218.801 -149.802)" fill="#edac7c"/><path d="M245.227,203.761l12.723-.024s.525,19.923.573,19.923c0,0-.927,3.975-6.572,4.074s-7.045-4.051-7.045-4.051C244.953,223.573,245.227,203.761,245.227,203.761Z" transform="translate(-218.801 -149.802)" fill="#cf9166"/><path d="M245.944,206.572l12.677,1.093s-.058,2.548-.1,4.719c0,.315-3.695.55-4.1.579a22.653,22.653,0,0,1-9.12-1.468C245.6,209.3,245.944,206.572,245.944,206.572Z" transform="translate(-218.756 -149.485)" fill="#cf9166"/><path d="M229.37,180.57c1.065-8.781,5.572-16.77,14.568-19.436a36.855,36.855,0,0,1,14.2-.915c4.671.479,9.628,1.213,13.879,3.288,7.614,3.718,6.118,7.7,6.226,15.808.011.8,4.966,5.107,4.923,5.9-.092,1.819-.108,3.618-.332,5.434a42.233,42.233,0,0,1-3.182,11.9,26.994,26.994,0,0,1-9.318,11.575,27.109,27.109,0,0,1-21.494,3.6,28.635,28.635,0,0,1-8.822-4.03,25.386,25.386,0,0,1-9.3-12.539,38.9,38.9,0,0,1-2.017-13.127,41.44,41.44,0,0,1,.625-7.267C229.345,180.7,229.361,180.633,229.37,180.57Z" transform="translate(-220.613 -154.704)" fill="#cf9166"/><g transform="translate(8.251 18.265)"><path d="M228.872,179.5a64.655,64.655,0,0,1,.269-7.843C228.785,176.142,228.872,179.5,228.872,179.5Z" transform="translate(-228.848 -171.657)" fill="#cf9166"/></g><path d="M234.44,163.32c7.978-11.975,50.624-15.607,53.326,24.74,1.97,29.4-31.25,33.061-47.237,26.159C213.332,202.473,226.46,175.293,234.44,163.32Z" transform="translate(-221.121 -155.23)" fill="#b57223"/></g><path d="M229.166,194.4s-3.783-1.153-5.936-9.64c-1.471-5.8.212-18.012,7.359-23.887,4.193-3.448,5.358-1.841,5.358-1.841s1.1-4.152,9.032-7.591c26.011-11.276,32.645.99,36.345,11.112,5.048,13.814,2.514,24.122-24.689,15.217-10.986-3.6-17.965-5.388-17.965-5.388a22.37,22.37,0,0,1-2.11,8.609c-2.2,5.049-7.475,10.533-7.475,10.533" transform="translate(-221.281 -146.937)" fill="#b57223"/></g><path d="M304.8,263.772,289.623,229.21c-2.175-4.951-8.011-8.264-14.561-8.264H236.818c-6.55,0-12.387,3.312-14.561,8.264l-15.177,34.562c-3.53,8.038,3.912,16.459,14.545,16.459h68.631C300.888,280.231,308.331,271.81,304.8,263.772Z" transform="translate(-192.741 -138.655)" fill="#004db9"/><rect width="75.597" height="89.359" rx="14.084" transform="translate(25.801 88.401)" fill="#39748e"/><rect width="68.227" height="83.883" rx="14.084" transform="translate(29.486 88.401)" fill="#285c77"/><rect width="68.227" height="44.313" rx="14.084" transform="translate(28.369 33.842)" fill="#39748e"/><path d="M270.52,217.753H236.071a12.678,12.678,0,0,1-12.637-12.719v-13.6a12.678,12.678,0,0,1,12.637-12.719H270.52a12.678,12.678,0,0,1,12.637,12.719v13.6A12.678,12.678,0,0,1,270.52,217.753Z" transform="translate(-190.812 -143.381)" fill="#285c77"/><ellipse cx="44.261" cy="10.399" rx="44.261" ry="10.399" transform="translate(17.854 179.184)" fill="#285c77"/><path d="M219.576,311.772a330.888,330.888,0,0,0,33.783,1.473,330.881,330.881,0,0,0,33.782-1.473c-8.119-2.253-20.237-3.684-33.782-3.684S227.7,309.519,219.576,311.772Z" transform="translate(-191.244 -128.904)" fill="#39748e"/><path d="M210.917,319.269c4.025,4.769,21.927,8.366,43.411,8.366s39.386-3.6,43.41-8.366Z" transform="translate(-192.213 -127.653)" fill="#77bfd8" style="mix-blend-mode:multiply;isolation:isolate"/><path d="M257.112,384.686h-13V278.31a6.5,6.5,0,0,1,6.5-6.5h0a6.5,6.5,0,0,1,6.5,6.5Z" transform="translate(-188.498 -132.963)" fill="#202739"/><path d="M254.99,282.868h-9.143v-91.22a4.572,4.572,0,0,1,4.572-4.572h0a4.572,4.572,0,0,1,4.571,4.572Z" transform="translate(-188.304 -142.445)" fill="#202739"/><path d="M237.4,372.4H220.083s-18.423,1.742-18.423,13.94H237.4Z" transform="translate(-193.249 -121.708)" fill="#331d0b"/><g transform="translate(0 140.423)"><path d="M255.724,331.25a114.718,114.718,0,0,1-37.988-4.3c-14.269-4.22-12.463-33.7-10.137-47.685,5.6-.226,9.894-1.479,9.894-3,0-1.677-5.238-3.037-11.7-3.037s-11.7,1.36-11.7,3.037c0,1.39,3.6,2.558,8.506,2.919-1.74,11.039-5.66,46.054,13.484,51.714a121.034,121.034,0,0,0,33.544,4.749c3.928,0,6.356-.208,6.627-.232Z" transform="translate(-194.095 -273.228)" fill="#202739"/><g transform="translate(64.06)"><path d="M252.238,331.25a114.722,114.722,0,0,0,37.989-4.3c14.269-4.22,12.463-33.7,10.136-47.685-5.6-.226-9.893-1.479-9.893-3,0-1.677,5.238-3.037,11.7-3.037s11.7,1.36,11.7,3.037c0,1.39-3.6,2.558-8.506,2.919,1.74,11.039,5.66,46.054-13.484,51.714a121.034,121.034,0,0,1-33.544,4.749c-3.928,0-6.356-.208-6.627-.232Z" transform="translate(-251.708 -273.228)" fill="#202739"/></g></g><path d="M258.4,380.963a7.636,7.636,0,1,1-7.635-7.637A7.635,7.635,0,0,1,258.4,380.963Z" transform="translate(-188.608 -121.604)" fill="#202739"/><path d="M258.4,275.033a7.636,7.636,0,1,1-7.635-7.635A7.636,7.636,0,0,1,258.4,275.033Z" transform="translate(-188.608 -133.457)" fill="#202739"/><g transform="translate(29.299 251.722)"><path d="M235.717,380.963a7.636,7.636,0,1,1-7.635-7.637A7.635,7.635,0,0,1,235.717,380.963Z" transform="translate(-220.445 -373.326)" fill="#202739"/><path d="M281.009,380.963a7.636,7.636,0,1,1-7.636-7.637A7.636,7.636,0,0,1,281.009,380.963Z" transform="translate(-215.377 -373.326)" fill="#202739"/></g><rect width="46.297" height="5.352" transform="translate(39.012 250.691)" fill="#202739"/></g></g><g transform="translate(71.599 54.934)"><g transform="translate(794.118 215.522)"><g transform="translate(0)"><path d="M150.606,272.455l-75.6,25.116a4.185,4.185,0,0,1-5.29-2.653L55.338,251.64a4.185,4.185,0,0,1,2.65-5.291l75.6-25.116a4.185,4.185,0,0,1,5.29,2.652l14.379,43.281a4.185,4.185,0,0,1-2.65,5.29Z" transform="translate(-55.123 -221.018)" fill="#019cde"/><g transform="translate(0)" clip-path="url(#a)"><circle cx="44.153" cy="44.153" r="44.153" transform="translate(34.363 -15.517)" fill="#019cde"/></g></g><rect width="88.03" height="9.483" transform="translate(0.809 32.411) rotate(-18.378)" fill="#333"/><rect width="77.731" height="8.037" transform="translate(9.437 42.046) rotate(-18.378)" fill="#f0f7fb"/><rect width="45.984" height="3.969" transform="translate(13.637 54.687) rotate(-18.378)" fill="#0075aa"/><rect width="31.75" height="3.969" transform="translate(12.739 43.092) rotate(-18.362)" fill="#5b5b5b"/><rect width="31.75" height="3.969" transform="translate(15.698 60.893) rotate(-18.362)" fill="#0075aa"/><path d="M179.8,279.04l-22.222,7.383,3.132-57.917,22.222-7.383Z" transform="translate(-103.988 -221.068)" fill="#fff" opacity="0.1"/></g><g transform="matrix(0.743, -0.669, 0.669, 0.743, 771.647, 365.321)"><path d="M93.2,77.619,3.883,60.6a4.776,4.776,0,0,1-3.8-5.586L9.828,3.883a4.776,4.776,0,0,1,5.586-3.8L104.728,17.1a4.776,4.776,0,0,1,3.8,5.586L98.784,73.82A4.776,4.776,0,0,1,93.2,77.619Z" transform="translate(0 0)" fill="#0075aa"/><g transform="translate(0 0)" clip-path="url(#b)"><circle cx="50.396" cy="50.396" r="50.396" transform="translate(17.7 45.455) rotate(-45)" fill="#0075aa"/></g><path d="M26.254,60.984,0,55.982,35.337,0,61.592,5Z" transform="translate(43.706 12.207)" fill="#fff" opacity="0.1"/><rect width="19.895" height="4.87" transform="translate(10.479 31.855) rotate(10.787)" fill="#f0f7fb"/><rect width="10.532" height="4.87" transform="translate(66.626 51.631) rotate(10.787)" fill="#f0f7fb"/><rect width="10.532" height="4.87" transform="translate(52.915 49.019) rotate(10.782)" fill="#f0f7fb"/><rect width="19.895" height="4.87" transform="translate(32.522 36.055) rotate(10.787)" fill="#f0f7fb"/><rect width="19.895" height="4.87" transform="translate(78.037 44.727) rotate(10.787)" fill="#f0f7fb"/><rect width="19.895" height="4.87" transform="translate(54.564 40.254) rotate(10.787)" fill="#f0f7fb"/><rect width="44.105" height="4.53" transform="translate(58.105 16.33) rotate(10.787)" fill="#019cde"/><rect width="36.239" height="4.53" transform="translate(7.148 49.339) rotate(10.782)" fill="#019cde"/><rect width="18.12" height="14.382" rx="7.083" transform="translate(13.807 14.389) rotate(10.782)" fill="#fadd5f"/><circle cx="4.694" cy="4.694" r="4.694" transform="matrix(0.827, -0.562, 0.562, 0.827, 82.38, 67.049)" fill="#009ce3"/><path d="M9.3,5.576A4.694,4.694,0,1,1,5.572.084,4.694,4.694,0,0,1,9.3,5.576Z" transform="translate(78.611 62.528)" fill="#df5d67"/></g><g transform="translate(872.634 162.635)"><path d="M272.035,128.766V73.036L268.867,71,265.7,73.036,262.541,71l-3.165,2.036L256.209,71l-3.164,2.036L249.879,71l-3.166,2.036L243.548,71l-3.164,2.036L237.216,71l-3.166,2.036L230.884,71l-3.167,2.036L224.55,71l-3.167,2.036L218.215,71l-3.167,2.036L211.881,71l-3.167,2.036L205.549,71l-3.164,2.036L199.214,71l-3.167,2.036L192.879,71l-3.169,2.036L186.545,71l-3.172,2.036L180.2,71l-3.172,2.036v94.41h14.53v92.641l3.167,2.036,3.164-2.036,3.164,2.036,3.165-2.036,3.166,2.036,3.164-2.036,3.165,2.036,3.167-2.036,3.165,2.036,3.167-2.036,3.166,2.036,3.166-2.036,3.166,2.036,3.167-2.036,3.166,2.036,3.167-2.036,3.167,2.036,3.167-2.036,3.167,2.036,3.167-2.036,3.165,2.036,3.166-2.036,3.167,2.036,3.167-2.036,3.167,2.036,3.169-2.036,3.167,2.036,3.172-2.036,3.172,2.036,3.172-2.036V128.766Z" transform="translate(-177.029 -66.559)" fill="#231f20" opacity="0.1"/><g transform="translate(4.631 0)"><path d="M0,0H38.68V11.706H5.853A5.853,5.853,0,0,1,0,5.853Z" transform="translate(0.003 96.446) rotate(-90)" fill="#f0f7fb"/><rect width="95.004" height="81.772" transform="translate(0.003 6.446)" fill="#f0f7fb"/><path d="M279.336,66.036,276.167,64,273,66.036,269.841,64l-3.165,2.036L263.51,64l-3.164,2.036L257.18,64l-3.167,2.036L250.849,64l-3.165,2.036L244.517,64l-3.166,2.036L238.184,64l-3.167,2.036L231.851,64l-3.167,2.036L225.516,64l-3.167,2.036L219.182,64l-3.167,2.036L212.85,64l-3.164,2.036L206.514,64l-3.167,2.036L200.18,64l-3.169,2.036L193.845,64l-3.172,2.036L187.5,64l-3.172,2.036v4.411h95.007Z" transform="translate(-184.329 -64)" fill="#f0f7fb"/><rect width="15.954" height="3.393" transform="translate(45.978 61.838)" fill="#a9d3e1"/><rect width="11.706" height="3.393" transform="translate(76.854 44.024)" fill="#a9d3e1"/><rect width="27.144" height="3.393" transform="translate(6.45 44.024)" fill="#a9d3e1"/><rect width="16.286" height="3.393" transform="translate(72.274 52.931)" fill="#a9d3e1"/><rect width="41.055" height="3.393" transform="translate(6.45 52.931)" fill="#a9d3e1"/><rect width="16.286" height="3.393" transform="translate(72.274 61.838)" fill="#a9d3e1"/><rect width="35.973" height="3.393" transform="translate(6.45 61.838)" fill="#a9d3e1"/><rect width="16.286" height="3.393" transform="translate(72.274 70.744)" fill="#a9d3e1"/><rect width="27.144" height="3.393" transform="translate(6.45 70.744)" fill="#a9d3e1"/><rect width="27.144" height="3.393" transform="translate(36.817 44.024)" fill="#a9d3e1"/><rect width="27.144" height="3.393" transform="translate(36.817 70.744)" fill="#a9d3e1"/><rect width="11.706" height="3.393" transform="translate(76.854 79.651)" fill="#a9d3e1"/><rect width="41.055" height="3.393" transform="translate(6.45 79.651)" fill="#a9d3e1"/><rect width="95.004" height="127.365" transform="translate(14.533 57.766)" fill="#fff"/><path d="M207.239,359.528l3.167,2.036,3.164-2.036,3.164,2.036,3.165-2.036,3.166,2.036,3.164-2.036,3.165,2.036,3.167-2.036,3.165,2.036,3.167-2.036,3.166,2.036,3.166-2.036,3.166,2.036,3.167-2.036,3.166,2.036,3.167-2.036,3.167,2.036,3.167-2.036,3.167,2.036,3.167-2.036,3.165,2.036,3.166-2.036,3.167,2.036,3.167-2.036,3.167,2.036,3.169-2.036,3.165,2.036,3.172-2.036,3.172,2.036,3.172-2.036v-4.411h-95Z" transform="translate(-192.706 -170.441)" fill="#fff"/><rect width="35.973" height="3.393" transform="translate(52.588 14.844)" fill="#a9d3e1"/><rect width="35.973" height="3.393" transform="translate(44.049 169.452)" fill="#a9d3e1"/><rect width="16.286" height="3.393" transform="translate(86.804 66.333)" fill="#a9d3e1"/><rect width="35.973" height="3.393" transform="translate(20.98 66.333)" fill="#a9d3e1"/><rect width="15.954" height="3.393" transform="translate(60.508 66.333)" fill="#a9d3e1"/><rect width="15.954" height="3.393" transform="translate(60.508 93.053)" fill="#a9d3e1"/><rect width="11.706" height="3.393" transform="translate(91.385 75.239)" fill="#a9d3e1"/><rect width="27.144" height="3.393" transform="translate(20.98 75.239)" fill="#a9d3e1"/><rect width="16.286" height="3.393" transform="translate(86.804 84.147)" fill="#a9d3e1"/><rect width="41.055" height="3.393" transform="translate(20.98 84.147)" fill="#a9d3e1"/><rect width="16.286" height="3.393" transform="translate(86.804 93.053)" fill="#a9d3e1"/><rect width="35.973" height="3.393" transform="translate(20.98 93.053)" fill="#a9d3e1"/><rect width="16.286" height="3.393" transform="translate(86.804 101.96)" fill="#a9d3e1"/><rect width="27.144" height="3.393" transform="translate(20.98 101.96)" fill="#a9d3e1"/><rect width="27.144" height="3.393" transform="translate(51.347 75.239)" fill="#a9d3e1"/><rect width="27.144" height="3.393" transform="translate(51.347 101.96)" fill="#a9d3e1"/><rect width="11.706" height="3.393" transform="translate(91.385 110.866)" fill="#a9d3e1"/><rect width="16.286" height="3.393" transform="translate(86.804 153.314)" fill="#a9d3e1"/><rect width="41.055" height="3.393" transform="translate(20.98 110.866)" fill="#a9d3e1"/><rect width="15.954" height="3.393" transform="translate(60.508 118.91)" fill="#a9d3e1"/><rect width="16.286" height="3.393" transform="translate(86.804 118.91)" fill="#a9d3e1"/><rect width="35.973" height="3.393" transform="translate(20.98 118.91)" fill="#a9d3e1"/><rect width="16.286" height="3.393" transform="translate(86.804 127.817)" fill="#a9d3e1"/><rect width="27.144" height="3.393" transform="translate(20.98 127.817)" fill="#a9d3e1"/><rect width="27.144" height="3.393" transform="translate(51.347 127.817)" fill="#a9d3e1"/><rect width="11.706" height="3.393" transform="translate(91.385 136.723)" fill="#a9d3e1"/><rect width="41.055" height="3.393" transform="translate(20.98 136.723)" fill="#a9d3e1"/><text transform="translate(20.98 157.417)" fill="#4a6e88" font-size="6" font-family="OpenSans-Bold, Open Sans" font-weight="700"><tspan x="0" y="0">TOTAL</tspan></text><text transform="translate(30.817 32.269)" fill="#4a6e88" font-size="8" font-family="OpenSans-Bold, Open Sans" font-weight="700"><tspan x="0" y="0">RECEIPT</tspan></text><line x2="82.11" transform="translate(6.704 35.478)" fill="none" stroke="#a9d3e1" stroke-miterlimit="10" stroke-width="2"/><line x2="82.11" transform="translate(20.98 147.334)" fill="none" stroke="#a9d3e1" stroke-miterlimit="10" stroke-width="2"/><line x2="82.11" transform="translate(20.98 162.687)" fill="none" stroke="#a9d3e1" stroke-miterlimit="10" stroke-width="2"/><path d="M198.864,155.06v38.68H184.333Z" transform="translate(-184.33 -97.294)" fill="#bad2db"/></g></g></g></g></svg>